<svg width="329" height="213" viewBox="0 0 329 213" fill="none" xmlns="http://www.w3.org/2000/svg">
<path d="M0 20C0 8.9543 8.95431 0 20 0H309C320.046 0 329 8.95431 329 20V213H0V20Z" fill="#FCEBBE"/>
<circle cx="162.5" cy="125.5" r="79.5" fill="white"/>
<rect y="128" width="329" height="84" fill="#FFDB7D"/>
<path d="M153.316 184.157C124.902 180.353 101.404 178.552 85.0361 158.931C74.4715 146.266 71.9482 112.501 97.921 102.695C123.894 92.8897 118.922 74.2379 128.37 58.1844C137.818 42.1333 164.1 29.4949 180.598 51.1848C197.097 72.8748 205.331 86.2527 230.241 91.5338C261.062 98.0669 270.401 138.177 236.563 165.6C202.726 193.022 153.316 184.157 153.316 184.157Z" fill="#DDEEFF"/>
<path d="M246.949 182.026C246.292 178.053 242.855 175.017 238.695 175.017C237.958 175.017 237.245 175.121 236.563 175.302C234.787 170.891 230.475 167.773 225.426 167.773C220.94 167.773 217.037 170.236 214.975 173.881C214.876 173.879 214.779 173.867 214.68 173.867C210.001 173.867 206.165 177.453 205.759 182.029H246.952L246.949 182.026Z" fill="#38A7FF" stroke="#26323B" stroke-width="0.5" stroke-miterlimit="10"/>
<path d="M212.309 182.026C211.652 178.053 208.215 175.017 204.055 175.017C203.316 175.017 202.605 175.121 201.923 175.302C200.147 170.891 195.835 167.773 190.786 167.773C186.3 167.773 182.397 170.236 180.335 173.881C180.236 173.879 180.139 173.867 180.04 173.867C175.361 173.867 171.525 177.453 171.119 182.029H212.311L212.309 182.026Z" fill="#38A7FF" stroke="#26323B" stroke-width="0.5" stroke-miterlimit="10"/>
<path d="M163.706 182.026C163.049 178.053 159.612 175.017 155.452 175.017C154.713 175.017 154.002 175.121 153.32 175.302C151.544 170.891 147.232 167.773 142.183 167.773C137.697 167.773 133.794 170.236 131.732 173.881C131.633 173.879 131.536 173.867 131.437 173.867C126.758 173.867 122.922 177.453 122.516 182.029H163.709L163.706 182.026Z" fill="#38A7FF" stroke="#26323B" stroke-width="0.5" stroke-miterlimit="10"/>
<path d="M127.906 182.026C127.249 178.053 123.812 175.017 119.652 175.017C118.915 175.017 118.202 175.121 117.52 175.302C115.744 170.891 111.432 167.773 106.383 167.773C101.897 167.773 97.9935 170.236 95.9319 173.881C95.8328 173.879 95.7361 173.867 95.637 173.867C90.9577 173.867 87.122 177.453 86.7159 182.029H127.908L127.906 182.026Z" fill="#38A7FF" stroke="#26323B" stroke-width="0.5" stroke-miterlimit="10"/>
<path d="M115.7 153.497C118.816 148.879 120.549 143.252 120.307 137.209C119.753 123.365 108.498 111.942 94.6629 111.2C78.9791 110.359 66 122.826 66 138.326C66 143.946 67.7064 149.166 70.6285 153.497L70.6358 153.509C70.6382 153.514 70.643 153.519 70.6454 153.524L88.9202 179.816C90.977 182.774 95.3517 182.774 97.4086 179.816L115.683 153.524C115.683 153.524 115.691 153.514 115.693 153.509L115.7 153.497Z" fill="#FF613E" stroke="#26323B" stroke-width="0.5" stroke-miterlimit="10"/>
<path d="M104.796 149.959C111.222 143.533 111.222 133.115 104.796 126.689C98.3704 120.263 87.9519 120.263 81.5259 126.689C75.0999 133.115 75.0999 143.534 81.5259 149.959C87.9519 156.385 98.3704 156.385 104.796 149.959Z" fill="white" stroke="#26323B" stroke-width="0.5" stroke-miterlimit="10"/>
<path d="M128.367 117.4L129.192 176.752H121.075L117.929 128.458L114.644 176.752H106.528L105.725 118.212L128.367 117.4Z" fill="#26323B"/>
<path d="M129.192 176.754C130.304 177.556 131.58 178.1 132.928 178.352L136.696 179.052C137.523 179.205 138.255 179.674 138.744 180.358H119.911V179.836C119.911 178.702 120.324 177.607 121.076 176.756H129.192V176.754Z" fill="#F32602" stroke="#26323B" stroke-width="0.5" stroke-linejoin="round"/>
<path d="M128.367 176.754L124.512 177.844H123.043L121.075 176.754H128.367Z" fill="#FFAE94" stroke="#26323B" stroke-width="0.5" stroke-linejoin="round"/>
<path d="M119.884 182.027H138.768C138.943 182.027 139.084 181.886 139.084 181.711V180.669C139.084 180.494 138.943 180.352 138.768 180.352H119.884C119.709 180.352 119.567 180.494 119.567 180.669V181.711C119.567 181.886 119.709 182.027 119.884 182.027Z" fill="#D4D7D8" stroke="#26323B" stroke-width="0.5" stroke-linejoin="round"/>
<path d="M114.644 176.754C115.756 177.556 117.032 178.1 118.381 178.352L122.149 179.052C122.975 179.205 123.708 179.674 124.196 180.358H105.363V179.836C105.363 178.702 105.776 177.607 106.528 176.756H114.644V176.754Z" fill="#FF613E" stroke="#26323B" stroke-width="0.5" stroke-linejoin="round"/>
<path d="M113.822 176.754L109.965 177.844H108.495L106.528 176.754H113.822Z" fill="#FFAE94" stroke="#26323B" stroke-width="0.5" stroke-linejoin="round"/>
<path d="M105.336 182.027H124.22C124.395 182.027 124.537 181.886 124.537 181.711V180.669C124.537 180.494 124.395 180.352 124.22 180.352H105.336C105.161 180.352 105.02 180.494 105.02 180.669V181.711C105.02 181.886 105.161 182.027 105.336 182.027Z" fill="white" stroke="#26323B" stroke-width="0.5" stroke-linejoin="round"/>
<path d="M112.747 84.0748L110.578 77.3412C110.578 75.9224 111.666 74.7405 113.08 74.6221L118.907 74.1387L112.747 84.0748Z" fill="#26323B" stroke="#26323B" stroke-width="0.5" stroke-linejoin="round"/>
<path d="M112.084 86.4492C112.084 86.4492 106.066 88.4432 104.71 89.381C103.584 90.1593 104.038 110.063 104.227 116.811C104.26 118.034 105.283 118.989 106.506 118.945L130.001 118.112C130.001 118.112 128.776 92.7986 127.106 90.9206C125.438 89.0426 120.343 87.1235 120.343 87.1235L112.087 86.4492H112.084Z" fill="#FF613E" stroke="#26323B" stroke-width="0.5" stroke-miterlimit="10"/>
<path d="M110.675 95.2852L110.91 107.559L108.193 105.12L110.675 95.2852Z" fill="#26323B"/>
<path d="M112.911 80.168L111.901 86.556C111.901 86.556 112.899 87.7234 116.041 88.5549C119.185 89.3863 120.341 87.1216 120.341 87.1216L120.031 82.8291L112.911 80.168Z" fill="#FFAE94" stroke="#26323B" stroke-width="0.5" stroke-linejoin="round"/>
<path d="M113.184 81.9883L117.037 82.0149L120.036 82.8922L120.341 87.1243C120.341 87.1243 120.237 87.3225 120.015 87.5787C119.386 87.557 118.673 87.4676 117.89 87.2621C114.192 86.2905 113.184 81.9883 113.184 81.9883Z" fill="#FF8061"/>
<path d="M120.341 86.4492L118.946 88.39L120.519 91.0729L121.462 87.5779L120.341 86.4492Z" fill="#F32602" stroke="#26323B" stroke-width="0.5" stroke-linejoin="round"/>
<path d="M122.052 74.1546C122.052 74.1546 122.685 76.1994 122.615 76.8762C122.545 77.5529 122.419 78.2756 122.644 79.0974C122.869 79.9167 122.784 82.8727 122.371 84.0159C121.622 86.0921 117.854 85.6353 116.534 84.9078C115.214 84.1802 114.008 83.4406 113.237 82.0992C113.095 81.8527 112.887 81.9252 112.727 81.6956C112.519 81.3983 111.763 81.5337 111.383 80.5016C110.989 79.4357 111.698 78.2538 112.379 78.3626C113.058 78.4738 113.351 79.4551 113.351 79.4551C113.351 79.4551 114.018 75.571 115.748 74.713C117.479 73.8549 122.049 74.1571 122.049 74.1571L122.052 74.1546Z" fill="#FFAE94" stroke="#26323B" stroke-width="0.5" stroke-miterlimit="10"/>
<path d="M121.204 81.9883H118.294V82.8125C118.294 83.6173 118.946 84.2675 119.749 84.2675C120.553 84.2675 121.204 83.6149 121.204 82.8125V81.9883Z" fill="white" stroke="#26323B" stroke-width="0.5" stroke-linejoin="round"/>
<path d="M112.911 80.903C112.911 80.903 112.466 78.7011 111.992 78.9935C111.519 79.286 111.741 79.9966 111.741 79.9966C111.741 79.9966 111.893 79.2594 112.019 79.4117C112.145 79.564 112.27 80.1779 112.396 80.567C112.522 80.9561 112.911 80.9005 112.911 80.9005V80.903Z" fill="#FF8061"/>
<path d="M110.579 77.3369C110.579 77.3369 113.368 76.1333 115.753 75.6257C118.136 75.1181 122.054 74.1562 122.054 74.1562L117.713 68.8848C117.713 68.8848 113.631 69.7404 111.903 71.7199C110.175 73.6994 110.581 77.3369 110.581 77.3369H110.579Z" fill="#FF613E" stroke="#26323B" stroke-width="0.5" stroke-linejoin="round"/>
<path d="M115.429 75.7013C115.429 75.7013 114.992 73.7266 115.229 72.0589C115.502 70.1519 116.123 69.2044 117.984 68.8298C121.51 68.1192 123.108 74.1375 123.108 74.1375L115.429 75.7013Z" fill="white" stroke="#26323B" stroke-width="0.5" stroke-linejoin="round"/>
<path d="M115.429 75.6997C115.429 75.6997 117.909 74.1286 120.089 73.6742C122.269 73.2198 125.644 72.8307 126.709 73.1135C127.775 73.3963 127.596 73.8023 127.319 73.928C127.041 74.0537 126.076 73.5727 124.503 73.8773C122.688 74.2277 121.917 75.603 120.52 76.0574C119.125 76.5142 115.429 75.6997 115.429 75.6997Z" fill="#FF613E" stroke="#26323B" stroke-width="0.5" stroke-linejoin="round"/>
<path d="M120.041 89.5156H149.33V134.44H120.039C119.538 134.44 119.132 134.034 119.132 133.534V90.422C119.132 89.9217 119.538 89.5156 120.039 89.5156H120.041Z" fill="#FF9869" stroke="#26323B" stroke-width="0.5" stroke-miterlimit="10"/>
<path d="M148.946 89.5156H178.619C179.119 89.5156 179.525 89.9217 179.525 90.422V133.534C179.525 134.034 179.119 134.44 178.619 134.44H148.946V89.5156Z" fill="#FFD69E" stroke="#26323B" stroke-width="0.5" stroke-miterlimit="10"/>
<path d="M139.017 89.5156H129.446V94.7532H139.017V89.5156Z" fill="white" stroke="#26323B" stroke-width="0.5" stroke-linejoin="round"/>
<path d="M139.017 129.199H129.446V134.437H139.017V129.199Z" fill="white" stroke="#26323B" stroke-width="0.5" stroke-linejoin="round"/>
<path d="M159.972 97.5862L155.575 92.1504L151.177 97.5862H153.081V101.067H158.067V97.5862H159.972Z" fill="#FF9869"/>
<path d="M159.972 102.375H151.177V103.987H159.972V102.375Z" fill="#FF9869"/>
<path d="M105.798 111.977L119.911 121.847L124.196 125.785L120.341 118.454L105.798 111.977Z" fill="#26323B"/>
<path d="M109.012 100.209L109.373 105.263L122.298 116.893C122.298 116.893 124.423 116.632 125.581 117.084C126.738 117.536 127.072 117.485 127.072 117.485L128.208 117.628C128.491 117.657 128.887 117.954 128.839 118.235C128.653 118.796 128.109 119.156 127.519 119.105L125.61 118.943L125.148 119.26L130.27 121.205C130.652 121.35 130.852 121.768 130.726 122.158C130.603 122.542 130.2 122.767 129.808 122.665L126.548 121.838L130.079 123.878C130.422 124.077 130.552 124.507 130.378 124.865C130.187 125.256 129.704 125.403 129.325 125.188L125.798 123.17L128.16 125.133C128.469 125.391 128.517 125.848 128.266 126.165C128.003 126.496 127.517 126.539 127.198 126.262L124.58 123.963L126.042 125.836C126.228 126.126 126.175 126.508 125.917 126.74C125.917 126.74 125.257 127.12 124.889 126.646L119.125 119.625L104.589 111.24C102.586 110.044 101.367 107.871 101.397 105.536L101.438 102.128L109.005 100.211L109.012 100.209Z" fill="#FFAE94" stroke="#26323B" stroke-width="0.5" stroke-linejoin="round"/>
<path d="M104.71 89.3812C104.71 89.3812 105.989 88.7214 108.701 90.667C111.412 92.6127 110.588 95.7403 110.467 98.0896C110.347 100.458 109.74 103.653 109.74 103.653H100.913C100.913 103.653 101.52 93.7148 104.708 89.3812H104.71Z" fill="#FF613E" stroke="#26323B" stroke-width="0.5" stroke-miterlimit="10"/>
<path d="M111.901 85.2148L117.126 88.7412C117.126 88.7412 115.703 91.6827 115.652 91.5304C115.601 91.3781 110.912 86.8487 110.912 86.8487L111.903 85.2148H111.901Z" fill="#F32602" stroke="#26323B" stroke-width="0.5" stroke-linejoin="round"/>
<path d="M201.653 126.598V176.752H209.769L212.913 128.459L216.2 176.752H224.317L225.363 119.555L201.653 126.598Z" fill="#0082FF" stroke="#26323B" stroke-width="0.5" stroke-miterlimit="10"/>
<path d="M211.695 147.174L201.653 148.726L211.417 151.447L211.695 147.174Z" fill="#26323B"/>
<path d="M224.711 155.153L224.894 145.135L214.161 146.793L214.538 152.318L224.711 155.153Z" fill="#26323B"/>
<path d="M218.434 86.4473C218.434 86.4473 224.452 88.4413 225.808 89.3791C227.164 90.3168 228.268 109.689 228.268 109.689L200.079 107.298C200.079 107.298 201.744 92.7966 203.412 90.9211C205.08 89.0431 210.508 87.095 210.508 87.095L218.434 86.4473Z" fill="white" stroke="#26323B" stroke-width="0.5" stroke-miterlimit="10"/>
<path d="M219.562 96.4609L220.285 106.545H224.387L219.562 96.4609Z" fill="#26323B"/>
<path d="M217.605 80.168L218.615 86.556C218.615 86.556 217.617 87.7234 214.475 88.5549C211.33 89.3863 210.508 87.1651 210.508 87.1651L210.484 82.8291L217.605 80.168Z" fill="#FFAE94" stroke="#26323B" stroke-width="0.5" stroke-miterlimit="10"/>
<path d="M217.332 81.9863L213.479 82.0129L210.484 82.8879L210.508 87.1659C210.508 87.1659 211.637 87.3182 212.792 86.9629C216.447 85.839 217.332 81.9887 217.332 81.9887V81.9863Z" fill="#FF8061"/>
<path d="M250.691 108.172L168.579 100.295C167.404 100.182 166.36 101.044 166.247 102.219L162.353 142.807C162.239 143.982 163.102 145.026 164.277 145.14L246.389 153.017C247.563 153.13 248.607 152.267 248.721 151.093L252.615 110.504C252.728 109.33 251.865 108.286 250.691 108.172Z" fill="#A4BD33" stroke="#26323B" stroke-width="0.5" stroke-miterlimit="10"/>
<path d="M245.888 119.445C242.679 119.138 240.324 116.283 240.634 113.073C240.697 112.418 240.871 111.802 241.124 111.234L177.384 105.119C177.527 105.726 177.58 106.364 177.517 107.016C177.21 110.226 174.356 112.58 171.146 112.271C170.491 112.208 169.874 112.034 169.306 111.78L167.175 133.997C167.781 133.855 168.419 133.801 169.072 133.864C172.282 134.171 174.636 137.026 174.327 140.235C174.264 140.89 174.09 141.507 173.836 142.075L237.576 148.19C237.434 147.583 237.38 146.945 237.443 146.292C237.75 143.083 240.605 140.728 243.814 141.038C244.469 141.101 245.086 141.275 245.654 141.528L247.786 119.312C247.179 119.454 246.541 119.507 245.888 119.445Z" fill="#DAE5B2"/>
<path d="M211.448 142.168C220.003 139.975 225.16 131.262 222.967 122.707C220.773 114.152 212.06 108.996 203.506 111.189C194.951 113.382 189.794 122.095 191.987 130.65C194.18 139.205 202.893 144.362 211.448 142.168Z" fill="#A4BD33"/>
<path d="M229.112 111.336L219.345 124.463L215.664 132.359C215.664 132.359 217.917 121.973 217.991 121.847C218.066 121.724 229.112 111.336 229.112 111.336Z" fill="#26323B"/>
<path d="M184.178 124.419C184.369 122.442 182.919 120.684 180.939 120.493C178.962 120.303 177.205 121.753 177.014 123.732C176.823 125.709 178.273 127.466 180.253 127.657C182.23 127.848 183.987 126.398 184.178 124.419Z" fill="#A4BD33"/>
<path d="M237.951 129.577C238.142 127.6 236.692 125.843 234.712 125.652C232.735 125.461 230.978 126.911 230.787 128.89C230.596 130.867 232.046 132.625 234.026 132.816C236.003 133.007 237.76 131.556 237.951 129.577Z" fill="#A4BD33"/>
<path d="M208.418 75.6531C208.418 75.6531 207.277 74.0168 207.316 72.7624C207.354 71.508 208.418 70.024 209.331 69.833C210.245 69.6421 210.206 70.517 210.206 70.517C210.206 70.517 210.929 69.7412 211.881 69.804C212.833 69.8693 212.338 70.517 212.338 70.517C212.338 70.517 213.314 69.6566 214.177 69.8016C215.04 69.9466 214.811 70.708 214.811 70.708C214.811 70.708 216.872 70.5944 218.218 70.9739C219.565 71.3533 219.49 73.3522 219.49 73.3522C219.49 73.3522 220.212 73.6374 220.478 75.2736C220.744 76.9099 219.915 79.061 219.495 79.9916C218.83 81.4635 217.607 82.6382 217.607 82.6382L208.418 75.6555V75.6531Z" fill="#26323B" stroke="#26323B" stroke-width="0.5" stroke-linejoin="round"/>
<path d="M208.466 73.421C208.466 73.421 207.833 75.4658 207.903 76.1425C207.973 76.8193 208.099 77.542 207.874 78.3637C207.649 79.1831 208.372 83.5167 208.783 84.6599C209.532 86.7361 212.662 86.0739 213.982 85.3464C215.301 84.6189 216.507 83.8793 217.279 82.5378C217.421 82.2913 217.629 81.1916 217.788 80.962C217.996 80.6647 218.753 80.8 219.132 79.768C219.526 78.7021 218.818 77.5202 218.137 77.629C217.457 77.7402 217.165 78.7214 217.165 78.7214C217.165 78.7214 216.959 74.7866 215.229 73.9286C213.498 73.0706 208.466 73.4234 208.466 73.4234V73.421Z" fill="#FFAE94" stroke="#26323B" stroke-width="0.5" stroke-miterlimit="10"/>
<path d="M217.605 80.1686C217.605 80.1686 218.049 77.9667 218.523 78.2592C218.997 78.5516 218.774 79.2622 218.774 79.2622C218.774 79.2622 218.622 78.525 218.496 78.6773C218.371 78.8296 218.245 79.4435 218.119 79.8326C217.994 80.2218 217.605 80.1662 217.605 80.1662V80.1686Z" fill="#FF8061"/>
<path d="M226.12 89.7074C226.12 89.7074 223.913 88.8421 221.201 90.7878C218.489 92.7334 219.355 96.2114 220.048 98.087C220.744 99.965 221.583 103.402 221.583 103.402L230.238 102.435C230.238 102.435 229.308 94.0386 226.117 89.705L226.12 89.7074Z" fill="white" stroke="#26323B" stroke-width="0.5" stroke-miterlimit="10"/>
<path d="M222.468 103.305L222.939 106.621L214.68 122.22C214.68 122.22 212.599 122.723 211.674 123.552C210.748 124.384 210.419 124.454 210.419 124.454L209.404 124.985C209.148 125.111 208.882 125.529 209.027 125.776C209.397 126.235 210.035 126.38 210.567 126.126L212.297 125.302L212.839 125.435L208.727 129.058C208.42 129.329 208.379 129.79 208.633 130.109C208.884 130.426 209.339 130.494 209.672 130.262L212.435 128.343L209.846 131.494C209.595 131.801 209.624 132.251 209.912 132.522C210.228 132.821 210.733 132.79 211.011 132.454L213.602 129.324L212.082 131.992C211.881 132.343 212 132.787 212.345 132.995C212.708 133.213 213.179 133.082 213.38 132.71L215.023 129.638L214.301 132.004C214.211 132.548 214.736 132.807 214.736 132.807C215.118 132.954 215.543 132.749 215.664 132.357L218.603 123.661L229.112 111.337C230.337 109.768 230.891 107.777 230.652 105.802L230.241 102.438L222.47 103.305H222.468Z" fill="#FFAE94" stroke="#26323B" stroke-width="0.5" stroke-linejoin="round"/>
<path d="M199.139 103.223C199.139 103.223 198.276 100.739 197.718 100.483C197.16 100.224 192.985 100.139 191.951 100.483C190.919 100.826 190.187 104.785 190.66 106.034C191.134 107.282 192.188 107.39 192.898 107.434C193.609 107.477 196.749 107.562 197.222 107.434C197.696 107.306 198.52 107.144 198.549 106.547C198.578 105.95 198.298 105.305 198.298 104.572C198.298 103.84 199.139 103.226 199.139 103.226V103.223Z" fill="#FFAE94" stroke="#26323B" stroke-width="0.5" stroke-miterlimit="10"/>
<path d="M201.653 176.752C200.541 177.554 199.265 178.098 197.916 178.35L194.148 179.05C193.321 179.203 192.589 179.672 192.101 180.356H210.934V179.834C210.934 178.7 210.521 177.605 209.769 176.754H201.653V176.752Z" fill="#D4D7D8" stroke="#26323B" stroke-width="0.5" stroke-linejoin="round"/>
<path d="M202.474 176.752L206.33 177.842H207.802L209.769 176.752H202.474Z" fill="#FFAE94" stroke="#26323B" stroke-width="0.5" stroke-linejoin="round"/>
<path d="M210.958 180.355H192.074C191.899 180.355 191.758 180.497 191.758 180.672V181.714C191.758 181.889 191.899 182.03 192.074 182.03H210.958C211.133 182.03 211.275 181.889 211.275 181.714V180.672C211.275 180.497 211.133 180.355 210.958 180.355Z" fill="#A0A1A3" stroke="#26323B" stroke-width="0.5" stroke-linejoin="round"/>
<path d="M216.201 176.752C215.089 177.554 213.813 178.098 212.464 178.35L208.696 179.05C207.869 179.203 207.137 179.672 206.649 180.356H225.482V179.834C225.482 178.7 225.068 177.605 224.317 176.754H216.201V176.752Z" fill="white" stroke="#26323B" stroke-width="0.5" stroke-linejoin="round"/>
<path d="M217.022 176.752L220.877 177.842H222.347L224.317 176.752H217.022Z" fill="#FFAE94" stroke="#26323B" stroke-width="0.5" stroke-linejoin="round"/>
<path d="M225.506 180.355H206.622C206.447 180.355 206.305 180.497 206.305 180.672V181.714C206.305 181.889 206.447 182.03 206.622 182.03H225.506C225.681 182.03 225.822 181.889 225.822 181.714V180.672C225.822 180.497 225.681 180.355 225.506 180.355Z" fill="#D4D7D8" stroke="#26323B" stroke-width="0.5" stroke-linejoin="round"/>
<path d="M211.354 84.1094H211.238C210.165 84.1094 209.293 83.2368 209.293 82.1637V81.1486H213.298V82.1637C213.298 83.2368 212.425 84.1094 211.352 84.1094H211.354Z" fill="white" stroke="#26323B" stroke-width="0.5" stroke-linejoin="round"/>
<path d="M252.083 182.027H81.6717C80.4946 182.027 79.5399 182.982 79.5399 184.159C79.5399 185.336 80.4946 186.291 81.6717 186.291H252.083C253.26 186.291 254.215 185.336 254.215 184.159C254.215 182.982 253.26 182.027 252.083 182.027Z" fill="#69B7FF" stroke="#26323B" stroke-width="0.5" stroke-miterlimit="10"/>
<path d="M135.447 145.217H159.45V182.03H135.447C135.036 182.03 134.705 181.696 134.705 181.288V145.959C134.705 145.548 135.039 145.217 135.447 145.217Z" fill="#FF9869" stroke="#26323B" stroke-width="0.5" stroke-linejoin="round"/>
<path d="M159.136 145.217H183.453C183.864 145.217 184.195 145.55 184.195 145.959V181.288C184.195 181.699 183.861 182.03 183.453 182.03H159.136V145.217Z" fill="#FFD69E" stroke="#26323B" stroke-width="0.5" stroke-linejoin="round"/>
<path d="M150.998 145.217H143.155V149.509H150.998V145.217Z" fill="white" stroke="#26323B" stroke-width="0.5" stroke-linejoin="round"/>
<path d="M150.998 177.736H143.155V182.029H150.998V177.736Z" fill="white" stroke="#26323B" stroke-width="0.5" stroke-linejoin="round"/>
<path d="M181.664 175.111L178.061 170.656L174.457 175.111H176.018V177.963H180.103V175.111H181.664Z" fill="#FF9869"/>
<path d="M181.664 179.037H174.457V180.359H181.664V179.037Z" fill="#FF9869"/>
<path d="M221.382 23H107.06C96.2472 23 87.4821 31.7651 87.4821 42.5775C87.4821 53.3898 96.2472 62.155 107.06 62.155H221.382C232.195 62.155 240.96 53.3898 240.96 42.5775C240.96 31.7651 232.195 23 221.382 23Z" fill="white" stroke="black" stroke-width="0.5" stroke-linecap="round" stroke-linejoin="round"/>
<path d="M115.937 34.0664L118.702 39.669L124.885 40.5681L120.411 44.9283L121.467 51.0867L115.937 48.1791L110.407 51.0867L111.463 44.9283L106.99 40.5681L113.172 39.669L115.937 34.0664Z" fill="#FBB03B" stroke="black" stroke-width="0.5" stroke-linecap="round" stroke-linejoin="round"/>
<path d="M137.576 34.0664L140.341 39.669L146.524 40.5681L142.05 44.9283L143.106 51.0867L137.576 48.1791L132.046 51.0867L133.102 44.9283L128.629 40.5681L134.811 39.669L137.576 34.0664Z" fill="#FBB03B" stroke="black" stroke-width="0.5" stroke-linecap="round" stroke-linejoin="round"/>
<path d="M159.215 34.0664L161.98 39.669L168.163 40.5681L163.689 44.9283L164.745 51.0867L159.215 48.1791L153.685 51.0867L154.742 44.9283L150.268 40.5681L156.45 39.669L159.215 34.0664Z" fill="#FBB03B" stroke="black" stroke-width="0.5" stroke-linecap="round" stroke-linejoin="round"/>
<path d="M180.855 34.0664L183.62 39.669L189.802 40.5681L185.328 44.9283L186.385 51.0867L180.855 48.1791L175.325 51.0867L176.381 44.9283L171.907 40.5681L178.09 39.669L180.855 34.0664Z" fill="#FBB03B" stroke="black" stroke-width="0.5" stroke-linecap="round" stroke-linejoin="round"/>
<path d="M209.363 26.8652L213.94 36.1392L224.174 37.6256L216.768 44.8451L218.516 55.0375L209.363 50.2253L200.21 55.0375L201.957 44.8451L194.551 37.6256L204.787 36.1392L209.363 26.8652Z" fill="#FBB03B" stroke="black" stroke-width="0.5" stroke-linecap="round" stroke-linejoin="round"/>
</svg>
