<svg width="329" height="213" viewBox="0 0 329 213" fill="none" xmlns="http://www.w3.org/2000/svg">
<path d="M0 20C0 8.9543 8.95431 0 20 0H309C320.046 0 329 8.95431 329 20V213H0V20Z" fill="#BEE6FC"/>
<rect y="149" width="329" height="64" fill="#A6D7F2"/>
<circle cx="164" cy="109" r="55" fill="white"/>
<rect x="120.5" y="49.5" width="88" height="114" rx="3.5" fill="#337CA8" stroke="#222222"/>
<rect x="124.2" y="54.2" width="80.6" height="105.6" rx="3.8" fill="#F8F5FF" stroke="#222222" stroke-width="0.4"/>
<rect x="129.15" y="79.15" width="21.7" height="2.7" fill="#FBA63C" stroke="#222222" stroke-width="0.3"/>
<rect x="129.15" y="86.15" width="32.7" height="1.7" fill="#FBA63C" stroke="#222222" stroke-width="0.3"/>
<rect x="129.15" y="90.15" width="32.7" height="1.7" fill="#FBA63C" stroke="#222222" stroke-width="0.3"/>
<rect x="129.15" y="94.15" width="32.7" height="1.7" fill="#FBA63C" stroke="#222222" stroke-width="0.3"/>
<rect x="128.15" y="110.15" width="32.7" height="1.7" fill="#FBA63C" stroke="#222222" stroke-width="0.3"/>
<rect x="128.15" y="123.15" width="32.7" height="1.7" fill="#FBA63C" stroke="#222222" stroke-width="0.3"/>
<rect x="168.15" y="110.15" width="32.7" height="1.7" fill="#FBA63C" stroke="#222222" stroke-width="0.3"/>
<rect x="168.15" y="123.15" width="32.7" height="1.7" fill="#FBA63C" stroke="#222222" stroke-width="0.3"/>
<rect x="167.15" y="79.15" width="21.7" height="2.7" fill="#FBA63C" stroke="#222222" stroke-width="0.3"/>
<rect x="167.15" y="86.15" width="32.7" height="1.7" fill="#FBA63C" stroke="#222222" stroke-width="0.3"/>
<rect x="167.15" y="90.15" width="32.7" height="1.7" fill="#FBA63C" stroke="#222222" stroke-width="0.3"/>
<rect x="167.15" y="94.15" width="32.7" height="1.7" fill="#FBA63C" stroke="#222222" stroke-width="0.3"/>
<line x1="127" y1="105.85" x2="201" y2="105.85" stroke="#222222" stroke-width="0.3"/>
<line x1="127" y1="117.85" x2="201" y2="117.85" stroke="#222222" stroke-width="0.3"/>
<rect x="170.15" y="58.15" width="26.7" height="5.7" fill="#FBA63C" stroke="#222222" stroke-width="0.3"/>
<rect x="129.15" y="58.15" width="26.7" height="5.7" fill="#FBA63C" stroke="#222222" stroke-width="0.3"/>
<path d="M259.651 175.471L259.644 177.027L231.171 193.653L231.175 192.096L259.651 175.471Z" fill="#30698B"/>
<path d="M231.175 192.096L231.171 193.653L209.574 181.119L209.578 179.564L231.175 192.096Z" fill="#30698B"/>
<path d="M250.076 175.912V176.429L221.6 193.055L221.604 192.536L250.076 175.912Z" fill="#D6E7F8"/>
<path d="M221.605 192.537L221.601 193.056L200 180.527L200.002 180.006L221.605 192.537Z" fill="#C7D5E4"/>
<path d="M250.077 175.913L221.604 192.537L200.002 180.006L228.474 163.382L250.077 175.913Z" fill="#DADBD9"/>
<path d="M250.076 174.114L250.073 174.637L221.597 191.259L221.604 190.74L250.076 174.114Z" fill="#D6E7F8"/>
<path d="M221.605 190.74L221.598 191.259L200 178.73V178.211L221.605 190.74Z" fill="#C7D5E4"/>
<path d="M250.077 174.114L221.605 190.739L200 178.21L228.474 161.584L250.077 174.114Z" fill="#F4F5F2"/>
<path d="M263.982 176.677V177.194L235.511 193.821L235.514 193.303L263.982 176.677Z" fill="#D6E7F8"/>
<path d="M235.514 193.303L235.511 193.821L213.909 181.292V180.77L235.514 193.303Z" fill="#C7D5E4"/>
<path d="M263.982 176.677L235.514 193.303L213.909 180.77L242.381 164.146L263.982 176.677Z" fill="#DADBD9"/>
<path d="M260.612 176.291L260.608 176.808L232.137 193.434L232.14 192.914L260.612 176.291Z" fill="#D6E7F8"/>
<path d="M232.14 192.914L232.137 193.434L210.539 180.903V180.383L232.14 192.914Z" fill="#C7D5E4"/>
<path d="M260.612 176.291L232.14 192.914L210.539 180.383L239.011 163.757L260.612 176.291Z" fill="#FDFDFD"/>
<path d="M264.013 172.752L264.01 173.27L235.537 189.895L235.541 189.375L264.013 172.752Z" fill="#D6E7F8"/>
<path d="M235.542 189.374L235.538 189.894L213.937 177.363V176.848L235.542 189.374Z" fill="#C7D5E4"/>
<path d="M264.014 172.752L235.542 189.374L213.937 176.848L242.412 160.218L264.014 172.752Z" fill="#F4F5F2"/>
<path d="M259.651 172.53L259.644 174.087L231.171 190.712L231.175 189.155L259.651 172.53Z" fill="#30698B"/>
<path d="M231.175 189.155L231.171 190.712L210.74 178.859L210.725 180.371L209.574 181.119V178.182L209.578 176.627L231.175 189.155Z" fill="#30698B"/>
<path d="M259.651 172.529L231.175 189.154L209.578 176.625L238.049 159.999L259.651 172.529Z" fill="#90B6CD"/>
<path d="M269.486 178.397C269.992 178.333 270.496 178.268 271 178.207L270.151 179.202C270.147 178.922 269.946 178.584 269.704 178.449C269.627 178.404 269.549 178.389 269.486 178.397Z" fill="#222222"/>
<path d="M270.087 179.436C269.936 179.639 269.784 179.844 269.63 180.049C269.482 180.253 269.327 180.457 269.175 180.661C269.256 180.553 269.302 180.396 269.298 180.199L270.151 179.203C270.151 179.301 270.126 179.381 270.087 179.436Z" fill="#EDCE8D"/>
<path d="M267.975 178.582C268.478 178.522 268.982 178.456 269.486 178.397C269.549 178.389 269.627 178.404 269.705 178.449C269.947 178.584 270.147 178.922 270.151 179.202L269.298 180.198C269.296 179.636 268.897 178.958 268.414 178.691C268.254 178.602 268.105 178.566 267.975 178.582Z" fill="#EDCE8D"/>
<path d="M269.045 180.781C262.354 184.686 255.666 188.591 248.976 192.498C249.137 192.404 249.233 192.202 249.233 191.918L269.298 180.199C269.301 180.484 269.207 180.685 269.045 180.781Z" fill="#9C552E"/>
<path d="M247.74 190.359C254.426 186.45 261.118 182.546 267.808 178.639C267.964 178.549 268.175 178.558 268.414 178.691C268.896 178.963 269.296 179.637 269.298 180.199L249.233 191.918C249.225 191.356 248.827 190.682 248.345 190.412C248.109 190.277 247.895 190.268 247.74 190.359Z" fill="#9C552E"/>
<path d="M249.233 191.918C249.236 192.478 248.853 192.715 248.371 192.445C247.888 192.176 247.488 191.5 247.483 190.94C247.476 190.376 247.863 190.14 248.345 190.412C248.828 190.682 249.225 191.356 249.233 191.918Z" fill="#222222"/>
</svg>
