<svg width="329" height="213" viewBox="0 0 329 213" fill="none" xmlns="http://www.w3.org/2000/svg">
<path d="M0 20C0 8.9543 8.95431 0 20 0H309C320.046 0 329 8.95431 329 20V213H0V20Z" fill="#FCD4BE"/>
<path d="M274.999 213H62V0.000686646H274.999V213Z" fill="#FCD4BE"/>
<path d="M250.044 167.817C250.521 164.24 250.771 160.593 250.771 156.885C250.771 111.661 214.11 75 168.886 75C123.662 75 87 111.661 87 156.885C87 160.593 87.251 164.24 87.7281 167.817H250.044Z" fill="white"/>
<path d="M212.578 178.97H151.749C147.957 178.97 144.883 175.895 144.883 172.104V52.6909C144.883 48.8995 147.957 45.8249 151.749 45.8249H212.578C216.37 45.8249 219.444 48.8995 219.444 52.6909V172.104C219.444 175.895 216.37 178.97 212.578 178.97Z" fill="#886EF0"/>
<path d="M212.571 178.97V178.571H151.742C149.955 178.571 148.341 177.848 147.17 176.676C145.999 175.505 145.276 173.891 145.275 172.104V52.6909C145.276 50.9038 145.999 49.2903 147.17 48.1189C148.341 46.9474 149.955 46.2242 151.742 46.2242H212.571C214.357 46.2242 215.972 46.9474 217.143 48.1189C218.315 49.2903 219.038 50.9038 219.038 52.6909V172.104C219.038 173.891 218.315 175.505 217.143 176.676C215.972 177.848 214.357 178.571 212.571 178.571V178.97V179.369C214.576 179.369 216.395 178.556 217.709 177.242C219.023 175.927 219.837 174.108 219.837 172.104V52.6909C219.837 50.6866 219.023 48.8675 217.709 47.5533C216.395 46.2391 214.576 45.4255 212.571 45.4255H151.742C149.737 45.4255 147.918 46.2391 146.605 47.5533C145.29 48.8675 144.476 50.6866 144.477 52.6909V172.104C144.476 174.108 145.29 175.927 146.605 177.242C147.918 178.556 149.737 179.369 151.742 179.369H212.571V178.97Z" fill="#1D1F2B"/>
<path d="M152.309 169.251C150.196 169.251 148.477 167.531 148.477 165.418V54.0583C148.477 51.9443 150.196 50.2254 152.309 50.2254H212.016C214.129 50.2254 215.848 51.9443 215.848 54.0583V165.418C215.848 167.531 214.129 169.251 212.016 169.251H152.309Z" fill="#A3E0FF"/>
<path d="M212.009 49.8261H152.302C149.969 49.8261 148.07 51.725 148.07 54.0584V165.418C148.07 167.751 149.969 169.65 152.302 169.65H212.009C214.342 169.65 216.24 167.751 216.24 165.418C216.24 121.929 216.24 97.547 216.24 54.0584C216.24 51.725 214.342 49.8261 212.009 49.8261ZM212.009 50.6248C213.905 50.6248 215.441 52.1616 215.441 54.0584V165.418C215.441 167.314 213.905 168.852 212.009 168.852H152.302C150.406 168.852 148.869 167.314 148.869 165.418V54.0584C148.869 52.1616 150.406 50.6248 152.302 50.6248H212.009Z" fill="#1D1F2B"/>
<path d="M186.506 176.568H177.813C176.402 176.568 175.258 175.424 175.258 174.013V173.207C175.258 171.796 176.402 170.651 177.813 170.651H186.506C187.917 170.651 189.061 171.796 189.061 173.207V174.013C189.061 175.424 187.917 176.568 186.506 176.568Z" fill="#1C5694"/>
<path d="M186.507 176.567V176.168H177.814C177.217 176.168 176.681 175.927 176.29 175.537C175.899 175.146 175.658 174.609 175.658 174.012V173.207C175.658 172.611 175.899 172.074 176.29 171.682C176.681 171.291 177.217 171.051 177.814 171.051H186.507C187.104 171.051 187.64 171.291 188.031 171.682C188.422 172.074 188.663 172.611 188.663 173.207V174.012C188.663 174.609 188.422 175.146 188.031 175.537C187.64 175.927 187.104 176.168 186.507 176.168V176.567V176.967C187.322 176.967 188.063 176.636 188.597 176.102C189.13 175.568 189.462 174.827 189.462 174.012V173.207C189.462 172.393 189.13 171.651 188.597 171.118C188.063 170.583 187.322 170.252 186.507 170.252H177.814C176.999 170.252 176.258 170.583 175.724 171.118C175.191 171.651 174.859 172.393 174.859 173.207V174.012C174.859 174.827 175.191 175.568 175.724 176.102C176.258 176.636 176.999 176.967 177.814 176.967H186.507V176.567Z" fill="#1D1F2B"/>
<path d="M145.273 122.437V69.7106H148.07V118.681C147.116 119.962 146.184 121.213 145.273 122.437Z" fill="#3286E2"/>
<path d="M144.883 122.972V69.7106H145.282V122.437C145.149 122.616 145.015 122.794 144.883 122.972Z" fill="#1B1D28"/>
<path d="M148.867 117.609V69.7106H151.83V106.257C151.83 106.935 152.106 107.552 152.55 107.996C152.994 108.44 153.611 108.716 154.289 108.716H155.491C153.212 111.775 150.993 114.754 148.867 117.609Z" fill="#99D2F0"/>
<path d="M148.07 118.681V69.7106H148.869V117.609C148.602 117.967 148.334 118.327 148.07 118.681Z" fill="#1B1D28"/>
<path d="M199.516 49.7834H145.961C146.273 49.1657 146.681 48.6034 147.166 48.1188C148.338 46.9473 149.952 46.2242 151.739 46.2242H202.196C201.386 47.2987 200.489 48.4883 199.516 49.7834Z" fill="#3286E2"/>
<path d="M145.965 49.7834H145.383C146.363 47.4574 148.665 45.8248 151.347 45.8248H202.502C202.403 45.9558 202.302 46.0889 202.201 46.2242H151.744C149.957 46.2242 148.342 46.9473 147.171 48.1188C146.686 48.6034 146.277 49.1657 145.965 49.7834Z" fill="#1B1D28"/>
<path d="M221.802 69.3113H142.505C141.368 69.3113 140.445 68.389 140.445 67.2516V52.2425C140.445 51.1051 141.368 50.1828 142.505 50.1828H221.802C222.94 50.1828 223.862 51.1051 223.862 52.2425V67.2516C223.862 68.389 222.94 69.3113 221.802 69.3113Z" fill="white"/>
<path d="M221.803 69.3113V68.9119H142.506C142.046 68.9119 141.634 68.7266 141.332 68.4262C141.031 68.1238 140.846 67.7116 140.846 67.2516V52.2425C140.846 51.7824 141.031 51.3703 141.332 51.0689C141.634 50.7675 142.046 50.5822 142.506 50.5822H221.803C222.263 50.5822 222.675 50.7675 222.978 51.0689C223.278 51.3703 223.463 51.7824 223.463 52.2425V67.2516C223.463 67.7116 223.278 68.1238 222.978 68.4262C222.675 68.7266 222.263 68.9119 221.803 68.9119V69.3113V69.7106C222.481 69.7106 223.098 69.4348 223.542 68.9907C223.986 68.5466 224.263 67.93 224.262 67.2516V52.2425C224.263 51.5652 223.986 50.9475 223.542 50.5034C223.098 50.0593 222.481 49.7834 221.803 49.7834H142.506C141.828 49.7834 141.211 50.0593 140.767 50.5034C140.323 50.9475 140.047 51.5652 140.047 52.2425V67.2516C140.047 67.93 140.323 68.5466 140.767 68.9907C141.211 69.4348 141.828 69.7106 142.506 69.7106H221.803V69.3113Z" fill="#1D1F2B"/>
<path d="M145.258 64.85H157.46V54.645H145.258V64.85Z" fill="#FFB73D"/>
<path d="M157.469 64.85V64.4506H145.666V55.0434H157.069V64.85H157.469V64.4506V64.85H157.868V54.6451C157.868 54.5397 157.826 54.4364 157.751 54.3618C157.677 54.2884 157.574 54.2457 157.469 54.2457H145.267C145.161 54.2457 145.058 54.2884 144.984 54.3618C144.91 54.4364 144.867 54.5397 144.867 54.6451V64.85C144.867 64.9554 144.91 65.0576 144.984 65.1322C145.058 65.2067 145.161 65.2493 145.267 65.2493H157.469C157.576 65.2493 157.676 65.2078 157.751 65.1322C157.827 65.0566 157.868 64.9565 157.868 64.85H157.469Z" fill="#1D1F2B"/>
<path d="M149.885 64.85H145.258V54.6451H149.885V64.85Z" fill="#EDA428"/>
<path d="M149.893 64.85V64.4506H145.666V55.0445H149.494V64.85H149.893V64.4506V64.85H150.293V54.6451C150.293 54.5397 150.25 54.4364 150.176 54.3618C150.101 54.2884 149.999 54.2457 149.893 54.2457H145.267C145.161 54.2457 145.058 54.2884 144.984 54.3618C144.91 54.4364 144.867 54.5397 144.867 54.6451V64.85C144.867 64.9554 144.91 65.0576 144.984 65.1322C145.058 65.2067 145.161 65.2493 145.267 65.2493H149.893C150 65.2493 150.1 65.2078 150.176 65.1322C150.251 65.0566 150.293 64.9565 150.293 64.85H149.893Z" fill="#1D1F2B"/>
<path d="M152.406 58.2928H155.261V55.0552H152.406V58.2928Z" fill="#D99C34"/>
<path d="M228.266 51.9688C228.266 59.0447 219.438 65.1396 219.438 65.1396C219.438 65.1396 210.609 59.0447 210.609 51.9688C210.609 47.0932 214.563 43.141 219.438 43.141C224.314 43.141 228.266 47.0932 228.266 51.9688Z" fill="#FF5757"/>
<path d="M228.259 51.9688H227.86C227.861 53.6536 227.334 55.3001 226.526 56.8252C225.319 59.1139 223.485 61.1203 221.952 62.5453C221.186 63.2589 220.496 63.8265 220 64.2163C219.751 64.4101 219.551 64.5603 219.413 64.6604C219.345 64.7105 219.292 64.7488 219.257 64.7743C219.239 64.7871 219.225 64.7957 219.216 64.802L219.207 64.8095L219.205 64.8106L219.431 65.1397L219.658 64.8106H219.657C219.604 64.7744 217.417 63.2503 215.261 60.8818C214.182 59.6986 213.112 58.3055 212.317 56.7901C211.521 55.2735 211.002 53.6408 211.002 51.9688C211.003 49.6407 211.945 47.5352 213.471 46.009C214.998 44.4829 217.102 43.5404 219.431 43.5404C221.759 43.5404 223.865 44.4829 225.391 46.009C226.917 47.5352 227.86 49.6407 227.86 51.9688H228.259H228.659C228.659 49.4224 227.625 47.1124 225.956 45.4446C224.288 43.7747 221.978 42.7416 219.431 42.7416C216.884 42.7416 214.575 43.7747 212.906 45.4446C211.237 47.1124 210.203 49.4224 210.203 51.9688C210.204 53.8219 210.78 55.5919 211.629 57.199C212.904 59.6091 214.794 61.6667 216.365 63.13C217.937 64.5933 219.193 65.4602 219.205 65.4677C219.341 65.5625 219.521 65.5625 219.658 65.4677C219.673 65.457 221.9 63.9202 224.14 61.4782C225.259 60.2556 226.384 58.8061 227.234 57.199C228.082 55.5919 228.659 53.8219 228.659 51.9688H228.259Z" fill="#1D1F2B"/>
<path d="M224.137 51.7078C224.137 54.3 222.036 56.4012 219.443 56.4012C216.851 56.4012 214.75 54.3 214.75 51.7078C214.75 49.1156 216.851 47.0143 219.443 47.0143C222.036 47.0143 224.137 49.1156 224.137 51.7078Z" fill="white"/>
<path d="M224.13 51.7079H223.731C223.731 52.8954 223.25 53.9657 222.473 54.7442C221.694 55.5216 220.623 56.002 219.437 56.002C218.249 56.002 217.179 55.5216 216.4 54.7442C215.623 53.9657 215.142 52.8954 215.142 51.7079C215.142 50.5204 215.623 49.4501 216.4 48.6716C217.179 47.8941 218.249 47.4138 219.437 47.4138C220.623 47.4138 221.694 47.8941 222.473 48.6716C223.25 49.4501 223.731 50.5204 223.731 51.7079H224.13H224.529C224.529 50.3032 223.959 49.0273 223.037 48.1071C222.117 47.1859 220.841 46.6151 219.437 46.6151C218.031 46.6151 216.756 47.1859 215.835 48.1071C214.915 49.0273 214.344 50.3032 214.344 51.7079C214.344 53.1126 214.915 54.3885 215.835 55.3086C216.756 56.2299 218.031 56.8007 219.437 56.8007C220.841 56.8007 222.117 56.2299 223.037 55.3086C223.959 54.3885 224.529 53.1126 224.529 51.7079H224.13Z" fill="#1D1F2B"/>
<path d="M161.438 63.9044H195.525V56.8657H161.438V63.9044Z" fill="white"/>
<path d="M163.427 62.3922C163.057 62.3922 162.701 62.3329 162.36 62.2143C162.023 62.0956 161.762 61.9391 161.577 61.7445L161.783 61.3389C161.963 61.5192 162.203 61.6662 162.502 61.7801C162.801 61.8893 163.109 61.9438 163.427 61.9438C163.873 61.9438 164.208 61.8632 164.431 61.7018C164.654 61.5358 164.765 61.3223 164.765 61.0613C164.765 60.862 164.703 60.7031 164.58 60.5845C164.461 60.4658 164.314 60.3757 164.139 60.314C163.963 60.2476 163.719 60.1764 163.406 60.1005C163.031 60.0056 162.732 59.9155 162.509 59.83C162.286 59.7399 162.094 59.6047 161.933 59.4244C161.776 59.2441 161.698 58.9997 161.698 58.6913C161.698 58.4398 161.764 58.2121 161.897 58.0081C162.03 57.7993 162.234 57.6332 162.509 57.5099C162.784 57.3865 163.126 57.3248 163.534 57.3248C163.819 57.3248 164.096 57.3652 164.367 57.4458C164.642 57.5217 164.879 57.6285 165.078 57.7661L164.9 58.186C164.692 58.0484 164.469 57.9464 164.231 57.88C163.994 57.8088 163.762 57.7732 163.534 57.7732C163.097 57.7732 162.768 57.8586 162.545 58.0294C162.326 58.1955 162.217 58.4114 162.217 58.6771C162.217 58.8764 162.277 59.0377 162.395 59.161C162.519 59.2797 162.67 59.3722 162.851 59.4386C163.036 59.5003 163.282 59.5691 163.591 59.645C163.956 59.7352 164.25 59.8253 164.473 59.9155C164.701 60.0009 164.893 60.1337 165.05 60.314C165.206 60.4896 165.285 60.7292 165.285 61.0328C165.285 61.2843 165.216 61.5144 165.078 61.7232C164.945 61.9272 164.739 62.0909 164.459 62.2143C164.179 62.3329 163.835 62.3922 163.427 62.3922ZM168.233 58.5774C168.703 58.5774 169.075 58.715 169.35 58.9902C169.63 59.2607 169.77 59.6569 169.77 60.1788V62.3495H169.265V60.2286C169.265 59.8395 169.168 59.543 168.973 59.339C168.778 59.1349 168.501 59.0329 168.14 59.0329C167.737 59.0329 167.417 59.1539 167.179 59.3959C166.947 59.6331 166.831 59.9629 166.831 60.3852V62.3495H166.325V57.0686H166.831V59.2607C166.968 59.0424 167.158 58.874 167.4 58.7554C167.642 58.6368 167.92 58.5774 168.233 58.5774ZM171.142 58.6059H171.647V62.3495H171.142V58.6059ZM171.398 57.7874C171.294 57.7874 171.206 57.7519 171.135 57.6807C171.064 57.6095 171.028 57.5241 171.028 57.4245C171.028 57.3296 171.064 57.2466 171.135 57.1754C171.206 57.1042 171.294 57.0686 171.398 57.0686C171.503 57.0686 171.59 57.1042 171.662 57.1754C171.733 57.2418 171.768 57.3225 171.768 57.4174C171.768 57.5217 171.733 57.6095 171.662 57.6807C171.59 57.7519 171.503 57.7874 171.398 57.7874ZM174.982 58.5774C175.333 58.5774 175.651 58.6581 175.936 58.8194C176.22 58.976 176.443 59.199 176.605 59.4884C176.766 59.7779 176.847 60.1076 176.847 60.4777C176.847 60.8525 176.766 61.1847 176.605 61.4741C176.443 61.7635 176.22 61.9889 175.936 62.1502C175.656 62.3068 175.338 62.3851 174.982 62.3851C174.678 62.3851 174.403 62.3234 174.156 62.2C173.914 62.0719 173.715 61.8869 173.559 61.6449V63.7302H173.053V58.6059H173.537V59.3461C173.689 59.0994 173.888 58.9096 174.135 58.7767C174.387 58.6439 174.669 58.5774 174.982 58.5774ZM174.946 61.9367C175.207 61.9367 175.445 61.8774 175.658 61.7588C175.872 61.6354 176.038 61.4622 176.156 61.2392C176.28 61.0162 176.341 60.7624 176.341 60.4777C176.341 60.193 176.28 59.9415 176.156 59.7233C176.038 59.5003 175.872 59.3271 175.658 59.2037C175.445 59.0804 175.207 59.0187 174.946 59.0187C174.681 59.0187 174.441 59.0804 174.228 59.2037C174.019 59.3271 173.853 59.5003 173.729 59.7233C173.611 59.9415 173.551 60.193 173.551 60.4777C173.551 60.7624 173.611 61.0162 173.729 61.2392C173.853 61.4622 174.019 61.6354 174.228 61.7588C174.441 61.8774 174.681 61.9367 174.946 61.9367ZM179.805 58.5774C180.157 58.5774 180.474 58.6581 180.759 58.8194C181.044 58.976 181.267 59.199 181.428 59.4884C181.59 59.7779 181.67 60.1076 181.67 60.4777C181.67 60.8525 181.59 61.1847 181.428 61.4741C181.267 61.7635 181.044 61.9889 180.759 62.1502C180.479 62.3068 180.161 62.3851 179.805 62.3851C179.502 62.3851 179.227 62.3234 178.98 62.2C178.738 62.0719 178.539 61.8869 178.382 61.6449V63.7302H177.877V58.6059H178.361V59.3461C178.513 59.0994 178.712 58.9096 178.959 58.7767C179.21 58.6439 179.492 58.5774 179.805 58.5774ZM179.77 61.9367C180.031 61.9367 180.268 61.8774 180.482 61.7588C180.695 61.6354 180.861 61.4622 180.98 61.2392C181.103 61.0162 181.165 60.7624 181.165 60.4777C181.165 60.193 181.103 59.9415 180.98 59.7233C180.861 59.5003 180.695 59.3271 180.482 59.2037C180.268 59.0804 180.031 59.0187 179.77 59.0187C179.504 59.0187 179.265 59.0804 179.051 59.2037C178.842 59.3271 178.676 59.5003 178.553 59.7233C178.434 59.9415 178.375 60.193 178.375 60.4777C178.375 60.7624 178.434 61.0162 178.553 61.2392C178.676 61.4622 178.842 61.6354 179.051 61.7588C179.265 61.8774 179.504 61.9367 179.77 61.9367ZM182.7 58.6059H183.206V62.3495H182.7V58.6059ZM182.956 57.7874C182.852 57.7874 182.764 57.7519 182.693 57.6807C182.622 57.6095 182.586 57.5241 182.586 57.4245C182.586 57.3296 182.622 57.2466 182.693 57.1754C182.764 57.1042 182.852 57.0686 182.956 57.0686C183.061 57.0686 183.149 57.1042 183.22 57.1754C183.291 57.2418 183.327 57.3225 183.327 57.4174C183.327 57.5217 183.291 57.6095 183.22 57.6807C183.149 57.7519 183.061 57.7874 182.956 57.7874ZM186.519 58.5774C186.989 58.5774 187.361 58.715 187.636 58.9902C187.916 59.2607 188.056 59.6569 188.056 60.1788V62.3495H187.551V60.2286C187.551 59.8395 187.454 59.543 187.259 59.339C187.065 59.1349 186.787 59.0329 186.426 59.0329C186.023 59.0329 185.703 59.1539 185.466 59.3959C185.233 59.6331 185.117 59.9629 185.117 60.3852V62.3495H184.612V58.6059H185.096V59.2963C185.233 59.0685 185.423 58.893 185.665 58.7696C185.912 58.6415 186.196 58.5774 186.519 58.5774ZM192.908 58.6059V61.894C192.908 62.5298 192.751 62.9995 192.438 63.3032C192.13 63.6116 191.663 63.7658 191.036 63.7658C190.69 63.7658 190.36 63.7136 190.047 63.6092C189.739 63.5096 189.487 63.3696 189.293 63.1893L189.549 62.805C189.729 62.9663 189.947 63.092 190.204 63.1822C190.464 63.2723 190.737 63.3174 191.022 63.3174C191.496 63.3174 191.845 63.2059 192.068 62.9829C192.291 62.7646 192.403 62.423 192.403 61.958V61.4812C192.246 61.7184 192.04 61.8987 191.784 62.0221C191.532 62.1455 191.252 62.2071 190.944 62.2071C190.593 62.2071 190.272 62.1312 189.983 61.9794C189.698 61.8228 189.473 61.6069 189.307 61.3317C189.145 61.0518 189.065 60.7363 189.065 60.3852C189.065 60.0341 189.145 59.7209 189.307 59.4457C189.473 59.1705 189.698 58.957 189.983 58.8052C190.268 58.6534 190.588 58.5774 190.944 58.5774C191.262 58.5774 191.549 58.6415 191.805 58.7696C192.061 58.8977 192.267 59.0828 192.424 59.3247V58.6059H192.908ZM190.994 61.7588C191.264 61.7588 191.508 61.7018 191.727 61.588C191.945 61.4693 192.113 61.3057 192.232 61.0969C192.355 60.8881 192.417 60.6509 192.417 60.3852C192.417 60.1195 192.355 59.8846 192.232 59.6806C192.113 59.4718 191.945 59.3105 191.727 59.1966C191.513 59.078 191.269 59.0187 190.994 59.0187C190.723 59.0187 190.479 59.0756 190.26 59.1895C190.047 59.3034 189.879 59.4647 189.755 59.6735C189.637 59.8822 189.577 60.1195 189.577 60.3852C189.577 60.6509 189.637 60.8881 189.755 61.0969C189.879 61.3057 190.047 61.4693 190.26 61.588C190.479 61.7018 190.723 61.7588 190.994 61.7588ZM194.371 62.3851C194.267 62.3851 194.176 62.3471 194.1 62.2712C194.029 62.1953 193.994 62.1028 193.994 61.9936C193.994 61.8845 194.029 61.7944 194.1 61.7232C194.176 61.6473 194.267 61.6093 194.371 61.6093C194.475 61.6093 194.565 61.6473 194.641 61.7232C194.717 61.7944 194.755 61.8845 194.755 61.9936C194.755 62.1028 194.717 62.1953 194.641 62.2712C194.565 62.3471 194.475 62.3851 194.371 62.3851ZM195.879 62.3851C195.775 62.3851 195.685 62.3471 195.609 62.2712C195.537 62.1953 195.502 62.1028 195.502 61.9936C195.502 61.8845 195.537 61.7944 195.609 61.7232C195.685 61.6473 195.775 61.6093 195.879 61.6093C195.983 61.6093 196.074 61.6473 196.15 61.7232C196.225 61.7944 196.263 61.8845 196.263 61.9936C196.263 62.1028 196.225 62.1953 196.15 62.2712C196.074 62.3471 195.983 62.3851 195.879 62.3851Z" fill="#1D1F2B"/>
<path d="M210.023 108.317H154.294C153.157 108.317 152.234 107.395 152.234 106.257V69.3113H212.082V106.257C212.082 107.395 211.16 108.317 210.023 108.317Z" fill="white"/>
<path d="M210.024 108.317V107.918H154.295C153.835 107.918 153.423 107.732 153.121 107.431C152.82 107.129 152.635 106.716 152.635 106.257V69.7107H211.684V106.257C211.684 106.716 211.499 107.129 211.198 107.431C210.896 107.732 210.484 107.918 210.024 107.918V108.317V108.716C210.702 108.716 211.319 108.44 211.763 107.996C212.207 107.552 212.483 106.935 212.483 106.257V69.3113C212.483 69.2069 212.44 69.1036 212.366 69.0291C212.292 68.9545 212.189 68.9119 212.083 68.9119H152.235C152.13 68.9119 152.027 68.9545 151.953 69.0291C151.879 69.1036 151.836 69.2069 151.836 69.3113V106.257C151.836 106.935 152.112 107.552 152.556 107.996C153 108.44 153.617 108.716 154.295 108.716H210.024V108.317Z" fill="#1D1F2B"/>
<path d="M159.269 77.8339C158.962 77.8339 158.684 77.7679 158.434 77.6358C158.187 77.5008 157.991 77.3156 157.848 77.0801C157.707 76.8417 157.637 76.5732 157.637 76.2745C157.637 75.9758 157.707 75.7088 157.848 75.4733C157.991 75.2349 158.187 75.0497 158.434 74.9176C158.684 74.7826 158.964 74.7151 159.274 74.7151C159.535 74.7151 159.771 74.7611 159.98 74.853C160.193 74.9449 160.371 75.077 160.514 75.2493L160.066 75.6628C159.862 75.4273 159.61 75.3096 159.308 75.3096C159.121 75.3096 158.955 75.3512 158.808 75.4345C158.662 75.5149 158.547 75.6283 158.464 75.7748C158.383 75.9213 158.343 76.0878 158.343 76.2745C158.343 76.4612 158.383 76.6277 158.464 76.7742C158.547 76.9207 158.662 77.0355 158.808 77.1188C158.955 77.1992 159.121 77.2394 159.308 77.2394C159.61 77.2394 159.862 77.1203 160.066 76.8819L160.514 77.2955C160.371 77.4706 160.193 77.6042 159.98 77.6961C159.768 77.788 159.531 77.8339 159.269 77.8339ZM163.214 75.4647V77.7822H162.577V77.5065C162.488 77.607 162.381 77.6846 162.258 77.7391C162.134 77.7908 162.001 77.8167 161.857 77.8167C161.553 77.8167 161.312 77.7291 161.133 77.5539C160.955 77.3787 160.866 77.1188 160.866 76.7742V75.4647H161.538V76.6751C161.538 77.0485 161.695 77.2351 162.008 77.2351C162.169 77.2351 162.298 77.1834 162.396 77.0801C162.493 76.9738 162.542 76.8173 162.542 76.6105V75.4647H163.214ZM164.616 77.8167C164.424 77.8167 164.236 77.7937 164.052 77.7478C163.868 77.6989 163.722 77.6386 163.613 77.5668L163.837 77.0844C163.94 77.1504 164.065 77.205 164.211 77.2481C164.358 77.2883 164.502 77.3084 164.642 77.3084C164.927 77.3084 165.069 77.238 165.069 77.0973C165.069 77.0312 165.03 76.9839 164.952 76.9551C164.875 76.9264 164.756 76.902 164.595 76.8819C164.405 76.8532 164.249 76.8202 164.125 76.7828C164.002 76.7455 163.894 76.6794 163.802 76.5847C163.713 76.4899 163.669 76.3549 163.669 76.1797C163.669 76.0333 163.71 75.904 163.794 75.792C163.88 75.6772 164.003 75.5881 164.164 75.525C164.328 75.4618 164.52 75.4302 164.741 75.4302C164.905 75.4302 165.067 75.4489 165.228 75.4862C165.392 75.5207 165.527 75.5695 165.633 75.6327L165.409 76.1108C165.205 75.9959 164.983 75.9385 164.741 75.9385C164.598 75.9385 164.49 75.9586 164.418 75.9988C164.346 76.039 164.311 76.0907 164.311 76.1539C164.311 76.2257 164.349 76.2759 164.427 76.3047C164.504 76.3334 164.628 76.3607 164.797 76.3865C164.987 76.4181 165.142 76.4526 165.263 76.4899C165.383 76.5244 165.488 76.589 165.577 76.6837C165.666 76.7785 165.711 76.9106 165.711 77.0801C165.711 77.2237 165.667 77.3515 165.581 77.4635C165.495 77.5755 165.369 77.663 165.202 77.7262C165.039 77.7865 164.843 77.8167 164.616 77.8167ZM167.62 77.6702C167.554 77.719 167.472 77.7564 167.374 77.7822C167.28 77.8052 167.179 77.8167 167.073 77.8167C166.797 77.8167 166.583 77.7463 166.431 77.6056C166.282 77.4649 166.207 77.2581 166.207 76.9853V76.0333H165.849V75.5163H166.207V74.952H166.879V75.5163H167.456V76.0333H166.879V76.9767C166.879 77.0743 166.903 77.1504 166.952 77.205C167.004 77.2567 167.076 77.2825 167.168 77.2825C167.274 77.2825 167.364 77.2538 167.439 77.1964L167.62 77.6702ZM169.028 77.8167C168.784 77.8167 168.565 77.7664 168.369 77.6659C168.177 77.5625 168.026 77.4204 167.917 77.2394C167.808 77.0585 167.753 76.8532 167.753 76.6234C167.753 76.3937 167.808 76.1884 167.917 76.0074C168.026 75.8265 168.177 75.6858 168.369 75.5853C168.565 75.4819 168.784 75.4302 169.028 75.4302C169.273 75.4302 169.491 75.4819 169.683 75.5853C169.876 75.6858 170.026 75.8265 170.136 76.0074C170.245 76.1884 170.299 76.3937 170.299 76.6234C170.299 76.8532 170.245 77.0585 170.136 77.2394C170.026 77.4204 169.876 77.5625 169.683 77.6659C169.491 77.7664 169.273 77.8167 169.028 77.8167ZM169.028 77.2653C169.201 77.2653 169.342 77.2079 169.451 77.093C169.563 76.9752 169.619 76.8187 169.619 76.6234C169.619 76.4282 169.563 76.2731 169.451 76.1582C169.342 76.0405 169.201 75.9816 169.028 75.9816C168.856 75.9816 168.714 76.0405 168.602 76.1582C168.49 76.2731 168.434 76.4282 168.434 76.6234C168.434 76.8187 168.49 76.9752 168.602 77.093C168.714 77.2079 168.856 77.2653 169.028 77.2653ZM173.716 75.4302C174.007 75.4302 174.236 75.5163 174.406 75.6887C174.578 75.8581 174.664 76.1137 174.664 76.4554V77.7822H173.992V76.5588C173.992 76.375 173.953 76.2386 173.876 76.1496C173.801 76.0577 173.694 76.0117 173.553 76.0117C173.395 76.0117 173.27 76.0634 173.178 76.1668C173.086 76.2673 173.04 76.4181 173.04 76.6191V77.7822H172.368V76.5588C172.368 76.1941 172.222 76.0117 171.929 76.0117C171.774 76.0117 171.65 76.0634 171.558 76.1668C171.466 76.2673 171.42 76.4181 171.42 76.6191V77.7822H170.748V75.4647H171.39V75.7317C171.476 75.6341 171.581 75.5594 171.705 75.5077C171.831 75.456 171.969 75.4302 172.118 75.4302C172.282 75.4302 172.43 75.4632 172.562 75.5293C172.694 75.5925 172.8 75.6858 172.881 75.8093C172.976 75.6887 173.095 75.5953 173.238 75.5293C173.385 75.4632 173.544 75.4302 173.716 75.4302ZM176.741 76.2702C176.623 76.2702 176.524 76.23 176.443 76.1496C176.363 76.0692 176.323 75.9687 176.323 75.848C176.323 75.7246 176.363 75.6255 176.443 75.5508C176.524 75.4733 176.623 75.4345 176.741 75.4345C176.858 75.4345 176.957 75.4733 177.038 75.5508C177.118 75.6255 177.159 75.7246 177.159 75.848C177.159 75.9687 177.118 76.0692 177.038 76.1496C176.957 76.23 176.858 76.2702 176.741 76.2702ZM176.741 77.8167C176.623 77.8167 176.524 77.7765 176.443 77.6961C176.363 77.6157 176.323 77.5151 176.323 77.3945C176.323 77.271 176.363 77.172 176.443 77.0973C176.524 77.0198 176.623 76.981 176.741 76.981C176.858 76.981 176.957 77.0198 177.038 77.0973C177.118 77.172 177.159 77.271 177.159 77.3945C177.159 77.5151 177.118 77.6157 177.038 77.6961C176.957 77.7765 176.858 77.8167 176.741 77.8167ZM160.514 79.7668V82.7822H160.161L158.352 80.5336V82.7822H157.921V79.7668H158.274L160.084 82.0154V79.7668H160.514ZM161.357 80.4991H161.77V82.7822H161.357V80.4991ZM161.563 80.0597C161.483 80.0597 161.415 80.0339 161.361 79.9822C161.309 79.9305 161.283 79.8673 161.283 79.7926C161.283 79.718 161.309 79.6548 161.361 79.6031C161.415 79.5485 161.483 79.5213 161.563 79.5213C161.644 79.5213 161.71 79.5471 161.762 79.5988C161.816 79.6476 161.843 79.7094 161.843 79.784C161.843 79.8616 161.816 79.9276 161.762 79.9822C161.71 80.0339 161.644 80.0597 161.563 80.0597ZM162.56 79.5859H162.973V82.7822H162.56V79.5859ZM164.594 80.4776C164.91 80.4776 165.151 80.5551 165.318 80.7102C165.487 80.8653 165.572 81.0965 165.572 81.4037V82.7822H165.18V82.4807C165.111 82.5869 165.012 82.6688 164.883 82.7262C164.757 82.7808 164.606 82.8081 164.431 82.8081C164.175 82.8081 163.97 82.7463 163.815 82.6228C163.662 82.4994 163.586 82.3371 163.586 82.1361C163.586 81.935 163.659 81.7742 163.806 81.6536C163.952 81.5301 164.185 81.4684 164.504 81.4684H165.159V81.3865C165.159 81.2085 165.107 81.072 165.004 80.9773C164.9 80.8825 164.748 80.8351 164.547 80.8351C164.412 80.8351 164.28 80.8581 164.151 80.904C164.021 80.9471 163.912 81.006 163.823 81.0807L163.651 80.7705C163.769 80.6757 163.909 80.6039 164.073 80.5551C164.237 80.5034 164.41 80.4776 164.594 80.4776ZM164.5 82.4893C164.657 82.4893 164.794 82.4548 164.909 82.3859C165.024 82.3141 165.107 82.2136 165.159 82.0844V81.7656H164.521C164.171 81.7656 163.996 81.8833 163.996 82.1188C163.996 82.2337 164.04 82.3242 164.129 82.3902C164.218 82.4563 164.342 82.4893 164.5 82.4893ZM166.337 80.4991H166.751V82.7822H166.337V80.4991ZM166.544 80.0597C166.464 80.0597 166.396 80.0339 166.342 79.9822C166.29 79.9305 166.264 79.8673 166.264 79.7926C166.264 79.718 166.29 79.6548 166.342 79.6031C166.396 79.5485 166.464 79.5213 166.544 79.5213C166.625 79.5213 166.691 79.5471 166.742 79.5988C166.797 79.6476 166.824 79.7094 166.824 79.784C166.824 79.8616 166.797 79.9276 166.742 79.9822C166.691 80.0339 166.625 80.0597 166.544 80.0597ZM169.934 79.7668C170.324 79.7668 170.632 79.8601 170.856 80.0468C171.08 80.2335 171.192 80.4905 171.192 80.8179C171.192 81.1453 171.08 81.4023 170.856 81.589C170.632 81.7756 170.324 81.869 169.934 81.869H169.189V82.7822H168.758V79.7668H169.934ZM169.921 81.4942C170.194 81.4942 170.402 81.4368 170.545 81.3219C170.689 81.2042 170.761 81.0362 170.761 80.8179C170.761 80.5996 170.689 80.4331 170.545 80.3182C170.402 80.2004 170.194 80.1416 169.921 80.1416H169.189V81.4942H169.921ZM173.819 81.6536C173.819 81.6852 173.816 81.7268 173.811 81.7785H171.958C171.984 81.9795 172.072 82.1418 172.221 82.2653C172.373 82.3859 172.561 82.4462 172.785 82.4462C173.058 82.4462 173.278 82.3543 173.444 82.1705L173.673 82.4376C173.569 82.5582 173.44 82.6501 173.285 82.7133C173.133 82.7765 172.962 82.8081 172.772 82.8081C172.531 82.8081 172.317 82.7593 172.131 82.6616C171.944 82.5611 171.799 82.4218 171.695 82.2438C171.595 82.0657 171.545 81.8647 171.545 81.6407C171.545 81.4195 171.594 81.2199 171.691 81.0419C171.792 80.8638 171.928 80.726 172.1 80.6283C172.276 80.5278 172.472 80.4776 172.691 80.4776C172.909 80.4776 173.103 80.5278 173.272 80.6283C173.444 80.726 173.578 80.8638 173.673 81.0419C173.77 81.2199 173.819 81.4238 173.819 81.6536ZM172.691 80.8265C172.492 80.8265 172.326 80.8868 172.191 81.0074C172.059 81.128 171.981 81.286 171.958 81.4813H173.423C173.4 81.2889 173.321 81.1324 173.186 81.0117C173.054 80.8883 172.889 80.8265 172.691 80.8265ZM177.249 80.4776C177.537 80.4776 177.764 80.5609 177.93 80.7274C178.1 80.894 178.184 81.141 178.184 81.4684V82.7822H177.771V81.5157C177.771 81.2946 177.719 81.128 177.616 81.016C177.515 80.904 177.37 80.848 177.181 80.848C176.971 80.848 176.804 80.9141 176.681 81.0462C176.557 81.1754 176.496 81.3621 176.496 81.6062V82.7822H176.082V81.5157C176.082 81.2946 176.03 81.128 175.927 81.016C175.826 80.904 175.681 80.848 175.492 80.848C175.282 80.848 175.116 80.9141 174.992 81.0462C174.869 81.1754 174.807 81.3621 174.807 81.6062V82.7822H174.393V80.4991H174.79V80.8394C174.873 80.7217 174.982 80.6327 175.117 80.5723C175.252 80.5092 175.406 80.4776 175.578 80.4776C175.756 80.4776 175.914 80.5135 176.052 80.5853C176.19 80.6571 176.296 80.7619 176.371 80.8997C176.457 80.7676 176.576 80.6642 176.728 80.5896C176.883 80.5149 177.057 80.4776 177.249 80.4776ZM180.156 80.4776C180.377 80.4776 180.575 80.5264 180.75 80.624C180.925 80.7217 181.062 80.8581 181.159 81.0333C181.26 81.2085 181.31 81.4109 181.31 81.6407C181.31 81.8704 181.26 82.0743 181.159 82.2524C181.062 82.4276 180.925 82.564 180.75 82.6616C180.575 82.7593 180.377 82.8081 180.156 82.8081C179.986 82.8081 179.831 82.775 179.69 82.709C179.55 82.6429 179.433 82.5467 179.342 82.4204V82.7822H178.945V79.5859H179.359V80.8437C179.451 80.7231 179.566 80.6327 179.703 80.5723C179.841 80.5092 179.992 80.4776 180.156 80.4776ZM180.121 82.4462C180.268 82.4462 180.398 82.4132 180.513 82.3471C180.631 82.2782 180.723 82.1834 180.789 82.0628C180.858 81.9393 180.892 81.7986 180.892 81.6407C180.892 81.4827 180.858 81.3434 180.789 81.2228C180.723 81.0993 180.631 81.0046 180.513 80.9385C180.398 80.8725 180.268 80.8394 180.121 80.8394C179.978 80.8394 179.847 80.8725 179.729 80.9385C179.611 81.0046 179.52 81.0993 179.454 81.2228C179.387 81.3434 179.354 81.4827 179.354 81.6407C179.354 81.7986 179.387 81.9393 179.454 82.0628C179.52 82.1834 179.611 82.2782 179.729 82.3471C179.847 82.4132 179.978 82.4462 180.121 82.4462ZM182.692 80.4776C183.008 80.4776 183.249 80.5551 183.416 80.7102C183.585 80.8653 183.67 81.0965 183.67 81.4037V82.7822H183.278V82.4807C183.209 82.5869 183.11 82.6688 182.981 82.7262C182.854 82.7808 182.703 82.8081 182.528 82.8081C182.273 82.8081 182.067 82.7463 181.912 82.6228C181.76 82.4994 181.684 82.3371 181.684 82.1361C181.684 81.935 181.757 81.7742 181.904 81.6536C182.05 81.5301 182.283 81.4684 182.601 81.4684H183.256V81.3865C183.256 81.2085 183.205 81.072 183.101 80.9773C182.998 80.8825 182.846 80.8351 182.645 80.8351C182.51 80.8351 182.377 80.8581 182.248 80.904C182.119 80.9471 182.01 81.006 181.921 81.0807L181.748 80.7705C181.866 80.6757 182.007 80.6039 182.171 80.5551C182.334 80.5034 182.508 80.4776 182.692 80.4776ZM182.597 82.4893C182.755 82.4893 182.891 82.4548 183.006 82.3859C183.121 82.3141 183.205 82.2136 183.256 82.0844V81.7656H182.619C182.268 81.7656 182.093 81.8833 182.093 82.1188C182.093 82.2337 182.138 82.3242 182.227 82.3902C182.316 82.4563 182.439 82.4893 182.597 82.4893ZM186.413 80.4991L185.306 83.0105C185.209 83.2432 185.094 83.4069 184.962 83.5016C184.832 83.5964 184.676 83.6438 184.492 83.6438C184.38 83.6438 184.271 83.6251 184.165 83.5878C184.061 83.5533 183.975 83.5016 183.906 83.4327L184.083 83.1225C184.201 83.2345 184.337 83.2905 184.492 83.2905C184.593 83.2905 184.676 83.2633 184.742 83.2087C184.811 83.157 184.873 83.0665 184.927 82.9373L185 82.7779L183.992 80.4991H184.423L185.22 82.3256L186.008 80.4991H186.413ZM187.559 80.4776C187.875 80.4776 188.116 80.5551 188.283 80.7102C188.452 80.8653 188.537 81.0965 188.537 81.4037V82.7822H188.145V82.4807C188.076 82.5869 187.977 82.6688 187.848 82.7262C187.721 82.7808 187.571 82.8081 187.395 82.8081C187.14 82.8081 186.935 82.7463 186.779 82.6228C186.627 82.4994 186.551 82.3371 186.551 82.1361C186.551 81.935 186.624 81.7742 186.771 81.6536C186.917 81.5301 187.15 81.4684 187.469 81.4684H188.123V81.3865C188.123 81.2085 188.072 81.072 187.968 80.9773C187.865 80.8825 187.713 80.8351 187.512 80.8351C187.377 80.8351 187.245 80.8581 187.115 80.904C186.986 80.9471 186.877 81.006 186.788 81.0807L186.616 80.7705C186.733 80.6757 186.874 80.6039 187.038 80.5551C187.202 80.5034 187.375 80.4776 187.559 80.4776ZM187.464 82.4893C187.622 82.4893 187.759 82.4548 187.874 82.3859C187.988 82.3141 188.072 82.2136 188.123 82.0844V81.7656H187.486C187.136 81.7656 186.96 81.8833 186.96 82.1188C186.96 82.2337 187.005 82.3242 187.094 82.3902C187.183 82.4563 187.306 82.4893 187.464 82.4893ZM189.699 80.8825C189.77 80.7504 189.877 80.6499 190.017 80.581C190.158 80.512 190.329 80.4776 190.53 80.4776V80.8782C190.507 80.8753 190.475 80.8739 190.435 80.8739C190.211 80.8739 190.035 80.9414 189.905 81.0764C189.779 81.2085 189.716 81.398 189.716 81.645V82.7822H189.302V80.4991H189.699V80.8825ZM191.867 80.4776C192.183 80.4776 192.424 80.5551 192.591 80.7102C192.76 80.8653 192.845 81.0965 192.845 81.4037V82.7822H192.453V82.4807C192.384 82.5869 192.285 82.6688 192.156 82.7262C192.029 82.7808 191.878 82.8081 191.703 82.8081C191.448 82.8081 191.242 82.7463 191.087 82.6228C190.935 82.4994 190.859 82.3371 190.859 82.1361C190.859 81.935 190.932 81.7742 191.079 81.6536C191.225 81.5301 191.458 81.4684 191.776 81.4684H192.431V81.3865C192.431 81.2085 192.38 81.072 192.276 80.9773C192.173 80.8825 192.021 80.8351 191.82 80.8351C191.685 80.8351 191.552 80.8581 191.423 80.904C191.294 80.9471 191.185 81.006 191.096 81.0807L190.924 80.7705C191.041 80.6757 191.182 80.6039 191.346 80.5551C191.509 80.5034 191.683 80.4776 191.867 80.4776ZM191.772 82.4893C191.93 82.4893 192.066 82.4548 192.181 82.3859C192.296 82.3141 192.38 82.2136 192.431 82.0844V81.7656H191.794C191.443 81.7656 191.268 81.8833 191.268 82.1188C191.268 82.2337 191.313 82.3242 191.402 82.3902C191.491 82.4563 191.614 82.4893 191.772 82.4893ZM194.829 80.4776C195.119 80.4776 195.349 80.5623 195.518 80.7317C195.691 80.8983 195.777 81.1438 195.777 81.4684V82.7822H195.363V81.5157C195.363 81.2946 195.31 81.128 195.204 81.016C195.098 80.904 194.945 80.848 194.747 80.848C194.523 80.848 194.347 80.9141 194.217 81.0462C194.088 81.1754 194.024 81.3621 194.024 81.6062V82.7822H193.61V80.4991H194.006V80.8437C194.09 80.726 194.202 80.6355 194.342 80.5723C194.486 80.5092 194.648 80.4776 194.829 80.4776Z" fill="#1D1F2B"/>
<path d="M152.633 72.1613H211.682V69.9508H152.633V72.1613Z" fill="#E6E6E8"/>
<path d="M212.087 72.1613H211.688V69.9514H212.087V72.1613ZM152.639 72.1613H152.062V69.9514H152.639V72.1613Z" fill="#1A1C27"/>
<path d="M138.867 167.633H174.59V142.282H138.867V167.633Z" fill="#FFB73D"/>
<path d="M138.868 142.282H138.469V167.633C138.469 167.739 138.511 167.841 138.586 167.915C138.66 167.99 138.763 168.033 138.868 168.033H174.591C174.698 168.033 174.798 167.991 174.873 167.915C174.949 167.84 174.99 167.74 174.99 167.633V142.282C174.99 142.176 174.947 142.073 174.873 142C174.799 141.925 174.696 141.883 174.591 141.883H138.868C138.763 141.883 138.66 141.925 138.586 142C138.511 142.073 138.469 142.176 138.469 142.282H138.868V142.681H174.191L174.192 167.234H139.267V142.282H138.868V142.681V142.282Z" fill="#1D1F2B"/>
<path d="M138.867 167.633H155.412V142.282H138.867V167.633Z" fill="#EDA428"/>
<path d="M155.412 167.633V167.234H139.267V142.681H155.013V167.633H155.412V167.234V167.633H155.812V142.282C155.812 142.176 155.769 142.073 155.695 142C155.62 141.925 155.518 141.883 155.412 141.883H138.868C138.763 141.883 138.66 141.925 138.586 142C138.511 142.073 138.469 142.176 138.469 142.282V167.633C138.469 167.739 138.511 167.841 138.586 167.915C138.66 167.99 138.763 168.033 138.868 168.033H155.412C155.519 168.033 155.619 167.991 155.695 167.915C155.77 167.84 155.812 167.74 155.812 167.633H155.412Z" fill="#1D1F2B"/>
<path d="M141.718 145.003L139.977 147.285H141.059V149.886H142.517V147.285H143.599L141.718 145.003Z" fill="#E33D3D"/>
<path d="M163.758 149.655H166.234V142.681H163.758V149.655Z" fill="#FECD76"/>
<path d="M145.898 149.655H148.375V142.681H145.898V149.655Z" fill="#F9C76F"/>
<path d="M145.898 142.681H148.375V142.649H145.898V142.681Z" fill="#BA9F70"/>
<path d="M155.406 162.287H155.806V161.323H155.406V162.287Z" fill="#1B0E14"/>
<path d="M157.93 142.282H193.652V116.931H157.93V142.282Z" fill="#FFB73D"/>
<path d="M157.923 116.931H157.523V142.282C157.523 142.387 157.566 142.49 157.64 142.564C157.715 142.639 157.818 142.681 157.923 142.681H193.645C193.752 142.681 193.852 142.64 193.928 142.564C194.003 142.488 194.045 142.388 194.045 142.282V116.931C194.045 116.825 194.002 116.722 193.928 116.647C193.853 116.574 193.751 116.531 193.645 116.531H157.923C157.818 116.531 157.715 116.574 157.64 116.647C157.566 116.722 157.523 116.825 157.523 116.931H157.923V117.33H193.246V141.882H158.322V116.931H157.923V117.33V116.931Z" fill="#1D1F2B"/>
<path d="M157.93 142.282H174.474V116.931H157.93V142.282Z" fill="#EDA428"/>
<path d="M174.467 142.282V141.882H158.322V117.33H174.067V142.282H174.467V141.882V142.282H174.866V116.931C174.866 116.825 174.824 116.722 174.749 116.647C174.676 116.574 174.572 116.531 174.467 116.531H157.923C157.818 116.531 157.715 116.574 157.64 116.647C157.566 116.722 157.523 116.825 157.523 116.931V142.282C157.523 142.387 157.566 142.49 157.64 142.564C157.715 142.639 157.818 142.681 157.923 142.681H174.467C174.573 142.681 174.673 142.64 174.749 142.564C174.825 142.488 174.866 142.388 174.866 142.282H174.467Z" fill="#1D1F2B"/>
<path d="M160.789 119.651L159.047 121.934H160.129V124.534H161.588V121.934H162.67L160.789 119.651Z" fill="#E33D3D"/>
<path d="M182.828 124.304H185.304V117.33H182.828V124.304Z" fill="#FECD76"/>
<path d="M182.828 117.33H185.304V117.298H182.828V117.33Z" fill="#BA9F70"/>
<path d="M164.961 124.304H167.437V117.33H164.961V124.304Z" fill="#F9C76F"/>
<path d="M164.961 117.33H167.437V117.298H164.961V117.33Z" fill="#BA9F70"/>
<path d="M174.086 167.633H225.082V131.442H174.086V167.633Z" fill="#FFB73D"/>
<path d="M174.095 131.442H173.695V167.633C173.695 167.739 173.738 167.841 173.812 167.915C173.887 167.99 173.989 168.033 174.095 168.033H225.091C225.198 168.033 225.299 167.991 225.373 167.915C225.449 167.84 225.491 167.74 225.491 167.633V131.442C225.491 131.337 225.448 131.235 225.373 131.16C225.3 131.086 225.197 131.043 225.091 131.043H174.095C173.989 131.043 173.887 131.086 173.812 131.16C173.738 131.235 173.695 131.337 173.695 131.442H174.095V131.842H224.692V167.234H174.494V131.442H174.095V131.842V131.442Z" fill="#1D1F2B"/>
<path d="M174.086 167.633H197.704V131.442H174.086V167.633Z" fill="#EDA428"/>
<path d="M197.713 167.633V167.234H174.494V131.842H197.314V167.633H197.713V167.234V167.633H198.113V131.442C198.113 131.337 198.07 131.235 197.995 131.16C197.921 131.086 197.819 131.043 197.713 131.043H174.095C173.989 131.043 173.887 131.086 173.812 131.16C173.738 131.235 173.695 131.337 173.695 131.442V167.633C173.695 167.739 173.738 167.841 173.812 167.915C173.887 167.99 173.989 168.033 174.095 168.033H197.713C197.82 168.033 197.92 167.991 197.995 167.915C198.071 167.84 198.113 167.74 198.113 167.633H197.713Z" fill="#1D1F2B"/>
<path d="M178.182 140.941L175.695 144.2H177.24V147.911H179.323V144.2H180.867L178.182 140.941Z" fill="#E33D3D"/>
<path d="M209.633 151.968H213.168V144.982H209.633V151.968Z" fill="#FECD76"/>
<path d="M184.133 151.968H187.668V144.982H184.133V151.968Z" fill="#F9C76F"/>
<path d="M213.172 144.982H224.694V142.677H213.172V144.982Z" fill="#D99C34"/>
<path d="M224.695 144.982H225.095V142.677H224.695V144.982Z" fill="#191A25"/>
<path d="M209.639 144.982H198.117V133.172L202.647 142.453C202.714 142.591 202.852 142.677 203.006 142.677H209.639V144.982Z" fill="#D99C34"/>
<path d="M197.32 144.982H187.677V142.677H192.431C192.585 142.677 192.723 142.591 192.79 142.453L197.32 133.172V144.982ZM184.143 144.982H179.323V144.2H180.868L179.613 142.677H184.143V144.982ZM177.24 144.982H174.5V142.677H176.857L175.696 144.2H177.24V144.982Z" fill="#CA8C22"/>
<path d="M198.104 144.982H197.305V133.172L197.704 132.353L198.104 133.172V144.982ZM174.485 144.982H174.086V142.677H174.485V144.982Z" fill="#191A25"/>
<path d="M179.323 144.982H177.24V144.2H175.695L176.856 142.677H179.612L180.867 144.2H179.323V144.982Z" fill="#C13434"/>
<path d="M209.633 144.982H213.168V142.677H209.633V144.982Z" fill="#D8AF65"/>
<path d="M184.133 144.982H187.668V142.677H184.133V144.982Z" fill="#D4A95F"/>
<path d="M230.384 142.279H203.006L197.719 131.442H225.097L230.384 142.279Z" fill="#FFC86B"/>
<path d="M230.378 142.279V141.879H203.249L198.351 131.842H224.841L230.019 142.453L230.378 142.279V141.879V142.279L230.737 142.103L225.449 131.268C225.382 131.129 225.243 131.043 225.09 131.043H197.712C197.575 131.043 197.446 131.114 197.373 131.23C197.3 131.348 197.293 131.493 197.353 131.617L202.641 142.453C202.708 142.591 202.847 142.677 203 142.677H230.378C230.515 142.677 230.644 142.607 230.716 142.49C230.79 142.374 230.797 142.227 230.737 142.103L230.378 142.279Z" fill="#1D1F2B"/>
<path d="M168.805 142.279H192.423L197.711 131.442H174.092L168.805 142.279Z" fill="#F2AD39"/>
<path d="M168.813 142.279V142.677H192.431C192.585 142.677 192.723 142.591 192.79 142.453L198.078 131.617C198.139 131.493 198.13 131.348 198.058 131.23C197.985 131.114 197.857 131.043 197.719 131.043H174.101C173.948 131.043 173.809 131.129 173.742 131.268L168.455 142.103C168.394 142.227 168.402 142.374 168.475 142.49C168.548 142.607 168.676 142.677 168.813 142.677V142.279L169.172 142.453L174.351 131.842H197.079L192.182 141.879H168.813V142.279L169.172 142.453L168.813 142.279Z" fill="#1D1F2B"/>
<path d="M225.166 132.493H198.678L198.359 131.842H224.849L225.166 132.493Z" fill="#FFD993"/>
<path d="M225.614 132.493H225.169L224.851 131.842H198.362L198.68 132.493H198.235L197.945 131.897L198.082 131.617C198.108 131.562 198.122 131.502 198.122 131.442H225.101L225.614 132.493Z" fill="#414556"/>
<path d="M197.941 131.897L197.719 131.442H198.118C198.118 131.502 198.104 131.561 198.078 131.617L197.941 131.897Z" fill="#414556"/>
<path d="M196.76 132.493H174.031L174.35 131.842H197.078L196.76 132.493Z" fill="#F5C665"/>
<path d="M197.197 132.493H196.751L197.069 131.842H174.341L174.022 132.493H173.578L174.09 131.442H197.709L197.197 132.493Z" fill="#414556"/>
<path d="M224.695 160.001H225.095V158.625H224.695V160.001Z" fill="#1B0E14"/>
<path d="M197.719 160.001H198.118V158.625H197.719V160.001Z" fill="#1B0E14"/>
<path d="M274.999 213H62V167.633H274.999V213Z" fill="#FCD4BE"/>
<path d="M83.5088 168.032H253.481C253.701 168.032 253.88 167.854 253.88 167.633C253.88 167.413 253.701 167.234 253.481 167.234H83.5088C83.2883 167.234 83.1094 167.413 83.1094 167.633C83.1094 167.854 83.2883 168.032 83.5088 168.032Z" fill="#222222"/>
<path d="M122.941 89.6442C122.941 89.6442 121.824 94.4431 124.28 100.519C124.473 100.995 125.023 101.215 125.488 100.998C126.73 100.418 128.544 99.6989 129.553 99.307C129.98 99.1419 130.21 98.6829 130.087 98.2409C129.651 96.6711 128.664 93.163 128.189 91.8701C127.457 89.8721 124.512 86.0317 122.941 89.6442Z" fill="#FF5757"/>
<path d="M122.934 89.6442L122.545 89.5537C122.539 89.5771 122.281 90.6943 122.281 92.5282C122.281 94.5443 122.594 97.4294 123.903 100.668C124.005 100.92 124.178 101.125 124.389 101.264C124.6 101.405 124.848 101.482 125.105 101.482C125.288 101.482 125.475 101.442 125.65 101.36H125.65C126.261 101.075 127.021 100.751 127.752 100.452C128.484 100.152 129.188 99.8746 129.691 99.6797C129.943 99.5817 130.15 99.4113 130.292 99.2015C130.434 98.9917 130.513 98.7414 130.513 98.4816C130.513 98.3655 130.497 98.2494 130.466 98.1344H130.465C130.247 97.3484 129.891 96.0779 129.529 94.8404C129.348 94.2205 129.166 93.6103 128.999 93.0725C128.832 92.5336 128.681 92.0682 128.558 91.7327C128.418 91.3525 128.211 90.9265 127.955 90.4941C127.57 89.8444 127.074 89.1831 126.512 88.6655C126.231 88.4067 125.932 88.1841 125.615 88.0212C125.299 87.8582 124.96 87.7549 124.607 87.7549C124.408 87.7538 124.206 87.789 124.011 87.8614C123.719 87.97 123.447 88.1649 123.207 88.4344C122.967 88.706 122.755 89.0521 122.567 89.4845C122.558 89.5058 122.55 89.5303 122.545 89.5537L122.934 89.6442L123.3 89.8029C123.517 89.3034 123.752 88.985 123.972 88.8007C124.082 88.7091 124.187 88.6484 124.291 88.609C124.395 88.5707 124.497 88.5537 124.607 88.5526C124.735 88.5526 124.874 88.5792 125.022 88.6314C125.282 88.7241 125.568 88.903 125.85 89.1458C126.275 89.509 126.691 90.0106 127.035 90.5292C127.379 91.0479 127.653 91.5846 127.808 92.0075C127.922 92.3184 128.071 92.7775 128.236 93.3089C128.732 94.9053 129.369 97.1727 129.696 98.3485L129.696 98.3474C129.708 98.3932 129.714 98.4379 129.714 98.4816C129.714 98.5796 129.684 98.6743 129.63 98.7532C129.576 98.833 129.5 98.8969 129.402 98.9342C128.896 99.1312 128.188 99.4092 127.449 99.7117C126.711 100.015 125.943 100.341 125.312 100.636H125.313C125.243 100.668 125.174 100.683 125.105 100.683C125.009 100.683 124.912 100.653 124.831 100.599C124.749 100.544 124.684 100.468 124.643 100.369C123.38 97.2419 123.08 94.4623 123.08 92.5282C123.08 91.6485 123.142 90.9446 123.203 90.4632C123.234 90.2225 123.265 90.0372 123.287 89.9137C123.298 89.8519 123.308 89.8061 123.314 89.7752C123.317 89.7603 123.319 89.7497 123.321 89.7422L123.323 89.7358L123.323 89.7337L123.196 89.7049L123.323 89.7347L123.323 89.7337L123.196 89.7049L123.323 89.7347L122.934 89.6442L123.3 89.8029L122.934 89.6442Z" fill="#1D1F2B"/>
<path d="M129.594 157.777C129.594 157.777 129.671 162.529 131.812 163.622C133.095 164.277 134.215 164.818 135.043 165.587C135.796 166.286 135.321 167.54 134.294 167.54H127.237C126.618 167.54 126.117 167.04 126.117 166.421L126.404 157.777H129.594Z" fill="#FF5757"/>
<path d="M129.587 157.777L129.188 157.783C129.188 157.799 129.207 159.006 129.503 160.374C129.652 161.059 129.869 161.785 130.2 162.431C130.366 162.753 130.562 163.056 130.796 163.322C131.03 163.587 131.304 163.815 131.624 163.978C132.268 164.307 132.863 164.603 133.392 164.909C133.921 165.213 134.382 165.526 134.765 165.88C134.852 165.961 134.91 166.047 134.949 166.138C134.987 166.227 135.005 166.321 135.005 166.416C135.006 166.602 134.933 166.79 134.808 166.922C134.746 166.989 134.672 167.043 134.587 167.08C134.501 167.119 134.403 167.141 134.287 167.141H127.23C127.03 167.141 126.852 167.061 126.721 166.93C126.59 166.799 126.51 166.621 126.51 166.421H126.11L126.509 166.435L126.784 158.176H129.587V157.777L129.188 157.783L129.587 157.777V157.377H126.397C126.182 157.377 126.005 157.548 125.998 157.764L125.711 166.408L125.711 166.421C125.711 166.84 125.882 167.222 126.156 167.496C126.429 167.769 126.812 167.94 127.23 167.94H134.287C134.511 167.94 134.723 167.894 134.911 167.811C135.192 167.686 135.417 167.48 135.569 167.236C135.722 166.991 135.804 166.708 135.804 166.416C135.804 166.218 135.765 166.015 135.683 165.824C135.601 165.631 135.475 165.45 135.308 165.295C134.862 164.881 134.349 164.538 133.791 164.217C133.232 163.895 132.626 163.594 131.987 163.267C131.771 163.157 131.575 162.997 131.395 162.793C131.079 162.437 130.821 161.944 130.623 161.402C130.325 160.59 130.163 159.674 130.079 158.967C130.036 158.614 130.013 158.312 130.001 158.1C129.994 157.994 129.991 157.91 129.989 157.853C129.988 157.826 129.987 157.804 129.987 157.79L129.986 157.774L129.986 157.77C129.983 157.552 129.805 157.377 129.587 157.377V157.777Z" fill="#1D1F2B"/>
<path d="M112.229 159.356C112.229 159.356 112.29 162.393 113.505 163.426C114.296 164.099 115.99 164.708 117.142 165.683C117.923 166.346 117.415 167.633 116.391 167.633H108.588C107.936 167.633 107.422 167.078 107.472 166.428L108.038 159.113L112.229 159.356Z" fill="#FF5757"/>
<path d="M112.223 159.356L111.823 159.364C111.824 159.377 111.839 160.154 112.012 161.078C112.1 161.54 112.226 162.04 112.417 162.506C112.513 162.739 112.625 162.964 112.76 163.172C112.894 163.38 113.052 163.571 113.24 163.731C113.468 163.925 113.74 164.098 114.038 164.271C114.485 164.53 114.993 164.786 115.491 165.065C115.989 165.346 116.477 165.649 116.877 165.988C116.964 166.062 117.022 166.142 117.06 166.226C117.097 166.31 117.116 166.4 117.116 166.494C117.117 166.676 117.041 166.868 116.912 167.007C116.847 167.076 116.77 167.133 116.683 167.172C116.596 167.21 116.498 167.234 116.384 167.234H108.581C108.379 167.234 108.203 167.153 108.071 167.022C107.94 166.89 107.861 166.712 107.861 166.515C107.861 166.496 107.862 166.478 107.863 166.461L107.863 166.458L108.399 159.535L112.199 159.755L112.223 159.356L111.823 159.364L112.223 159.356L112.246 158.958L108.054 158.715C107.836 158.702 107.649 158.865 107.633 159.082L107.067 166.397L107.067 166.395C107.064 166.436 107.063 166.477 107.063 166.515C107.062 166.93 107.232 167.312 107.505 167.585C107.778 167.86 108.161 168.033 108.581 168.033H116.384C116.609 168.033 116.822 167.985 117.011 167.9C117.294 167.773 117.52 167.564 117.674 167.319C117.829 167.073 117.914 166.788 117.915 166.494C117.915 166.294 117.874 166.09 117.788 165.898C117.702 165.707 117.569 165.528 117.393 165.379C116.775 164.856 116.041 164.45 115.371 164.09C115.036 163.909 114.717 163.742 114.439 163.58C114.161 163.419 113.924 163.265 113.757 163.122C113.641 163.024 113.531 162.894 113.43 162.737C113.252 162.465 113.105 162.112 112.992 161.739C112.822 161.18 112.728 160.575 112.678 160.116C112.653 159.886 112.639 159.691 112.631 159.556C112.627 159.489 112.625 159.436 112.624 159.4C112.623 159.382 112.622 159.369 112.622 159.36L112.622 159.351L112.622 159.349C112.618 159.14 112.454 158.969 112.246 158.958L112.223 159.356Z" fill="#1D1F2B"/>
<path d="M134.293 167.141H127.236C127.035 167.141 126.858 167.061 126.726 166.93C126.597 166.8 126.517 166.625 126.516 166.428L126.669 161.801C126.879 161.809 127.101 161.813 127.336 161.813C127.475 161.813 127.618 161.812 127.766 161.809L127.638 165.038C127.638 165.655 128.139 166.157 128.757 166.157H134.963C134.996 166.241 135.011 166.329 135.011 166.416C135.012 166.602 134.938 166.79 134.814 166.922C134.752 166.989 134.678 167.043 134.593 167.08C134.507 167.119 134.409 167.141 134.293 167.141Z" fill="#F33D3D"/>
<path d="M134.294 167.54H127.237C126.618 167.54 126.117 167.04 126.117 166.421L126.271 161.781C126.398 161.788 126.531 161.796 126.67 161.801L126.517 166.428C126.518 166.625 126.598 166.8 126.727 166.93C126.859 167.061 127.036 167.141 127.237 167.141H134.294C134.41 167.141 134.508 167.119 134.594 167.08C134.679 167.043 134.753 166.989 134.815 166.922C134.939 166.79 135.013 166.602 135.012 166.416C135.012 166.328 134.997 166.241 134.964 166.157H135.379C135.536 166.813 135.076 167.54 134.294 167.54Z" fill="#1B161E"/>
<path d="M116.39 167.234H108.587C108.386 167.234 108.209 167.153 108.077 167.022C107.947 166.89 107.867 166.712 107.867 166.515C107.867 166.496 107.868 166.478 107.869 166.461L107.87 166.458L108.247 161.573C108.284 161.581 108.321 161.588 108.359 161.596C108.629 161.65 108.927 161.704 109.247 161.754L108.993 165.044C108.943 165.694 109.457 166.25 110.109 166.25H117.076C117.107 166.326 117.122 166.408 117.122 166.494C117.123 166.676 117.047 166.868 116.918 167.007C116.853 167.076 116.776 167.133 116.689 167.172C116.602 167.21 116.504 167.234 116.39 167.234Z" fill="#F33D3D"/>
<path d="M116.391 167.633H108.588C107.936 167.633 107.422 167.078 107.472 166.428L107.854 161.488C107.977 161.516 108.108 161.545 108.248 161.573L107.87 166.458L107.87 166.461C107.869 166.478 107.868 166.496 107.868 166.515C107.868 166.712 107.947 166.89 108.078 167.022C108.209 167.153 108.386 167.234 108.588 167.234H116.391C116.505 167.234 116.603 167.21 116.69 167.172C116.777 167.133 116.854 167.076 116.918 167.007C117.048 166.868 117.123 166.676 117.123 166.494C117.123 166.408 117.107 166.326 117.076 166.25H117.493C117.645 166.895 117.166 167.633 116.391 167.633Z" fill="#1B161E"/>
<path d="M127.388 115.73C127.388 115.73 130.536 147.515 131.191 160.987C127.546 161.808 124.699 161.192 124.699 161.192L119.203 127.016C119.203 127.016 114.882 150.782 113.201 161.55C109.92 161.793 106.883 160.82 106.883 160.82L109.92 113.34L127.388 115.73Z" fill="#3178C4"/>
<path d="M127.389 115.73L126.991 115.77C126.992 115.771 127.004 115.894 127.027 116.13C127.201 117.9 127.989 125.965 128.811 135.167C129.632 144.366 130.487 154.705 130.793 161.007L131.192 160.988L131.105 160.598C129.681 160.918 128.379 161.014 127.332 161.014C126.547 161.014 125.904 160.961 125.461 160.907C125.239 160.88 125.068 160.853 124.952 160.833C124.895 160.824 124.851 160.815 124.823 160.81C124.809 160.808 124.798 160.805 124.792 160.803L124.785 160.802H124.784L124.761 160.911L124.784 160.802H124.784L124.761 160.911L124.784 160.802L124.7 161.192L125.094 161.129L119.598 126.952C119.567 126.761 119.402 126.619 119.208 126.617C119.014 126.615 118.846 126.753 118.811 126.945C118.811 126.945 117.731 132.886 116.44 140.175C115.15 147.464 113.649 156.097 112.807 161.488L113.202 161.55L113.172 161.152C112.818 161.177 112.467 161.189 112.121 161.189C110.738 161.189 109.453 161.001 108.517 160.813C108.049 160.719 107.669 160.624 107.406 160.554C107.275 160.52 107.174 160.49 107.105 160.47C107.071 160.46 107.046 160.453 107.029 160.448L107.01 160.441L107.006 160.44H107.005L106.884 160.82L107.282 160.846L110.292 113.794L127.335 116.127L127.389 115.73L126.991 115.77L127.389 115.73L127.443 115.335L109.975 112.944C109.865 112.929 109.754 112.96 109.668 113.031C109.582 113.101 109.53 113.203 109.523 113.315L106.485 160.795C106.473 160.978 106.587 161.145 106.762 161.201C106.773 161.204 107.386 161.4 108.36 161.596C109.333 161.792 110.667 161.988 112.121 161.988C112.485 161.988 112.856 161.976 113.231 161.948C113.416 161.934 113.568 161.795 113.596 161.612C114.436 156.233 115.936 147.6 117.227 140.315C117.872 136.671 118.464 133.365 118.896 130.968C119.111 129.77 119.287 128.8 119.408 128.129C119.469 127.794 119.516 127.534 119.548 127.357C119.58 127.18 119.597 127.088 119.597 127.088L119.204 127.016L118.81 127.079L124.305 161.256C124.331 161.418 124.455 161.548 124.615 161.583C124.636 161.587 125.688 161.813 127.332 161.813C128.428 161.813 129.788 161.713 131.28 161.377C131.469 161.335 131.6 161.162 131.591 160.968C131.263 154.218 130.312 142.904 129.443 133.271C128.574 123.639 127.786 115.692 127.786 115.691C127.768 115.508 127.626 115.36 127.443 115.335L127.389 115.73Z" fill="#1D1F2B"/>
<path d="M109.099 160.922C108.891 160.886 108.694 160.85 108.511 160.813C108.043 160.719 107.663 160.624 107.4 160.554C107.364 160.544 107.329 160.535 107.297 160.526L109.93 119.372C111.857 119.587 116.331 120.022 120.907 120.022C123.125 120.022 125.367 119.92 127.362 119.638C127.417 120.204 127.476 120.825 127.54 121.492C125.655 121.765 123.183 121.99 120.16 121.99C117.905 121.99 115.342 121.865 112.49 121.539C111.442 126.707 109.564 154.009 109.099 160.922Z" fill="#205EB5"/>
<path d="M109.077 161.321C107.761 161.099 106.883 160.82 106.883 160.82L109.537 119.327C109.654 119.341 109.787 119.356 109.935 119.372L107.302 160.526C107.334 160.535 107.368 160.544 107.405 160.554C107.668 160.624 108.048 160.719 108.516 160.813C108.699 160.85 108.896 160.886 109.104 160.921C109.095 161.063 109.086 161.197 109.077 161.321ZM127.545 121.492C127.481 120.825 127.422 120.204 127.367 119.638C127.512 119.617 127.656 119.595 127.799 119.573C127.859 120.139 127.924 120.758 127.994 121.425C127.848 121.447 127.699 121.47 127.545 121.492Z" fill="#131828"/>
<path d="M126.624 161C126.155 160.98 125.761 160.943 125.458 160.907C125.292 160.886 125.154 160.866 125.046 160.849L120.734 134.035L126.624 161Z" fill="#205EB5"/>
<path d="M126.714 161.402C125.469 161.357 124.699 161.192 124.699 161.192L119.203 127.016L120.736 134.034L125.048 160.849C125.156 160.866 125.294 160.886 125.46 160.907C125.762 160.943 126.157 160.98 126.626 161L126.714 161.402Z" fill="#131828"/>
<path d="M109.649 88.5643C113.452 86.4833 118.852 85.5865 123.269 86.9124C125.028 87.4396 126.307 88.9551 126.509 90.7795C127.131 96.3867 128.52 110.068 128.371 119.068C121.07 120.428 108.992 118.859 108.992 118.859L109.649 88.5643Z" fill="#FF5757"/>
<path d="M109.658 88.5643L109.85 88.9147C112.36 87.5387 115.614 86.6867 118.783 86.6878C120.292 86.6878 121.781 86.8795 123.163 87.2948C124.771 87.7773 125.937 89.1596 126.121 90.8242C126.416 93.4835 126.884 97.9619 127.278 102.894C127.672 107.825 127.992 113.211 127.992 117.674C127.991 118.148 127.988 118.611 127.981 119.062L128.38 119.068L128.307 118.676C126.139 119.08 123.514 119.224 120.914 119.224C117.914 119.224 114.945 119.033 112.729 118.843C111.621 118.747 110.701 118.653 110.058 118.581C109.737 118.546 109.485 118.516 109.313 118.495C109.228 118.485 109.162 118.477 109.118 118.472C109.074 118.466 109.052 118.463 109.052 118.463L109.001 118.859L109.4 118.868L110.057 88.5728L109.658 88.5643L109.85 88.9147L109.658 88.5643L109.259 88.5558L108.602 118.851C108.597 119.054 108.748 119.229 108.949 119.255C108.959 119.257 114.848 120.022 120.914 120.022C123.544 120.022 126.207 119.88 128.453 119.461C128.64 119.426 128.776 119.265 128.779 119.075C128.787 118.62 128.79 118.152 128.79 117.674C128.79 113.173 128.469 107.774 128.074 102.83C127.679 97.8873 127.21 93.4005 126.915 90.7358C126.695 88.7496 125.303 87.1021 123.393 86.5291C121.925 86.0892 120.36 85.889 118.783 85.889C115.472 85.8901 112.108 86.7687 109.466 88.2139C109.341 88.2821 109.262 88.4131 109.259 88.5558L109.658 88.5643Z" fill="#1D1F2B"/>
<path d="M121.684 86.9338C121.72 87.2576 121.754 87.5973 121.654 87.9041C121.477 88.4451 120.941 88.7252 120.437 88.8519C119.617 89.0585 118.745 89.0074 117.949 88.706C117.463 88.5218 116.975 88.2129 116.758 87.6943C116.412 86.8678 116.875 85.9317 117.059 85.0435C117.21 84.3118 117.576 81.1765 117.863 80.0028C118.063 79.1849 118.762 81.7665 119.529 81.8836C120.248 81.9933 121.249 82.513 121.354 83.397C121.491 84.5632 121.555 85.7602 121.684 86.9338Z" fill="#FFC28A"/>
<path d="M121.693 86.9338L121.296 86.9775C121.314 87.1404 121.329 87.2948 121.329 87.4322C121.329 87.5664 121.315 87.6825 121.283 87.7805H121.283C121.254 87.8678 121.212 87.9434 121.156 88.0137C121.073 88.1192 120.956 88.2108 120.815 88.2874C120.675 88.3641 120.511 88.4237 120.348 88.4642C120.05 88.5398 119.743 88.5771 119.437 88.5771C118.983 88.5771 118.529 88.4951 118.099 88.3322C117.884 88.2512 117.676 88.1437 117.508 88.0116C117.34 87.8785 117.213 87.7262 117.135 87.5398C117.069 87.3822 117.041 87.2171 117.041 87.0329C117.04 86.7698 117.102 86.4684 117.189 86.1457C117.275 85.823 117.384 85.4812 117.459 85.1244C117.48 85.0211 117.503 84.8879 117.528 84.7271C117.617 84.1648 117.739 83.2585 117.87 82.3618C117.935 81.9134 118.003 81.4693 118.069 81.0753C118.135 80.6812 118.201 80.3361 118.26 80.0976L118.264 80.0805L118.266 80.0763L118.075 80.0039L118.218 80.1434C118.26 80.0986 118.265 80.0763 118.266 80.0763L118.075 80.0039L118.218 80.1434L117.988 79.9187L118.122 80.2115C118.165 80.1913 118.198 80.1647 118.218 80.1434L117.988 79.9187L118.122 80.2115L117.98 79.9016V80.2424C118.027 80.2424 118.079 80.2307 118.122 80.2115L117.98 79.9016V80.2424V79.9187L117.863 80.2211C117.891 80.2318 117.932 80.2424 117.98 80.2424V79.9187L117.863 80.2211L117.941 80.0209L117.791 80.1785C117.794 80.1796 117.809 80.1988 117.863 80.2211L117.941 80.0209L117.791 80.1785H117.791C117.797 80.1838 117.831 80.2275 117.87 80.2903C117.938 80.4 118.028 80.5694 118.127 80.7568C118.277 81.039 118.449 81.3649 118.65 81.6472C118.751 81.7888 118.859 81.9209 118.988 82.0338C119.053 82.0902 119.124 82.1424 119.204 82.185C119.285 82.2286 119.376 82.2627 119.478 82.2787C119.625 82.3011 119.795 82.3469 119.964 82.414C120.219 82.5141 120.468 82.6642 120.648 82.8432C120.738 82.9326 120.812 83.0274 120.865 83.1275C120.918 83.2266 120.952 83.3298 120.966 83.4438C121.101 84.5929 121.165 85.7889 121.296 86.9775L121.693 86.9338L122.09 86.8902C121.962 85.7314 121.898 84.5333 121.759 83.3501C121.725 83.0593 121.615 82.7974 121.464 82.5769C121.236 82.2468 120.921 82.0029 120.593 81.8261C120.263 81.6493 119.917 81.5385 119.598 81.4895H119.598L119.599 81.4885L119.598 81.4895H119.598L119.599 81.4885C119.592 81.4874 119.556 81.4704 119.506 81.4256C119.418 81.3479 119.299 81.1945 119.186 81.0114C119.013 80.7366 118.844 80.399 118.691 80.1178C118.614 79.9772 118.542 79.8505 118.461 79.7387C118.42 79.6822 118.377 79.629 118.313 79.5736C118.28 79.5459 118.241 79.5172 118.188 79.4916C118.135 79.466 118.065 79.4437 117.98 79.4437C117.896 79.4426 117.805 79.4692 117.738 79.5129C117.687 79.5448 117.648 79.5821 117.618 79.6173C117.574 79.6716 117.549 79.7216 117.529 79.7685C117.509 79.8164 117.495 79.8611 117.484 79.908C117.408 80.2211 117.33 80.6429 117.252 81.1179C117.136 81.8303 117.019 82.66 116.918 83.3799C116.867 83.7399 116.82 84.0732 116.778 84.348C116.737 84.6217 116.702 84.8422 116.676 84.9625C116.614 85.2639 116.51 85.593 116.418 85.9391C116.325 86.2852 116.243 86.6495 116.242 87.0329C116.242 87.3002 116.285 87.5781 116.398 87.8476C116.537 88.1809 116.763 88.4419 117.014 88.6389C117.266 88.838 117.546 88.9765 117.816 89.0798C118.337 89.2757 118.887 89.3759 119.437 89.3759C119.808 89.3759 120.18 89.3301 120.543 89.2385C120.83 89.1661 121.132 89.051 121.406 88.8604C121.542 88.7646 121.671 88.6495 121.781 88.5111C121.892 88.3726 121.983 88.2107 122.042 88.0286L122.042 88.0276C122.109 87.8231 122.128 87.6207 122.128 87.4322C122.128 87.2384 122.108 87.0563 122.09 86.8902L121.693 86.9338Z" fill="#1D1F2B"/>
<path d="M120.921 119.224C120.918 119.224 120.916 119.224 120.913 119.224C117.912 119.224 114.944 119.033 112.727 118.843C111.619 118.748 110.699 118.653 110.056 118.581C109.79 118.552 109.571 118.527 109.406 118.507L109.535 112.564C110.067 112.752 110.61 112.903 111.157 113.019C111.702 113.136 112.373 113.217 113.138 113.27C113.82 113.319 114.576 113.344 115.377 113.349C115.493 113.484 115.614 113.615 115.742 113.741C117.123 115.108 118.987 115.718 120.947 115.966C120.991 116.028 121.04 116.085 121.093 116.137C121.341 116.386 121.688 116.541 122.067 116.541C122.067 116.541 122.067 116.541 122.068 116.541H127.983C127.988 116.925 127.99 117.302 127.99 117.674C127.99 118.034 127.988 118.386 127.983 118.734C125.883 119.094 123.391 119.224 120.921 119.224ZM113.3 108.122C113.247 108.111 113.195 108.101 113.145 108.09C112.239 107.891 111.418 107.45 110.694 106.847C110.33 106.544 109.991 106.199 109.681 105.826L109.821 99.3784C110.199 98.6563 110.724 97.6445 111.229 96.6488C111.52 96.0737 111.805 95.5039 112.052 94.997C112.299 94.49 112.506 94.047 112.646 93.7179C112.82 93.3079 112.974 92.8009 113.087 92.2524C113.199 91.7029 113.269 91.114 113.27 90.5421C113.27 90.1885 113.243 89.8413 113.179 89.5133C113.131 89.2662 113.062 89.0308 112.966 88.8114C112.822 88.4823 112.611 88.1852 112.315 87.9722C112.266 87.936 112.214 87.903 112.159 87.8721C113.443 87.4024 114.828 87.0563 116.241 86.8625C116.237 86.9189 116.235 86.9754 116.235 87.0329C116.235 87.0361 116.235 87.0403 116.235 87.0435C115.428 88.0191 114.89 89.3471 114.539 90.5825C113.04 95.8575 112.562 101.42 113.139 106.873C113.183 107.286 113.235 107.705 113.3 108.122Z" fill="#F33D3D"/>
<path d="M120.905 119.623C114.872 119.623 108.992 118.859 108.992 118.859L109.132 112.417C109.263 112.468 109.395 112.517 109.528 112.564L109.399 118.507C109.564 118.527 109.783 118.551 110.049 118.581C110.692 118.653 111.612 118.747 112.72 118.843C114.936 119.033 117.905 119.223 120.906 119.223C120.909 119.223 120.911 119.223 120.914 119.223C123.384 119.223 125.876 119.094 127.976 118.734C127.981 118.386 127.983 118.034 127.983 117.674C127.983 117.302 127.98 116.925 127.976 116.541H128.375C128.385 117.415 128.384 118.262 128.371 119.068C126.164 119.479 123.52 119.623 120.905 119.623ZM109.674 105.826C109.539 105.663 109.41 105.496 109.286 105.323L109.401 100.025C109.499 99.9299 109.584 99.8181 109.65 99.6924H109.65C109.701 99.5955 109.756 99.4901 109.814 99.3783L109.674 105.826ZM112.152 87.872C112.046 87.8124 111.932 87.7623 111.811 87.7261C111.732 87.7016 111.651 87.6824 111.567 87.6686C113.033 87.0903 114.641 86.6718 116.284 86.4577C116.26 86.5898 116.242 86.725 116.234 86.8624C114.821 87.0562 113.436 87.4024 112.152 87.872Z" fill="#1B161E"/>
<path d="M116.242 87.0435C116.242 87.0403 116.242 87.036 116.242 87.0328C116.242 86.9753 116.244 86.9189 116.248 86.8624C116.256 86.725 116.274 86.5898 116.298 86.4577C116.437 86.4385 116.576 86.4226 116.715 86.4066C116.704 86.462 116.693 86.5173 116.684 86.5717C116.528 86.7176 116.381 86.8752 116.242 87.0435Z" fill="#1B161E"/>
<path d="M118.109 82.4257C117.931 82.7612 117.751 83.1009 117.504 83.3757C117.256 83.6515 116.931 83.8581 116.583 83.8656C116.177 83.8741 115.806 83.6153 115.487 83.332C114.494 82.4502 113.74 81.234 113.349 79.8825C112.959 78.531 112.896 77.0059 113.092 75.6022C113.335 73.8642 114.662 71.8417 115.982 70.8971C117.303 69.9514 119.201 70.4338 120.732 70.7991C122.264 71.1655 123.65 72.3881 124.18 74.041C124.353 74.582 124.435 75.1762 124.303 75.7311C124.202 76.1592 123.98 76.5384 123.729 76.8802C122.923 77.9751 121.813 78.7216 120.769 79.5225C119.724 80.3245 118.755 81.2041 118.109 82.4257Z" fill="#3178C4"/>
<path d="M118.102 82.4258L117.749 82.2394C117.572 82.5749 117.403 82.8848 117.2 83.1095C117.101 83.2192 116.989 83.3118 116.879 83.3725C116.769 83.4343 116.664 83.4641 116.568 83.4663H116.57H116.557C116.444 83.4663 116.319 83.43 116.178 83.3534C116.039 83.2767 115.89 83.1617 115.745 83.0339C114.813 82.2064 114.096 81.053 113.726 79.7718C113.489 78.9507 113.377 78.0518 113.377 77.1583C113.377 76.6513 113.413 76.1465 113.481 75.6577C113.591 74.8653 113.961 73.9665 114.465 73.1645C114.967 72.3604 115.605 71.6522 116.208 71.2209C116.45 71.0484 116.715 70.9312 117.004 70.8545C117.293 70.7789 117.606 70.7459 117.934 70.7459C118.366 70.7459 118.823 70.8034 119.281 70.8875C119.739 70.9727 120.196 71.0835 120.633 71.1879C121.327 71.353 121.998 71.7172 122.554 72.2305C123.11 72.7438 123.55 73.4063 123.793 74.1635C123.897 74.4883 123.962 74.8291 123.962 75.1529C123.962 75.3201 123.944 75.483 123.908 75.6396C123.825 75.99 123.635 76.3254 123.4 76.6439C123.024 77.1551 122.57 77.5928 122.076 78.0049C121.582 78.416 121.048 78.8005 120.519 79.2063C119.988 79.6131 119.468 80.0465 118.994 80.5407C118.52 81.0349 118.092 81.5908 117.749 82.2394L118.102 82.4258L118.455 82.6132C118.758 82.0402 119.137 81.545 119.57 81.0934C120.004 80.6419 120.491 80.234 121.005 79.8399C121.521 79.4438 122.064 79.054 122.587 78.6184C123.11 78.1828 123.614 77.7004 124.044 77.1167C124.311 76.7525 124.565 76.3276 124.685 75.8238C124.738 75.6002 124.761 75.3744 124.761 75.1529C124.76 74.7237 124.677 74.3051 124.553 73.9196C124.266 73.0229 123.748 72.2465 123.096 71.6437C122.443 71.042 121.655 70.6106 120.818 70.4104C120.384 70.3071 119.913 70.1921 119.426 70.1026C118.939 70.0121 118.436 69.9472 117.934 69.9472C117.553 69.9472 117.172 69.9844 116.801 70.0824C116.431 70.1793 116.072 70.3369 115.743 70.5723C115.026 71.0867 114.34 71.862 113.788 72.7406C113.238 73.6193 112.824 74.6012 112.69 75.5469C112.616 76.072 112.578 76.6141 112.578 77.1583C112.578 78.1189 112.698 79.088 112.959 79.9933C113.37 81.4151 114.161 82.6941 115.215 83.6313C115.384 83.7804 115.574 83.9327 115.795 84.0541C116.014 84.1734 116.271 84.265 116.557 84.265H116.583H116.585C116.836 84.2597 117.068 84.1819 117.269 84.0701C117.471 83.9572 117.645 83.8081 117.794 83.6431C118.085 83.3172 118.276 82.9487 118.455 82.6132L118.102 82.4258Z" fill="#1D1F2B"/>
<path d="M120.264 77.2923H119.572C119.521 77.1688 119.46 77.0484 119.391 76.9334C119.265 76.7236 119.109 76.5287 118.919 76.3626H120.519C120.474 76.6821 120.388 76.9952 120.264 77.2923ZM116.063 77.2923H113.384C113.383 77.2476 113.383 77.2028 113.383 77.1581C113.383 76.8919 113.393 76.6256 113.412 76.3626H116.486C116.427 76.4233 116.373 76.4893 116.325 76.5617H116.325C116.218 76.7215 116.148 76.8951 116.105 77.0676C116.086 77.1421 116.073 77.2177 116.063 77.2923Z" fill="#205EB5"/>
<path d="M113.391 77.2923H112.993C112.989 76.9813 112.998 76.6703 113.019 76.3626H113.419C113.4 76.6256 113.39 76.8919 113.39 77.1581C113.39 77.2028 113.39 77.2476 113.391 77.2923Z" fill="#131828"/>
<path d="M124.722 74.5958C125.278 76.7865 125.202 79.1338 124.504 81.283C124.233 82.119 123.846 82.9571 123.165 83.5131C122.117 84.3672 120.492 84.3416 119.389 83.5599C118.286 82.7772 117.726 81.3479 117.861 80.0028C117.067 79.5523 116.546 78.7334 116.451 77.8249C116.413 77.466 116.449 77.0837 116.65 76.7844C117.007 76.2498 117.815 76.1529 118.374 76.4692C118.934 76.7855 119.26 77.4127 119.372 78.0464C119.81 78.4192 120.231 78.4043 120.49 77.7365C120.794 77.1454 120.952 76.4809 120.946 75.8163C120.941 75.3264 120.859 74.7939 121.123 74.3818C121.37 73.9941 121.858 73.8322 122.316 73.7981C123.245 73.7279 124.493 73.6927 124.722 74.5958Z" fill="#FFC28A"/>
<path d="M124.723 74.5957L124.336 74.6947C124.573 75.6277 124.691 76.5926 124.691 77.5575C124.691 78.778 124.502 79.9995 124.125 81.1593C123.995 81.5619 123.838 81.9559 123.641 82.3074C123.443 82.6578 123.206 82.9645 122.913 83.203C122.468 83.5673 121.885 83.7504 121.285 83.7504C120.694 83.7504 120.095 83.5705 119.621 83.2339C119.185 82.924 118.84 82.4959 118.604 82.0017C118.367 81.5086 118.242 80.9527 118.242 80.4021C118.242 80.2817 118.248 80.1614 118.26 80.0432C118.276 79.8856 118.197 79.7333 118.06 79.6555C117.381 79.2711 116.93 78.566 116.849 77.7832C116.842 77.7151 116.838 77.648 116.838 77.582C116.838 77.4669 116.85 77.3572 116.874 77.2603C116.898 77.1634 116.934 77.0782 116.982 77.0058H116.983C117.049 76.9067 117.142 76.829 117.261 76.7736C117.38 76.7182 117.523 76.6874 117.671 76.6874C117.85 76.6874 118.033 76.7332 118.179 76.8162C118.388 76.9344 118.563 77.1166 118.7 77.3445C118.836 77.5713 118.931 77.8418 118.98 78.1155C118.996 78.206 119.044 78.2902 119.114 78.3498C119.227 78.4457 119.346 78.5277 119.476 78.5894C119.607 78.6502 119.751 78.6906 119.905 78.6906C120.011 78.6906 120.121 78.6704 120.222 78.6289C120.376 78.5671 120.507 78.4616 120.61 78.3338C120.715 78.206 120.796 78.0548 120.863 77.8812L120.491 77.7364L120.846 77.9196C121.174 77.2827 121.346 76.5702 121.346 75.8545C121.346 75.8396 121.346 75.8268 121.346 75.8162V75.813C121.344 75.6032 121.33 75.4051 121.33 75.2272C121.33 75.0909 121.338 74.9674 121.359 74.8619C121.38 74.7565 121.412 74.6713 121.46 74.5968H121.46C121.497 74.5393 121.543 74.4892 121.6 74.4434C121.685 74.3752 121.797 74.3167 121.927 74.2751C122.056 74.2325 122.202 74.207 122.347 74.1963C122.568 74.1793 122.802 74.1654 123.029 74.1654C123.384 74.1644 123.723 74.2038 123.949 74.2954C124.062 74.3401 124.146 74.3955 124.207 74.4562C124.266 74.519 124.308 74.5872 124.336 74.6947L124.723 74.5957L125.11 74.4977C125.051 74.2624 124.933 74.0557 124.778 73.8981C124.662 73.7799 124.527 73.6873 124.387 73.617C124.175 73.5115 123.949 73.4508 123.72 73.4146C123.491 73.3784 123.257 73.3667 123.029 73.3667C122.769 73.3667 122.516 73.3827 122.287 73.3997C122.022 73.4199 121.744 73.4753 121.479 73.5925C121.348 73.651 121.219 73.7256 121.101 73.8193C120.983 73.9141 120.875 74.0291 120.787 74.1665L120.788 74.1654C120.676 74.3401 120.611 74.5275 120.576 74.7075C120.54 74.8875 120.532 75.0622 120.532 75.2272C120.532 75.4424 120.546 75.6437 120.548 75.8204V75.8162C120.548 75.8311 120.548 75.8439 120.548 75.8545C120.548 76.4413 120.405 77.0324 120.136 77.5532C120.128 77.5681 120.125 77.5766 120.119 77.5915C120.059 77.747 119.996 77.8312 119.959 77.8642C119.941 77.8802 119.93 77.8855 119.924 77.8876L119.905 77.8919C119.892 77.8919 119.863 77.8876 119.814 77.8652C119.766 77.8429 119.703 77.8024 119.632 77.7417L119.373 78.0463L119.766 77.976C119.702 77.6171 119.579 77.2571 119.384 76.9334C119.19 76.6096 118.922 76.3189 118.572 76.1208C118.294 75.9642 117.981 75.8897 117.671 75.8886C117.416 75.8897 117.16 75.9397 116.925 76.0494C116.69 76.1581 116.474 76.3295 116.318 76.5617H116.319C116.211 76.7214 116.142 76.895 116.098 77.0676C116.056 77.2401 116.039 77.4137 116.039 77.582C116.039 77.6789 116.045 77.7737 116.054 77.8663C116.163 78.8994 116.755 79.8334 117.665 80.3499L117.862 80.0027L117.465 79.9622C117.45 80.1081 117.443 80.2551 117.443 80.4021C117.443 81.073 117.594 81.7429 117.883 82.3468C118.172 82.9496 118.601 83.4885 119.159 83.8846C119.781 84.3255 120.535 84.5481 121.285 84.5492C122.045 84.5492 122.809 84.3181 123.418 83.8218C123.806 83.5055 124.103 83.1146 124.337 82.6993C124.571 82.2829 124.744 81.8398 124.885 81.4064C125.288 80.1646 125.49 78.861 125.49 77.5575C125.49 76.5276 125.364 75.4967 125.11 74.4977L124.723 74.5957Z" fill="#1D1F2B"/>
<path d="M128.559 75.9633H112.675C112.675 75.9633 112.33 68.1824 118.421 68.1824C124.81 68.1824 125.085 73.7662 125.085 73.7662C125.085 73.7662 128.768 73.7662 128.559 75.9633Z" fill="#FF5757"/>
<path d="M128.56 75.9633V75.5639H112.676V75.9633L113.075 75.9462L113.036 75.9473L113.075 75.9462L113.036 75.9473L113.075 75.9462C113.075 75.942 113.072 75.8674 113.072 75.7386C113.072 75.4329 113.089 74.8195 113.197 74.0761C113.278 73.5181 113.41 72.8886 113.622 72.2624C113.941 71.322 114.438 70.3976 115.196 69.7181C115.575 69.3784 116.019 69.0962 116.549 68.897C117.079 68.6989 117.695 68.5818 118.422 68.5818C119.962 68.5818 121.102 68.9162 121.962 69.4018C122.606 69.7671 123.095 70.2208 123.472 70.7001C124.036 71.4179 124.343 72.1964 124.506 72.7949C124.587 73.0931 124.633 73.3466 124.658 73.5223C124.671 73.6107 124.678 73.6789 124.683 73.7236C124.685 73.747 124.686 73.763 124.687 73.7736L124.687 73.7843L124.687 73.7864L124.832 73.779L124.687 73.7854V73.7864L124.832 73.779L124.687 73.7854C124.698 73.9984 124.873 74.1656 125.086 74.1656V74.0239L125.086 74.1656H125.086V74.0239L125.086 74.1656C125.09 74.1656 125.302 74.1666 125.614 74.1975C125.848 74.221 126.138 74.2614 126.436 74.3296C126.66 74.3807 126.888 74.4478 127.1 74.5341C127.419 74.6619 127.696 74.8323 127.88 75.0346C127.972 75.1358 128.043 75.2444 128.092 75.3658C128.141 75.4883 128.169 75.6236 128.169 75.7876C128.169 75.8312 128.167 75.877 128.163 75.9271L128.56 75.9633V75.5639V75.9633L128.958 76.0006C128.965 75.9292 128.968 75.8579 128.968 75.7876C128.968 75.4777 128.9 75.1912 128.777 74.9441C128.671 74.7268 128.525 74.5405 128.359 74.3828C128.068 74.1081 127.716 73.9174 127.358 73.7769C126.82 73.567 126.26 73.468 125.829 73.4169C125.398 73.3668 125.098 73.3668 125.086 73.3668V73.7662L125.485 73.747C125.484 73.7279 125.465 73.3551 125.332 72.8002C125.232 72.3849 125.068 71.8662 124.797 71.3178C124.392 70.4966 123.742 69.6063 122.712 68.9258C121.683 68.2442 120.283 67.782 118.422 67.783C117.7 67.783 117.054 67.8863 116.48 68.0748C115.474 68.4039 114.697 68.9929 114.114 69.6947C113.677 70.2208 113.346 70.8087 113.093 71.4062C112.715 72.304 112.512 73.222 112.401 73.9984C112.291 74.7748 112.274 75.4095 112.273 75.7386C112.273 75.8898 112.277 75.9761 112.277 75.9814C112.287 76.1944 112.463 76.3627 112.676 76.3627H128.56C128.766 76.3627 128.939 76.2061 128.958 76.0006L128.56 75.9633Z" fill="#1D1F2B"/>
<path d="M117.024 75.5638H113.078C113.084 75.2284 113.111 74.6969 113.201 74.076C113.282 73.518 113.415 72.8886 113.627 72.2623C113.945 71.3219 114.443 70.3975 115.2 69.7181C115.579 69.3783 116.023 69.0961 116.553 68.8969C116.754 68.8213 116.968 68.7585 117.195 68.7084C116.396 69.75 115.924 71.044 115.948 72.3593C115.968 73.5073 116.367 74.6245 117.024 75.5638Z" fill="#F33D3D"/>
<path d="M117.322 75.9633H112.675C112.675 75.9633 112.367 68.9215 117.587 68.2399C117.447 68.39 117.315 68.5455 117.19 68.7085C116.963 68.7585 116.749 68.8214 116.548 68.897C116.018 69.0961 115.574 69.3784 115.195 69.7181C114.437 70.3976 113.94 71.322 113.621 72.2624C113.409 72.8886 113.277 73.518 113.196 74.0761C113.106 74.697 113.079 75.2284 113.073 75.5639H117.018C117.114 75.7013 117.215 75.8344 117.322 75.9633Z" fill="#1B161E"/>
<path d="M117.995 88.2949C117.814 88.2193 117.641 88.1245 117.498 88.0116C117.33 87.8785 117.203 87.7262 117.125 87.5398C117.06 87.3822 117.032 87.2171 117.031 87.0329C117.031 86.7698 117.093 86.4684 117.18 86.1458C117.266 85.8231 117.375 85.4812 117.449 85.1244C117.47 85.0211 117.493 84.888 117.519 84.7272C117.559 84.4716 117.606 84.1457 117.658 83.7815C117.705 83.7367 117.75 83.6909 117.793 83.643C117.981 83.4332 118.127 83.2053 118.256 82.9795C118.503 83.3256 118.804 83.6334 119.158 83.8848C119.72 84.2831 120.39 84.5035 121.067 84.5429C121.087 84.7634 121.106 84.986 121.124 85.2086C121.087 85.2096 121.049 85.2107 121.012 85.2107C120.649 85.2107 120.287 85.1489 119.947 85.0222C119.646 84.9093 119.324 84.7485 119.017 84.7485C118.914 84.7485 118.813 84.7666 118.715 84.8103C118.542 84.8869 118.411 85.0339 118.299 85.1873C117.728 85.9743 117.56 87.0382 117.862 87.9627C117.899 88.0766 117.944 88.1874 117.995 88.2949Z" fill="#FFAB6A"/>
<path d="M118.306 88.8104C118.186 88.7773 118.065 88.7497 117.949 88.706C117.463 88.5218 116.974 88.2129 116.758 87.6942C116.608 87.3364 116.61 86.9583 116.675 86.5717C116.743 86.5089 116.813 86.4471 116.885 86.3885C116.826 86.3939 116.766 86.4003 116.706 86.4067C116.801 85.954 116.966 85.4929 117.059 85.0435C117.097 84.8592 117.149 84.5216 117.209 84.102C117.23 84.0914 117.25 84.0807 117.27 84.0701C117.413 83.9891 117.542 83.8911 117.659 83.7814C117.607 84.1457 117.56 84.4715 117.519 84.7271C117.494 84.888 117.471 85.0211 117.45 85.1244C117.375 85.4812 117.266 85.823 117.18 86.1457C117.094 86.4684 117.031 86.7698 117.032 87.0329C117.032 87.2171 117.06 87.3822 117.126 87.5398C117.204 87.7262 117.331 87.8785 117.499 88.0116C117.642 88.1245 117.814 88.2193 117.996 88.2949C118.082 88.4759 118.187 88.6485 118.306 88.8104ZM121.125 85.2085C121.106 84.9859 121.088 84.7634 121.068 84.5429C121.141 84.5472 121.213 84.5493 121.286 84.5493C121.346 84.5493 121.407 84.5472 121.468 84.545C121.487 84.7527 121.505 84.9615 121.523 85.1702C121.391 85.1915 121.258 85.2043 121.125 85.2085Z" fill="#1D1B21"/>
<path d="M116.68 86.5718C116.689 86.5177 116.699 86.4626 116.711 86.4075C116.77 86.4011 116.83 86.3947 116.889 86.3894C116.818 86.4477 116.748 86.5092 116.68 86.5718Z" fill="#1B1317"/>
<path d="M117.391 82.8719C117.409 82.7441 117.427 82.6132 117.446 82.4832L117.593 82.5418C117.527 82.6589 117.46 82.7708 117.391 82.8719Z" fill="#316997"/>
<path d="M117.203 84.102C117.256 83.7388 117.315 83.3139 117.378 82.8719C117.447 82.7707 117.514 82.6589 117.58 82.5418L118.095 82.7462C118.144 82.825 118.196 82.9028 118.25 82.9795C118.122 83.2053 117.976 83.4332 117.788 83.643C117.745 83.6909 117.7 83.7367 117.652 83.7814C117.536 83.8911 117.407 83.9891 117.263 84.07C117.243 84.0807 117.223 84.0913 117.203 84.102Z" fill="#1D1B21"/>
<path d="M121.286 84.5492C121.213 84.5492 121.141 84.5471 121.068 84.5428C120.391 84.5034 119.721 84.2829 119.16 83.8846C118.806 83.6333 118.504 83.3255 118.257 82.9794C118.202 82.9027 118.151 82.825 118.102 82.7461L121.423 84.0635C121.439 84.2244 121.454 84.3841 121.468 84.5449C121.408 84.5471 121.347 84.5492 121.286 84.5492Z" fill="#1D1B21"/>
<path d="M132.407 116.143H122.073C121.532 116.143 121.094 115.704 121.094 115.163V100.279C121.094 99.7394 121.532 99.3006 122.073 99.3006H132.407C132.948 99.3006 133.386 99.7394 133.386 100.279V115.163C133.386 115.704 132.948 116.143 132.407 116.143Z" fill="#358FF0"/>
<path d="M132.4 116.142V115.742H122.066C121.905 115.742 121.762 115.678 121.656 115.573C121.55 115.466 121.486 115.325 121.486 115.163V100.279C121.486 100.118 121.55 99.9758 121.656 99.8693C121.762 99.7638 121.905 99.6999 122.066 99.6999H132.4C132.562 99.6999 132.704 99.7638 132.81 99.8693C132.916 99.9758 132.98 100.118 132.98 100.279V115.163C132.98 115.325 132.916 115.466 132.81 115.573C132.704 115.678 132.562 115.742 132.4 115.742V116.142V116.541C132.78 116.542 133.127 116.386 133.375 116.137C133.624 115.889 133.779 115.543 133.779 115.163V100.279C133.779 99.9001 133.624 99.553 133.375 99.3048C133.127 99.0556 132.78 98.9012 132.4 98.9012H122.066C121.687 98.9012 121.339 99.0556 121.091 99.3048C120.842 99.553 120.687 99.9001 120.688 100.279V115.163C120.687 115.543 120.842 115.889 121.091 116.137C121.339 116.386 121.687 116.542 122.066 116.541H132.4V116.142Z" fill="#1D1F2B"/>
<path d="M131.342 114.679H123.134C122.887 114.679 122.688 114.479 122.688 114.232V101.114C122.688 100.867 122.887 100.668 123.134 100.668H131.342C131.589 100.668 131.789 100.867 131.789 101.114V114.232C131.789 114.479 131.589 114.679 131.342 114.679Z" fill="white"/>
<path d="M131.336 114.679V114.28H123.127C123.113 114.28 123.104 114.274 123.094 114.266C123.085 114.256 123.08 114.247 123.08 114.232V101.114C123.08 101.099 123.085 101.091 123.094 101.08C123.104 101.072 123.113 101.067 123.127 101.066H131.336C131.35 101.067 131.359 101.072 131.369 101.08C131.378 101.091 131.383 101.099 131.383 101.114V114.232C131.383 114.247 131.378 114.256 131.369 114.266C131.359 114.274 131.35 114.28 131.336 114.28V114.679V115.079C131.568 115.079 131.782 114.983 131.934 114.83C132.086 114.679 132.182 114.465 132.181 114.232V101.114C132.182 100.882 132.086 100.668 131.934 100.516C131.782 100.363 131.568 100.268 131.336 100.268H123.127C122.895 100.268 122.681 100.363 122.529 100.516C122.376 100.668 122.281 100.882 122.281 101.114V114.232C122.281 114.465 122.376 114.678 122.529 114.83C122.681 114.983 122.895 115.079 123.127 115.079H131.336V114.679Z" fill="#1D1F2B"/>
<path d="M129.762 99.3006V101.285C129.762 101.369 129.744 101.447 129.71 101.52C129.61 101.741 129.351 101.921 129.032 101.919H125.435C125.223 101.919 125.036 101.841 124.906 101.721C124.841 101.662 124.791 101.594 124.757 101.52C124.723 101.447 124.705 101.369 124.705 101.285V99.3006H123.906V101.285C123.906 101.487 123.951 101.681 124.032 101.854C124.275 102.377 124.819 102.717 125.435 102.718H129.032C129.443 102.718 129.821 102.566 130.1 102.31C130.239 102.182 130.355 102.029 130.435 101.854C130.515 101.681 130.561 101.487 130.561 101.285V99.3006H129.762" fill="#1D1F2B"/>
<path d="M128.389 110.711C128.232 109.468 124.77 109.688 124.77 109.688C125.343 109.688 125.736 108.48 124.5 108.48C123.263 108.48 116.038 109.131 113.067 108.48C111.11 108.052 109.551 106.579 108.518 104.862C107.486 103.145 108.589 98.6914 109.878 97.1578C111.99 94.6465 113.374 92.0394 111.64 89.2534C106.042 91.8765 102.174 98.6627 103.151 104.314C103.464 106.124 104.125 107.911 105.315 109.309C106.808 111.064 108.995 112.148 111.247 112.629C115.417 113.519 128.611 112.458 128.389 110.711Z" fill="#FFC28A"/>
<path d="M128.375 110.711L128.771 110.661C128.749 110.478 128.677 110.308 128.576 110.169C128.488 110.047 128.38 109.947 128.263 109.863C128.058 109.716 127.823 109.616 127.575 109.538C127.202 109.422 126.794 109.358 126.403 109.32C126.012 109.283 125.638 109.273 125.343 109.273C124.98 109.273 124.737 109.288 124.73 109.289C124.515 109.303 124.35 109.484 124.357 109.7C124.364 109.915 124.54 110.087 124.756 110.087C124.903 110.087 125.04 110.046 125.156 109.984C125.33 109.889 125.459 109.749 125.551 109.591C125.643 109.432 125.698 109.25 125.699 109.054C125.699 108.931 125.676 108.802 125.622 108.68C125.582 108.587 125.523 108.5 125.45 108.423C125.339 108.307 125.195 108.219 125.033 108.163C124.87 108.107 124.688 108.08 124.485 108.08C124.371 108.08 124.223 108.085 124.04 108.093C123.401 108.121 122.336 108.19 121.088 108.252C119.841 108.315 118.413 108.369 117.062 108.369C116.29 108.369 115.543 108.351 114.871 108.307C114.2 108.263 113.602 108.191 113.138 108.09C112.232 107.891 111.41 107.45 110.687 106.847C109.964 106.245 109.342 105.482 108.846 104.656C108.734 104.47 108.644 104.222 108.584 103.928C108.525 103.634 108.495 103.294 108.495 102.928C108.495 101.971 108.696 100.835 109.012 99.8181C109.169 99.3091 109.354 98.8298 109.554 98.4166C109.752 98.0023 109.966 97.6551 110.169 97.4155C110.902 96.5433 111.556 95.6529 112.033 94.7285C112.51 93.8062 112.81 92.8445 112.81 91.8466C112.811 90.9233 112.549 89.9786 111.965 89.0425C111.858 88.8699 111.639 88.806 111.456 88.8912C108.87 90.1043 106.66 92.1651 105.09 94.5901C103.52 97.0161 102.587 99.8107 102.586 102.515C102.586 103.144 102.637 103.768 102.743 104.382C103.064 106.24 103.744 108.095 104.997 109.568C105.779 110.487 106.739 111.226 107.792 111.797C108.844 112.368 109.989 112.771 111.149 113.019C111.695 113.136 112.366 113.217 113.13 113.27C113.894 113.324 114.751 113.35 115.66 113.35C118.384 113.349 121.575 113.122 124.106 112.731C125.372 112.534 126.471 112.299 127.281 112.019C127.687 111.878 128.021 111.729 128.283 111.546C128.413 111.453 128.528 111.351 128.62 111.222C128.666 111.158 128.705 111.087 128.733 111.007C128.761 110.928 128.777 110.842 128.777 110.755C128.777 110.724 128.775 110.693 128.771 110.662L128.771 110.661L128.375 110.711L127.979 110.76L128.022 110.755H127.978L127.979 110.76L128.022 110.755H127.978H128.018L127.98 110.741L127.978 110.755H128.018L127.98 110.741C127.98 110.741 127.978 110.747 127.969 110.76C127.953 110.783 127.911 110.828 127.841 110.879C127.709 110.977 127.483 111.093 127.187 111.204C126.668 111.4 125.938 111.587 125.079 111.753C123.79 112.001 122.207 112.201 120.562 112.338C118.916 112.476 117.207 112.551 115.66 112.551C114.766 112.551 113.926 112.526 113.186 112.474C112.446 112.422 111.805 112.343 111.316 112.238C110.224 112.005 109.15 111.625 108.173 111.095C107.195 110.565 106.315 109.885 105.605 109.051C104.476 107.726 103.834 106.007 103.53 104.246C103.432 103.68 103.385 103.102 103.385 102.515C103.384 99.996 104.263 97.3356 105.76 95.0235C107.256 92.7114 109.367 90.7518 111.795 89.6154L111.626 89.2533L111.286 89.4642C111.8 90.2907 112.01 91.0734 112.011 91.8466C112.011 92.6816 111.76 93.5176 111.323 94.3621C110.888 95.2067 110.269 96.0555 109.558 96.9011C109.294 97.2153 109.054 97.6136 108.834 98.0694C108.505 98.7531 108.223 99.5689 108.021 100.412C107.819 101.257 107.697 102.128 107.697 102.928C107.697 103.336 107.729 103.726 107.801 104.087C107.875 104.447 107.988 104.779 108.162 105.068C108.698 105.959 109.372 106.79 110.176 107.461C110.979 108.13 111.916 108.64 112.967 108.87C113.493 108.985 114.122 109.058 114.819 109.104C115.515 109.15 116.278 109.168 117.062 109.168C118.631 109.168 120.286 109.095 121.653 109.023C122.336 108.987 122.947 108.951 123.437 108.924C123.682 108.91 123.897 108.898 124.075 108.891C124.252 108.883 124.393 108.879 124.485 108.879C124.603 108.879 124.691 108.893 124.751 108.911C124.796 108.925 124.826 108.94 124.845 108.953C124.874 108.972 124.882 108.985 124.889 108.997C124.895 109.01 124.9 109.027 124.9 109.054C124.9 109.078 124.895 109.11 124.882 109.143C124.865 109.192 124.83 109.239 124.801 109.264C124.786 109.275 124.774 109.282 124.767 109.285L124.756 109.288V109.687L124.781 110.086H124.783C124.804 110.085 125.024 110.072 125.343 110.072C125.584 110.072 125.881 110.079 126.189 110.104C126.419 110.122 126.657 110.15 126.88 110.191C127.214 110.251 127.518 110.345 127.711 110.457C127.808 110.512 127.876 110.569 127.915 110.619C127.955 110.67 127.971 110.709 127.979 110.761L127.979 110.76L128.375 110.711Z" fill="#1D1F2B"/>
<path d="M115.666 112.551C114.772 112.551 113.932 112.526 113.192 112.474C112.452 112.423 111.811 112.343 111.322 112.238C110.23 112.005 109.156 111.625 108.178 111.096C107.201 110.565 106.321 109.885 105.611 109.051C104.482 107.726 103.84 106.007 103.536 104.247C103.438 103.68 103.391 103.102 103.391 102.515C103.39 101.28 103.601 100.013 103.993 98.7682C104.622 98.9758 105.374 99.2517 106.092 99.5254C106.83 99.8076 107.533 100.087 108.034 100.289C108.041 100.292 108.048 100.294 108.055 100.297C108.045 100.336 108.036 100.374 108.027 100.413C107.938 100.785 107.864 101.162 107.81 101.537C107.204 101.348 106.612 101.095 106.059 100.814C105.771 100.667 105.529 100.603 105.325 100.603C104.375 100.603 104.276 102.006 104.377 103.006C104.562 104.831 105.082 106.481 106.225 107.879C107.659 109.633 109.759 110.717 111.922 111.199C112.916 111.419 114.442 111.52 116.172 111.52C120.015 111.52 124.866 111.023 127.122 110.24C127.361 110.298 127.571 110.372 127.717 110.458C127.814 110.512 127.882 110.569 127.921 110.619C127.958 110.666 127.974 110.701 127.983 110.747C127.981 110.75 127.978 110.755 127.975 110.76C127.959 110.783 127.917 110.828 127.847 110.879C127.715 110.977 127.488 111.093 127.193 111.204C126.674 111.4 125.944 111.588 125.085 111.753C123.796 112.001 122.213 112.201 120.568 112.338C118.922 112.476 117.213 112.551 115.666 112.551Z" fill="#FFAB6A"/>
<path d="M115.673 112.951C113.871 112.951 112.28 112.85 111.246 112.629C108.994 112.148 106.807 111.063 105.314 109.309C104.123 107.911 103.462 106.124 103.15 104.314C102.876 102.733 102.987 101.064 103.404 99.422L103.4 99.4199C103.413 99.3698 103.43 99.3197 103.443 99.2697C103.484 99.1163 103.527 98.964 103.573 98.8117C103.594 98.7414 103.615 98.6712 103.637 98.6019C103.73 98.6626 103.833 98.7138 103.944 98.75C103.963 98.7553 103.981 98.7617 104 98.7681C103.608 100.013 103.397 101.28 103.398 102.515C103.398 103.102 103.445 103.68 103.543 104.246C103.847 106.007 104.489 107.726 105.618 109.051C106.328 109.885 107.208 110.565 108.186 111.095C109.163 111.625 110.237 112.005 111.329 112.238C111.818 112.343 112.46 112.422 113.199 112.474C113.939 112.526 114.779 112.551 115.673 112.551C117.22 112.551 118.929 112.476 120.575 112.338C122.22 112.201 123.803 112.001 125.092 111.753C125.951 111.587 126.681 111.4 127.2 111.204C127.496 111.093 127.722 110.977 127.854 110.879C127.924 110.828 127.966 110.783 127.982 110.76C127.986 110.755 127.988 110.75 127.99 110.747C127.981 110.701 127.965 110.666 127.928 110.619C127.889 110.569 127.821 110.512 127.724 110.458C127.578 110.372 127.368 110.298 127.13 110.24C127.346 110.166 127.539 110.088 127.705 110.007C128.077 110.163 128.347 110.386 128.388 110.711L127.992 110.76L128.388 110.711C128.555 112.024 121.137 112.951 115.673 112.951ZM108.207 101.65C108.077 101.616 107.947 101.578 107.817 101.537C107.871 101.162 107.945 100.785 108.034 100.412C108.043 100.374 108.053 100.336 108.062 100.297C108.192 100.347 108.326 100.374 108.459 100.382C108.353 100.801 108.266 101.228 108.207 101.65Z" fill="#1D1B21"/>
<path d="M109.971 88.3471C109.971 88.3471 105.873 91.0831 103.507 97.1941C103.321 97.6723 103.571 98.2101 104.059 98.3698C105.362 98.7958 107.177 99.5137 108.181 99.9184C108.606 100.09 109.087 99.913 109.3 99.5073C110.056 98.0631 111.736 94.8298 112.275 93.5624C113.108 91.6039 113.589 86.788 109.971 88.3471Z" fill="#FF5757"/>
<path d="M109.98 88.3471L109.758 88.0148C109.737 88.0287 108.687 88.7327 107.34 90.2098C105.993 91.687 104.347 93.9405 103.143 97.0492C103.083 97.2037 103.055 97.3634 103.055 97.52C103.055 97.7915 103.139 98.0525 103.293 98.2697C103.446 98.487 103.671 98.6606 103.944 98.75C104.585 98.9588 105.36 99.2431 106.099 99.5254C106.837 99.8076 107.54 100.087 108.04 100.289C108.197 100.353 108.362 100.383 108.523 100.383C108.756 100.383 108.984 100.319 109.182 100.202C109.38 100.083 109.549 99.9088 109.662 99.6926H109.662C110.041 98.9694 110.651 97.799 111.234 96.6488C111.526 96.0737 111.811 95.5039 112.057 94.997C112.304 94.4901 112.512 94.047 112.652 93.7179C112.826 93.3079 112.979 92.801 113.092 92.2525C113.204 91.7029 113.275 91.114 113.275 90.5421C113.275 90.1885 113.248 89.8413 113.184 89.5133C113.136 89.2662 113.067 89.0309 112.971 88.8115C112.827 88.4824 112.617 88.1852 112.321 87.9722C112.173 87.8657 112.006 87.7816 111.823 87.7262C111.64 87.6698 111.443 87.6421 111.235 87.6421C110.813 87.6421 110.347 87.7539 109.821 87.9808C109.8 87.9893 109.777 88.0021 109.758 88.0148L109.98 88.3471L110.138 88.7135C110.593 88.5165 110.958 88.4398 111.235 88.4408C111.479 88.4419 111.655 88.4962 111.8 88.5846C111.909 88.6517 112.003 88.7422 112.088 88.8594C112.214 89.0362 112.314 89.2779 112.38 89.5676C112.445 89.8562 112.476 90.1906 112.476 90.5421C112.476 91.048 112.412 91.589 112.309 92.0917C112.207 92.5943 112.064 93.0587 111.916 93.4059C111.787 93.7105 111.582 94.1471 111.339 94.6477C110.607 96.1514 109.521 98.241 108.955 99.322L108.955 99.3209C108.91 99.4061 108.847 99.47 108.772 99.5158C108.697 99.5605 108.611 99.5839 108.523 99.5839C108.462 99.5839 108.401 99.5733 108.339 99.5477C107.836 99.3454 107.129 99.0632 106.383 98.7788C105.638 98.4944 104.854 98.2069 104.192 97.9907C104.086 97.9556 104.004 97.8917 103.945 97.8086C103.886 97.7255 103.853 97.6233 103.853 97.52C103.853 97.4603 103.864 97.3986 103.888 97.3379C105.05 94.3367 106.637 92.1662 107.93 90.7476C108.577 90.0394 109.15 89.5186 109.558 89.1768C109.763 89.0053 109.926 88.8796 110.037 88.7966C110.093 88.7561 110.135 88.7252 110.163 88.706C110.177 88.6965 110.187 88.689 110.194 88.6847L110.2 88.6794H110.202L110.137 88.5836L110.201 88.6794H110.202L110.137 88.5836L110.201 88.6794L109.98 88.3471L110.138 88.7135L109.98 88.3471Z" fill="#1D1F2B"/>
<path d="M106.062 98.6606C105.413 98.4156 104.753 98.1771 104.183 97.9907C104.077 97.9555 103.995 97.8917 103.936 97.8086C103.877 97.7255 103.844 97.6233 103.844 97.52C103.844 97.4603 103.855 97.3986 103.878 97.3379C105.04 94.3367 106.627 92.1662 107.92 90.7476C108.567 90.0394 109.14 89.5186 109.549 89.1768C109.753 89.0053 109.917 88.8796 110.027 88.7966C110.083 88.7561 110.125 88.7252 110.153 88.706C110.157 88.7028 110.16 88.7007 110.163 88.6986C110.601 88.5133 110.953 88.4408 111.222 88.4408C111.223 88.4408 111.224 88.4408 111.225 88.4408C111.468 88.4419 111.642 88.4951 111.787 88.5825C111.786 88.5835 111.784 88.5846 111.783 88.5857C110.592 89.5112 109.805 90.8477 109.046 92.1513C108.197 93.6072 107.346 95.0705 106.716 96.635C106.452 97.2921 106.227 97.9705 106.062 98.6606Z" fill="#F33D3D"/>
<path d="M105.975 99.0556C105.312 98.8043 104.636 98.5582 104.059 98.3697C103.571 98.21 103.321 97.6722 103.507 97.194C105.873 91.083 109.971 88.347 109.971 88.347C110.461 88.1351 110.876 88.0414 111.225 88.0414C111.603 88.0414 111.903 88.1511 112.138 88.3428C112.02 88.4205 111.9 88.4951 111.788 88.5824C111.643 88.4951 111.469 88.4418 111.226 88.4407C111.225 88.4407 111.224 88.4407 111.223 88.4407C110.954 88.4407 110.602 88.5132 110.164 88.6985C110.161 88.7006 110.158 88.7027 110.154 88.7059C110.126 88.7251 110.084 88.756 110.028 88.7965C109.917 88.8795 109.754 89.0052 109.55 89.1767C109.141 89.5185 108.568 90.0393 107.921 90.7475C106.628 92.1661 105.041 94.3366 103.879 97.3378C103.855 97.3985 103.845 97.4602 103.845 97.5199C103.844 97.6232 103.878 97.7254 103.936 97.8085C103.996 97.8916 104.078 97.9555 104.184 97.9906C104.754 98.177 105.414 98.4155 106.063 98.6605C106.031 98.7915 106.002 98.9235 105.975 99.0556Z" fill="#1B161E"/>
<rect y="168" width="329" height="45" fill="#F9C7AC"/>
</svg>
