<svg xmlns="http://www.w3.org/2000/svg" fill="none" viewBox="0 0 370 211">
<circle cx="209.5" cy="105.5" r="78.5" fill="white"/>
<path d="M0 12C0 5.37258 5.37258 0 12 0H358C364.627 0 370 5.37258 370 12V211H0V12Z" fill="#099AED"/>
<path d="M0 12C0 5.37259 5.37258 0 12 0H358C364.627 0 370 5.37258 370 12V139H0V12Z" fill="#08A0F7"/>
<path d="M304 192C304 160.439 291.463 130.171 269.146 107.854C246.829 85.5375 216.561 73 185 73C153.439 73 123.171 85.5375 100.854 107.854C78.5375 130.171 66 160.439 66 192L185 192H304Z" fill="white"/>
<path d="M184.526 203.023C111.343 203.023 52.0173 198.066 52.0173 191.951C52.0173 189.657 60.3698 187.525 74.6702 185.757C79.5048 189.271 84.854 191.221 90.4791 191.221H104.62H251.13H295.899C299.402 191.221 302.712 189.864 305.645 187.454C312.968 188.827 317.035 190.349 317.035 191.951C317.035 198.066 257.708 203.023 184.526 203.023Z" fill="url(#paint0_linear_17739_161509)"/>
<g filter="url(#filter0_d_17739_161509)">
<mask id="path-6-inside-1_17739_161509" fill="white">
<path d="M84.1394 183.885C84.5546 183.582 85.3971 183.945 88.1342 182.805C92.1266 181.142 93.6856 172.55 93.6856 172.55C87.6106 171.788 87.995 180.543 85.6438 182.04C84.583 182.715 84.0838 183.37 83.8545 183.885H84.1394Z"/>
</mask>
<path d="M84.1394 183.885C84.5546 183.582 85.3971 183.945 88.1342 182.805C92.1266 181.142 93.6856 172.55 93.6856 172.55C87.6106 171.788 87.995 180.543 85.6438 182.04C84.583 182.715 84.0838 183.37 83.8545 183.885H84.1394Z" fill="#66E8C4"/>
<path d="M88.1342 182.805L88.0451 182.591L88.0451 182.591L88.1342 182.805ZM93.6856 172.55L93.7144 172.32L93.9573 172.35L93.9136 172.591L93.6856 172.55ZM85.6438 182.04L85.7683 182.235L85.7683 182.235L85.6438 182.04ZM83.8545 183.885V184.116H83.4975L83.6428 183.79L83.8545 183.885ZM84.0028 183.697C84.1551 183.586 84.3342 183.546 84.5203 183.519C84.6149 183.505 84.7222 183.493 84.8376 183.48C84.9547 183.467 85.0847 183.451 85.2321 183.429C85.8176 183.343 86.694 183.154 88.0451 182.591L88.2233 183.019C86.8373 183.596 85.9239 183.795 85.3001 183.888C85.1451 183.911 85.0091 183.927 84.8906 183.941C84.7705 183.955 84.6729 183.965 84.5874 183.978C84.4132 184.003 84.3313 184.031 84.276 184.072L84.0028 183.697ZM88.0451 182.591C88.9846 182.199 89.7992 181.392 90.4943 180.371C91.1878 179.352 91.7494 178.14 92.1902 176.972C92.6306 175.805 92.9477 174.688 93.1548 173.862C93.2583 173.449 93.3342 173.11 93.3841 172.874C93.409 172.757 93.4275 172.665 93.4397 172.602C93.4458 172.571 93.4503 172.548 93.4532 172.532C93.4547 172.524 93.4558 172.518 93.4566 172.514C93.4569 172.512 93.4572 172.511 93.4573 172.51C93.4574 172.509 93.4575 172.509 93.4575 172.509C93.4575 172.509 93.4576 172.509 93.4576 172.509C93.4576 172.509 93.4576 172.509 93.6856 172.55C93.9136 172.591 93.9136 172.591 93.9136 172.592C93.9136 172.592 93.9136 172.592 93.9135 172.592C93.9135 172.592 93.9134 172.593 93.9133 172.593C93.9131 172.594 93.9128 172.596 93.9124 172.598C93.9115 172.603 93.9103 172.609 93.9088 172.618C93.9056 172.634 93.9009 172.659 93.8946 172.691C93.882 172.756 93.863 172.85 93.8375 172.97C93.7866 173.211 93.7095 173.556 93.6044 173.975C93.3944 174.812 93.0723 175.947 92.6239 177.136C92.1759 178.323 91.5991 179.571 90.8775 180.631C90.1574 181.689 89.28 182.579 88.2233 183.019L88.0451 182.591ZM93.6568 172.78C92.2007 172.597 91.1517 172.984 90.3481 173.676C89.5341 174.378 88.9561 175.408 88.482 176.537C88.2456 177.101 88.0374 177.683 87.8386 178.254C87.6406 178.824 87.4509 179.387 87.2544 179.901C87.058 180.415 86.8509 180.891 86.6145 181.289C86.3788 181.686 86.1051 182.021 85.7683 182.235L85.5194 181.844C85.7704 181.684 85.9989 181.418 86.216 181.053C86.4323 180.688 86.6284 180.241 86.8215 179.736C87.0146 179.23 87.2006 178.678 87.4008 178.102C87.6001 177.529 87.8123 176.935 88.0546 176.358C88.5375 175.207 89.1494 174.098 90.0455 173.325C90.9519 172.544 92.133 172.122 93.7144 172.32L93.6568 172.78ZM85.7683 182.235C84.7374 182.891 84.2733 183.514 84.0662 183.979L83.6428 183.79C83.8943 183.226 84.4287 182.538 85.5194 181.844L85.7683 182.235ZM83.8545 183.653H84.1394V184.116H83.8545V183.653Z" fill="black" mask="url(#path-6-inside-1_17739_161509)"/>
<path d="M86.64 182.713L86.6399 182.713C86.113 182.967 85.6967 183.245 85.3642 183.526C85.9577 183.43 86.8152 183.229 88.0901 182.698L88.0901 182.698C89.0589 182.295 89.8892 181.466 90.5906 180.436C91.2911 179.407 91.8565 178.187 92.2991 177.013C92.7415 175.841 93.0599 174.719 93.2677 173.891C93.3716 173.477 93.4477 173.136 93.4979 172.899C93.5095 172.844 93.5196 172.795 93.5285 172.752C93.4673 172.795 93.3894 172.86 93.2949 172.956C92.9921 173.265 92.5274 173.892 91.9056 175.16C91.7388 175.5 91.5674 175.863 91.3896 176.24C90.9053 177.265 90.3737 178.391 89.7601 179.424C88.9215 180.836 87.9162 182.099 86.64 182.713Z" fill="#10673E" stroke="black" stroke-width="0.23176"/>
<mask id="path-9-inside-2_17739_161509" fill="white">
<path d="M81.5773 183.885H82.2354C82.6635 182.974 82.8009 181.264 81.37 178.125C78.7222 172.314 77.3859 164.777 79.2311 162.56C79.2311 162.56 72.9123 167.063 74.349 171.748C75.6974 176.145 82.4861 179.075 81.5773 183.885Z"/>
</mask>
<path d="M81.5773 183.885H82.2354C82.6635 182.974 82.8009 181.264 81.37 178.125C78.7222 172.314 77.3859 164.777 79.2311 162.56C79.2311 162.56 72.9123 167.063 74.349 171.748C75.6974 176.145 82.4861 179.075 81.5773 183.885Z" fill="#35BFE6"/>
<path d="M82.2354 183.885L82.4451 183.983L82.3825 184.116H82.2354V183.885ZM81.37 178.125L81.1591 178.221L81.1591 178.221L81.37 178.125ZM79.2311 162.56L79.0966 162.371L79.4093 162.708L79.2311 162.56ZM74.349 171.748L74.5706 171.68L74.5706 171.68L74.349 171.748ZM81.5773 183.653H82.2354V184.116H81.5773V183.653ZM82.0256 183.786C82.4115 182.966 82.5779 181.334 81.1591 178.221L81.5809 178.028C83.0238 181.194 82.9155 182.983 82.4451 183.983L82.0256 183.786ZM81.1591 178.221C79.8268 175.297 78.8243 171.939 78.3865 169.029C78.1676 167.574 78.0887 166.223 78.1836 165.09C78.2778 163.965 78.5461 163.02 79.053 162.411L79.4093 162.708C78.9935 163.207 78.7369 164.036 78.6455 165.129C78.5546 166.215 78.6293 167.527 78.8448 168.96C79.2759 171.825 80.2654 175.141 81.5809 178.028L81.1591 178.221ZM79.2311 162.56C79.3657 162.748 79.3657 162.748 79.3657 162.748C79.3657 162.748 79.3656 162.748 79.3656 162.748C79.3655 162.748 79.3653 162.749 79.3649 162.749C79.3643 162.749 79.3633 162.75 79.362 162.751C79.3592 162.753 79.355 162.756 79.3494 162.76C79.3381 162.768 79.3211 162.781 79.2988 162.797C79.2541 162.83 79.1883 162.88 79.1048 162.945C78.9377 163.075 78.6997 163.267 78.4183 163.511C77.8549 164.001 77.1201 164.701 76.4307 165.544C75.0411 167.242 73.8884 169.456 74.5706 171.68L74.1275 171.816C73.373 169.356 74.6612 166.975 76.0719 165.25C76.7827 164.381 77.5377 163.663 78.1142 163.162C78.4028 162.911 78.6472 162.714 78.8201 162.579C78.9065 162.512 78.9751 162.46 79.0223 162.425C79.0459 162.408 79.0642 162.394 79.0767 162.385C79.083 162.381 79.0878 162.377 79.0912 162.375C79.0928 162.374 79.0941 162.373 79.095 162.372C79.0955 162.372 79.0958 162.371 79.0961 162.371C79.0962 162.371 79.0964 162.371 79.0964 162.371C79.0965 162.371 79.0966 162.371 79.2311 162.56ZM74.5706 171.68C74.8944 172.736 75.5488 173.716 76.3527 174.674C77.1599 175.637 78.0928 176.551 78.9793 177.504C80.7262 179.381 82.2833 181.397 81.805 183.928L81.3496 183.841C81.7802 181.563 80.3973 179.708 78.6399 177.819C77.7743 176.889 76.8141 175.946 75.9975 174.972C75.1777 173.994 74.4779 172.959 74.1275 171.816L74.5706 171.68Z" fill="black" mask="url(#path-9-inside-2_17739_161509)"/>
<mask id="path-11-inside-3_17739_161509" fill="white">
<path d="M81.8452 183.885H82.236C82.664 182.974 82.8012 181.264 81.3701 178.125C78.7223 172.314 77.386 164.777 79.2313 162.56C79.2313 162.56 75.0605 167.198 76.6431 171.638C78.2054 176.023 83.0195 178.307 81.8452 183.885Z"/>
</mask>
<path d="M81.8452 183.885H82.236C82.664 182.974 82.8012 181.264 81.3701 178.125C78.7223 172.314 77.386 164.777 79.2313 162.56C79.2313 162.56 75.0605 167.198 76.6431 171.638C78.2054 176.023 83.0195 178.307 81.8452 183.885Z" fill="#10673E"/>
<path d="M82.236 183.885L82.4457 183.983L82.3831 184.116H82.236V183.885ZM81.3701 178.125L81.1592 178.221L81.1592 178.221L81.3701 178.125ZM79.2313 162.56L79.0589 162.405L79.4094 162.708L79.2313 162.56ZM76.6431 171.638L76.8615 171.561L76.8615 171.561L76.6431 171.638ZM81.8452 183.653H82.236V184.116H81.8452V183.653ZM82.0262 183.786C82.412 182.966 82.5782 181.334 81.1592 178.221L81.581 178.028C83.0241 181.194 82.9159 182.983 82.4457 183.983L82.0262 183.786ZM81.1592 178.221C79.8269 175.297 78.8244 171.939 78.3866 169.029C78.1678 167.574 78.0889 166.223 78.1837 165.09C78.2779 163.965 78.5463 163.02 79.0531 162.411L79.4094 162.708C78.9937 163.207 78.7371 164.036 78.6456 165.129C78.5548 166.215 78.6294 167.527 78.845 168.96C79.276 171.825 80.2656 175.141 81.581 178.028L81.1592 178.221ZM79.2313 162.56C79.4036 162.715 79.4037 162.714 79.4037 162.714C79.4037 162.714 79.4037 162.714 79.4036 162.714C79.4036 162.715 79.4034 162.715 79.4033 162.715C79.4029 162.715 79.4023 162.716 79.4014 162.717C79.3997 162.719 79.397 162.722 79.3933 162.726C79.3861 162.734 79.375 162.747 79.3605 162.764C79.3315 162.798 79.2887 162.848 79.2345 162.914C79.126 163.047 78.9721 163.242 78.7918 163.49C78.4311 163.986 77.9668 164.694 77.5516 165.536C76.7179 167.228 76.1011 169.427 76.8615 171.561L76.4248 171.716C75.6026 169.409 76.2798 167.069 77.1358 165.331C77.5655 164.459 78.045 163.729 78.4168 163.217C78.6029 162.961 78.7624 162.759 78.8758 162.621C78.9326 162.551 78.9778 162.498 79.0091 162.462C79.0248 162.443 79.037 162.429 79.0454 162.42C79.0496 162.415 79.0528 162.411 79.0551 162.409C79.0563 162.408 79.0571 162.407 79.0578 162.406C79.0581 162.406 79.0584 162.405 79.0586 162.405C79.0587 162.405 79.0588 162.405 79.0588 162.405C79.0589 162.405 79.0589 162.405 79.2313 162.56ZM76.8615 171.561C77.2417 172.628 77.8217 173.573 78.469 174.483C78.7929 174.938 79.1315 175.382 79.47 175.829C79.8077 176.275 80.1449 176.724 80.4612 177.183C81.7314 179.025 82.6775 181.056 82.072 183.932L81.6184 183.837C82.1872 181.135 81.3134 179.236 80.0795 177.446C79.7698 176.996 79.4383 176.555 79.1005 176.109C78.7636 175.664 78.4201 175.214 78.0913 174.752C77.4333 173.826 76.8257 172.841 76.4248 171.716L76.8615 171.561Z" fill="black" mask="url(#path-11-inside-3_17739_161509)"/>
<mask id="path-13-inside-4_17739_161509" fill="white">
<path d="M75.3376 181.428C77.7424 182.407 78.7712 183.059 79.4418 183.885H80.2859C79.6549 181.976 79.2785 179.935 77.7972 178.393C76.1154 176.641 69.6337 173.757 69.4112 173.423C69.1886 173.088 72.0896 180.105 75.3376 181.428Z"/>
</mask>
<path d="M75.3376 181.428C77.7424 182.407 78.7712 183.059 79.4418 183.885H80.2859C79.6549 181.976 79.2785 179.935 77.7972 178.393C76.1154 176.641 69.6337 173.757 69.4112 173.423C69.1886 173.088 72.0896 180.105 75.3376 181.428Z" fill="#34A770"/>
<path d="M79.4418 183.885V184.116H79.3315L79.2619 184.031L79.4418 183.885ZM80.2859 183.885L80.5059 183.812L80.6066 184.116H80.2859V183.885ZM77.7972 178.393L77.6301 178.554L77.63 178.554L77.7972 178.393ZM69.4112 173.423L69.2184 173.551L69.2182 173.551L69.4112 173.423ZM75.4251 181.213C77.8334 182.194 78.9112 182.864 79.6216 183.738L79.2619 184.031C78.6312 183.255 77.6513 182.621 75.2502 181.643L75.4251 181.213ZM79.4418 183.653H80.2859V184.116H79.4418V183.653ZM80.0658 183.957C79.7422 182.979 79.5009 182.023 79.1438 181.084C78.7918 180.159 78.3413 179.294 77.6301 178.554L77.9644 178.233C78.7344 179.034 79.2127 179.961 79.577 180.919C79.9361 181.863 80.1985 182.882 80.5059 183.812L80.0658 183.957ZM77.63 178.554C77.2316 178.139 76.5333 177.643 75.6872 177.122C74.8459 176.604 73.8763 176.071 72.9487 175.581C72.0202 175.091 71.1406 174.646 70.4723 174.3C70.1396 174.127 69.8582 173.979 69.6523 173.862C69.5497 173.804 69.4623 173.752 69.3954 173.708C69.3621 173.685 69.3308 173.663 69.304 173.641C69.2814 173.623 69.2455 173.592 69.2184 173.551L69.6041 173.294C69.5908 173.274 69.5811 173.269 69.5962 173.282C69.6071 173.29 69.625 173.304 69.6517 173.321C69.7051 173.357 69.7815 173.403 69.8806 173.459C70.0784 173.571 70.353 173.716 70.6855 173.888C71.3476 174.231 72.2353 174.68 73.1652 175.171C74.0961 175.663 75.0762 176.201 75.9302 176.727C76.7793 177.25 77.5219 177.772 77.9644 178.233L77.63 178.554ZM69.2182 173.551C69.2186 173.552 69.2208 173.555 69.2244 173.56C69.227 173.563 69.2363 173.575 69.2515 173.588C69.2592 173.594 69.2737 173.606 69.2946 173.617C69.3139 173.627 69.3538 173.644 69.4073 173.643C69.4693 173.641 69.527 173.615 69.5684 173.571C69.604 173.533 69.6177 173.493 69.6232 173.473C69.6336 173.435 69.6307 173.404 69.6303 173.398C69.6295 173.388 69.6281 173.38 69.6276 173.378C69.6266 173.373 69.6261 173.372 69.6277 173.378C69.6343 173.4 69.6522 173.45 69.6842 173.531C69.7465 173.688 69.8525 173.936 69.997 174.249C70.2858 174.875 70.7256 175.755 71.2727 176.686C71.8204 177.618 72.4725 178.596 73.1854 179.42C73.9012 180.248 74.6627 180.903 75.425 181.213L75.2502 181.643C74.3885 181.292 73.5694 180.573 72.8348 179.724C72.0971 178.871 71.4289 177.867 70.8731 176.921C70.3168 175.974 69.8701 175.08 69.5761 174.443C69.4292 174.125 69.3197 173.869 69.2533 173.702C69.2209 173.62 69.1961 173.553 69.1831 173.508C69.1798 173.497 69.1758 173.483 69.1728 173.468C69.1714 173.46 69.1693 173.449 69.1682 173.435C69.1675 173.426 69.1648 173.392 69.1757 173.352C69.1814 173.331 69.1954 173.291 69.2314 173.253C69.2732 173.208 69.3314 173.181 69.3941 173.18C69.4482 173.178 69.4887 173.196 69.5089 173.206C69.5305 173.217 69.546 173.23 69.5546 173.237C69.5829 173.262 69.6007 173.289 69.6043 173.295L69.2182 173.551Z" fill="black" mask="url(#path-13-inside-4_17739_161509)"/>
<mask id="path-15-inside-5_17739_161509" fill="white">
<path d="M79.5438 183.345C79.594 183.498 79.6674 183.684 79.7546 183.885H80.2859C79.6548 181.976 79.2784 179.935 77.7971 178.393C76.1153 176.641 69.6336 173.757 69.4111 173.423C69.4111 173.423 72.5569 177.367 76.056 179.171C78.5612 180.462 79.2241 182.37 79.5438 183.345Z"/>
</mask>
<path d="M79.5438 183.345C79.594 183.498 79.6674 183.684 79.7546 183.885H80.2859C79.6548 181.976 79.2784 179.935 77.7971 178.393C76.1153 176.641 69.6336 173.757 69.4111 173.423C69.4111 173.423 72.5569 177.367 76.056 179.171C78.5612 180.462 79.2241 182.37 79.5438 183.345Z" fill="#0FA1B8"/>
<path d="M79.7546 183.885V184.116H79.6025L79.5419 183.977L79.7546 183.885ZM80.2859 183.885L80.5059 183.812L80.6067 184.116H80.2859V183.885ZM77.7971 178.393L77.63 178.554L77.6299 178.554L77.7971 178.393ZM69.4111 173.423L69.2183 173.551L69.5923 173.278L69.4111 173.423ZM76.056 179.171L76.1621 178.965L76.1622 178.965L76.056 179.171ZM79.764 183.273C79.8111 183.416 79.8814 183.595 79.9672 183.792L79.5419 183.977C79.4534 183.773 79.3769 183.58 79.3236 183.418L79.764 183.273ZM79.7546 183.653H80.2859V184.116H79.7546V183.653ZM80.0659 183.957C79.7422 182.979 79.5009 182.023 79.1437 181.084C78.7917 180.159 78.3412 179.294 77.63 178.554L77.9643 178.233C78.7343 179.034 79.2126 179.961 79.5769 180.919C79.936 181.863 80.1985 182.882 80.5059 183.812L80.0659 183.957ZM77.6299 178.554C77.2315 178.139 76.5332 177.643 75.6871 177.122C74.8458 176.604 73.8762 176.071 72.9486 175.581C72.0201 175.091 71.1405 174.646 70.4722 174.3C70.1395 174.127 69.8581 173.979 69.6522 173.862C69.5496 173.804 69.4622 173.752 69.3953 173.708C69.362 173.685 69.3307 173.663 69.3039 173.641C69.2813 173.623 69.2454 173.592 69.2183 173.551L69.604 173.294C69.5907 173.274 69.581 173.269 69.5961 173.282C69.607 173.29 69.6248 173.304 69.6516 173.321C69.705 173.357 69.7814 173.403 69.8805 173.459C70.0783 173.571 70.3529 173.716 70.6854 173.888C71.3475 174.231 72.2352 174.68 73.1651 175.171C74.096 175.663 75.0761 176.201 75.9301 176.727C76.7792 177.25 77.5218 177.772 77.9643 178.233L77.6299 178.554ZM69.4111 173.423C69.5923 173.278 69.5923 173.278 69.5923 173.278C69.5923 173.278 69.5923 173.278 69.5924 173.278C69.5924 173.279 69.5926 173.279 69.5927 173.279C69.593 173.279 69.5936 173.28 69.5943 173.281C69.5957 173.283 69.5978 173.285 69.6007 173.289C69.6065 173.296 69.6153 173.307 69.627 173.321C69.6504 173.35 69.6853 173.393 69.7311 173.448C69.8228 173.557 69.9581 173.717 70.1314 173.914C70.4783 174.309 70.9771 174.855 71.5844 175.456C72.8021 176.661 74.4436 178.079 76.1621 178.965L75.9498 179.377C74.1693 178.459 72.4884 177.003 71.2583 175.785C70.6419 175.175 70.1356 174.621 69.7832 174.22C69.607 174.02 69.4691 173.857 69.3751 173.744C69.3281 173.688 69.2921 173.644 69.2676 173.614C69.2554 173.599 69.2461 173.588 69.2398 173.58C69.2366 173.576 69.2342 173.573 69.2326 173.571C69.2318 173.57 69.2311 173.569 69.2307 173.568C69.2305 173.568 69.2303 173.568 69.2302 173.568C69.2301 173.568 69.23 173.568 69.23 173.567C69.23 173.567 69.2299 173.567 69.4111 173.423ZM76.1622 178.965C78.749 180.298 79.438 182.279 79.764 183.273L79.3236 183.418C79.0103 182.462 78.3733 180.626 75.9498 179.377L76.1622 178.965Z" fill="black" mask="url(#path-15-inside-5_17739_161509)"/>
<mask id="path-17-inside-6_17739_161509" fill="white">
<path d="M83.4021 181.13C83.321 182.281 83.0613 183.199 82.7852 183.885H83.2451C84.8236 181.847 87.2513 177.891 86.7968 173.273C86.1324 166.524 85.4096 158.062 85.4096 158.062C85.4096 158.062 76.5255 164.798 80.8971 172.27C83.0769 175.995 83.5544 178.967 83.4021 181.13Z"/>
</mask>
<path d="M83.4021 181.13C83.321 182.281 83.0613 183.199 82.7852 183.885H83.2451C84.8236 181.847 87.2513 177.891 86.7968 173.273C86.1324 166.524 85.4096 158.062 85.4096 158.062C85.4096 158.062 76.5255 164.798 80.8971 172.27C83.0769 175.995 83.5544 178.967 83.4021 181.13Z" fill="#66E8C7"/>
<path d="M82.7852 183.885V184.116H82.442L82.5702 183.798L82.7852 183.885ZM83.2451 183.885L83.4283 184.026L83.3588 184.116H83.2451V183.885ZM86.7968 173.273L87.0274 173.25L87.0274 173.25L86.7968 173.273ZM85.4096 158.062L85.2696 157.877L85.6047 157.623L85.6405 158.042L85.4096 158.062ZM80.8971 172.27L80.6971 172.387L80.697 172.387L80.8971 172.27ZM83.6333 181.146C83.5503 182.324 83.2843 183.265 83.0001 183.971L82.5702 183.798C82.8382 183.132 83.0917 182.238 83.1709 181.113L83.6333 181.146ZM82.7852 183.653H83.2451V184.116H82.7852V183.653ZM83.0619 183.743C84.6293 181.719 87.0118 177.824 86.5661 173.296L87.0274 173.25C87.4908 177.959 85.0178 181.974 83.4283 184.026L83.0619 183.743ZM86.5661 173.296C86.2338 169.92 85.887 166.117 85.6232 163.157C85.4913 161.677 85.3802 160.409 85.302 159.51C85.2629 159.06 85.2321 158.703 85.211 158.459C85.2005 158.336 85.1924 158.242 85.187 158.178C85.1842 158.147 85.1822 158.122 85.1808 158.106C85.1801 158.098 85.1796 158.092 85.1792 158.088C85.179 158.086 85.1789 158.084 85.1788 158.083C85.1788 158.083 85.1787 158.082 85.1787 158.082C85.1787 158.082 85.1787 158.082 85.1787 158.082C85.1787 158.082 85.1787 158.082 85.4096 158.062C85.6405 158.042 85.6405 158.042 85.6405 158.042C85.6405 158.042 85.6405 158.042 85.6405 158.043C85.6406 158.043 85.6406 158.043 85.6406 158.044C85.6407 158.045 85.6409 158.046 85.641 158.048C85.6414 158.052 85.6419 158.059 85.6426 158.067C85.644 158.083 85.6461 158.107 85.6488 158.139C85.6542 158.202 85.6623 158.297 85.6729 158.419C85.6939 158.663 85.7247 159.02 85.7638 159.47C85.8419 160.368 85.953 161.637 86.0849 163.116C86.3486 166.075 86.6953 169.877 87.0274 173.25L86.5661 173.296ZM85.4096 158.062C85.5496 158.247 85.5497 158.247 85.5497 158.247C85.5496 158.247 85.5496 158.247 85.5495 158.247C85.5493 158.247 85.549 158.247 85.5486 158.247C85.5477 158.248 85.5463 158.249 85.5443 158.251C85.5405 158.254 85.5345 158.258 85.5266 158.264C85.5107 158.277 85.4868 158.296 85.4556 158.32C85.3932 158.37 85.3017 158.445 85.1863 158.543C84.9555 158.738 84.6297 159.027 84.2519 159.397C83.4955 160.137 82.5343 161.199 81.7092 162.489C80.0584 165.07 78.9734 168.523 81.0971 172.153L80.697 172.387C78.4491 168.545 79.6204 164.895 81.3187 162.239C82.1683 160.911 83.1549 159.822 83.9277 159.066C84.3144 158.687 84.6485 158.391 84.8865 158.189C85.0055 158.088 85.1005 158.011 85.1662 157.958C85.199 157.932 85.2245 157.912 85.2419 157.899C85.2507 157.892 85.2574 157.887 85.262 157.883C85.2643 157.881 85.2661 157.88 85.2674 157.879C85.268 157.878 85.2685 157.878 85.2689 157.878C85.2691 157.878 85.2692 157.878 85.2693 157.877C85.2695 157.877 85.2696 157.877 85.4096 158.062ZM81.0971 172.153C83.2975 175.914 83.7893 178.931 83.6333 181.146L83.1709 181.113C83.3196 179.002 82.8562 176.077 80.6971 172.387L81.0971 172.153Z" fill="black" mask="url(#path-17-inside-6_17739_161509)"/>
<mask id="path-19-inside-7_17739_161509" fill="white">
<path d="M83.8523 168.678C84.7531 174.271 84.7646 180.533 83.3291 183.183C83.591 182.999 83.871 182.803 84.1574 182.605C85.6036 180.402 87.1692 177.06 86.7966 173.273C86.1322 166.524 85.4094 158.062 85.4094 158.062C85.4094 158.062 82.6799 161.399 83.8523 168.678Z"/>
</mask>
<path d="M83.8523 168.678C84.7531 174.271 84.7646 180.533 83.3291 183.183C83.591 182.999 83.871 182.803 84.1574 182.605C85.6036 180.402 87.1692 177.06 86.7966 173.273C86.1322 166.524 85.4094 158.062 85.4094 158.062C85.4094 158.062 82.6799 161.399 83.8523 168.678Z" fill="#34A770"/>
<path d="M83.3291 183.183L83.4623 183.373L83.1253 183.073L83.3291 183.183ZM84.1574 182.605L84.3512 182.733L84.3263 182.77L84.2891 182.796L84.1574 182.605ZM86.7966 173.273L87.0272 173.251L87.0272 173.251L86.7966 173.273ZM85.4094 158.062L85.23 157.915L85.5917 157.473L85.6403 158.042L85.4094 158.062ZM84.0811 168.641C84.5334 171.45 84.7628 174.428 84.6985 177.04C84.6344 179.641 84.2786 181.917 83.5329 183.294L83.1253 183.073C83.8152 181.8 84.1713 179.619 84.2351 177.029C84.2987 174.449 84.0719 171.5 83.6235 168.715L84.0811 168.641ZM83.196 182.994C83.4579 182.81 83.7385 182.613 84.0258 182.415L84.2891 182.796C84.0035 182.993 83.7241 183.189 83.4623 183.373L83.196 182.994ZM83.9637 182.478C85.3966 180.295 86.9311 177.007 86.5659 173.296L87.0272 173.251C87.4073 177.113 85.8107 180.509 84.3512 182.733L83.9637 182.478ZM86.5659 173.296C86.2336 169.92 85.8868 166.117 85.623 163.157C85.4911 161.678 85.38 160.409 85.3018 159.51C85.2627 159.06 85.2319 158.703 85.2108 158.459C85.2003 158.336 85.1922 158.242 85.1868 158.179C85.184 158.147 85.182 158.123 85.1806 158.106C85.1799 158.098 85.1794 158.092 85.179 158.088C85.1788 158.086 85.1787 158.084 85.1786 158.083C85.1786 158.083 85.1785 158.082 85.1785 158.082C85.1785 158.082 85.1785 158.082 85.1785 158.082C85.1785 158.082 85.1785 158.082 85.4094 158.062C85.6403 158.042 85.6403 158.042 85.6403 158.042C85.6403 158.042 85.6403 158.043 85.6403 158.043C85.6404 158.043 85.6404 158.043 85.6404 158.044C85.6405 158.045 85.6407 158.046 85.6408 158.048C85.6412 158.053 85.6417 158.059 85.6424 158.067C85.6438 158.083 85.6459 158.107 85.6486 158.139C85.654 158.203 85.6621 158.297 85.6727 158.419C85.6937 158.663 85.7245 159.02 85.7636 159.47C85.8417 160.368 85.9528 161.637 86.0847 163.116C86.3484 166.075 86.6951 169.877 87.0272 173.251L86.5659 173.296ZM85.4094 158.062C85.5888 158.209 85.5889 158.209 85.5889 158.209C85.589 158.209 85.589 158.209 85.589 158.208C85.5891 158.208 85.5891 158.208 85.589 158.208C85.5889 158.209 85.5887 158.209 85.5883 158.209C85.5875 158.21 85.586 158.212 85.5839 158.215C85.5798 158.22 85.5732 158.229 85.5643 158.241C85.5466 158.264 85.5198 158.301 85.4855 158.351C85.4171 158.451 85.3188 158.603 85.2037 158.81C84.9735 159.223 84.6756 159.853 84.4127 160.709C83.8874 162.419 83.5005 165.037 84.0811 168.641L83.6235 168.715C83.0317 165.041 83.4233 162.351 83.9697 160.573C84.2427 159.684 84.5538 159.024 84.7988 158.584C84.9212 158.365 85.0271 158.2 85.1033 158.089C85.1414 158.033 85.1721 157.991 85.1938 157.962C85.2046 157.948 85.2132 157.937 85.2193 157.929C85.2223 157.925 85.2248 157.922 85.2266 157.92C85.2275 157.918 85.2282 157.918 85.2288 157.917C85.2291 157.916 85.2293 157.916 85.2295 157.916C85.2296 157.916 85.2297 157.916 85.2298 157.916C85.2299 157.915 85.23 157.915 85.4094 158.062Z" fill="black" mask="url(#path-19-inside-7_17739_161509)"/>
<path d="M77.204 185.146L77.204 185.146L78.496 192.587C78.687 193.589 79.5626 194.314 80.5825 194.314H86.5549C87.5746 194.314 88.4504 193.589 88.6412 192.587L89.9334 185.146L89.9334 185.146C90.0744 184.334 89.4491 183.591 88.6245 183.591H78.5129C77.6883 183.591 77.0629 184.334 77.204 185.146Z" fill="#CADBF9" stroke="black" stroke-width="0.23176"/>
<path d="M77.1872 184.854H89.9504C89.9174 184.163 89.3482 183.591 88.6246 183.591H78.513C77.7894 183.591 77.2202 184.163 77.1872 184.854Z" fill="#A1B7EB" stroke="black" stroke-width="0.23176"/>
<path d="M86.0571 192.63C85.9136 193.385 85.4192 193.998 84.7623 194.314H86.5548C87.5745 194.314 88.4503 193.589 88.6411 192.587C88.6411 192.587 88.6412 192.587 88.6412 192.586L89.9332 185.146L89.9332 185.146C90.0743 184.334 89.449 183.591 88.6244 183.591H86.6319C87.1522 183.913 87.4636 184.53 87.3497 185.185L86.0574 192.628L86.0574 192.628L86.0571 192.63Z" fill="#A1B7EB" stroke="black" stroke-width="0.23176"/>
</g>
<path d="M266.526 31.3098C263.765 33.0233 260.137 32.1735 258.424 29.4109C256.712 26.6499 257.56 23.0205 260.321 21.3071C263.082 19.5951 266.71 20.4449 268.422 23.2059C270.135 25.9685 269.286 29.5963 266.526 31.3098ZM275.174 26.5541C275.203 25.1805 274.993 23.7931 274.528 22.455L277.525 19.7991L275.562 16.6317L271.867 18.1304C270.875 17.1029 269.72 16.284 268.47 15.6907L268.709 11.7091L265.083 10.8593L263.522 14.552C262.15 14.5397 260.768 14.7668 259.436 15.2473L256.758 12.2252L253.594 14.1889L255.128 17.9759C254.149 18.9508 253.365 20.0772 252.793 21.2916L248.673 21.0444L247.823 24.6706L251.67 26.2976C251.669 27.6109 251.885 28.9335 252.336 30.2097L249.189 32.9985L251.153 36.1644L255.066 34.5776C256.007 35.5309 257.09 36.2988 258.26 36.8705L258.007 41.087L261.631 41.9383L263.269 38.0648C264.582 38.0849 265.908 37.8825 267.189 37.4483L269.958 40.5725L273.122 38.6071L271.571 34.7846C272.57 33.8252 273.374 32.7127 273.966 31.5076L278.041 31.7532L278.891 28.1254L275.174 26.5541Z" fill="#A9CEEA"/>
<mask id="path-25-inside-8_17739_161509" fill="white">
<path d="M265.111 32.0439C262.35 33.7573 258.724 32.9076 257.01 30.1465C255.297 27.3839 256.147 23.7561 258.908 22.0427C261.669 20.3292 265.295 21.179 267.008 23.9416C268.722 26.7026 267.872 30.3304 265.111 32.0439ZM273.76 27.2882C273.79 25.9146 273.58 24.5271 273.115 23.1906L276.112 20.5331L274.148 17.3673L270.454 18.866C269.46 17.837 268.306 17.0181 267.055 16.4248L267.294 12.4432L263.668 11.5934L262.108 15.2861C260.737 15.2737 259.354 15.5009 258.022 15.9829L255.343 12.9592L252.179 14.9245L253.715 18.71C252.734 19.6864 251.95 20.8112 251.379 22.0272L247.259 21.7785L246.41 25.4063L250.257 27.0332C250.254 28.345 250.472 29.6675 250.921 30.9438L247.776 33.7326L249.739 36.9L253.653 35.3117C254.594 36.265 255.677 37.0344 256.847 37.6046L256.592 41.8226L260.218 42.6724L261.854 38.8004C263.167 38.819 264.495 38.6166 265.776 38.1824L268.543 41.3065L271.707 39.3427L270.157 35.5187C271.157 34.5592 271.959 33.4468 272.552 32.2416L276.628 32.4888L277.478 28.861L273.76 27.2882Z"/>
</mask>
<path d="M265.111 32.0439C262.35 33.7573 258.724 32.9076 257.01 30.1465C255.297 27.3839 256.147 23.7561 258.908 22.0427C261.669 20.3292 265.295 21.179 267.008 23.9416C268.722 26.7026 267.872 30.3304 265.111 32.0439ZM273.76 27.2882C273.79 25.9146 273.58 24.5271 273.115 23.1906L276.112 20.5331L274.148 17.3673L270.454 18.866C269.46 17.837 268.306 17.0181 267.055 16.4248L267.294 12.4432L263.668 11.5934L262.108 15.2861C260.737 15.2737 259.354 15.5009 258.022 15.9829L255.343 12.9592L252.179 14.9245L253.715 18.71C252.734 19.6864 251.95 20.8112 251.379 22.0272L247.259 21.7785L246.41 25.4063L250.257 27.0332C250.254 28.345 250.472 29.6675 250.921 30.9438L247.776 33.7326L249.739 36.9L253.653 35.3117C254.594 36.265 255.677 37.0344 256.847 37.6046L256.592 41.8226L260.218 42.6724L261.854 38.8004C263.167 38.819 264.495 38.6166 265.776 38.1824L268.543 41.3065L271.707 39.3427L270.157 35.5187C271.157 34.5592 271.959 33.4468 272.552 32.2416L276.628 32.4888L277.478 28.861L273.76 27.2882Z" fill="#C9E2F4"/>
<path d="M257.01 30.1465L256.617 30.3909L256.616 30.3908L257.01 30.1465ZM267.008 23.9416L266.615 24.186L266.615 24.1859L267.008 23.9416ZM273.115 23.1906L272.677 23.343L272.575 23.0498L272.807 22.8438L273.115 23.1906ZM276.112 20.5331L276.506 20.2888L276.712 20.6208L276.419 20.88L276.112 20.5331ZM274.148 17.3673L273.974 16.9378L274.336 16.7909L274.542 17.123L274.148 17.3673ZM270.454 18.866L270.628 19.2955L270.338 19.4133L270.12 19.188L270.454 18.866ZM267.055 16.4248L266.856 16.8437L266.573 16.7095L266.592 16.397L267.055 16.4248ZM267.294 12.4432L267.4 11.9919L267.78 12.081L267.757 12.471L267.294 12.4432ZM263.668 11.5934L263.241 11.413L263.393 11.0529L263.774 11.1421L263.668 11.5934ZM262.108 15.2861L262.534 15.4665L262.414 15.7524L262.103 15.7496L262.108 15.2861ZM258.022 15.9829L258.18 16.4188L257.884 16.5259L257.675 16.2903L258.022 15.9829ZM255.343 12.9592L255.099 12.5655L255.431 12.3592L255.69 12.6518L255.343 12.9592ZM252.179 14.9245L251.749 15.0988L251.603 14.7369L251.934 14.5308L252.179 14.9245ZM253.715 18.71L254.144 18.5357L254.26 18.8212L254.042 19.0385L253.715 18.71ZM251.379 22.0272L251.798 22.2244L251.664 22.5088L251.351 22.4899L251.379 22.0272ZM247.259 21.7785L246.808 21.6727L246.897 21.2922L247.287 21.3158L247.259 21.7785ZM246.41 25.4063L246.229 25.8332L245.869 25.681L245.958 25.3006L246.41 25.4063ZM250.257 27.0332L250.437 26.6063L250.721 26.7263L250.72 27.0343L250.257 27.0332ZM250.921 30.9438L251.358 30.7898L251.462 31.0838L251.229 31.2906L250.921 30.9438ZM247.776 33.7326L247.382 33.9769L247.176 33.6449L247.468 33.3858L247.776 33.7326ZM249.739 36.9L249.914 37.3295L249.551 37.4765L249.345 37.1442L249.739 36.9ZM253.653 35.3117L253.479 34.8822L253.765 34.7658L253.983 34.9861L253.653 35.3117ZM256.847 37.6046L257.05 37.1879L257.328 37.3235L257.309 37.6325L256.847 37.6046ZM256.592 41.8226L256.486 42.2739L256.105 42.1847L256.129 41.7946L256.592 41.8226ZM260.218 42.6724L260.645 42.8528L260.493 43.2128L260.112 43.1237L260.218 42.6724ZM261.854 38.8004L261.427 38.62L261.549 38.3325L261.861 38.337L261.854 38.8004ZM265.776 38.1824L265.627 37.7434L265.918 37.6446L266.122 37.8751L265.776 38.1824ZM268.543 41.3065L268.787 41.7004L268.455 41.9065L268.196 41.6139L268.543 41.3065ZM271.707 39.3427L272.137 39.1687L272.283 39.5306L271.951 39.7366L271.707 39.3427ZM270.157 35.5187L269.728 35.6928L269.61 35.4018L269.836 35.1843L270.157 35.5187ZM272.552 32.2416L272.136 32.0369L272.272 31.7603L272.58 31.779L272.552 32.2416ZM276.628 32.4888L277.079 32.5946L276.99 32.9752L276.6 32.9515L276.628 32.4888ZM277.478 28.861L277.658 28.4341L278.018 28.5864L277.929 28.9667L277.478 28.861ZM265.356 32.4377C262.377 34.2862 258.465 33.3694 256.617 30.3909L257.404 29.9021C258.983 32.4457 262.323 33.2284 264.867 31.65L265.356 32.4377ZM256.616 30.3908C254.768 27.4108 255.685 23.4973 258.663 21.6488L259.152 22.4365C256.609 24.015 255.826 27.3571 257.404 29.9022L256.616 30.3908ZM258.663 21.6488C261.642 19.8003 265.554 20.7172 267.402 23.6972L266.615 24.1859C265.036 21.6408 261.695 20.8581 259.152 22.4365L258.663 21.6488ZM267.402 23.6971C269.251 26.6757 268.334 30.5893 265.356 32.4377L264.867 31.65C267.41 30.0715 268.193 26.7294 266.615 24.186L267.402 23.6971ZM273.297 27.2783C273.325 25.9586 273.123 24.6262 272.677 23.343L273.552 23.0383C274.036 24.4281 274.254 25.8706 274.224 27.2981L273.297 27.2783ZM272.807 22.8438L275.804 20.1863L276.419 20.88L273.422 23.5375L272.807 22.8438ZM275.718 20.7775L273.754 17.6116L274.542 17.123L276.506 20.2888L275.718 20.7775ZM274.322 17.7968L270.628 19.2955L270.28 18.4365L273.974 16.9378L274.322 17.7968ZM270.12 19.188C269.166 18.1998 268.058 17.4134 266.856 16.8437L267.253 16.006C268.554 16.6228 269.755 17.4742 270.787 18.5441L270.12 19.188ZM266.592 16.397L266.832 12.4154L267.757 12.471L267.518 16.4526L266.592 16.397ZM267.189 12.8945L263.562 12.0447L263.774 11.1421L267.4 11.9919L267.189 12.8945ZM264.095 11.7738L262.534 15.4665L261.681 15.1057L263.241 11.413L264.095 11.7738ZM262.103 15.7496C260.787 15.7377 259.459 15.9559 258.18 16.4188L257.865 15.5471C259.249 15.0459 260.687 14.8098 262.112 14.8226L262.103 15.7496ZM257.675 16.2903L254.996 13.2666L255.69 12.6518L258.369 15.6755L257.675 16.2903ZM255.588 13.353L252.424 15.3183L251.934 14.5308L255.099 12.5655L255.588 13.353ZM252.608 14.7503L254.144 18.5357L253.285 18.8842L251.749 15.0988L252.608 14.7503ZM254.042 19.0385C253.099 19.9763 252.347 21.0565 251.798 22.2244L250.959 21.83C251.553 20.566 252.368 19.3966 253.388 18.3814L254.042 19.0385ZM251.351 22.4899L247.232 22.2411L247.287 21.3158L251.407 21.5645L251.351 22.4899ZM247.711 21.8842L246.861 25.512L245.958 25.3006L246.808 21.6727L247.711 21.8842ZM246.59 24.9794L250.437 26.6063L250.076 27.4601L246.229 25.8332L246.59 24.9794ZM250.72 27.0343C250.717 28.294 250.927 29.564 251.358 30.7898L250.484 31.0978C250.017 29.7711 249.79 28.396 249.793 27.0321L250.72 27.0343ZM251.229 31.2906L248.083 34.0795L247.468 33.3858L250.614 30.5969L251.229 31.2906ZM248.169 33.4884L250.133 36.6557L249.345 37.1442L247.382 33.9769L248.169 33.4884ZM249.565 36.4705L253.479 34.8822L253.827 35.7412L249.914 37.3295L249.565 36.4705ZM253.983 34.9861C254.886 35.9015 255.926 36.6404 257.05 37.1879L256.643 38.0212C255.428 37.4285 254.301 36.6285 253.323 35.6373L253.983 34.9861ZM257.309 37.6325L257.054 41.8505L256.129 41.7946L256.384 37.5766L257.309 37.6325ZM256.697 41.3713L260.324 42.2211L260.112 43.1237L256.486 42.2739L256.697 41.3713ZM259.791 42.4919L261.427 38.62L262.281 38.9808L260.645 42.8528L259.791 42.4919ZM261.861 38.337C263.122 38.3548 264.397 38.1604 265.627 37.7434L265.924 38.6214C264.593 39.0728 263.213 39.2832 261.848 39.2639L261.861 38.337ZM266.122 37.8751L268.89 40.9992L268.196 41.6139L265.429 38.4897L266.122 37.8751ZM268.298 40.9127L271.463 38.9489L271.951 39.7366L268.787 41.7004L268.298 40.9127ZM271.277 39.5168L269.728 35.6928L270.587 35.3446L272.137 39.1687L271.277 39.5168ZM269.836 35.1843C270.796 34.2632 271.566 33.1949 272.136 32.0369L272.968 32.4464C272.351 33.6987 271.518 34.8553 270.478 35.8531L269.836 35.1843ZM272.58 31.779L276.656 32.0262L276.6 32.9515L272.524 32.7043L272.58 31.779ZM276.177 32.3831L277.027 28.7553L277.929 28.9667L277.079 32.5946L276.177 32.3831ZM277.297 29.2879L273.58 27.715L273.941 26.8613L277.658 28.4341L277.297 29.2879Z" fill="black" mask="url(#path-25-inside-8_17739_161509)"/>
<path d="M247.259 21.7786L248.483 21.8528L248.673 21.0447L247.259 21.7786Z" fill="#A9CEEA"/>
<path d="M263.668 11.593L265.083 10.859L264.674 11.8293L263.668 11.593Z" fill="#A9CEEA"/>
<path d="M255.343 12.9591L256.758 12.2251L255.425 13.0518L255.343 12.9591Z" fill="#A9CEEA"/>
<path d="M260.218 42.6724L261.632 41.9385L260.627 41.7021L260.218 42.6724Z" fill="#A9CEEA"/>
<path d="M276.628 32.4885L278.042 31.7531L276.818 31.6789L276.628 32.4885Z" fill="#A9CEEA"/>
<path d="M268.543 41.306L269.958 40.5721L269.876 40.4794L268.543 41.306Z" fill="#A9CEEA"/>
<path d="M169.2 189.03H209.63C209.428 188.788 209.15 188.432 208.825 187.956C208.149 186.964 207.27 185.45 206.447 183.35C204.817 179.189 203.412 172.737 204.248 163.51H173.06C173.065 163.532 173.071 163.554 173.076 163.577C173.133 163.821 173.206 164.188 173.273 164.684C173.407 165.677 173.518 167.189 173.429 169.284C173.254 173.428 172.298 179.849 169.2 189.03Z" fill="#92BFF7" stroke="black" stroke-width="0.463519"/>
<path d="M173.06 163.51C173.07 163.554 173.081 163.601 173.093 163.654C173.158 163.949 173.241 164.393 173.31 164.996C173.446 166.162 173.535 167.922 173.367 170.35H204.026C203.965 168.262 204.024 165.989 204.248 163.51H173.06Z" fill="#5F9BDD" stroke="black" stroke-width="0.463519"/>
<mask id="path-35-inside-9_17739_161509" fill="white">
<path d="M262.537 166.124H113.665C111.543 166.124 109.823 164.405 109.823 162.283V69.8638C109.823 68.0112 111.326 66.5094 113.179 66.5094H263.022C264.875 66.5094 266.378 68.0112 266.378 69.8638V162.283C266.378 164.405 264.658 166.124 262.537 166.124Z"/>
</mask>
<path d="M262.537 166.124H113.665C111.543 166.124 109.823 164.405 109.823 162.283V69.8638C109.823 68.0112 111.326 66.5094 113.179 66.5094H263.022C264.875 66.5094 266.378 68.0112 266.378 69.8638V162.283C266.378 164.405 264.658 166.124 262.537 166.124Z" fill="#92BFF7"/>
<path d="M262.537 166.588H113.665V165.661H262.537V166.588ZM113.665 166.588C111.287 166.588 109.36 164.661 109.36 162.283H110.287C110.287 164.149 111.799 165.661 113.665 165.661V166.588ZM109.36 162.283V69.8638H110.287V162.283H109.36ZM109.36 69.8638C109.36 67.7551 111.07 66.0459 113.179 66.0459V66.9729C111.581 66.9729 110.287 68.2673 110.287 69.8638H109.36ZM113.179 66.0459H263.022V66.9729H113.179V66.0459ZM263.022 66.0459C265.13 66.0459 266.841 67.7549 266.841 69.8638H265.914C265.914 68.2675 264.619 66.9729 263.022 66.9729V66.0459ZM266.841 69.8638V162.283H265.914V69.8638H266.841ZM266.841 162.283C266.841 164.661 264.914 166.588 262.537 166.588V165.661C264.402 165.661 265.914 164.149 265.914 162.283H266.841Z" fill="black" mask="url(#path-35-inside-9_17739_161509)"/>
<path d="M111.187 163.657V71.1754C111.187 69.3384 112.703 67.8489 114.572 67.8489H264.357C264.939 67.8489 265.479 68.0065 265.958 68.2615C265.386 67.2232 264.28 66.5093 262.993 66.5093H113.208C111.339 66.5093 109.823 67.9972 109.823 69.8343V162.317C109.823 163.712 110.59 164.93 111.729 165.593C111.387 165.024 111.187 164.364 111.187 163.657Z" fill="#5283A8"/>
<mask id="path-38-inside-10_17739_161509" fill="white">
<path d="M259.498 153.347H116.703C116.604 153.347 116.524 153.266 116.524 153.167V72.5043C116.524 72.4054 116.604 72.3251 116.703 72.3251H259.498C259.597 72.3251 259.677 72.4054 259.677 72.5043V153.167C259.677 153.266 259.597 153.347 259.498 153.347Z"/>
</mask>
<path d="M259.498 153.347H116.703C116.604 153.347 116.524 153.266 116.524 153.167V72.5043C116.524 72.4054 116.604 72.3251 116.703 72.3251H259.498C259.597 72.3251 259.677 72.4054 259.677 72.5043V153.167C259.677 153.266 259.597 153.347 259.498 153.347Z" fill="#1D3B77"/>
<path d="M259.498 153.81H116.703V152.883H259.498V153.81ZM116.703 153.81C116.348 153.81 116.06 153.522 116.06 153.167H116.987C116.987 153.01 116.86 152.883 116.703 152.883V153.81ZM116.06 153.167V72.5043H116.987V153.167H116.06ZM116.06 72.5043C116.06 72.1491 116.349 71.8615 116.703 71.8615V72.7886C116.86 72.7886 116.987 72.6617 116.987 72.5043H116.06ZM116.703 71.8615H259.498V72.7886H116.703V71.8615ZM259.498 71.8615C259.853 71.8615 260.141 72.1493 260.141 72.5043H259.214C259.214 72.6614 259.341 72.7886 259.498 72.7886V71.8615ZM260.141 72.5043V153.167H259.214V72.5043H260.141ZM260.141 153.167C260.141 153.522 259.853 153.81 259.498 153.81V152.883C259.341 152.883 259.214 153.01 259.214 153.167H260.141Z" fill="black" mask="url(#path-38-inside-10_17739_161509)"/>
<path d="M116.756 78.2874V153.115H259.445V78.2874H116.756Z" fill="#29478C" stroke="black" stroke-width="0.463519"/>
<path d="M226.393 187.865H148.044L144.886 195.44H229.551L226.393 187.865Z" fill="#83B6ED" stroke="black" stroke-width="0.463519"/>
<path d="M189.511 162.518C191.056 162.518 192.325 161.187 192.325 159.524C192.325 157.86 191.056 156.53 189.511 156.53C187.966 156.53 186.698 157.86 186.698 159.524C186.698 161.187 187.966 162.518 189.511 162.518Z" fill="#5F9BDD" stroke="black" stroke-width="0.347639"/>
<path d="M184.09 144.569H136.616C135.535 144.569 134.659 143.988 134.659 143.271C134.659 142.556 135.535 141.975 136.616 141.975H184.09C185.171 141.975 186.047 142.556 186.047 143.271C186.047 143.988 185.171 144.569 184.09 144.569Z" fill="#9BAED3"/>
<path d="M158.242 139.381H136.616C135.535 139.381 134.659 138.8 134.659 138.084C134.659 137.367 135.535 136.786 136.616 136.786H158.242C159.323 136.786 160.199 137.367 160.199 138.084C160.199 138.8 159.323 139.381 158.242 139.381Z" fill="#9BAED3"/>
<path d="M144.015 119.587H227.107C227.496 119.587 227.811 119.272 227.811 118.883V117.781C227.811 117.393 227.496 117.076 227.107 117.076H144.015C143.626 117.076 143.311 117.393 143.311 117.781V118.883C143.311 119.272 143.626 119.587 144.015 119.587Z" fill="#9BAED3"/>
<path d="M144.015 109.099H227.107C227.496 109.099 227.811 108.784 227.811 108.396V107.295C227.811 106.905 227.496 106.59 227.107 106.59H144.015C143.626 106.59 143.311 106.905 143.311 107.295V108.396C143.311 108.784 143.626 109.099 144.015 109.099Z" fill="#9BAED3"/>
<path d="M144.015 129.625H227.107C227.496 129.625 227.811 129.31 227.811 128.921V127.821C227.811 127.431 227.496 127.116 227.107 127.116H144.015C143.626 127.116 143.311 127.431 143.311 127.821V128.921C143.311 129.31 143.626 129.625 144.015 129.625Z" fill="#9BAED3"/>
<path d="M231.002 121.783H238.188C238.273 121.783 238.341 121.715 238.341 121.63V115.034C238.341 114.949 238.273 114.881 238.188 114.881H231.002C230.917 114.881 230.849 114.949 230.849 115.034V121.63C230.849 121.715 230.917 121.783 231.002 121.783Z" fill="#08A0F7"/>
<path d="M231.002 111.296H238.188C238.273 111.296 238.341 111.226 238.341 111.143V104.547C238.341 104.462 238.273 104.394 238.188 104.394H231.002C230.917 104.394 230.849 104.462 230.849 104.547V111.143C230.849 111.226 230.917 111.296 231.002 111.296Z" fill="#08A0F7"/>
<path d="M231.002 131.821H238.188C238.273 131.821 238.341 131.753 238.341 131.668V125.072C238.341 124.989 238.273 124.919 238.188 124.919H231.002C230.917 124.919 230.849 124.989 230.849 125.074V131.668C230.849 131.753 230.917 131.821 231.002 131.821Z" fill="#08A0F7"/>
<path d="M135.011 97.6857H237.989C238.183 97.6857 238.341 97.5281 238.341 97.3335V96.7834C238.341 96.5887 238.183 96.4311 237.989 96.4311H135.011C134.817 96.4311 134.659 96.5887 134.659 96.7834V97.3335C134.659 97.5281 134.817 97.6857 135.011 97.6857Z" fill="#9BAED3"/>
<path d="M234.786 109.462C234.469 109.462 234.155 109.323 233.945 109.061L231.887 106.488C231.625 106.159 231.677 105.679 232.006 105.416C232.335 105.153 232.814 105.206 233.077 105.535L234.862 107.766L240.32 103.651C240.656 103.398 241.135 103.466 241.388 103.801C241.641 104.138 241.573 104.616 241.238 104.869L235.398 109.271C235.212 109.399 234.998 109.462 234.786 109.462Z" fill="white"/>
<path d="M234.786 120.426C234.469 120.426 234.156 120.287 233.945 120.024L231.887 117.45C231.625 117.122 231.677 116.642 232.006 116.379C232.335 116.117 232.814 116.169 233.077 116.498L234.862 118.729L240.32 114.615C240.656 114.361 241.135 114.428 241.388 114.765C241.641 115.102 241.573 115.579 241.238 115.832L235.398 120.233C235.212 120.362 234.998 120.426 234.786 120.426Z" fill="white"/>
<path d="M234.786 129.919C234.469 129.919 234.156 129.781 233.945 129.517L231.887 126.945C231.625 126.616 231.677 126.135 232.006 125.872C232.335 125.61 232.814 125.662 233.077 125.991L234.862 128.222L240.32 124.109C240.656 123.855 241.135 123.922 241.388 124.259C241.641 124.595 241.573 125.074 241.238 125.327L235.398 129.727C235.212 129.857 234.998 129.919 234.786 129.919Z" fill="white"/>
<path d="M136.459 104.833H136.442L135.451 105.334L135.276 104.558L136.593 103.909H137.451V109.325H136.459V104.833Z" fill="#9BAED3"/>
<path d="M139.384 108.758C139.384 108.374 139.651 108.099 140.017 108.099C140.392 108.099 140.65 108.367 140.65 108.758C140.65 109.133 140.401 109.416 140.017 109.416C139.642 109.416 139.384 109.133 139.384 108.758Z" fill="#9BAED3"/>
<path d="M134.851 119.323V118.699L135.493 118.107C136.767 116.923 137.367 116.274 137.375 115.557C137.375 115.074 137.117 114.649 136.409 114.649C135.934 114.649 135.526 114.891 135.251 115.099L134.951 114.374C135.343 114.057 135.934 113.816 136.617 113.816C137.817 113.816 138.4 114.575 138.4 115.457C138.4 116.407 137.717 117.174 136.776 118.048L136.301 118.456V118.473H138.525V119.323H134.851Z" fill="#9BAED3"/>
<path d="M139.384 118.757C139.384 118.374 139.651 118.097 140.017 118.097C140.392 118.097 140.65 118.365 140.65 118.757C140.65 119.131 140.401 119.415 140.017 119.415C139.642 119.415 139.384 119.131 139.384 118.757Z" fill="#9BAED3"/>
<path d="M135.059 128.264C135.268 128.389 135.776 128.596 136.293 128.596C137.076 128.596 137.392 128.156 137.384 127.731C137.384 127.09 136.784 126.815 136.159 126.815H135.684V126.064H136.142C136.617 126.064 137.217 125.847 137.217 125.307C137.217 124.939 136.942 124.631 136.351 124.631C135.909 124.631 135.468 124.823 135.243 124.973L135.009 124.231C135.318 124.015 135.918 123.814 136.568 123.814C137.684 123.814 138.259 124.431 138.259 125.14C138.259 125.705 137.925 126.172 137.259 126.405V126.422C137.917 126.54 138.45 127.039 138.45 127.773C138.45 128.689 137.684 129.413 136.343 129.413C135.684 129.413 135.118 129.23 134.826 129.038L135.059 128.264Z" fill="#9BAED3"/>
<path d="M139.384 128.755C139.384 128.372 139.651 128.097 140.017 128.097C140.392 128.097 140.65 128.364 140.65 128.755C140.65 129.131 140.401 129.413 140.017 129.413C139.642 129.413 139.384 129.131 139.384 128.755Z" fill="#9BAED3"/>
<mask id="path-61-inside-11_17739_161509" fill="white">
<path d="M189.695 54.5954L164.951 54.6959L164.872 35.0843L164.866 33.4172L169.785 33.3971L172.068 35.055L189.616 34.9839L189.695 54.5954Z"/>
</mask>
<path d="M189.695 54.5954L164.951 54.6959L164.872 35.0843L164.866 33.4172L169.785 33.3971L172.068 35.055L189.616 34.9839L189.695 54.5954Z" fill="#F3B344"/>
<path d="M164.951 54.6959L164.953 55.1594L164.49 55.1613L164.488 54.6977L164.951 54.6959ZM164.872 35.0843L164.409 35.0862L164.409 35.0862L164.872 35.0843ZM164.866 33.4172L164.402 33.4191L164.4 32.9556L164.864 32.9537L164.866 33.4172ZM169.785 33.3971L169.783 32.9336L169.935 32.933L170.058 33.0221L169.785 33.3971ZM172.068 35.055L172.07 35.5185L171.918 35.5191L171.795 35.43L172.068 35.055ZM189.616 34.9839L189.614 34.5204L190.077 34.5185L190.079 34.9821L189.616 34.9839ZM189.696 55.0589L164.953 55.1594L164.949 54.2323L189.693 54.1319L189.696 55.0589ZM164.488 54.6977L164.409 35.0862L165.336 35.0825L165.415 54.694L164.488 54.6977ZM164.409 35.0862L164.402 33.4191L165.329 33.4154L165.336 35.0825L164.409 35.0862ZM164.864 32.9537L169.783 32.9336L169.787 33.8607L164.868 33.8807L164.864 32.9537ZM170.058 33.0221L172.34 34.68L171.795 35.43L169.513 33.7722L170.058 33.0221ZM172.066 34.5915L189.614 34.5204L189.618 35.4474L172.07 35.5185L172.066 34.5915ZM190.079 34.9821L190.158 54.5936L189.231 54.5973L189.152 34.9858L190.079 34.9821Z" fill="black" mask="url(#path-61-inside-11_17739_161509)"/>
<path d="M165.859 37.0383L165.863 37.9731L188.704 37.8813L188.7 36.9465L165.859 37.0383Z" fill="#F1F2F2" stroke="black" stroke-width="0.23176"/>
<path d="M190.195 55.116L190.195 55.116C190.471 55.115 190.713 54.8766 190.712 54.5607C190.712 54.5607 190.712 54.5607 190.712 54.5606L190.648 38.7733V38.7732C190.647 38.4578 190.404 38.2213 190.127 38.2223C190.127 38.2223 190.127 38.2223 190.127 38.2223L163.874 38.3289H163.874C163.597 38.3299 163.357 38.5685 163.358 38.8827C163.358 38.8827 163.358 38.8827 163.358 38.8827L163.421 54.6717L163.421 54.6717C163.422 54.9857 163.665 55.2221 163.942 55.2211C163.942 55.2211 163.942 55.2211 163.942 55.2211L190.195 55.116Z" fill="#F9A300" stroke="black" stroke-width="0.463519"/>
<path d="M189.345 53.3945L189.345 53.3945L163.901 53.4965C163.901 53.4965 163.901 53.4965 163.901 53.4965C163.634 53.4975 163.415 53.2812 163.414 53.0135L189.345 53.3945ZM189.345 53.3945C189.612 53.3935 189.829 53.175 189.828 52.9072L189.77 38.7081C189.769 38.4405 189.552 38.2241 189.283 38.2251C189.283 38.2251 189.283 38.2251 189.283 38.2251L163.84 38.3286H163.84C163.572 38.3297 163.356 38.5472 163.357 38.8144C163.357 38.8144 163.357 38.8144 163.357 38.8144L163.414 53.0134L189.345 53.3945Z" fill="#FFC300" stroke="black" stroke-width="0.463519"/>
<mask id="path-66-inside-12_17739_161509" fill="white">
<path d="M173.624 42.9658C175.249 41.5319 175.918 39.6284 176.936 38.0432L163.839 38.0972C163.443 38.0988 163.124 38.4202 163.125 38.8157L163.167 49.0564C165.303 48.0567 169.911 46.2413 173.624 42.9658Z"/>
</mask>
<path d="M173.624 42.9658C175.249 41.5319 175.918 39.6284 176.936 38.0432L163.839 38.0972C163.443 38.0988 163.124 38.4202 163.125 38.8157L163.167 49.0564C165.303 48.0567 169.911 46.2413 173.624 42.9658Z" fill="#FDDB81"/>
<path d="M176.936 38.0432L176.935 37.8114L177.361 37.8096L177.131 38.1683L176.936 38.0432ZM163.839 38.0972L163.84 38.329H163.84L163.839 38.0972ZM163.125 38.8157L162.894 38.8166L162.894 38.8166L163.125 38.8157ZM163.167 49.0564L163.265 49.2663L162.936 49.42L162.935 49.0573L163.167 49.0564ZM173.471 42.792C174.257 42.0985 174.816 41.2881 175.308 40.4445C175.554 40.0216 175.781 39.595 176.014 39.1685C176.246 38.744 176.481 38.3217 176.741 37.918L177.131 38.1683C176.881 38.5573 176.652 38.9673 176.421 39.3904C176.191 39.8115 175.959 40.2476 175.708 40.678C175.205 41.5409 174.617 42.3992 173.778 43.1395L173.471 42.792ZM176.937 38.2749L163.84 38.329L163.838 37.8655L176.935 37.8114L176.937 38.2749ZM163.84 38.329C163.572 38.33 163.356 38.5476 163.357 38.8148L162.894 38.8166C162.892 38.2927 163.315 37.8675 163.838 37.8655L163.84 38.329ZM163.357 38.8148L163.399 49.0555L162.935 49.0573L162.894 38.8166L163.357 38.8148ZM163.069 48.8465C165.222 47.8391 169.789 46.0396 173.471 42.7919L173.778 43.1396C170.032 46.4429 165.385 48.2744 163.265 49.2663L163.069 48.8465Z" fill="black" mask="url(#path-66-inside-12_17739_161509)"/>
<path d="M261.8 75.8061C266.446 75.8061 270.221 71.9591 270.221 67.2032C270.221 62.4473 266.446 58.6002 261.8 58.6002C257.154 58.6002 253.379 62.4473 253.379 67.2032C253.379 71.9591 257.154 75.8061 261.8 75.8061Z" fill="#8AC80E" stroke="#222222" stroke-width="0.463519"/>
<path d="M259.49 71.0146C259.095 71.0146 258.702 70.837 258.439 70.5001L255.862 67.2123C255.533 66.792 255.6 66.1786 256.011 65.8418C256.423 65.5065 257.023 65.5745 257.353 65.9947L259.586 68.8454L266.418 63.5875C266.84 63.2631 267.438 63.3496 267.755 63.7791C268.071 64.2086 267.988 64.8205 267.568 65.1434L260.256 70.7674C260.025 70.9343 259.756 71.0146 259.49 71.0146Z" fill="white"/>
<path d="M228.402 188.614C228.371 185.841 227.714 183.774 227.708 183.755C227.714 183.774 228.374 185.838 228.402 188.614Z" fill="url(#paint1_linear_17739_161509)"/>
<path d="M293.096 176.065C293.122 173.913 293.758 172.315 293.763 172.305C293.758 172.315 293.125 173.916 293.096 176.065Z" fill="url(#paint2_linear_17739_161509)"/>
<path d="M290.29 166.059C290.311 164.247 290.853 162.901 290.856 162.897C290.853 162.903 290.314 164.25 290.29 166.059Z" fill="url(#paint3_linear_17739_161509)"/>
<path d="M180.172 89.7495C179.687 89.7495 179.242 89.6358 178.837 89.4084C178.432 89.181 178.11 88.867 177.873 88.4665C177.635 88.0611 177.517 87.6038 177.517 87.0945C177.517 86.5902 177.635 86.1378 177.873 85.7373C178.11 85.3319 178.432 85.0155 178.837 84.788C179.242 84.5606 179.687 84.4469 180.172 84.4469C180.661 84.4469 181.106 84.5606 181.507 84.788C181.912 85.0155 182.231 85.3319 182.464 85.7373C182.701 86.1378 182.819 86.5902 182.819 87.0945C182.819 87.6038 182.701 88.0611 182.464 88.4665C182.231 88.867 181.912 89.181 181.507 89.4084C181.101 89.6358 180.656 89.7495 180.172 89.7495ZM180.172 88.8225C180.483 88.8225 180.758 88.7533 180.995 88.6149C181.232 88.4715 181.418 88.2688 181.551 88.0067C181.685 87.7447 181.752 87.4406 181.752 87.0945C181.752 86.7484 181.685 86.4468 181.551 86.1897C181.418 85.9277 181.232 85.7274 180.995 85.589C180.758 85.4506 180.483 85.3813 180.172 85.3813C179.86 85.3813 179.584 85.4506 179.341 85.589C179.104 85.7274 178.919 85.9277 178.785 86.1897C178.652 86.4468 178.585 86.7484 178.585 87.0945C178.585 87.4406 178.652 87.7447 178.785 88.0067C178.919 88.2688 179.104 88.4715 179.341 88.6149C179.584 88.7533 179.86 88.8225 180.172 88.8225ZM186.32 89.6976L185.178 87.6804H184.688V89.6976H183.65V84.521H185.593C185.993 84.521 186.335 84.5927 186.616 84.7361C186.898 84.8746 187.108 85.0649 187.247 85.3072C187.39 85.5445 187.462 85.8115 187.462 86.1081C187.462 86.4493 187.363 86.7583 187.165 87.0352C186.967 87.3071 186.673 87.495 186.283 87.5988L187.521 89.6976H186.32ZM184.688 86.9017H185.556C185.838 86.9017 186.048 86.8349 186.186 86.7014C186.325 86.563 186.394 86.3727 186.394 86.1304C186.394 85.8931 186.325 85.7101 186.186 85.5816C186.048 85.4481 185.838 85.3813 185.556 85.3813H184.688V86.9017ZM190.268 84.521C190.812 84.521 191.289 84.6273 191.7 84.8399C192.115 85.0526 192.434 85.3566 192.657 85.7522C192.884 86.1427 192.998 86.5976 192.998 87.1168C192.998 87.6359 192.884 88.0908 192.657 88.4814C192.434 88.867 192.115 89.1661 191.7 89.3787C191.289 89.5913 190.812 89.6976 190.268 89.6976H188.459V84.521H190.268ZM190.231 88.8151C190.775 88.8151 191.196 88.6668 191.492 88.3701C191.789 88.0735 191.937 87.6557 191.937 87.1168C191.937 86.5778 191.789 86.1576 191.492 85.856C191.196 85.5494 190.775 85.3962 190.231 85.3962H189.497V88.8151H190.231ZM194.871 85.3591V86.6569H196.614V87.4802H194.871V88.8522H196.836V89.6976H193.833V84.5136H196.836V85.3591H194.871ZM200.508 89.6976L199.366 87.6804H198.876V89.6976H197.838V84.521H199.781C200.181 84.521 200.523 84.5927 200.804 84.7361C201.086 84.8746 201.296 85.0649 201.435 85.3072C201.578 85.5445 201.65 85.8115 201.65 86.1081C201.65 86.4493 201.551 86.7583 201.353 87.0352C201.155 87.3071 200.861 87.495 200.471 87.5988L201.709 89.6976H200.508ZM198.876 86.9017H199.744C200.026 86.9017 200.236 86.8349 200.374 86.7014C200.513 86.563 200.582 86.3727 200.582 86.1304C200.582 85.8931 200.513 85.7101 200.374 85.5816C200.236 85.4481 200.026 85.3813 199.744 85.3813H198.876V86.9017Z" fill="white"/>
<defs>
<filter id="filter0_d_17739_161509" x="68.9357" y="158.062" width="25.2139" height="37.2948" filterUnits="userSpaceOnUse" color-interpolation-filters="sRGB">
<feFlood flood-opacity="0" result="BackgroundImageFix"/>
<feColorMatrix in="SourceAlpha" type="matrix" values="0 0 0 0 0 0 0 0 0 0 0 0 0 0 0 0 0 0 127 0" result="hardAlpha"/>
<feOffset dy="0.463519"/>
<feGaussianBlur stdDeviation="0.23176"/>
<feComposite in2="hardAlpha" operator="out"/>
<feColorMatrix type="matrix" values="0 0 0 0 0 0 0 0 0 0 0 0 0 0 0 0 0 0 0.25 0"/>
<feBlend mode="normal" in2="BackgroundImageFix" result="effect1_dropShadow_17739_161509"/>
<feBlend mode="normal" in="SourceGraphic" in2="effect1_dropShadow_17739_161509" result="shape"/>
</filter>
<linearGradient id="paint0_linear_17739_161509" x1="206.117" y1="-364.197" x2="206.117" y2="256.718" gradientUnits="userSpaceOnUse">
<stop stop-color="#DDDCDC"/>
<stop offset="0.223542" stop-color="#DDDCDC"/>
<stop offset="1" stop-color="#9ECDDE"/>
</linearGradient>
<linearGradient id="paint1_linear_17739_161509" x1="184.506" y1="-75.5516" x2="184.506" y2="233.461" gradientUnits="userSpaceOnUse">
<stop stop-color="#DDE4E3"/>
<stop offset="0.223542" stop-color="#DDE4E3"/>
<stop offset="1" stop-color="#D6E3E4"/>
</linearGradient>
<linearGradient id="paint2_linear_17739_161509" x1="191.817" y1="-90.174" x2="191.817" y2="233.462" gradientUnits="userSpaceOnUse">
<stop stop-color="#DDE4E3"/>
<stop offset="0.223542" stop-color="#DDE4E3"/>
<stop offset="1" stop-color="#D6E3E4"/>
</linearGradient>
<linearGradient id="paint3_linear_17739_161509" x1="190.034" y1="-86.608" x2="190.034" y2="233.461" gradientUnits="userSpaceOnUse">
<stop stop-color="#DDE4E3"/>
<stop offset="0.223542" stop-color="#DDE4E3"/>
<stop offset="1" stop-color="#D6E3E4"/>
</linearGradient>
</defs>
</svg>