<svg width="329" height="213" viewBox="0 0 329 213" fill="none" xmlns="http://www.w3.org/2000/svg">
<path d="M0 20C0 8.9543 8.95431 0 20 0H309C320.046 0 329 8.95431 329 20V213H0V20Z" fill="#08A0F7"/>
<rect y="129" width="329" height="84" fill="#099AED"/>
<path d="M261.179 169C261.717 164.954 262 160.828 262 156.634C262 105.474 220.587 64 169.5 64C118.414 64 77 105.474 77 156.634C77 160.828 77.2836 164.954 77.8225 169H261.179Z" fill="white"/>
<path d="M165.016 179.271C103.441 179.271 53.5251 175.089 53.5251 169.93C53.5251 167.995 60.5528 166.196 72.585 164.705C76.6528 167.669 81.1535 169.314 85.8864 169.314H97.7844H221.057H258.724C261.672 169.314 264.457 168.17 266.925 166.136C273.086 167.294 276.508 168.579 276.508 169.93C276.508 175.089 226.591 179.271 165.016 179.271Z" fill="url(#paint0_linear_16684_146641)"/>
<g filter="url(#filter0_d_16684_146641)">
<mask id="path-5-inside-1_16684_146641" fill="white">
<path d="M80.5522 163.125C80.9015 162.87 81.6104 163.176 83.9134 162.214C87.2726 160.812 88.5843 153.564 88.5843 153.564C83.4728 152.921 83.7962 160.306 81.818 161.569C80.9255 162.139 80.5054 162.691 80.3125 163.125H80.5522Z"/>
</mask>
<path d="M80.5522 163.125C80.9015 162.87 81.6104 163.176 83.9134 162.214C87.2726 160.812 88.5843 153.564 88.5843 153.564C83.4728 152.921 83.7962 160.306 81.818 161.569C80.9255 162.139 80.5054 162.691 80.3125 163.125H80.5522Z" fill="#66E8C4"/>
<path d="M83.9134 162.214L83.824 162L83.8241 162L83.9134 162.214ZM88.5843 153.564L88.6132 153.334L88.8559 153.364L88.8123 153.605L88.5843 153.564ZM81.818 161.569L81.9427 161.764L81.9427 161.765L81.818 161.569ZM80.3125 163.125V163.357H79.9559L80.1007 163.031L80.3125 163.125ZM80.4154 162.938C80.5513 162.839 80.7097 162.804 80.8673 162.781C80.9476 162.769 81.0387 162.759 81.1354 162.748C81.2338 162.737 81.3427 162.724 81.4661 162.706C81.9556 162.633 82.6901 162.474 83.824 162L84.0027 162.428C82.8337 162.916 82.0622 163.086 81.5342 163.164C81.4033 163.184 81.2884 163.197 81.1886 163.209C81.0871 163.22 81.0058 163.229 80.9346 163.24C80.789 163.261 80.7278 163.284 80.689 163.312L80.4154 162.938ZM83.8241 162C84.6053 161.674 85.2857 160.999 85.8686 160.141C86.45 159.285 86.9213 158.266 87.2916 157.281C87.6615 156.298 87.928 155.357 88.102 154.662C88.1889 154.314 88.2527 154.028 88.2946 153.83C88.3155 153.731 88.331 153.653 88.3413 153.601C88.3464 153.575 88.3501 153.555 88.3526 153.542C88.3539 153.535 88.3548 153.53 88.3554 153.527C88.3557 153.525 88.3559 153.524 88.356 153.523C88.3561 153.523 88.3562 153.523 88.3562 153.522C88.3562 153.522 88.3562 153.522 88.3562 153.522C88.3562 153.522 88.3562 153.522 88.5843 153.564C88.8123 153.605 88.8123 153.605 88.8123 153.605C88.8123 153.605 88.8123 153.605 88.8122 153.605C88.8122 153.606 88.8121 153.606 88.812 153.607C88.8118 153.608 88.8116 153.609 88.8112 153.611C88.8105 153.615 88.8095 153.62 88.8082 153.627C88.8055 153.641 88.8015 153.662 88.7962 153.69C88.7855 153.744 88.7696 153.824 88.7481 153.926C88.7052 154.129 88.6402 154.42 88.5517 154.774C88.3748 155.481 88.1034 156.44 87.7254 157.445C87.348 158.448 86.8615 159.504 86.2521 160.401C85.6444 161.296 84.9011 162.053 84.0027 162.428L83.8241 162ZM88.5554 153.793C87.3404 153.641 86.4683 153.964 85.8004 154.541C85.122 155.127 84.6383 155.99 84.24 156.941C84.0416 157.415 83.8667 157.905 83.6995 158.388C83.5331 158.868 83.3731 159.343 83.2076 159.778C83.042 160.212 82.8669 160.616 82.6665 160.954C82.4667 161.292 82.2329 161.579 81.9427 161.764L81.6933 161.374C81.8977 161.243 82.0865 161.024 82.2677 160.718C82.4482 160.413 82.6123 160.038 82.7744 159.613C82.9367 159.187 83.0929 158.722 83.2615 158.236C83.4293 157.752 83.6081 157.25 83.8124 156.762C84.2194 155.79 84.7369 154.848 85.4973 154.19C86.2681 153.524 87.2725 153.165 88.6132 153.334L88.5554 153.793ZM81.9427 161.765C81.0801 162.315 80.6951 162.835 80.5243 163.22L80.1007 163.031C80.3158 162.547 80.7708 161.962 81.6934 161.374L81.9427 161.765ZM80.3125 162.894H80.5522V163.357H80.3125V162.894Z" fill="black" mask="url(#path-5-inside-1_16684_146641)"/>
<path d="M82.6643 162.154L82.6643 162.154C82.249 162.354 81.9157 162.573 81.646 162.794C82.1411 162.709 82.8445 162.536 83.8692 162.108L83.8692 162.108C84.6797 161.769 85.3758 161.074 85.965 160.206C86.5533 159.34 87.0284 158.312 87.4005 157.323C87.7724 156.334 88.0401 155.389 88.2149 154.69C88.3022 154.341 88.3663 154.054 88.4084 153.854C88.4142 153.827 88.4196 153.801 88.4245 153.777C88.3809 153.811 88.329 153.857 88.2689 153.919C88.016 154.177 87.626 154.705 87.1032 155.773C86.9631 156.06 86.819 156.366 86.6695 156.683C86.2619 157.548 85.8141 158.499 85.2973 159.372C84.5913 160.563 83.7432 161.633 82.6643 162.154Z" fill="#10673E" stroke="black" stroke-width="0.23176"/>
<mask id="path-8-inside-2_16684_146641" fill="white">
<path d="M78.3966 163.125H78.9503C79.3105 162.358 79.4261 160.915 78.2221 158.266C75.9943 153.364 74.8699 147.006 76.4225 145.136C76.4225 145.136 71.1059 148.935 72.3148 152.887C73.4493 156.597 79.1612 159.068 78.3966 163.125Z"/>
</mask>
<path d="M78.3966 163.125H78.9503C79.3105 162.358 79.4261 160.915 78.2221 158.266C75.9943 153.364 74.8699 147.006 76.4225 145.136C76.4225 145.136 71.1059 148.935 72.3148 152.887C73.4493 156.597 79.1612 159.068 78.3966 163.125Z" fill="#35BFE6"/>
<path d="M78.9503 163.125L79.1601 163.224L79.0975 163.357H78.9503V163.125ZM78.2221 158.266L78.0111 158.362L78.0111 158.362L78.2221 158.266ZM76.4225 145.136L76.2878 144.947L76.6009 145.284L76.4225 145.136ZM72.3148 152.887L72.5364 152.819L72.5364 152.819L72.3148 152.887ZM78.3966 162.894H78.9503V163.357H78.3966V162.894ZM78.7404 163.027C79.0586 162.349 79.2031 160.984 78.0111 158.362L78.4331 158.17C79.6491 160.845 79.5623 162.366 79.1601 163.224L78.7404 163.027ZM78.0111 158.362C76.8888 155.893 76.0443 153.057 75.6755 150.598C75.4911 149.369 75.4244 148.227 75.5045 147.268C75.584 146.316 75.8106 145.51 76.2442 144.988L76.6009 145.284C76.2582 145.696 76.0431 146.387 75.9664 147.306C75.8903 148.218 75.9528 149.323 76.1339 150.53C76.496 152.943 77.3276 155.738 78.4331 158.17L78.0111 158.362ZM76.4225 145.136C76.5573 145.324 76.5573 145.324 76.5573 145.324C76.5573 145.324 76.5573 145.324 76.5573 145.324C76.5572 145.324 76.557 145.324 76.5568 145.325C76.5563 145.325 76.5555 145.325 76.5543 145.326C76.5521 145.328 76.5486 145.33 76.5439 145.334C76.5345 145.341 76.5203 145.351 76.5016 145.365C76.4642 145.393 76.4091 145.435 76.339 145.489C76.1989 145.599 75.9992 145.76 75.763 145.966C75.29 146.378 74.6733 146.967 74.0949 147.676C72.9275 149.107 71.9679 150.961 72.5364 152.819L72.0932 152.955C71.4528 150.861 72.5471 148.84 73.7358 147.383C74.3354 146.648 74.9723 146.04 75.4584 145.616C75.7018 145.404 75.908 145.238 76.0539 145.124C76.1268 145.067 76.1847 145.023 76.2247 144.993C76.2446 144.978 76.2601 144.967 76.2708 144.959C76.2761 144.955 76.2802 144.952 76.283 144.95C76.2845 144.949 76.2856 144.949 76.2864 144.948C76.2868 144.948 76.2871 144.948 76.2873 144.947C76.2874 144.947 76.2876 144.947 76.2876 144.947C76.2877 144.947 76.2878 144.947 76.4225 145.136ZM72.5364 152.819C72.8068 153.703 73.3539 154.525 74.029 155.332C74.7074 156.144 75.4903 156.912 76.2378 157.718C77.7068 159.301 79.0304 161.014 78.6243 163.168L78.1688 163.082C78.5275 161.179 77.3773 159.628 75.898 158.033C75.1713 157.25 74.3612 156.452 73.6734 155.63C72.9824 154.804 72.39 153.925 72.0932 152.955L72.5364 152.819Z" fill="black" mask="url(#path-8-inside-2_16684_146641)"/>
<mask id="path-10-inside-3_16684_146641" fill="white">
<path d="M78.6219 163.125H78.9507C79.3108 162.358 79.4262 160.915 78.2222 158.266C75.9944 153.364 74.87 147.006 76.4226 145.136C76.4226 145.136 72.9134 149.048 74.245 152.794C75.5594 156.494 79.6099 158.42 78.6219 163.125Z"/>
</mask>
<path d="M78.6219 163.125H78.9507C79.3108 162.358 79.4262 160.915 78.2222 158.266C75.9944 153.364 74.87 147.006 76.4226 145.136C76.4226 145.136 72.9134 149.048 74.245 152.794C75.5594 156.494 79.6099 158.42 78.6219 163.125Z" fill="#10673E"/>
<path d="M78.9507 163.125L79.1605 163.224L79.098 163.357H78.9507V163.125ZM78.2222 158.266L78.0112 158.362L78.0112 158.362L78.2222 158.266ZM76.4226 145.136L76.25 144.981L76.6009 145.284L76.4226 145.136ZM74.245 152.794L74.4633 152.717L74.4633 152.717L74.245 152.794ZM78.6219 162.894H78.9507V163.357H78.6219V162.894ZM78.7409 163.027C79.0589 162.349 79.2032 160.984 78.0112 158.362L78.4332 158.17C79.6492 160.845 79.5627 162.366 79.1605 163.224L78.7409 163.027ZM78.0112 158.362C76.8889 155.893 76.0444 153.057 75.6755 150.598C75.4911 149.369 75.4244 148.227 75.5045 147.268C75.584 146.316 75.8107 145.51 76.2443 144.988L76.6009 145.284C76.2582 145.696 76.0432 146.387 75.9664 147.306C75.8903 148.218 75.9528 149.323 76.1339 150.53C76.4961 152.943 77.3277 155.738 78.4332 158.17L78.0112 158.362ZM76.4226 145.136C76.5951 145.29 76.5952 145.29 76.5952 145.29C76.5952 145.29 76.5952 145.29 76.5952 145.29C76.5951 145.29 76.595 145.29 76.5949 145.291C76.5946 145.291 76.5941 145.291 76.5934 145.292C76.592 145.294 76.5898 145.296 76.5867 145.3C76.5807 145.307 76.5715 145.317 76.5594 145.331C76.5352 145.36 76.4993 145.402 76.4539 145.458C76.363 145.569 76.2339 145.733 76.0828 145.941C75.7801 146.359 75.3906 146.954 75.0424 147.662C74.3427 149.086 73.8283 150.93 74.4633 152.717L74.0266 152.872C73.33 150.912 73.9045 148.927 74.6264 147.458C74.9891 146.72 75.3937 146.103 75.7074 145.67C75.8644 145.453 75.9991 145.282 76.0949 145.164C76.1428 145.106 76.1811 145.06 76.2076 145.03C76.2209 145.014 76.2312 145.002 76.2384 144.994C76.242 144.99 76.2447 144.987 76.2467 144.985C76.2477 144.983 76.2484 144.983 76.249 144.982C76.2493 144.982 76.2495 144.981 76.2497 144.981C76.2498 144.981 76.2499 144.981 76.2499 144.981C76.25 144.981 76.25 144.981 76.4226 145.136ZM74.4633 152.717C74.7817 153.613 75.2676 154.407 75.8114 155.173C76.0835 155.557 76.3679 155.931 76.6529 156.308C76.937 156.685 77.2212 157.063 77.4878 157.451C78.5594 159.01 79.361 160.733 78.8487 163.173L78.3951 163.078C78.8708 160.812 78.1412 159.22 77.1059 157.714C76.8458 157.336 76.5673 156.964 76.2831 156.588C75.9997 156.213 75.7103 155.832 75.4333 155.442C74.8788 154.66 74.3655 153.826 74.0266 152.872L74.4633 152.717Z" fill="black" mask="url(#path-10-inside-3_16684_146641)"/>
<mask id="path-12-inside-4_16684_146641" fill="white">
<path d="M73.1466 161.053C75.1699 161.879 76.0355 162.429 76.5997 163.125H77.3099C76.779 161.516 76.4623 159.794 75.216 158.493C73.801 157.015 68.3473 154.581 68.1601 154.3C67.9728 154.017 70.4137 159.937 73.1466 161.053Z"/>
</mask>
<path d="M73.1466 161.053C75.1699 161.879 76.0355 162.429 76.5997 163.125H77.3099C76.779 161.516 76.4623 159.794 75.216 158.493C73.801 157.015 68.3473 154.581 68.1601 154.3C67.9728 154.017 70.4137 159.937 73.1466 161.053Z" fill="#34A770"/>
<path d="M76.5997 163.125V163.357H76.4893L76.4197 163.271L76.5997 163.125ZM77.3099 163.125L77.53 163.053L77.6304 163.357H77.3099V163.125ZM75.216 158.493L75.0487 158.653L75.0486 158.653L75.216 158.493ZM68.1601 154.3L67.9672 154.428L67.9669 154.428L68.1601 154.3ZM73.2342 160.838C75.2612 161.666 76.1758 162.234 76.7798 162.979L76.4197 163.271C75.8953 162.624 75.0786 162.092 73.0589 161.267L73.2342 160.838ZM76.5997 162.894H77.3099V163.357H76.5997V162.894ZM77.0898 163.198C76.8163 162.369 76.6149 161.567 76.3146 160.776C76.0194 159.997 75.6425 159.273 75.0487 158.653L75.3834 158.333C76.0359 159.014 76.4405 159.801 76.7479 160.611C77.0502 161.408 77.2726 162.272 77.53 163.053L77.0898 163.198ZM75.0486 158.653C74.7169 158.307 74.1328 157.891 73.4211 157.451C72.7144 157.015 71.8994 156.566 71.1192 156.153C70.3381 155.739 69.5986 155.364 69.0358 155.072C68.7558 154.926 68.5185 154.801 68.3446 154.702C68.258 154.653 68.1836 154.608 68.1263 154.57C68.0978 154.551 68.0703 154.532 68.0465 154.512C68.0269 154.496 67.9932 154.467 67.9672 154.428L68.3531 154.172C68.3388 154.15 68.3271 154.143 68.3392 154.153C68.3471 154.159 68.361 154.17 68.3831 154.184C68.4269 154.213 68.4903 154.252 68.5734 154.299C68.7391 154.393 68.9697 154.515 69.2495 154.66C69.8061 154.95 70.5535 155.328 71.3361 155.743C72.1196 156.158 72.945 156.612 73.6647 157.057C74.3793 157.498 75.0076 157.94 75.3834 158.333L75.0486 158.653ZM67.9669 154.428C67.9676 154.429 67.97 154.433 67.9739 154.437C67.9767 154.441 67.9862 154.453 68.0015 154.466C68.0092 154.473 68.0239 154.485 68.0448 154.496C68.0642 154.506 68.1042 154.523 68.1579 154.522C68.2202 154.52 68.278 154.493 68.3193 154.449C68.3549 154.412 68.3685 154.372 68.374 154.352C68.3844 154.313 68.3816 154.282 68.3811 154.276C68.3803 154.266 68.3788 154.258 68.3783 154.255C68.3772 154.25 68.3764 154.248 68.3776 154.252C68.3826 154.269 68.3972 154.31 68.4241 154.378C68.4762 154.51 68.5651 154.718 68.6865 154.982C68.9291 155.509 69.2986 156.25 69.7582 157.035C70.2183 157.82 70.7658 158.643 71.3637 159.336C71.9645 160.033 72.6007 160.58 73.2342 160.838L73.059 161.267C72.326 160.968 71.6322 160.357 71.0127 159.639C70.3901 158.917 69.8266 158.068 69.3583 157.269C68.8896 156.469 68.5132 155.714 68.2654 155.176C68.1416 154.907 68.0492 154.69 67.993 154.548C67.9658 154.479 67.9444 154.421 67.9329 154.382C67.93 154.372 67.9263 154.359 67.9235 154.345C67.9221 154.338 67.9201 154.326 67.919 154.313C67.9184 154.304 67.9157 154.271 67.9264 154.231C67.9321 154.21 67.946 154.17 67.9819 154.132C68.0236 154.087 68.0819 154.06 68.1446 154.058C68.1988 154.057 68.2394 154.074 68.2596 154.085C68.2811 154.096 68.2965 154.109 68.3051 154.116C68.333 154.14 68.3503 154.167 68.3534 154.172L67.9669 154.428Z" fill="black" mask="url(#path-12-inside-4_16684_146641)"/>
<mask id="path-14-inside-5_16684_146641" fill="white">
<path d="M76.6856 162.67C76.7278 162.8 76.7896 162.956 76.8629 163.125H77.31C76.7789 161.516 76.4622 159.794 75.2159 158.493C73.8009 157.015 68.3472 154.581 68.16 154.3C68.16 154.3 70.8068 157.628 73.7509 159.149C75.8588 160.238 76.4166 161.848 76.6856 162.67Z"/>
</mask>
<path d="M76.6856 162.67C76.7278 162.8 76.7896 162.956 76.8629 163.125H77.31C76.7789 161.516 76.4622 159.794 75.2159 158.493C73.8009 157.015 68.3472 154.581 68.16 154.3C68.16 154.3 70.8068 157.628 73.7509 159.149C75.8588 160.238 76.4166 161.848 76.6856 162.67Z" fill="#0FA1B8"/>
<path d="M76.8629 163.125V163.357H76.7106L76.6502 163.217L76.8629 163.125ZM77.31 163.125L77.53 163.053L77.6305 163.357H77.31V163.125ZM75.2159 158.493L75.0486 158.653L75.0485 158.653L75.2159 158.493ZM68.16 154.3L67.967 154.428L68.3414 154.156L68.16 154.3ZM73.7509 159.149L73.8573 158.943L73.8574 158.943L73.7509 159.149ZM76.9058 162.598C76.945 162.718 77.0037 162.867 77.0756 163.033L76.6502 163.217C76.5755 163.045 76.5107 162.881 76.4653 162.743L76.9058 162.598ZM76.8629 162.894H77.31V163.357H76.8629V162.894ZM77.0899 163.198C76.8163 162.369 76.6148 161.567 76.3145 160.776C76.0193 159.997 75.6424 159.273 75.0486 158.653L75.3833 158.333C76.0358 159.014 76.4404 159.801 76.7478 160.611C77.0502 161.408 77.2726 162.272 77.53 163.053L77.0899 163.198ZM75.0485 158.653C74.7168 158.307 74.1327 157.891 73.421 157.451C72.7143 157.015 71.8993 156.566 71.119 156.153C70.3379 155.739 69.5985 155.364 69.0356 155.072C68.7557 154.926 68.5184 154.801 68.3445 154.702C68.2579 154.653 68.1835 154.608 68.1262 154.57C68.0977 154.551 68.0702 154.532 68.0464 154.512C68.0267 154.496 67.993 154.467 67.967 154.428L68.353 154.172C68.3387 154.15 68.327 154.143 68.3391 154.153C68.3469 154.159 68.3609 154.17 68.383 154.184C68.4268 154.213 68.4901 154.252 68.5733 154.299C68.739 154.393 68.9696 154.515 69.2494 154.66C69.8059 154.95 70.5534 155.328 71.336 155.743C72.1195 156.158 72.9449 156.612 73.6645 157.057C74.3792 157.498 75.0075 157.94 75.3833 158.333L75.0485 158.653ZM68.16 154.3C68.3414 154.156 68.3414 154.156 68.3414 154.156C68.3414 154.156 68.3414 154.156 68.3414 154.156C68.3415 154.156 68.3416 154.156 68.3417 154.156C68.342 154.156 68.3424 154.157 68.343 154.158C68.3441 154.159 68.3459 154.161 68.3484 154.164C68.3532 154.17 68.3606 154.179 68.3703 154.192C68.3899 154.216 68.4192 154.251 68.4577 154.298C68.5347 154.39 68.6483 154.525 68.7939 154.691C69.0853 155.023 69.5044 155.483 70.0147 155.989C71.0382 157.005 72.4163 158.198 73.8573 158.943L73.6446 159.355C72.1415 158.578 70.7241 157.347 69.6882 156.318C69.1688 155.803 68.7422 155.335 68.4453 154.996C68.2968 154.827 68.1806 154.689 68.1013 154.594C68.0617 154.546 68.0312 154.509 68.0106 154.484C68.0003 154.471 67.9924 154.461 67.9871 154.455C67.9844 154.451 67.9824 154.449 67.9809 154.447C67.9802 154.446 67.9797 154.446 67.9793 154.445C67.9791 154.445 67.979 154.445 67.9789 154.444C67.9788 154.444 67.9788 154.444 67.9787 154.444C67.9787 154.444 67.9787 154.444 68.16 154.3ZM73.8574 158.943C76.0468 160.075 76.6305 161.757 76.9058 162.598L76.4653 162.743C76.2027 161.939 75.6707 160.402 73.6445 159.355L73.8574 158.943Z" fill="black" mask="url(#path-14-inside-5_16684_146641)"/>
<mask id="path-16-inside-6_16684_146641" fill="white">
<path d="M79.9319 160.801C79.8637 161.772 79.6451 162.547 79.4128 163.125H79.7998C81.1279 161.406 83.1706 158.069 82.7882 154.174C82.2292 148.48 81.621 141.341 81.621 141.341C81.621 141.341 74.146 147.024 77.8242 153.328C79.6583 156.47 80.0601 158.977 79.9319 160.801Z"/>
</mask>
<path d="M79.9319 160.801C79.8637 161.772 79.6451 162.547 79.4128 163.125H79.7998C81.1279 161.406 83.1706 158.069 82.7882 154.174C82.2292 148.48 81.621 141.341 81.621 141.341C81.621 141.341 74.146 147.024 77.8242 153.328C79.6583 156.47 80.0601 158.977 79.9319 160.801Z" fill="#66E8C7"/>
<path d="M79.4128 163.125V163.357H79.0701L79.1978 163.039L79.4128 163.125ZM79.7998 163.125L79.9833 163.267L79.9137 163.357H79.7998V163.125ZM82.7882 154.174L83.0188 154.151L83.0188 154.151L82.7882 154.174ZM81.621 141.341L81.4808 141.157L81.8162 140.902L81.8519 141.322L81.621 141.341ZM77.8242 153.328L77.6241 153.444L77.6241 153.444L77.8242 153.328ZM80.1631 160.818C80.093 161.815 79.8683 162.613 79.6279 163.212L79.1978 163.039C79.422 162.48 79.6343 161.73 79.7007 160.785L80.1631 160.818ZM79.4128 162.894H79.7998V163.357H79.4128V162.894ZM79.6164 162.984C80.9335 161.279 82.9312 158.002 82.5575 154.196L83.0188 154.151C83.4101 158.137 81.3224 161.534 79.9833 163.267L79.6164 162.984ZM82.5575 154.196C82.2779 151.348 81.986 148.14 81.7641 145.643C81.6531 144.395 81.5596 143.324 81.4939 142.566C81.461 142.187 81.4351 141.885 81.4173 141.679C81.4085 141.576 81.4017 141.496 81.3971 141.443C81.3948 141.416 81.393 141.395 81.3919 141.382C81.3913 141.375 81.3908 141.37 81.3905 141.366C81.3904 141.365 81.3903 141.363 81.3902 141.362C81.3902 141.362 81.3901 141.362 81.3901 141.361C81.3901 141.361 81.3901 141.361 81.3901 141.361C81.3901 141.361 81.3901 141.361 81.621 141.341C81.8519 141.322 81.8519 141.322 81.8519 141.322C81.852 141.322 81.852 141.322 81.852 141.322C81.852 141.322 81.852 141.323 81.852 141.323C81.8521 141.324 81.8522 141.325 81.8524 141.327C81.8527 141.33 81.8531 141.335 81.8537 141.342C81.8549 141.356 81.8566 141.376 81.8589 141.403C81.8635 141.457 81.8703 141.536 81.8791 141.639C81.8969 141.846 81.9228 142.147 81.9557 142.526C82.0214 143.284 82.1149 144.354 82.2258 145.602C82.4477 148.098 82.7394 151.305 83.0188 154.151L82.5575 154.196ZM81.621 141.341C81.7613 141.526 81.7613 141.526 81.7613 141.526C81.7613 141.526 81.7613 141.526 81.7612 141.526C81.7611 141.526 81.7608 141.526 81.7605 141.526C81.7598 141.527 81.7586 141.528 81.757 141.529C81.7538 141.532 81.7489 141.535 81.7422 141.541C81.729 141.551 81.709 141.567 81.6829 141.588C81.6307 141.629 81.5539 141.692 81.4571 141.774C81.2635 141.939 80.99 142.182 80.6728 142.493C80.0377 143.116 79.2309 144.01 78.5387 145.095C77.1534 147.267 76.2471 150.165 78.0244 153.211L77.6241 153.444C75.7231 150.187 76.7152 147.092 78.1479 144.846C78.8646 143.723 79.6967 142.802 80.3482 142.162C80.6743 141.842 80.9561 141.592 81.1569 141.421C81.2573 141.336 81.3375 141.27 81.393 141.226C81.4208 141.204 81.4423 141.187 81.4571 141.175C81.4645 141.169 81.4703 141.165 81.4742 141.162C81.4762 141.16 81.4777 141.159 81.4788 141.158C81.4794 141.158 81.4798 141.158 81.4801 141.157C81.4803 141.157 81.4804 141.157 81.4805 141.157C81.4807 141.157 81.4808 141.157 81.621 141.341ZM78.0244 153.211C79.879 156.389 80.2949 158.941 80.1631 160.818L79.7007 160.785C79.8253 159.012 79.4375 156.552 77.6241 153.444L78.0244 153.211Z" fill="black" mask="url(#path-16-inside-6_16684_146641)"/>
<mask id="path-18-inside-7_16684_146641" fill="white">
<path d="M80.3107 150.297C81.0686 155.016 81.0783 160.298 79.8705 162.534C80.0908 162.379 80.3264 162.213 80.5674 162.046C81.7842 160.188 83.1015 157.368 82.7879 154.174C82.2289 148.48 81.6208 141.341 81.6208 141.341C81.6208 141.341 79.3242 144.157 80.3107 150.297Z"/>
</mask>
<path d="M80.3107 150.297C81.0686 155.016 81.0783 160.298 79.8705 162.534C80.0908 162.379 80.3264 162.213 80.5674 162.046C81.7842 160.188 83.1015 157.368 82.7879 154.174C82.2289 148.48 81.6208 141.341 81.6208 141.341C81.6208 141.341 79.3242 144.157 80.3107 150.297Z" fill="#34A770"/>
<path d="M79.8705 162.534L80.0039 162.723L79.6666 162.424L79.8705 162.534ZM80.5674 162.046L80.7613 162.173L80.7365 162.211L80.6993 162.237L80.5674 162.046ZM82.7879 154.174L83.0186 154.151L83.0186 154.151L82.7879 154.174ZM81.6208 141.341L81.4412 141.195L81.8031 140.751L81.8517 141.322L81.6208 141.341ZM80.5395 150.26C80.9203 152.632 81.1136 155.146 81.0594 157.352C81.0055 159.547 80.7061 161.475 80.0744 162.644L79.6666 162.424C80.2427 161.357 80.5424 159.526 80.596 157.341C80.6494 155.167 80.4589 152.681 80.0818 150.334L80.5395 150.26ZM79.7371 162.344C79.9575 162.189 80.1937 162.023 80.4355 161.856L80.6993 162.237C80.4591 162.403 80.2242 162.568 80.0039 162.723L79.7371 162.344ZM80.3735 161.919C81.577 160.081 82.8635 157.316 82.5573 154.196L83.0186 154.151C83.3395 157.421 81.9914 160.294 80.7613 162.173L80.3735 161.919ZM82.5573 154.196C82.2777 151.349 81.9858 148.14 81.7639 145.643C81.6529 144.395 81.5594 143.324 81.4937 142.566C81.4608 142.187 81.4348 141.886 81.4171 141.679C81.4083 141.576 81.4014 141.496 81.3968 141.443C81.3946 141.416 81.3928 141.396 81.3916 141.382C81.3911 141.375 81.3906 141.37 81.3903 141.366C81.3902 141.365 81.3901 141.363 81.39 141.362C81.39 141.362 81.3899 141.362 81.3899 141.361C81.3899 141.361 81.3899 141.361 81.3899 141.361C81.3899 141.361 81.3899 141.361 81.6208 141.341C81.8517 141.322 81.8517 141.322 81.8517 141.322C81.8517 141.322 81.8517 141.322 81.8518 141.322C81.8518 141.322 81.8518 141.323 81.8518 141.323C81.8519 141.324 81.852 141.325 81.8522 141.327C81.8525 141.33 81.8529 141.336 81.8535 141.342C81.8546 141.356 81.8564 141.376 81.8587 141.403C81.8633 141.457 81.8701 141.536 81.8789 141.639C81.8966 141.846 81.9226 142.147 81.9554 142.526C82.0212 143.284 82.1147 144.354 82.2256 145.602C82.4475 148.098 82.7392 151.305 83.0186 154.151L82.5573 154.196ZM81.6208 141.341C81.8004 141.488 81.8005 141.488 81.8005 141.488C81.8006 141.488 81.8006 141.488 81.8006 141.488C81.8007 141.488 81.8007 141.488 81.8007 141.488C81.8007 141.488 81.8005 141.488 81.8002 141.488C81.7996 141.489 81.7984 141.49 81.7968 141.493C81.7934 141.497 81.788 141.504 81.7807 141.514C81.7661 141.533 81.7438 141.564 81.7153 141.605C81.6583 141.689 81.5763 141.816 81.48 141.99C81.2874 142.337 81.0378 142.865 80.8174 143.585C80.3771 145.022 80.0518 147.225 80.5395 150.26L80.0818 150.334C79.5831 147.229 79.9129 144.954 80.3742 143.449C80.6047 142.697 80.8675 142.138 81.0748 141.765C81.1784 141.578 81.268 141.438 81.3328 141.344C81.3651 141.296 81.3913 141.26 81.4098 141.236C81.4191 141.223 81.4264 141.214 81.4317 141.207C81.4344 141.204 81.4365 141.201 81.4381 141.199C81.4389 141.198 81.4395 141.197 81.4401 141.196C81.4403 141.196 81.4405 141.196 81.4407 141.196C81.4408 141.195 81.441 141.195 81.441 141.195C81.4411 141.195 81.4412 141.195 81.6208 141.341Z" fill="black" mask="url(#path-18-inside-7_16684_146641)"/>
<path d="M74.735 164.186L74.735 164.186L75.822 170.464C75.9811 171.3 76.7105 171.905 77.5594 171.905H82.5846C83.4334 171.905 84.1629 171.3 84.3219 170.464C84.322 170.464 84.322 170.463 84.3221 170.463L85.4091 164.186L85.4091 164.186C85.5259 163.512 85.008 162.896 84.3259 162.896H75.8181C75.136 162.896 74.6181 163.512 74.735 164.186Z" fill="#CADBF9" stroke="black" stroke-width="0.23176"/>
<path d="M74.7222 163.925H85.4221C85.3855 163.36 84.9179 162.896 84.3261 162.896H75.8182C75.2264 162.896 74.7588 163.36 74.7222 163.925Z" fill="#A1B7EB" stroke="black" stroke-width="0.23176"/>
<path d="M82.1838 170.506C82.067 171.122 81.6763 171.628 81.1525 171.905H82.5845C83.4334 171.905 84.1628 171.3 84.3218 170.464L85.409 164.186L85.409 164.186C85.5258 163.512 85.0079 162.896 84.3259 162.896H82.7105C83.1233 163.179 83.3648 163.688 83.2715 164.226C83.2715 164.226 83.2715 164.226 83.2715 164.226L82.1841 170.504L82.1842 170.504L82.1838 170.506Z" fill="#A1B7EB" stroke="black" stroke-width="0.23176"/>
</g>
<path d="M234.01 34.413C231.687 35.8585 228.635 35.1416 227.193 32.8111C225.753 30.4819 226.466 27.4202 228.79 25.9747C231.113 24.5305 234.165 25.2474 235.605 27.5766C237.047 29.9071 236.332 32.9675 234.01 34.413ZM241.286 30.4011C241.311 29.2424 241.134 28.0719 240.743 26.9431L243.265 24.7025L241.613 22.0305L238.504 23.2949C237.67 22.4281 236.697 21.7373 235.646 21.2368L235.847 17.8778L232.796 17.161L231.483 20.2761C230.329 20.2657 229.165 20.4573 228.045 20.8627L225.792 18.3132L223.129 19.9698L224.42 23.1645C223.596 23.987 222.937 24.9372 222.456 25.9617L218.989 25.7531L218.274 28.8122L221.511 30.1847C221.51 31.2926 221.691 32.4084 222.071 33.485L219.423 35.8377L221.075 38.5084L224.368 37.1697C225.16 37.974 226.071 38.6218 227.055 39.104L226.842 42.6611L229.892 43.3792L231.27 40.1116C232.375 40.1285 233.49 39.9578 234.568 39.5915L236.898 42.227L239.56 40.5691L238.255 37.3444C239.096 36.535 239.772 35.5965 240.27 34.5799L243.699 34.7871L244.414 31.7267L241.286 30.4011Z" fill="#A9CEEA"/>
<mask id="path-24-inside-8_16684_146641" fill="white">
<path d="M232.82 35.0322C230.497 36.4777 227.446 35.7609 226.004 33.4317C224.562 31.1011 225.277 28.0407 227.6 26.5952C229.924 25.1497 232.975 25.8666 234.416 28.1971C235.858 30.5263 235.143 33.5868 232.82 35.0322ZM240.097 31.0203C240.122 29.8616 239.945 28.6911 239.554 27.5637L242.076 25.3218L240.424 22.6511L237.315 23.9154C236.479 23.0473 235.508 22.3565 234.455 21.856L234.657 18.4971L231.606 17.7802L230.293 20.8954C229.14 20.8849 227.976 21.0765 226.856 21.4832L224.601 18.9324L221.939 20.5904L223.231 23.7837C222.406 24.6075 221.747 25.5564 221.266 26.5822L217.8 26.3723L217.085 29.4328L220.322 30.8053C220.319 31.9119 220.502 33.0276 220.881 34.1042L218.234 36.4569L219.886 39.1289L223.179 37.789C223.971 38.5932 224.882 39.2423 225.866 39.7233L225.652 43.2816L228.703 43.9985L230.08 40.7321C231.185 40.7477 232.301 40.577 233.379 40.2107L235.707 42.8462L238.37 41.1896L237.066 37.9636C237.907 37.1542 238.582 36.2157 239.081 35.1991L242.51 35.4076L243.225 32.3472L240.097 31.0203Z"/>
</mask>
<path d="M232.82 35.0322C230.497 36.4777 227.446 35.7609 226.004 33.4317C224.562 31.1011 225.277 28.0407 227.6 26.5952C229.924 25.1497 232.975 25.8666 234.416 28.1971C235.858 30.5263 235.143 33.5868 232.82 35.0322ZM240.097 31.0203C240.122 29.8616 239.945 28.6911 239.554 27.5637L242.076 25.3218L240.424 22.6511L237.315 23.9154C236.479 23.0473 235.508 22.3565 234.455 21.856L234.657 18.4971L231.606 17.7802L230.293 20.8954C229.14 20.8849 227.976 21.0765 226.856 21.4832L224.601 18.9324L221.939 20.5904L223.231 23.7837C222.406 24.6075 221.747 25.5564 221.266 26.5822L217.8 26.3723L217.085 29.4328L220.322 30.8053C220.319 31.9119 220.502 33.0276 220.881 34.1042L218.234 36.4569L219.886 39.1289L223.179 37.789C223.971 38.5932 224.882 39.2423 225.866 39.7233L225.652 43.2816L228.703 43.9985L230.08 40.7321C231.185 40.7477 232.301 40.577 233.379 40.2107L235.707 42.8462L238.37 41.1896L237.066 37.9636C237.907 37.1542 238.582 36.2157 239.081 35.1991L242.51 35.4076L243.225 32.3472L240.097 31.0203Z" fill="#C9E2F4"/>
<path d="M226.004 33.4317L225.61 33.6756L225.61 33.6755L226.004 33.4317ZM234.416 28.1971L234.022 28.4411L234.022 28.441L234.416 28.1971ZM239.554 27.5637L239.116 27.7156L239.014 27.423L239.246 27.2172L239.554 27.5637ZM242.076 25.3218L242.47 25.0779L242.675 25.4093L242.384 25.6682L242.076 25.3218ZM240.424 22.6511L240.249 22.2217L240.612 22.0742L240.818 22.4072L240.424 22.6511ZM237.315 23.9154L237.49 24.3447L237.199 24.463L236.981 24.2369L237.315 23.9154ZM234.455 21.856L234.256 22.2746L233.974 22.1404L233.993 21.8282L234.455 21.856ZM234.657 18.4971L234.763 18.0458L235.143 18.1351L235.12 18.5248L234.657 18.4971ZM231.606 17.7802L231.179 17.6002L231.331 17.2394L231.712 17.329L231.606 17.7802ZM230.293 20.8954L230.72 21.0754L230.599 21.3617L230.289 21.3589L230.293 20.8954ZM226.856 21.4832L227.014 21.9189L226.717 22.0265L226.508 21.7901L226.856 21.4832ZM224.601 18.9324L224.356 18.5389L224.689 18.3317L224.949 18.6255L224.601 18.9324ZM221.939 20.5904L221.509 20.7642L221.363 20.4029L221.694 20.1969L221.939 20.5904ZM223.231 23.7837L223.661 23.6099L223.776 23.8948L223.559 24.1118L223.231 23.7837ZM221.266 26.5822L221.685 26.779L221.552 27.0639L221.237 27.0449L221.266 26.5822ZM217.8 26.3723L217.348 26.2669L217.437 25.886L217.828 25.9097L217.8 26.3723ZM217.085 29.4328L216.904 29.8595L216.545 29.7072L216.633 29.3273L217.085 29.4328ZM220.322 30.8053L220.503 30.3785L220.786 30.4986L220.785 30.8063L220.322 30.8053ZM220.881 34.1042L221.318 33.9506L221.421 34.244L221.189 34.4507L220.881 34.1042ZM218.234 36.4569L217.84 36.7007L217.635 36.3693L217.926 36.1104L218.234 36.4569ZM219.886 39.1289L220.061 39.5582L219.698 39.7059L219.492 39.3727L219.886 39.1289ZM223.179 37.789L223.004 37.3596L223.292 37.2427L223.509 37.4638L223.179 37.789ZM225.866 39.7233L226.07 39.3068L226.347 39.4426L226.329 39.7511L225.866 39.7233ZM225.652 43.2816L225.546 43.7328L225.166 43.6435L225.189 43.2537L225.652 43.2816ZM228.703 43.9985L229.13 44.1785L228.978 44.5392L228.597 44.4497L228.703 43.9985ZM230.08 40.7321L229.652 40.5521L229.774 40.2642L230.086 40.2686L230.08 40.7321ZM233.379 40.2107L233.23 39.7719L233.522 39.6726L233.726 39.9038L233.379 40.2107ZM235.707 42.8462L235.952 43.2398L235.619 43.4469L235.36 43.1531L235.707 42.8462ZM238.37 41.1896L238.799 41.0159L238.945 41.3773L238.614 41.5832L238.37 41.1896ZM237.066 37.9636L236.636 38.1373L236.519 37.8469L236.744 37.6297L237.066 37.9636ZM239.081 35.1991L238.665 34.9948L238.801 34.7177L239.109 34.7364L239.081 35.1991ZM242.51 35.4076L242.961 35.5131L242.872 35.894L242.482 35.8703L242.51 35.4076ZM243.225 32.3472L243.406 31.9205L243.765 32.0728L243.676 32.4527L243.225 32.3472ZM233.065 35.4258C230.523 37.0071 227.186 36.2223 225.61 33.6756L226.398 33.1877C227.705 35.2994 230.47 35.9484 232.575 34.6387L233.065 35.4258ZM225.61 33.6755C224.034 31.1282 224.815 27.7825 227.356 26.2017L227.845 26.9888C225.74 28.299 225.091 31.0741 226.398 33.1878L225.61 33.6755ZM227.356 26.2017C229.897 24.6203 233.234 25.4052 234.811 27.9533L234.022 28.441C232.715 26.328 229.95 25.6791 227.845 26.9888L227.356 26.2017ZM234.81 27.9532C236.386 30.4993 235.605 33.8451 233.065 35.4258L232.575 34.6387C234.681 33.3285 235.33 30.5534 234.022 28.4411L234.81 27.9532ZM239.634 31.0104C239.657 29.9055 239.489 28.7899 239.116 27.7156L239.992 27.4117C240.402 28.5923 240.587 29.8177 240.561 31.0302L239.634 31.0104ZM239.246 27.2172L241.768 24.9753L242.384 25.6682L239.862 27.9101L239.246 27.2172ZM241.682 25.5656L240.029 22.8949L240.818 22.4072L242.47 25.0779L241.682 25.5656ZM240.598 23.0804L237.49 24.3447L237.141 23.486L240.249 22.2217L240.598 23.0804ZM236.981 24.2369C236.185 23.4097 235.26 22.7515 234.256 22.2746L234.654 21.4374C235.757 21.9615 236.774 22.6849 237.649 23.5939L236.981 24.2369ZM233.993 21.8282L234.194 18.4693L235.12 18.5248L234.918 21.8837L233.993 21.8282ZM234.551 18.9483L231.5 18.2314L231.712 17.329L234.763 18.0458L234.551 18.9483ZM232.033 17.9602L230.72 21.0754L229.866 20.7153L231.179 17.6002L232.033 17.9602ZM230.289 21.3589C229.19 21.3489 228.081 21.5315 227.014 21.9189L226.697 21.0475C227.871 20.6216 229.09 20.4209 230.297 20.4319L230.289 21.3589ZM226.508 21.7901L224.254 19.2393L224.949 18.6255L227.203 21.1763L226.508 21.7901ZM224.846 19.3259L222.184 20.9838L221.694 20.1969L224.356 18.5389L224.846 19.3259ZM222.369 20.4165L223.661 23.6099L222.801 23.9576L221.509 20.7642L222.369 20.4165ZM223.559 24.1118C222.772 24.8969 222.144 25.8012 221.685 26.779L220.846 26.3854C221.349 25.3116 222.039 24.3181 222.904 23.4556L223.559 24.1118ZM221.237 27.0449L217.772 26.835L217.828 25.9097L221.294 26.1195L221.237 27.0449ZM218.251 26.4778L217.536 29.5382L216.633 29.3273L217.348 26.2669L218.251 26.4778ZM217.266 29.006L220.503 30.3785L220.141 31.232L216.904 29.8595L217.266 29.006ZM220.785 30.8063C220.783 31.861 220.957 32.9243 221.318 33.9506L220.443 34.2579C220.047 33.1308 219.855 31.9627 219.858 30.8042L220.785 30.8063ZM221.189 34.4507L218.542 36.8033L217.926 36.1104L220.573 33.7578L221.189 34.4507ZM218.628 36.2131L220.28 38.8851L219.492 39.3727L217.84 36.7007L218.628 36.2131ZM219.712 38.6996L223.004 37.3596L223.354 38.2183L220.061 39.5582L219.712 38.6996ZM223.509 37.4638C224.264 38.2301 225.132 38.8485 226.07 39.3068L225.663 40.1397C224.632 39.6361 223.678 38.9563 222.849 38.1142L223.509 37.4638ZM226.329 39.7511L226.114 43.3095L225.189 43.2537L225.404 39.6954L226.329 39.7511ZM225.758 42.8304L228.809 43.5472L228.597 44.4497L225.546 43.7328L225.758 42.8304ZM228.276 43.8184L229.652 40.5521L230.507 40.9121L229.13 44.1785L228.276 43.8184ZM230.086 40.2686C231.139 40.2835 232.203 40.1208 233.23 39.7719L233.528 40.6496C232.4 41.0331 231.23 41.2119 230.073 41.1956L230.086 40.2686ZM233.726 39.9038L236.055 42.5394L235.36 43.1531L233.032 40.5176L233.726 39.9038ZM235.462 42.4527L238.125 40.7961L238.614 41.5832L235.952 43.2398L235.462 42.4527ZM237.94 41.3633L236.636 38.1373L237.495 37.7899L238.799 41.0159L237.94 41.3633ZM236.744 37.6297C237.546 36.8586 238.189 35.9644 238.665 34.9948L239.497 35.4034C238.974 36.4671 238.268 37.4498 237.387 38.2976L236.744 37.6297ZM239.109 34.7364L242.538 34.945L242.482 35.8703L239.053 35.6617L239.109 34.7364ZM242.059 35.3022L242.774 32.2418L243.676 32.4527L242.961 35.5131L242.059 35.3022ZM243.044 32.7739L239.916 31.447L240.278 30.5936L243.406 31.9205L243.044 32.7739Z" fill="black" mask="url(#path-24-inside-8_16684_146641)"/>
<path d="M217.8 26.3725L218.829 26.4351L218.989 25.7534L217.8 26.3725Z" fill="#A9CEEA"/>
<path d="M231.605 17.7798L232.796 17.1607L232.452 17.9792L231.605 17.7798Z" fill="#A9CEEA"/>
<path d="M224.601 18.9323L225.792 18.3132L224.67 19.0105L224.601 18.9323Z" fill="#A9CEEA"/>
<path d="M228.703 43.9985L229.892 43.3793L229.047 43.1799L228.703 43.9985Z" fill="#A9CEEA"/>
<path d="M242.51 35.4074L243.699 34.787L242.67 34.7244L242.51 35.4074Z" fill="#A9CEEA"/>
<path d="M235.707 42.8458L236.898 42.2267L236.829 42.1485L235.707 42.8458Z" fill="#A9CEEA"/>
<path d="M152.172 167.43H186.061C185.896 167.228 185.68 166.946 185.431 166.58C184.861 165.741 184.12 164.461 183.426 162.688C182.055 159.178 180.874 153.741 181.571 145.974H155.416C155.417 145.978 155.418 145.982 155.419 145.986C155.467 146.193 155.528 146.503 155.585 146.923C155.698 147.763 155.791 149.041 155.716 150.81C155.569 154.302 154.767 159.708 152.172 167.43Z" fill="#92BFF7" stroke="black" stroke-width="0.463519"/>
<path d="M155.415 145.974C155.421 145.998 155.427 146.024 155.433 146.051C155.488 146.302 155.557 146.677 155.616 147.187C155.73 148.167 155.804 149.641 155.667 151.671H181.385C181.337 149.93 181.386 148.036 181.57 145.974H155.415Z" fill="#5F9BDD" stroke="black" stroke-width="0.463519"/>
<mask id="path-34-inside-9_16684_146641" fill="white">
<path d="M230.654 148.143H105.395C103.61 148.143 102.163 146.692 102.163 144.903V66.9372C102.163 65.3744 103.426 64.1075 104.986 64.1075H231.062C232.621 64.1075 233.886 65.3744 233.886 66.9372V144.903C233.886 146.692 232.439 148.143 230.654 148.143Z"/>
</mask>
<path d="M230.654 148.143H105.395C103.61 148.143 102.163 146.692 102.163 144.903V66.9372C102.163 65.3744 103.426 64.1075 104.986 64.1075H231.062C232.621 64.1075 233.886 65.3744 233.886 66.9372V144.903C233.886 146.692 232.439 148.143 230.654 148.143Z" fill="#92BFF7"/>
<path d="M230.654 148.606H105.395V147.679H230.654V148.606ZM105.395 148.606C103.353 148.606 101.699 146.947 101.699 144.903H102.626C102.626 146.437 103.867 147.679 105.395 147.679V148.606ZM101.699 144.903V66.9372H102.626V144.903H101.699ZM101.699 66.9372C101.699 65.1194 103.169 63.644 104.986 63.644V64.571C103.683 64.571 102.626 65.6293 102.626 66.9372H101.699ZM104.986 63.644H231.062V64.571H104.986V63.644ZM231.062 63.644C232.878 63.644 234.349 65.1193 234.349 66.9372H233.422C233.422 65.6295 232.364 64.571 231.062 64.571V63.644ZM234.349 66.9372V144.903H233.422V66.9372H234.349ZM234.349 144.903C234.349 146.947 232.696 148.606 230.654 148.606V147.679C232.182 147.679 233.422 146.437 233.422 144.903H234.349Z" fill="black" mask="url(#path-34-inside-9_16684_146641)"/>
<path d="M103.31 146.061V68.0437C103.31 66.494 104.585 65.2375 106.158 65.2375H232.185C232.675 65.2375 233.129 65.3704 233.532 65.5855C233.051 64.7096 232.12 64.1074 231.037 64.1074H105.01C103.438 64.1074 102.163 65.3626 102.163 66.9124V144.931C102.163 146.108 102.807 147.135 103.766 147.694C103.478 147.215 103.31 146.658 103.31 146.061Z" fill="#5283A8"/>
<mask id="path-37-inside-10_16684_146641" fill="white">
<path d="M228.097 137.364H107.951C107.868 137.364 107.8 137.296 107.8 137.212V69.1647C107.8 69.0813 107.868 69.0135 107.951 69.0135H228.097C228.18 69.0135 228.248 69.0813 228.248 69.1647V137.212C228.248 137.296 228.18 137.364 228.097 137.364Z"/>
</mask>
<path d="M228.097 137.364H107.951C107.868 137.364 107.8 137.296 107.8 137.212V69.1647C107.8 69.0813 107.868 69.0135 107.951 69.0135H228.097C228.18 69.0135 228.248 69.0813 228.248 69.1647V137.212C228.248 137.296 228.18 137.364 228.097 137.364Z" fill="#1D3B77"/>
<path d="M228.097 137.827H107.951V136.9H228.097V137.827ZM107.951 137.827C107.611 137.827 107.337 137.551 107.337 137.212H108.264C108.264 137.041 108.125 136.9 107.951 136.9V137.827ZM107.337 137.212V69.1647H108.264V137.212H107.337ZM107.337 69.1647C107.337 68.8262 107.611 68.55 107.951 68.55V69.4771C108.125 69.4771 108.264 69.3365 108.264 69.1647H107.337ZM107.951 68.55H228.097V69.4771H107.951V68.55ZM228.097 68.55C228.437 68.55 228.711 68.8264 228.711 69.1647H227.784C227.784 69.3362 227.923 69.4771 228.097 69.4771V68.55ZM228.711 69.1647V137.212H227.784V69.1647H228.711ZM228.711 137.212C228.711 137.551 228.437 137.827 228.097 137.827V136.9C227.923 136.9 227.784 137.041 227.784 137.212H228.711Z" fill="black" mask="url(#path-37-inside-10_16684_146641)"/>
<path d="M108.032 74.0797V137.132H228.016V74.0797H108.032Z" fill="#29478C" stroke="black" stroke-width="0.463519"/>
<path d="M200.218 166.519H134.345L131.718 172.838H202.845L200.218 166.519Z" fill="#83B6ED" stroke="black" stroke-width="0.463519"/>
<path d="M169.211 145.073C170.493 145.073 171.551 143.964 171.551 142.575C171.551 141.184 170.493 140.076 169.211 140.076C167.928 140.076 166.872 141.184 166.872 142.575C166.872 143.964 167.928 145.073 169.211 145.073Z" fill="#5F9BDD" stroke="black" stroke-width="0.347639"/>
<path d="M164.65 129.959H124.705C123.796 129.959 123.059 129.469 123.059 128.864C123.059 128.261 123.796 127.77 124.705 127.77H164.65C165.559 127.77 166.296 128.261 166.296 128.864C166.296 129.469 165.559 129.959 164.65 129.959Z" fill="#9BAED3"/>
<path d="M142.901 125.582H124.705C123.796 125.582 123.059 125.092 123.059 124.488C123.059 123.883 123.796 123.393 124.705 123.393H142.901C143.811 123.393 144.548 123.883 144.548 124.488C144.548 125.092 143.811 125.582 142.901 125.582Z" fill="#9BAED3"/>
<path d="M130.931 108.884H200.843C201.171 108.884 201.436 108.618 201.436 108.29V107.36C201.436 107.033 201.171 106.766 200.843 106.766H130.931C130.604 106.766 130.338 107.033 130.338 107.36V108.29C130.338 108.618 130.604 108.884 130.931 108.884Z" fill="#9BAED3"/>
<path d="M130.931 100.036H200.843C201.171 100.036 201.436 99.7705 201.436 99.4434V98.514C201.436 98.1856 201.171 97.9197 200.843 97.9197H130.931C130.604 97.9197 130.338 98.1856 130.338 98.514V99.4434C130.338 99.7705 130.604 100.036 130.931 100.036Z" fill="#9BAED3"/>
<path d="M130.931 117.352H200.843C201.171 117.352 201.436 117.086 201.436 116.758V115.83C201.436 115.501 201.171 115.235 200.843 115.235H130.931C130.604 115.235 130.338 115.501 130.338 115.83V116.758C130.338 117.086 130.604 117.352 130.931 117.352Z" fill="#9BAED3"/>
<path d="M204.121 110.736H210.167C210.239 110.736 210.296 110.679 210.296 110.607V105.043C210.296 104.971 210.239 104.914 210.167 104.914H204.121C204.05 104.914 203.992 104.971 203.992 105.043V110.607C203.992 110.679 204.05 110.736 204.121 110.736Z" fill="#08A0F7"/>
<path d="M204.121 101.89H210.167C210.239 101.89 210.296 101.831 210.296 101.76V96.1962C210.296 96.1245 210.239 96.0671 210.167 96.0671H204.121C204.05 96.0671 203.992 96.1245 203.992 96.1962V101.76C203.992 101.831 204.05 101.89 204.121 101.89Z" fill="#08A0F7"/>
<path d="M204.121 119.204H210.167C210.239 119.204 210.296 119.147 210.296 119.075V113.511C210.296 113.441 210.239 113.382 210.167 113.382H204.121C204.05 113.382 203.992 113.441 203.992 113.512V119.075C203.992 119.147 204.05 119.204 204.121 119.204Z" fill="#08A0F7"/>
<path d="M123.355 90.4079H209.999C210.163 90.4079 210.296 90.2749 210.296 90.1107V89.6467C210.296 89.4824 210.163 89.3495 209.999 89.3495H123.355C123.192 89.3495 123.059 89.4824 123.059 89.6467V90.1107C123.059 90.2749 123.192 90.4079 123.355 90.4079Z" fill="#9BAED3"/>
<path d="M207.304 100.343C207.038 100.343 206.774 100.225 206.597 100.004L204.866 97.8336C204.645 97.556 204.689 97.1506 204.966 96.929C205.243 96.7074 205.646 96.7518 205.867 97.0294L207.368 98.9115L211.961 95.4405C212.243 95.2268 212.646 95.2841 212.859 95.5669C213.073 95.8511 213.015 96.2539 212.733 96.4676L207.819 100.181C207.663 100.289 207.483 100.343 207.304 100.343Z" fill="white"/>
<path d="M207.305 109.591C207.038 109.591 206.774 109.474 206.597 109.253L204.866 107.081C204.645 106.805 204.689 106.399 204.966 106.178C205.243 105.956 205.646 106.001 205.867 106.278L207.368 108.16L211.961 104.689C212.243 104.476 212.646 104.532 212.859 104.816C213.073 105.1 213.015 105.503 212.733 105.716L207.819 109.429C207.663 109.538 207.483 109.591 207.305 109.591Z" fill="white"/>
<path d="M207.305 117.6C207.038 117.6 206.774 117.484 206.597 117.261L204.866 115.091C204.645 114.813 204.689 114.408 204.966 114.186C205.243 113.965 205.646 114.009 205.867 114.287L207.368 116.169L211.961 112.699C212.243 112.484 212.646 112.541 212.859 112.825C213.073 113.108 213.015 113.512 212.733 113.726L207.819 117.438C207.663 117.548 207.483 117.6 207.305 117.6Z" fill="white"/>
<path d="M124.574 96.4374H124.559L123.725 96.8597L123.578 96.2054L124.686 95.658H125.408V100.226H124.574V96.4374Z" fill="#9BAED3"/>
<path d="M127.035 99.7481C127.035 99.4248 127.259 99.1928 127.567 99.1928C127.883 99.1928 128.1 99.4183 128.1 99.7481C128.1 100.065 127.89 100.303 127.567 100.303C127.252 100.303 127.035 100.065 127.035 99.7481Z" fill="#9BAED3"/>
<path d="M123.221 108.661V108.134L123.76 107.635C124.833 106.637 125.337 106.089 125.345 105.484C125.345 105.076 125.127 104.718 124.532 104.718C124.132 104.718 123.789 104.923 123.557 105.097L123.305 104.486C123.634 104.219 124.132 104.015 124.707 104.015C125.716 104.015 126.207 104.655 126.207 105.4C126.207 106.201 125.632 106.848 124.84 107.586L124.44 107.93V107.944H126.312V108.661H123.221Z" fill="#9BAED3"/>
<path d="M127.035 108.184C127.035 107.86 127.259 107.627 127.567 107.627C127.883 107.627 128.1 107.853 128.1 108.184C128.1 108.499 127.89 108.739 127.567 108.739C127.252 108.739 127.035 108.499 127.035 108.184Z" fill="#9BAED3"/>
<path d="M123.396 116.204C123.571 116.309 123.999 116.484 124.433 116.484C125.092 116.484 125.359 116.112 125.352 115.754C125.352 115.213 124.847 114.981 124.321 114.981H123.922V114.348H124.307C124.707 114.348 125.211 114.165 125.211 113.709C125.211 113.399 124.98 113.139 124.482 113.139C124.111 113.139 123.739 113.301 123.55 113.427L123.354 112.802C123.613 112.619 124.118 112.45 124.665 112.45C125.604 112.45 126.088 112.97 126.088 113.568C126.088 114.045 125.807 114.439 125.246 114.636V114.65C125.8 114.749 126.249 115.17 126.249 115.789C126.249 116.562 125.604 117.173 124.475 117.173C123.922 117.173 123.445 117.018 123.199 116.857L123.396 116.204Z" fill="#9BAED3"/>
<path d="M127.035 116.618C127.035 116.295 127.259 116.063 127.567 116.063C127.883 116.063 128.1 116.288 128.1 116.618C128.1 116.935 127.89 117.173 127.567 117.173C127.252 117.173 127.035 116.935 127.035 116.618Z" fill="#9BAED3"/>
<mask id="path-60-inside-11_16684_146641" fill="white">
<path d="M169.365 54.0568L148.547 54.1415L148.48 37.5972L148.474 36.1908L152.614 36.1739L154.534 37.5725L169.299 37.5125L169.365 54.0568Z"/>
</mask>
<path d="M169.365 54.0568L148.547 54.1415L148.48 37.5972L148.474 36.1908L152.614 36.1739L154.534 37.5725L169.299 37.5125L169.365 54.0568Z" fill="#F3B344"/>
<path d="M148.547 54.1415L148.548 54.6051L148.085 54.6069L148.083 54.1434L148.547 54.1415ZM148.48 37.5972L148.017 37.5991L148.017 37.5991L148.48 37.5972ZM148.474 36.1908L148.011 36.1927L148.009 35.7292L148.473 35.7273L148.474 36.1908ZM152.614 36.1739L152.612 35.7104L152.764 35.7098L152.887 35.7992L152.614 36.1739ZM154.534 37.5725L154.536 38.036L154.384 38.0366L154.261 37.9472L154.534 37.5725ZM169.299 37.5125L169.297 37.049L169.761 37.0471L169.762 37.5106L169.299 37.5125ZM169.367 54.5203L148.548 54.6051L148.545 53.678L169.363 53.5933L169.367 54.5203ZM148.083 54.1434L148.017 37.5991L148.944 37.5954L149.01 54.1397L148.083 54.1434ZM148.017 37.5991L148.011 36.1927L148.938 36.189L148.944 37.5954L148.017 37.5991ZM148.473 35.7273L152.612 35.7104L152.616 36.6374L148.476 36.6544L148.473 35.7273ZM152.887 35.7992L154.807 37.1978L154.261 37.9472L152.341 36.5486L152.887 35.7992ZM154.532 37.109L169.297 37.049L169.301 37.976L154.536 38.036L154.532 37.109ZM169.762 37.5106L169.829 54.055L168.902 54.0587L168.835 37.5144L169.762 37.5106Z" fill="black" mask="url(#path-60-inside-11_16684_146641)"/>
<path d="M149.329 39.2637L149.332 40.016L168.513 39.9387L168.51 39.1864L149.329 39.2637Z" fill="#F1F2F2" stroke="black" stroke-width="0.23176"/>
<path d="M169.786 54.4597L169.786 54.4597C169.996 54.459 170.185 54.2763 170.184 54.0277C170.184 54.0277 170.184 54.0276 170.184 54.0276L170.131 40.7094V40.7092C170.13 40.4612 169.94 40.2799 169.729 40.2807C169.729 40.2807 169.729 40.2807 169.729 40.2807L147.641 40.3706H147.641C147.43 40.3714 147.242 40.5542 147.243 40.8013C147.243 40.8014 147.243 40.8014 147.243 40.8014L147.296 54.121L147.296 54.121C147.297 54.3679 147.486 54.5491 147.697 54.5484C147.697 54.5484 147.697 54.5484 147.697 54.5484L169.786 54.4597Z" fill="#F9A300" stroke="black" stroke-width="0.463519"/>
<path d="M169.071 53.0075L169.071 53.0075C169.275 53.0067 169.441 52.8393 169.44 52.6328L169.392 40.6544C169.391 40.448 169.225 40.2822 169.019 40.283C169.019 40.283 169.019 40.283 169.019 40.283L147.612 40.3703H147.612C147.407 40.3711 147.241 40.5378 147.242 40.7437C147.242 40.7438 147.242 40.7438 147.242 40.7438L147.29 52.7221C147.29 52.7221 147.29 52.7222 147.29 52.7222C147.291 52.9286 147.458 53.0943 147.663 53.0935C147.663 53.0935 147.663 53.0935 147.663 53.0935L169.071 53.0075Z" fill="#FFC300" stroke="black" stroke-width="0.463519"/>
<mask id="path-65-inside-12_16684_146641" fill="white">
<path d="M155.844 44.246C157.211 43.0364 157.774 41.4306 158.63 40.0933L147.611 40.1389C147.278 40.1402 147.009 40.4113 147.01 40.745L147.045 49.3841C148.843 48.5408 152.719 47.0092 155.844 44.246Z"/>
</mask>
<path d="M155.844 44.246C157.211 43.0364 157.774 41.4306 158.63 40.0933L147.611 40.1389C147.278 40.1402 147.009 40.4113 147.01 40.745L147.045 49.3841C148.843 48.5408 152.719 47.0092 155.844 44.246Z" fill="#FDDB81"/>
<path d="M158.63 40.0933L158.629 39.8615L159.055 39.8598L158.825 40.2182L158.63 40.0933ZM147.611 40.1389L147.612 40.3707L147.612 40.3707L147.611 40.1389ZM147.01 40.745L146.779 40.7459L146.779 40.7459L147.01 40.745ZM147.045 49.3841L147.143 49.5939L146.815 49.7481L146.813 49.385L147.045 49.3841ZM155.69 44.0724C156.347 43.4911 156.815 42.8112 157.228 42.101C157.435 41.7449 157.626 41.3857 157.822 41.0255C158.017 40.6673 158.216 40.31 158.435 39.9683L158.825 40.2182C158.616 40.5452 158.423 40.8902 158.229 41.247C158.036 41.6018 157.84 41.9704 157.629 42.334C157.205 43.0635 156.708 43.7913 155.997 44.4196L155.69 44.0724ZM158.631 40.325L147.612 40.3707L147.61 39.9071L158.629 39.8615L158.631 40.325ZM147.612 40.3707C147.407 40.3715 147.241 40.5382 147.242 40.7441L146.779 40.7459C146.777 40.2845 147.149 39.909 147.61 39.9071L147.612 40.3707ZM147.242 40.7441L147.277 49.3831L146.813 49.385L146.779 40.7459L147.242 40.7441ZM146.947 49.1742C148.761 48.3231 152.597 46.8077 155.69 44.0724L155.997 44.4196C152.841 47.2107 148.925 48.7584 147.143 49.5939L146.947 49.1742Z" fill="black" mask="url(#path-65-inside-12_16684_146641)"/>
<path d="M230.034 71.9139C233.922 71.9139 237.082 68.6861 237.082 64.6927C237.082 60.6994 233.922 57.4715 230.034 57.4715C226.146 57.4715 222.986 60.6994 222.986 64.6927C222.986 68.6861 226.146 71.9139 230.034 71.9139Z" fill="#8AC80E" stroke="#222222" stroke-width="0.463519"/>
<path d="M228.09 67.9081C227.758 67.9081 227.427 67.7582 227.206 67.474L225.038 64.7004C224.761 64.3458 224.817 63.8284 225.163 63.5442C225.51 63.2614 226.014 63.3188 226.292 63.6733L228.171 66.0781L233.92 61.6426C234.274 61.3688 234.778 61.4418 235.044 61.8042C235.311 62.1665 235.24 62.6827 234.887 62.9551L228.735 67.6995C228.54 67.8403 228.314 67.9081 228.09 67.9081Z" fill="white"/>
<path d="M201.933 167.115C201.907 164.776 201.355 163.032 201.349 163.016C201.355 163.032 201.91 164.773 201.933 167.115Z" fill="url(#paint1_linear_16684_146641)"/>
<path d="M256.366 156.529C256.388 154.713 256.923 153.366 256.927 153.357C256.923 153.366 256.391 154.716 256.366 156.529Z" fill="url(#paint2_linear_16684_146641)"/>
<path d="M254.005 148.088C254.023 146.559 254.479 145.424 254.482 145.42C254.479 145.425 254.025 146.562 254.005 148.088Z" fill="url(#paint3_linear_16684_146641)"/>
<path d="M156.005 84.0519C155.52 84.0519 155.075 83.9382 154.67 83.7108C154.264 83.4833 153.943 83.1694 153.706 82.7689C153.468 82.3635 153.35 81.9061 153.35 81.3969C153.35 80.8926 153.468 80.4402 153.706 80.0397C153.943 79.6343 154.264 79.3178 154.67 79.0904C155.075 78.863 155.52 78.7493 156.005 78.7493C156.494 78.7493 156.939 78.863 157.34 79.0904C157.745 79.3178 158.064 79.6343 158.296 80.0397C158.534 80.4402 158.652 80.8926 158.652 81.3969C158.652 81.9061 158.534 82.3635 158.296 82.7689C158.064 83.1694 157.745 83.4833 157.34 83.7108C156.934 83.9382 156.489 84.0519 156.005 84.0519ZM156.005 83.1249C156.316 83.1249 156.59 83.0557 156.828 82.9172C157.065 82.7738 157.251 82.5711 157.384 82.3091C157.518 82.047 157.584 81.743 157.584 81.3969C157.584 81.0508 157.518 80.7492 157.384 80.4921C157.251 80.23 157.065 80.0298 156.828 79.8914C156.59 79.7529 156.316 79.6837 156.005 79.6837C155.693 79.6837 155.416 79.7529 155.174 79.8914C154.937 80.0298 154.751 80.23 154.618 80.4921C154.484 80.7492 154.418 81.0508 154.418 81.3969C154.418 81.743 154.484 82.047 154.618 82.3091C154.751 82.5711 154.937 82.7738 155.174 82.9172C155.416 83.0557 155.693 83.1249 156.005 83.1249ZM162.152 84L161.01 81.9828H160.521V84H159.483V78.8234H161.426C161.826 78.8234 162.167 78.8951 162.449 79.0385C162.731 79.1769 162.941 79.3673 163.08 79.6095C163.223 79.8469 163.295 80.1139 163.295 80.4105C163.295 80.7517 163.196 81.0607 162.998 81.3375C162.8 81.6095 162.506 81.7974 162.115 81.9012L163.354 84H162.152ZM160.521 81.2041H161.389C161.67 81.2041 161.881 81.1373 162.019 81.0038C162.157 80.8654 162.227 80.675 162.227 80.4328C162.227 80.1954 162.157 80.0125 162.019 79.8839C161.881 79.7505 161.67 79.6837 161.389 79.6837H160.521V81.2041ZM166.101 78.8234C166.645 78.8234 167.122 78.9297 167.533 79.1423C167.948 79.3549 168.267 79.659 168.489 80.0545C168.717 80.4451 168.83 80.9 168.83 81.4191C168.83 81.9383 168.717 82.3931 168.489 82.7837C168.267 83.1694 167.948 83.4685 167.533 83.6811C167.122 83.8937 166.645 84 166.101 84H164.292V78.8234H166.101ZM166.064 83.1175C166.608 83.1175 167.028 82.9691 167.325 82.6725C167.622 82.3758 167.77 81.958 167.77 81.4191C167.77 80.8802 167.622 80.4599 167.325 80.1584C167.028 79.8518 166.608 79.6985 166.064 79.6985H165.33V83.1175H166.064ZM170.704 79.6615V80.9593H172.447V81.7825H170.704V83.1545H172.669V84H169.666V78.816H172.669V79.6615H170.704ZM176.341 84L175.198 81.9828H174.709V84H173.671V78.8234H175.614C176.014 78.8234 176.355 78.8951 176.637 79.0385C176.919 79.1769 177.129 79.3673 177.268 79.6095C177.411 79.8469 177.483 80.1139 177.483 80.4105C177.483 80.7517 177.384 81.0607 177.186 81.3375C176.988 81.6095 176.694 81.7974 176.303 81.9012L177.542 84H176.341ZM174.709 81.2041H175.577C175.858 81.2041 176.069 81.1373 176.207 81.0038C176.345 80.8654 176.415 80.675 176.415 80.4328C176.415 80.1954 176.345 80.0125 176.207 79.8839C176.069 79.7505 175.858 79.6837 175.577 79.6837H174.709V81.2041Z" fill="white"/>
<defs>
<filter id="filter0_d_16684_146641" x="67.6865" y="141.341" width="21.3617" height="31.6069" filterUnits="userSpaceOnUse" color-interpolation-filters="sRGB">
<feFlood flood-opacity="0" result="BackgroundImageFix"/>
<feColorMatrix in="SourceAlpha" type="matrix" values="0 0 0 0 0 0 0 0 0 0 0 0 0 0 0 0 0 0 127 0" result="hardAlpha"/>
<feOffset dy="0.463519"/>
<feGaussianBlur stdDeviation="0.23176"/>
<feComposite in2="hardAlpha" operator="out"/>
<feColorMatrix type="matrix" values="0 0 0 0 0 0 0 0 0 0 0 0 0 0 0 0 0 0 0.25 0"/>
<feBlend mode="normal" in2="BackgroundImageFix" result="effect1_dropShadow_16684_146641"/>
<feBlend mode="normal" in="SourceGraphic" in2="effect1_dropShadow_16684_146641" result="shape"/>
</filter>
<linearGradient id="paint0_linear_16684_146641" x1="183.183" y1="-299.237" x2="183.183" y2="224.568" gradientUnits="userSpaceOnUse">
<stop stop-color="#DDDCDC"/>
<stop offset="0.223542" stop-color="#DDDCDC"/>
<stop offset="1" stop-color="#9ECDDE"/>
</linearGradient>
<linearGradient id="paint1_linear_16684_146641" x1="164.999" y1="-55.7349" x2="164.999" y2="204.948" gradientUnits="userSpaceOnUse">
<stop stop-color="#DDE4E3"/>
<stop offset="0.223542" stop-color="#DDE4E3"/>
<stop offset="1" stop-color="#D6E3E4"/>
</linearGradient>
<linearGradient id="paint2_linear_16684_146641" x1="171.152" y1="-68.0708" x2="171.152" y2="204.949" gradientUnits="userSpaceOnUse">
<stop stop-color="#DDE4E3"/>
<stop offset="0.223542" stop-color="#DDE4E3"/>
<stop offset="1" stop-color="#D6E3E4"/>
</linearGradient>
<linearGradient id="paint3_linear_16684_146641" x1="169.651" y1="-65.0621" x2="169.651" y2="204.948" gradientUnits="userSpaceOnUse">
<stop stop-color="#DDE4E3"/>
<stop offset="0.223542" stop-color="#DDE4E3"/>
<stop offset="1" stop-color="#D6E3E4"/>
</linearGradient>
</defs>
</svg>
