<svg width="370" height="211" viewBox="0 0 370 211" fill="none" xmlns="http://www.w3.org/2000/svg">
<path d="M0 12C0 5.37258 5.37258 0 12 0H358C364.627 0 370 5.37258 370 12V211H0V12Z" fill="#F19F38"/>
<path d="M0 12C0 5.37259 5.37258 0 12 0H358C364.627 0 370 5.37258 370 12V139H0V12Z" fill="#FBA63C"/>
<path d="M188.15 44.1233L180.022 45.8342C178.926 46.065 177.851 45.3647 177.619 44.2705L175.906 36.1539C175.675 35.0597 176.376 33.9855 177.472 33.7547L185.6 32.0439C186.696 31.8131 187.771 32.5134 188.002 33.6075L189.716 41.7242C189.947 42.8183 189.245 43.8926 188.15 44.1233Z" stroke="#E2982F" stroke-width="0.391408" stroke-miterlimit="10" stroke-linecap="round" stroke-linejoin="round"/>
<path d="M182.294 36.4761L183.33 41.4018" stroke="#E2982F" stroke-width="0.391408" stroke-miterlimit="10" stroke-linecap="round" stroke-linejoin="round"/>
<path d="M185.277 38.4177L180.345 39.4562" stroke="#E2982F" stroke-width="0.391408" stroke-miterlimit="10" stroke-linecap="round" stroke-linejoin="round"/>
<path d="M270.093 130.912L261.965 132.623C260.87 132.853 259.794 132.153 259.563 131.059L257.85 122.942C257.618 121.848 258.32 120.774 259.415 120.543L267.543 118.832C268.639 118.602 269.715 119.302 269.946 120.396L271.659 128.513C271.89 129.607 271.189 130.681 270.093 130.912Z" stroke="#E2982F" stroke-width="0.391408" stroke-miterlimit="10" stroke-linecap="round" stroke-linejoin="round"/>
<path d="M266.133 123.619L263.38 127.836" stroke="#E2982F" stroke-width="0.391408" stroke-miterlimit="10" stroke-linecap="round" stroke-linejoin="round"/>
<path d="M266.867 127.1L262.643 124.351" stroke="#E2982F" stroke-width="0.391408" stroke-miterlimit="10" stroke-linecap="round" stroke-linejoin="round"/>
<path d="M157.341 183.562L149.045 183.085C147.926 183.021 147.073 182.062 147.137 180.944L147.615 172.661C147.679 171.543 148.639 170.691 149.759 170.755L158.054 171.232C159.173 171.296 160.026 172.255 159.962 173.373L159.484 181.657C159.416 182.775 158.456 183.63 157.341 183.562Z" stroke="#E2982F" stroke-width="0.391408" stroke-miterlimit="10" stroke-linecap="round" stroke-linejoin="round"/>
<path d="M156.066 177.308L151.03 177.017" stroke="#E2982F" stroke-width="0.391408" stroke-miterlimit="10" stroke-linecap="round" stroke-linejoin="round"/>
<path d="M104.337 125.66L96.4526 123.05C95.3888 122.7 94.8111 121.554 95.1657 120.491L97.7794 112.617C98.13 111.555 99.2775 110.978 100.341 111.332L108.226 113.942C109.29 114.293 109.868 115.438 109.513 116.501L106.899 124.375C106.549 125.437 105.401 126.01 104.337 125.66Z" stroke="#E2982F" stroke-width="0.391408" stroke-miterlimit="10" stroke-linecap="round" stroke-linejoin="round"/>
<path d="M105.493 116.915L99.1863 120.078" stroke="#E2982F" stroke-width="0.391408" stroke-miterlimit="10" stroke-linecap="round" stroke-linejoin="round"/>
<path d="M101.876 115.614C102.095 116.047 101.92 116.576 101.486 116.795C101.051 117.014 100.521 116.839 100.302 116.405C100.083 115.972 100.258 115.442 100.693 115.224C101.127 115.005 101.657 115.18 101.876 115.614Z" stroke="#E2982F" stroke-width="0.391408" stroke-miterlimit="10" stroke-linecap="round" stroke-linejoin="round"/>
<path d="M104.378 120.591C104.597 121.025 104.422 121.554 103.987 121.773C103.553 121.992 103.023 121.816 102.804 121.383C102.585 120.949 102.76 120.42 103.195 120.201C103.633 119.982 104.163 120.157 104.378 120.591Z" stroke="#E2982F" stroke-width="0.391408" stroke-miterlimit="10" stroke-linecap="round" stroke-linejoin="round"/>
<path d="M186.114 169.263C183.811 172.593 179.237 173.425 175.902 171.125C174.615 170.234 173.703 169.008 173.193 167.648C172.392 165.479 172.623 162.969 174.037 160.923C175.026 159.499 176.428 158.532 177.97 158.075C180.034 157.454 182.345 157.748 184.253 159.065C187.588 161.365 188.421 165.933 186.114 169.263Z" fill="#E2982F"/>
<path opacity="0.3" d="M185.158 168.598C183.218 171.399 179.373 172.1 176.564 170.162C173.759 168.224 173.058 164.385 174.998 161.58C176.939 158.779 180.784 158.079 183.592 160.016C186.397 161.958 187.099 165.797 185.158 168.598Z" fill="black" fill-opacity="0.7"/>
<path d="M185.158 168.598C183.218 171.399 179.373 172.1 176.564 170.162C173.759 168.224 173.058 164.385 174.998 161.58C176.939 158.779 180.784 158.079 183.592 160.016C186.397 161.958 187.099 165.797 185.158 168.598Z" stroke="#263238" stroke-width="0.391408" stroke-miterlimit="10" stroke-linecap="round" stroke-linejoin="round"/>
<path d="M181.659 162.014L181.954 161.584L182.695 162.097L182.4 162.527C182.954 163.104 182.938 163.824 182.4 164.604L182.273 164.787L181.416 164.194L181.58 163.955C181.866 163.545 181.807 163.275 181.52 163.076C181.233 162.877 180.958 162.921 180.675 163.331C180.392 163.74 180.356 164.142 180.631 165.049C180.962 166.156 180.906 166.784 180.448 167.441C179.906 168.22 179.221 168.491 178.488 168.177L178.197 168.598L177.456 168.085L177.747 167.663C177.185 167.083 177.205 166.354 177.747 165.571L178.022 165.177L178.878 165.77L178.564 166.223C178.277 166.633 178.356 166.907 178.647 167.106C178.934 167.305 179.221 167.281 179.504 166.872C179.787 166.462 179.831 166.052 179.548 165.153C179.209 164.055 179.273 163.418 179.731 162.762C180.265 161.99 180.93 161.715 181.659 162.014Z" fill="#E2982F" stroke="#263238" stroke-width="0.391408" stroke-miterlimit="10" stroke-linecap="round" stroke-linejoin="round"/>
<path opacity="0.2" d="M178.03 159.153C178.03 162.766 176.089 165.925 173.193 167.648C172.392 165.479 172.623 162.969 174.038 160.924C175.026 159.499 176.428 158.532 177.97 158.075C178.01 158.429 178.03 158.787 178.03 159.153Z" fill="black" fill-opacity="0.7"/>
<path d="M186.114 169.263C183.811 172.593 179.237 173.425 175.902 171.125C174.615 170.234 173.703 169.008 173.193 167.648C172.392 165.479 172.623 162.969 174.037 160.923C175.026 159.499 176.428 158.532 177.97 158.075C180.034 157.454 182.345 157.748 184.253 159.065C187.588 161.365 188.421 165.933 186.114 169.263Z" stroke="#263238" stroke-width="0.391408" stroke-miterlimit="10" stroke-linecap="round" stroke-linejoin="round"/>
<path d="M169.596 166.259C173.651 166.259 176.939 162.976 176.939 158.926C176.939 154.876 173.651 151.593 169.596 151.593C165.54 151.593 162.253 154.876 162.253 158.926C162.253 162.976 165.54 166.259 169.596 166.259Z" fill="#E2982F" stroke="#263238" stroke-width="0.391408" stroke-miterlimit="10" stroke-linecap="round" stroke-linejoin="round"/>
<path opacity="0.3" d="M169.596 165.093C173.007 165.093 175.772 162.332 175.772 158.926C175.772 155.52 173.007 152.759 169.596 152.759C166.186 152.759 163.421 155.52 163.421 158.926C163.421 162.332 166.186 165.093 169.596 165.093Z" fill="black" fill-opacity="0.7"/>
<path d="M169.596 165.093C173.007 165.093 175.772 162.332 175.772 158.926C175.772 155.52 173.007 152.759 169.596 152.759C166.186 152.759 163.421 155.52 163.421 158.926C163.421 162.332 166.186 165.093 169.596 165.093Z" stroke="#263238" stroke-width="0.391408" stroke-miterlimit="10" stroke-linecap="round" stroke-linejoin="round"/>
<path d="M169.145 155.493V154.971H170.046V155.493C170.827 155.652 171.229 156.253 171.229 157.203V157.422H170.185V157.132C170.185 156.631 169.986 156.44 169.635 156.44C169.285 156.44 169.085 156.631 169.085 157.132C169.085 157.633 169.285 157.983 170.026 158.572C170.926 159.292 171.237 159.841 171.237 160.641C171.237 161.592 170.827 162.201 170.046 162.36V162.869H169.145V162.36C168.352 162.201 167.954 161.588 167.954 160.641V160.16H168.998V160.709C168.998 161.21 169.217 161.389 169.568 161.389C169.918 161.389 170.137 161.21 170.137 160.709C170.137 160.207 169.938 159.849 169.197 159.268C168.297 158.556 167.986 157.999 167.986 157.196C167.982 156.264 168.372 155.664 169.145 155.493Z" fill="#E2982F" stroke="#263238" stroke-width="0.391408" stroke-miterlimit="10" stroke-linecap="round" stroke-linejoin="round"/>
<path d="M210.806 165.078C212.994 161.668 212 157.132 208.585 154.947C205.171 152.762 200.629 153.756 198.441 157.165C196.253 160.575 197.247 165.111 200.662 167.296C204.077 169.481 208.619 168.488 210.806 165.078Z" fill="#E2982F" stroke="#263238" stroke-width="0.391408" stroke-miterlimit="10" stroke-linecap="round" stroke-linejoin="round"/>
<path opacity="0.3" d="M209.147 156.933C211.47 159.428 211.323 163.331 208.824 165.65C206.326 167.97 202.418 167.823 200.095 165.328C197.772 162.833 197.92 158.93 200.418 156.611C202.92 154.295 206.828 154.438 209.147 156.933Z" fill="black" fill-opacity="0.7"/>
<path d="M209.147 156.933C211.47 159.428 211.323 163.331 208.824 165.65C206.326 167.97 202.418 167.823 200.095 165.328C197.772 162.833 197.92 158.93 200.418 156.611C202.92 154.295 206.828 154.438 209.147 156.933Z" stroke="#263238" stroke-width="0.391408" stroke-miterlimit="10" stroke-linecap="round" stroke-linejoin="round"/>
<path d="M201.955 158.926L201.6 158.544L202.262 157.931L202.616 158.313C203.298 157.9 203.999 158.067 204.648 158.763L204.8 158.926L204.035 159.634L203.836 159.424C203.493 159.057 203.218 159.053 202.963 159.292C202.708 159.531 202.688 159.805 203.031 160.172C203.373 160.538 203.756 160.657 204.704 160.585C205.856 160.502 206.457 160.693 207.003 161.278C207.652 161.974 207.764 162.702 207.302 163.347L207.649 163.721L206.987 164.333L206.64 163.959C205.951 164.381 205.242 164.206 204.597 163.51L204.27 163.16L205.035 162.451L205.409 162.853C205.752 163.219 206.035 163.203 206.29 162.965C206.545 162.726 206.585 162.443 206.246 162.077C205.903 161.711 205.513 161.584 204.573 161.664C203.429 161.755 202.82 161.556 202.274 160.971C201.628 160.279 201.505 159.575 201.955 158.926Z" fill="#E2982F" stroke="#263238" stroke-width="0.391408" stroke-miterlimit="10" stroke-linecap="round" stroke-linejoin="round"/>
<path opacity="0.2" d="M201.601 129.261C201.601 129.261 201.569 144.475 201.601 145.363C201.633 146.25 202.784 151.593 202.784 151.593L199.087 158.401L202.27 160.963L208.466 154.88C208.466 154.88 213.741 158.134 214.705 162.789C215.669 167.445 221.41 170.834 227.367 183.726C233.323 196.617 240.116 154.88 240.116 154.88L221.737 131.771L201.601 129.261Z" fill="black" fill-opacity="0.7"/>
<path d="M257.786 47.5211L252.156 102.38L248.694 136.128L200.309 131.178L190.894 130.215L184.866 129.599L190.209 77.5169L193.958 40.9919L257.786 47.5211Z" fill="white"/>
<path d="M239.247 49.5701L211.696 46.7492C211.178 46.6974 210.716 47.0714 210.664 47.5887C210.612 48.1059 210.987 48.5675 211.504 48.6192L239.056 51.4401C239.573 51.4918 240.036 51.1178 240.087 50.6006C240.143 50.0834 239.765 49.6218 239.247 49.5701Z" fill="#263238"/>
<path d="M231.969 52.7054L218.191 51.2969C217.932 51.269 217.701 51.46 217.673 51.7147C217.646 51.9733 217.837 52.204 218.092 52.2319L231.869 53.6404C232.128 53.6682 232.359 53.4772 232.387 53.2226C232.415 52.964 232.228 52.7332 231.969 52.7054Z" fill="#263238"/>
<path d="M247.125 93.1972L202.406 88.6217C202.147 88.5938 201.916 88.7848 201.888 89.0394C201.86 89.298 202.052 89.5288 202.307 89.5567L247.026 94.1322C247.285 94.1601 247.516 93.9691 247.544 93.7145C247.572 93.4598 247.384 93.2211 247.125 93.1972Z" fill="#263238"/>
<path d="M246.778 96.5592L194.779 91.2396C194.52 91.2117 194.289 91.4027 194.261 91.6573C194.233 91.916 194.425 92.1467 194.68 92.1746L246.678 97.4942C246.937 97.522 247.168 97.331 247.196 97.0764C247.224 96.8138 247.037 96.583 246.778 96.5592Z" fill="#263238"/>
<path d="M231.873 98.4293L194.437 94.5977C194.179 94.5699 193.947 94.7609 193.92 95.0155C193.892 95.2741 194.083 95.5049 194.338 95.5327L231.774 99.3643C232.033 99.3921 232.264 99.2011 232.292 98.9465C232.32 98.6919 232.132 98.4571 231.873 98.4293Z" fill="#263238"/>
<path d="M193.846 98.2262L192.325 113.053L244.747 118.415L246.267 103.588L193.846 98.2262Z" fill="#BFBFBF" stroke="#263238" stroke-width="0.391408" stroke-miterlimit="10"/>
<path d="M210.417 83.7792C216.862 83.7792 222.087 78.5617 222.087 72.1255C222.087 65.6893 216.862 60.4717 210.417 60.4717C203.972 60.4717 198.747 65.6893 198.747 72.1255C198.747 78.5617 203.972 83.7792 210.417 83.7792Z" fill="#E2982F"/>
<path opacity="0.5" d="M217.885 81.0737C222.837 76.9539 223.507 69.6055 219.381 64.6606C215.256 59.7157 207.897 59.0468 202.945 63.1666C197.994 67.2864 197.324 74.6348 201.449 79.5797C205.575 84.5247 212.933 85.1936 217.885 81.0737Z" fill="white"/>
<path d="M210.417 83.7792C216.862 83.7792 222.087 78.5617 222.087 72.1255C222.087 65.6893 216.862 60.4717 210.417 60.4717C203.972 60.4717 198.747 65.6893 198.747 72.1255C198.747 78.5617 203.972 83.7792 210.417 83.7792Z" stroke="#263238" stroke-width="0.391408" stroke-miterlimit="10"/>
<path d="M210.753 72.0856L220.458 76.9636C221.008 75.8296 221.371 74.5843 221.506 73.2594C221.813 70.2673 220.901 67.4305 219.175 65.2422L210.753 72.0856Z" fill="white"/>
<path d="M210.819 71.5642L218.947 64.9595C217.748 63.5391 216.198 62.4131 214.409 61.7288L212.943 65.7473L210.819 71.5642Z" fill="#E2982F"/>
<path d="M211.737 61.0723L210.753 70.677L214.064 61.6014C213.323 61.3508 212.546 61.1678 211.737 61.0723Z" fill="#757575"/>
<path d="M210.246 72.002L211.37 61.0366C205.322 60.5154 199.947 64.9358 199.325 70.9874C199.122 72.9609 199.453 74.8628 200.19 76.5577L210.246 72.002Z" fill="#999999"/>
<path d="M209.281 83.1982C213.951 83.6756 218.238 81.2009 220.29 77.2897L210.413 72.3282L200.345 76.8959C201.962 80.2897 205.261 82.7844 209.281 83.1982Z" fill="#BFBFBF"/>
<path d="M93.5316 52.3504C96.8145 46.804 94.9858 39.6502 89.4471 36.3719C83.9084 33.0936 76.7571 34.9321 73.4743 40.4785C70.1914 46.0248 72.0201 53.1786 77.5588 56.457C83.0975 59.7353 90.2488 57.8967 93.5316 52.3504Z" fill="#E2982F"/>
<path opacity="0.5" d="M95.006 44.5455C93.9829 38.1858 88.0004 33.8664 81.6437 34.8978C75.2869 35.9293 70.9632 41.921 71.9862 48.2807C73.0093 54.6404 78.9919 58.9599 85.3486 57.9284C91.7053 56.8969 96.0291 50.9052 95.006 44.5455Z" fill="white"/>
<path d="M93.5316 52.3504C96.8145 46.804 94.9858 39.6502 89.4471 36.3719C83.9084 33.0936 76.7571 34.9321 73.4743 40.4785C70.1914 46.0248 72.0201 53.1786 77.5588 56.457C83.0975 59.7353 90.2488 57.8967 93.5316 52.3504Z" stroke="#263238" stroke-width="0.391408" stroke-miterlimit="10"/>
<path d="M83.638 46.106L92.7794 40.2385C92.0836 39.1877 91.1966 38.2414 90.1255 37.4499C87.7069 35.6619 84.8009 35.0021 82.039 35.3721L83.638 46.106Z" fill="white"/>
<path d="M83.2226 45.7823L81.6789 35.4237C79.8457 35.7322 78.0873 36.4924 76.5871 37.6833L79.2985 40.9919L83.2226 45.7823Z" fill="#E2982F"/>
<path d="M74.6622 39.6493L82.4263 45.3885L76.3028 37.9165C75.7096 38.4266 75.1564 39.002 74.6622 39.6493Z" fill="#757575"/>
<path d="M83.3079 46.499L74.4438 39.9467C70.9147 44.886 71.981 51.7628 76.8722 55.3801C78.4669 56.5602 80.272 57.2443 82.106 57.4734L83.3079 46.499Z" fill="#999999"/>
<path d="M92.4519 53.0316C95.2412 49.2564 95.2952 44.3066 92.9746 40.5487L83.6741 46.5211L82.4764 57.5119C86.221 57.8486 90.0481 56.2803 92.4519 53.0316Z" fill="#BFBFBF"/>
<path d="M228.956 66.3841L227.625 66.2488C227.49 66.2329 227.39 66.1135 227.402 65.9743L227.538 64.6454C227.554 64.5101 227.673 64.4106 227.813 64.4225L229.143 64.5578C229.279 64.5737 229.378 64.6931 229.366 64.8324L229.231 66.1613C229.219 66.2965 229.095 66.396 228.956 66.3841Z" fill="#E2982F" stroke="#263238" stroke-width="0.391408" stroke-miterlimit="10"/>
<path d="M247.642 67.1242L230.49 65.3696C230.374 65.3577 230.291 65.2542 230.303 65.1388C230.315 65.0234 230.418 64.9399 230.534 64.9518L247.686 66.7064C247.802 66.7184 247.885 66.8218 247.873 66.9372C247.861 67.0526 247.758 67.1361 247.642 67.1242Z" fill="#263238"/>
<path d="M245.869 67.8645L230.394 66.281C230.279 66.269 230.195 66.1656 230.207 66.0502C230.219 65.9348 230.323 65.8513 230.438 65.8632L245.913 67.4467C246.028 67.4587 246.112 67.5621 246.1 67.6775C246.088 67.7929 245.985 67.8764 245.869 67.8645Z" fill="#263238"/>
<path d="M228.538 70.4702L227.207 70.335C227.072 70.3191 226.972 70.1997 226.984 70.0604L227.12 68.7315C227.136 68.5963 227.255 68.4968 227.395 68.5087L228.725 68.644C228.861 68.6599 228.96 68.7793 228.948 68.9185L228.813 70.2474C228.797 70.3867 228.677 70.4862 228.538 70.4702Z" fill="#757575" stroke="#263238" stroke-width="0.391408" stroke-miterlimit="10" stroke-linecap="round" stroke-linejoin="round"/>
<path d="M247.224 71.2104L230.072 69.4558C229.956 69.4438 229.873 69.3404 229.885 69.225C229.897 69.1096 230 69.0261 230.116 69.038L247.268 70.7926C247.384 70.8046 247.467 70.908 247.455 71.0234C247.443 71.1388 247.34 71.2223 247.224 71.2104Z" fill="#263238"/>
<path d="M245.451 71.9507L229.976 70.3671C229.861 70.3552 229.777 70.2518 229.789 70.1364C229.801 70.021 229.905 69.9374 230.02 69.9494L245.495 71.5329C245.61 71.5449 245.694 71.6483 245.682 71.7637C245.67 71.8791 245.567 71.9626 245.451 71.9507Z" fill="#263238"/>
<path d="M228.12 74.5564L226.789 74.4212C226.654 74.4052 226.554 74.2859 226.566 74.1466L226.702 72.8177C226.718 72.6824 226.837 72.583 226.977 72.5949L228.307 72.7302C228.443 72.7461 228.542 72.8655 228.53 73.0047L228.395 74.3336C228.379 74.4729 228.256 74.5723 228.12 74.5564Z" fill="#999999" stroke="#263238" stroke-width="0.391408" stroke-miterlimit="10" stroke-linecap="round" stroke-linejoin="round"/>
<path d="M246.802 75.2966L229.65 73.542C229.535 73.53 229.451 73.4266 229.463 73.3112C229.475 73.1958 229.578 73.1122 229.694 73.1242L246.846 74.8788C246.962 74.8907 247.045 74.9942 247.033 75.1096C247.025 75.225 246.922 75.3085 246.802 75.2966Z" fill="#263238"/>
<path d="M245.029 76.0406L229.555 74.457C229.439 74.4451 229.355 74.3417 229.367 74.2263C229.379 74.1109 229.483 74.0273 229.598 74.0393L245.073 75.6228C245.189 75.6348 245.272 75.7382 245.26 75.8536C245.248 75.965 245.145 76.0525 245.029 76.0406Z" fill="#263238"/>
<path d="M227.7 78.6466L226.369 78.5113C226.234 78.4954 226.134 78.376 226.146 78.2368L226.282 76.9079C226.298 76.7726 226.417 76.6731 226.557 76.6851L227.887 76.8203C228.023 76.8362 228.123 76.9556 228.111 77.0949L227.975 78.4238C227.959 78.559 227.836 78.6585 227.7 78.6466Z" fill="#BFBFBF" stroke="#263238" stroke-width="0.391408" stroke-miterlimit="10"/>
<path d="M246.382 79.3867L229.23 77.6321C229.115 77.6202 229.031 77.5167 229.043 77.4013C229.055 77.2859 229.159 77.2024 229.274 77.2143L246.426 78.969C246.542 78.9809 246.625 79.0843 246.613 79.1997C246.602 79.3151 246.498 79.3987 246.382 79.3867Z" fill="#263238"/>
<path d="M244.609 80.1269L229.135 78.5434C229.019 78.5314 228.935 78.428 228.947 78.3126C228.959 78.1972 229.063 78.1136 229.178 78.1256L244.653 79.7091C244.769 79.7211 244.852 79.8245 244.84 79.9399C244.829 80.0553 244.725 80.1388 244.609 80.1269Z" fill="#263238"/>
<path d="M227.278 82.7327L225.948 82.5974C225.812 82.5815 225.712 82.4621 225.724 82.3229L225.86 80.994C225.876 80.8587 225.995 80.7592 226.135 80.7712L227.466 80.9064C227.601 80.9224 227.701 81.0417 227.689 81.181L227.553 82.5099C227.537 82.6452 227.418 82.7446 227.278 82.7327Z" fill="white" stroke="#263238" stroke-width="0.391408" stroke-miterlimit="10" stroke-linecap="round" stroke-linejoin="round"/>
<path d="M245.964 83.4728L228.812 81.7182C228.697 81.7063 228.613 81.6028 228.625 81.4875C228.637 81.3721 228.741 81.2885 228.856 81.3005L246.008 83.0551C246.124 83.067 246.207 83.1705 246.196 83.2858C246.184 83.4012 246.08 83.4848 245.964 83.4728Z" fill="#263238"/>
<path d="M244.191 84.213L228.717 82.6295C228.601 82.6175 228.517 82.5141 228.529 82.3987C228.541 82.2833 228.645 82.1998 228.76 82.2117L244.235 83.7953C244.351 83.8072 244.434 83.9106 244.423 84.026C244.411 84.1414 244.307 84.225 244.191 84.213Z" fill="#263238"/>
<path d="M238.336 113.408L239.315 113.508L239.889 107.915L238.911 107.815L238.336 113.408Z" fill="#757575" stroke="#263238" stroke-width="0.391408" stroke-miterlimit="10" stroke-linecap="round" stroke-linejoin="round"/>
<path d="M238.416 112.574L239.395 112.675L239.665 110.042L238.686 109.942L238.416 112.574Z" fill="#E2982F" stroke="#263238" stroke-width="0.391408" stroke-miterlimit="10"/>
<path d="M240.682 112.231L241.661 112.331L242.235 106.738L241.256 106.638L240.682 112.231Z" fill="#757575" stroke="#263238" stroke-width="0.391408" stroke-miterlimit="10" stroke-linecap="round" stroke-linejoin="round"/>
<path d="M241.111 108.121L240.841 110.753L241.82 110.853L242.09 108.221L241.111 108.121Z" fill="#E2982F" stroke="#263238" stroke-width="0.391408" stroke-miterlimit="10"/>
<path d="M242.776 113.526L243.755 113.626L244.328 108.034L243.349 107.934L242.776 113.526Z" fill="#757575" stroke="#263238" stroke-width="0.391408" stroke-miterlimit="10" stroke-linecap="round" stroke-linejoin="round"/>
<path d="M242.996 111.412L243.975 111.513L244.246 108.88L243.267 108.78L242.996 111.412Z" fill="#E2982F" stroke="#263238" stroke-width="0.391408" stroke-miterlimit="10"/>
<path d="M236.246 112.075L237.225 112.176L237.8 106.583L236.821 106.483L236.246 112.075Z" fill="#757575" stroke="#263238" stroke-width="0.391408" stroke-miterlimit="10" stroke-linecap="round" stroke-linejoin="round"/>
<path d="M236.328 111.242L237.307 111.342L237.577 108.71L236.598 108.61L236.328 111.242Z" fill="#E2982F" stroke="#263238" stroke-width="0.391408" stroke-miterlimit="10"/>
<path d="M233.868 113.514L234.847 113.614L235.42 108.021L234.441 107.921L233.868 113.514Z" fill="#757575" stroke="#263238" stroke-width="0.391408" stroke-miterlimit="10" stroke-linecap="round" stroke-linejoin="round"/>
<path d="M233.938 112.872L234.917 112.973L235.187 110.34L234.208 110.24L233.938 112.872Z" fill="#E2982F" stroke="#263238" stroke-width="0.391408" stroke-miterlimit="10"/>
<path d="M231.809 111.845L232.788 111.945L233.362 106.352L232.383 106.252L231.809 111.845Z" fill="#757575" stroke="#263238" stroke-width="0.391408" stroke-miterlimit="10" stroke-linecap="round" stroke-linejoin="round"/>
<path d="M231.836 111.625L232.815 111.726L233.086 109.094L232.107 108.993L231.836 111.625Z" fill="#E2982F" stroke="#263238" stroke-width="0.391408" stroke-miterlimit="10"/>
<path d="M229.309 114.535L230.288 114.636L230.862 109.043L229.883 108.943L229.309 114.535Z" fill="#757575" stroke="#263238" stroke-width="0.391408" stroke-miterlimit="10" stroke-linecap="round" stroke-linejoin="round"/>
<path d="M229.328 114.323L230.307 114.424L230.578 111.792L229.599 111.691L229.328 114.323Z" fill="#E2982F" stroke="#263238" stroke-width="0.391408" stroke-miterlimit="10"/>
<path d="M227.459 110.793L228.438 110.893L229.012 105.301L228.033 105.2L227.459 110.793Z" fill="#757575" stroke="#263238" stroke-width="0.391408" stroke-miterlimit="10" stroke-linecap="round" stroke-linejoin="round"/>
<path d="M227.549 109.951L228.528 110.051L228.798 107.419L227.819 107.319L227.549 109.951Z" fill="#E2982F" stroke="#263238" stroke-width="0.391408" stroke-miterlimit="10"/>
<path d="M225.291 110.234L226.27 110.334L226.845 104.741L225.866 104.641L225.291 110.234Z" fill="#757575" stroke="#263238" stroke-width="0.391408" stroke-miterlimit="10" stroke-linecap="round" stroke-linejoin="round"/>
<path d="M225.504 108.138L226.483 108.238L226.753 105.606L225.774 105.506L225.504 108.138Z" fill="#E2982F" stroke="#263238" stroke-width="0.391408" stroke-miterlimit="10"/>
<path d="M222.723 113.527L223.702 113.628L224.276 108.035L223.297 107.935L222.723 113.527Z" fill="#757575" stroke="#263238" stroke-width="0.391408" stroke-miterlimit="10" stroke-linecap="round" stroke-linejoin="round"/>
<path d="M222.963 111.21L223.942 111.31L224.212 108.678L223.233 108.578L222.963 111.21Z" fill="#E2982F" stroke="#263238" stroke-width="0.391408" stroke-miterlimit="10"/>
<path d="M220.772 110.842L221.751 110.943L222.324 105.35L221.346 105.25L220.772 110.842Z" fill="#757575" stroke="#263238" stroke-width="0.391408" stroke-miterlimit="10" stroke-linecap="round" stroke-linejoin="round"/>
<path d="M220.879 109.79L221.858 109.891L222.128 107.258L221.149 107.158L220.879 109.79Z" fill="#E2982F" stroke="#263238" stroke-width="0.391408" stroke-miterlimit="10"/>
<path d="M218.42 112.068L219.399 112.168L219.973 106.576L218.994 106.475L218.42 112.068Z" fill="#757575" stroke="#263238" stroke-width="0.391408" stroke-miterlimit="10" stroke-linecap="round" stroke-linejoin="round"/>
<path d="M218.504 111.234L219.483 111.334L219.753 108.702L218.774 108.602L218.504 111.234Z" fill="#E2982F" stroke="#263238" stroke-width="0.391408" stroke-miterlimit="10"/>
<path d="M215.959 114.354L216.938 114.454L217.513 108.862L216.534 108.762L215.959 114.354Z" fill="#757575" stroke="#263238" stroke-width="0.391408" stroke-miterlimit="10" stroke-linecap="round" stroke-linejoin="round"/>
<path d="M215.953 114.361L216.932 114.461L217.202 111.829L216.223 111.729L215.953 114.361Z" fill="#E2982F" stroke="#263238" stroke-width="0.391408" stroke-miterlimit="10"/>
<path d="M214.112 110.595L215.091 110.695L215.664 105.102L214.685 105.002L214.112 110.595Z" fill="#757575" stroke="#263238" stroke-width="0.391408" stroke-miterlimit="10" stroke-linecap="round" stroke-linejoin="round"/>
<path d="M214.178 109.964L215.157 110.064L215.427 107.432L214.448 107.332L214.178 109.964Z" fill="#E2982F" stroke="#263238" stroke-width="0.391408" stroke-miterlimit="10"/>
<path d="M212.166 107.903L213.145 108.004L213.72 102.411L212.741 102.311L212.166 107.903Z" fill="#757575" stroke="#263238" stroke-width="0.391408" stroke-miterlimit="10" stroke-linecap="round" stroke-linejoin="round"/>
<path d="M212.225 107.279L213.204 107.379L213.474 104.747L212.495 104.647L212.225 107.279Z" fill="#E2982F" stroke="#263238" stroke-width="0.391408" stroke-miterlimit="10"/>
<path d="M209.651 110.646L210.63 110.746L211.203 105.153L210.224 105.053L209.651 110.646Z" fill="#757575" stroke="#263238" stroke-width="0.391408" stroke-miterlimit="10" stroke-linecap="round" stroke-linejoin="round"/>
<path d="M209.873 108.53L210.852 108.63L211.123 105.998L210.144 105.898L209.873 108.53Z" fill="#E2982F" stroke="#263238" stroke-width="0.391408" stroke-miterlimit="10"/>
<path d="M207.121 113.58L208.1 113.68L208.674 108.087L207.695 107.987L207.121 113.58Z" fill="#757575" stroke="#263238" stroke-width="0.391408" stroke-miterlimit="10" stroke-linecap="round" stroke-linejoin="round"/>
<path d="M207.381 111.051L208.36 111.151L208.63 108.519L207.651 108.419L207.381 111.051Z" fill="#E2982F" stroke="#263238" stroke-width="0.391408" stroke-miterlimit="10"/>
<path d="M205.243 110.193L206.222 110.293L206.795 104.7L205.816 104.6L205.243 110.193Z" fill="#757575" stroke="#263238" stroke-width="0.391408" stroke-miterlimit="10" stroke-linecap="round" stroke-linejoin="round"/>
<path d="M205.332 109.344L206.311 109.444L206.582 106.812L205.603 106.711L205.332 109.344Z" fill="#E2982F" stroke="#263238" stroke-width="0.391408" stroke-miterlimit="10"/>
<path d="M203.135 109.031L204.114 109.131L204.688 103.539L203.709 103.438L203.135 109.031Z" fill="#757575" stroke="#263238" stroke-width="0.391408" stroke-miterlimit="10" stroke-linecap="round" stroke-linejoin="round"/>
<path d="M203.371 106.72L204.35 106.82L204.62 104.188L203.641 104.088L203.371 106.72Z" fill="#E2982F" stroke="#263238" stroke-width="0.391408" stroke-miterlimit="10"/>
<path d="M200.752 110.549L201.731 110.649L202.305 105.057L201.326 104.956L200.752 110.549Z" fill="#757575" stroke="#263238" stroke-width="0.391408" stroke-miterlimit="10" stroke-linecap="round" stroke-linejoin="round"/>
<path d="M200.748 110.555L201.727 110.655L201.997 108.023L201.018 107.923L200.748 110.555Z" fill="#E2982F" stroke="#263238" stroke-width="0.391408" stroke-miterlimit="10"/>
<path d="M198.721 108.585L199.7 108.685L200.274 103.092L199.295 102.992L198.721 108.585Z" fill="#757575" stroke="#263238" stroke-width="0.391408" stroke-miterlimit="10" stroke-linecap="round" stroke-linejoin="round"/>
<path d="M198.772 108.157L199.751 108.257L200.021 105.625L199.042 105.525L198.772 108.157Z" fill="#E2982F" stroke="#263238" stroke-width="0.391408" stroke-miterlimit="10"/>
<path d="M196.44 109.114L197.419 109.214L197.992 103.621L197.013 103.521L196.44 109.114Z" fill="#757575" stroke="#263238" stroke-width="0.391408" stroke-miterlimit="10" stroke-linecap="round" stroke-linejoin="round"/>
<path d="M196.463 108.902L197.442 109.002L197.712 106.37L196.733 106.27L196.463 108.902Z" fill="#E2982F" stroke="#263238" stroke-width="0.391408" stroke-miterlimit="10"/>
<path d="M194.309 108.172L195.288 108.273L195.862 102.68L194.883 102.58L194.309 108.172Z" fill="#757575" stroke="#263238" stroke-width="0.391408" stroke-miterlimit="10" stroke-linecap="round" stroke-linejoin="round"/>
<path d="M194.592 105.433L195.571 105.534L195.841 102.901L194.862 102.801L194.592 105.433Z" fill="#E2982F" stroke="#263238" stroke-width="0.391408" stroke-miterlimit="10"/>
<path d="M278.088 44.097L279.067 44.1973L279.641 38.6045L278.662 38.5043L278.088 44.097Z" fill="#757575" stroke="#263238" stroke-width="0.391408" stroke-miterlimit="10" stroke-linecap="round" stroke-linejoin="round"/>
<path d="M278.168 43.2639L279.147 43.364L279.417 40.7319L278.438 40.6318L278.168 43.2639Z" fill="#E2982F" stroke="#263238" stroke-width="0.391408" stroke-miterlimit="10"/>
<path d="M280.434 42.9204L281.413 43.0205L281.987 37.4278L281.008 37.3276L280.434 42.9204Z" fill="#757575" stroke="#263238" stroke-width="0.391408" stroke-miterlimit="10" stroke-linecap="round" stroke-linejoin="round"/>
<path d="M280.863 38.8102L280.593 41.4423L281.572 41.5425L281.842 38.9104L280.863 38.8102Z" fill="#E2982F" stroke="#263238" stroke-width="0.391408" stroke-miterlimit="10"/>
<path d="M282.528 44.2158L283.507 44.316L284.08 38.7232L283.101 38.6231L282.528 44.2158Z" fill="#757575" stroke="#263238" stroke-width="0.391408" stroke-miterlimit="10" stroke-linecap="round" stroke-linejoin="round"/>
<path d="M282.748 42.1019L283.727 42.2021L283.998 39.57L283.019 39.4698L282.748 42.1019Z" fill="#E2982F" stroke="#263238" stroke-width="0.391408" stroke-miterlimit="10"/>
<path d="M275.998 42.7649L276.977 42.8652L277.552 37.2724L276.573 37.1722L275.998 42.7649Z" fill="#757575" stroke="#263238" stroke-width="0.391408" stroke-miterlimit="10" stroke-linecap="round" stroke-linejoin="round"/>
<path d="M276.08 41.9317L277.059 42.0318L277.329 39.3997L276.35 39.2995L276.08 41.9317Z" fill="#E2982F" stroke="#263238" stroke-width="0.391408" stroke-miterlimit="10"/>
<path d="M273.619 44.2031L274.598 44.3032L275.172 38.7105L274.193 38.6103L273.619 44.2031Z" fill="#757575" stroke="#263238" stroke-width="0.391408" stroke-miterlimit="10" stroke-linecap="round" stroke-linejoin="round"/>
<path d="M273.69 43.5619L274.669 43.6621L274.939 41.03L273.96 40.9298L273.69 43.5619Z" fill="#E2982F" stroke="#263238" stroke-width="0.391408" stroke-miterlimit="10"/>
<path d="M271.561 42.5346L272.54 42.6348L273.114 37.042L272.135 36.9419L271.561 42.5346Z" fill="#757575" stroke="#263238" stroke-width="0.391408" stroke-miterlimit="10" stroke-linecap="round" stroke-linejoin="round"/>
<path d="M271.588 42.315L272.567 42.4153L272.837 39.7832L271.858 39.6829L271.588 42.315Z" fill="#E2982F" stroke="#263238" stroke-width="0.391408" stroke-miterlimit="10"/>
<path d="M269.061 45.225L270.04 45.3253L270.614 39.7325L269.635 39.6323L269.061 45.225Z" fill="#757575" stroke="#263238" stroke-width="0.391408" stroke-miterlimit="10" stroke-linecap="round" stroke-linejoin="round"/>
<path d="M269.08 45.013L270.059 45.1133L270.33 42.4812L269.351 42.3809L269.08 45.013Z" fill="#E2982F" stroke="#263238" stroke-width="0.391408" stroke-miterlimit="10"/>
<path d="M267.211 41.4827L268.19 41.5829L268.764 35.9902L267.785 35.89L267.211 41.4827Z" fill="#757575" stroke="#263238" stroke-width="0.391408" stroke-miterlimit="10" stroke-linecap="round" stroke-linejoin="round"/>
<path d="M267.301 40.6403L268.28 40.7404L268.55 38.1083L267.571 38.0082L267.301 40.6403Z" fill="#E2982F" stroke="#263238" stroke-width="0.391408" stroke-miterlimit="10"/>
<path d="M265.043 40.9233L266.022 41.0235L266.597 35.4308L265.618 35.3305L265.043 40.9233Z" fill="#757575" stroke="#263238" stroke-width="0.391408" stroke-miterlimit="10" stroke-linecap="round" stroke-linejoin="round"/>
<path d="M265.256 38.8274L266.235 38.9276L266.505 36.2954L265.526 36.1953L265.256 38.8274Z" fill="#E2982F" stroke="#263238" stroke-width="0.391408" stroke-miterlimit="10"/>
<path d="M262.475 44.217L263.454 44.3171L264.028 38.7244L263.049 38.6243L262.475 44.217Z" fill="#757575" stroke="#263238" stroke-width="0.391408" stroke-miterlimit="10" stroke-linecap="round" stroke-linejoin="round"/>
<path d="M262.715 41.8993L263.694 41.9995L263.964 39.3673L262.985 39.2672L262.715 41.8993Z" fill="#E2982F" stroke="#263238" stroke-width="0.391408" stroke-miterlimit="10"/>
<path d="M260.524 41.5319L261.503 41.632L262.076 36.0393L261.097 35.9391L260.524 41.5319Z" fill="#757575" stroke="#263238" stroke-width="0.391408" stroke-miterlimit="10" stroke-linecap="round" stroke-linejoin="round"/>
<path d="M260.631 40.4799L261.61 40.58L261.88 37.9479L260.901 37.8478L260.631 40.4799Z" fill="#E2982F" stroke="#263238" stroke-width="0.391408" stroke-miterlimit="10"/>
<path d="M258.172 42.7577L259.151 42.8579L259.725 37.2652L258.746 37.1649L258.172 42.7577Z" fill="#757575" stroke="#263238" stroke-width="0.391408" stroke-miterlimit="10" stroke-linecap="round" stroke-linejoin="round"/>
<path d="M258.256 41.9235L259.235 42.0237L259.505 39.3916L258.526 39.2914L258.256 41.9235Z" fill="#E2982F" stroke="#263238" stroke-width="0.391408" stroke-miterlimit="10"/>
<path d="M255.711 45.0438L256.69 45.144L257.265 39.5513L256.286 39.4511L255.711 45.0438Z" fill="#757575" stroke="#263238" stroke-width="0.391408" stroke-miterlimit="10" stroke-linecap="round" stroke-linejoin="round"/>
<path d="M255.705 45.0507L256.684 45.1509L256.954 42.5188L255.975 42.4186L255.705 45.0507Z" fill="#E2982F" stroke="#263238" stroke-width="0.391408" stroke-miterlimit="10"/>
<path d="M253.864 41.2844L254.843 41.3846L255.416 35.7918L254.437 35.6917L253.864 41.2844Z" fill="#757575" stroke="#263238" stroke-width="0.391408" stroke-miterlimit="10" stroke-linecap="round" stroke-linejoin="round"/>
<path d="M253.928 40.6533L254.907 40.7534L255.177 38.1213L254.198 38.0212L253.928 40.6533Z" fill="#E2982F" stroke="#263238" stroke-width="0.391408" stroke-miterlimit="10"/>
<path d="M251.918 38.5929L252.897 38.6931L253.472 33.1004L252.493 33.0001L251.918 38.5929Z" fill="#757575" stroke="#263238" stroke-width="0.391408" stroke-miterlimit="10" stroke-linecap="round" stroke-linejoin="round"/>
<path d="M251.977 37.9688L252.956 38.0689L253.226 35.4368L252.247 35.3367L251.977 37.9688Z" fill="#E2982F" stroke="#263238" stroke-width="0.391408" stroke-miterlimit="10"/>
<path d="M249.403 41.3352L250.382 41.4354L250.955 35.8426L249.976 35.7425L249.403 41.3352Z" fill="#757575" stroke="#263238" stroke-width="0.391408" stroke-miterlimit="10" stroke-linecap="round" stroke-linejoin="round"/>
<path d="M249.625 39.2195L250.604 39.3197L250.875 36.6876L249.896 36.5874L249.625 39.2195Z" fill="#E2982F" stroke="#263238" stroke-width="0.391408" stroke-miterlimit="10"/>
<path d="M246.873 44.2696L247.852 44.3698L248.426 38.777L247.447 38.6769L246.873 44.2696Z" fill="#757575" stroke="#263238" stroke-width="0.391408" stroke-miterlimit="10" stroke-linecap="round" stroke-linejoin="round"/>
<path d="M247.133 41.7409L248.112 41.841L248.382 39.2089L247.403 39.1088L247.133 41.7409Z" fill="#E2982F" stroke="#263238" stroke-width="0.391408" stroke-miterlimit="10"/>
<path d="M244.994 40.8823L245.973 40.9825L246.547 35.3897L245.568 35.2896L244.994 40.8823Z" fill="#757575" stroke="#263238" stroke-width="0.391408" stroke-miterlimit="10" stroke-linecap="round" stroke-linejoin="round"/>
<path d="M245.084 40.033L246.063 40.1332L246.334 37.5011L245.355 37.4009L245.084 40.033Z" fill="#E2982F" stroke="#263238" stroke-width="0.391408" stroke-miterlimit="10"/>
<path d="M242.887 39.7206L243.866 39.8208L244.44 34.2281L243.461 34.1278L242.887 39.7206Z" fill="#757575" stroke="#263238" stroke-width="0.391408" stroke-miterlimit="10" stroke-linecap="round" stroke-linejoin="round"/>
<path d="M243.123 37.4099L244.102 37.51L244.372 34.8779L243.393 34.7778L243.123 37.4099Z" fill="#E2982F" stroke="#263238" stroke-width="0.391408" stroke-miterlimit="10"/>
<path d="M240.504 41.2386L241.483 41.3389L242.057 35.7461L241.078 35.6459L240.504 41.2386Z" fill="#757575" stroke="#263238" stroke-width="0.391408" stroke-miterlimit="10" stroke-linecap="round" stroke-linejoin="round"/>
<path d="M240.5 41.2443L241.479 41.3445L241.749 38.7124L240.77 38.6122L240.5 41.2443Z" fill="#E2982F" stroke="#263238" stroke-width="0.391408" stroke-miterlimit="10"/>
<path d="M238.473 39.2745L239.452 39.3746L240.026 33.7819L239.047 33.6818L238.473 39.2745Z" fill="#757575" stroke="#263238" stroke-width="0.391408" stroke-miterlimit="10" stroke-linecap="round" stroke-linejoin="round"/>
<path d="M238.524 38.8467L239.503 38.9469L239.773 36.3148L238.794 36.2145L238.524 38.8467Z" fill="#E2982F" stroke="#263238" stroke-width="0.391408" stroke-miterlimit="10"/>
<path d="M236.192 39.8031L237.171 39.9033L237.744 34.3105L236.765 34.2104L236.192 39.8031Z" fill="#757575" stroke="#263238" stroke-width="0.391408" stroke-miterlimit="10" stroke-linecap="round" stroke-linejoin="round"/>
<path d="M236.215 39.5917L237.194 39.6918L237.464 37.0597L236.485 36.9596L236.215 39.5917Z" fill="#E2982F" stroke="#263238" stroke-width="0.391408" stroke-miterlimit="10"/>
<path d="M234.061 38.862L235.04 38.9621L235.614 33.3694L234.635 33.2692L234.061 38.862Z" fill="#757575" stroke="#263238" stroke-width="0.391408" stroke-miterlimit="10" stroke-linecap="round" stroke-linejoin="round"/>
<path d="M234.344 36.1229L235.323 36.2231L235.593 33.591L234.614 33.4908L234.344 36.1229Z" fill="#E2982F" stroke="#263238" stroke-width="0.391408" stroke-miterlimit="10"/>
<path d="M244.344 120.277L199.625 115.701C199.366 115.673 199.135 115.864 199.107 116.119C199.079 116.377 199.27 116.608 199.525 116.636L244.245 121.212C244.503 121.239 244.735 121.048 244.762 120.794C244.79 120.539 244.603 120.304 244.344 120.277Z" fill="#263238"/>
<path d="M244 123.639L192.002 118.319C191.743 118.291 191.512 118.482 191.484 118.737C191.456 118.996 191.647 119.226 191.902 119.254L243.901 124.574C244.16 124.602 244.391 124.411 244.419 124.156C244.447 123.897 244.259 123.667 244 123.639Z" fill="#263238"/>
<path d="M221.813 124.768L191.656 121.681C191.397 121.653 191.166 121.844 191.138 122.099C191.11 122.357 191.302 122.588 191.557 122.616L221.713 125.703C221.972 125.731 222.203 125.54 222.231 125.286C222.259 125.023 222.072 124.792 221.813 124.768Z" fill="#263238"/>
<path opacity="0.2" d="M249.275 94.7408C247.733 94.6175 247.2 97.0724 247.2 97.0724C247.2 97.0724 244.761 93.8814 245.148 86.3775C245.148 86.3775 243.956 83.0513 240.765 85.0606C237.578 87.0698 234.267 94.152 235.056 101.867L228.852 81.3006C226.709 81.7542 222.354 84.6308 223.501 98.5207L216.732 91.3748C216.732 91.3748 214.899 90.786 213.863 92.4053C212.827 94.0287 213.322 105.623 214.178 109.96C215.039 114.3 212.851 123.01 212.851 123.01C212.851 123.01 210.517 113.143 206.293 110.644L190.209 77.5168L184.866 129.599L190.894 130.215L200.576 125.509C200.52 127.685 200.468 129.686 200.309 131.178L248.694 136.128L252.156 102.38C250.981 98.1745 249.857 94.7846 249.275 94.7408Z" fill="black" fill-opacity="0.7"/>
<path d="M257.786 47.5211L252.156 102.38L248.694 136.128L200.309 131.178L190.894 130.215L184.866 129.599L190.209 77.5169L193.958 40.9919L257.786 47.5211Z" stroke="#263238" stroke-width="0.391408" stroke-miterlimit="10" stroke-linecap="round" stroke-linejoin="round"/>
<path d="M256.99 188.751L228.702 193.557C228.702 193.557 223.778 167.437 220.841 163.323C217.905 159.205 218.443 157.514 217.017 154.74C216.156 153.065 211.841 149.942 208.454 146.858H208.45C208.156 146.592 207.869 146.325 207.594 146.059C207.474 145.951 207.363 145.836 207.251 145.728C206.801 145.283 206.383 144.849 206.012 144.423C205.877 144.272 205.749 144.121 205.63 143.97C204.924 143.099 204.426 142.283 204.259 141.547C204.247 141.507 204.239 141.467 204.235 141.423C204.223 141.372 204.215 141.324 204.211 141.276C204.135 140.66 204.056 139.955 203.976 139.191C203.96 139.04 203.944 138.881 203.924 138.722C203.916 138.658 203.908 138.599 203.9 138.531C203.833 137.894 203.757 137.218 203.669 136.522C203.582 135.794 203.486 135.038 203.374 134.278C203.339 134.015 203.303 133.752 203.259 133.486C203.259 133.482 203.259 133.478 203.255 133.478C203.211 133.183 203.163 132.889 203.115 132.591C203.072 132.336 203.028 132.081 202.984 131.827C202.976 131.783 202.964 131.743 202.96 131.707C202.904 131.409 202.849 131.119 202.793 130.824C202.781 130.792 202.777 130.76 202.773 130.725C202.717 130.466 202.665 130.211 202.606 129.953C202.482 129.376 202.343 128.811 202.191 128.262C201.892 127.168 201.542 126.145 201.135 125.238C199.095 120.69 201.749 122.333 200.151 110.632C200.151 110.632 201.327 107.918 204.677 110.087C204.936 110.254 205.183 110.437 205.426 110.632H205.43C206.104 111.173 206.701 111.814 207.211 112.534C207.877 113.469 208.395 114.539 208.749 115.701C209.279 117.432 209.45 119.369 209.203 121.39C209.203 121.39 211.721 130.008 213.048 131.97C214.379 133.931 219.861 122.664 219.507 121.351C219.435 121.088 219.335 120.448 219.224 119.568C219.2 119.373 219.176 119.166 219.148 118.948C219.124 118.729 219.096 118.502 219.072 118.267C219.056 118.156 219.044 118.036 219.029 117.921C219.025 117.873 219.021 117.826 219.013 117.782C218.965 117.332 218.909 116.855 218.857 116.361C218.845 116.222 218.829 116.091 218.813 115.956C218.79 115.721 218.766 115.478 218.742 115.239C218.734 115.204 218.734 115.164 218.73 115.12C218.714 114.985 218.698 114.845 218.686 114.702C218.654 114.424 218.626 114.141 218.598 113.859C218.57 113.616 218.55 113.373 218.527 113.131C218.479 112.673 218.435 112.215 218.391 111.774C218.359 111.444 218.327 111.117 218.299 110.799C218.291 110.727 218.284 110.656 218.28 110.588C218.112 108.838 217.981 107.397 217.933 106.785C217.933 106.785 213.945 100.888 213.534 98.1108C213.124 95.3297 213.16 92.4093 214.829 91.2196C218.782 88.4106 217.626 92.9385 219.395 94.8124C221.164 96.6944 223.877 99.758 225.415 100.717C226.834 101.616 228.101 105.109 228.28 105.619C228.077 104.855 226.049 97.3429 226.005 95.831C225.953 94.2355 224.734 85.8205 226.806 82.8006C228.874 79.7847 231.631 82.1242 231.886 82.721C232.141 83.3178 232.216 91.4703 232.946 93.7422C233.679 96.0101 236.727 105.468 236.727 105.468C236.727 105.468 236.854 96.2687 237.543 92.1507C238.229 88.0366 240.022 84.8139 241.775 84.6308C243.528 84.4478 245.149 86.3775 245.149 86.3775C245.149 86.3775 244.456 92.9424 244.655 94.4583C244.85 95.9703 244.368 101.449 245.201 104.393C245.201 104.393 245.105 96.5512 246.325 95.5485C247.548 94.5459 248.592 94.0644 249.277 94.7408C249.958 95.4172 250.11 100.06 250.807 102.853C251.508 105.651 251.416 109.442 251.875 113.799C252.333 118.156 254.138 124.203 253.779 127.661C253.421 131.111 252.317 139.693 251.428 144.726C250.54 149.763 248.273 156.654 248.273 156.654C248.273 156.654 249.305 160.334 249.106 163.617C248.902 166.899 256.99 188.751 256.99 188.751Z" fill="white"/>
<path opacity="0.4" d="M232.951 93.7383C233.492 95.4173 235.301 101.035 236.206 103.84C236.206 103.84 232.249 106.745 232.349 109.438C232.453 112.132 231.624 117.579 229.851 117.424C228.078 117.273 228.237 105.941 227.656 104.039C228.014 104.855 228.249 105.523 228.297 105.655C228.166 105.165 226.054 97.3709 226.01 95.8271C225.998 95.465 225.926 94.7409 225.843 93.8059V93.786C225.843 93.786 229.771 90.0301 232.66 92.3298V92.3338C232.743 92.9107 232.839 93.3921 232.951 93.7383Z" fill="#E2982F"/>
<path opacity="0.4" d="M244.696 96.9769C242.855 98.7196 240.078 101.803 239.728 104.775C239.728 104.775 240.755 113.071 240.317 116.692L236.727 105.468C236.727 105.468 236.855 96.2687 237.544 92.1507C237.564 92.0393 237.584 91.9239 237.604 91.8085C239.365 90.9093 241.779 90.1056 244.811 90.0499C244.672 91.8244 244.56 93.7263 244.656 94.4544C244.716 94.9517 244.712 95.8669 244.696 96.9769Z" fill="#E2982F"/>
<path opacity="0.4" d="M246.326 95.5486C246.318 95.5566 246.314 95.5605 246.31 95.5605C246.266 95.5924 246.158 95.6759 246.003 95.8072C246.102 95.6242 246.206 95.4491 246.318 95.29L246.326 95.5486Z" fill="#E2982F"/>
<path opacity="0.4" d="M247.261 118.494C247.261 118.494 244.895 109.629 244.855 102.492C244.839 99.8497 245.142 97.4425 245.998 95.8152L246.002 95.8112C246.102 95.6282 246.206 95.4531 246.317 95.294L246.325 95.5526C246.831 95.1388 247.301 94.8126 247.736 94.6216C247.07 95.6561 246.305 97.6812 247.19 100.972C248.58 106.124 247.369 112.419 247.261 118.494Z" fill="#E2982F"/>
<path opacity="0.4" d="M214.619 135.388C214.619 135.388 215.257 143.835 208.455 146.863H208.451C208.157 146.596 207.874 146.329 207.595 146.063C207.475 145.951 207.364 145.84 207.252 145.733C206.802 145.287 206.384 144.853 206.013 144.428C205.878 144.272 205.75 144.121 205.631 143.974C204.925 143.103 204.427 142.287 204.26 141.551C204.248 141.511 204.24 141.467 204.236 141.428C204.224 141.376 204.216 141.328 204.212 141.28C204.137 140.664 204.057 139.959 203.977 139.196C203.961 139.044 203.945 138.885 203.925 138.726C203.917 138.662 203.909 138.599 203.905 138.535C203.834 137.898 203.758 137.222 203.674 136.526C203.587 135.798 203.491 135.042 203.38 134.282C203.34 134.019 203.304 133.753 203.264 133.49C203.264 133.486 203.264 133.482 203.26 133.482C203.216 133.188 203.168 132.889 203.121 132.595C203.077 132.34 203.033 132.086 202.989 131.827C202.981 131.787 202.973 131.747 202.965 131.708C202.909 131.413 202.854 131.119 202.794 130.824C202.786 130.792 202.778 130.757 202.774 130.725C202.722 130.466 202.666 130.208 202.611 129.953C202.479 129.376 202.344 128.811 202.192 128.262C204.882 125.676 211.089 127.299 208.085 121.311C208.085 121.311 209.599 116.186 205.427 110.628H205.431C208.284 112.928 209.746 116.962 209.204 121.391C209.204 121.391 211.723 130.005 213.049 131.97C214.38 133.932 219.862 122.664 219.504 121.351C219.436 121.092 219.336 120.448 219.225 119.568C219.201 119.373 219.177 119.167 219.149 118.948C219.121 118.729 219.097 118.502 219.069 118.267C219.054 118.156 219.042 118.041 219.03 117.925C219.026 117.877 219.022 117.83 219.014 117.786C218.966 117.332 218.914 116.859 218.858 116.361C218.846 116.226 218.83 116.091 218.814 115.956C218.791 115.721 218.767 115.482 218.743 115.239C218.739 115.204 218.735 115.164 218.731 115.12C218.719 114.985 218.699 114.846 218.687 114.698C218.655 114.42 218.631 114.137 218.599 113.855C218.575 113.612 218.552 113.369 218.528 113.127C218.484 112.669 218.436 112.212 218.396 111.77C218.364 111.44 218.332 111.11 218.301 110.799C218.293 110.728 218.289 110.656 218.281 110.584C218.392 111.106 220.412 120.71 221.564 122.946C222.747 125.254 217.723 137.377 214.619 135.388Z" fill="#E2982F"/>
<path opacity="0.4" d="M251.429 144.726C250.54 149.763 248.277 156.654 248.277 156.654C248.277 156.654 249.309 160.334 249.106 163.617C249.05 164.5 249.6 166.728 250.421 169.513C250.182 168.901 247.644 162.328 247.684 160.036C247.731 157.629 247.046 156.964 245.703 154.008C244.365 151.048 242.313 151.378 242.313 151.378C242.313 151.378 241.524 158.755 239.667 153.909C237.815 149.059 237.456 143.425 242.13 123.849C242.13 123.849 242.835 126.304 242.245 133.597C241.651 140.894 243.401 143.099 243.401 143.099C243.401 143.099 247.178 136.888 249.612 128.632C249.612 128.632 249.01 137.142 248.469 141.022C247.931 144.897 250.385 136.53 252.098 131.357C253.708 126.507 253.768 124.661 253.154 121.207C253.608 123.642 253.951 125.962 253.776 127.657C253.421 131.111 252.317 139.693 251.429 144.726Z" fill="#E2982F"/>
<path opacity="0.4" d="M219.464 161.13C220.842 163.319 224.217 166.211 226.229 174.212C228.241 182.214 226.974 190.971 226.974 190.971L219.464 161.13Z" fill="#E2982F"/>
<path opacity="0.2" d="M208.749 115.701C208.749 115.701 201.693 119.27 201.135 125.238C199.095 120.69 201.749 122.334 200.151 110.632C200.151 110.632 201.327 107.919 204.677 110.087C204.936 110.254 205.183 110.437 205.426 110.632H205.43C206.104 111.173 206.701 111.814 207.211 112.534L208.749 115.701Z" fill="black" fill-opacity="0.7"/>
<path d="M228.702 193.557C228.702 193.557 223.782 167.437 220.842 163.323C217.905 159.209 218.443 157.514 217.017 154.74C215.59 151.967 204.693 145.219 204.211 141.276C203.729 137.337 203.175 129.786 201.135 125.238C199.096 120.686 201.749 122.334 200.147 110.632C200.147 110.632 201.331 107.922 204.677 110.087C208.024 112.255 209.789 116.592 209.204 121.395C209.204 121.395 211.722 130.009 213.048 131.97C214.379 133.936 219.857 122.664 219.503 121.347C219.148 120.03 218.096 108.826 217.933 106.785C217.933 106.785 213.945 100.884 213.534 98.1109C213.124 95.3337 213.16 92.4093 214.829 91.2237C218.782 88.4147 217.626 92.9425 219.395 94.8205C221.164 96.6984 223.878 99.7621 225.415 100.725C226.953 101.688 228.3 105.686 228.3 105.686C228.3 105.686 226.053 97.4345 226.005 95.839C225.957 94.2435 224.734 85.8285 226.806 82.8126C228.878 79.7967 231.635 82.1362 231.886 82.729C232.141 83.3259 232.221 91.4783 232.95 93.7462C233.679 96.0181 236.727 105.476 236.727 105.476C236.727 105.476 236.858 96.2767 237.543 92.1587C238.233 88.0407 240.026 84.8179 241.775 84.6388C243.528 84.4558 245.149 86.3855 245.149 86.3855C245.149 86.3855 244.456 92.9504 244.651 94.4664C244.847 95.9823 244.368 101.457 245.201 104.401C245.201 104.401 245.102 96.5592 246.325 95.5565C247.548 94.5539 248.592 94.0725 249.273 94.7488C249.958 95.4252 250.106 100.068 250.807 102.862C251.504 105.655 251.417 109.45 251.875 113.807C252.333 118.164 254.138 124.211 253.779 127.665C253.421 131.119 252.313 139.697 251.425 144.734C250.536 149.771 248.273 156.662 248.273 156.662C248.273 156.662 249.305 160.342 249.102 163.625C248.899 166.907 256.987 188.759 256.987 188.759" stroke="#263238" stroke-width="0.391408" stroke-miterlimit="10" stroke-linecap="round" stroke-linejoin="round"/>
<path d="M236.724 105.467C237.548 107.401 239.584 115.566 240.313 116.696C241.042 117.825 241.867 118.168 241.867 118.168" stroke="#263238" stroke-width="0.391408" stroke-miterlimit="10" stroke-linecap="round" stroke-linejoin="round"/>
<path d="M245.202 104.393C245.202 104.393 245.027 106.064 245.931 111.4C246.836 116.731 247.278 119.003 247.784 120.193" stroke="#263238" stroke-width="0.391408" stroke-miterlimit="10" stroke-linecap="round" stroke-linejoin="round"/>
<path d="M228.3 105.678C229.407 108.929 230.029 114.109 230.658 115.669C231.288 117.229 231.85 117.551 231.85 117.551" stroke="#263238" stroke-width="0.391408" stroke-miterlimit="10" stroke-linecap="round" stroke-linejoin="round"/>
<path d="M230.089 113.477C230.089 113.477 231.248 114.336 231.619 115.406" stroke="#263238" stroke-width="0.391408" stroke-miterlimit="10" stroke-linecap="round" stroke-linejoin="round"/>
<path d="M213.052 131.97C213.052 131.97 213.657 136.279 216.363 135.937" stroke="#263238" stroke-width="0.391408" stroke-miterlimit="10" stroke-linecap="round" stroke-linejoin="round"/>
<path d="M219.506 121.347C219.506 121.347 220.207 126.467 219.056 128.644" stroke="#263238" stroke-width="0.391408" stroke-miterlimit="10" stroke-linecap="round" stroke-linejoin="round"/>
<path d="M241.113 121.394C241.113 121.394 242.93 122.505 241.714 125.763C240.499 129.022 238.388 142.167 238.388 142.167" stroke="#263238" stroke-width="0.391408" stroke-miterlimit="10" stroke-linecap="round" stroke-linejoin="round"/>
<path d="M249.021 124.832C249.782 127.776 249.85 127.852 248.615 131.469C247.376 135.085 245.384 143.942 245.384 143.942" stroke="#263238" stroke-width="0.391408" stroke-miterlimit="10" stroke-linecap="round" stroke-linejoin="round"/>
<path d="M248.277 156.654C248.277 156.654 247.09 154.259 248.07 152.289" stroke="#263238" stroke-width="0.391408" stroke-miterlimit="10" stroke-linecap="round" stroke-linejoin="round"/>
<path d="M220.841 163.323C220.841 163.323 223.845 167.536 225.152 172.251" stroke="#263238" stroke-width="0.391408" stroke-miterlimit="10" stroke-linecap="round" stroke-linejoin="round"/>
<path d="M242.946 89.465L243.759 88.6613L244.125 88.5579L244.102 88.9557L243.356 89.9067L242.946 89.465Z" fill="#757575" stroke="#263238" stroke-width="0.391408" stroke-miterlimit="10" stroke-linecap="round" stroke-linejoin="round"/>
<path d="M243.603 89.9066L242.284 92.9026L206.744 140.222L202.784 137.703L208.159 130.971L240.08 90.9848L242.897 89.1984C242.893 89.1984 243.495 89.3535 243.603 89.9066Z" fill="#E2982F"/>
<path opacity="0.3" d="M243.603 89.9066L242.284 92.9026L206.744 140.222L202.784 137.703L208.159 130.971C210.629 130.717 211.039 132.173 211.039 132.173L241.658 92.266C241.359 91.1917 240.08 90.9848 240.08 90.9848L242.897 89.1984C242.893 89.1984 243.495 89.3535 243.603 89.9066Z" fill="black" fill-opacity="0.7"/>
<path d="M243.603 89.9066L242.284 92.9026L206.744 140.222L202.784 137.703L208.159 130.971L240.08 90.9848L242.897 89.1984C242.893 89.1984 243.495 89.3535 243.603 89.9066Z" stroke="#263238" stroke-width="0.391408" stroke-miterlimit="10" stroke-linecap="round" stroke-linejoin="round"/>
<path d="M218.335 126.213C218.335 126.213 214.37 134.075 210.553 139.637L207.828 140.341C207.828 140.341 201.573 146.548 197.756 149.648C197.756 149.648 196.776 149.079 195.891 148.084C195.891 148.084 201.31 137.691 207.306 131.115C207.306 131.115 208.179 131.381 209.274 132.157C209.924 132.619 210.657 133.255 211.326 134.122L218.008 125.727L218.335 126.213Z" fill="#E2982F"/>
<path opacity="0.3" d="M218.335 126.213C218.335 126.213 214.371 134.075 210.554 139.637L207.829 140.341C207.829 140.341 201.573 146.548 197.757 149.647L197.86 147.96C202 141.646 207.259 134.759 209.271 132.157C209.92 132.618 210.654 133.255 211.323 134.122L207.61 139.072L209.737 138.69L218.005 125.727L218.335 126.213Z" fill="black" fill-opacity="0.7"/>
<path d="M218.335 126.213C218.335 126.213 214.37 134.075 210.553 139.637L207.828 140.341C207.828 140.341 201.573 146.548 197.756 149.648C197.756 149.648 196.776 149.079 195.891 148.084C195.891 148.084 201.31 137.691 207.306 131.115C207.306 131.115 208.179 131.381 209.274 132.157C209.924 132.619 210.657 133.255 211.326 134.122L218.008 125.727L218.335 126.213Z" stroke="#263238" stroke-width="0.391408" stroke-miterlimit="10" stroke-linecap="round" stroke-linejoin="round"/>
<path d="M231.849 117.551L220.749 128.301L218.976 130.02C220.191 126.901 219.601 122.083 219.525 121.494C219.525 121.49 219.525 121.486 219.525 121.486C219.521 121.454 219.517 121.434 219.517 121.434C219.517 121.406 219.513 121.37 219.509 121.351C219.442 121.092 219.342 120.447 219.231 119.568C219.207 119.373 219.183 119.166 219.155 118.947C219.127 118.729 219.103 118.502 219.075 118.267C219.059 118.156 219.047 118.04 219.035 117.925C219.031 117.877 219.027 117.829 219.019 117.786C218.972 117.336 218.916 116.859 218.864 116.361C218.852 116.226 218.836 116.091 218.82 115.955C218.796 115.721 218.772 115.482 218.748 115.239C218.744 115.203 218.74 115.164 218.737 115.12C218.725 114.985 218.705 114.845 218.693 114.698C218.661 114.42 218.637 114.137 218.605 113.855C218.581 113.612 218.557 113.369 218.533 113.126C218.49 112.669 218.442 112.211 218.402 111.77C218.366 111.439 218.334 111.113 218.306 110.799C218.298 110.727 218.294 110.656 218.286 110.584C218.119 108.833 217.987 107.397 217.94 106.78C217.94 106.78 213.955 100.884 213.541 98.1067C213.131 95.3295 213.167 92.4052 214.836 91.2195C218.788 88.4065 217.629 92.9343 219.398 94.8123C221.167 96.6942 223.884 99.7539 225.418 100.717C226.952 101.684 228.303 105.678 228.303 105.678C229.406 108.929 230.032 114.105 230.661 115.669C231.287 117.229 231.849 117.551 231.849 117.551Z" fill="white"/>
<path d="M230.087 113.477C230.087 113.477 231.246 114.336 231.617 115.407" stroke="#263238" stroke-width="0.391408" stroke-miterlimit="10" stroke-linecap="round" stroke-linejoin="round"/>
<path opacity="0.4" d="M219.394 94.8123C221.155 96.6902 223.86 99.734 225.398 100.709C225.183 100.601 222.35 99.2207 220.769 100.757C219.123 102.356 217.932 106.784 217.932 106.784C217.932 106.784 213.948 100.888 213.533 98.1106C213.123 95.3335 213.159 92.4091 214.828 91.2234C218.781 88.4105 217.625 92.9383 219.394 94.8123Z" fill="#E2982F"/>
<path opacity="0.4" d="M220.744 128.302L218.971 130.02C220.187 126.901 219.597 122.083 219.521 121.494C219.521 121.49 219.521 121.486 219.521 121.486C219.521 121.43 219.513 121.387 219.505 121.351C219.438 121.092 219.338 120.448 219.226 119.568C219.202 119.373 219.179 119.166 219.151 118.948C219.123 118.729 219.099 118.502 219.071 118.267C219.055 118.156 219.043 118.04 219.031 117.925C219.027 117.877 219.023 117.83 219.015 117.786C218.967 117.332 218.916 116.859 218.86 116.361C218.848 116.226 218.832 116.091 218.816 115.956C218.792 115.721 218.768 115.482 218.744 115.239C218.74 115.204 218.736 115.164 218.732 115.12C218.72 114.985 218.7 114.845 218.688 114.698C218.657 114.42 218.633 114.137 218.601 113.855C218.577 113.612 218.553 113.369 218.529 113.127C218.485 112.669 218.437 112.212 218.398 111.77C218.366 111.44 218.334 111.109 218.302 110.799C218.294 110.727 218.29 110.656 218.282 110.584C218.394 111.105 220.414 120.71 221.565 122.946C221.995 123.798 221.593 125.978 220.744 128.302Z" fill="#E2982F"/>
<path d="M231.849 117.551C231.849 117.551 231.287 117.229 230.658 115.669C230.028 114.109 229.403 108.929 228.299 105.678C228.299 105.678 226.948 101.68 225.414 100.717C223.881 99.754 221.167 96.6904 219.394 94.8124C217.625 92.9345 218.781 88.4066 214.828 91.2156C213.159 92.4013 213.127 95.3257 213.533 98.1029C213.944 100.88 217.932 106.777 217.932 106.777C218.095 108.822 219.147 120.026 219.502 121.339" stroke="#263238" stroke-width="0.391408" stroke-miterlimit="10" stroke-linecap="round" stroke-linejoin="round"/>
<path d="M219.506 121.347C219.506 121.347 220.207 126.467 219.056 128.644" stroke="#263238" stroke-width="0.391408" stroke-miterlimit="10" stroke-linecap="round" stroke-linejoin="round"/>
<path opacity="0.2" d="M151.36 127.613C151.36 127.613 153.882 139.307 148.42 147.817C142.958 156.328 138.754 158.596 136.862 161.134C134.969 163.673 127.57 177.865 127.57 177.865L118.925 152.293L127.57 120.658L151.36 127.613Z" fill="black" fill-opacity="0.7"/>
<path d="M202.318 118.673L148.706 141.205L143.18 143.528L132.765 118.816L108.581 61.4309L167.719 36.5757L202.318 118.673Z" fill="white"/>
<path d="M152.44 47.2546L126.913 57.9853C126.435 58.1882 126.208 58.7372 126.411 59.2147C126.614 59.6921 127.164 59.9189 127.642 59.716L153.169 48.9893C153.648 48.7864 153.875 48.2373 153.671 47.7599C153.472 47.2784 152.918 47.0556 152.44 47.2546Z" fill="#263238"/>
<path d="M147.56 53.4973L134.794 58.8607C134.555 58.9601 134.443 59.2386 134.543 59.4774C134.643 59.7161 134.922 59.8275 135.161 59.728L147.926 54.3647C148.165 54.2652 148.277 53.9867 148.177 53.748C148.074 53.5092 147.799 53.3978 147.56 53.4973Z" fill="#263238"/>
<path d="M168.558 86.1747C168.558 86.1747 169.096 90.3961 167.523 91.0606C166.084 91.6654 164.192 89.3975 162.538 90.0937C160.885 90.79 162.188 96.7741 160.594 97.4465C159 98.1189 157.08 95.656 155.705 96.233C154.331 96.8099 155.163 99.8894 153.745 100.486C152.574 100.98 150.9 98.5287 149.562 97.9916C149.279 97.8762 149.012 97.8483 148.765 97.9518C147.362 98.5406 148.06 104.974 146.848 105.48C146.446 105.651 146.095 105.679 145.773 105.655C145.294 105.623 144.872 105.48 144.406 105.527C144.243 105.543 144.075 105.583 143.896 105.659C142.864 106.092 143.004 109.478 142.059 109.876C141.115 110.274 140.183 109.781 139.175 110.206C138.167 110.632 138.183 112.391 136.681 113.023L137.318 114.531L174.017 99.1096" fill="#BFBFBF"/>
<path d="M168.558 86.1747C168.558 86.1747 169.096 90.3961 167.523 91.0606C166.084 91.6654 164.192 89.3975 162.538 90.0937C160.885 90.79 162.188 96.7741 160.594 97.4465C159 98.1189 157.08 95.656 155.705 96.233C154.331 96.8099 155.163 99.8894 153.745 100.486C152.574 100.98 150.9 98.5287 149.562 97.9916C149.279 97.8762 149.012 97.8483 148.765 97.9518C147.362 98.5406 148.06 104.974 146.848 105.48C146.446 105.651 146.095 105.679 145.773 105.655C145.294 105.623 144.872 105.48 144.406 105.527C144.243 105.543 144.075 105.583 143.896 105.659C142.864 106.092 143.004 109.478 142.059 109.876C141.115 110.274 140.183 109.781 139.175 110.206C138.167 110.632 138.183 112.391 136.681 113.023L137.318 114.531L174.017 99.1096" stroke="#263238" stroke-width="0.391408" stroke-miterlimit="10"/>
<path d="M129.88 96.9014L137.31 114.531L175.734 98.3855" stroke="#263238" stroke-width="0.391408" stroke-miterlimit="10" stroke-linecap="round" stroke-linejoin="round"/>
<path d="M171.511 93.1813C171.511 93.1813 171.332 92.9585 171.057 92.6959C170.583 92.2383 169.83 91.6574 169.256 91.8961C168.694 92.1309 168.646 93.0619 168.658 94.0526C168.67 95.2622 168.778 96.5592 168.168 96.8179C167.65 97.0367 167.188 96.7065 166.71 96.3523C166.164 95.9465 165.606 95.5009 164.933 95.7834C163.802 96.2608 164.144 97.733 163.746 98.9942C163.543 99.6388 163.144 100.228 162.256 100.602C161.276 101.011 160.283 100.61 159.351 99.973C157.773 98.8987 156.355 97.156 155.439 97.542C153.976 98.1547 155.59 102.106 154.016 102.766C153.14 103.136 151.323 100.371 149.558 97.9956C148.163 96.1136 146.801 94.4784 145.96 94.8285C144.064 95.6242 147.187 105.066 145.809 105.647C145.797 105.651 145.781 105.659 145.765 105.663C145.191 105.889 144.769 105.746 144.398 105.535C143.9 105.253 143.498 104.855 142.948 105.086C141.932 105.511 142.53 109.212 141.41 109.685C140.291 110.155 139.621 109.474 138.362 110.003C137.298 110.449 136.665 113.027 136.665 113.027L137.302 114.535L174.001 99.1136" fill="#757575"/>
<path d="M171.511 93.1813C171.511 93.1813 171.332 92.9585 171.057 92.6959C170.583 92.2383 169.83 91.6574 169.256 91.8961C168.694 92.1309 168.646 93.0619 168.658 94.0526C168.67 95.2622 168.778 96.5592 168.168 96.8179C167.65 97.0367 167.188 96.7065 166.71 96.3523C166.164 95.9465 165.606 95.5009 164.933 95.7834C163.802 96.2608 164.144 97.733 163.746 98.9942C163.543 99.6388 163.144 100.228 162.256 100.602C161.276 101.011 160.283 100.61 159.351 99.973C157.773 98.8987 156.355 97.156 155.439 97.542C153.976 98.1547 155.59 102.106 154.016 102.766C153.14 103.136 151.323 100.371 149.558 97.9956C148.163 96.1136 146.801 94.4784 145.96 94.8285C144.064 95.6242 147.187 105.066 145.809 105.647C145.797 105.651 145.781 105.659 145.765 105.663C145.191 105.889 144.769 105.746 144.398 105.535C143.9 105.253 143.498 104.855 142.948 105.086C141.932 105.511 142.53 109.212 141.41 109.685C140.291 110.155 139.621 109.474 138.362 110.003C137.298 110.449 136.665 113.027 136.665 113.027L137.302 114.535L174.001 99.1136" stroke="#263238" stroke-width="0.391408" stroke-miterlimit="10" stroke-linecap="round" stroke-linejoin="round"/>
<path d="M163.745 105.77L150.98 111.133C150.741 111.233 150.629 111.511 150.729 111.75C150.828 111.989 151.107 112.1 151.346 112.001L164.112 106.637C164.351 106.538 164.462 106.259 164.363 106.021C164.259 105.782 163.984 105.671 163.745 105.77Z" fill="#263238"/>
<path d="M174.566 86.3338L173.331 86.851C173.203 86.9027 173.056 86.8431 173.004 86.7197L172.486 85.4863C172.434 85.359 172.494 85.2118 172.618 85.16L173.853 84.6428C173.98 84.5911 174.128 84.6508 174.18 84.7741L174.698 86.0075C174.753 86.1348 174.694 86.2821 174.566 86.3338Z" fill="#BFBFBF" stroke="#263238" stroke-width="0.391408" stroke-miterlimit="10"/>
<path d="M180.523 82.5699L175.423 84.7144C175.315 84.7582 175.192 84.7105 175.148 84.603C175.104 84.4956 175.152 84.3723 175.259 84.3285L180.359 82.1839C180.467 82.1402 180.59 82.1879 180.634 82.2954C180.678 82.4028 180.63 82.5221 180.523 82.5699Z" fill="#263238"/>
<path d="M179.324 84.0658L175.778 85.5539C175.671 85.5976 175.547 85.5499 175.503 85.4425C175.459 85.335 175.507 85.2117 175.615 85.1679L179.161 83.6799C179.268 83.6361 179.392 83.6838 179.436 83.7913C179.48 83.8987 179.432 84.022 179.324 84.0658Z" fill="#263238"/>
<path d="M176.164 90.1217L174.929 90.6389C174.801 90.6906 174.654 90.6309 174.602 90.5076L174.084 89.2742C174.032 89.1469 174.092 88.9997 174.215 88.9479L175.451 88.4307C175.578 88.379 175.725 88.4387 175.777 88.562L176.295 89.7954C176.351 89.9227 176.291 90.0699 176.164 90.1217Z" fill="#757575" stroke="#263238" stroke-width="0.391408" stroke-miterlimit="10" stroke-linecap="round" stroke-linejoin="round"/>
<path d="M182.12 86.3539L177.02 88.4985C176.913 88.5423 176.789 88.4945 176.745 88.3871C176.702 88.2797 176.749 88.1563 176.857 88.1125L181.957 85.968C182.064 85.9242 182.188 85.972 182.232 86.0794C182.276 86.1868 182.228 86.3102 182.12 86.3539Z" fill="#263238"/>
<path d="M180.918 87.8539L177.372 89.342C177.264 89.3858 177.141 89.338 177.097 89.2306C177.053 89.1232 177.101 88.9998 177.209 88.9561L180.755 87.468C180.862 87.4242 180.986 87.472 181.029 87.5794C181.077 87.6868 181.025 87.8102 180.918 87.8539Z" fill="#263238"/>
<path d="M188.826 101.966L147.394 119.377C147.155 119.477 147.043 119.755 147.143 119.994C147.242 120.233 147.521 120.344 147.76 120.245L189.192 102.834C189.431 102.734 189.543 102.456 189.443 102.217C189.344 101.978 189.065 101.867 188.826 101.966Z" fill="#263238"/>
<path d="M190.141 105.082L141.964 125.33C141.725 125.429 141.613 125.708 141.713 125.946C141.813 126.185 142.092 126.297 142.331 126.197L190.508 105.949C190.747 105.85 190.859 105.571 190.759 105.332C190.655 105.094 190.381 104.982 190.141 105.082Z" fill="#263238"/>
<path d="M191.452 108.197L143.275 128.445C143.036 128.544 142.924 128.823 143.024 129.062C143.123 129.3 143.402 129.412 143.641 129.312L191.819 109.065C192.058 108.965 192.169 108.687 192.07 108.448C191.97 108.209 191.691 108.098 191.452 108.197Z" fill="#263238"/>
<path d="M192.766 111.317L144.589 131.564C144.35 131.664 144.238 131.942 144.338 132.181C144.438 132.42 144.717 132.531 144.956 132.432L193.133 112.184C193.372 112.084 193.484 111.806 193.384 111.567C193.28 111.324 193.006 111.213 192.766 111.317Z" fill="#263238"/>
<path d="M173.841 122.934L145.9 134.676C145.661 134.775 145.549 135.054 145.649 135.292C145.748 135.531 146.027 135.642 146.266 135.543L174.208 123.802C174.447 123.702 174.558 123.424 174.459 123.185C174.359 122.946 174.08 122.835 173.841 122.934Z" fill="#263238"/>
<path d="M158.455 62.199C158.455 62.199 158.993 66.4204 157.419 67.0849C155.981 67.6896 154.088 65.4218 152.435 66.118C150.781 66.8143 152.084 72.7984 150.49 73.4708C148.897 74.1392 146.976 71.6803 145.602 72.2572C144.227 72.8342 145.06 75.9137 143.642 76.5105C142.47 77.0039 140.797 74.553 139.458 74.0159C139.175 73.9005 138.904 73.8726 138.661 73.9761C137.259 74.5649 137.956 80.9986 136.745 81.5039C136.342 81.6749 135.992 81.7028 135.669 81.6789C135.191 81.6471 134.769 81.5039 134.302 81.5516C134.139 81.5675 133.972 81.6073 133.792 81.6829C132.761 82.1166 132.9 85.5025 131.956 85.9004C131.011 86.2983 130.079 85.8049 129.071 86.2306C128.063 86.6563 128.079 88.4149 126.577 89.0476L127.214 90.5555L163.913 75.1339" fill="#BFBFBF"/>
<path d="M158.455 62.199C158.455 62.199 158.993 66.4204 157.419 67.0849C155.981 67.6896 154.088 65.4218 152.435 66.118C150.781 66.8143 152.084 72.7984 150.49 73.4708C148.897 74.1392 146.976 71.6803 145.602 72.2572C144.227 72.8342 145.06 75.9137 143.642 76.5105C142.47 77.0039 140.797 74.553 139.458 74.0159C139.175 73.9005 138.904 73.8726 138.661 73.9761C137.259 74.5649 137.956 80.9986 136.745 81.5039C136.342 81.6749 135.992 81.7028 135.669 81.6789C135.191 81.6471 134.769 81.5039 134.302 81.5516C134.139 81.5675 133.972 81.6073 133.792 81.6829C132.761 82.1166 132.9 85.5025 131.956 85.9004C131.011 86.2983 130.079 85.8049 129.071 86.2306C128.063 86.6563 128.079 88.4149 126.577 89.0476L127.214 90.5555L163.913 75.1339" stroke="#263238" stroke-width="0.391408" stroke-miterlimit="10"/>
<path d="M160.827 67.829C160.827 67.829 161.161 69.8741 160.352 70.2162C159.679 70.4987 159.265 70.1048 158.556 70.081C158.273 70.069 157.942 70.1168 157.528 70.2918C156.878 70.5624 156.723 71.4377 156.607 72.3807C156.464 73.5385 156.392 74.7918 155.543 75.1499C154.95 75.4005 154.308 75.2533 153.647 75.0226C152.595 74.6565 151.484 74.0756 150.416 74.5252C149.898 74.744 149.535 75.3051 149.252 76.0013C148.587 77.6446 148.38 80.0238 147.659 80.3262C146.635 80.7559 144.758 78.9973 143.85 79.3793C142.941 79.7612 143.312 81.3408 142.575 81.6512C141.838 81.9615 141.415 81.0464 140.116 81.5915C138.818 82.1366 139.451 84.0543 137.618 84.8222C135.786 85.5901 134.985 84.1777 133.212 84.9217C131.439 85.6657 131.762 87.0066 130.514 87.5317C129.267 88.0569 128.737 87.1458 127.845 87.5198C126.976 87.8859 126.741 89.3063 126.725 89.3978L127.215 90.5596L163.914 75.1379" fill="#E2982F"/>
<path d="M160.827 67.829C160.827 67.829 161.161 69.8741 160.352 70.2162C159.679 70.4987 159.265 70.1048 158.556 70.081C158.273 70.069 157.942 70.1168 157.528 70.2918C156.878 70.5624 156.723 71.4377 156.607 72.3807C156.464 73.5385 156.392 74.7918 155.543 75.1499C154.95 75.4005 154.308 75.2533 153.647 75.0226C152.595 74.6565 151.484 74.0756 150.416 74.5252C149.898 74.744 149.535 75.3051 149.252 76.0013C148.587 77.6446 148.38 80.0238 147.659 80.3262C146.635 80.7559 144.758 78.9973 143.85 79.3793C142.941 79.7612 143.312 81.3408 142.575 81.6512C141.838 81.9615 141.415 81.0464 140.116 81.5915C138.818 82.1366 139.451 84.0543 137.618 84.8222C135.786 85.5901 134.985 84.1777 133.212 84.9217C131.439 85.6657 131.762 87.0066 130.514 87.5317C129.267 88.0569 128.737 87.1458 127.845 87.5198C126.976 87.8859 126.741 89.3063 126.725 89.3978L127.215 90.5596L163.914 75.1379" stroke="#263238" stroke-width="0.391408" stroke-miterlimit="10"/>
<path d="M119.776 72.9257L127.207 90.5556L165.631 74.4058" stroke="#263238" stroke-width="0.391408" stroke-miterlimit="10" stroke-linecap="round" stroke-linejoin="round"/>
<path d="M153.526 81.5195L140.761 86.8829C140.522 86.9823 140.41 87.2609 140.51 87.4996C140.61 87.7383 140.888 87.8497 141.127 87.7502L153.893 82.3869C154.132 82.2874 154.244 82.0089 154.144 81.7702C154.04 81.5315 153.765 81.4201 153.526 81.5195Z" fill="#263238"/>
<path d="M163.818 60.8302L162.587 61.3475C162.459 61.3992 162.312 61.3395 162.26 61.2162L161.742 59.9828C161.69 59.8554 161.75 59.7082 161.874 59.6565L163.109 59.1393C163.236 59.0875 163.384 59.1472 163.435 59.2706L163.953 60.504C164.005 60.6273 163.945 60.7745 163.818 60.8302Z" fill="#BFBFBF" stroke="#263238" stroke-width="0.391408" stroke-miterlimit="10"/>
<path d="M169.775 57.0623L164.675 59.2068C164.567 59.2506 164.444 59.2028 164.4 59.0954C164.356 58.988 164.404 58.8646 164.511 58.8209L169.611 56.6763C169.719 56.6326 169.842 56.6803 169.886 56.7877C169.934 56.8912 169.882 57.0145 169.775 57.0623Z" fill="#263238"/>
<path d="M168.576 58.5623L165.03 60.0503C164.923 60.0941 164.799 60.0463 164.755 59.9389C164.711 59.8315 164.759 59.7081 164.867 59.6644L168.413 58.1763C168.52 58.1326 168.644 58.1803 168.688 58.2877C168.732 58.3912 168.684 58.5145 168.576 58.5623Z" fill="#263238"/>
<path d="M165.416 64.6139L164.181 65.1311C164.053 65.1828 163.906 65.1231 163.854 64.9998L163.336 63.7664C163.284 63.6391 163.344 63.4919 163.467 63.4401L164.703 62.9229C164.83 62.8712 164.978 62.9309 165.029 63.0542L165.547 64.2876C165.603 64.4149 165.543 64.5621 165.416 64.6139Z" fill="#E2982F" stroke="#263238" stroke-width="0.391408" stroke-miterlimit="10"/>
<path d="M171.372 60.85L166.272 62.9946C166.165 63.0384 166.041 62.9906 165.997 62.8832C165.954 62.7758 166.001 62.6524 166.109 62.6086L171.209 60.4641C171.316 60.4203 171.44 60.4681 171.484 60.5755C171.528 60.679 171.48 60.8023 171.372 60.85Z" fill="#263238"/>
<path d="M170.17 62.346L166.624 63.834C166.516 63.8778 166.393 63.83 166.349 63.7226C166.305 63.6152 166.353 63.4918 166.461 63.4481L170.007 61.96C170.114 61.9162 170.238 61.964 170.282 62.0714C170.325 62.1788 170.278 62.3022 170.17 62.346Z" fill="#263238"/>
<path opacity="0.2" d="M148.705 141.205L143.179 143.528L132.764 118.816C133.418 118.196 134.183 117.133 134.506 115.407C135.127 112.096 134.689 101.453 142.988 100.355C151.283 99.2568 144.287 117.893 144.669 121.446C145.02 124.681 149.749 134.083 148.705 141.205Z" fill="black" fill-opacity="0.7"/>
<path d="M202.318 118.673L148.706 141.205L143.18 143.528L132.765 118.816L108.581 61.4309L167.719 36.5757L202.318 118.673Z" stroke="#263238" stroke-width="0.391408" stroke-miterlimit="10" stroke-linecap="round" stroke-linejoin="round"/>
<path d="M145.367 122.791C146.295 119.616 149.929 109.419 149.455 104.911C149.411 104.505 149.324 104.139 149.2 103.812C147.925 100.446 142.714 100.773 140.71 103.562C138.51 106.629 136.717 112.152 136.562 115.51C136.478 117.368 135.681 119.071 134.984 120.229C134.98 120.237 134.98 120.241 134.976 120.245C134.414 121.176 133.92 121.741 133.92 121.741L122.027 93.5632C122.027 93.5632 120.107 95.1149 118.916 97.0327C118.434 97.8006 118.075 98.6361 118.003 99.4478C117.76 102.221 114.613 113.624 113.302 118.438C113.278 118.542 113.246 118.637 113.222 118.733C111.963 123.356 115.286 140.528 114.338 145.518C113.386 150.503 112.796 150.396 112.661 153.937C112.561 156.523 108.856 164.385 104.704 172.458C102.325 177.085 99.7954 181.776 97.7116 185.576L128.119 184.314C128.645 180.626 129.187 176.731 129.681 172.963C129.884 171.411 130.215 169.816 130.59 168.304C130.59 168.304 130.59 168.304 130.59 168.3C131.259 165.594 132.08 163.148 132.574 161.715C133.351 159.479 134.159 155.309 134.159 155.309C137.697 151.569 142.335 145.697 143.678 141.714C143.682 141.706 143.686 141.694 143.686 141.686C144.024 140.68 144.148 139.796 143.989 139.104C143.853 138.531 143.781 137.787 143.75 136.932C143.754 136.928 143.754 136.928 143.75 136.924C143.602 132.615 144.586 125.441 145.367 122.791Z" fill="white"/>
<path opacity="0.4" d="M134.981 120.241C134.037 122.131 132.901 123.965 132.176 126.086C131.451 128.202 130.674 128.505 128.543 130.16C126.415 131.819 124.861 129.085 124.861 129.085C124.861 129.085 127.678 126.165 126.742 124.538C125.801 122.91 122.299 118.864 122.51 116.632C122.714 114.4 120.387 109.395 120.387 109.395C120.387 109.395 125.698 106.283 124.666 102.647C124.104 100.653 121.323 98.5367 118.925 97.0287C120.116 95.111 122.036 93.5593 122.036 93.5593L133.929 121.737C133.929 121.737 134.419 121.172 134.981 120.241Z" fill="#FF841F"/>
<path opacity="0.4" d="M115.696 137.524C115.768 137.763 117.497 143.465 116.039 145.84C114.545 148.267 113.083 151.366 113.796 154.589C114.366 157.167 109.585 166.478 104.708 172.454C108.859 164.381 112.565 156.519 112.664 153.933C112.804 150.392 113.389 150.499 114.342 145.514C115.29 140.524 111.971 123.352 113.226 118.729C113.25 118.633 113.282 118.538 113.306 118.434C114.234 123.674 116.398 134.111 116.991 137.465C117.748 141.738 115.776 137.695 115.696 137.524Z" fill="#FF841F"/>
<path opacity="0.4" d="M126.645 171.928C130.179 156.734 142.072 145.084 143.682 141.71C142.339 145.689 137.702 151.565 134.164 155.305C134.164 155.305 133.355 159.471 132.578 161.711C132.08 163.143 131.263 165.59 130.594 168.296C130.594 168.3 130.594 168.3 130.594 168.3C127.139 172.362 126.645 171.928 126.645 171.928Z" fill="#FF841F"/>
<path opacity="0.4" d="M145.368 122.791C144.587 125.437 143.599 132.611 143.754 136.92C143.129 134.214 141.925 130.776 141.726 125.99C141.387 117.873 145.993 120.786 144.388 116.787C142.782 112.792 138.204 117.913 140.459 109.45C142.105 103.271 146.794 103.327 149.201 103.808C149.324 104.135 149.412 104.501 149.456 104.907C149.934 109.418 146.3 119.616 145.368 122.791Z" fill="#FF841F"/>
<path d="M102.341 177.193C106.154 170.234 109.863 163.076 112.532 155.357C112.851 154.247 112.425 152.803 112.747 151.693C116.361 141.666 112.261 131.23 112.935 120.965C113.5 116.918 114.795 112.84 116.09 108.766C116.7 105.814 116.931 102.515 117.903 99.5473C118.907 97.3112 119.899 94.7091 122.035 93.5632C126.099 102.866 130.151 112.204 133.928 121.741C135.633 120.754 135.908 118.55 136.199 116.708C137.115 112.279 138.043 108.221 139.721 104.493C141.426 101.497 145.769 100.22 148.434 102.667C149.195 103.367 149.606 104.445 149.653 105.543C149.136 110.684 147.518 115.872 145.888 120.694C145.247 122.914 144.593 124.773 144.319 126.977C144.35 127.709 144.362 128.071 144.394 128.803C143.45 132.499 144.319 135.754 144.103 139.422C143.279 146.039 137.98 150.65 134.155 155.56C133.211 159.256 132.266 162.953 130.955 166.665C129.354 172.219 128.852 177.726 128.306 183.077" stroke="#263238" stroke-width="0.391408" stroke-miterlimit="10" stroke-linecap="round" stroke-linejoin="round"/>
<path d="M133.928 121.737C133.928 121.737 132.677 124.136 132.179 126.086C131.681 128.035 129.159 127.753 127.856 128.966" stroke="#263238" stroke-width="0.391408" stroke-miterlimit="10" stroke-linecap="round" stroke-linejoin="round"/>
<path d="M124.413 118.307C124.413 118.307 127.843 119.517 129.839 121.072C131.836 122.628 133.314 123.01 133.314 123.01" stroke="#263238" stroke-width="0.391408" stroke-miterlimit="10" stroke-linecap="round" stroke-linejoin="round"/>
<path d="M122.225 109.813C122.225 109.813 124.994 110.588 127.046 109.614C127.046 109.614 127.198 107.919 127.568 106.673" stroke="#263238" stroke-width="0.391408" stroke-miterlimit="10" stroke-linecap="round" stroke-linejoin="round"/>
<path d="M127.708 110.011C127.708 110.011 127.736 110.397 129.15 110.413" stroke="#263238" stroke-width="0.391408" stroke-miterlimit="10" stroke-linecap="round" stroke-linejoin="round"/>
<path d="M134.162 155.309C134.162 155.309 131.461 157.756 129.811 162.165" stroke="#263238" stroke-width="0.391408" stroke-miterlimit="10" stroke-linecap="round" stroke-linejoin="round"/>
<path d="M113.065 119.58C112.942 121.964 115.743 130.434 116.595 134.64C117.448 138.849 117.763 141.825 117.763 141.825" stroke="#263238" stroke-width="0.391408" stroke-miterlimit="10" stroke-linecap="round" stroke-linejoin="round"/>
</svg>
