<svg width="142" height="187" viewBox="0 0 142 187" fill="none" xmlns="http://www.w3.org/2000/svg">
<path d="M24.3384 173.318H103.47C105.026 173.318 106.292 174.584 106.292 176.14V186.195H21.5161V176.14C21.5161 174.584 22.7824 173.318 24.3384 173.318Z" fill="white"/>
<path d="M107.097 186.195H105.487V176.226C105.487 175.067 104.618 174.123 103.556 174.123H24.2527C23.1903 174.123 22.3211 175.067 22.3211 176.226V186.195H20.7114V176.226C20.7114 174.176 22.2996 172.513 24.2527 172.513H103.556C105.509 172.513 107.097 174.182 107.097 176.226V186.195Z" fill="black"/>
<path d="M96.8381 176.822L31.3728 177.573C24.7088 177.648 19.2359 171.832 19.15 164.572L18.5491 112.392C18.254 86.782 37.0871 65.808 60.6151 65.5343L65.0256 65.486C88.5536 65.2177 107.859 85.7571 108.143 111.914L108.744 164.094C108.841 170.801 103.507 176.746 96.8381 176.822Z" fill="#FBBC05"/>
<path d="M31.244 178.378C27.8422 178.378 24.6443 176.961 22.2137 174.375C19.767 171.773 18.3988 168.296 18.3559 164.583L17.755 112.403C17.6101 99.8149 21.983 87.9248 30.0582 78.9267C38.1549 69.9072 49.004 64.8636 60.6097 64.7348L65.0202 64.6865C76.6528 64.5631 87.62 69.3707 95.8937 78.2453C104.178 87.1307 108.814 99.0852 108.948 111.909L109.549 164.089C109.603 167.646 108.186 171.172 105.67 173.758C103.271 176.215 100.143 177.594 96.8488 177.632L96.838 176.827L96.8488 177.632L31.3835 178.383C31.3352 178.383 31.2869 178.383 31.244 178.383V178.378ZM65.4924 66.2908C65.3421 66.2908 65.1919 66.2908 65.0417 66.2908L60.6312 66.3391C49.4816 66.4679 39.0509 71.3184 31.2547 79.9998C23.4425 88.6974 19.2197 100.201 19.3593 112.381L19.9602 164.561C19.9978 167.866 21.2157 170.962 23.3834 173.27C25.535 175.561 28.3573 176.789 31.3674 176.768L96.8327 176.017C99.6925 175.984 102.424 174.783 104.516 172.631C106.737 170.351 107.982 167.244 107.939 164.105L107.338 111.925C107.204 99.5037 102.724 87.9302 94.7133 79.3399C86.8581 70.916 76.4972 66.2908 65.487 66.2908H65.4924Z" fill="white"/>
<path d="M59.9029 64.1121L65.5524 64.047C66.368 64.0376 67.0355 64.6899 67.0449 65.5054L67.1087 71.0477C67.136 73.4191 65.2321 75.3674 62.8607 75.3948C60.4893 75.4221 58.541 73.5181 58.5137 71.1467L58.4499 65.6045C58.4405 64.7889 59.0928 64.1214 59.9083 64.112L59.9029 64.1121Z" fill="white"/>
<path d="M63.9096 76.2171C63.5716 76.2869 63.2282 76.3298 62.8687 76.3352C61.4736 76.3513 60.1537 75.8255 59.1557 74.8489C58.1578 73.8724 57.5997 72.5686 57.5836 71.1735L57.5192 65.6309C57.5031 64.3109 58.5655 63.2217 59.8908 63.2056L65.5407 63.1413C66.8606 63.1252 67.9499 64.1875 67.966 65.5128L68.0303 71.0555C68.0572 73.5773 66.2866 75.7128 63.9043 76.2225L63.9096 76.2171ZM59.805 65.0621C59.5528 65.1158 59.3703 65.3411 59.3703 65.6041L59.4348 71.1467C59.4455 72.0481 59.8049 72.8905 60.4488 73.5236C61.0927 74.1514 61.9458 74.4948 62.8473 74.4841C64.7091 74.4626 66.2061 72.9334 66.1846 71.0716L66.1202 65.5289C66.1202 65.2285 65.868 64.9817 65.5676 64.987L59.9176 65.0514C59.8801 65.0514 59.8425 65.0514 59.8103 65.0621H59.805Z" fill="black"/>
<path d="M56.9918 25.203L68.0281 25.0758C73.4738 25.0131 77.9456 29.3831 78.0084 34.8288L78.1866 50.3021C78.2845 58.7952 71.4696 65.7689 62.9764 65.8667C54.4833 65.9646 47.5096 59.1497 47.4118 50.6566L47.2335 35.1833C47.1708 29.7376 51.5408 25.2658 56.9865 25.203L56.9918 25.203Z" fill="white"/>
<path d="M66.2598 66.4411C65.192 66.6718 64.0975 66.7952 62.9814 66.8059C58.6246 66.8542 54.5091 65.207 51.3917 62.1594C48.2743 59.1117 46.5306 55.0393 46.4823 50.6824L46.3052 35.2081C46.2354 29.2577 51.0215 24.3643 56.9719 24.2892L68.009 24.1604C73.9594 24.0907 78.8581 28.8768 78.9279 34.8272L79.1049 50.3015C79.1532 54.6583 77.506 58.7737 74.4584 61.8911C72.1941 64.209 69.3557 65.7704 66.2544 66.4357L66.2598 66.4411ZM55.2174 26.3388C51.1449 27.2134 48.1081 30.8674 48.1564 35.1867L48.3334 50.661C48.3763 54.5242 49.9216 58.1406 52.6849 60.8394C55.4481 63.5383 59.0967 65.0031 62.9599 64.9602C66.8231 64.9173 70.4342 63.372 73.1384 60.6087C75.8373 57.8455 77.3021 54.1969 77.2592 50.3337L77.0821 34.8594C77.0553 32.4717 76.1002 30.2342 74.3886 28.5656C72.6824 26.8969 70.4234 25.9901 68.0357 26.0169L56.9988 26.1457C56.3871 26.1511 55.7915 26.2208 55.2174 26.3442V26.3388Z" fill="black"/>
<path d="M39.4102 48.0372C39.3833 45.789 41.1862 43.9433 43.4343 43.9165C45.6825 43.8896 47.0883 46.6046 47.1097 48.8528C47.1366 51.1009 45.7737 52.0346 43.5256 52.0614C41.2774 52.0882 39.4316 50.2854 39.4048 48.0372H39.4102Z" fill="white"/>
<path d="M44.9529 52.8447C44.5236 52.936 44.0515 52.9842 43.5417 52.995C42.2057 53.0111 40.9448 52.5067 39.9897 51.5731C39.0347 50.6395 38.4981 49.3893 38.4874 48.0533C38.4552 45.2954 40.6712 43.0311 43.4291 42.9989C44.7758 42.9828 46.0046 43.7018 46.8845 45.0271C47.6035 46.1109 48.0273 47.506 48.0434 48.8474C48.0595 50.221 47.6303 51.2887 46.7718 52.0077C46.2943 52.4101 45.6826 52.6891 44.9582 52.8447H44.9529ZM40.3331 48.0318C40.3439 48.8742 40.6819 49.6576 41.2828 50.2478C41.8838 50.838 42.6779 51.1546 43.5203 51.1439C44.4593 51.1331 45.1568 50.9453 45.5807 50.5912C45.9992 50.2424 46.1977 49.6791 46.187 48.8742C46.1763 47.8923 45.8597 46.8407 45.3339 46.0519C44.9637 45.4993 44.3412 44.8393 43.4398 44.85C41.7067 44.8715 40.3063 46.2987 40.3278 48.0372L40.3331 48.0318Z" fill="black"/>
<path d="M86.0213 47.506C85.9944 45.2578 84.1487 43.455 81.9005 43.4818C79.6524 43.5087 78.311 46.2505 78.3378 48.4986C78.3646 50.7468 79.7435 51.6482 81.9971 51.6268C84.2453 51.5999 86.0481 49.7542 86.0213 47.506Z" fill="white"/>
<path d="M83.011 52.437C82.6837 52.5067 82.3511 52.5443 82.0077 52.5497C78.0533 52.5926 77.4308 50.0386 77.4147 48.5094C77.3825 45.6603 79.1747 42.5858 81.8897 42.5536C83.2257 42.5375 84.4866 43.0419 85.4417 43.9755C86.3967 44.9091 86.9333 46.1593 86.944 47.4899C86.9601 48.826 86.4558 50.0869 85.5222 51.0419C84.83 51.7502 83.9608 52.2277 83.011 52.437ZM81.5677 44.4423C80.1083 44.7588 79.2444 46.9158 79.2659 48.4879C79.282 49.6522 79.62 50.7254 81.9862 50.6985C82.8286 50.6878 83.612 50.3498 84.2022 49.7488C84.7924 49.1479 85.109 48.3538 85.0983 47.5114C85.0875 46.669 84.7495 45.8856 84.1485 45.2954C83.5476 44.7052 82.7535 44.3886 81.9111 44.3994C81.793 44.3994 81.6751 44.4155 81.5677 44.4369V44.4423Z" fill="black"/>
<path d="M42.5225 48.9332C42.5225 48.9332 44.8994 48.9064 45.8062 49.7864C46.7076 50.6663 47.1315 51.3531 47.1315 51.3531" fill="white"/>
<path d="M47.3191 52.2599C46.9489 52.3404 46.5465 52.1848 46.3373 51.8414C46.3373 51.8414 45.9509 51.2297 45.1568 50.4517C44.749 50.0493 43.3701 49.8508 42.5331 49.8615C42.0234 49.8669 41.6048 49.4591 41.5994 48.9494C41.5941 48.4396 42.0019 48.0211 42.5116 48.0157C42.973 48.0157 45.3285 48.0372 46.4499 49.1318C47.4211 50.0815 47.8932 50.8434 47.9147 50.8756C48.183 51.3102 48.0489 51.879 47.6089 52.1472C47.5177 52.2063 47.4211 52.2438 47.3191 52.2653V52.2599Z" fill="black"/>
<path d="M83.0861 49.0084C83.0861 49.0084 80.7092 49.0352 79.8239 49.9366C78.9439 50.838 78.5361 51.5302 78.5361 51.5302" fill="white"/>
<path d="M78.7293 52.4316C78.5093 52.4799 78.2732 52.4477 78.0693 52.3243C77.6293 52.0667 77.4845 51.5034 77.7366 51.0634C77.7527 51.0312 78.2088 50.2586 79.1585 49.2874C80.253 48.166 82.6086 48.0855 83.07 48.0801C83.5797 48.0748 83.9982 48.4825 84.0036 48.9923C84.009 49.502 83.6012 49.9205 83.0915 49.9259C82.2813 49.9366 80.897 50.1512 80.4784 50.5751C79.7004 51.3692 79.3302 51.9863 79.3248 51.9916C79.1853 52.2224 78.9653 52.3726 78.7239 52.4262L78.7293 52.4316Z" fill="black"/>
<path d="M45.8008 30.8513C45.8008 30.8513 44.0784 36.3242 44.0838 36.6193C44.0891 36.9144 45.275 40.3001 45.275 40.3001L47.3299 43.6535L48.7679 43.6374L49.1704 39.2377C49.1704 39.2377 50.3507 38.3309 50.9356 37.4348C51.5204 36.5388 51.456 30.8835 51.456 30.8835L45.8008 30.8513Z" fill="black"/>
<path d="M79.1104 30.4703C79.1104 30.4703 80.9562 35.9003 80.9616 36.2008C80.9669 36.5012 79.8562 39.9084 79.8562 39.9084L77.8764 43.3101L76.4384 43.3262L75.934 38.9372C75.934 38.9372 74.7321 38.0572 74.1311 37.1719C73.5302 36.2866 73.4604 30.6367 73.4604 30.6367L79.1104 30.4757V30.4703Z" fill="black"/>
<path d="M58.9715 15.8674L65.4795 15.7924C73.9405 15.695 80.887 22.4833 80.9845 30.9443L81.0465 36.3309C81.0584 37.361 80.231 38.2023 79.2063 38.2141L45.7649 38.5993C44.7347 38.6112 43.8935 37.7838 43.8817 36.7591L43.8196 31.3724C43.7222 22.9114 50.5106 15.9649 58.9715 15.8674Z" fill="#FBBC05"/>
<path d="M43.7188 37.0109C43.7188 37.0109 50.4847 31.7205 62.2353 31.5863C73.3152 31.4576 81.1972 36.5817 81.1972 36.5817L78.2998 41.0083C77.672 41.8614 76.5292 42.1511 75.5741 41.6897C72.3709 40.1498 65.0146 38.4006 61.9885 38.4328C58.9677 38.465 52.3305 40.3215 49.1058 41.9526C48.1239 42.4516 46.922 42.1458 46.2996 41.2336L43.7241 37.0109H43.7188Z" fill="#CC9212"/>
<path d="M32.3013 149.076C37.2708 149.076 41.2994 145.048 41.2994 140.078C41.2994 135.109 37.2708 131.08 32.3013 131.08C27.3318 131.08 23.3032 135.109 23.3032 140.078C23.3032 145.048 27.3318 149.076 32.3013 149.076Z" fill="white"/>
<path d="M32.3065 149.999C31.99 149.999 31.668 149.983 31.3461 149.951C25.9 149.425 21.8973 144.569 22.4231 139.123C22.9489 133.677 27.8048 129.674 33.2509 130.2C35.8907 130.452 38.2677 131.719 39.9525 133.763C41.6372 135.807 42.426 138.388 42.1738 141.022C41.6802 146.147 37.3502 149.994 32.3065 149.994V149.999ZM32.285 132.008C30.4178 132.008 28.6258 132.647 27.1663 133.854C25.503 135.228 24.4728 137.165 24.2635 139.311C23.8343 143.743 27.0966 147.692 31.5232 148.121C35.9659 148.55 39.9041 145.288 40.3334 140.861C40.5373 138.715 39.8988 136.617 38.5252 134.954C37.1516 133.291 35.2147 132.26 33.0685 132.051C32.8055 132.024 32.5426 132.014 32.2797 132.014L32.285 132.008Z" fill="black"/>
<path d="M64.9774 75.9328C64.9774 75.9328 74.4155 66.5323 78.9279 67.8844C84.2935 69.4941 93.7476 73.7812 93.7476 73.7812C105.756 79.6887 121.284 95.2918 128.565 104.225C130.432 106.517 134.188 112.955 137.236 119.523C142.912 131.767 141.152 146.023 129.954 153.556C124.905 156.958 118.789 158.402 112.747 157.618L53.1303 149.913C47.7164 149.216 43.9498 144.177 44.8083 138.785C45.5219 134.289 49.2778 130.898 53.8224 130.64L105.477 127.711L64.9667 75.9328H64.9774Z" fill="#FBBC05"/>
<path d="M115.966 158.632C114.861 158.632 113.756 158.563 112.645 158.418L53.0336 150.713C50.1953 150.348 47.6895 148.883 45.9779 146.592C44.2663 144.301 43.5688 141.484 44.0195 138.662C44.7921 133.827 48.8968 130.114 53.7848 129.835L104.683 126.949V110.272C104.683 109.827 105.042 109.468 105.487 109.468C105.933 109.468 106.292 109.827 106.292 110.272V127.711C106.292 128.14 105.96 128.489 105.53 128.515L53.876 131.445C49.7391 131.681 46.2623 134.82 45.6077 138.914C45.2268 141.307 45.8169 143.689 47.2657 145.626C48.7144 147.563 50.8391 148.803 53.2375 149.114L112.849 156.819C118.697 157.575 124.61 156.18 129.504 152.886C139.677 146.039 142.488 132.765 136.506 119.855C133.394 113.143 129.708 106.892 127.942 104.73C120.978 96.1878 105.434 80.4291 93.388 74.5002C93.3076 74.468 81.5355 69.4243 76.2772 67.8469C75.8534 67.7181 75.6119 67.2728 75.7353 66.8435C75.8641 66.4196 76.3095 66.1728 76.7387 66.3016C82.0882 67.9059 93.5705 72.8261 94.0587 73.0354C106.373 79.0931 122.131 95.061 129.187 103.71C131.017 105.953 134.8 112.349 137.965 119.179C144.297 132.835 141.26 146.914 130.405 154.222C126.113 157.108 121.085 158.632 115.966 158.632Z" fill="white"/>
<path d="M102.649 128.676C102.225 128.676 101.871 128.344 101.844 127.92C101.817 127.474 102.155 127.093 102.601 127.072L114.56 126.374C114.995 126.348 115.387 126.686 115.408 127.131C115.435 127.576 115.097 127.957 114.652 127.979L102.692 128.676C102.692 128.676 102.66 128.676 102.643 128.676H102.649Z" fill="white"/>
<path d="M96.6343 26.3549C96.5484 26.3549 96.4679 26.3442 96.3821 26.3174C95.9421 26.1779 91.3599 23.1463 91.9448 21.0859C91.9609 21.0323 91.9769 20.984 91.9984 20.9357C87.5825 19.4924 83.215 17.4749 82.555 15.1677C82.0668 13.4615 82.555 12.5601 83.1237 12.0879C82.8501 11.605 82.775 11.2079 83.0808 10.8055C83.6389 10.0597 84.0949 10.2207 89.6644 12.2113C89.9488 12.3132 90.2439 12.4206 90.5497 12.5279C87.926 10.8484 85.6617 9.02416 84.4705 7.23206C83.95 6.44869 82.3672 4.07174 83.6657 2.67133C83.9822 2.32793 84.4491 2.11867 85.0285 2.02209C85.0715 1.6626 85.1949 1.32457 85.431 1.01873C86.2787 -0.0865753 88.6932 -1.12213 99.7731 2.66596C105.643 4.67268 111.272 7.13011 111.325 7.15694C111.733 7.334 111.915 7.81154 111.738 8.21932C111.561 8.6271 111.084 8.8149 110.676 8.63247C100.218 4.05028 88.0815 0.213897 86.7026 2.00063C92.814 2.58548 104.892 9.24414 106.528 10.1617C109.49 11.8196 110.858 13.2898 110.697 14.6419C110.644 15.1248 110.327 15.994 108.836 16.4179C105.021 17.5125 93.8925 15.0175 87.1265 6.5399C86.4343 5.67067 85.6616 4.60293 85.2646 3.55664C85.0714 3.59957 84.9266 3.66932 84.8354 3.7659C84.6851 3.92687 84.6905 4.67805 85.7958 6.34137C88.5215 10.4353 97.0689 14.4809 101.946 16.4984C106.078 17.9149 106.072 17.9954 106.062 18.6124C106.056 18.9612 105.815 19.2724 105.482 19.369C105.396 19.3958 105.182 19.369 104.87 19.2885C104.87 19.2885 104.854 19.2885 104.844 19.2831C104.023 19.0739 102.536 18.548 100.717 17.7808C100.267 17.6252 99.7785 17.4588 99.2365 17.271C97.9542 16.8364 96.7684 16.4233 95.6738 16.0423C98.1795 17.6198 100.739 19.4441 103.057 21.2523C106.378 23.8385 106.528 24.3965 106.378 25.0028C106.292 25.3623 106.003 25.6306 105.616 25.7057C104.72 25.8828 101.656 24.5092 98.1044 22.6098C96.865 22.3308 95.4163 21.9659 93.9086 21.5313C93.71 21.5474 93.5866 21.5742 93.5168 21.601C93.7583 22.4327 96.2479 24.4931 96.9133 24.8043C97.3372 24.9384 97.5464 25.3838 97.4122 25.8076C97.3049 26.1457 96.9777 26.3603 96.6289 26.3603L96.6343 26.3549ZM102.402 22.9478C102.579 23.0336 102.746 23.1141 102.912 23.1892C102.778 23.0819 102.633 22.9639 102.483 22.8459C102.461 22.8834 102.434 22.9156 102.408 22.9478H102.402ZM97.3211 20.3026C97.8147 20.4045 98.3513 20.5333 98.9254 20.6782C99.3278 20.7801 99.6819 20.8713 100.004 20.9518C93.4364 16.0852 88.6342 13.778 86.0641 13.2361C87.9635 14.878 92.8998 17.872 97.3211 20.3026ZM84.0573 13.4454C83.8749 13.7673 83.9984 14.3629 84.1003 14.7277C84.5886 16.434 88.5483 18.1671 92.6047 19.4763C88.4679 16.992 84.7978 14.4863 84.0842 13.4829L84.0573 13.4454ZM87.0728 3.61566C87.3357 4.10393 87.7489 4.7317 88.3874 5.53117C94.8475 13.6224 105.343 15.7418 108.396 14.8673C108.895 14.7224 109.093 14.54 109.098 14.4541C109.098 14.4434 109.168 13.4829 105.74 11.5621C96.9025 6.60965 90.3405 4.15222 87.0675 3.61566H87.0728Z" fill="black"/>
<path d="M58.0022 60.4692C58.0022 60.4692 59.6119 57.1533 62.8366 56.885C67.1827 56.5255 68.0519 58.8971 68.6367 59.8683C69.2645 60.9092 62.2893 59.2995 57.9968 60.4638L58.0022 60.4692Z" fill="#FFB0B0"/>
<path d="M38.2246 51.3907C43.1941 51.3907 47.2227 47.3621 47.2227 42.3926C47.2227 37.4231 43.1941 33.3946 38.2246 33.3946C33.2551 33.3946 29.2266 37.4231 29.2266 42.3926C29.2266 47.3621 33.2551 51.3907 38.2246 51.3907Z" fill="white"/>
<path d="M35.1609 32.96C35.4614 32.8634 35.7727 32.7775 36.0892 32.7078C41.4333 31.5273 46.7345 34.913 47.9149 40.2571C49.0953 45.6012 45.7043 50.9024 40.3656 52.0828C37.7794 52.6516 35.1234 52.1848 32.8913 50.7575C30.6592 49.3303 29.114 47.1197 28.5399 44.5335C27.4292 39.5059 30.3641 34.516 35.1609 32.96ZM40.725 50.0707C42.501 49.4966 44.0088 48.3323 45.0282 46.7387C46.1872 44.9198 46.5735 42.7628 46.1067 40.6542C45.1463 36.3081 40.8324 33.5555 36.4863 34.5106C32.1294 35.471 29.3876 39.785 30.3427 44.1311C30.8095 46.2344 32.0651 48.0372 33.8786 49.1962C35.6976 50.3551 37.8545 50.7414 39.9632 50.2746C40.2207 50.2156 40.4782 50.1459 40.725 50.0654V50.0707Z" fill="black"/>
<path d="M33.9001 54.5456C38.8203 55.769 41.8894 60.8341 40.9397 66.1513L31.11 121.004C29.4306 130.383 20.3842 136.317 11.853 133.65C3.6383 131.085 -0.579024 121.621 2.67251 113.057L22.4231 60.9789C24.2635 56.1285 29.1838 53.3759 33.9108 54.551L33.9001 54.5456Z" fill="#FBBC05"/>
<path d="M16.0487 135.099C14.5624 135.099 13.0708 134.874 11.606 134.417C7.60324 133.167 4.35171 130.329 2.4523 126.428C0.408022 122.227 0.20949 117.248 1.91038 112.767L21.661 60.6892C23.6409 55.4685 28.985 52.496 34.093 53.7676C39.3996 55.0876 42.7531 60.5873 41.7283 66.2962L31.8985 121.148C31.0186 126.063 28.1373 130.318 23.9951 132.829C21.5108 134.337 18.7905 135.104 16.0487 135.104V135.099ZM31.7054 55.0822C28.0568 55.0822 24.5906 57.486 23.1634 61.258L3.41276 113.336C1.87284 117.403 2.04989 121.916 3.89564 125.72C5.59653 129.218 8.50466 131.762 12.0781 132.878C15.7857 134.037 19.7187 133.527 23.1526 131.445C26.8978 129.17 29.5055 125.312 30.305 120.853L40.1347 66.0011C41.0093 61.1292 38.1816 56.4343 33.696 55.3183C33.0307 55.152 32.36 55.0715 31.7 55.0715L31.7054 55.0822Z" fill="white"/>
<path d="M41.3101 4.83902L42.5817 12.1845L44.6635 10.4299L46.7293 15.0014L46.0586 7.15158L44.009 8.87929L41.3101 4.83902Z" fill="#FBBC05"/>
<path d="M101.812 42.0224L96.3875 43.3531L97.8039 44.8179L94.4988 46.5992L100.331 45.6924L98.9307 44.2491L101.812 42.0224Z" fill="#FBBC05"/>
<path d="M106.636 49.3464L99.8697 47.8977L100.894 50.4839L96.3713 50.779L103.427 52.9735L102.418 50.4249L106.636 49.3464Z" fill="#FBBC05"/>
<path d="M36.0142 14.277L39.8076 18.3763L40.4032 16.4233L43.5689 18.4568L39.9417 13.7941L39.3569 15.715L36.0142 14.277Z" fill="#FBBC05"/>
<path d="M9.89447 29.4133C6.1493 30.7815 3.55773 34.5374 3.68651 38.5455C3.69187 38.7655 3.8475 39.0177 4.07821 39.0606C7.56583 39.6991 11.1876 38.186 13.3338 35.3906C13.8596 34.7091 14.2781 33.9633 14.5893 33.1585C14.863 32.4449 15.2654 31.3664 14.4928 30.8191C13.8167 30.3416 12.6739 30.5669 11.9334 30.7869C11.0266 31.0552 10.2111 31.5488 9.47597 32.1337C7.83948 33.4375 6.61611 35.192 5.39812 36.8768C4.75962 37.7621 3.93871 38.685 3.54166 39.7098C3.18216 40.622 3.48263 41.5449 4.13723 42.2424C5.47325 43.6535 7.65705 43.6267 9.34183 42.956C11.3807 42.1351 13.2265 40.6434 14.8952 39.243C15.7751 38.5026 16.6175 37.7192 17.4277 36.8983C18.1038 36.2115 19.0642 35.412 19.3271 34.4462C19.5686 33.5663 19.0696 32.7936 18.2326 32.5039C17.3097 32.182 16.301 32.418 15.4747 32.8956C14.0367 33.738 13.0119 35.1974 12.0997 36.5603C11.1876 37.9231 10.3774 39.3021 9.67987 40.7561C9.16477 41.8292 8.53161 43.1009 8.54771 44.3242C8.56917 45.73 10.1306 46.0841 11.3056 45.9178C12.2553 45.7837 13.1085 45.2954 13.8757 44.7427C14.702 44.1525 15.5337 43.514 16.2741 42.8219C17.0575 42.0868 17.7389 41.2498 18.3774 40.3859C18.694 39.9567 18.9999 39.5167 19.3057 39.0767C19.5793 38.6797 19.9764 38.2343 19.9925 37.7299C20.0247 36.8929 19.0535 36.4583 18.3614 36.351C17.4653 36.2115 16.5478 36.4959 15.8288 37.0378C14.1977 38.2611 13.4304 40.5952 12.9636 42.4946C12.7597 43.3155 12.2714 44.6462 13.0602 45.29C13.6504 45.7729 14.6859 45.8105 15.4157 45.7783C17.1273 45.7085 18.8067 44.9413 19.9818 43.6965C20.572 43.0741 21.0066 42.3497 21.307 41.5502C21.3875 41.3356 21.2534 41.0512 21.0602 40.9439C19.1554 39.8869 17.0897 41.7541 17.2668 43.734C17.4975 46.3095 20.0193 47.4899 22.128 48.3162C22.7719 48.5684 23.0509 47.5328 22.4124 47.2807C20.9154 46.6904 19.1501 45.9929 18.5116 44.3779C18.2326 43.675 18.2326 42.8272 18.7745 42.2531C19.2199 41.7809 19.9227 41.5395 20.5183 41.8668L20.2715 41.2605C19.7779 42.559 18.7477 43.5838 17.4975 44.174C16.8375 44.4852 13.5323 45.3383 13.7469 43.9808C14.0045 42.3282 14.5303 40.622 15.3835 39.1733C15.7859 38.4865 16.3331 37.8212 17.1004 37.5314C17.417 37.4134 17.7658 37.349 18.1038 37.3866C18.2862 37.408 18.4579 37.4509 18.6243 37.5314C18.9247 37.6709 18.9194 37.6924 18.7638 37.966C17.9697 39.3772 16.8375 40.7776 15.6786 41.9044C14.6162 42.9399 13.248 44.1418 11.8475 44.673C11.3056 44.8769 10.1145 45.1022 9.65305 44.5925C9.65305 44.5925 9.6101 44.2706 9.62619 44.1042C9.70131 43.2136 10.1306 42.3121 10.5008 41.5127C11.4666 39.4362 12.6792 37.3812 14.1118 35.5945C14.5625 35.0311 15.0615 34.4838 15.6517 34.0599C16.242 33.636 17.2829 33.1156 17.9911 33.5609C18.8872 34.1243 17.4385 35.3315 16.9931 35.7983C16.3922 36.4315 15.7644 37.0378 15.1205 37.6226C13.806 38.8138 12.4002 39.9084 10.9193 40.8795C9.62084 41.7273 8.10776 42.5697 6.49809 42.2907C5.75764 42.1619 4.96889 41.7756 4.60403 41.0834C4.14259 40.2142 4.96889 39.345 5.44643 38.6636C6.42833 37.2578 7.4156 35.8305 8.54237 34.5374C9.66914 33.2443 10.9408 32.0746 12.5934 31.7312C12.867 31.6722 13.6826 31.4844 13.8757 31.742C13.9831 31.8815 13.6074 32.7292 13.5538 32.8741C13.2801 33.5716 12.8885 34.237 12.4217 34.8272C10.5437 37.2041 7.37266 38.5777 4.36257 38.0251L4.75428 38.5401C4.63624 35.0364 6.8683 31.6508 10.1735 30.4435C10.8174 30.2074 10.5383 29.1719 9.8891 29.408L9.89447 29.4133Z" fill="black"/>
<path d="M66.3188 187C65.8734 187 65.5139 186.641 65.5139 186.195V180.272C65.5139 179.826 65.8734 179.467 66.3188 179.467C66.7641 179.467 67.1236 179.826 67.1236 180.272V186.195C67.1236 186.641 66.7641 187 66.3188 187Z" fill="black"/>
</svg>
