<svg width="329" height="213" viewBox="0 0 329 213" fill="none" xmlns="http://www.w3.org/2000/svg">
<path d="M0 20C0 8.9543 8.95431 0 20 0H309C320.046 0 329 8.95431 329 20V213H0V20Z" fill="#FCEBBE"/>
<circle cx="162.5" cy="125.5" r="79.5" fill="white"/>
<rect y="168" width="329" height="45" fill="#FFDB7D"/>
<path d="M242.584 64.0957H149.169V136.624H242.584V64.0957Z" fill="#EFEFEF"/>
<path d="M242.68 136.721H149.073V64H242.68V136.721ZM149.265 136.529H242.488V64.192H149.265V136.529Z" fill="black"/>
<path d="M242.584 69.7793H149.169V83.9212H242.584V69.7793Z" fill="#4694BD"/>
<g opacity="0.55">
<path d="M242.68 84.0175H149.073V69.6836H242.68V84.0175ZM149.265 83.8255H242.488V69.8705H149.265V83.8255Z" fill="black"/>
</g>
<path d="M180.317 88.7559H154.1V126.109H180.317V88.7559Z" fill="#85ACC2"/>
<path d="M180.413 126.2H154.004V88.6602H180.413V126.2ZM154.196 126.008H180.226V88.8471H154.196V126.008Z" fill="black"/>
<path d="M178.64 90.8594H156.015V124.004H178.64V90.8594Z" fill="#88C9E3"/>
<path d="M178.736 124.101H155.919V90.7695H178.736V124.101ZM156.111 123.909H178.549V90.9565H156.111V123.909Z" fill="black"/>
<path d="M237.103 83.9922H185.244V136.654H237.103V83.9922Z" fill="#85ACC2"/>
<path d="M237.198 136.751H185.153V83.8965H237.198V136.751ZM185.34 136.559H237.006V84.0885H185.34V136.559Z" fill="black"/>
<path d="M234.682 86.457H187.664V133.476H234.682V86.457Z" fill="#88C9E3"/>
<path d="M234.778 133.578H187.568V86.3672H234.778V133.578ZM187.76 133.386H234.591V86.5541H187.76V133.386Z" fill="black"/>
<g opacity="0.39">
<path d="M218.403 86.459L192.711 133.483H187.734L213.426 86.459H218.403Z" fill="white"/>
</g>
<g opacity="0.39">
<path d="M234.682 100.363V106.836L220.126 133.482H216.589L234.682 100.363Z" fill="white"/>
</g>
<g opacity="0.39">
<path d="M234.682 86.459V92.8656L212.492 133.483H195.778L221.47 86.459H234.682Z" fill="white"/>
</g>
<path d="M234.803 127.559H187.517V133.723H234.803V127.559Z" fill="#A4BFD3"/>
<path d="M234.899 133.819H187.421V127.463H234.899V133.819ZM187.613 133.627H234.712V127.65H187.613V133.627Z" fill="black"/>
<path d="M234.708 97.4589V95.2812H187.643V97.4589H195.394V125.384H187.704V127.562H195.394V134.251H197.572V127.562H209.9V134.089H212.077V127.562H224.047V133.726H226.224V127.562H234.713V125.384H226.224V97.4589H234.713H234.708ZM197.572 125.384V97.4589H209.9V125.384H197.572ZM224.047 125.384H212.077V97.4589H224.047V125.384Z" fill="#85ACC2"/>
<path d="M197.668 134.343H195.303V127.654H187.613V125.289H195.303V97.556H187.552V95.1914H234.808V97.556H226.32V125.289H234.808V127.654H226.32V133.818H223.956V127.654H212.178V134.182H209.814V127.654H197.673V134.343H197.668ZM195.49 134.151H197.476V127.462H209.996V133.99H211.981V127.462H224.138V133.626H226.123V127.462H234.611V125.476H226.123V97.3589H234.611V95.3733H187.739V97.3589H195.49V125.476H187.8V127.462H195.49V134.151ZM224.138 125.476H211.981V97.3589H224.138V125.476ZM212.168 125.284H223.946V97.5509H212.168V125.284ZM209.991 125.476H197.47V97.3589H209.991V125.476ZM197.662 125.284H209.804V97.5509H197.662V125.284Z" fill="black"/>
<path d="M169.333 80.9105C169.247 80.9105 169.182 80.8853 169.136 80.8347C169.091 80.7842 169.065 80.7236 169.065 80.6427V73.0943C169.065 73.0084 169.091 72.9427 169.136 72.8922C169.182 72.8417 169.247 72.8164 169.333 72.8164H174.108C174.194 72.8164 174.259 72.8417 174.305 72.8922C174.35 72.9427 174.376 73.0084 174.376 73.0943V73.5339C174.376 73.6198 174.35 73.6854 174.305 73.7309C174.259 73.7764 174.194 73.8016 174.108 73.8016H170.177V76.333H173.855C173.941 76.333 174.007 76.3582 174.052 76.4087C174.098 76.4593 174.123 76.5249 174.123 76.6108V77.0403C174.123 77.1161 174.098 77.1818 174.052 77.2323C174.007 77.2828 173.941 77.3081 173.855 77.3081H170.177V79.9303H174.199C174.285 79.9303 174.35 79.9556 174.396 80.0011C174.441 80.0465 174.467 80.1122 174.467 80.1981V80.6478C174.467 80.7236 174.441 80.7893 174.396 80.8398C174.35 80.8903 174.285 80.9156 174.199 80.9156H169.333V80.9105Z" fill="white"/>
<path d="M174.204 81.0018H169.338C169.227 81.0018 169.136 80.9664 169.07 80.8957C169.01 80.83 168.974 80.7441 168.974 80.643V73.0946C168.974 72.9834 169.005 72.8976 169.07 72.8268C169.136 72.7561 169.227 72.7207 169.338 72.7207H174.113C174.224 72.7207 174.315 72.7561 174.381 72.8268C174.441 72.8925 174.477 72.9834 174.477 73.0946V73.5342C174.477 73.6453 174.446 73.7312 174.381 73.7969C174.315 73.8626 174.229 73.8929 174.118 73.8929H170.283V76.2322H173.865C173.976 76.2322 174.067 76.2676 174.133 76.3383C174.194 76.409 174.229 76.4949 174.229 76.6061V77.0355C174.229 77.1366 174.199 77.2225 174.133 77.2932C174.067 77.364 173.981 77.3993 173.865 77.3993H170.283V79.8346H174.209C174.32 79.8346 174.406 79.8649 174.472 79.9306C174.537 79.9963 174.568 80.0822 174.568 80.1934V80.643C174.568 80.7441 174.537 80.83 174.472 80.8957C174.406 80.9664 174.32 81.0018 174.204 81.0018ZM169.338 72.9127C169.283 72.9127 169.237 72.9279 169.212 72.9582C169.182 72.9885 169.166 73.034 169.166 73.0946V80.643C169.166 80.6936 169.182 80.739 169.212 80.7693C169.237 80.7997 169.283 80.8148 169.338 80.8148H174.204C174.259 80.8148 174.305 80.7997 174.33 80.7693C174.36 80.739 174.376 80.6936 174.376 80.643V80.1934C174.376 80.1327 174.36 80.0923 174.335 80.062C174.31 80.0317 174.264 80.0216 174.204 80.0216H170.086V77.2073H173.855C173.911 77.2073 173.956 77.1922 173.981 77.1619C174.012 77.1315 174.027 77.0861 174.027 77.0355V76.6061C174.027 76.5454 174.012 76.5 173.981 76.4697C173.956 76.4393 173.911 76.4242 173.855 76.4242H170.086V73.7009H174.113C174.173 73.7009 174.214 73.6857 174.244 73.6605C174.274 73.6352 174.285 73.5897 174.285 73.5291V73.0895C174.285 73.0289 174.269 72.9834 174.239 72.9531C174.214 72.9228 174.168 72.9077 174.113 72.9077H169.338V72.9127Z" fill="black"/>
<path d="M176.341 80.9136C176.255 80.9136 176.189 80.8883 176.144 80.8378C176.098 80.7873 176.073 80.7267 176.073 80.6458V73.0974C176.073 73.0115 176.098 72.9458 176.144 72.8953C176.189 72.8448 176.255 72.8195 176.341 72.8195H176.917C177.003 72.8195 177.068 72.8448 177.119 72.8953C177.169 72.9458 177.195 73.0115 177.195 73.0974V75.9621L180.282 73.0014C180.312 72.9711 180.363 72.9307 180.438 72.8852C180.509 72.8397 180.61 72.8145 180.731 72.8145H181.358C181.419 72.8145 181.474 72.8397 181.52 72.8852C181.565 72.9307 181.59 72.9862 181.59 73.0469C181.59 73.1075 181.575 73.158 181.545 73.1984L177.973 76.6897L181.777 80.5145C181.818 80.5599 181.833 80.6155 181.833 80.6761C181.833 80.7368 181.808 80.7923 181.762 80.8378C181.717 80.8833 181.661 80.9085 181.601 80.9085H180.954C180.822 80.9085 180.721 80.8833 180.656 80.8328C180.585 80.7822 180.534 80.7469 180.504 80.7216L177.2 77.4627V80.6408C177.2 80.7166 177.175 80.7822 177.124 80.8328C177.073 80.8833 177.008 80.9085 176.922 80.9085H176.346L176.341 80.9136Z" fill="white"/>
<path d="M181.601 81.004H180.954C180.802 81.004 180.686 80.9737 180.6 80.9131C180.529 80.8626 180.479 80.8272 180.449 80.8019L180.438 80.7918L177.296 77.6896V80.6403C177.296 80.7413 177.26 80.8323 177.195 80.8979C177.129 80.9636 177.038 80.999 176.927 80.999H176.351C176.24 80.999 176.149 80.9636 176.083 80.8929C176.023 80.8272 175.987 80.7413 175.987 80.6403V73.0918C175.987 72.9807 176.018 72.8948 176.083 72.824C176.149 72.7533 176.24 72.7179 176.351 72.7179H176.927C177.038 72.7179 177.129 72.7533 177.195 72.819C177.266 72.8897 177.296 72.9807 177.296 73.0868V75.7292L180.221 72.9251C180.257 72.8897 180.312 72.8493 180.393 72.7988C180.479 72.7432 180.595 72.7129 180.737 72.7129H181.363C181.449 72.7129 181.53 72.7483 181.59 72.8089C181.656 72.8746 181.686 72.9504 181.686 73.0363C181.686 73.1222 181.666 73.1878 181.621 73.2434L181.611 73.2535L178.109 76.6791L181.848 80.4432C181.899 80.5089 181.929 80.5796 181.929 80.6655C181.929 80.7514 181.899 80.8323 181.833 80.8929C181.767 80.9586 181.692 80.9889 181.606 80.9889L181.601 81.004ZM180.565 80.6504C180.595 80.6756 180.646 80.7059 180.706 80.7565C180.757 80.7969 180.843 80.812 180.954 80.812H181.601C181.636 80.812 181.666 80.7969 181.697 80.7716C181.727 80.7464 181.737 80.711 181.737 80.6756C181.737 80.6352 181.727 80.6049 181.702 80.5796L177.836 76.6892L181.474 73.1373C181.474 73.1373 181.494 73.0868 181.494 73.0514C181.494 73.016 181.479 72.9857 181.454 72.9554C181.429 72.9251 181.393 72.915 181.358 72.915H180.732C180.625 72.915 180.545 72.9352 180.489 72.9706C180.408 73.0211 180.368 73.0565 180.348 73.0716L177.099 76.184V73.0969C177.099 73.0363 177.084 72.9958 177.053 72.9605C177.023 72.9301 176.978 72.915 176.917 72.915H176.341C176.285 72.915 176.24 72.9301 176.215 72.9605C176.184 72.9908 176.169 73.0363 176.169 73.0969V80.6453C176.169 80.6958 176.184 80.7413 176.215 80.7716C176.24 80.8019 176.285 80.8171 176.341 80.8171H176.917C176.978 80.8171 177.018 80.8019 177.053 80.7716C177.084 80.7413 177.099 80.7009 177.099 80.6504V77.245L180.56 80.6605L180.565 80.6504Z" fill="black"/>
<path d="M185.461 81.0246C184.789 81.0246 184.228 80.9235 183.773 80.7164C183.319 80.5143 182.97 80.2465 182.727 79.9181C182.485 79.5897 182.354 79.2411 182.338 78.8722C182.338 78.8116 182.364 78.756 182.414 78.7055C182.465 78.655 182.525 78.6297 182.591 78.6297H183.182C183.273 78.6297 183.344 78.655 183.389 78.7004C183.435 78.7459 183.465 78.8015 183.48 78.8621C183.521 79.0491 183.612 79.231 183.763 79.4128C183.915 79.5947 184.127 79.7463 184.4 79.8625C184.673 79.9838 185.026 80.0393 185.456 80.0393C186.118 80.0393 186.608 79.9231 186.916 79.6857C187.229 79.4482 187.386 79.135 187.386 78.7459C187.386 78.4781 187.305 78.2609 187.138 78.0941C186.972 77.9274 186.719 77.7809 186.38 77.6495C186.042 77.5181 185.602 77.3767 185.062 77.2201C184.501 77.0584 184.031 76.8815 183.662 76.6895C183.293 76.4975 183.015 76.2601 182.834 75.9721C182.652 75.6892 182.561 75.3254 182.561 74.8858C182.561 74.4715 182.672 74.0976 182.894 73.7692C183.117 73.4408 183.44 73.1831 183.859 72.9911C184.279 72.7991 184.789 72.7031 185.39 72.7031C185.87 72.7031 186.284 72.7688 186.643 72.8951C187.002 73.0214 187.3 73.1932 187.537 73.4054C187.775 73.6176 187.957 73.845 188.083 74.0875C188.204 74.33 188.27 74.5675 188.28 74.7999C188.28 74.8555 188.26 74.906 188.225 74.9565C188.184 75.0071 188.124 75.0323 188.038 75.0323H187.426C187.371 75.0323 187.315 75.0172 187.26 74.9868C187.204 74.9565 187.159 74.8959 187.128 74.8151C187.083 74.4968 186.906 74.234 186.598 74.0168C186.289 73.7995 185.89 73.6934 185.395 73.6934C184.9 73.6934 184.486 73.7894 184.178 73.9814C183.864 74.1734 183.708 74.4766 183.708 74.8808C183.708 75.1435 183.778 75.3607 183.925 75.5325C184.071 75.7043 184.304 75.8559 184.617 75.9872C184.935 76.1186 185.345 76.255 185.855 76.4016C186.471 76.5733 186.977 76.7502 187.371 76.9371C187.765 77.1241 188.053 77.3615 188.245 77.6445C188.432 77.9274 188.528 78.2861 188.528 78.7257C188.528 79.2107 188.401 79.625 188.149 79.9686C187.896 80.3122 187.537 80.5749 187.078 80.7568C186.618 80.9387 186.077 81.0296 185.456 81.0296L185.461 81.0246Z" fill="white"/>
<path d="M185.461 81.1206C184.779 81.1206 184.198 81.0144 183.733 80.8073C183.263 80.5951 182.899 80.3172 182.652 79.9787C182.399 79.6351 182.263 79.2663 182.247 78.8823C182.247 78.7913 182.283 78.7105 182.348 78.6448C182.414 78.5791 182.5 78.5438 182.596 78.5438H183.187C183.303 78.5438 183.399 78.5741 183.46 78.6398C183.521 78.6953 183.556 78.7661 183.576 78.8469C183.612 79.0187 183.703 79.1905 183.839 79.3572C183.98 79.524 184.182 79.6705 184.44 79.7816C184.698 79.8928 185.041 79.9534 185.461 79.9534C186.097 79.9534 186.572 79.8423 186.865 79.62C187.153 79.4027 187.295 79.1197 187.295 78.756C187.295 78.5084 187.224 78.3164 187.073 78.1699C186.916 78.0133 186.673 77.8718 186.35 77.7455C186.017 77.6141 185.577 77.4726 185.041 77.3211C184.476 77.1594 184.001 76.9775 183.627 76.7805C183.243 76.5834 182.955 76.3308 182.763 76.0327C182.571 75.7346 182.475 75.3506 182.475 74.8959C182.475 74.4411 182.591 74.0673 182.828 73.7287C183.061 73.3902 183.399 73.1123 183.834 72.9153C184.263 72.7182 184.794 72.6172 185.405 72.6172C185.89 72.6172 186.325 72.6829 186.694 72.8142C187.062 72.9456 187.376 73.1224 187.618 73.3397C187.866 73.5569 188.053 73.7995 188.184 74.0521C188.315 74.3047 188.381 74.5574 188.391 74.8049C188.391 74.8858 188.366 74.9565 188.315 75.0222C188.26 75.098 188.169 75.1333 188.058 75.1333H187.446C187.376 75.1333 187.305 75.1131 187.234 75.0778C187.153 75.0373 187.098 74.9615 187.057 74.8554V74.8352C187.012 74.5422 186.85 74.3047 186.562 74.1026C186.269 73.9005 185.885 73.7944 185.415 73.7944C184.945 73.7944 184.541 73.8854 184.243 74.0673C183.96 74.2441 183.819 74.5119 183.819 74.8858C183.819 75.1283 183.884 75.3203 184.016 75.4769C184.152 75.6386 184.375 75.7851 184.673 75.9064C184.986 76.0377 185.395 76.1742 185.9 76.3207C186.517 76.4925 187.032 76.6743 187.431 76.8663C187.835 77.0634 188.144 77.311 188.341 77.604C188.538 77.9021 188.639 78.281 188.639 78.7358C188.639 79.241 188.502 79.6755 188.24 80.0343C187.977 80.3879 187.603 80.6658 187.128 80.8528C186.658 81.0397 186.102 81.1306 185.471 81.1306L185.461 81.1206ZM182.596 78.7257C182.551 78.7257 182.515 78.7408 182.485 78.7711C182.444 78.8115 182.439 78.8469 182.439 78.8722C182.455 79.2158 182.576 79.5492 182.808 79.8625C183.041 80.1757 183.379 80.4334 183.819 80.6305C184.258 80.8275 184.814 80.9286 185.466 80.9286C186.077 80.9286 186.608 80.8376 187.057 80.6658C187.497 80.494 187.841 80.2364 188.083 79.913C188.326 79.5896 188.447 79.1905 188.447 78.7257C188.447 78.3063 188.356 77.9627 188.179 77.7C188.002 77.4322 187.719 77.2099 187.345 77.028C186.961 76.8411 186.456 76.6642 185.845 76.4975C185.334 76.351 184.915 76.2095 184.597 76.0782C184.268 75.9417 184.021 75.7801 183.869 75.5931C183.708 75.4011 183.627 75.1637 183.627 74.8807C183.627 74.4411 183.798 74.1077 184.142 73.9005C184.47 73.6984 184.895 73.5974 185.41 73.5974C185.926 73.5974 186.345 73.7136 186.668 73.9359C186.992 74.1633 187.184 74.4513 187.239 74.7898C187.259 74.8453 187.29 74.8858 187.325 74.9009C187.371 74.9262 187.411 74.9363 187.446 74.9363H188.058C188.139 74.9363 188.159 74.906 188.169 74.8959C188.194 74.8605 188.209 74.8302 188.209 74.7999C188.204 74.5877 188.139 74.3603 188.022 74.1329C187.906 73.9005 187.729 73.6833 187.502 73.4812C187.275 73.2791 186.982 73.1123 186.638 72.9911C186.289 72.8698 185.88 72.8041 185.415 72.8041C184.829 72.8041 184.329 72.9001 183.925 73.082C183.521 73.269 183.212 73.5165 183 73.8298C182.788 74.138 182.682 74.4967 182.682 74.8908C182.682 75.3102 182.768 75.6588 182.94 75.9266C183.111 76.1944 183.374 76.4268 183.728 76.6087C184.092 76.7956 184.556 76.9724 185.107 77.1341C185.648 77.2907 186.092 77.4322 186.431 77.5636C186.779 77.7 187.047 77.8566 187.219 78.0284C187.401 78.2103 187.497 78.4528 187.497 78.7509C187.497 79.1753 187.325 79.5138 186.992 79.7665C186.663 80.014 186.153 80.1404 185.471 80.1404C185.026 80.1404 184.657 80.0797 184.374 79.9534C184.086 79.8271 183.864 79.6705 183.702 79.4785C183.541 79.2865 183.44 79.0894 183.399 78.8873C183.389 78.8469 183.369 78.8065 183.334 78.7711C183.308 78.7459 183.258 78.7307 183.192 78.7307H182.601L182.596 78.7257Z" fill="black"/>
<path d="M190.316 80.9105C190.23 80.9105 190.165 80.8853 190.119 80.8347C190.074 80.7842 190.048 80.7236 190.048 80.6427V73.0943C190.048 73.0084 190.074 72.9427 190.119 72.8922C190.165 72.8417 190.23 72.8164 190.316 72.8164H193.252C193.823 72.8164 194.318 72.9074 194.737 73.0943C195.157 73.2812 195.485 73.5541 195.712 73.9229C195.945 74.2867 196.061 74.7465 196.061 75.2921C196.061 75.8378 195.945 76.2925 195.712 76.6563C195.48 77.0201 195.157 77.2929 194.737 77.4748C194.318 77.6618 193.823 77.7527 193.252 77.7527H191.206V80.6427C191.206 80.7185 191.18 80.7842 191.13 80.8347C191.079 80.8853 191.014 80.9105 190.928 80.9105H190.316ZM191.195 76.7826H193.196C193.767 76.7826 194.197 76.6563 194.48 76.4037C194.762 76.1511 194.909 75.7772 194.909 75.2921C194.909 74.8071 194.773 74.4433 194.495 74.1806C194.217 73.9179 193.787 73.7865 193.201 73.7865H191.2V76.7826H191.195Z" fill="white"/>
<path d="M190.928 81.0018H190.316C190.205 81.0018 190.114 80.9664 190.048 80.8957C189.988 80.83 189.952 80.7441 189.952 80.643V73.0946C189.952 72.9834 189.983 72.8976 190.048 72.8268C190.114 72.7561 190.205 72.7207 190.316 72.7207H193.252C193.833 72.7207 194.343 72.8167 194.778 73.0037C195.212 73.1957 195.556 73.4836 195.798 73.8676C196.036 74.2466 196.162 74.7266 196.162 75.2874C196.162 75.8482 196.041 76.3282 195.798 76.7021C195.556 77.081 195.217 77.369 194.778 77.561C194.348 77.7479 193.833 77.849 193.252 77.849H191.301V80.643C191.301 80.7441 191.266 80.835 191.2 80.9007C191.13 80.9714 191.044 81.0018 190.933 81.0018H190.928ZM190.316 72.9127C190.261 72.9127 190.215 72.9279 190.19 72.9582C190.16 72.9885 190.144 73.034 190.144 73.0946V80.643C190.144 80.6936 190.16 80.739 190.19 80.7693C190.215 80.7997 190.261 80.8148 190.316 80.8148H190.928C190.988 80.8148 191.029 80.7997 191.064 80.7693C191.094 80.739 191.109 80.6986 191.109 80.6481V77.6621H193.252C193.807 77.6621 194.293 77.5711 194.697 77.3943C195.096 77.2174 195.414 76.9547 195.631 76.6111C195.854 76.2676 195.965 75.8229 195.965 75.2975C195.965 74.772 195.854 74.3274 195.631 73.9788C195.409 73.6302 195.096 73.3624 194.697 73.1906C194.293 73.0138 193.802 72.9228 193.252 72.9228H190.316V72.9127ZM193.196 76.8789H191.099V73.6958H193.196C193.802 73.6958 194.262 73.8373 194.555 74.1152C194.853 74.3931 195 74.7922 195 75.2924C195 75.7926 194.843 76.2019 194.54 76.4747C194.237 76.7425 193.787 76.8789 193.196 76.8789ZM191.291 76.6869H193.196C193.742 76.6869 194.151 76.5657 194.414 76.3282C194.677 76.0958 194.808 75.7421 194.808 75.2874C194.808 74.8327 194.677 74.4891 194.424 74.2466C194.166 74.004 193.752 73.8777 193.196 73.8777H191.291V76.6819V76.6869Z" fill="black"/>
<path d="M197.738 80.9105C197.652 80.9105 197.587 80.8853 197.541 80.8347C197.496 80.7842 197.47 80.7236 197.47 80.6427V73.0943C197.47 73.0084 197.496 72.9427 197.541 72.8922C197.587 72.8417 197.652 72.8164 197.738 72.8164H202.513C202.599 72.8164 202.664 72.8417 202.71 72.8922C202.755 72.9427 202.781 73.0084 202.781 73.0943V73.5339C202.781 73.6198 202.755 73.6854 202.71 73.7309C202.664 73.7764 202.599 73.8016 202.513 73.8016H198.582V76.333H202.26C202.346 76.333 202.412 76.3582 202.457 76.4087C202.503 76.4593 202.528 76.5249 202.528 76.6108V77.0403C202.528 77.1161 202.503 77.1818 202.457 77.2323C202.412 77.2828 202.346 77.3081 202.26 77.3081H198.582V79.9303H202.604C202.69 79.9303 202.755 79.9556 202.801 80.0011C202.846 80.0465 202.872 80.1122 202.872 80.1981V80.6478C202.872 80.7236 202.846 80.7893 202.801 80.8398C202.755 80.8903 202.69 80.9156 202.604 80.9156H197.738V80.9105Z" fill="white"/>
<path d="M202.604 81.0018H197.738C197.627 81.0018 197.536 80.9664 197.47 80.8957C197.41 80.83 197.374 80.7441 197.374 80.643V73.0946C197.374 72.9834 197.405 72.8976 197.47 72.8268C197.536 72.7561 197.627 72.7207 197.738 72.7207H202.513C202.624 72.7207 202.715 72.7561 202.781 72.8268C202.841 72.8925 202.877 72.9834 202.877 73.0946V73.5342C202.877 73.6453 202.846 73.7312 202.781 73.7969C202.715 73.8626 202.629 73.8929 202.518 73.8929H198.683V76.2322H202.265C202.376 76.2322 202.467 76.2676 202.533 76.3383C202.594 76.409 202.629 76.4949 202.629 76.6061V77.0355C202.629 77.1366 202.599 77.2225 202.533 77.2882C202.467 77.3589 202.376 77.3943 202.265 77.3943H198.683V79.8296H202.609C202.72 79.8296 202.806 79.8599 202.872 79.9256C202.937 79.9913 202.968 80.0772 202.968 80.1883V80.638C202.968 80.739 202.937 80.8249 202.872 80.8906C202.806 80.9613 202.72 80.9967 202.604 80.9967V81.0018ZM197.738 72.9127C197.683 72.9127 197.637 72.9279 197.612 72.9582C197.582 72.9885 197.566 73.034 197.566 73.0946V80.643C197.566 80.6936 197.582 80.739 197.612 80.7693C197.637 80.7997 197.683 80.8148 197.738 80.8148H202.604C202.659 80.8148 202.705 80.7997 202.73 80.7693C202.76 80.739 202.776 80.6936 202.776 80.643V80.1934C202.776 80.1327 202.76 80.0923 202.735 80.062C202.705 80.0317 202.664 80.0216 202.604 80.0216H198.486V77.2073H202.255C202.311 77.2073 202.356 77.1922 202.381 77.1619C202.412 77.1315 202.427 77.0861 202.427 77.0355V76.6061C202.427 76.5454 202.412 76.5 202.381 76.4697C202.356 76.4393 202.311 76.4242 202.255 76.4242H198.486V73.7009H202.513C202.573 73.7009 202.614 73.6857 202.644 73.6605C202.675 73.6302 202.685 73.5897 202.685 73.5291V73.0895C202.685 73.0289 202.669 72.9834 202.639 72.9531C202.614 72.9228 202.568 72.9077 202.513 72.9077H197.738V72.9127Z" fill="black"/>
<path d="M204.741 80.9105C204.655 80.9105 204.59 80.8853 204.544 80.8347C204.499 80.7842 204.473 80.7236 204.473 80.6427V73.0943C204.473 73.0084 204.499 72.9427 204.544 72.8922C204.59 72.8417 204.655 72.8164 204.741 72.8164H207.363C208.157 72.8164 208.798 72.9377 209.283 73.1751C209.768 73.4126 210.122 73.7663 210.344 74.2311C210.567 74.6959 210.683 75.2719 210.693 75.949C210.703 76.2976 210.703 76.6007 210.703 76.8635C210.703 77.1262 210.703 77.4243 210.693 77.7628C210.678 78.4702 210.562 79.0613 210.339 79.5261C210.122 79.991 209.773 80.3396 209.298 80.567C208.824 80.7943 208.197 80.9055 207.419 80.9055H204.736L204.741 80.9105ZM205.61 79.9303H207.368C207.899 79.9303 208.323 79.8596 208.642 79.7131C208.96 79.5666 209.187 79.3341 209.329 79.0057C209.47 78.6824 209.546 78.2529 209.556 77.7224C209.571 77.49 209.581 77.2879 209.581 77.1161V76.5957C209.581 76.4239 209.571 76.2218 209.556 75.9995C209.541 75.2517 209.364 74.701 209.026 74.3423C208.687 73.9835 208.116 73.8067 207.313 73.8067H205.615V79.9354L205.61 79.9303Z" fill="white"/>
<path d="M207.424 81.0018H204.741C204.63 81.0018 204.539 80.9664 204.473 80.8957C204.413 80.83 204.377 80.7441 204.377 80.643V73.0946C204.377 72.9834 204.408 72.8976 204.473 72.8268C204.539 72.7561 204.63 72.7207 204.741 72.7207H207.363C208.167 72.7207 208.829 72.847 209.324 73.0895C209.824 73.3371 210.198 73.7059 210.43 74.191C210.658 74.6659 210.779 75.2571 210.784 75.9493C210.794 76.2979 210.794 76.6061 210.794 76.8638C210.794 77.1214 210.794 77.4195 210.784 77.7682C210.769 78.4856 210.647 79.0919 210.42 79.5668C210.193 80.0519 209.829 80.4157 209.334 80.6531C208.849 80.8855 208.202 81.0018 207.414 81.0018H207.424ZM204.741 72.9127C204.686 72.9127 204.64 72.9279 204.615 72.9582C204.584 72.9885 204.569 73.034 204.569 73.0946V80.643C204.569 80.6936 204.584 80.739 204.615 80.7693C204.64 80.7997 204.686 80.8148 204.741 80.8148H207.424C208.187 80.8148 208.803 80.7037 209.263 80.4813C209.713 80.2641 210.051 79.9306 210.258 79.486C210.471 79.0363 210.587 78.4553 210.602 77.7631C210.612 77.4195 210.612 77.1214 210.612 76.8638C210.612 76.6061 210.612 76.3029 210.602 75.9543C210.597 75.2924 210.481 74.7266 210.263 74.2769C210.051 73.8323 209.708 73.4937 209.243 73.2613C208.773 73.0289 208.141 72.9127 207.368 72.9127H204.746H204.741ZM207.363 80.0216H205.509V73.7059H207.303C208.126 73.7059 208.728 73.8979 209.081 74.2718C209.435 74.6457 209.622 75.2267 209.637 75.9947C209.652 76.217 209.662 76.4191 209.662 76.5909V77.1113C209.662 77.2831 209.652 77.4903 209.637 77.7227C209.627 78.2583 209.551 78.7029 209.405 79.0363C209.253 79.3799 209.005 79.6325 208.672 79.7892C208.344 79.9407 207.904 80.0165 207.358 80.0165L207.363 80.0216ZM205.701 79.8296H207.363C207.879 79.8296 208.293 79.7588 208.596 79.6174C208.894 79.481 209.101 79.2637 209.238 78.9605C209.374 78.6523 209.45 78.233 209.455 77.7126C209.47 77.4802 209.48 77.2781 209.48 77.1063V76.5859C209.48 76.4141 209.47 76.217 209.455 75.9947C209.44 75.2722 209.268 74.7316 208.95 74.3931C208.632 74.0546 208.081 73.8828 207.308 73.8828H205.701V79.8195V79.8296Z" fill="black"/>
<path d="M212.704 80.9125C212.618 80.9125 212.552 80.8872 212.507 80.8367C212.461 80.7862 212.436 80.7255 212.436 80.6447V73.0861C212.436 73.0104 212.461 72.9447 212.507 72.8942C212.552 72.8436 212.618 72.8184 212.704 72.8184H213.315C213.391 72.8184 213.457 72.8436 213.507 72.8942C213.558 72.9447 213.583 73.0104 213.583 73.0861V80.6447C213.583 80.7205 213.558 80.7862 213.507 80.8367C213.457 80.8872 213.391 80.9125 213.315 80.9125H212.704Z" fill="white"/>
<path d="M213.32 81.0045H212.709C212.598 81.0045 212.507 80.9691 212.441 80.8984C212.381 80.8327 212.345 80.7468 212.345 80.6458V73.0872C212.345 72.9862 212.376 72.9003 212.441 72.8346C212.507 72.7639 212.598 72.7285 212.709 72.7285H213.32C213.421 72.7285 213.507 72.7639 213.578 72.8296C213.649 72.9003 213.679 72.9862 213.679 73.0872V80.6458C213.679 80.7468 213.644 80.8378 213.578 80.9035C213.507 80.9742 213.421 81.0045 213.32 81.0045ZM212.709 72.9155C212.653 72.9155 212.608 72.9306 212.583 72.9609C212.552 72.9912 212.537 73.0367 212.537 73.0872V80.6458C212.537 80.6963 212.552 80.7418 212.583 80.7721C212.608 80.8024 212.653 80.8176 212.709 80.8176H213.32C213.371 80.8176 213.411 80.8024 213.442 80.7721C213.472 80.7418 213.487 80.7014 213.487 80.6508V73.0923C213.487 73.0418 213.472 73.0014 213.442 72.971C213.411 72.9407 213.371 72.9256 213.32 72.9256H212.709V72.9155Z" fill="black"/>
<path d="M218.196 81.0246C217.524 81.0246 216.963 80.9235 216.508 80.7164C216.054 80.5143 215.705 80.2465 215.463 79.9181C215.22 79.5897 215.089 79.2411 215.073 78.8722C215.073 78.8116 215.099 78.756 215.149 78.7055C215.2 78.655 215.26 78.6297 215.326 78.6297H215.917C216.008 78.6297 216.079 78.655 216.124 78.7004C216.17 78.7459 216.2 78.8015 216.215 78.8621C216.256 79.0491 216.347 79.231 216.498 79.4128C216.65 79.5947 216.862 79.7463 217.135 79.8625C217.408 79.9838 217.761 80.0393 218.191 80.0393C218.853 80.0393 219.343 79.9231 219.651 79.6857C219.964 79.4482 220.121 79.135 220.121 78.7459C220.121 78.4781 220.04 78.2609 219.873 78.0941C219.707 77.9274 219.454 77.7809 219.115 77.6495C218.777 77.5181 218.337 77.3767 217.797 77.2201C217.236 77.0584 216.766 76.8815 216.397 76.6895C216.028 76.4975 215.751 76.2601 215.569 75.9721C215.387 75.6892 215.296 75.3254 215.296 74.8858C215.296 74.4715 215.407 74.0976 215.629 73.7692C215.852 73.4408 216.175 73.1831 216.594 72.9911C217.014 72.7991 217.524 72.7031 218.125 72.7031C218.605 72.7031 219.019 72.7688 219.378 72.8951C219.737 73.0214 220.035 73.1932 220.272 73.4054C220.51 73.6176 220.692 73.845 220.818 74.0875C220.939 74.33 221.005 74.5675 221.015 74.7999C221.015 74.8555 220.995 74.906 220.96 74.9565C220.919 75.0071 220.859 75.0323 220.773 75.0323H220.161C220.106 75.0323 220.05 75.0172 219.995 74.9868C219.939 74.9565 219.894 74.8959 219.863 74.8151C219.818 74.4968 219.641 74.234 219.333 74.0168C219.025 73.7995 218.625 73.6934 218.13 73.6934C217.635 73.6934 217.221 73.7894 216.913 73.9814C216.599 74.1734 216.443 74.4766 216.443 74.8808C216.443 75.1435 216.513 75.3607 216.66 75.5325C216.807 75.7043 217.039 75.8559 217.352 75.9872C217.67 76.1186 218.08 76.255 218.59 76.4016C219.206 76.5733 219.712 76.7502 220.106 76.9371C220.5 77.1241 220.788 77.3615 220.98 77.6445C221.167 77.9274 221.263 78.2861 221.263 78.7257C221.263 79.2107 221.136 79.625 220.884 79.9686C220.631 80.3122 220.273 80.5749 219.813 80.7568C219.353 80.9387 218.812 81.0296 218.191 81.0296L218.196 81.0246Z" fill="white"/>
<path d="M218.196 81.1206C217.514 81.1206 216.933 81.0144 216.468 80.8073C215.998 80.5951 215.634 80.3172 215.387 79.9787C215.134 79.6351 214.998 79.2663 214.983 78.8823C214.983 78.7913 215.018 78.7105 215.084 78.6448C215.154 78.5741 215.235 78.5438 215.331 78.5438H215.922C216.039 78.5438 216.134 78.5741 216.195 78.6398C216.251 78.7004 216.291 78.7661 216.311 78.8469C216.347 79.0187 216.438 79.1905 216.574 79.3572C216.716 79.524 216.918 79.6705 217.175 79.7816C217.433 79.8928 217.777 79.9534 218.196 79.9534C218.833 79.9534 219.307 79.8423 219.601 79.62C219.889 79.4027 220.03 79.1197 220.03 78.756C220.03 78.5084 219.959 78.3164 219.808 78.1699C219.651 78.0133 219.409 77.8718 219.085 77.7455C218.752 77.6141 218.312 77.4726 217.777 77.3211C217.211 77.1594 216.736 76.9775 216.362 76.7805C215.978 76.5834 215.69 76.3308 215.498 76.0327C215.306 75.7346 215.21 75.3506 215.21 74.8959C215.21 74.4411 215.326 74.0673 215.564 73.7287C215.796 73.3902 216.135 73.1123 216.569 72.9153C216.998 72.7182 217.529 72.6172 218.14 72.6172C218.625 72.6172 219.06 72.6829 219.429 72.8142C219.798 72.9456 220.111 73.1224 220.353 73.3397C220.601 73.5569 220.788 73.7995 220.919 74.0521C221.051 74.3047 221.116 74.5574 221.126 74.8049C221.126 74.8807 221.101 74.9565 221.051 75.0222C220.995 75.098 220.904 75.1333 220.793 75.1333H220.182C220.111 75.1333 220.04 75.1131 219.969 75.0778C219.889 75.0373 219.833 74.9615 219.793 74.8554V74.8352C219.747 74.5422 219.585 74.3047 219.297 74.1026C219.004 73.9005 218.62 73.7944 218.15 73.7944C217.681 73.7944 217.276 73.8854 216.978 74.0673C216.695 74.2441 216.554 74.5119 216.554 74.8858C216.554 75.1283 216.62 75.3203 216.751 75.4769C216.887 75.6386 217.11 75.7851 217.408 75.9064C217.721 76.0377 218.13 76.1742 218.635 76.3207C219.252 76.4925 219.767 76.6743 220.166 76.8663C220.571 77.0634 220.879 77.311 221.076 77.604C221.273 77.9021 221.374 78.281 221.374 78.7358C221.374 79.241 221.238 79.6755 220.975 80.0343C220.712 80.3879 220.338 80.6658 219.863 80.8528C219.393 81.0397 218.838 81.1306 218.206 81.1306L218.196 81.1206ZM215.331 78.7257C215.286 78.7257 215.25 78.7408 215.22 78.7711C215.18 78.8115 215.175 78.8469 215.175 78.8722C215.19 79.2158 215.311 79.5492 215.543 79.8625C215.776 80.1757 216.114 80.4334 216.554 80.6305C216.993 80.8275 217.549 80.9286 218.201 80.9286C218.812 80.9286 219.343 80.8376 219.793 80.6658C220.232 80.494 220.576 80.2364 220.818 79.913C221.061 79.5896 221.182 79.1905 221.182 78.7257C221.182 78.3063 221.091 77.9627 220.914 77.7C220.737 77.4322 220.454 77.2099 220.08 77.028C219.697 76.8411 219.191 76.6642 218.58 76.4975C218.07 76.351 217.65 76.2095 217.332 76.0782C217.004 75.9417 216.756 75.7801 216.604 75.5931C216.443 75.4011 216.362 75.1637 216.362 74.8807C216.362 74.4411 216.534 74.1077 216.877 73.9005C217.206 73.6984 217.63 73.5974 218.145 73.5974C218.661 73.5974 219.08 73.7136 219.403 73.9359C219.727 74.1633 219.919 74.4513 219.974 74.7898C219.995 74.8453 220.025 74.8858 220.06 74.9009C220.106 74.9262 220.146 74.9363 220.182 74.9363H220.793C220.874 74.9363 220.894 74.906 220.904 74.8959C220.929 74.8605 220.944 74.8302 220.944 74.7999C220.939 74.5877 220.874 74.3603 220.758 74.1329C220.641 73.9005 220.464 73.6833 220.237 73.4812C220.01 73.2791 219.717 73.1123 219.373 72.9911C219.025 72.8698 218.615 72.8041 218.15 72.8041C217.564 72.8041 217.064 72.9001 216.66 73.082C216.256 73.269 215.948 73.5165 215.735 73.8298C215.523 74.138 215.417 74.4967 215.417 74.8908C215.417 75.3102 215.503 75.6588 215.675 75.9266C215.847 76.1944 216.109 76.4268 216.463 76.6087C216.827 76.7956 217.292 76.9724 217.842 77.1341C218.383 77.2907 218.827 77.4322 219.166 77.5636C219.515 77.7 219.782 77.8566 219.954 78.0284C220.136 78.2103 220.232 78.4528 220.232 78.7509C220.232 79.1753 220.06 79.5138 219.727 79.7665C219.398 80.014 218.888 80.1404 218.206 80.1404C217.761 80.1404 217.393 80.0797 217.11 79.9534C216.822 79.8271 216.599 79.6705 216.438 79.4785C216.276 79.2865 216.175 79.0894 216.134 78.8873C216.124 78.8469 216.104 78.8065 216.069 78.7711C216.044 78.7459 215.993 78.7307 215.927 78.7307H215.336L215.331 78.7257Z" fill="black"/>
<path d="M223.051 80.9125C222.965 80.9125 222.9 80.8872 222.854 80.8367C222.809 80.7862 222.783 80.7255 222.783 80.6447V73.0861C222.783 73.0104 222.809 72.9447 222.854 72.8942C222.9 72.8436 222.965 72.8184 223.051 72.8184H223.662C223.738 72.8184 223.804 72.8436 223.854 72.8942C223.905 72.9447 223.93 73.0104 223.93 73.0861V80.6447C223.93 80.7205 223.905 80.7862 223.854 80.8367C223.804 80.8872 223.738 80.9125 223.662 80.9125H223.051Z" fill="white"/>
<path d="M223.663 81.0045H223.051C222.94 81.0045 222.849 80.9691 222.783 80.8984C222.723 80.8327 222.687 80.7468 222.687 80.6458V73.0872C222.687 72.9862 222.718 72.9003 222.783 72.8346C222.849 72.7639 222.94 72.7285 223.051 72.7285H223.663C223.764 72.7285 223.849 72.7639 223.92 72.8296C223.991 72.9003 224.021 72.9862 224.021 73.0872V80.6458C224.021 80.7468 223.986 80.8378 223.92 80.9035C223.849 80.9742 223.764 81.0045 223.663 81.0045ZM223.051 72.9155C222.996 72.9155 222.95 72.9306 222.925 72.9609C222.895 72.9912 222.879 73.0367 222.879 73.0872V80.6458C222.879 80.6963 222.895 80.7418 222.925 80.7721C222.95 80.8024 222.996 80.8176 223.051 80.8176H223.663C223.713 80.8176 223.754 80.8024 223.784 80.7721C223.814 80.7418 223.829 80.7014 223.829 80.6508V73.0923C223.829 73.0418 223.814 73.0014 223.784 72.971C223.754 72.9407 223.713 72.9256 223.663 72.9256H223.051V72.9155Z" fill="black"/>
<path d="M228.367 118.062H214.26V136.954H228.367V118.062Z" fill="#FDB53D"/>
<path d="M228.478 137.059H214.154V117.955H228.478V137.059ZM214.371 136.846H228.265V118.172H214.371V136.846Z" fill="black"/>
<path d="M214.26 118.062H203.215V136.954H214.26V118.062Z" fill="#EAA228"/>
<path d="M214.366 137.059H203.104V117.955H214.366V137.059ZM203.321 136.846H214.154V118.172H203.321V136.846Z" fill="black"/>
<path d="M224.042 118.137H221.333V125.281H224.042V118.137Z" fill="#FCCB76"/>
<path d="M210.036 118.152H207.328V125.297H210.036V118.152Z" fill="#FCCB76"/>
<path d="M248.405 118.062H234.298V136.954H248.405V118.062Z" fill="#FDB53D"/>
<path d="M248.511 137.059H234.187V117.955H248.511V137.059ZM234.404 136.846H248.299V118.172H234.404V136.846Z" fill="black"/>
<path d="M234.293 118.062H223.248V136.954H234.293V118.062Z" fill="#EAA228"/>
<path d="M234.404 137.059H223.142V117.955H234.404V137.059ZM223.359 136.846H234.192V118.172H223.359V136.846Z" fill="black"/>
<path d="M244.075 118.137H241.367V125.281H244.075V118.137Z" fill="#FCCB76"/>
<path d="M230.074 118.152H227.366V125.297H230.074V118.152Z" fill="#FCCB76"/>
<path d="M230.731 103.895H220.151V118.062H230.731V103.895Z" fill="#FDB53D"/>
<path d="M230.837 118.168H220.04V103.783H230.837V118.168ZM220.257 117.955H230.625V104H220.257V117.955Z" fill="black"/>
<path d="M220.151 103.895H211.865V118.062H220.151V103.895Z" fill="#EAA228"/>
<path d="M220.257 118.168H211.759V103.783H220.257V118.168ZM211.971 117.955H220.04V104H211.971V117.955Z" fill="black"/>
<path d="M227.482 103.949H225.451V109.31H227.482V103.949Z" fill="#FCCB76"/>
<path d="M216.983 103.959H214.952V109.32H216.983V103.959Z" fill="#FCCB76"/>
<g opacity="0.4">
<path d="M179.337 66.5527L158.506 85.8937L178.999 69.8975L179.337 66.5527Z" fill="white"/>
</g>
<g opacity="0.4">
<path d="M175.75 77.707L160.294 88.868L175.411 79.9402L175.75 77.707Z" fill="white"/>
</g>
<path d="M162.341 106.753C152.837 87.1495 129.595 78.5754 109.754 86.9878L106.687 80.6621L102.923 86.2098L103.358 85.174L92.2069 101.241C83.7945 113.357 82.5515 129.1 88.9581 142.323C95.9962 156.844 110.568 165.312 125.715 165.307C131.672 165.307 137.725 163.993 143.439 161.224C153.226 156.48 160.582 148.194 164.159 137.897C167.732 127.595 167.09 116.535 162.346 106.748L162.341 106.753ZM96.1882 102.347L117.959 103.924L114.933 97.684C128.873 92.1111 145.016 98.2094 151.665 111.927C152.251 113.135 153.1 115.585 153.65 117.323L153.691 117.439C156.06 123.851 155.53 132.435 152.342 139.301C150.144 144.026 145.617 150.346 136.512 153.63C125.129 157.738 109.072 158.683 97.2139 139.882C87.2857 124.144 95.4708 104.075 95.8244 103.227L96.1933 102.347H96.1882Z" fill="#34A853" stroke="black" stroke-miterlimit="10"/>
<path d="M145.843 147.576L171.207 146.57L169.041 91.9351L143.677 92.9405L145.843 147.576Z" fill="#EAA228" stroke="black" stroke-miterlimit="10"/>
<path opacity="0.8" d="M151.561 143.811L165.217 143.27L164.892 135.076L151.236 135.617L151.561 143.811Z" fill="white" stroke="black" stroke-miterlimit="10"/>
<path d="M82.4302 150.09L145.845 147.576L143.679 92.9409L80.2645 95.4547L82.4302 150.09Z" fill="#FDB53D" stroke="black" stroke-miterlimit="10"/>
<g opacity="0.6">
<path d="M87.3113 144.647C88.4885 144.602 89.4081 143.607 89.3626 142.429L89.2464 139.443L84.9771 139.61L85.0932 142.596C85.1387 143.773 86.1341 144.693 87.3113 144.647Z" fill="#263238"/>
<path d="M87.2254 144.901C85.9522 144.901 84.8911 143.891 84.8406 142.607L84.7143 139.369L89.4889 139.182L89.6152 142.42C89.6657 143.734 88.6401 144.851 87.3214 144.901C87.2911 144.901 87.2557 144.901 87.2254 144.901ZM85.2347 139.854L85.3408 142.587C85.3812 143.623 86.2553 144.431 87.2961 144.396C88.3319 144.355 89.1453 143.476 89.1049 142.44L88.9988 139.707L85.2347 139.859V139.854Z" fill="black"/>
<path d="M87.5217 143.496L87.0168 143.516L87.1297 146.363L87.6345 146.343L87.5217 143.496Z" fill="black"/>
<path d="M89.0963 146.002L85.6836 146.139L85.7038 146.644L89.1166 146.506L89.0963 146.002Z" fill="black"/>
<path d="M91.8347 139.351L91.3299 139.371L91.6006 146.202L92.1055 146.182L91.8347 139.351Z" fill="black"/>
<path d="M93.8951 139.226L93.3903 139.246L93.661 146.077L94.1659 146.057L93.8951 139.226Z" fill="black"/>
</g>
<path d="M108.052 118.21L107.107 94.3972L117.131 93.998L118.076 117.81C117.419 117.836 116.914 118.371 116.888 119.018C116.813 118.376 116.267 117.886 115.61 117.912C114.918 117.937 114.377 118.523 114.408 119.215H114.387C114.362 118.523 113.776 117.987 113.084 118.013C112.427 118.038 111.922 118.573 111.897 119.22C111.821 118.578 111.275 118.088 110.618 118.114C109.926 118.139 109.385 118.725 109.416 119.417H109.355C109.33 118.725 108.744 118.189 108.052 118.215V118.21Z" fill="#FCCB76"/>
<g style="mix-blend-mode:multiply" opacity="0.2">
<g style="mix-blend-mode:multiply">
<path d="M82.4317 150.091L171.21 146.572L171.156 145.204L82.3775 148.723L82.4317 150.091Z" fill="#8A5E3B"/>
</g>
<g style="mix-blend-mode:multiply">
<path d="M82.1878 150.357L82.112 148.487L82.3647 148.477L171.395 144.945L171.471 146.815L171.218 146.825L82.1878 150.357ZM82.6375 148.972L82.6729 149.831L170.945 146.33L170.91 145.471L82.6375 148.972Z" fill="black"/>
</g>
</g>
<g style="mix-blend-mode:overlay" opacity="0.3">
<g style="mix-blend-mode:overlay">
<path d="M80.321 96.8258L169.099 93.3066L169.045 91.9385L80.2667 95.4576L80.321 96.8258Z" fill="white"/>
</g>
<g style="mix-blend-mode:overlay">
<path d="M80.0758 97.0909L80 95.2215L80.2526 95.2114L169.283 91.6797L169.359 93.5491L169.106 93.5592L80.0758 97.0909ZM80.5255 95.7065L80.5609 96.5654L168.833 93.0641L168.798 92.2052L80.5255 95.7065Z" fill="black"/>
</g>
</g>
<path d="M162.341 106.755C152.837 87.1515 129.595 78.5774 109.754 86.9898L106.687 80.6641L92.1815 102.056L117.959 103.921L114.933 97.6809C128.873 92.108 145.016 98.2063 151.665 111.924C152.251 113.131 153.1 115.582 153.65 117.32L153.691 117.436C156.06 123.848 155.53 132.432 152.342 139.298C150.144 144.022 145.617 150.343 136.512 153.627C131.399 155.471 126.463 156.275 121.83 156.007L120.511 155.931L119.884 157.093C119.076 158.589 118.5 159.251 117.191 160.17L113.266 162.929L117.964 163.904C121.203 164.576 124.315 164.909 127.322 164.909C133.041 164.909 138.371 163.687 143.439 161.231C153.226 156.487 160.582 148.201 164.159 137.904C167.732 127.602 167.09 116.542 162.346 106.755H162.341Z" fill="#34A853"/>
<path d="M127.322 165.161C124.326 165.161 121.163 164.823 117.914 164.151L112.644 163.059L117.05 159.967C118.318 159.078 118.879 158.431 119.667 156.981L120.369 155.678L121.85 155.763C126.448 156.026 131.348 155.228 136.431 153.394C145.45 150.14 149.937 143.875 152.114 139.196C155.277 132.391 155.808 123.882 153.458 117.531L153.418 117.41C152.872 115.682 152.028 113.242 151.447 112.044C144.955 98.6551 129.12 92.4455 115.292 97.8264L118.389 104.218L91.7369 102.288L106.733 80.168L109.885 86.6705C129.959 78.2935 153.069 87.0394 162.578 106.648C167.353 116.495 167.999 127.626 164.402 137.989C160.805 148.351 153.403 156.688 143.555 161.463C138.417 163.954 133.107 165.166 127.327 165.166L127.322 165.161ZM113.892 162.797L118.02 163.65C121.233 164.317 124.366 164.651 127.327 164.651C133.026 164.651 138.265 163.453 143.333 160.998C153.059 156.284 160.37 148.048 163.922 137.812C167.474 127.576 166.832 116.581 162.118 106.855C152.69 87.4133 129.737 78.7836 109.855 87.2162L109.633 87.3122L106.652 81.1633L92.6362 101.833L117.545 103.637L114.594 97.5435L114.847 97.4425C128.979 91.7938 145.253 98.1043 151.897 111.812C152.488 113.034 153.342 115.5 153.893 117.238L153.933 117.349C156.323 123.817 155.792 132.471 152.574 139.398C150.356 144.168 145.789 150.544 136.603 153.859C131.455 155.718 126.483 156.521 121.819 156.254L120.662 156.188L120.112 157.208C119.283 158.744 118.687 159.427 117.343 160.371L113.892 162.791V162.797Z" fill="black"/>
<g style="mix-blend-mode:multiply" opacity="0.2">
<g style="mix-blend-mode:multiply">
<path d="M132.364 128.977L152.094 135.166L145.612 182.397L113.033 178.355L132.364 128.977Z" fill="#263238"/>
</g>
</g>
<g style="mix-blend-mode:multiply" opacity="0.2">
<g style="mix-blend-mode:multiply">
<path d="M204.256 132.059L179.903 135.05L139.129 135.166L145.612 182.397L187.931 175.399L230.322 182.503L204.256 132.059Z" fill="#263238"/>
</g>
</g>
<path d="M131.692 172.725L131.187 176.155L144.743 180.556L144.803 179.556L131.692 172.725Z" fill="#E4DDD7"/>
<path d="M125.543 127.551L119.606 140.738C120.203 140.677 120.809 140.622 121.43 140.571C122.461 140.49 123.492 140.435 124.517 140.399L127.832 128.288L125.543 127.551Z" fill="#E4DDD7"/>
<path d="M126.23 159.234L131.212 161.725L132.364 154.667L128.549 153.424L126.23 159.234Z" fill="#E4DDD7"/>
<path d="M136.351 141.014C137.533 141.181 138.71 141.388 139.887 141.621L127.812 135.123L126.473 140.357C129.802 140.327 133.102 140.544 136.345 141.014H136.351Z" fill="#E4DDD7"/>
<path d="M134.865 151.147C135.163 151.177 135.517 151.217 135.931 151.263C137.078 151.389 138.654 151.561 140.61 151.778C141.095 151.834 141.58 151.884 142.055 151.935L142.222 150.121L142.444 146.832C140.201 146.291 137.937 145.917 135.658 145.705L134.865 151.142V151.147Z" fill="#E4DDD7"/>
<path d="M148.689 140.288C149.33 140.288 150.255 140.278 151.331 140.262L151.897 136.054L148.921 135.094L148.684 140.288H148.689Z" fill="#E4DDD7"/>
<path d="M148.674 140.924H148.659L148.517 144.001C149.25 144.258 149.982 144.531 150.715 144.819L151.245 140.898C150.851 140.903 150.488 140.909 150.169 140.914C149.558 140.919 149.043 140.924 148.679 140.929L148.674 140.924Z" fill="#E4DDD7"/>
<path d="M128.959 175.432L129.585 171.638L119.637 166.57L118.207 171.946L128.959 175.432Z" fill="#E4DDD7"/>
<path d="M147.335 136.843L147.466 134.625L129.424 128.805L128.373 132.943L147.335 136.843Z" fill="#E4DDD7"/>
<path d="M107.445 168.451L106.844 167.799L106.652 168.193L107.445 168.451Z" fill="#E4DDD7"/>
<path d="M108.153 165.106L115.822 164.646L109.82 161.645L108.153 165.106Z" fill="#E4DDD7"/>
<path d="M128.236 133.478L127.963 134.539L141.989 142.082C143.646 142.471 145.298 142.936 146.935 143.461H146.94L147.299 137.383L128.231 133.473L128.236 133.478Z" fill="#E4DDD7"/>
<path d="M142.014 164.975L137.103 162.03L134.072 156.578L133.172 162.712L139.943 166.137C140.468 165.602 141.181 165.208 142.019 164.975H142.014Z" fill="#E4DDD7"/>
<path d="M148.199 150.983L149.8 151.569L150.103 149.33C149.502 149.083 148.901 148.845 148.305 148.623L148.199 150.983Z" fill="#E4DDD7"/>
<path d="M139.048 167.803C139.089 167.616 139.139 167.439 139.205 167.268L132.97 164.1L131.93 171.153L144.904 177.888L145.061 175.291C141.176 173.821 138.498 170.501 139.054 167.798L139.048 167.803Z" fill="#E4DDD7"/>
<path d="M146.016 159.107L134.542 155.373L138.063 161.648L143.237 164.745C143.995 164.675 144.818 164.71 145.672 164.867L146.016 159.102V159.107Z" fill="#E4DDD7"/>
<path d="M122.113 157.193L125.013 158.628L127.327 153.025L123.522 151.787L122.113 157.193Z" fill="#E4DDD7"/>
<path d="M147.86 158.475L148.82 158.788L149.25 155.64L148.002 155.297L147.86 158.475Z" fill="#E4DDD7"/>
<path d="M147.542 165.39C147.663 165.435 147.784 165.481 147.901 165.531L148.658 159.963L147.799 159.686L147.537 165.39H147.542Z" fill="#E4DDD7"/>
<path d="M116.525 147.438L113.862 153.132L120.117 156.204L122.946 146.094C120.385 146.468 118.202 146.978 116.525 147.438Z" fill="#E4DDD7"/>
<path d="M141.994 152.656C138.983 152.328 136.083 152.004 134.764 151.873L134.436 154.111L141.646 156.456L141.994 152.656Z" fill="#E4DDD7"/>
<path d="M107.642 166.157L107.415 166.626L109.81 169.218L115.858 171.179L117.474 165.535L107.642 166.157Z" fill="#E4DDD7"/>
<path d="M146.37 153.127C145.344 153.021 144.237 152.899 143.116 152.783L142.782 156.835L146.087 157.911L146.37 153.132V153.127Z" fill="#E4DDD7"/>
<path d="M146.127 147.868C145.253 147.585 144.384 147.332 143.51 147.1L143.318 150.424L143.181 152.061C144.535 152.208 145.708 152.334 146.415 152.41L146.673 148.049C146.491 147.989 146.309 147.928 146.127 147.868Z" fill="#E4DDD7"/>
<path d="M132.556 153.499L133.839 145.567C131.111 145.41 128.337 145.476 125.503 145.769C125.356 145.784 125.21 145.799 125.068 145.815L123.815 150.655L132.556 153.494V153.499Z" fill="#E4DDD7"/>
<path d="M104.328 167.44L103.641 168.779L105.995 169.542L145.586 182.395L145.794 180.895L144.743 180.556L131.187 176.155L131.697 172.725L144.803 179.556L144.904 177.894L131.93 171.159L132.97 164.105L139.205 167.273C139.372 166.844 139.619 166.465 139.943 166.141L133.172 162.716L134.072 156.582L137.103 162.034L142.014 164.979C142.398 164.873 142.808 164.797 143.237 164.757L138.063 161.66L134.542 155.385L132.364 154.677L131.212 161.736L126.23 159.245L128.549 153.434L127.327 153.035L125.013 158.638L122.113 157.198L121.769 158.507L130.99 163.115L129.843 170.098L120.026 165.116L119.637 166.581L129.585 171.649L128.959 175.443L118.207 171.952L115.858 171.189L109.81 169.223L107.415 166.631L107.642 166.162L117.474 165.54L117.899 164.045L110.451 160.326L113.301 154.329L119.748 157.507L120.112 156.213L113.857 153.141L116.519 147.447C118.197 146.987 120.38 146.477 122.941 146.103C123.623 146.002 124.336 145.906 125.068 145.83C125.215 145.815 125.356 145.8 125.503 145.785C128.337 145.487 131.111 145.421 133.839 145.583L132.556 153.515L134.436 154.127L134.764 151.888C136.083 152.025 138.988 152.343 141.994 152.671L141.646 156.471L142.787 156.84L143.121 152.788C144.243 152.909 145.349 153.025 146.375 153.131L146.415 152.409C145.708 152.333 144.536 152.207 143.182 152.06L143.318 150.423L143.51 147.099C144.384 147.331 145.258 147.584 146.127 147.867C146.309 147.927 146.491 147.988 146.673 148.048C147.218 148.23 147.759 148.422 148.31 148.629C148.911 148.852 149.507 149.089 150.108 149.337L150.245 148.331C148.926 147.791 147.613 147.311 146.299 146.886C139.286 144.618 132.111 143.85 124.614 144.628C121.804 144.891 119.329 145.335 117.287 145.795L119.025 142.021C120.066 141.884 121.158 141.763 122.305 141.672C127.16 141.248 131.96 141.379 136.623 142.051C140.044 142.531 143.434 143.314 146.779 144.395C148.052 144.81 149.325 145.264 150.594 145.77L150.72 144.825C149.987 144.537 149.255 144.264 148.522 144.006C147.997 143.819 147.471 143.643 146.946 143.476H146.941C145.304 142.945 143.651 142.486 141.994 142.091L127.968 134.548L127.817 135.139L139.892 141.637C138.715 141.399 137.538 141.197 136.356 141.03C133.112 140.561 129.813 140.343 126.483 140.374C125.831 140.374 125.179 140.389 124.528 140.414C123.502 140.449 122.476 140.505 121.441 140.586C120.819 140.636 120.213 140.692 119.617 140.753L125.553 127.566L127.842 128.303L129.429 128.814L147.471 134.634L148.931 135.104L151.907 136.064L152.008 135.321L125.856 126.883L124.346 126.398L124.033 127.075L104.338 167.455L104.328 167.44ZM107.445 168.45L106.652 168.193L106.844 167.799L107.445 168.45ZM108.147 165.106L109.815 161.645L115.817 164.646L108.147 165.106ZM142.222 150.115L142.055 151.929C141.58 151.878 141.095 151.823 140.61 151.772C138.654 151.555 137.073 151.378 135.931 151.257C135.522 151.211 135.163 151.171 134.865 151.141L135.658 145.704C137.937 145.916 140.201 146.29 142.444 146.831L142.222 150.12V150.115Z" fill="white"/>
<path d="M148.037 154.581L149.345 154.94L149.714 152.232L148.168 151.666L148.037 154.581Z" fill="#8BC34A"/>
<path d="M129.843 170.094L130.99 163.106L121.769 158.498L120.026 165.107L129.843 170.094Z" fill="#8BC34A"/>
<path d="M113.306 154.322L110.457 160.32L117.899 164.038L119.753 157.495L113.306 154.322Z" fill="#8BC34A"/>
<path d="M148.002 155.299L149.25 155.643L149.346 154.941L148.037 154.582L148.002 155.299Z" fill="white"/>
<path d="M148.168 151.666L149.714 152.232L149.805 151.57L148.199 150.984L148.168 151.666Z" fill="white"/>
<path d="M148.658 140.924H148.674C149.037 140.924 149.553 140.919 150.164 140.908C150.487 140.908 150.851 140.898 151.24 140.893L151.326 140.262C150.25 140.272 149.325 140.282 148.684 140.287L148.653 140.924H148.658Z" fill="white"/>
<path d="M128.236 133.475L147.304 137.386L147.335 136.84L128.373 132.939L128.236 133.475Z" fill="white"/>
<path d="M128.373 132.942L129.424 128.799L127.837 128.289L124.523 140.4C125.174 140.375 125.826 140.365 126.478 140.359L127.817 135.125L127.968 134.534L128.241 133.473L128.378 132.937L128.373 132.942Z" fill="#FFC107"/>
<path d="M148.001 155.298L148.032 154.58L148.163 151.665L148.193 150.983L148.3 148.623C147.754 148.421 147.208 148.229 146.663 148.042L146.405 152.403L146.364 153.125L146.082 157.905L142.777 156.829L141.635 156.46L134.425 154.115L132.546 153.504L123.805 150.665L125.058 145.824C124.325 145.905 123.613 145.996 122.931 146.097L120.102 156.207L119.738 157.501L117.884 164.038L117.459 165.534L115.842 171.183L118.192 171.946L119.622 166.575L120.011 165.11L121.754 158.501L122.097 157.192L123.507 151.791L127.311 153.029L128.534 153.428L132.354 154.671L134.531 155.379L146.006 159.112L145.662 164.877C144.808 164.721 143.985 164.685 143.227 164.756C142.797 164.796 142.388 164.872 142.004 164.978C141.165 165.211 140.453 165.605 139.928 166.14C139.609 166.464 139.357 166.843 139.19 167.272C139.124 167.444 139.069 167.621 139.033 167.808C138.483 170.511 141.16 173.835 145.041 175.301L144.884 177.897L144.783 179.56L144.722 180.565L145.773 180.904L146.688 174.28C146.39 174.219 146.082 174.143 145.773 174.042C142.752 173.062 140.6 170.526 140.989 168.444C141.368 166.423 144.005 165.579 146.86 166.504C147.153 166.6 147.436 166.711 147.708 166.833L147.885 165.539C147.764 165.489 147.648 165.443 147.527 165.398L147.789 159.693L148.648 159.971L148.81 158.799L147.845 158.486L147.991 155.303L148.001 155.298Z" fill="#FFC107"/>
<path d="M148.689 140.289L148.926 135.095L147.466 134.625L147.335 136.843L147.304 137.389L146.946 143.467C147.471 143.639 147.996 143.815 148.522 143.997L148.663 140.92L148.694 140.284L148.689 140.289Z" fill="#FFC107"/>
<path d="M146.779 144.389C143.434 143.308 140.044 142.525 136.623 142.045C131.955 141.378 127.16 141.247 122.305 141.666C121.163 141.757 120.066 141.878 119.025 142.015L117.287 145.789C119.329 145.329 121.804 144.885 124.614 144.622C132.106 143.844 139.286 144.612 146.299 146.88C147.613 147.305 148.926 147.79 150.245 148.325L150.594 145.759C149.325 145.258 148.057 144.799 146.779 144.384V144.389Z" fill="#03A9F4"/>
<path d="M146.875 166.5C144.02 165.575 141.383 166.414 141.004 168.44C140.615 170.522 142.767 173.058 145.789 174.038C146.097 174.139 146.405 174.215 146.703 174.276L147.724 166.828C147.451 166.707 147.168 166.596 146.875 166.5Z" fill="#8BC34A"/>
<path d="M187.931 165.94L186.678 165.379L187.067 168.087L187.775 168.294L187.931 165.94Z" fill="#E4DDD7"/>
<path d="M190.377 160.172L190.104 165.538L201.603 170.646L199.304 163.567C197.182 162.875 195.04 162.097 192.898 161.248C192.029 160.904 191.19 160.541 190.372 160.172H190.377Z" fill="#E4DDD7"/>
<path d="M193.535 145.867L192.974 144.159L188.209 143.932L193.535 145.867Z" fill="#E4DDD7"/>
<path d="M194.303 148.215L193.767 146.583L186.269 143.834L183.566 143.703L183.819 145.477L183.884 145.719L194.303 148.215Z" fill="#E4DDD7"/>
<path d="M202.149 172.333L190.038 166.881L189.937 168.937L202.23 172.58L202.149 172.333Z" fill="#E4DDD7"/>
<path d="M204.322 144.684L208.914 153.647L211.471 154.263L208.702 144.886L204.322 144.684Z" fill="#E4DDD7"/>
<path d="M182.475 131.624L181.823 131.604L183.414 142.668L188.987 142.931L182.475 131.624Z" fill="#E4DDD7"/>
<path d="M200.739 132.125L209.435 139.133L211.248 139.224L211.496 139.85L210.157 139.784L212.577 142.589L213.573 145.11L212.163 145.049L215.851 150.905L217.751 155.74L211.092 145.004L209.829 144.948L212.759 154.583L217.771 155.796L218.266 157.064L209.566 154.937L212.315 160.328C212.901 160.358 213.477 160.378 214.037 160.383C216.665 160.399 218.413 160.075 219.348 159.828L219.994 161.48L221.677 165.785L222.324 167.437C221.712 167.467 221.06 167.482 220.363 167.482C218.918 167.482 217.402 167.396 215.826 167.24L219.297 174.101L224.213 172.292L224.734 173.636L219.954 175.41L221.424 178.33L227.23 180.078L208.293 131.781L208.51 132.327L200.729 132.135L200.739 132.125Z" fill="#E4DDD7"/>
<path d="M184.051 146.398L184.395 147.763L194.98 150.299L194.535 148.93L184.051 146.398Z" fill="#E4DDD7"/>
<path d="M188.644 130.967L187.694 128.092L181.146 126.92L181.206 127.334L186.148 130.896L188.644 130.967Z" fill="#E4DDD7"/>
<path d="M181.373 128.496L181.702 130.775L184.607 130.856L181.373 128.496Z" fill="#E4DDD7"/>
<path d="M189.22 128.363L190.129 131.006L206.282 131.405L189.22 128.363Z" fill="#E4DDD7"/>
<path d="M201.795 143.518L191.913 136.217L194.298 143.179L201.795 143.518Z" fill="#E4DDD7"/>
<path d="M185.188 150.909C187.315 152.849 189.861 154.512 193.621 155.921C194.833 156.376 196.041 156.8 197.228 157.194L195.359 151.465L184.673 148.873L185.188 150.909Z" fill="#E4DDD7"/>
<path d="M208.753 166.128C207.141 165.79 205.468 165.386 203.791 164.926C203.023 164.714 202.245 164.486 201.467 164.254L203.993 171.716L212.491 175.526L217.514 174.627L213.75 166.987C212.128 166.77 210.46 166.487 208.748 166.128H208.753Z" fill="#E4DDD7"/>
<path d="M187.345 131.76L189.391 133.245L188.916 131.805L187.345 131.76Z" fill="#E4DDD7"/>
<path d="M199.779 132.099H199.562C199.092 132.533 198.112 133.453 197.112 134.377C195.52 135.843 194.742 136.525 194.343 136.843L196.591 138.48L208.384 139.071L199.785 132.094L199.779 132.099Z" fill="#E4DDD7"/>
<path d="M194.661 144.24L196.879 150.753L203.336 152.304L199.001 144.442L194.661 144.24Z" fill="#E4DDD7"/>
<path d="M204.595 152.606L206.898 153.162L202.634 144.608L200.057 144.492L204.595 152.606Z" fill="#E4DDD7"/>
<path d="M192.625 143.102L189.877 134.715L185.784 131.719L183.384 131.648L190.008 142.981L192.625 143.102Z" fill="#E4DDD7"/>
<path d="M215.038 176.398L218.964 177.576L218.115 175.848L215.038 176.398Z" fill="#E4DDD7"/>
<path d="M190.417 131.846L191.397 134.7L193.529 136.251C194.434 135.504 196.526 133.599 198.188 132.058L190.417 131.851V131.846Z" fill="#E4DDD7"/>
<path d="M209.874 132.053L209.556 131.285L207.995 131.008L181.045 126.248L181.141 126.925L187.689 128.092L188.634 130.967L190.119 131.008L189.21 128.365L206.272 131.412L208.293 131.77L227.23 180.067L221.424 178.319L218.954 177.576L215.028 176.399L218.105 175.843L217.504 174.626L212.481 175.525L203.983 171.715L201.457 164.253C202.235 164.49 203.013 164.718 203.781 164.925C205.458 165.385 207.126 165.794 208.743 166.127C210.455 166.486 212.123 166.769 213.745 166.986C214.447 167.082 215.139 167.163 215.821 167.229C217.397 167.38 218.913 167.466 220.358 167.471C221.056 167.471 221.707 167.456 222.319 167.426L221.672 165.774C220.869 165.834 219.974 165.87 218.984 165.87C215.685 165.865 212.006 165.445 208.086 164.632C206.555 164.319 204.994 163.94 203.407 163.51C200.032 162.596 196.561 161.439 193.055 160.059C189.998 158.862 187.477 157.548 185.35 156.174L185.592 157.882C185.683 157.856 185.764 157.831 185.835 157.806C186.648 158.291 187.492 158.756 188.366 159.206L188.007 164.617L186.461 163.935L186.668 165.38L187.921 165.94L187.765 168.3L187.057 168.093L187.259 169.487L227.892 181.765L230.317 182.508L229.63 180.795L209.869 132.058L209.874 132.053ZM201.603 170.649L190.104 165.541L190.377 160.176C191.195 160.549 192.034 160.908 192.903 161.252C195.045 162.101 197.188 162.879 199.31 163.571L201.608 170.649H201.603ZM190.038 166.88L202.149 172.332L202.23 172.579L189.937 168.937L190.038 166.885V166.88Z" fill="white"/>
<path d="M188.376 159.206C187.502 158.757 186.658 158.292 185.845 157.807C185.774 157.832 185.693 157.857 185.602 157.882L186.471 163.935L188.017 164.617L188.376 159.206Z" fill="#8BC34A"/>
<path d="M197.284 151.93L199.294 157.846C200.259 158.139 201.214 158.407 202.149 158.644C205.044 159.392 207.803 159.903 210.38 160.165L207.53 154.426L197.284 151.93Z" fill="#8BC34A"/>
<path d="M209.132 139.723L197.476 139.127L203.569 143.593L212.785 143.998L209.132 139.723Z" fill="#8BC34A"/>
<path d="M211.092 144.994L217.751 155.73L215.851 150.895L212.163 145.039L213.573 145.105L212.577 142.578L210.157 139.779L211.496 139.845L211.249 139.219L209.435 139.128L200.739 132.125L199.779 132.1L208.384 139.077L196.591 138.486L197.475 139.128L209.132 139.724L212.785 143.998L203.569 143.594L203.877 143.821L203.958 143.978L204.322 144.685L208.702 144.887L211.471 154.265L212.759 154.573L209.829 144.938L211.092 144.994Z" fill="white"/>
<path d="M188.917 131.807L189.392 133.247L191.397 134.702L190.417 131.847L188.917 131.807Z" fill="white"/>
<path d="M224.739 173.625L224.218 172.281L219.302 174.095L219.964 175.399L224.739 173.625Z" fill="white"/>
<path d="M193.767 146.584L194.302 148.216L183.884 145.72L184.056 146.397L194.535 148.929L194.985 150.298L196.884 150.753L194.661 144.24L199.006 144.442L203.336 152.304L204.599 152.607L200.057 144.493L202.634 144.614L202.26 143.866L201.795 143.517L194.297 143.179L191.913 136.217L189.876 134.721L192.625 143.103L190.003 142.982L183.379 131.654L182.47 131.629L188.982 142.936L183.414 142.674L183.566 143.709L186.269 143.841L193.772 146.589L193.767 146.584ZM193.534 145.867L188.209 143.932L192.974 144.159L193.534 145.867Z" fill="white"/>
<path d="M199.567 132.094L198.188 132.059C196.526 133.6 194.434 135.504 193.53 136.252L194.348 136.848C194.752 136.53 195.525 135.848 197.117 134.383C198.122 133.458 199.102 132.539 199.567 132.099V132.094Z" fill="white"/>
<path d="M219.302 174.094L215.831 167.233C215.149 167.167 214.457 167.086 213.755 166.99L217.519 174.63L218.12 175.847L218.969 177.58L221.439 178.323L219.969 175.403L219.312 174.099L219.302 174.094Z" fill="#FFC107"/>
<path d="M184.678 148.873L195.364 151.465L197.284 151.93L207.53 154.426L210.38 160.165C211.042 160.231 211.688 160.282 212.32 160.317L209.571 154.926L218.272 157.053L217.776 155.785L212.764 154.572L211.476 154.264L208.919 153.648L204.327 144.69L203.963 143.977L203.882 143.821L203.574 143.593L197.476 139.127L196.591 138.48L194.343 136.843L193.524 136.247L191.392 134.696L189.392 133.241L187.34 131.755L188.917 131.801L190.412 131.841L198.183 132.048L199.562 132.084H199.779L200.739 132.114L208.52 132.306L208.303 131.76L206.282 131.402L190.129 130.997L188.644 130.957L186.148 130.891L181.206 127.324L181.373 128.491L184.607 130.851L181.707 130.77L181.828 131.599L182.48 131.619L183.389 131.644L185.789 131.715L189.882 134.716L191.918 136.212L201.795 143.512L202.26 143.861L202.634 144.609L206.898 153.158L204.595 152.602L203.331 152.299L196.874 150.748L194.975 150.293L184.39 147.757L184.046 146.392L183.874 145.715L183.814 145.473L184.501 150.263C184.723 150.48 184.95 150.692 185.183 150.904L184.667 148.868L184.678 148.873Z" fill="#FFC107"/>
<path d="M203.417 163.516C205.004 163.945 206.57 164.319 208.096 164.638C212.017 165.446 215.695 165.865 218.994 165.875C219.984 165.875 220.879 165.84 221.682 165.779L220 161.475C218.898 161.677 217.337 161.854 215.286 161.843C211.451 161.818 207.151 161.182 202.498 159.959C199.593 159.201 196.571 158.221 193.474 157.044C189.664 155.599 186.966 153.936 184.774 152.082L185.365 156.185C187.492 157.559 190.013 158.873 193.07 160.07C196.576 161.449 200.052 162.606 203.422 163.521L203.417 163.516Z" fill="#03A9F4"/>
<path d="M193.469 157.038C196.571 158.22 199.588 159.195 202.493 159.953C207.146 161.171 211.446 161.807 215.281 161.838C217.332 161.848 218.893 161.671 219.995 161.469L219.348 159.817C218.408 160.059 216.665 160.383 214.038 160.373C213.477 160.373 212.901 160.352 212.315 160.317C211.683 160.282 211.037 160.231 210.375 160.165C207.798 159.903 205.039 159.392 202.144 158.645C201.209 158.402 200.254 158.134 199.289 157.846L197.279 151.93L195.359 151.465L197.228 157.195C196.036 156.8 194.833 156.381 193.621 155.921C189.861 154.512 187.315 152.849 185.188 150.909C184.955 150.697 184.728 150.485 184.506 150.268L184.764 152.076C186.956 153.931 189.659 155.593 193.464 157.038H193.469Z" fill="white"/>
<path d="M175.406 171.748L187.148 168.125L186.754 165.412L174.755 167.16L175.406 171.748Z" fill="#E4DDD7"/>
<path d="M159.461 142.941L159.602 142.057L156.934 143.315C157.803 143.168 158.642 143.047 159.461 142.941Z" fill="#E4DDD7"/>
<path d="M170.95 154.894L170.707 152.984L159.152 156.541L158.677 159.81L170.95 154.894Z" fill="#E4DDD7"/>
<path d="M183.859 145.482L183.602 143.703L183.389 143.809L183.859 145.482Z" fill="#E4DDD7"/>
<path d="M181.202 127.287L181.141 126.873L180.403 127.105L181.202 127.287Z" fill="#E4DDD7"/>
<path d="M171.779 161.502C171.112 161.396 170.45 161.275 169.798 161.154C167.342 160.699 165.069 160.28 163.134 160.76C160.542 161.401 159.001 162.255 158.253 162.761L157.46 168.258L172.355 166.06L171.784 161.502H171.779Z" fill="#E4DDD7"/>
<path d="M161.032 133.104L151.993 135.903L151.417 140.081C154.181 138.464 157.859 136.302 160.795 134.584L161.032 133.109V133.104Z" fill="#E4DDD7"/>
<path d="M183.117 142.829L183.45 142.668L181.828 131.572L180.181 132.35L183.117 142.829Z" fill="#E4DDD7"/>
<path d="M179.959 131.562L181.707 130.739L181.373 128.455L178.923 127.879L179.959 131.562Z" fill="#E4DDD7"/>
<path d="M179.544 156.597C176.629 155.607 174.573 154.091 172.693 152.631L173.855 160.791C175.31 160.957 176.755 160.998 178.109 160.725C181.393 160.063 183.637 158.487 184.673 157.608C182.813 157.466 181.111 157.128 179.544 156.597Z" fill="#E4DDD7"/>
<path d="M163.28 159.937C165.579 159.366 167.989 159.801 170.596 160.271C170.945 160.331 171.294 160.397 171.647 160.457L171.041 155.617L158.561 160.619L158.39 161.817C159.228 161.337 160.411 160.781 161.992 160.296C162.396 160.169 162.826 160.048 163.285 159.937H163.28Z" fill="#E4DDD7"/>
<path d="M158.693 147.781C156.813 147.887 154.641 148.175 152.079 148.691C151.442 148.817 150.811 148.958 150.174 149.11L149.866 151.343L158.501 148.974L158.693 147.781Z" fill="#E4DDD7"/>
<path d="M159.764 141.062L160.698 135.201C159.42 135.954 157.227 137.242 155.004 138.551C153.58 139.39 152.352 140.107 151.336 140.708L150.801 144.609C151.745 144.371 152.69 144.149 153.635 143.947L159.769 141.062H159.764Z" fill="#E4DDD7"/>
<path d="M157.96 152.393L149.31 155.414L148.876 158.572L157.394 155.955L157.96 152.393Z" fill="#E4DDD7"/>
<path d="M154.135 168.188C154.12 168.375 154.085 168.572 154.034 168.764L155.383 168.562L157.197 157.139L148.709 159.751L147.941 165.344C151.639 164.485 154.363 165.627 154.13 168.183L154.135 168.188Z" fill="#E4DDD7"/>
<path d="M150.23 179.514L146.966 179.953L146.94 180.529L150.23 179.514Z" fill="#E4DDD7"/>
<path d="M147.148 175.393L147.026 178.354L153.984 177.399L155.156 170.018L153.398 170.275C152.251 172.231 149.901 174.186 147.148 175.393Z" fill="#E4DDD7"/>
<path d="M160.426 147.734L159.319 155.359L171.405 151.64C168.656 149.543 165.852 147.77 160.426 147.734Z" fill="#E4DDD7"/>
<path d="M181.601 144.68L178.216 146.332C178.837 146.736 179.443 147.15 180.045 147.57C180.535 147.908 181.005 148.232 181.474 148.545L182.525 148.221L181.601 144.685V144.68Z" fill="#E4DDD7"/>
<path d="M173.148 172.446L172.526 167.484L157.243 169.713L156.177 177.099L159.572 176.634L173.148 172.446Z" fill="#E4DDD7"/>
<path d="M173.845 137.982L179.903 138.189L178.67 133.5L173.845 137.982Z" fill="#E4DDD7"/>
<path d="M172.916 137.951L177.736 133.5L168.616 137.805L172.916 137.951Z" fill="#E4DDD7"/>
<path d="M161.153 142.754C163.573 142.526 165.776 142.506 167.792 142.693L172.223 138.601L167.317 138.424L161.381 141.223L161.158 142.754H161.153Z" fill="#E4DDD7"/>
<path d="M182.677 149.301C182.727 149.331 182.778 149.362 182.828 149.392L182.793 149.266L182.672 149.301H182.677Z" fill="#E4DDD7"/>
<path d="M187.35 169.521L187.148 168.127L175.406 171.749L174.755 167.162L186.754 165.413L186.547 163.968L174.552 165.737L173.992 161.781C175.31 161.887 176.639 161.872 177.953 161.609C181.863 160.826 184.481 158.946 185.668 157.91L185.42 156.203C179.883 155.743 176.831 153.429 173.992 151.282C169.722 148.048 165.62 144.951 152.544 147.613C151.796 147.765 151.058 147.932 150.316 148.109L150.179 149.114C150.811 148.968 151.447 148.826 152.084 148.695C154.641 148.174 156.818 147.886 158.698 147.785L158.506 148.978L149.871 151.347L149.78 152.009L158.4 149.645L158.076 151.691L149.411 154.717L149.315 155.415L157.965 152.388L157.399 155.95L157.212 157.137L155.398 168.561L154.049 168.763C153.928 169.258 153.711 169.764 153.413 170.274L155.171 170.016L153.999 177.398L147.042 178.353L146.976 179.955L150.245 179.51L146.956 180.525L145.834 180.869L145.627 182.39L187.366 169.516L187.35 169.521ZM158.556 160.624L171.036 155.622L171.642 160.462C171.289 160.401 170.94 160.336 170.591 160.275C167.989 159.805 165.574 159.371 163.275 159.942C162.815 160.053 162.386 160.174 161.982 160.3C160.4 160.79 159.218 161.346 158.379 161.821L158.551 160.624H158.556ZM178.104 160.725C176.745 160.998 175.305 160.957 173.85 160.79L172.688 152.631C174.568 154.091 176.624 155.601 179.539 156.597C181.1 157.127 182.808 157.466 184.668 157.607C183.627 158.486 181.388 160.063 178.104 160.725ZM159.319 155.359L160.426 147.735C165.857 147.765 168.656 149.538 171.405 151.64C171.698 151.863 171.991 152.09 172.284 152.322L172.446 152.449L170.697 152.984L170.94 154.894L158.667 159.81L159.142 156.541L159.314 155.359H159.319ZM158.248 162.761C159.001 162.251 160.542 161.397 163.129 160.76C165.064 160.28 167.337 160.699 169.793 161.154C170.445 161.275 171.107 161.397 171.774 161.503L172.345 166.06L157.45 168.258L158.243 162.761H158.248ZM157.243 169.713L172.526 167.485L173.148 172.441L159.572 176.63L156.177 177.095L157.243 169.713Z" fill="white"/>
<path d="M173.148 138.635L168.676 142.788C169.5 142.889 170.298 143.025 171.066 143.202C173.582 143.783 175.502 144.683 177.205 145.703L181.343 143.692L180.085 138.887L173.148 138.635Z" fill="#8BC34A"/>
<path d="M158.395 149.641L149.78 152.005L149.406 154.718L158.071 151.687L158.395 149.641Z" fill="#8BC34A"/>
<path d="M177.953 161.605C176.639 161.867 175.31 161.883 173.992 161.776L174.552 165.733L186.547 163.964L185.668 157.906C184.481 158.937 181.863 160.822 177.953 161.605Z" fill="#8BC34A"/>
<path d="M177.245 128.082L162.624 132.609L161.517 140.238L178.357 132.316L177.245 128.082Z" fill="#8BC34A"/>
<path d="M183.389 143.808L183.601 143.702L183.45 142.666L183.116 142.828L183.389 143.808Z" fill="white"/>
<path d="M157.394 155.955L148.876 158.572L148.714 159.755L157.202 157.142L157.394 155.955Z" fill="#FFC107"/>
<path d="M172.456 152.449L172.294 152.323C172.001 152.095 171.708 151.863 171.415 151.641L159.329 155.359L159.157 156.542L170.713 152.985L172.461 152.449H172.456Z" fill="#FFC107"/>
<path d="M160.698 135.205L159.764 141.066L161.517 140.242L162.628 132.613L177.25 128.086L177.786 127.919L180.408 127.106L181.146 126.878L181.045 126.201L152.099 135.164L151.998 135.902L161.037 133.103L160.799 134.578C157.864 136.301 154.186 138.459 151.422 140.075L151.336 140.702C152.352 140.106 153.579 139.383 155.004 138.544C157.227 137.236 159.42 135.947 160.698 135.195V135.205Z" fill="white"/>
<path d="M177.781 127.914L177.245 128.081L178.357 132.315L161.512 140.237L159.759 141.06L153.625 143.945C153.797 143.91 153.974 143.87 154.145 143.834C155.105 143.637 156.03 143.465 156.934 143.314L159.602 142.056L161.37 141.222L167.307 138.423L168.611 137.807L177.73 133.507L178.564 133.113L178.665 133.507L179.893 138.196L180.075 138.888L181.333 143.693L181.591 144.683L182.515 148.22L181.464 148.543C181.863 148.811 182.263 149.064 182.667 149.301L182.788 149.266L182.823 149.392C183.384 149.72 183.955 150.019 184.546 150.276L183.849 145.476L183.379 143.804L183.106 142.824L180.171 132.345L181.823 131.567L181.702 130.738L179.954 131.562L178.918 127.879L181.368 128.454L181.196 127.287L180.398 127.105L177.776 127.919L177.781 127.914Z" fill="#FFC107"/>
<path d="M146.94 180.531L146.966 179.96L147.031 178.358L147.153 175.397C149.906 174.19 152.256 172.235 153.403 170.279C153.701 169.769 153.918 169.264 154.039 168.769C154.085 168.571 154.12 168.379 154.14 168.193C154.373 165.636 151.649 164.489 147.951 165.353L147.774 166.657C150.391 166.126 152.261 166.99 152.069 168.834C151.872 170.729 149.578 172.992 146.749 174.175L145.829 180.884L146.951 180.541L146.94 180.531Z" fill="#FFC107"/>
<path d="M173.992 151.276C176.831 153.423 179.883 155.737 185.42 156.197L184.824 152.089C182.323 151.352 180.444 150.023 178.397 148.573C175.982 146.865 173.582 145.167 169.803 144.273C165.604 143.278 160.365 143.48 153.721 144.849C152.7 145.061 151.685 145.294 150.669 145.546L150.316 148.103C151.053 147.926 151.796 147.759 152.544 147.608C165.625 144.945 169.722 148.042 173.992 151.276Z" fill="#03A9F4"/>
<path d="M153.716 144.855C160.36 143.486 165.604 143.284 169.798 144.279C173.577 145.179 175.977 146.871 178.392 148.579C180.439 150.024 182.318 151.358 184.819 152.096L184.556 150.282C183.96 150.019 183.389 149.721 182.833 149.397C182.783 149.367 182.732 149.337 182.682 149.307C182.278 149.064 181.879 148.811 181.479 148.549C181.01 148.235 180.535 147.912 180.05 147.574C179.448 147.159 178.842 146.74 178.221 146.336L181.606 144.683L181.348 143.693L177.21 145.704C175.507 144.683 173.587 143.789 171.071 143.203C170.308 143.026 169.51 142.89 168.681 142.789L173.153 138.636L180.09 138.888L179.908 138.196L173.855 137.989L178.68 133.507L178.579 133.113L177.746 133.507L172.931 137.959L168.626 137.812L167.322 138.428L172.228 138.605L167.797 142.698C165.781 142.516 163.578 142.536 161.158 142.758L161.381 141.228L159.612 142.061L159.471 142.945C158.652 143.046 157.814 143.173 156.944 143.319C156.04 143.471 155.115 143.643 154.155 143.84C153.984 143.875 153.807 143.916 153.635 143.951C152.69 144.153 151.745 144.375 150.801 144.613L150.669 145.553C151.68 145.3 152.7 145.067 153.721 144.855H153.716Z" fill="white"/>
<path d="M152.059 168.828C152.251 166.984 150.381 166.12 147.764 166.65L146.733 174.169C149.563 172.986 151.857 170.723 152.054 168.828H152.059Z" fill="#8BC34A"/>
<g style="mix-blend-mode:multiply" opacity="0.2">
<g style="mix-blend-mode:multiply">
<path d="M181.045 126.195L152.094 135.163L145.612 182.394L187.351 169.52L181.045 126.195Z" fill="#263238"/>
</g>
</g>
<path d="M230.756 182.896L187.356 169.785L145.617 182.659L145.541 182.639L103.287 169.886L124.204 126.076L152.099 134.898L181.03 125.939L209.743 131.058L209.794 131.189L230.756 182.901V182.896ZM103.994 169.573L145.612 182.133L187.35 169.26L187.426 169.28L229.893 182.108L209.379 131.507L181.06 126.46L152.094 135.428L152.018 135.403L124.467 126.692L103.989 169.573H103.994Z" fill="black"/>
<path d="M201.467 145.819C200.371 145.304 199.148 145.016 197.86 145.016C197.743 145.016 197.627 145.016 197.511 145.021C191.751 145.253 188.341 151.614 191.155 156.646L197.561 168.121C198.006 168.919 199.173 168.879 199.557 168.045L205.1 156.131C206.893 152.276 205.317 147.628 201.472 145.814L201.467 145.819ZM197.991 156.838C195.98 156.838 194.343 155.207 194.343 153.191C194.343 151.175 195.975 149.543 197.991 149.543C200.007 149.543 201.639 151.175 201.639 153.191C201.639 155.207 200.007 156.838 197.991 156.838Z" fill="#CA3300"/>
<path d="M198.537 168.948C198.036 168.948 197.582 168.68 197.339 168.246L190.933 156.771C189.543 154.286 189.548 151.315 190.948 148.819C192.307 146.394 194.757 144.878 197.501 144.767C198.91 144.711 200.305 144.989 201.578 145.59C205.514 147.445 207.197 152.224 205.327 156.246L199.785 168.16C199.567 168.63 199.108 168.933 198.592 168.953C198.577 168.953 198.557 168.953 198.542 168.953L198.537 168.948ZM197.86 145.262C197.748 145.262 197.632 145.262 197.521 145.267C194.954 145.373 192.661 146.788 191.387 149.061C190.079 151.401 190.074 154.19 191.372 156.519L197.779 167.993C197.94 168.281 198.238 168.453 198.567 168.438C198.9 168.428 199.183 168.236 199.325 167.937L204.867 156.024C206.621 152.26 205.044 147.778 201.361 146.04C200.259 145.52 199.082 145.257 197.86 145.257V145.262ZM197.991 157.085C195.844 157.085 194.09 155.337 194.09 153.184C194.09 151.032 195.839 149.289 197.991 149.289C200.143 149.289 201.886 151.037 201.886 153.184C201.886 155.331 200.138 157.085 197.991 157.085ZM197.991 149.794C196.121 149.794 194.596 151.315 194.596 153.184C194.596 155.054 196.116 156.579 197.991 156.579C199.865 156.579 201.381 155.059 201.381 153.184C201.381 151.31 199.86 149.794 197.991 149.794Z" fill="black"/>
<path d="M140.246 129.229C139.15 128.714 137.927 128.426 136.639 128.426C136.522 128.426 136.406 128.426 136.29 128.431C130.53 128.663 127.12 135.024 129.934 140.057L136.34 151.531C136.785 152.329 137.952 152.289 138.336 151.455L143.879 139.541C145.672 135.686 144.096 131.038 140.251 129.224L140.246 129.229ZM136.77 140.249C134.759 140.249 133.122 138.617 133.122 136.601C133.122 134.585 134.754 132.953 136.77 132.953C138.786 132.953 140.418 134.585 140.418 136.601C140.418 138.617 138.786 140.249 136.77 140.249Z" fill="#CA3300"/>
<path d="M137.316 152.363C136.815 152.363 136.361 152.095 136.118 151.661L129.712 140.187C128.322 137.701 128.327 134.73 129.727 132.234C131.086 129.809 133.536 128.293 136.28 128.182C137.684 128.121 139.084 128.404 140.357 129.005C144.293 130.865 145.976 135.639 144.106 139.661L138.564 151.575C138.346 152.045 137.887 152.348 137.371 152.368C137.356 152.368 137.336 152.368 137.321 152.368L137.316 152.363ZM136.639 128.677C136.527 128.677 136.411 128.677 136.3 128.682C133.733 128.788 131.44 130.203 130.166 132.476C128.858 134.816 128.853 137.605 130.151 139.934L136.558 151.408C136.719 151.696 137.012 151.863 137.346 151.853C137.679 151.843 137.962 151.651 138.104 151.353L143.646 139.439C145.4 135.675 143.823 131.193 140.14 129.455C139.044 128.935 137.861 128.672 136.639 128.672V128.677ZM136.77 140.5C134.623 140.5 132.869 138.752 132.869 136.599C132.869 134.447 134.618 132.704 136.77 132.704C138.922 132.704 140.665 134.452 140.665 136.599C140.665 138.747 138.917 140.5 136.77 140.5ZM136.77 133.209C134.901 133.209 133.375 134.73 133.375 136.599C133.375 138.469 134.895 139.995 136.77 139.995C138.644 139.995 140.16 138.474 140.16 136.599C140.16 134.725 138.639 133.209 136.77 133.209Z" fill="black"/>
</svg>
