<svg width="270" height="263" viewBox="0 0 270 263" fill="none" xmlns="http://www.w3.org/2000/svg">
<path d="M59.7609 26.6914L8.36532 166.171C3.74528 178.709 10.1739 192.614 22.724 197.23L178.784 254.625C191.334 259.24 205.254 252.818 209.874 240.28L261.269 100.8C265.889 88.2624 259.461 74.3566 246.911 69.741L90.8503 12.3465C78.3002 7.73096 64.381 14.1534 59.7609 26.6914Z" fill="#E6E6E6"/>
<path d="M46.2354 80.7231L135.351 33.7913L110.479 37.9334L13.0718 88.3152L46.2354 80.7231Z" fill="#CCCCCC"/>
<path d="M135.351 123.513L44.8501 177.345L134.415 229.255L229.305 176.658L135.351 123.513Z" fill="#F2F2F9"/>
<path d="M225.851 81.4151L135.351 34.0341V123.513L225.851 177.412V81.4151Z" fill="white"/>
<path d="M225.851 81.4151L135.351 34.0341V123.513L225.851 177.412V81.4151Z" stroke="black" stroke-miterlimit="10"/>
<path d="M44.8501 81.4151L135.351 34.0341V123.513L44.8501 177.412V81.4151Z" fill="#CCCCCC"/>
<path d="M13.0717 89.0899C12.7512 89.0899 12.4565 88.8937 12.3428 88.5838C12.2084 88.2171 12.3686 87.8091 12.715 87.6283L110.122 37.2465C110.195 37.2104 110.272 37.1845 110.35 37.169L135.221 33.027C135.599 32.965 135.961 33.1819 136.085 33.5434C136.209 33.905 136.049 34.2975 135.712 34.4782L46.5972 81.41C46.5352 81.441 46.4731 81.4668 46.4111 81.4771L13.2526 89.0693C13.1958 89.0848 13.1389 89.0899 13.0769 89.0899H13.0717ZM110.727 38.6772L18.8566 86.1977L45.9613 79.9897L130.739 35.3459L110.727 38.6772Z" fill="black"/>
<path d="M224.466 80.7231L135.351 33.7913L162.295 37.2414L261.77 86.9362L224.466 80.7231Z" fill="#C2C2C2"/>
<path d="M261.771 87.7109C261.729 87.7109 261.688 87.7109 261.641 87.7006L224.337 81.4874C224.254 81.472 224.177 81.4461 224.104 81.41L134.989 34.4782C134.658 34.3026 134.498 33.9153 134.612 33.5589C134.725 33.2025 135.077 32.9753 135.449 33.0218L162.394 36.4718C162.481 36.4821 162.564 36.508 162.642 36.5493L262.122 86.239C262.463 86.4094 262.634 86.8071 262.515 87.1738C262.412 87.4992 262.107 87.7109 261.776 87.7109H261.771ZM224.714 79.9794L256.808 85.3248L162.058 37.9954L139.502 35.1083L224.714 79.9845V79.9794Z" fill="black"/>
<path d="M125.29 55.7465L121.899 50.37L93.2383 60.3947L99.1008 53.474C101.929 50.1376 100.931 45.0401 97.0536 43.0155C94.9495 41.9154 92.4267 41.9774 90.3898 43.1963C80.7845 48.9291 54.5431 66.7783 64.288 85.707C74.0329 104.636 104.612 85.707 104.612 85.707L125.29 55.7517V55.7465Z" fill="#C2C2C2"/>
<path d="M141.575 50.3236L145.339 49.7296C145.339 49.7296 169.362 56.1649 176.988 61.9442C191.98 73.3065 194.673 81.1931 197.589 86.931C200.505 92.669 201.285 95.5148 201.285 95.5148L176.915 109.361L143.121 66.1637L141.575 50.3236Z" fill="#C2C2C2"/>
<path d="M162.729 141.796L107.827 142.426C102.239 142.488 97.648 137.612 97.5756 131.534L97.0742 87.8142C96.826 66.36 112.625 48.7793 132.352 48.5521L136.049 48.5108C155.781 48.2835 171.973 65.4923 172.211 87.4114L172.712 131.131C172.795 136.75 168.318 141.729 162.729 141.796Z" fill="#C2C2C2"/>
<path d="M172.211 80.0207L172.314 96.3618L172.712 131.136C172.795 136.755 168.318 141.734 162.729 141.801L107.827 142.431C102.239 142.493 97.6481 137.618 97.5757 131.539L97.1621 95.4735L97.0742 81.0588" fill="#C2C2C2"/>
<path d="M107.719 143.201C104.839 143.201 102.125 142.002 100.068 139.813C97.9996 137.612 96.8365 134.674 96.8003 131.539L96.3867 95.4735L96.2988 81.0588C96.2988 80.6301 96.64 80.2841 97.0691 80.2789C97.5137 80.2582 97.8446 80.6198 97.8497 81.0484L97.9376 95.4632L98.3512 131.528C98.3822 134.276 99.3903 136.843 101.195 138.754C102.978 140.649 105.315 141.698 107.817 141.651L162.719 141.021C165.092 140.995 167.356 139.998 169.093 138.217C170.939 136.326 171.973 133.749 171.937 131.146L171.539 96.3721L171.435 80.031C171.435 79.6023 171.776 79.2563 172.206 79.2511C172.629 79.2511 172.976 79.5972 172.981 80.0207L173.084 96.3618L173.482 131.131C173.524 134.142 172.33 137.122 170.2 139.301C168.173 141.383 165.521 142.545 162.729 142.576L107.827 143.206C107.786 143.206 107.75 143.206 107.708 143.206L107.719 143.201Z" fill="white"/>
<path d="M131.754 43.3199L136.495 43.2654C137.177 43.2575 137.736 43.8037 137.744 44.4854L137.798 49.1282C137.821 51.1165 136.221 52.7515 134.231 52.7744C132.241 52.7973 130.604 51.1995 130.581 49.2112L130.528 44.5685C130.52 43.8868 131.067 43.3278 131.749 43.32L131.754 43.3199Z" fill="white"/>
<path d="M135.113 53.4586C134.828 53.5205 134.539 53.5515 134.239 53.5567C133.071 53.5722 131.964 53.128 131.127 52.312C130.289 51.496 129.819 50.401 129.809 49.2338L129.757 44.5907C129.747 43.4803 130.636 42.5713 131.747 42.5558L136.488 42.499C137.594 42.4887 138.509 43.377 138.525 44.4875L138.576 49.1305C138.602 51.2429 137.113 53.0299 135.118 53.4586H135.113ZM131.67 44.1156C131.458 44.1621 131.303 44.348 131.308 44.5701L131.36 49.2132C131.37 49.9672 131.67 50.6748 132.213 51.2016C132.755 51.7284 133.469 52.0176 134.224 52.0073C135.785 51.9866 137.041 50.7058 137.02 49.146L136.969 44.5029C136.969 44.2499 136.757 44.0433 136.503 44.0484L131.763 44.1053C131.732 44.1053 131.701 44.1053 131.67 44.1156Z" fill="black"/>
<path d="M129.311 10.7127L138.569 10.6062C143.139 10.5536 146.888 14.2138 146.94 18.7791L147.09 31.7468C147.172 38.8633 141.454 44.7036 134.336 44.7856C127.212 44.8675 121.366 39.1551 121.284 32.0438L121.135 19.076C121.082 14.5107 124.746 10.7652 129.316 10.7126L129.311 10.7127Z" fill="white"/>
<path d="M137.088 45.2621C136.193 45.4532 135.273 45.5565 134.337 45.5669C130.682 45.6082 127.234 44.224 124.618 41.6727C122.003 39.1213 120.545 35.7074 120.498 32.056L120.348 19.0925C120.291 14.1086 124.303 10.0027 129.297 9.94585L138.551 9.83739C143.545 9.78058 147.649 13.7884 147.706 18.7775L147.856 31.7409C147.898 35.3924 146.512 38.8372 143.958 41.4506C142.056 43.3925 139.678 44.6992 137.077 45.257L137.088 45.2621ZM127.824 11.6605C124.412 12.3939 121.863 15.4514 121.904 19.0719L122.054 32.0353C122.09 35.2736 123.388 38.3001 125.704 40.5623C128.02 42.8244 131.081 44.0484 134.322 44.0123C137.563 43.9761 140.593 42.6798 142.857 40.366C145.121 38.0522 146.347 34.9947 146.31 31.7564L146.161 18.793C146.14 16.7891 145.333 14.9195 143.901 13.5198C142.469 12.1202 140.577 11.361 138.571 11.3868L129.318 11.4953C128.806 11.5004 128.304 11.5572 127.824 11.6605Z" fill="black"/>
<path d="M114.564 26.2508C114.543 24.3657 116.053 22.8215 117.939 22.8008C119.826 22.7802 121 25.0526 121.026 26.9377C121.046 28.8229 119.904 29.6027 118.022 29.6286C116.135 29.6492 114.59 28.1411 114.569 26.256L114.564 26.2508Z" fill="white"/>
<path d="M119.216 30.2742C118.854 30.3516 118.461 30.3929 118.032 30.3981C116.911 30.4084 115.856 29.9901 115.055 29.2051C114.253 28.4252 113.804 27.3767 113.793 26.256C113.767 23.9474 115.623 22.0468 117.934 22.0209C119.066 22.0106 120.095 22.6097 120.829 23.7201C121.434 24.6291 121.791 25.7963 121.801 26.9223C121.817 28.074 121.455 28.9675 120.736 29.5666C120.333 29.9023 119.826 30.1399 119.211 30.269L119.216 30.2742ZM115.344 26.2405C115.354 26.9429 115.634 27.604 116.14 28.0946C116.647 28.5853 117.309 28.8539 118.017 28.8435C118.808 28.8332 119.387 28.6783 119.749 28.3787C120.1 28.0843 120.266 27.6143 120.261 26.9377C120.25 26.1166 119.987 25.2334 119.547 24.5723C119.237 24.1075 118.715 23.5549 117.96 23.5652C116.507 23.5807 115.334 24.7789 115.349 26.2353L115.344 26.2405Z" fill="black"/>
<path d="M153.657 25.8015C153.636 23.9164 152.09 22.4083 150.203 22.429C148.316 22.4496 147.194 24.7479 147.215 26.633C147.236 28.5181 148.394 29.2722 150.281 29.2515C152.168 29.2309 153.677 27.6866 153.657 25.8015Z" fill="white"/>
<path d="M151.134 29.9333C150.86 29.9901 150.581 30.0263 150.291 30.0263C146.972 30.0624 146.455 27.9191 146.44 26.6434C146.414 24.2573 147.918 21.6801 150.193 21.6543C151.315 21.6439 152.369 22.0674 153.171 22.8473C153.972 23.6272 154.422 24.6756 154.432 25.7964C154.442 26.9171 154.019 27.9707 153.238 28.7712C152.654 29.3652 151.925 29.768 151.129 29.9384L151.134 29.9333ZM149.924 23.2347C148.699 23.4981 147.975 25.3057 147.991 26.6227C148.001 27.5988 148.285 28.4975 150.276 28.4768C150.979 28.4717 151.64 28.1876 152.132 27.6815C152.623 27.1753 152.892 26.5142 152.881 25.8067C152.871 25.1043 152.592 24.4432 152.085 23.9525C151.578 23.4619 150.917 23.1933 150.208 23.2037C150.11 23.2037 150.012 23.214 149.919 23.2347H149.924Z" fill="black"/>
<path d="M117.174 25.6517C117.174 25.6517 119.17 25.6311 119.925 26.3696C120.679 27.1082 121.036 27.6815 121.036 27.6815" fill="white"/>
<path d="M121.196 28.4355C120.886 28.5027 120.55 28.3735 120.374 28.0843C120.374 28.0843 120.054 27.573 119.382 26.9223C119.035 26.5865 117.882 26.4213 117.179 26.4264C116.75 26.4264 116.399 26.0907 116.394 25.6621C116.394 25.2334 116.73 24.8874 117.159 24.877C117.546 24.877 119.521 24.8977 120.462 25.8118C121.279 26.6072 121.672 27.2476 121.692 27.2735C121.915 27.6402 121.801 28.1153 121.439 28.3374C121.362 28.3839 121.279 28.4149 121.196 28.4355Z" fill="black"/>
<path d="M151.196 25.2592C151.196 25.2592 149.2 25.2799 148.461 26.0391C147.722 26.7931 147.38 27.3768 147.38 27.3768" fill="white"/>
<path d="M147.541 28.1308C147.36 28.1721 147.158 28.1463 146.988 28.043C146.621 27.8261 146.496 27.3561 146.708 26.9842C146.724 26.9584 147.106 26.3128 147.903 25.4968C148.823 24.5568 150.798 24.4897 151.185 24.4845C151.614 24.4845 151.966 24.8202 151.971 25.2489C151.976 25.6776 151.63 26.0288 151.206 26.0339C150.529 26.0443 149.366 26.225 149.014 26.5814C148.363 27.2476 148.053 27.7641 148.047 27.7693C147.934 27.9604 147.747 28.0895 147.541 28.1308Z" fill="black"/>
<path d="M119.924 15.4411C119.924 15.4411 118.482 20.0274 118.482 20.2753C118.482 20.5232 119.48 23.3586 119.48 23.3586L121.206 26.1682L122.411 26.1527L122.747 22.4651C122.747 22.4651 123.734 21.7059 124.225 20.9519C124.717 20.1978 124.66 15.4618 124.66 15.4618L119.919 15.4359L119.924 15.4411Z" fill="black"/>
<path d="M147.861 15.1209C147.861 15.1209 149.407 19.671 149.412 19.9189C149.417 20.1668 148.487 23.0281 148.487 23.0281L146.827 25.879L145.623 25.8945L145.199 22.2172C145.199 22.2172 144.191 21.4786 143.684 20.7401C143.177 20.0015 143.121 15.2655 143.121 15.2655L147.861 15.1312V15.1209Z" fill="black"/>
<path d="M130.203 0.219941L137.249 0.138854C143.907 0.0622281 149.376 5.40193 149.453 12.0536L149.489 15.1936C149.499 16.0044 148.85 16.6678 148.038 16.6772L119.798 17.0022C118.986 17.0115 118.322 16.3632 118.313 15.5524L118.277 12.4124C118.2 5.76073 123.545 0.296567 130.203 0.219941Z" fill="#C2C2C2"/>
<path d="M118.182 15.658C118.182 15.658 123.858 11.2215 133.712 11.1131C143.002 11.0046 149.614 15.3017 149.614 15.3017L147.184 19.0099C146.657 19.7278 145.7 19.9654 144.899 19.5832C142.211 18.292 136.043 16.8252 133.505 16.8562C130.972 16.8821 125.404 18.4366 122.7 19.8053C121.873 20.2236 120.87 19.9654 120.348 19.201L118.187 15.6632L118.182 15.658Z" fill="#C2C2C2"/>
<path d="M106.163 44.6424C109.16 44.6424 111.591 42.2144 111.591 39.2194C111.591 36.2244 109.16 33.7965 106.163 33.7965C103.165 33.7965 100.734 36.2244 100.734 39.2194C100.734 42.2144 103.165 44.6424 106.163 44.6424Z" fill="white" stroke="black" stroke-width="1.5" stroke-miterlimit="10"/>
<path d="M82.6404 73.3065C82.4595 73.3065 82.2785 73.2446 82.1286 73.1154C81.8081 72.8365 81.7719 72.3459 82.0562 72.0205L92.6541 59.8834C92.9333 59.5632 93.4244 59.5271 93.7501 59.8111C94.0706 60.09 94.1068 60.5807 93.8225 60.9061L83.2246 73.0431C83.0695 73.2187 82.8575 73.3065 82.6404 73.3065Z" fill="white"/>
<path d="M116.539 32.0068L115.693 31.0646L112.025 34.3497L112.87 35.292L116.539 32.0068Z" fill="black"/>
<path d="M106.695 40.7689C106.4 40.7689 106.116 40.6449 105.914 40.4331C105.728 40.2317 105.635 39.9735 105.651 39.7049C105.666 39.4364 105.79 39.1885 105.997 39.0077L111.678 34.0857C111.87 33.9204 112.118 33.8275 112.376 33.8275C112.671 33.8275 112.955 33.9514 113.157 34.1632C113.54 34.5764 113.503 35.2168 113.074 35.5886L107.393 40.5106C107.202 40.6759 106.953 40.7689 106.695 40.7689Z" fill="#C2C2C2"/>
<path d="M121.671 34.0547C126.525 34.0547 130.46 30.1238 130.46 25.2747C130.46 20.4256 126.525 16.4947 121.671 16.4947C116.818 16.4947 112.883 20.4256 112.883 25.2747C112.883 30.1238 116.818 34.0547 121.671 34.0547Z" fill="black"/>
<path d="M121.672 33.0218C125.954 33.0218 129.426 29.5533 129.426 25.2747C129.426 20.9961 125.954 17.5276 121.672 17.5276C117.389 17.5276 113.917 20.9961 113.917 25.2747C113.917 29.5533 117.389 33.0218 121.672 33.0218Z" fill="#E6E6E6"/>
<path d="M125.115 31.1108C124.861 31.1108 124.608 31.0075 124.427 30.8061C124.086 30.4291 124.117 29.8455 124.499 29.5046C126.898 27.3561 127.105 23.6582 124.949 21.2566C124.608 20.8795 124.639 20.2959 125.022 19.9551C125.399 19.6142 125.983 19.6452 126.324 20.0274C129.152 23.183 128.888 28.0482 125.73 30.8784C125.554 31.0385 125.332 31.116 125.115 31.116V31.1108Z" fill="white"/>
<path d="M44.8501 81.4151V177.345L135.351 229.797V133.259L44.8501 81.4151Z" fill="white"/>
<path d="M225.888 81.4151L229.305 176.658L135.351 229.797V133.259L225.888 81.4151Z" fill="#CCCCCC"/>
<path d="M135.573 229.942L134.818 228.589L228.447 176.275L226.979 133.377L228.524 133.326L230.029 177.169L135.573 229.942Z" fill="black"/>
<path d="M134.617 229.89L44.1986 178.021L43.9453 134.87L45.4962 134.865L45.7444 177.117L135.387 228.547L134.617 229.89Z" fill="black"/>
<path d="M44.8498 81.4151L24.1245 122.821L114.625 175.966L135.351 133.176L44.8498 81.4151Z" fill="#C2C2C2"/>
<path d="M225.851 81.4151L246.577 122.821L156.076 175.966L135.351 133.176L225.851 81.4151Z" fill="white"/>
<path d="M155.812 176.926L134.337 132.866L225.996 80.3615L247.595 123.125L155.812 176.926ZM136.364 133.491L156.474 174.741L245.553 122.526L225.345 82.5152L136.364 133.491Z" fill="black"/>
<path d="M114.956 177.06L23.1064 123.125L44.5245 80.3357L136.364 132.866L114.956 177.06ZM25.1433 122.521L114.295 174.871L134.338 133.486L45.1811 82.4894L25.1485 122.516L25.1433 122.521Z" fill="black"/>
<path d="M187.844 109.718C190.842 109.718 193.272 107.29 193.272 104.295C193.272 101.3 190.842 98.8719 187.844 98.8719C184.846 98.8719 182.416 101.3 182.416 104.295C182.416 107.29 184.846 109.718 187.844 109.718Z" fill="white"/>
<path d="M187.844 110.492C184.421 110.492 181.64 107.714 181.64 104.295C181.64 100.876 184.421 98.0972 187.844 98.0972C191.266 98.0972 194.047 100.876 194.047 104.295C194.047 107.714 191.266 110.492 187.844 110.492ZM187.844 99.6466C185.28 99.6466 183.191 101.733 183.191 104.295C183.191 106.857 185.28 108.943 187.844 108.943C190.408 108.943 192.497 106.857 192.497 104.295C192.497 101.733 190.408 99.6466 187.844 99.6466Z" fill="black"/>
</svg>
