<svg width="275" height="189" viewBox="0 0 275 189" fill="none" xmlns="http://www.w3.org/2000/svg">
<path d="M247.693 93.0979C247.693 150.964 197.647 188.5 135.693 188.5C73.7402 188.5 23.6934 150.964 23.6934 93.0979C23.6934 64.1423 36.2098 41.0104 56.4528 25.1056C76.7063 9.19243 104.716 0.5 135.693 0.5C166.671 0.5 194.68 9.19243 214.934 25.1056C235.177 41.0104 247.693 64.1423 247.693 93.0979Z" fill="#E8EEFD" stroke="black"/>
<path d="M27.0855 164.645C27.0589 164.613 27.0408 164.577 27.0321 164.537C26.7907 163.43 21.5954 148.595 25.2491 138.966C27.3881 133.329 28.0557 126.771 28.2286 124.558C28.2475 124.315 28.5695 124.244 28.6876 124.457C29.8233 126.505 32.7684 133.085 29.9349 142.279C27.8143 149.16 26.9489 151.066 26.7651 153.091C26.6123 154.774 27.2854 162.056 27.5165 164.462C27.5395 164.701 27.2415 164.827 27.0855 164.645Z" fill="#9CD499"/>
<path d="M28.4758 124.501L28.457 124.502C28.4365 124.507 28.4015 124.521 28.3976 124.57C28.2032 127.06 27.5228 133.452 25.4076 139.027C23.2508 144.711 23.777 153.014 26.9714 163.709C27.0917 164.112 27.1711 164.378 27.1977 164.501C27.2006 164.513 27.2059 164.523 27.214 164.533C27.2457 164.57 27.2825 164.562 27.3017 164.554C27.3205 164.546 27.3515 164.526 27.3469 164.478C27.0707 161.603 26.4445 154.736 26.5954 153.075C26.7188 151.716 27.1299 150.456 28.0305 147.696C28.4873 146.295 29.0556 144.553 29.7722 142.228C32.615 133.004 29.5466 126.357 28.5385 124.54C28.5211 124.508 28.4959 124.501 28.4758 124.501ZM27.2687 164.902C27.1512 164.902 27.0381 164.851 26.9561 164.755C26.911 164.703 26.8806 164.641 26.8657 164.573C26.8417 164.463 26.7595 164.188 26.6457 163.807C26.1322 162.088 24.9295 158.062 24.2551 153.35C23.4105 147.451 23.6913 142.591 25.0897 138.905C27.1894 133.372 27.8654 127.018 28.0586 124.544C28.073 124.359 28.204 124.209 28.3847 124.17C28.5651 124.13 28.7462 124.213 28.8358 124.374C29.4046 125.4 30.4378 127.58 30.9669 130.659C31.6145 134.429 31.3218 138.355 30.097 142.328C29.3798 144.656 28.8108 146.4 28.3536 147.801C27.4612 150.537 27.0539 151.785 26.934 153.105C26.7816 154.785 27.4705 162.209 27.6854 164.445C27.703 164.629 27.6047 164.795 27.4347 164.867C27.3803 164.891 27.324 164.902 27.2687 164.902Z" fill="#74B570"/>
<path d="M25.8457 166.158C26.6727 149.135 22.6299 139.84 14.3606 132.48C9.24159 127.923 7.1507 125.446 6.30047 124.221C6.1545 124.011 5.82481 124.137 5.85552 124.391C6.28494 127.949 7.85121 138.415 11.7881 142.51C16.5658 147.478 23.5487 151.159 24.5594 153.735C25.5238 156.193 25.2333 164.184 25.2047 164.908C25.2033 164.944 25.2096 164.978 25.2231 165.011L25.8457 166.525V166.158Z" fill="#9CD499"/>
<path d="M26.3267 166.857C26.4727 167.07 26.8056 166.944 26.7731 166.688C26.3367 163.251 24.1695 151.581 18.4036 150.79C11.6963 149.87 10.1344 151.434 5.5404 150.698C3.20188 150.324 1.25368 149.687 0.329222 149.353C0.115929 149.276 -0.0779845 149.504 0.0316088 149.704C0.723509 150.96 2.80816 153.971 7.46979 155.39C11.6963 156.68 17.2092 154.563 20.4249 155.115C23.5708 155.655 25.222 162.271 25.2922 162.558L25.2962 162.578L25.8373 166.101C25.8429 166.138 25.8568 166.173 25.8777 166.204L26.3267 166.857Z" fill="#9CD499"/>
<path d="M25.9381 165.314L25.9223 165.313C25.8288 165.305 25.76 165.223 25.7686 165.128C25.7787 165.019 26.7197 154.132 22.1139 145.812C19.7332 141.51 17.1251 139.01 14.6029 136.591C12.2143 134.302 9.95813 132.138 8.23671 128.69C8.19477 128.606 8.22877 128.504 8.31275 128.462C8.39662 128.42 8.49873 128.454 8.54078 128.538C10.2358 131.933 12.4713 134.076 14.838 136.346C17.3785 138.782 20.0056 141.3 22.4114 145.646C27.0688 154.061 26.1173 165.05 26.1071 165.16C26.0991 165.249 26.0249 165.314 25.9381 165.314Z" fill="#74B570"/>
<path d="M26.3965 163.105C26.3228 163.105 26.2548 163.058 26.2333 162.983C24.4999 157 22.53 153.52 20.0336 152.034C17.84 150.726 15.5213 151.137 13.0665 151.572C12.4464 151.681 11.805 151.794 11.1665 151.878C5.57316 152.614 2.90779 151.274 2.79706 151.216C2.71365 151.173 2.681 151.071 2.72407 150.987C2.76725 150.904 2.86993 150.871 2.95323 150.914C2.97941 150.928 5.64796 152.259 11.1223 151.541C11.7532 151.458 12.3908 151.345 13.0074 151.236C15.5262 150.791 17.9053 150.37 20.2076 151.741C22.7825 153.275 24.801 156.818 26.5598 162.889C26.586 162.978 26.534 163.073 26.4438 163.099C26.4281 163.103 26.4121 163.105 26.3965 163.105Z" fill="#74B570"/>
<path d="M17.6233 139.505C17.587 139.505 17.5505 139.492 17.5196 139.469C17.4876 139.445 14.2803 136.999 9.82743 136.143C9.73529 136.125 9.67476 136.036 9.69256 135.943C9.71024 135.851 9.79898 135.791 9.89146 135.808C14.4268 136.68 17.6947 139.175 17.7272 139.2C17.8016 139.256 17.8153 139.364 17.7581 139.438C17.7245 139.481 17.6741 139.505 17.6233 139.505Z" fill="#74B570"/>
<path d="M22.8132 146.912C22.7552 146.912 22.6986 146.883 22.6669 146.828C20.3378 142.895 17.5765 141.894 11.5527 140.003C11.4632 139.975 11.4133 139.88 11.4414 139.79C11.4694 139.699 11.5649 139.649 11.6545 139.678C17.7644 141.596 20.5665 142.614 22.9593 146.654C23.0072 146.736 22.9805 146.841 22.8998 146.888C22.8726 146.904 22.8427 146.912 22.8132 146.912Z" fill="#74B570"/>
<path d="M24.5025 171.816H28.1994C29.766 171.816 31.1117 170.702 31.4059 169.16L32.6348 162.723C32.6638 162.571 32.5478 162.43 32.3936 162.43H20.3082C20.1541 162.43 20.038 162.571 20.0669 162.723L21.2959 169.16C21.5901 170.702 22.9359 171.816 24.5025 171.816Z" fill="white"/>
<path d="M250.185 171.373C253.414 160.911 253.445 157.033 249.278 147.677C245.11 138.32 246.559 122.012 244.023 126.542C241.487 131.07 240.318 143.07 245.78 149.616C251.244 156.164 251.762 158.864 251.844 161.271C251.926 163.68 249.81 170.795 249.81 170.795L250.185 171.373Z" fill="#9CD499"/>
<path d="M251.985 164.598C251.996 164.557 252.001 164.517 252.01 164.476C252.001 163.585 251.923 158.998 251.28 157.113C250.566 155.023 246.812 151.081 246.159 146.621C245.508 142.161 244.054 138.59 243.164 135.715C241.991 131.919 243.443 127.236 244.958 125.839C244.928 125.814 244.897 125.795 244.866 125.783L244.392 125.996C244.279 126.123 244.157 126.304 244.023 126.542C241.488 131.071 240.318 143.07 245.782 149.617C251.245 156.165 251.763 158.865 251.844 161.272C251.867 161.921 251.729 162.914 251.517 164.016L251.985 164.598Z" fill="#74B570"/>
<path d="M247.752 169.167C250.706 156.77 250.744 152.362 249.151 141.969C247.555 131.577 268.548 110.854 267.494 114.749C266.44 118.644 263.326 128.274 257.566 133.859C251.804 139.444 250.814 144.425 251.142 149.86C251.47 155.294 248.83 167.53 248.83 167.53L247.984 169.685L247.752 169.167Z" fill="#9CD499"/>
<path d="M249.059 164.072L249.032 164.07C248.938 164.055 248.876 163.969 248.891 163.876C248.896 163.837 249.504 159.98 249.813 156.793C250.123 153.604 249.914 148.052 249.616 146.117C249.343 144.348 249.427 138.538 253.056 132.966C254.861 130.195 256.243 128.472 258.155 126.088C260.044 123.733 262.396 120.803 266.192 115.598C266.247 115.522 266.353 115.506 266.43 115.561C266.505 115.617 266.521 115.724 266.466 115.799C262.665 121.009 260.311 123.943 258.421 126.302C256.514 128.677 255.137 130.395 253.342 133.151C249.771 138.634 249.683 144.332 249.952 146.064C250.254 148.017 250.463 153.613 250.152 156.826C249.843 160.024 249.233 163.891 249.228 163.929C249.213 164.013 249.142 164.072 249.059 164.072Z" fill="#74B570"/>
<path d="M247.719 173.52C249.596 165.212 249.217 169.598 246.98 157.735C244.417 144.157 258.184 135.192 262.328 138.579C265.968 141.554 268.536 157.608 267.532 156.996C266.528 156.385 257.853 143.702 257.591 144.259C257.329 144.815 247.385 148.524 247.18 153.502C246.974 158.479 249.609 166.741 249.609 166.741L248.673 173.732L247.719 173.52Z" fill="#9CD499"/>
<path d="M247.922 173.391L248.53 173.527L249.433 166.756C249.244 166.148 246.812 158.277 247.009 153.496C247.171 149.55 253.177 146.445 256.061 144.954C256.726 144.611 257.351 144.287 257.442 144.179C257.473 144.118 257.53 144.079 257.598 144.072C257.922 144.046 258.787 145.127 262.744 150.531C264.725 153.236 266.955 156.285 267.546 156.795C267.721 156.155 267.331 152.655 266.359 148.542C265.157 143.464 263.65 139.881 262.22 138.713C260.819 137.566 258.102 137.905 255.297 139.574C250.118 142.659 245.59 149.462 247.145 157.703C247.745 160.884 248.202 162.856 248.537 164.297C249.293 167.556 249.293 167.556 248.445 171.145C248.292 171.788 248.121 172.51 247.922 173.391ZM248.673 173.903C248.66 173.903 248.647 173.902 248.634 173.9L247.681 173.687C247.637 173.678 247.6 173.65 247.574 173.612C247.55 173.573 247.543 173.528 247.552 173.483C247.769 172.523 247.959 171.716 248.114 171.067C248.944 167.555 248.944 167.555 248.206 164.374C247.871 162.93 247.412 160.954 246.81 157.767C245.226 149.364 249.844 142.428 255.124 139.281C258.097 137.512 260.898 137.192 262.435 138.448C264.471 140.111 265.974 145.436 266.69 148.462C267.541 152.065 268.203 156.484 267.791 157.069C267.706 157.188 267.568 157.218 267.443 157.142C266.968 156.854 265.247 154.529 262.47 150.733C260.554 148.116 258.191 144.888 257.648 144.449C257.476 144.601 257.075 144.812 256.218 145.256C253.389 146.719 247.503 149.762 247.348 153.51C247.147 158.4 249.744 166.607 249.77 166.689C249.777 166.714 249.779 166.739 249.776 166.764L248.841 173.756C248.835 173.803 248.809 173.845 248.769 173.873C248.741 173.893 248.706 173.903 248.673 173.903Z" fill="#74B570"/>
<path d="M247.4 157.936L247.494 157.81C247.333 156.749 247.218 155.699 247.18 154.726C247.12 156.551 247.4 157.936 247.4 157.936Z" fill="#74B570"/>
<path d="M248.372 149.833C248.001 150.511 247.74 151.233 247.557 151.955C249.359 147.859 257.021 144.886 257.566 144.295L257.669 144.142C255.055 143.06 250.272 146.348 248.372 149.833Z" fill="#74B570"/>
<path d="M267.163 155.592C267.086 155.592 267.016 155.538 266.998 155.46C266.987 155.417 265.998 151.177 264.922 147.664L264.913 147.629C264.271 145.53 263.302 142.359 261.487 140.508C261.145 140.159 259.809 139.519 257.853 139.76C255.439 140.057 251.787 141.733 248.092 148.031C248.045 148.111 247.94 148.138 247.859 148.091C247.779 148.043 247.751 147.939 247.799 147.858C251.565 141.441 255.322 139.728 257.811 139.423C259.818 139.175 261.279 139.811 261.729 140.27C263.601 142.181 264.586 145.4 265.238 147.529L265.249 147.565C266.326 151.088 267.319 155.34 267.328 155.382C267.35 155.474 267.294 155.566 267.202 155.587C267.189 155.59 267.176 155.592 267.163 155.592Z" fill="#74B570"/>
<path d="M261.346 147.898C261.296 147.898 261.245 147.876 261.213 147.833C261.155 147.758 261.168 147.651 261.242 147.593C261.24 147.593 261.534 147.28 261.68 145.744C261.795 144.542 261.711 141.91 260.569 140.558C260.133 140.041 259.577 139.755 258.917 139.707C258.823 139.7 258.753 139.619 258.76 139.524C258.766 139.431 258.85 139.361 258.941 139.367C259.696 139.422 260.331 139.749 260.829 140.338C262.041 141.774 262.147 144.432 262.019 145.776C261.857 147.466 261.518 147.81 261.451 147.862C261.42 147.886 261.382 147.898 261.346 147.898Z" fill="#74B570"/>
<path d="M264.047 151.529C264.036 151.529 264.023 151.527 264.012 151.525C263.919 151.505 263.861 151.415 263.881 151.323C263.89 151.281 264.768 147.158 263.886 144.573C263.855 144.484 263.903 144.388 263.994 144.357C264.083 144.326 264.178 144.374 264.209 144.463C265.12 147.139 264.251 151.222 264.214 151.394C264.196 151.475 264.125 151.529 264.047 151.529Z" fill="#74B570"/>
<path d="M258.244 126.408C258.173 126.408 258.107 126.364 258.084 126.292C258.053 126.204 258.1 126.107 258.191 126.077C258.226 126.064 261.879 124.789 264.318 121.317C264.373 121.239 264.478 121.221 264.557 121.276C264.633 121.329 264.651 121.436 264.598 121.513C262.09 125.078 258.336 126.387 258.298 126.399C258.28 126.406 258.262 126.408 258.244 126.408Z" fill="#74B570"/>
<path d="M255.158 130.494C255.07 130.494 254.998 130.426 254.989 130.337C254.982 130.243 255.052 130.162 255.144 130.154C255.174 130.151 258.073 129.884 261.76 127.567C261.839 127.517 261.944 127.541 261.992 127.62C262.043 127.7 262.02 127.805 261.94 127.855C258.178 130.219 255.293 130.483 255.173 130.493L255.158 130.494Z" fill="#74B570"/>
<path d="M252.9 134.506C252.608 134.506 252.444 134.477 252.423 134.473C252.33 134.455 252.272 134.365 252.288 134.273C252.307 134.18 252.398 134.12 252.489 134.138C252.507 134.141 254.438 134.477 257.834 132.513C257.914 132.465 258.019 132.493 258.065 132.575C258.113 132.656 258.084 132.76 258.004 132.807C255.436 134.294 253.689 134.506 252.9 134.506Z" fill="#74B570"/>
<path d="M273.465 163.203H3.14102C2.79139 163.203 2.50781 162.92 2.50781 162.569C2.50781 162.218 2.79139 161.934 3.14102 161.934H273.465C273.816 161.934 274.099 162.218 274.099 162.569C274.099 162.92 273.816 163.203 273.465 163.203Z" fill="#2E5B9A"/>
<path d="M167.482 140.697C169.877 146.429 172.219 153.231 175.049 160.412C175.407 161.322 176.321 161.887 177.296 161.887H185.817C187.368 161.887 188.529 160.466 188.221 158.945C186.67 151.278 182.466 131.238 180.224 120.86C178.374 112.304 171.805 104.943 163.063 104.943H151.189V125.119C162.812 126.032 164.524 133.623 167.482 140.697Z" fill="#F16C5E"/>
<path d="M108.73 140.697C106.334 146.429 103.993 153.231 101.163 160.412C100.805 161.321 99.8912 161.887 98.9154 161.887H90.3939C88.8446 161.887 87.683 160.466 87.9912 158.945C89.5416 151.278 93.7451 131.238 95.988 120.86C97.8376 112.304 104.406 104.943 113.149 104.943H125.022V125.118C113.401 126.032 111.687 133.623 108.73 140.697Z" fill="#F16C5E"/>
<path d="M167.797 140.566C169.157 143.822 170.502 147.423 171.924 151.234C173.014 154.158 174.142 157.181 175.367 160.288C175.663 161.04 176.44 161.547 177.297 161.547H185.82C186.456 161.547 187.051 161.264 187.455 160.77C187.857 160.278 188.015 159.637 187.888 159.013C186.267 150.993 182.083 131.063 179.894 120.933C178.263 113.395 172.302 105.283 163.065 105.283H151.532V124.806C156.144 125.223 159.604 126.759 162.103 129.495C164.377 131.986 165.664 135.231 166.908 138.369C167.195 139.091 167.493 139.837 167.797 140.566ZM185.82 162.228H177.297C176.162 162.228 175.131 161.549 174.734 160.537C173.508 157.425 172.378 154.399 171.286 151.472C169.867 147.667 168.526 144.073 167.169 140.829C166.862 140.095 166.565 139.345 166.278 138.619C163.755 132.265 161.372 126.262 151.164 125.458C150.987 125.444 150.852 125.297 150.852 125.119V104.943C150.852 104.754 151.003 104.602 151.191 104.602H163.065C167.291 104.602 171.235 106.279 174.468 109.45C177.445 112.371 179.608 116.398 180.557 120.789C182.748 130.921 186.933 150.856 188.555 158.878C188.723 159.703 188.513 160.55 187.98 161.201C187.449 161.854 186.66 162.228 185.82 162.228Z" fill="#3E6BAB"/>
<path d="M113.149 105.283C103.911 105.283 97.9499 113.395 96.3213 120.933C94.1306 131.063 89.9463 150.993 88.3245 159.013C88.1975 159.637 88.3562 160.278 88.7585 160.77C89.162 161.264 89.7582 161.547 90.394 161.547H98.9155C99.7745 161.547 100.55 161.04 100.847 160.288C102.071 157.181 103.199 154.158 104.29 151.234C105.712 147.423 107.056 143.822 108.417 140.566C108.721 139.837 109.018 139.091 109.305 138.369C110.549 135.232 111.837 131.987 114.111 129.495C116.609 126.759 120.069 125.223 124.683 124.807V105.283H113.149ZM98.9155 162.228H90.394C89.553 162.228 88.7654 161.854 88.2327 161.201C87.7 160.55 87.4904 159.703 87.6581 158.878C89.2799 150.856 93.4664 130.921 95.656 120.789C96.6046 116.398 98.7681 112.371 101.747 109.45C104.979 106.279 108.922 104.602 113.149 104.602H125.022C125.21 104.602 125.363 104.755 125.363 104.943V125.119C125.363 125.297 125.226 125.444 125.049 125.458C114.841 126.261 112.459 132.265 109.936 138.62C109.648 139.345 109.351 140.095 109.044 140.829C107.689 144.073 106.347 147.667 104.927 151.472C103.835 154.399 102.705 157.425 101.479 160.538C101.081 161.549 100.051 162.228 98.9155 162.228Z" fill="#3E6BAB"/>
<path d="M155.31 135.215H120.951C116.929 135.215 113.668 131.949 113.668 127.92V85.7014C113.668 81.6723 116.929 78.4066 120.951 78.4066H155.31C159.332 78.4066 162.594 81.6723 162.594 85.7014V127.92C162.594 131.949 159.332 135.215 155.31 135.215Z" fill="#FD8175"/>
<path d="M126.987 134.874H123.61C123.461 132.212 122.492 114.715 122.419 110.187C122.432 110.42 122.461 110.661 122.507 110.91L126.987 134.874ZM122.414 109.675C122.414 109.641 122.415 109.609 122.415 109.578L122.419 109.593C122.417 109.619 122.415 109.648 122.414 109.675Z" fill="#79B2E4"/>
<path d="M151.729 85.873H124.528C123.367 85.873 122.418 84.9207 122.418 83.7584V83.4415C122.418 82.2785 123.367 81.3272 124.528 81.3272H151.729C152.889 81.3272 153.84 82.2785 153.84 83.4415V83.7584C153.84 84.9207 152.889 85.873 151.729 85.873Z" fill="#63ACC2"/>
<path d="M158.892 119.479C157.648 119.479 156.629 118.458 156.629 117.212V98.8613C156.629 97.6139 157.648 96.5946 158.892 96.5946C160.137 96.5946 161.156 97.6139 161.156 98.8613V117.212C161.156 118.458 160.137 119.479 158.892 119.479Z" fill="#D9EDFC"/>
<path d="M156.63 58.1225C156.63 47.8902 148.348 39.5949 138.129 39.5949C127.911 39.5949 119.629 47.8902 119.629 58.1225C119.629 62.104 120.882 65.7903 123.015 68.8097C125.543 72.3883 126.948 75.9044 126.948 80.2866V84.3591C126.948 84.8108 127.316 85.1797 127.768 85.1797H148.491C148.942 85.1797 149.311 84.8108 149.311 84.3591V80.2866C149.311 75.9044 150.715 72.3883 153.242 68.8097C155.376 65.7903 156.63 62.104 156.63 58.1225Z" fill="#FFDB73"/>
<path d="M134.035 85.2607C133.743 85.2607 133.496 85.0372 133.471 84.7421C133.457 84.5809 132.009 68.5672 124.686 63.975C124.421 63.8081 124.34 63.4585 124.507 63.1929C124.672 62.9274 125.022 62.8468 125.288 63.0125C128.584 65.0805 131.155 69.3628 132.926 75.7415C134.232 80.4381 134.597 84.6036 134.6 84.6456C134.626 84.9577 134.395 85.2324 134.083 85.2585C134.068 85.2596 134.051 85.2607 134.035 85.2607Z" fill="#94BDF2"/>
<path d="M142.045 85.2607C141.75 85.2607 141.5 85.0315 141.48 84.7318C141.473 84.6217 141.308 81.9817 142.375 77.9809C143.354 74.3114 145.608 68.7522 150.783 63.1101C150.995 62.8785 151.354 62.8638 151.584 63.076C151.814 63.2883 151.83 63.6469 151.618 63.8773C142.026 74.3352 142.604 84.5525 142.611 84.6547C142.633 84.9668 142.397 85.238 142.084 85.2596C142.072 85.2607 142.058 85.2607 142.045 85.2607Z" fill="#94BDF2"/>
<path d="M127.256 56.2882C126.712 56.2882 126.24 56.3903 125.857 56.6185C125.046 57.0997 124.625 58.2222 124.61 59.9565C124.593 61.7918 125.013 62.9824 125.856 63.4943C127.876 64.7201 132.51 62.4319 136.87 60.1177C133.227 58.1644 129.583 56.2882 127.256 56.2882ZM139.275 60.1211C143.768 62.5239 148.216 64.7405 150.296 63.5125C151.169 62.9972 151.623 61.7963 151.647 59.944C151.67 58.1893 151.274 57.052 150.473 56.564C148.46 55.3371 143.862 57.6763 139.275 60.1211ZM148.828 64.9902C146.03 64.9902 142.153 62.9552 138.072 60.7635C133.974 62.9495 130.083 64.9732 127.307 64.9732C126.535 64.9732 125.849 64.8166 125.269 64.4647C124.043 63.7202 123.457 62.2424 123.477 59.9463C123.496 57.7569 124.086 56.3495 125.28 55.6412C127.953 54.0556 132.862 56.6741 138.073 59.4753C143.389 56.6378 148.401 53.9717 151.064 55.5947C152.247 56.3166 152.809 57.7444 152.781 59.9588C152.751 62.2674 152.127 63.7497 150.872 64.4897C150.285 64.837 149.596 64.9902 148.828 64.9902Z" fill="#94BDF2"/>
<path d="M156.287 95.2988H119.97C117.205 95.2988 114.856 94.6689 114.006 92.6634V88.9723C114.856 91.4535 117.205 93.2353 119.97 93.2353H156.287C159.051 93.2353 161.401 91.4524 162.251 88.9723V91.0346C161.401 93.5158 159.051 95.2988 156.287 95.2988Z" fill="#7ABEDF"/>
<path d="M162.251 83.4922C161.317 80.5436 158.561 78.4069 155.307 78.4069H149.401C149.747 74.8688 151.085 71.863 153.241 68.8107C154.103 67.5922 154.82 66.2652 155.37 64.8547C157.911 63.5086 160.001 62.265 161.722 61.1324C162.072 63.4085 162.251 65.7298 162.251 68.0811V83.4922ZM114.006 83.4918V68.0811C114.006 51.2137 123.244 35.8712 138.129 27.9985C139.493 28.721 140.81 29.5044 142.076 30.3473C141.684 33.3555 141.016 36.5747 140.144 39.7044C139.483 39.6329 138.81 39.5959 138.129 39.5959C127.91 39.5959 119.628 47.8907 119.628 58.1242C119.628 62.1041 120.881 65.7919 123.015 68.8107C125.171 71.863 126.51 74.8688 126.857 78.4069H120.949C117.695 78.4069 114.94 80.5434 114.006 83.4918ZM152.807 46.8439C151.491 45.1306 149.885 43.6545 148.061 42.4896C148.857 40.5796 149.542 38.815 150.135 37.1887C151.623 38.7852 152.989 40.4854 154.224 42.2714C153.899 43.831 153.419 45.3607 152.807 46.8439Z" fill="#FF9E95"/>
<path d="M156.287 93.2363H119.97C117.205 93.2363 114.856 91.4544 114.006 88.9733V83.4925C114.94 80.5441 117.695 78.4076 120.949 78.4076H126.857C126.916 79.0176 126.947 79.6438 126.947 80.2885V81.3278H124.529C123.367 81.3278 122.417 82.2793 122.417 83.4422V83.7591C122.417 84.9214 123.367 85.8737 124.529 85.8737H151.728C152.889 85.8737 153.84 84.9214 153.84 83.7591V83.4422C153.84 82.2793 152.889 81.3278 151.728 81.3278H149.31V80.2885C149.31 79.6438 149.34 79.0176 149.401 78.4076H155.307C158.561 78.4076 161.317 80.5444 162.251 83.4929V88.9733C161.401 91.4534 159.051 93.2363 156.287 93.2363Z" fill="#92D1FC"/>
<path d="M151.729 85.873H124.528C123.367 85.873 122.418 84.9207 122.418 83.7584V83.4415C122.418 82.2785 123.367 81.3272 124.528 81.3272H126.948V84.36C126.948 84.8118 127.315 85.1807 127.766 85.1807H133.742C133.828 85.2317 133.928 85.2612 134.033 85.2612C134.049 85.2612 134.066 85.2601 134.082 85.2589C134.171 85.2522 134.253 85.2238 134.326 85.1807H141.754C141.839 85.2317 141.938 85.2612 142.044 85.2612C142.057 85.2612 142.07 85.2612 142.083 85.2601C142.176 85.2532 142.261 85.2249 142.336 85.1807H148.491C148.942 85.1807 149.311 84.8118 149.311 84.36V81.3272H151.729C152.889 81.3272 153.84 82.2785 153.84 83.4415V83.7584C153.84 84.9207 152.889 85.873 151.729 85.873Z" fill="#68B0C8"/>
<path d="M148.491 85.1807H142.336C142.513 85.0739 142.625 84.8753 142.61 84.6551C142.605 84.5655 142.163 76.7479 148.457 67.7974C150.289 67.2408 152.108 66.5324 153.841 65.6491C154.368 65.3812 154.878 65.1155 155.371 64.8545C154.821 66.2656 154.104 67.5927 153.243 68.8117C151.086 71.8627 149.748 74.8688 149.402 78.4074C149.341 79.0169 149.311 79.6437 149.311 80.2877V81.3273V84.36C149.311 84.8117 148.942 85.1807 148.491 85.1807ZM141.754 85.1807H134.326C134.504 85.0728 134.618 84.8685 134.599 84.646C134.595 84.604 134.231 80.4383 132.925 75.7417C132.099 72.7654 131.098 70.2458 129.931 68.1941C130.992 68.9807 133.657 69.4994 137.083 69.4994C139.946 69.4994 143.341 69.1371 146.772 68.2654C144.336 72.0087 143.051 75.4461 142.375 77.9819C141.307 81.9817 141.472 84.6222 141.479 84.7324C141.493 84.9253 141.601 85.0887 141.754 85.1807ZM133.743 85.1807H127.767C127.316 85.1807 126.948 84.8117 126.948 84.36V81.3273V80.2877C126.948 79.6437 126.917 79.0169 126.858 78.4074C126.511 74.8688 125.172 71.8627 123.015 68.8117C120.882 65.7917 119.629 62.1048 119.629 58.1234C119.629 47.8906 127.911 39.5955 138.13 39.5955C138.811 39.5955 139.483 39.6323 140.145 39.7048C138.153 46.8682 135.105 53.5648 131.896 56.1753C131.84 56.2213 131.786 56.2662 131.733 56.3099C130.055 55.6095 128.524 55.1622 127.238 55.1622C126.499 55.1622 125.84 55.3105 125.281 55.6429C124.087 56.3501 123.496 57.7589 123.478 59.9474C123.457 62.2439 124.043 63.7217 125.269 64.4658C125.384 64.5359 125.503 64.598 125.627 64.6521C132.134 69.9594 133.457 84.5882 133.47 84.7425C133.486 84.931 133.593 85.0898 133.743 85.1807ZM129.434 67.365C128.863 66.4611 128.255 65.6606 127.612 64.966C130.365 64.828 134.122 62.8719 138.072 60.7639C138.744 61.125 139.409 61.4815 140.066 61.8253C137.902 63.2088 135.652 64.276 133.427 64.9534C130.672 65.7917 129.477 66.6359 129.434 67.365ZM127.297 63.8379C126.892 63.8379 126.527 63.7827 126.209 63.6642C125.933 63.4469 125.651 63.2468 125.365 63.0628C124.852 62.4326 124.598 61.3918 124.61 59.9577C124.625 58.2235 125.046 57.1011 125.857 56.6192C126.241 56.3915 126.712 56.2892 127.256 56.2892C128.246 56.2892 129.472 56.6284 130.838 57.1689C129.963 58.1694 130.211 58.6961 131.168 58.6961C131.677 58.6961 132.389 58.5466 133.239 58.2396C134.416 58.8111 135.643 59.4609 136.87 60.1187C133.351 61.9863 129.654 63.8379 127.297 63.8379ZM141.142 61.1054C140.525 60.7869 139.9 60.4568 139.275 60.1222C141.678 58.8422 144.081 57.591 146.117 56.8653C144.572 58.4558 142.894 59.883 141.142 61.1054ZM138.073 59.477C136.9 58.8456 135.74 58.2235 134.619 57.6565C138.612 55.7418 144.417 51.1152 147.756 43.2181C147.861 42.9731 147.962 42.7305 148.062 42.4901C149.886 43.6551 151.493 45.1306 152.808 46.8441C151.548 49.8951 149.731 52.7517 147.569 55.2749C144.919 55.8257 141.562 57.614 138.073 59.477Z" fill="#FBC508"/>
<path d="M134.034 85.2607C133.929 85.2607 133.829 85.2312 133.744 85.1802C133.593 85.0894 133.487 84.9305 133.471 84.7421C133.457 84.5877 132.135 69.9587 125.627 64.6514C126.126 64.8739 126.689 64.9738 127.308 64.9738C127.408 64.9738 127.51 64.9715 127.613 64.9658C128.256 65.6604 128.864 66.4606 129.435 67.3652C129.418 67.6626 129.593 67.9418 129.931 68.1938C131.099 70.2447 132.099 72.7644 132.926 75.7415C134.231 80.4381 134.596 84.6036 134.6 84.6456C134.619 84.868 134.506 85.0723 134.326 85.1802C134.254 85.2233 134.172 85.2517 134.083 85.2585C134.067 85.2596 134.05 85.2607 134.034 85.2607ZM126.21 63.664C126.085 63.6174 125.967 63.5618 125.857 63.4949C125.674 63.3825 125.509 63.2383 125.365 63.0624C125.652 63.2463 125.934 63.4472 126.21 63.664Z" fill="#94BFF3"/>
<path d="M142.045 85.2607C141.939 85.2607 141.84 85.2312 141.754 85.1802C141.601 85.0882 141.494 84.9248 141.48 84.7318C141.473 84.6217 141.308 81.9817 142.375 77.9809C143.052 75.4453 144.337 72.0085 146.773 68.2653C147.334 68.1223 147.896 67.9668 148.457 67.7965C142.163 76.7471 142.605 84.565 142.611 84.6547C142.626 84.8748 142.513 85.0735 142.337 85.1802C142.262 85.2244 142.177 85.2528 142.084 85.2596C142.072 85.2607 142.058 85.2607 142.045 85.2607Z" fill="#94BFF3"/>
<path d="M127.307 64.9746C126.688 64.9746 126.125 64.8747 125.626 64.6523C125.502 64.5978 125.383 64.5365 125.269 64.4661C124.043 63.7216 123.457 62.2438 123.477 59.9477C123.496 57.7583 124.086 56.3509 125.28 55.6426C125.84 55.3101 126.499 55.1625 127.237 55.1625C128.524 55.1625 130.054 55.6097 131.733 56.31C131.357 56.6267 131.06 56.9127 130.837 57.1692C129.472 56.629 128.245 56.2896 127.256 56.2896C126.712 56.2896 126.24 56.3917 125.857 56.6199C125.046 57.1011 124.625 58.2236 124.61 59.9579C124.597 61.3926 124.851 62.4333 125.364 63.0633C125.508 63.2392 125.672 63.3833 125.856 63.4957C125.966 63.5627 126.084 63.6183 126.208 63.6648C126.527 63.7829 126.892 63.8373 127.296 63.8373C129.654 63.8385 133.351 61.9862 136.87 60.1191C135.643 59.4608 134.416 58.8116 133.239 58.2395C133.666 58.0863 134.129 57.8922 134.619 57.6573C135.74 58.2236 136.899 58.8456 138.073 59.4767C141.562 57.6141 144.919 55.8265 147.568 55.2749C147.099 55.822 146.615 56.352 146.117 56.8662C144.081 57.5914 141.677 58.8422 139.275 60.1225C139.9 60.4562 140.525 60.7876 141.141 61.1054C140.787 61.354 140.426 61.5946 140.066 61.825C139.408 61.4811 138.743 61.1247 138.072 60.7649C134.121 62.8726 130.364 64.8282 127.611 64.9667C127.508 64.9723 127.406 64.9746 127.307 64.9746Z" fill="#94BFF3"/>
<path d="M131.583 93.5762H128.711C128.524 93.5762 128.371 93.4241 128.371 93.2357C128.371 93.0484 128.524 92.8952 128.711 92.8952H131.583C131.77 92.8952 131.923 93.0484 131.923 93.2357C131.923 93.4241 131.77 93.5762 131.583 93.5762Z" fill="#3E6BAB"/>
<path d="M125.022 93.5762H119.971C116.307 93.5762 113.326 90.5911 113.326 86.9217V79.0425C113.326 78.8541 113.478 78.702 113.666 78.702C113.854 78.702 114.006 78.8541 114.006 79.0425V86.9217C114.006 90.2154 116.682 92.8952 119.971 92.8952H125.022C125.209 92.8952 125.362 93.0484 125.362 93.2357C125.362 93.4241 125.209 93.5762 125.022 93.5762Z" fill="#3E6BAB"/>
<path d="M146.239 93.5762H136.266C136.078 93.5762 135.926 93.4241 135.926 93.2357C135.926 93.0484 136.078 92.8952 136.266 92.8952H146.239C146.427 92.8952 146.579 93.0484 146.579 93.2357C146.579 93.4241 146.427 93.5762 146.239 93.5762Z" fill="#3E6BAB"/>
<path d="M138.131 27.9972C123.247 35.87 114.008 51.2126 114.008 68.0794V127.919C114.008 131.754 117.124 134.874 120.952 134.874H155.311C159.139 134.874 162.255 131.754 162.255 127.919V68.0794C162.255 51.2126 153.015 35.87 138.131 27.9972ZM155.311 135.555H120.952C116.749 135.555 113.328 132.129 113.328 127.919V68.0794C113.328 59.6777 115.626 51.4387 119.97 44.2514C124.315 37.0641 130.541 31.2062 137.974 27.3116C138.072 27.259 138.19 27.259 138.288 27.3116C145.722 31.2062 151.948 37.0641 156.293 44.2514C160.637 51.4387 162.934 59.6777 162.934 68.0794V127.919C162.934 132.129 159.514 135.555 155.311 135.555Z" fill="#3E6BAB"/>
<path d="M155.372 64.8545C156.185 62.7677 156.631 60.4978 156.631 58.1233C156.631 53.8784 155.205 49.9676 152.809 46.8428C153.42 45.36 153.901 43.8309 154.226 42.2709C158.086 47.8523 160.673 54.285 161.724 61.1316C160.004 62.2647 157.913 63.5085 155.372 64.8545Z" fill="url(#paint0_linear_18824_171275)"/>
<path d="M137.084 69.499C133.657 69.4979 130.993 68.9792 129.931 68.1931C129.77 67.9083 129.604 67.6316 129.436 67.3653C129.478 66.6347 130.673 65.7907 133.427 64.9525C135.653 64.2752 137.904 63.2078 140.067 61.8243C143.4 63.5701 146.492 64.9907 148.828 64.9907C148.943 64.9907 149.056 64.9872 149.167 64.9803C148.265 66.0917 147.472 67.1904 146.773 68.2648C143.341 69.1366 139.946 69.499 137.084 69.499ZM148.457 67.796C149.334 66.5514 150.338 65.2848 151.493 64.0136C152.335 63.1858 152.757 61.8497 152.782 59.9591C152.81 57.7443 152.248 56.3168 151.065 55.5955C150.504 55.254 149.84 55.1023 149.091 55.1023C148.616 55.1023 148.107 55.1625 147.569 55.2748C149.732 52.7509 151.549 49.8947 152.808 46.8429C155.205 49.9665 156.631 53.8786 156.631 58.1229C156.631 60.4975 156.186 62.7678 155.372 64.8541C154.878 65.1146 154.368 65.3797 153.841 65.6495C152.108 66.5317 150.29 67.2402 148.457 67.796ZM148.815 63.8619C146.874 63.8619 144.089 62.6243 141.143 61.1053C142.894 59.8827 144.573 58.4552 146.117 56.8644C147.233 56.4673 148.238 56.2277 149.07 56.2277C149.619 56.2277 150.093 56.3319 150.475 56.5646C151.276 57.0531 151.671 58.1901 151.648 59.9452C151.625 61.7976 151.171 62.9971 150.298 63.5123C149.889 63.7542 149.389 63.8619 148.815 63.8619Z" fill="#FFD43C"/>
<path d="M129.931 68.1943C129.592 67.9424 129.418 67.6632 129.435 67.3658C129.604 67.6325 129.769 67.9095 129.931 68.1943Z" fill="url(#paint1_linear_18824_171275)"/>
<path d="M146.771 68.2656C147.471 67.1908 148.264 66.0921 149.166 64.9809C149.8 64.9412 150.372 64.7857 150.872 64.4906C151.1 64.3567 151.306 64.1978 151.492 64.0139C150.337 65.2851 149.332 66.5518 148.456 67.7969C147.895 67.9671 147.332 68.1226 146.771 68.2656Z" fill="url(#paint2_linear_18824_171275)"/>
<path d="M148.828 64.9902C146.491 64.9902 143.4 63.5703 140.066 61.8236C140.427 61.5932 140.787 61.3526 141.142 61.104C144.089 62.6238 146.873 63.862 148.813 63.862C149.388 63.862 149.888 63.7531 150.297 63.5125C151.17 62.9972 151.624 61.7963 151.648 59.944C151.671 58.1893 151.275 57.052 150.474 56.564C150.093 56.3313 149.618 56.2269 149.07 56.2269C148.237 56.2269 147.232 56.4664 146.117 56.8648C146.616 56.3506 147.1 55.8206 147.569 55.2735C148.106 55.1623 148.615 55.101 149.09 55.101C149.839 55.101 150.503 55.2531 151.064 55.5947C152.247 56.3166 152.81 57.7444 152.781 59.9588C152.756 61.8486 152.334 63.1844 151.493 64.013C151.307 64.1969 151.101 64.3558 150.873 64.4897C150.373 64.7848 149.801 64.9403 149.167 64.98C149.056 64.9868 148.943 64.9902 148.828 64.9902Z" fill="url(#paint3_linear_18824_171275)"/>
<path d="M161.724 61.1328C160.672 54.2849 158.085 47.8515 154.225 42.272C154.256 42.1267 154.284 41.9826 154.311 41.8373C158.267 47.4811 160.934 54.0015 162.03 60.9292C161.929 60.9959 161.826 61.0637 161.724 61.1328Z" fill="url(#paint4_linear_18824_171275)"/>
<path d="M148.063 42.4902C145.728 40.9988 143.036 40.0182 140.146 39.7049C141.017 36.5746 141.686 33.3558 142.078 30.348C145.053 32.3263 147.751 34.6269 150.137 37.1886C149.544 38.8151 148.858 40.5789 148.063 42.4902Z" fill="url(#paint5_linear_18824_171275)"/>
<path d="M131.168 58.6963C130.211 58.6952 129.963 58.1685 130.838 57.1686C131.601 57.4705 132.407 57.836 133.239 58.2389C132.389 58.5465 131.677 58.6963 131.168 58.6963ZM134.619 57.6566C133.623 57.1527 132.657 56.693 131.734 56.3094C131.786 56.2651 131.841 56.2209 131.896 56.1755C135.105 53.565 138.153 46.8685 140.146 39.7043C143.036 40.0176 145.727 40.9982 148.062 42.4896C147.962 42.7303 147.86 42.9732 147.756 43.2183C144.417 51.1145 138.612 55.7419 134.619 57.6566Z" fill="#FFD43C"/>
<path d="M133.239 58.2383C132.408 57.8354 131.602 57.4699 130.838 57.168C131.061 56.9115 131.358 56.6254 131.734 56.3088C132.657 56.6924 133.624 57.1521 134.62 57.656C134.13 57.891 133.667 58.0851 133.239 58.2383Z" fill="url(#paint6_linear_18824_171275)"/>
<path d="M150.135 37.1875C147.75 34.6258 145.051 32.3252 142.076 30.3468C142.093 30.222 142.109 30.0971 142.124 29.9734C145.123 31.9563 147.847 34.2683 150.259 36.8459C150.218 36.9594 150.177 37.0729 150.135 37.1875Z" fill="url(#paint7_linear_18824_171275)"/>
<path d="M143.041 161.887H133.219C132.76 161.887 132.338 161.64 132.281 161.334L122.842 110.846C122.441 108.673 123.423 107.208 124.429 106.809C130.801 104.29 145.459 104.29 151.829 106.809C152.837 107.208 153.819 108.673 153.418 110.846L143.978 161.334C143.921 161.64 143.5 161.887 143.041 161.887Z" fill="#F16C5E"/>
<path d="M138.131 105.261C132.583 105.261 127.508 105.959 124.556 107.127C123.785 107.431 122.784 108.657 123.177 110.785L132.615 161.271C132.634 161.368 132.878 161.547 133.22 161.547H143.042C143.384 161.547 143.626 161.368 143.644 161.272L153.083 110.784C153.477 108.657 152.475 107.431 151.706 107.127C148.751 105.959 143.677 105.261 138.131 105.261ZM143.042 162.228H133.22C132.582 162.228 132.036 161.87 131.948 161.396L122.509 110.91C122.09 108.642 123.095 106.972 124.305 106.493C130.765 103.938 145.495 103.938 151.956 106.493C153.165 106.972 154.17 108.642 153.752 110.908L144.313 161.397C144.226 161.87 143.678 162.228 143.042 162.228Z" fill="#3E6BAB"/>
<path d="M143.406 143.1C141.979 143.1 140.813 141.608 140.779 139.738L140.28 112.747C140.245 110.812 141.432 109.219 142.907 109.219H146.984C148.615 109.219 149.851 111.147 149.572 113.254L145.994 140.245C145.776 141.895 144.683 143.1 143.406 143.1Z" fill="#FD8175"/>
<path d="M159.762 100.018C159.762 100.498 159.372 100.889 158.893 100.889C158.413 100.889 158.025 100.498 158.025 100.018C158.025 99.5381 158.413 99.1487 158.893 99.1487C159.372 99.1487 159.762 99.5381 159.762 100.018Z" fill="#F5CE5C"/>
<path d="M159.762 104.05C159.762 104.531 159.372 104.92 158.893 104.92C158.413 104.92 158.025 104.531 158.025 104.05C158.025 103.569 158.413 103.18 158.893 103.18C159.372 103.18 159.762 103.569 159.762 104.05Z" fill="#F5CE5C"/>
<path d="M159.762 108.081C159.762 108.561 159.372 108.95 158.893 108.95C158.413 108.95 158.025 108.561 158.025 108.081C158.025 107.601 158.413 107.21 158.893 107.21C159.372 107.21 159.762 107.601 159.762 108.081Z" fill="#F39892"/>
<path d="M159.762 112.112C159.762 112.593 159.372 112.982 158.893 112.982C158.413 112.982 158.025 112.593 158.025 112.112C158.025 111.632 158.413 111.242 158.893 111.242C159.372 111.242 159.762 111.632 159.762 112.112Z" fill="#F39892"/>
<path d="M159.762 116.142C159.762 116.622 159.372 117.012 158.893 117.012C158.413 117.012 158.025 116.622 158.025 116.142C158.025 115.661 158.413 115.272 158.893 115.272C159.372 115.272 159.762 115.661 159.762 116.142Z" fill="#F39892"/>
<path d="M191.919 58.9209L189.485 55.153C188.774 55.2345 188.052 55.2776 187.32 55.2776C186.247 55.2776 185.194 55.1863 184.17 55.0136L181.54 58.6471C180.253 58.3129 179.012 57.8695 177.824 57.3278L178.066 52.8479C176.511 51.9679 175.093 50.873 173.85 49.6034L169.593 50.9946C168.759 49.9789 168.01 48.8899 167.358 47.739L170.18 44.2603C169.449 42.6644 168.935 40.9495 168.672 39.1528L164.415 37.7726C164.388 37.319 164.373 36.8624 164.373 36.4013C164.373 35.5298 164.424 34.6686 164.519 33.8223L168.842 32.6697C169.198 30.8938 169.803 29.2072 170.619 27.6486L167.983 24.0255C168.695 22.9115 169.501 21.8644 170.388 20.8932L174.565 22.5069C175.869 21.3052 177.343 20.2864 178.945 19.4892L178.941 15.002C180.154 14.5261 181.418 14.1483 182.722 13.8836L185.156 17.6509C185.867 17.5706 186.589 17.526 187.32 17.526C188.395 17.526 189.448 17.6182 190.471 17.7907L193.1 14.1572C194.386 14.4919 195.629 14.9351 196.817 15.4764L196.575 19.9562C198.131 20.8367 199.548 21.9314 200.79 23.2015L205.047 21.8094C205.882 22.8252 206.631 23.9139 207.284 25.0651L204.461 28.5439C205.192 30.1398 205.705 31.8546 205.968 33.6513L210.226 35.0315C210.251 35.4852 210.268 35.9418 210.268 36.4013C210.268 37.2744 210.217 38.1355 210.122 38.9818L205.799 40.1345C205.443 41.9118 204.838 43.5969 204.021 45.1556L206.657 48.7794C205.946 49.893 205.141 50.9403 204.251 51.9117L200.075 50.2977C198.771 51.4988 197.298 52.5176 195.696 53.3152L195.7 57.8018C194.487 58.2788 193.223 58.6554 191.919 58.9209ZM187.32 27.3883C182.35 27.3883 178.32 31.4248 178.32 36.4013C178.32 41.3808 182.35 45.4159 187.32 45.4159C192.29 45.4159 196.321 41.3808 196.321 36.4013C196.321 31.4248 192.29 27.3883 187.32 27.3883Z" fill="#FBC508"/>
<path d="M199.597 46.9141C199.468 46.9141 199.339 46.8707 199.234 46.7824C198.992 46.5826 198.961 46.2237 199.16 45.9835C201.387 43.3003 202.615 39.8978 202.615 36.4027C202.615 34.7297 202.341 33.0856 201.802 31.5182C201.701 31.2215 201.858 30.8988 202.154 30.7975C202.449 30.6947 202.771 30.8525 202.874 31.1492C203.454 32.8352 203.748 34.6023 203.748 36.4027C203.748 40.1626 202.428 43.8227 200.032 46.7086C199.919 46.8446 199.758 46.9141 199.597 46.9141Z" fill="white"/>
<path d="M198.292 25.6387C198.154 25.6387 198.013 25.5876 197.904 25.4842C196.408 24.0722 194.673 23.002 192.751 22.3045C192.456 22.1968 192.305 21.8708 192.411 21.5773C192.517 21.2825 192.844 21.1294 193.137 21.2371C195.205 21.9884 197.071 23.1395 198.682 24.6577C198.909 24.8732 198.919 25.2318 198.706 25.46C198.594 25.5791 198.444 25.6387 198.292 25.6387Z" fill="white"/>
<path d="M183.83 21.8828C183.576 21.8828 183.345 21.7111 183.282 21.4543C183.203 21.1501 183.388 20.8419 183.692 20.7649C184.977 20.4405 186.307 20.2755 187.644 20.2755C187.957 20.2755 188.211 20.5297 188.211 20.8433C188.211 21.1569 187.957 21.4097 187.644 21.4097C186.4 21.4097 185.163 21.5638 183.969 21.8652C183.923 21.8774 183.876 21.8828 183.83 21.8828Z" fill="white"/>
<path d="M88.0946 67.21C87.6832 67.21 87.2741 67.1952 86.8672 67.1657L85.888 63.9968C84.5835 63.7868 83.3199 63.3918 82.1344 62.83L79.5386 64.8889C78.6999 64.3986 77.9021 63.8356 77.1548 63.2057L78.221 60.0685C77.3058 59.1503 76.5097 58.0936 75.8676 56.9144L72.5628 57.0517C72.4282 56.7441 72.3007 56.4309 72.1828 56.1119C71.9594 55.507 71.7739 54.8975 71.6225 54.2857L74.325 52.3766C74.1167 51.0532 74.1047 49.7287 74.2713 48.4393L71.5156 46.604C71.7242 45.6484 72.0146 44.7154 72.3813 43.8142L75.6906 43.8607C76.2872 42.6928 77.0479 41.6078 77.955 40.643L76.8022 37.5342C77.5214 36.8918 78.3012 36.3062 79.1375 35.7863L81.7899 37.7737C82.2613 37.5354 82.7509 37.3197 83.2587 37.1313C84.0033 36.8555 84.7558 36.649 85.5106 36.5048L86.4025 33.3109C86.9669 33.2542 87.5302 33.2258 88.0901 33.2258C88.5015 33.2258 88.9106 33.2417 89.3175 33.2712L90.2967 36.439C91.6011 36.6501 92.8648 37.0451 94.0503 37.6058L96.6456 35.548C97.4843 36.0372 98.2821 36.6001 99.0301 37.2301L97.9637 40.3672C98.8783 41.2866 99.675 42.3432 100.316 43.5214L103.621 43.3852C103.756 43.6928 103.884 44.0049 104.002 44.325C104.225 44.9288 104.41 45.5383 104.562 46.15L101.859 48.0602C102.067 49.3825 102.08 50.7071 101.913 51.9976L104.668 53.8328C104.46 54.7874 104.17 55.7204 103.803 56.6227L100.494 56.5761C99.8971 57.7441 99.1367 58.8291 98.23 59.7939L99.3826 62.9026C98.6629 63.545 97.8832 64.1307 97.0468 64.6494L94.3948 62.6631C93.9233 62.9015 93.4337 63.1171 92.926 63.3044C92.1814 63.5802 91.4289 63.7879 90.6741 63.9309L89.781 67.126C89.2177 67.1827 88.6545 67.21 88.0946 67.21ZM88.0912 43.5532C87.3251 43.5532 86.5453 43.6871 85.7837 43.9697C82.3373 45.2454 80.5774 49.0783 81.8522 52.5299C82.8461 55.2187 85.3882 56.8826 88.0935 56.8826C88.8596 56.8826 89.6393 56.7498 90.4009 56.4672C93.8463 55.1903 95.6075 51.3586 94.3325 47.907C93.3385 45.2171 90.7965 43.5532 88.0912 43.5532Z" fill="#FBC508"/>
<path d="M99.1502 54.5264C99.0879 54.5264 99.0244 54.5162 98.9621 54.4946C98.6663 54.3902 98.5121 54.0656 98.6164 53.7705C99.4619 51.3699 99.4415 48.7322 98.5586 46.3419C98.1359 45.1955 97.5329 44.1411 96.7691 43.2059C96.5707 42.963 96.6059 42.6055 96.8484 42.4068C97.0898 42.2082 97.4468 42.2445 97.6451 42.4863C98.4895 43.5191 99.1547 44.6837 99.6217 45.948C100.596 48.5869 100.619 51.4993 99.6851 54.1473C99.6024 54.3811 99.3837 54.5264 99.1502 54.5264Z" fill="white"/>
<path d="M92.7981 40.1113C92.7245 40.1113 92.6485 40.0966 92.5771 40.0659C91.1956 39.4803 89.7404 39.1863 88.2478 39.1965C87.9327 39.1965 87.68 38.9446 87.6777 38.6324C87.6755 38.3192 87.9282 38.0638 88.241 38.0615C89.8889 38.0502 91.4959 38.3737 93.0191 39.0206C93.307 39.1432 93.4419 39.4769 93.3195 39.7652C93.2277 39.9808 93.018 40.1113 92.7981 40.1113Z" fill="white"/>
<path d="M81.8097 41.2217C81.6284 41.2217 81.4515 41.1354 81.3417 40.9754C81.1647 40.7166 81.2302 40.3636 81.4881 40.1866C82.3061 39.6236 83.1969 39.1628 84.1353 38.8143C84.43 38.7054 84.7552 38.8563 84.864 39.1503C84.9728 39.4443 84.8221 39.77 84.5297 39.879C83.6775 40.1945 82.8705 40.6122 82.1293 41.1218C82.0319 41.1888 81.9197 41.2217 81.8097 41.2217Z" fill="white"/>
<path d="M217.457 80.3867L215.652 77.5916C215.125 77.652 214.588 77.684 214.046 77.684C213.249 77.684 212.469 77.6165 211.709 77.4883L209.758 80.1835C208.804 79.9358 207.882 79.6068 207.001 79.2049L207.18 75.8819C206.026 75.229 204.974 74.4168 204.053 73.4749L200.896 74.5069C200.276 73.7535 199.722 72.9456 199.236 72.0922L201.331 69.5116C200.789 68.328 200.407 67.0556 200.212 65.7222L197.054 64.699C197.035 64.3625 197.023 64.0236 197.023 63.6822C197.023 63.0348 197.061 62.3965 197.13 61.7681L200.338 60.9134C200.602 59.5955 201.05 58.3449 201.655 57.1888L199.701 54.5006C200.23 53.6743 200.826 52.8975 201.484 52.177L204.584 53.3743C205.552 52.4834 206.643 51.7275 207.834 51.1357L207.829 47.8076C208.729 47.4538 209.667 47.1745 210.635 46.9773L212.44 49.7726C212.967 49.7122 213.502 49.6802 214.046 49.6802C214.843 49.6802 215.623 49.7479 216.383 49.8759L218.333 47.1807C219.287 47.4286 220.208 47.7574 221.09 48.1592L220.911 51.4825C222.064 52.1351 223.117 52.9474 224.037 53.8893L227.196 52.8573C227.814 53.6107 228.37 54.4186 228.856 55.272L226.761 57.8526C227.303 59.0362 227.685 60.3085 227.878 61.642L231.036 62.6653C231.057 63.0017 231.068 63.3406 231.068 63.6822C231.068 64.3293 231.031 64.9676 230.96 65.5961L227.753 66.4508C227.49 67.7687 227.04 69.0193 226.435 70.1754L228.39 72.8637C227.862 73.6897 227.265 74.4667 226.606 75.1872L223.508 73.9899C222.54 74.881 221.447 75.6367 220.258 76.2283L220.261 79.5566C219.361 79.9104 218.424 80.1897 217.457 80.3867ZM214.046 56.9958C210.358 56.9958 207.369 59.9894 207.369 63.6822C207.369 67.3748 210.358 70.3684 214.046 70.3684C217.734 70.3684 220.723 67.3748 220.723 63.6822C220.723 59.9894 217.734 56.9958 214.046 56.9958Z" fill="#FBC508"/>
<path d="M223.151 71.627C223.023 71.627 222.894 71.584 222.788 71.4959C222.547 71.2954 222.516 70.9376 222.714 70.6966C224.345 68.7328 225.243 66.2423 225.243 63.6836C225.243 62.4582 225.044 61.255 224.649 60.1078C224.546 59.8113 224.705 59.4885 225.001 59.3864C225.296 59.2844 225.619 59.4417 225.722 59.7382C226.156 61.0047 226.377 62.332 226.377 63.6836C226.377 66.5069 225.386 69.2551 223.586 71.4223C223.476 71.5573 223.312 71.627 223.151 71.627Z" fill="white"/>
<path d="M222.187 55.8438C222.048 55.8438 221.907 55.7927 221.798 55.6895C220.701 54.6561 219.433 53.8728 218.025 53.3614C217.732 53.2545 217.58 52.9292 217.686 52.6344C217.792 52.3397 218.117 52.1878 218.411 52.2945C219.965 52.8589 221.367 53.7231 222.576 54.8632C222.802 55.078 222.813 55.4372 222.599 55.6654C222.488 55.784 222.337 55.8438 222.187 55.8438Z" fill="white"/>
<path d="M211.455 53.0586C211.202 53.0586 210.972 52.8872 210.906 52.6299C210.83 52.326 211.013 52.0175 211.317 51.9408C212.281 51.6968 213.282 51.5731 214.286 51.5731C214.598 51.5731 214.852 51.8273 214.852 52.1405C214.852 52.4539 214.598 52.7081 214.286 52.7081C213.374 52.7081 212.469 52.8202 211.596 53.0412C211.547 53.053 211.5 53.0586 211.455 53.0586Z" fill="white"/>
<path d="M32.0909 14.4238H30.839C30.3035 14.4238 29.8652 13.985 29.8652 13.4493V12.1956C29.8652 11.6588 30.3035 11.22 30.839 11.22H32.0909C32.6264 11.22 33.0645 11.6588 33.0645 12.1956V13.4493C33.0645 13.985 32.6264 14.4238 32.0909 14.4238Z" fill="#9EC8FF"/>
<path d="M39.9269 14.4238H38.675C38.1394 14.4238 37.7012 13.985 37.7012 13.4493V12.1956C37.7012 11.6588 38.1394 11.22 38.675 11.22H39.9269C40.4625 11.22 40.9005 11.6588 40.9005 12.1956V13.4493C40.9005 13.985 40.4625 14.4238 39.9269 14.4238Z" fill="#9EC8FF"/>
<path d="M47.7626 14.4238H46.5107C45.9753 14.4238 45.5371 13.985 45.5371 13.4493V12.1956C45.5371 11.6588 45.9753 11.22 46.5107 11.22H47.7626C48.2982 11.22 48.7364 11.6588 48.7364 12.1956V13.4493C48.7364 13.985 48.2982 14.4238 47.7626 14.4238Z" fill="#9EC8FF"/>
<path d="M42.2537 61.5992C42.2537 64.7465 39.7065 67.2969 36.5643 67.2969C33.4222 67.2969 30.875 64.7465 30.875 61.5992C30.875 58.453 33.4222 55.9015 36.5643 55.9015C39.7065 55.9015 42.2537 58.453 42.2537 61.5992Z" fill="#9CD499"/>
<path d="M36.0005 63.6113H35.9879C35.8947 63.6079 35.807 63.5659 35.7453 63.4956L34.2 61.7374C34.0759 61.5967 34.0897 61.3811 34.2306 61.2562C34.3716 61.1325 34.5865 61.1461 34.7105 61.288L36.0189 62.776L39.0642 59.7921C39.1983 59.6604 39.4136 59.6627 39.5449 59.7966C39.6763 59.9317 39.674 60.1473 39.5397 60.279L36.2383 63.5137C36.1747 63.5761 36.0894 63.6113 36.0005 63.6113Z" fill="white"/>
<path d="M241.064 27.388C241.064 30.5349 238.518 33.0859 235.374 33.0859C232.233 33.0859 229.686 30.5349 229.686 27.388C229.686 24.2411 232.233 21.6911 235.374 21.6911C238.518 21.6911 241.064 24.2411 241.064 27.388Z" fill="#9CD499"/>
<path d="M234.812 29.4023H234.799C234.706 29.399 234.618 29.3558 234.556 29.2861L233.011 27.5275C232.887 27.3863 232.9 27.1721 233.041 27.0475C233.182 26.923 233.397 26.9362 233.522 27.0774L234.828 28.567L237.875 25.5828C238.009 25.4499 238.225 25.4533 238.356 25.5878C238.487 25.7223 238.485 25.9365 238.351 26.0694L235.049 29.3044C234.986 29.3675 234.9 29.4023 234.812 29.4023Z" fill="white"/>
<path d="M62.0042 39.4365H22.5052C22.1028 39.4365 21.7734 39.1062 21.7734 38.7033C21.7734 38.3004 22.1028 37.9701 22.5052 37.9701H62.0042C62.4067 37.9701 62.736 38.3004 62.736 38.7033C62.736 39.1062 62.4067 39.4365 62.0042 39.4365Z" fill="#9EC8FF"/>
<path d="M241.935 8.20605H202.436C202.033 8.20605 201.703 7.87553 201.703 7.47248C201.703 7.06944 202.033 6.73891 202.436 6.73891H241.935C242.337 6.73891 242.667 7.06944 242.667 7.47248C242.667 7.87553 242.337 8.20605 241.935 8.20605Z" fill="#9EC8FF"/>
<path d="M229.969 12.1738H202.318C201.98 12.1738 201.703 11.8965 201.703 11.558V11.3226C201.703 10.9841 201.98 10.7068 202.318 10.7068H229.969C230.307 10.7068 230.584 10.9841 230.584 11.3226V11.558C230.584 11.8965 230.307 12.1738 229.969 12.1738Z" fill="#9EC8FF"/>
<path d="M62.0042 43.4941H22.5052C22.1028 43.4941 21.7734 43.165 21.7734 42.7621C21.7734 42.3591 22.1028 42.0289 22.5052 42.0289H62.0042C62.4067 42.0289 62.736 42.3591 62.736 42.7621C62.736 43.165 62.4067 43.4941 62.0042 43.4941Z" fill="#9EC8FF"/>
<path d="M62.0042 47.7227H22.5052C22.1028 47.7227 21.7734 47.3924 21.7734 46.9894C21.7734 46.5865 22.1028 46.2573 22.5052 46.2573H62.0042C62.4067 46.2573 62.736 46.5865 62.736 46.9894C62.736 47.3924 62.4067 47.7227 62.0042 47.7227Z" fill="#9EC8FF"/>
<path d="M67.7656 71.0195V97.3777L110.412 114.1L110.878 73.7435L67.7656 71.0195Z" fill="#9EC8FF"/>
<path d="M108.919 110.794L69.4277 95.3091V72.0416L109.513 74.4036L108.919 110.794Z" fill="#E4EFFF"/>
<path d="M88.8913 97.0966C88.8913 98.8048 87.6231 100.189 86.0579 100.189C84.4928 100.189 83.2246 98.8048 83.2246 97.0966C83.2246 95.3884 84.4928 94.0037 86.0579 94.0037C87.6231 94.0037 88.8913 95.3884 88.8913 97.0966Z" fill="#9EC8FF"/>
<path d="M97.3395 99.3102C97.3395 101.363 95.8152 103.027 93.9338 103.027C92.0536 103.027 90.5293 101.363 90.5293 99.3102C90.5293 97.257 92.0536 95.593 93.9338 95.593C95.8152 95.593 97.3395 97.257 97.3395 99.3102Z" fill="#9EC8FF"/>
<path d="M106.649 101.983C106.649 104.182 105.016 105.965 103.001 105.965C100.987 105.965 99.3535 104.182 99.3535 101.983C99.3535 99.7836 100.987 98.0006 103.001 98.0006C105.016 98.0006 106.649 99.7836 106.649 101.983Z" fill="#9EC8FF"/>
<path d="M91.4439 92.7024L97.4891 94.2369C97.9175 94.3448 98.3345 94.0213 98.3345 93.5786V92.9669C98.3345 92.6445 98.1079 92.3676 97.7928 92.3018L91.7465 91.0533C91.326 90.967 90.9316 91.2893 90.9316 91.7195V92.0441C90.9316 92.3551 91.1424 92.6264 91.4439 92.7024Z" fill="#9EC8FF"/>
<path d="M88.9301 90.4716L84.8637 89.6317C84.4421 89.5454 84.0488 89.8666 84.0488 90.2968C84.0488 90.6078 84.2585 90.879 84.56 90.9562L88.6264 91.9879C89.0548 92.0957 89.4707 91.7723 89.4707 91.3285V91.1367C89.4707 90.8143 89.2452 90.5363 88.9301 90.4716Z" fill="#9EC8FF"/>
<path d="M100.373 93.667V94.4388C100.373 94.7498 100.583 95.0211 100.884 95.0971L106.292 96.4694C106.721 96.5772 107.137 96.2537 107.137 95.8111V94.7839C107.137 94.4615 106.911 94.1835 106.596 94.1188L101.188 93.0019C100.766 92.9145 100.373 93.2369 100.373 93.667Z" fill="#9EC8FF"/>
<path d="M72.5324 82.472L71.8049 82.3449C71.5008 82.2926 71.267 82.0009 71.2798 81.6934L71.296 81.3041C71.3087 80.9987 71.5617 80.7865 71.864 80.8308L72.5872 80.9375C72.9007 80.9829 73.1489 81.2757 73.1383 81.5912L73.125 81.9953C73.1144 82.3131 72.8476 82.5265 72.5324 82.472Z" fill="#9EC8FF"/>
<path d="M75.7752 83.0338L74.9639 82.8931C74.625 82.8341 74.3604 82.5231 74.3694 82.1985L74.3807 81.7865C74.3896 81.463 74.667 81.2417 75.0037 81.2916L75.8097 81.4096C76.1594 81.4607 76.441 81.7728 76.4348 82.1077L76.427 82.5344C76.4209 82.8715 76.1274 83.0951 75.7752 83.0338Z" fill="#9EC8FF"/>
<path d="M79.2911 83.6435L78.3835 83.4857C78.0048 83.421 77.7047 83.0885 77.709 82.7446L77.7146 82.3076C77.7188 81.966 78.0238 81.7344 78.3996 81.7889L79.3003 81.9206C79.6917 81.9784 80.0119 82.3121 80.0111 82.6674L80.01 83.1203C80.0092 83.4778 79.6853 83.7116 79.2911 83.6435Z" fill="#9EC8FF"/>
<path d="M83.1588 84.5032L82.1139 84.3216C81.6776 84.2455 81.3266 83.8846 81.3238 83.5146L81.3203 83.0458C81.3175 82.6781 81.6617 82.4318 82.0935 82.4953L83.1294 82.6474C83.5804 82.7133 83.9567 83.0765 83.9635 83.459L83.9737 83.947C83.9805 84.3329 83.6133 84.5815 83.1588 84.5032Z" fill="#9EC8FF"/>
<path d="M87.7335 85.2965L86.5458 85.091C86.0517 85.0059 85.6482 84.6155 85.6368 84.2205L85.6232 83.72C85.613 83.3273 85.9972 83.0685 86.4857 83.14L87.6621 83.3125C88.1755 83.3874 88.6085 83.7801 88.6255 84.1887L88.6459 84.712C88.6629 85.1251 88.2515 85.3873 87.7335 85.2965Z" fill="#9EC8FF"/>
<path d="M72.7052 77.605L71.9913 77.5426C71.6927 77.5165 71.4629 77.2554 71.4751 76.9615L71.4907 76.588C71.5027 76.2964 71.751 76.0739 72.048 76.0932L72.7576 76.1375C73.0652 76.1567 73.3089 76.4167 73.2989 76.7186L73.2861 77.1045C73.276 77.4087 73.0146 77.6334 72.7052 77.605Z" fill="#9EC8FF"/>
<path d="M75.8851 77.886L75.0908 77.8156C74.7588 77.7861 74.4994 77.5103 74.508 77.2005L74.5189 76.8066C74.5274 76.4979 74.7989 76.2652 75.1287 76.2856L75.918 76.3356C76.2602 76.356 76.5359 76.6318 76.5301 76.9519L76.5226 77.3582C76.5167 77.6794 76.2298 77.9167 75.8851 77.886Z" fill="#9EC8FF"/>
<path d="M79.3206 78.1902L78.4345 78.1119C78.0647 78.079 77.7714 77.7873 77.7754 77.4582L77.7806 77.0427C77.7847 76.717 78.0826 76.4718 78.4498 76.4957L79.3296 76.5502C79.7115 76.574 80.024 76.8668 80.0232 77.2051L80.0223 77.6352C80.0215 77.9757 79.7055 78.2243 79.3206 78.1902Z" fill="#9EC8FF"/>
<path d="M83.0667 78.6357L82.0489 78.546C81.6251 78.5086 81.2833 78.1931 81.2806 77.8412L81.2774 77.3963C81.2746 77.0467 81.6092 76.7856 82.0297 76.8129L83.0395 76.8753C83.4769 76.9026 83.843 77.2192 83.8498 77.5813L83.8589 78.0444C83.8657 78.4098 83.5087 78.6754 83.0667 78.6357Z" fill="#9EC8FF"/>
<path d="M87.5098 79.0286L86.3573 78.9265C85.8779 78.8845 85.4857 78.5462 85.4767 78.1728L85.4631 77.6984C85.454 77.3272 85.8257 77.0503 86.3006 77.081L87.4418 77.1525C87.9394 77.1831 88.3587 77.5213 88.3746 77.9084L88.3938 78.4021C88.4097 78.7914 88.0108 79.0729 87.5098 79.0286Z" fill="#9EC8FF"/>
<path d="M73.0177 78.6531L71.6193 78.5044C71.5055 78.4919 71.4173 78.3898 71.4221 78.2763C71.4267 78.1616 71.5225 78.0788 71.6361 78.0901L73.0322 78.2274C73.1521 78.2399 73.2465 78.3443 73.2425 78.4624C73.2387 78.5804 73.1378 78.6656 73.0177 78.6531Z" fill="#9EC8FF"/>
<path d="M76.2483 78.9945L74.6915 78.8299C74.565 78.8163 74.4654 78.7073 74.4688 78.587C74.4721 78.4667 74.5768 78.3793 74.7032 78.3918L76.2571 78.545C76.3907 78.5587 76.4976 78.6699 76.4953 78.7947C76.493 78.9196 76.3822 79.0093 76.2483 78.9945Z" fill="#9EC8FF"/>
<path d="M79.7476 79.3654L78.0099 79.1804C77.8688 79.1657 77.7561 79.051 77.7578 78.9239C77.7594 78.7968 77.8743 78.7049 78.0152 78.7185L79.7492 78.8887C79.8986 78.9046 80.02 79.0227 80.0196 79.1543C80.0194 79.2871 79.8972 79.3813 79.7476 79.3654Z" fill="#9EC8FF"/>
<path d="M83.5827 79.9022L81.587 79.6899C81.4253 79.6729 81.294 79.5492 81.293 79.4119C81.292 79.2757 81.4213 79.1781 81.5824 79.1939L83.5737 79.3903C83.7459 79.4073 83.8876 79.5356 83.891 79.6775C83.8933 79.8193 83.755 79.9203 83.5827 79.9022Z" fill="#9EC8FF"/>
<path d="M88.1194 80.3822L85.8573 80.1428C85.6737 80.1235 85.523 79.9895 85.5196 79.8442C85.5162 79.699 85.6601 79.5957 85.8426 79.6138L88.0979 79.8363C88.2928 79.8556 88.4572 79.9941 88.4628 80.145C88.4685 80.2971 88.3144 80.4027 88.1194 80.3822Z" fill="#9EC8FF"/>
<path d="M72.8484 83.5681L71.4236 83.2957C71.3076 83.2741 71.218 83.1595 71.2228 83.0403C71.2278 82.9211 71.3253 82.8416 71.4411 82.8632L72.8636 83.1243C72.9858 83.147 73.082 83.265 73.0778 83.3876C73.0738 83.5113 72.9709 83.5919 72.8484 83.5681Z" fill="#9EC8FF"/>
<path d="M76.1476 84.2004L74.5574 83.8962C74.4282 83.8712 74.3267 83.7487 74.3302 83.6227C74.3336 83.4967 74.4406 83.4138 74.5695 83.4377L76.1568 83.7293C76.2933 83.7543 76.4026 83.8803 76.4001 84.0108C76.3977 84.1414 76.2845 84.2265 76.1476 84.2004Z" fill="#9EC8FF"/>
<path d="M79.7289 84.885L77.9493 84.5445C77.8049 84.5161 77.6897 84.3856 77.6914 84.2517C77.693 84.1189 77.8107 84.0326 77.9547 84.0587L79.7306 84.3845C79.8836 84.4128 80.008 84.5479 80.0077 84.6864C80.0074 84.8248 79.8823 84.9145 79.7289 84.885Z" fill="#9EC8FF"/>
<path d="M83.6891 85.8475L81.6377 85.4548C81.4719 85.423 81.337 85.2811 81.3359 85.137C81.3348 84.994 81.4676 84.902 81.6332 84.9327L83.68 85.3084C83.8568 85.3413 84.003 85.4888 84.0064 85.6375C84.0087 85.7885 83.867 85.8815 83.6891 85.8475Z" fill="#9EC8FF"/>
<path d="M88.364 86.7436L86.0316 86.2964C85.8435 86.2612 85.6882 86.1069 85.6837 85.9536C85.6803 85.8004 85.8276 85.7039 86.0157 85.738L88.3425 86.1659C88.5431 86.2022 88.7131 86.3622 88.7187 86.5223C88.7255 86.6834 88.5657 86.7822 88.364 86.7436Z" fill="#9EC8FF"/>
<path d="M102.263 87.5938C102.241 87.5938 102.217 87.5903 102.193 87.5847C102.083 87.5563 102 87.4644 101.983 87.352L100.839 79.7543L97.2221 84.6859C97.1575 84.7733 97.0487 84.8164 96.9411 84.796C96.8345 84.7767 96.7484 84.6961 96.7201 84.5917L96.1228 82.3727C94.8705 83.8346 93.2487 85.7346 93.1455 85.8765C93.0549 86.0013 92.8781 86.0331 92.7523 85.9446C92.6253 85.8549 92.5925 85.6824 92.6797 85.5542C92.7953 85.3839 95.5006 82.2263 96.0412 81.5953C96.1103 81.5158 96.2169 81.4806 96.3189 81.5033C96.422 81.5272 96.5025 81.6055 96.5308 81.7065L97.1133 83.8744L100.789 78.8645C100.857 78.7714 100.973 78.7294 101.085 78.7566C101.196 78.7839 101.279 78.8758 101.296 78.9904L102.443 86.604L104.814 83.4828C104.876 83.4022 104.975 83.3602 105.076 83.3738C105.177 83.3863 105.263 83.4521 105.302 83.5463L106.02 85.2874L108.271 82.3137C108.365 82.1889 108.543 82.1639 108.668 82.2592C108.792 82.3535 108.817 82.5317 108.722 82.6565L106.172 86.0252C106.111 86.1069 106.011 86.1478 105.91 86.1353C105.809 86.1228 105.723 86.057 105.685 85.9628L104.966 84.2205L102.489 87.4814C102.434 87.5529 102.35 87.5938 102.263 87.5938Z" fill="#9EC8FF"/>
<path d="M51.6803 157.791C52.587 160.818 57.9136 161.906 55.4582 162.327C53.0026 162.748 51.0003 162.634 50.0182 161.575C49.0359 160.515 47.6973 161.083 47.8755 159.986C48.0536 158.889 48.5448 156.883 48.5448 156.883L51.6803 157.791Z" fill="#3B65A1"/>
<path d="M68.0675 157.52C69.1428 159.45 69.2939 160.396 72.5051 161.342C75.7161 162.287 72.0181 162.714 68.9958 162.524C65.9736 162.336 66.9141 161.829 64.9119 161.903C62.9097 161.979 64.8361 158.05 64.8361 158.05L68.0675 157.52Z" fill="#3B65A1"/>
<path d="M59.2051 94.7898C60.2839 95.3119 61.3159 95.6501 62.1499 95.834C61.3929 95.0985 60.8315 94.4811 60.6667 93.9862C60.1203 92.3439 61.7842 87.3113 61.7842 87.3113H58.2017C58.2017 87.3113 57.1651 90.445 56.2148 93.9533C57.0338 94.0884 58.1463 94.2779 59.2051 94.7898Z" fill="#F09959"/>
<path d="M67.5283 115.569C68.6719 126.465 69.3411 136.189 68.4872 144.255C67.8648 150.137 68.8735 158.738 68.8735 158.738C68.8735 158.738 65.016 159.933 64.1988 159.718C63.3818 159.504 61.2375 145.396 61.4525 140.169C61.6676 134.944 56.8574 117.554 56.8574 117.554L67.5283 115.569Z" fill="#110775"/>
<path d="M61.4551 139.5C62.4799 134.585 64.6806 127.06 68.154 122.019C67.8593 119.998 68.3883 117.396 67.9452 115.285L56.8574 117.554C56.8574 117.554 61.2978 133.607 61.4551 139.5Z" fill="#0A0543"/>
<path d="M63.4214 117.562C63.5424 128.981 56.5544 143.643 54.7021 148.976C52.8887 154.197 52.511 158.964 52.511 158.964C52.511 158.964 47.8248 158.736 48.0117 158.155C48.1985 157.575 46.835 145.567 49.9918 141.114C53.1485 136.66 54.0238 118.769 54.0238 118.769L63.4214 117.562Z" fill="#110775"/>
<path d="M78.8421 103.084C78.8421 103.084 81.5627 100.133 82.2427 98.8469C82.9227 97.5609 83.5267 96.88 83.2241 97.8629C82.9227 98.8469 82.3175 100.24 82.3175 100.24C82.3175 100.24 85.8693 100.724 87.0775 100.24C88.2867 99.7549 88.2867 99.7549 88.2867 99.7549C88.2867 99.7549 87.3041 102.101 86.3975 102.479C85.4908 102.857 83.0167 103.33 81.8641 103.538C80.7122 103.745 78.1621 105.506 78.1621 105.506L78.8421 103.084Z" fill="#F09959"/>
<path d="M78.3509 92.0078C80.293 91.0476 81.0442 89.7537 80.2297 87.6653C79.6058 86.0661 82.2405 84.5089 81.8133 83.8358C81.5594 83.4374 79.817 85.855 79.1954 86.5666C78.0132 87.9196 77 90.8785 77 90.8785L78.3509 92.0078Z" fill="#F09959"/>
<path d="M57.6211 95.5928C61.6343 96.1603 67.2065 98.8469 70.6065 97.5552C72.1255 96.9787 76.4833 90.8133 76.8799 90.8133C77.2766 90.8133 79.4299 92.3456 79.4299 92.3456C79.4299 92.3456 75.0715 100.549 72.3515 102.592C69.6315 104.635 59.2023 105.693 59.182 105.638C58.8577 104.759 57.6211 95.5928 57.6211 95.5928Z" fill="#F16C5E"/>
<path d="M67.3404 102.573C65.7922 99.2291 63.5861 97.2576 62.1244 95.8275C61.2947 95.6425 60.2725 95.3066 59.204 94.789C58.1567 94.2828 56.9792 94.0535 56.2137 93.9525C56.0114 94.7777 55.6852 95.9285 55.3787 97.2826C54.3464 101.843 55.2923 111.199 53.3644 119.887C53.0459 121.321 58.7077 123.839 64.2332 122.684C67.2969 122.044 68.5247 120.903 68.5247 120.903C68.5247 120.903 69.283 106.769 67.3404 102.573Z" fill="#FE7062"/>
<path d="M57.8672 88.3492C58.7148 90.3252 59.7426 91.6963 60.579 92.585C60.7444 90.4569 61.7843 87.3107 61.7843 87.3107H58.2019C58.2019 87.3107 58.074 87.6966 57.8672 88.3492Z" fill="#E38540"/>
<path d="M64.5442 86.4499C65.286 88.7573 64.5601 91.0568 62.9228 91.5846C61.2854 92.1124 59.3568 90.6686 58.6151 88.3601C57.8733 86.0515 58.5992 83.7531 60.2365 83.2253C61.8739 82.6976 63.8025 84.1413 64.5442 86.4499Z" fill="#F09959"/>
<path d="M58.5816 97.8058C56.251 101.381 58.801 109.496 59.5377 109.894C60.2296 110.267 66.747 113.745 68.6701 114.259C68.7271 112.443 68.4167 110.474 68.3368 108.636C67.6019 105.414 67.7877 102.8 65.601 100.53C61.5583 96.3337 58.5816 97.8058 58.5816 97.8058Z" fill="#F16C5E"/>
<path d="M58.5822 97.069C56.6344 102.174 59.3507 108.078 60.7478 108.759C62.145 109.44 69.625 113.526 71.325 112.732C73.025 111.937 81.2416 104.503 81.2416 104.503C81.2416 104.503 79.485 101.893 79.145 102.006C78.805 102.12 70.4244 106.848 69.8577 106.508C69.2911 106.167 66.565 101.722 63.845 99.2255C61.125 96.7285 58.9092 96.2121 58.5822 97.069Z" fill="#FE7062"/>
<path d="M56.9753 91.0322C55.011 89.206 54.8019 86.1688 55.4644 85.6353C56.1269 85.1019 55.3982 85.2222 55.7624 83.985C56.1269 82.7467 57.3372 82.2825 57.7092 82.2167C58.0811 82.1497 58.1862 81.2951 58.8624 80.9761C59.5386 80.6572 60.7731 80.7446 61.5802 81.2315C62.3872 81.7184 62.8178 81.7207 63.7122 81.6537C64.6065 81.5856 65.6664 81.8796 65.6333 82.8773C65.6002 83.8749 66.2958 84.002 66.0639 84.3868C65.8321 84.7704 64.7059 86.2528 62.9503 86.0428C61.1947 85.8317 60.8833 85.2347 60.6581 86.6284C60.4329 88.0211 60.7508 88.3536 60.6581 88.4195C60.5654 88.4864 60.1769 88.8179 59.903 88.5852C59.7897 88.4898 59.2736 87.0926 58.4845 87.2357C57.2955 87.4502 58.3793 88.7849 58.3793 88.7849C58.8345 88.9393 58.9251 89.1391 58.9251 89.1391C58.9251 89.1391 59.2073 89.6804 58.313 90.2775C57.4187 90.8745 56.9753 91.0322 56.9753 91.0322Z" fill="#58556E"/>
<path d="M59.2376 87.6002C59.6161 88.1597 59.5659 88.8555 59.1255 89.154C58.6851 89.4537 58.0212 89.2414 57.6428 88.683C57.2643 88.1234 57.3144 87.4277 57.7548 87.1292C58.1953 86.8295 58.8591 87.0406 59.2376 87.6002Z" fill="#F09959"/>
<path d="M109.018 4.07465C107.541 4.09156 106.173 4.54933 105.036 5.31993C103.527 2.23392 100.344 0.123827 96.6849 0.163687C92.0187 0.215624 88.2039 3.74491 87.669 8.26583C86.7022 7.552 85.5043 7.13409 84.2113 7.14858C81.0481 7.18361 78.5124 9.77925 78.5472 12.9462C78.582 16.1143 81.174 18.6532 84.3369 18.6182C86.7113 18.5928 106.807 18.6447 109.177 18.6182C113.187 18.5747 116.403 15.2833 116.358 11.2673C116.314 7.25125 113.027 4.03117 109.018 4.07465Z" fill="white"/>
<path d="M242.533 95.8613H227.893C227.635 95.8613 227.424 95.6491 227.424 95.3914C227.424 95.1326 227.635 94.9216 227.893 94.9216H242.533C242.791 94.9216 243.002 95.1326 243.002 95.3914C243.002 95.6491 242.791 95.8613 242.533 95.8613Z" fill="#9EC8FF"/>
<path d="M242.56 93.7695H220.075C219.832 93.7695 219.633 93.571 219.633 93.3268V93.2735C219.633 93.0295 219.832 92.8297 220.075 92.8297H242.56C242.803 92.8297 243.002 93.0295 243.002 93.2735V93.3268C243.002 93.571 242.803 93.7695 242.56 93.7695Z" fill="#9EC8FF"/>
<path d="M242.56 91.7246H220.075C219.832 91.7246 219.633 91.5249 219.633 91.2809V91.2275C219.633 90.9836 219.832 90.785 220.075 90.785H242.56C242.803 90.785 243.002 90.9836 243.002 91.2275V91.2809C243.002 91.5249 242.803 91.7246 242.56 91.7246Z" fill="#9EC8FF"/>
<path d="M242.56 108.571H220.075C219.832 108.571 219.633 108.373 219.633 108.129V108.075C219.633 107.831 219.832 107.631 220.075 107.631H242.56C242.803 107.631 243.002 107.831 243.002 108.075V108.129C243.002 108.373 242.803 108.571 242.56 108.571Z" fill="#9EC8FF"/>
<path d="M242.56 106.525H220.075C219.832 106.525 219.633 106.326 219.633 106.082V106.028C219.633 105.784 219.832 105.585 220.075 105.585H242.56C242.803 105.585 243.002 105.784 243.002 106.028V106.082C243.002 106.326 242.803 106.525 242.56 106.525Z" fill="#9EC8FF"/>
<path d="M246.905 90.2544C246.121 90.2544 245.481 90.8934 245.481 91.68V94.9226C245.481 95.708 246.121 96.3482 246.905 96.3482H250.142C250.927 96.3482 251.567 95.708 251.567 94.9226V91.68C251.567 90.8934 250.927 90.2544 250.142 90.2544H246.905ZM250.142 97.1426H246.905C245.683 97.1426 244.688 96.1472 244.688 94.9226V91.68C244.688 90.4552 245.683 89.4599 246.905 89.4599H250.142C251.365 89.4599 252.36 90.4552 252.36 91.68V94.9226C252.36 96.1472 251.365 97.1426 250.142 97.1426Z" fill="#9EC8FF"/>
<path d="M246.905 104.031C246.121 104.031 245.481 104.672 245.481 105.458V108.7C245.481 109.486 246.121 110.126 246.905 110.126H250.142C250.927 110.126 251.567 109.486 251.567 108.7V105.458C251.567 104.672 250.927 104.031 250.142 104.031H246.905ZM250.142 110.921H246.905C245.683 110.921 244.688 109.924 244.688 108.7V105.458C244.688 104.233 245.683 103.237 246.905 103.237H250.142C251.365 103.237 252.36 104.233 252.36 105.458V108.7C252.36 109.924 251.365 110.921 250.142 110.921Z" fill="#9EC8FF"/>
<path d="M248.725 95.3184L248.706 95.3171C248.59 95.3115 248.481 95.2547 248.411 95.1627L246.085 92.1233C245.95 91.9485 245.983 91.6999 246.157 91.566C246.332 91.432 246.58 91.466 246.713 91.6398L248.755 94.307L252.805 89.9611C252.954 89.8011 253.204 89.792 253.366 89.9417C253.525 90.0916 253.534 90.3425 253.385 90.5036L249.015 95.1911C248.94 95.2717 248.835 95.3184 248.725 95.3184Z" fill="#F37168"/>
<path d="M248.725 109.097H248.706C248.59 109.091 248.481 109.034 248.411 108.941L246.085 105.902C245.95 105.728 245.983 105.478 246.157 105.344C246.332 105.212 246.58 105.245 246.713 105.418L248.755 108.085L252.805 103.739C252.954 103.579 253.204 103.57 253.366 103.72C253.525 103.87 253.534 104.122 253.385 104.282L249.015 108.971C248.94 109.051 248.835 109.097 248.725 109.097Z" fill="#F37168"/>
<path d="M24.4925 98.2278C24.4925 104.369 19.5204 109.35 13.3868 109.35C7.25341 109.35 2.28125 104.369 2.28125 98.2278C2.28125 92.0851 7.25341 87.1048 13.3868 87.1048C19.5204 87.1048 24.4925 92.0851 24.4925 98.2278Z" fill="#9EC8FF"/>
<path d="M23.5181 98.2265C23.5181 103.829 18.9827 108.371 13.3879 108.371C7.79319 108.371 3.25781 103.829 3.25781 98.2265C3.25781 92.623 7.79319 88.0807 13.3879 88.0807C18.9827 88.0807 23.5181 92.623 23.5181 98.2265Z" fill="white"/>
<path d="M21.8218 98.2272C21.8218 102.892 18.0456 106.674 13.3874 106.674C8.72928 106.674 4.95312 102.892 4.95312 98.2272C4.95312 93.5612 8.72928 89.7794 13.3874 89.7794C18.0456 89.7794 21.8218 93.5612 21.8218 98.2272Z" fill="#FF6257"/>
<path d="M20.6567 98.2271C20.6567 102.247 17.4024 105.506 13.3879 105.506C9.37351 105.506 6.11914 102.247 6.11914 98.2271C6.11914 94.2058 9.37351 90.9473 13.3879 90.9473C17.4024 90.9473 20.6567 94.2058 20.6567 98.2271Z" fill="white"/>
<path d="M18.7633 98.2271C18.7633 101.2 16.3564 103.61 13.3875 103.61C10.4186 103.61 8.01172 101.2 8.01172 98.2271C8.01172 95.2534 10.4186 92.8426 13.3875 92.8426C16.3564 92.8426 18.7633 95.2534 18.7633 98.2271Z" fill="#FF6257"/>
<path d="M14.2425 101.26C14.2425 101.734 13.8594 102.117 13.3868 102.117C12.9143 102.117 12.5312 101.734 12.5312 101.26C12.5312 100.787 12.9143 100.403 13.3868 100.403C13.8594 100.403 14.2425 100.787 14.2425 101.26Z" fill="white"/>
<path d="M13.3869 99.793C13.0166 99.793 12.6993 99.5955 12.6808 99.3424L12.4007 95.4981C12.3624 94.9726 12.805 94.5107 13.3869 94.5107C13.9689 94.5107 14.4114 94.9726 14.3731 95.4981L14.093 99.3424C14.0747 99.5955 13.7572 99.793 13.3869 99.793Z" fill="white"/>
<path d="M213.148 144.061H173.195C172.942 144.061 172.734 143.852 172.734 143.597V143.451C172.734 143.197 172.942 142.988 173.195 142.988H213.148C213.401 142.988 213.609 143.197 213.609 143.451V143.597C213.609 143.852 213.401 144.061 213.148 144.061Z" fill="#2E5B9A"/>
<path d="M206.256 161.571H218.226L211.791 143.865H199.821L206.256 161.571ZM218.711 162.252H206.018C205.875 162.252 205.748 162.162 205.699 162.027L199.016 143.64C198.979 143.536 198.993 143.42 199.058 143.329C199.121 143.237 199.224 143.184 199.336 143.184H212.03C212.173 143.184 212.3 143.273 212.348 143.408L219.031 161.795C219.069 161.899 219.054 162.015 218.989 162.107C218.926 162.198 218.822 162.252 218.711 162.252Z" fill="#2E5B9A"/>
<path d="M217.042 157.656H204.349C204.161 157.656 204.008 157.503 204.008 157.316C204.008 157.127 204.161 156.975 204.349 156.975H217.042C217.23 156.975 217.381 157.127 217.381 157.316C217.381 157.503 217.23 157.656 217.042 157.656Z" fill="#2E5B9A"/>
<path d="M215.371 153.059H202.678C202.49 153.059 202.338 152.905 202.338 152.718C202.338 152.53 202.49 152.378 202.678 152.378H215.371C215.56 152.378 215.711 152.53 215.711 152.718C215.711 152.905 215.56 153.059 215.371 153.059Z" fill="#2E5B9A"/>
<path d="M213.7 148.463H201.007C200.818 148.463 200.666 148.31 200.666 148.122C200.666 147.934 200.818 147.782 201.007 147.782H213.7C213.887 147.782 214.04 147.934 214.04 148.122C214.04 148.31 213.887 148.463 213.7 148.463Z" fill="#2E5B9A"/>
<path d="M167.816 161.571H179.786L186.221 143.865H174.25L167.816 161.571ZM180.024 162.252H167.331C167.219 162.252 167.115 162.197 167.052 162.107C166.988 162.015 166.972 161.899 167.011 161.794L173.693 143.407C173.741 143.272 173.87 143.184 174.012 143.184H186.706C186.817 143.184 186.922 143.237 186.985 143.329C187.048 143.42 187.064 143.536 187.025 143.64L180.344 162.027C180.294 162.162 180.166 162.252 180.024 162.252Z" fill="#2E5B9A"/>
<path d="M181.694 157.656H169C168.812 157.656 168.66 157.503 168.66 157.316C168.66 157.127 168.812 156.975 169 156.975H181.694C181.882 156.975 182.034 157.127 182.034 157.316C182.034 157.503 181.882 157.656 181.694 157.656Z" fill="#2E5B9A"/>
<path d="M183.364 153.059H170.67C170.482 153.059 170.33 152.905 170.33 152.718C170.33 152.53 170.482 152.378 170.67 152.378H183.364C183.552 152.378 183.704 152.53 183.704 152.718C183.704 152.905 183.552 153.059 183.364 153.059Z" fill="#2E5B9A"/>
<path d="M185.033 148.463H172.34C172.152 148.463 172 148.31 172 148.122C172 147.934 172.152 147.782 172.34 147.782H185.033C185.221 147.782 185.373 147.934 185.373 148.122C185.373 148.31 185.221 148.463 185.033 148.463Z" fill="#2E5B9A"/>
<path d="M181.166 77.6307C181.629 77.4718 182.091 77.3027 182.547 77.1236V77.1238C182.091 77.3028 181.628 77.4719 181.166 77.6309" fill="#A7D3B7"/>
<defs>
<linearGradient id="paint0_linear_18824_171275" x1="176.811" y1="18.3948" x2="123.639" y2="110.579" gradientUnits="userSpaceOnUse">
<stop stop-color="#F16C5E"/>
<stop offset="1" stop-color="#8BCFFC"/>
</linearGradient>
<linearGradient id="paint1_linear_18824_171275" x1="167.328" y1="26.5148" x2="116.576" y2="114.508" gradientUnits="userSpaceOnUse">
<stop stop-color="#CADFF9"/>
<stop offset="1" stop-color="#5E9FED"/>
</linearGradient>
<linearGradient id="paint2_linear_18824_171275" x1="167.327" y1="26.5136" x2="116.572" y2="114.507" gradientUnits="userSpaceOnUse">
<stop stop-color="#CADFF9"/>
<stop offset="1" stop-color="#5E9FED"/>
</linearGradient>
<linearGradient id="paint3_linear_18824_171275" x1="167.328" y1="26.5126" x2="116.573" y2="114.507" gradientUnits="userSpaceOnUse">
<stop stop-color="#CADFF9"/>
<stop offset="1" stop-color="#5E9FED"/>
</linearGradient>
<linearGradient id="paint4_linear_18824_171275" x1="177.141" y1="18.1116" x2="123.886" y2="110.442" gradientUnits="userSpaceOnUse">
<stop stop-color="#5DA0D5"/>
<stop offset="1" stop-color="#1F3581"/>
</linearGradient>
<linearGradient id="paint5_linear_18824_171275" x1="154.97" y1="19.3862" x2="104.216" y2="107.38" gradientUnits="userSpaceOnUse">
<stop stop-color="#FF9E95"/>
<stop offset="1" stop-color="#F16C5E"/>
</linearGradient>
<linearGradient id="paint6_linear_18824_171275" x1="154.97" y1="19.385" x2="104.216" y2="107.379" gradientUnits="userSpaceOnUse">
<stop stop-color="#CADFF9"/>
<stop offset="1" stop-color="#5E9FED"/>
</linearGradient>
<linearGradient id="paint7_linear_18824_171275" x1="154.969" y1="19.385" x2="104.214" y2="107.379" gradientUnits="userSpaceOnUse">
<stop stop-color="#5DA0D5"/>
<stop offset="1" stop-color="#1F3581"/>
</linearGradient>
</defs>
</svg>
