<svg width="173" height="124" viewBox="0 0 173 124" fill="none" xmlns="http://www.w3.org/2000/svg">
<g clip-path="url(#clip0)">
<path d="M66.5 41.0447C67.8603 41.5742 69.3874 40.8897 69.9136 39.5207C71.3894 35.6719 73.6736 32.9468 77.3182 30.7253C83.6191 26.8895 89.4709 26.8895 95.7462 30.7253C99.3907 32.9597 101.675 35.6719 103.151 39.5336C103.561 40.5926 104.55 41.2384 105.615 41.2384C105.936 41.2384 106.256 41.1867 106.564 41.0576C107.925 40.5281 108.605 38.9911 108.079 37.6221C106.179 32.6755 103.138 29.0463 98.4924 26.1921C96.5932 25.0297 94.6811 24.1514 92.769 23.5444C94.8479 22.3433 96.5932 20.5481 97.7225 18.2879C98.6079 16.5185 99.0571 14.607 99.0571 12.618C99.0571 5.66961 93.4363 0.0126953 86.5193 0.0126953C79.6152 0.0126953 73.9944 5.66961 73.9944 12.618C73.9944 14.607 74.4436 16.5056 75.3291 18.2879C76.4584 20.561 78.2036 22.3562 80.2954 23.5573C78.3961 24.1643 76.484 25.0297 74.5976 26.1921C69.9649 29.0334 66.9235 32.6626 65.0114 37.6221C64.4596 38.9782 65.1398 40.5151 66.5 41.0447ZM79.2688 12.6051C79.2688 8.58847 82.5155 5.32089 86.5065 5.32089C90.5104 5.32089 93.7571 8.58847 93.7571 12.6051C93.7571 13.7546 93.5004 14.8653 92.9871 15.8856C91.7423 18.3654 89.2656 19.9023 86.5065 19.9023C83.7474 19.9023 81.2707 18.3654 80.0387 15.8856C79.5254 14.8653 79.2688 13.7546 79.2688 12.6051Z" fill="#333333"/>
<path d="M47.2388 40.1142C51.9998 40.1142 56.2988 37.4537 58.4419 33.1658C59.3273 31.3964 59.7765 29.4849 59.7765 27.496C59.7765 20.5475 54.1557 14.8906 47.2388 14.8906C40.3347 14.8906 34.7139 20.5475 34.7139 27.496C34.7139 29.4849 35.163 31.3835 36.0485 33.1658C38.1787 37.4537 42.4649 40.1142 47.2388 40.1142ZM47.2388 20.2117C51.2426 20.2117 54.4893 23.4793 54.4893 27.496C54.4893 28.6454 54.2327 29.7562 53.7194 30.7765C52.4746 33.2562 49.9978 34.7931 47.2388 34.7931C44.4797 34.7931 42.0029 33.2562 40.771 30.7765C40.2577 29.7432 40.001 28.6454 40.001 27.496C40.001 23.4793 43.2477 20.2117 47.2388 20.2117Z" fill="#333333"/>
<path d="M24.9604 56.375C29.7214 56.375 34.0204 53.7144 36.1635 49.4265C37.049 47.6571 37.4982 45.7457 37.4982 43.7567C37.4982 36.8083 31.8774 31.1514 24.9604 31.1514C18.0563 31.1514 12.4355 36.8083 12.4355 43.7567C12.4355 45.7457 12.8847 47.6442 13.7573 49.4265C15.9004 53.7144 20.1866 56.375 24.9604 56.375ZM24.9604 36.4725C28.9643 36.4725 32.211 39.7401 32.211 43.7567C32.211 44.9062 31.9544 46.0169 31.441 47.0372C30.1962 49.5169 27.7195 51.0539 24.9604 51.0539C22.2014 51.0539 19.7246 49.5169 18.4927 47.0372C17.9793 46.004 17.7227 44.9062 17.7227 43.7567C17.7227 39.7401 20.9694 36.4725 24.9604 36.4725Z" fill="#333333"/>
<path d="M170.819 71.5763C169.382 71.318 168.009 72.2737 167.752 73.7203L164.929 89.5674C163.299 93.0287 159.821 95.2501 155.997 95.2501H140.88C139.417 95.2501 138.236 96.4383 138.236 97.9107C138.236 99.383 139.417 100.571 140.88 100.571H150.684V114.998C150.684 116.47 151.865 117.658 153.328 117.658C154.791 117.658 155.971 116.47 155.971 114.998V100.571H156.01C162.028 100.571 167.482 96.9808 169.908 91.4401C169.998 91.2464 170.049 91.0397 170.088 90.8331L172.962 74.6631C173.219 73.2295 172.256 71.8346 170.819 71.5763Z" fill="#333333"/>
<path d="M32.1216 95.2501H16.9916C13.1674 95.2501 9.68972 93.0287 8.05995 89.5674L5.23671 73.7203C4.98006 72.2737 3.60694 71.318 2.16966 71.5763C0.732374 71.8346 -0.230092 73.2166 0.0393982 74.6631L2.91396 90.8331C2.95246 91.0397 3.01663 91.2464 3.09362 91.4401C5.51904 96.9808 10.973 100.571 16.9916 100.571H17.0301V114.998C17.0301 116.47 18.2108 117.658 19.6737 117.658C21.1366 117.658 22.3173 116.47 22.3173 114.998V100.571H32.1216C33.5845 100.571 34.7652 99.383 34.7652 97.9107C34.7652 96.4512 33.5717 95.2501 32.1216 95.2501Z" fill="#333333"/>
<path d="M125.763 40.1142C130.537 40.1142 134.823 37.4537 136.954 33.1658C137.839 31.3964 138.288 29.4849 138.288 27.496C138.288 20.5475 132.667 14.8906 125.763 14.8906C118.846 14.8906 113.226 20.5475 113.226 27.496C113.226 29.4849 113.675 31.3835 114.56 33.1658C116.703 37.4537 121.002 40.1142 125.763 40.1142ZM125.763 20.2117C129.754 20.2117 133.001 23.4793 133.001 27.496C133.001 28.6454 132.744 29.7562 132.231 30.7765C130.999 33.2562 128.522 34.7931 125.763 34.7931C123.004 34.7931 120.527 33.2562 119.283 30.7765C118.769 29.7432 118.513 28.6454 118.513 27.496C118.513 23.4793 121.759 20.2117 125.763 20.2117Z" fill="#333333"/>
<path d="M136.838 49.4265C138.981 53.7144 143.28 56.375 148.041 56.375C152.815 56.375 157.101 53.7144 159.231 49.4265C160.117 47.6571 160.553 45.7457 160.553 43.7567C160.553 36.8083 154.932 31.1514 148.028 31.1514C141.111 31.1514 135.49 36.8083 135.49 43.7567C135.503 45.7457 135.952 47.6571 136.838 49.4265ZM148.041 36.4725C152.032 36.4725 155.279 39.7401 155.279 43.7567C155.279 44.9062 155.022 46.0169 154.509 47.0372C153.277 49.5169 150.8 51.0539 148.041 51.0539C145.282 51.0539 142.805 49.5169 141.56 47.0372C141.047 46.004 140.79 44.9062 140.79 43.7567C140.79 39.7401 144.037 36.4725 148.041 36.4725Z" fill="#333333"/>
<path d="M157.987 89.8254C158.244 89.9029 158.5 89.9416 158.757 89.9416C159.886 89.9416 160.939 89.2054 161.285 88.056C169.511 60.8176 157.166 56.0776 156.627 55.8839C155.279 55.406 153.842 56.1035 153.329 57.4467C152.815 58.7769 153.483 60.3139 154.792 60.8692C154.869 60.908 162.838 64.6147 156.229 86.5061C155.805 87.9139 156.588 89.3992 157.987 89.8254Z" fill="#333333"/>
<path d="M14.2451 89.9422C14.5018 89.9422 14.7584 89.9034 15.0151 89.8259C16.4139 89.3997 17.1967 87.9145 16.7732 86.5067C10.2413 64.9123 17.9153 61.0118 18.1976 60.8698C19.5323 60.3531 20.2252 58.8679 19.7376 57.4989C19.2499 56.1169 17.7357 55.3807 16.3625 55.8844C15.8364 56.0782 3.47833 60.8181 11.7042 88.0565C12.0635 89.1931 13.1158 89.9422 14.2451 89.9422Z" fill="#333333"/>
<path d="M124.275 93.3394H145.064C147.156 93.3394 148.85 91.6217 148.85 89.5294V82.7101C148.85 82.581 148.824 82.4518 148.812 82.3227C148.812 82.2839 148.812 82.2581 148.799 82.2193C148.76 81.9869 148.683 81.7802 148.581 81.5736C148.555 81.5219 148.529 81.4832 148.504 81.4315C148.401 81.2507 148.285 81.0828 148.157 80.9407C148.144 80.9149 148.131 80.902 148.106 80.8762L141.035 73.3982L144.397 70.8409C145.565 69.9498 145.796 68.2837 144.91 67.1213C144.025 65.946 142.37 65.7136 141.215 66.6047L133.823 72.2229H123.326C122.889 71.8742 122.44 71.3834 122.44 71.0476C122.44 70.7118 122.889 70.1952 123.351 69.8206H131.462C131.474 69.8206 131.487 69.8206 131.5 69.8206H131.513H132.463C133.079 69.8206 133.669 69.6011 134.144 69.2136L139.277 64.9257C140.406 63.9829 140.56 62.3168 139.623 61.1803C138.686 60.0437 137.031 59.8888 135.902 60.8316L132.116 63.9829L124.763 56.2079L130.319 51.9846C131.487 51.0934 131.718 49.4273 130.833 48.265C129.947 47.0897 128.292 46.8572 127.124 47.7484L119.732 53.3665H108.966C108.632 53.1986 108.234 52.9145 108.221 52.7982C108.298 52.682 108.581 52.5012 108.85 52.3979H118.359C118.975 52.3979 119.565 52.1783 120.04 51.7909L125.173 47.503C126.303 46.5601 126.457 44.8941 125.52 43.7575C124.596 42.621 122.928 42.466 121.798 43.4088L117.397 47.0897H115.921C115.818 46.8959 115.728 46.6893 115.562 46.5214C114.201 45.0878 112.341 44.2483 110.377 44.1062C110.197 44.0675 110.018 44.0546 109.838 44.0546H63.2035C63.0238 44.0546 62.8442 44.0804 62.6645 44.1062C60.7139 44.2483 58.8403 45.0878 57.48 46.5214C57.326 46.6893 57.2362 46.8959 57.1207 47.0897H55.5423L51.1406 43.4088C50.0241 42.4789 48.3559 42.6339 47.4191 43.7575C46.4823 44.8941 46.6491 46.5601 47.7655 47.503L52.8987 51.7909C53.3735 52.1912 53.9638 52.3979 54.5798 52.3979H64.089C64.32 52.4883 64.6408 52.6562 64.7049 52.7724C64.7049 52.9016 64.3584 53.1857 63.9735 53.3794H53.2067L45.8149 47.7613C44.6472 46.8701 42.9917 47.1026 42.1191 48.2779C41.2336 49.4532 41.4646 51.1193 42.6324 51.9975L48.2404 56.2596L40.8871 64.0346L37.0501 60.8445C35.9208 59.9146 34.2654 60.0696 33.3286 61.1932C32.3918 62.3298 32.5586 63.9958 33.675 64.9386L38.8082 69.2265C39.283 69.6269 39.8733 69.8336 40.4893 69.8336H49.6006C50.0626 70.2081 50.5118 70.7118 50.5118 71.0605C50.5118 71.3963 50.0626 71.8871 49.6135 72.2358H39.1162L31.7244 66.6176C30.5567 65.7265 28.9012 65.959 28.0157 67.1343C27.1303 68.3095 27.3613 69.9756 28.5291 70.8539L31.9426 73.4498L24.9102 80.8891C24.8974 80.9149 24.8845 80.9278 24.8589 80.9536C24.7305 81.1086 24.615 81.2636 24.5124 81.4444C24.4867 81.4961 24.461 81.5348 24.4354 81.5865C24.3455 81.7931 24.2685 81.9998 24.23 82.2193C24.2172 82.2581 24.23 82.2968 24.2172 82.3356C24.2044 82.4647 24.1787 82.5939 24.1787 82.723V89.5423C24.1787 91.6475 25.8855 93.3523 27.9644 93.3523H48.5483L39.1803 120.487C38.7055 121.869 39.437 123.393 40.8101 123.871C41.0924 123.975 41.3876 124.013 41.6828 124.013C42.7736 124.013 43.8002 123.329 44.1852 122.231L54.1563 93.3523H118.731L126.919 122.089C127.252 123.251 128.305 124.013 129.46 124.013C129.703 124.013 129.947 123.975 130.191 123.91C131.59 123.51 132.411 122.037 132.001 120.617L124.275 93.3394ZM36.6779 76.9886C37.1399 77.3374 37.6917 77.5311 38.2692 77.5311H50.4348C50.8711 77.5311 51.2946 77.4278 51.6796 77.2211C52.1031 76.9886 55.8246 74.8834 55.8246 71.0347C55.8246 67.1988 52.1287 65.0549 51.7052 64.8224C51.3202 64.6028 50.8839 64.4995 50.4348 64.4995H47.7527L53.258 58.6747H64.4996C64.7691 58.6747 65.0386 58.636 65.2953 58.5585C67.0405 58.0031 70.0049 56.1562 70.0049 52.7595C70.0049 51.3905 69.4916 50.2539 68.7216 49.3499H104.269C103.499 50.2539 102.985 51.3905 102.985 52.7595C102.985 56.1691 105.95 58.016 107.708 58.5585C107.965 58.636 108.234 58.6747 108.504 58.6747H119.848L125.353 64.4995H122.568C122.119 64.4995 121.683 64.6158 121.298 64.8224C120.874 65.0549 117.179 67.1988 117.179 71.0347C117.179 74.8834 120.9 76.9886 121.324 77.2211C121.709 77.4278 122.132 77.5311 122.568 77.5311H134.734C135.311 77.5311 135.863 77.3374 136.325 76.9886L136.813 76.6141L140.047 80.0367H33.0462L36.2416 76.6528L36.6779 76.9886ZM29.53 85.3578H143.576V88.0183H29.53V85.3578Z" fill="#333333"/>
</g>
<defs>
<clipPath id="clip0">
<rect width="173" height="124" fill="white"/>
</clipPath>
</defs>
</svg>
