<svg width="82" height="82" viewBox="0 0 82 82" fill="none" xmlns="http://www.w3.org/2000/svg">
<g filter="url(#filter0_d_6211_4136)">
<path d="M41.0002 63.6667C55.6668 63.6667 67.6668 51.6667 67.6668 37C67.6668 22.3334 55.6668 10.3334 41.0002 10.3334C26.3335 10.3334 14.3335 22.3334 14.3335 37C14.3335 51.6667 26.3335 63.6667 41.0002 63.6667Z" fill="white"/>
<path d="M41.0002 63.6667C55.6668 63.6667 67.6668 51.6667 67.6668 37C67.6668 22.3334 55.6668 10.3334 41.0002 10.3334C26.3335 10.3334 14.3335 22.3334 14.3335 37C14.3335 51.6667 26.3335 63.6667 41.0002 63.6667Z" stroke="#F95031" stroke-width="4" stroke-linecap="round" stroke-linejoin="round"/>
</g>
<path d="M30.3335 37H51.6668" stroke="#F95031" stroke-width="4" stroke-linecap="round" stroke-linejoin="round"/>
<path d="M41 47.6667V26.3334" stroke="#F95031" stroke-width="4" stroke-linecap="round" stroke-linejoin="round"/>
<defs>
<filter id="filter0_d_6211_4136" x="0.333496" y="0.333374" width="81.3335" height="81.3334" filterUnits="userSpaceOnUse" color-interpolation-filters="sRGB">
<feFlood flood-opacity="0" result="BackgroundImageFix"/>
<feColorMatrix in="SourceAlpha" type="matrix" values="0 0 0 0 0 0 0 0 0 0 0 0 0 0 0 0 0 0 127 0" result="hardAlpha"/>
<feOffset dy="4"/>
<feGaussianBlur stdDeviation="6"/>
<feColorMatrix type="matrix" values="0 0 0 0 0 0 0 0 0 0 0 0 0 0 0 0 0 0 0.12 0"/>
<feBlend mode="normal" in2="BackgroundImageFix" result="effect1_dropShadow_6211_4136"/>
<feBlend mode="normal" in="SourceGraphic" in2="effect1_dropShadow_6211_4136" result="shape"/>
</filter>
</defs>
</svg>
