<svg width="40" height="40" viewBox="0 0 40 40" fill="none" xmlns="http://www.w3.org/2000/svg">
<path d="M14.9998 16.6667C16.8408 16.6667 18.3332 15.1743 18.3332 13.3333C18.3332 11.4924 16.8408 10 14.9998 10C13.1589 10 11.6665 11.4924 11.6665 13.3333C11.6665 15.1743 13.1589 16.6667 14.9998 16.6667Z" stroke="#828282" stroke-width="2.5" stroke-linecap="round" stroke-linejoin="round"/>
<path d="M21.6668 3.33398H15.0002C6.66683 3.33398 3.3335 6.66732 3.3335 15.0007V25.0007C3.3335 33.334 6.66683 36.6673 15.0002 36.6673H25.0002C33.3335 36.6673 36.6668 33.334 36.6668 25.0007V16.6673" stroke="#828282" stroke-width="2.5" stroke-linecap="round" stroke-linejoin="round"/>
<path d="M26.25 8.33398H35.4167" stroke="#828282" stroke-width="2.5" stroke-linecap="round"/>
<path d="M30.8335 12.9167V3.75" stroke="#828282" stroke-width="2.5" stroke-linecap="round"/>
<path d="M4.44971 31.5836L12.6664 26.0669C13.983 25.1836 15.883 25.2836 17.0664 26.3003L17.6164 26.7836C18.9164 27.9003 21.0164 27.9003 22.3164 26.7836L29.2497 20.8336C30.5497 19.7169 32.6497 19.7169 33.9497 20.8336L36.6664 23.1669" stroke="#828282" stroke-width="2.5" stroke-linecap="round" stroke-linejoin="round"/>
</svg>
