<svg width="218" height="194" viewBox="0 0 218 194" fill="none" xmlns="http://www.w3.org/2000/svg">
<path d="M31.9714 113.072L53.371 100.232L40.9895 89.2148L32.4839 90.7802C32.4839 90.7802 26.4811 96.8923 26.1096 97.6312C25.7401 98.3701 31.9693 113.069 31.9693 113.069L31.9714 113.072Z" fill="#1A1A1A"/>
<path d="M42.8131 97.2488L43.4517 96.8815C43.6738 96.7789 43.9022 96.6956 44.1436 96.6444C47.5518 95.914 51.9103 100.668 53.2684 107.263C54.5241 113.366 53.1232 118.882 50.7763 120.268L42.8644 124.633L36.2124 101.575L42.8131 97.2488Z" fill="black"/>
<path d="M33.6157 114.209C34.9738 120.804 38.8369 125.56 42.2473 124.83C45.6555 124.099 47.319 118.16 45.9609 111.565C44.6027 104.971 40.7396 100.215 37.3293 100.945C33.9211 101.676 32.2575 107.615 33.6157 114.209Z" fill="#333333"/>
<path d="M36.4794 113.596C37.2076 117.133 39.279 119.681 41.1069 119.29C42.9349 118.899 43.8254 115.715 43.0972 112.178C42.369 108.642 40.2976 106.094 38.4696 106.485C36.6417 106.876 35.7512 110.06 36.4772 113.596H36.4794Z" fill="#C3CED8"/>
<path d="M38.4696 106.484C38.8412 106.405 39.2213 106.475 39.5993 106.621C38.034 107.347 37.3036 110.294 37.9785 113.574C38.5593 116.391 39.9922 118.554 41.4742 119.131C41.3525 119.189 41.235 119.261 41.1026 119.289C39.2747 119.68 37.2033 117.132 36.4751 113.596C35.7469 110.059 36.6395 106.875 38.4675 106.484H38.4696Z" fill="black"/>
<path d="M32.484 106.113C31.9074 109.677 31.9715 113.073 31.9715 113.073L22.6395 107.687C20.709 106.572 19.5473 104.458 19.6242 102.196L19.7395 98.7598L32.4861 106.11L32.484 106.113Z" fill="#333333"/>
<path d="M47.791 114.939L78.5845 133.19L78.8408 140.633L48.1775 122.427C48.1775 122.427 48.2843 119.125 47.791 114.939Z" fill="#333333"/>
<path d="M72.9447 130.012L111.855 105.66L175.217 142.905L137.363 167.573L72.9447 130.012Z" fill="#4D4D4D"/>
<path d="M85.1789 144.325L106.579 131.486L94.1971 120.469L85.6915 122.034C85.6915 122.034 79.6886 128.146 79.3171 128.885C78.9476 129.624 85.1768 144.323 85.1768 144.323L85.1789 144.325Z" fill="#1A1A1A"/>
<path d="M96.0207 128.505L96.6592 128.137C96.8813 128.035 97.1098 127.951 97.3511 127.9C100.759 127.17 105.118 131.924 106.476 138.518C107.732 144.622 106.331 150.138 103.984 151.524L96.0719 155.889L89.4199 132.831L96.0207 128.505Z" fill="black"/>
<path d="M86.8232 145.465C88.1814 152.06 92.0444 156.816 95.4548 156.085C98.863 155.355 100.527 149.416 99.1684 142.821C97.8102 136.227 93.9471 131.471 90.5368 132.201C87.1286 132.931 85.465 138.87 86.8232 145.465Z" fill="#333333"/>
<path d="M89.6869 144.852C90.4151 148.389 92.4865 150.937 94.3144 150.546C96.1424 150.155 97.0329 146.971 96.3047 143.434C95.5765 139.898 93.5051 137.35 91.6771 137.741C89.8492 138.132 88.9587 141.316 89.6848 144.852H89.6869Z" fill="#C3CED8"/>
<path d="M91.6771 137.74C92.0487 137.661 92.4288 137.731 92.8068 137.877C91.2415 138.603 90.5111 141.55 91.1859 144.83C91.7668 147.647 93.1997 149.81 94.6817 150.387C94.56 150.445 94.4425 150.517 94.3101 150.545C92.4822 150.936 90.4108 148.388 89.6826 144.851C88.9544 141.315 89.847 138.131 91.675 137.74H91.6771Z" fill="black"/>
<path d="M22.5924 28.313L111.441 83.1807L113.521 87.6569V153.685L163.025 123.736V58.4847C163.025 56.6502 162.549 54.8948 161.68 53.3571C160.815 51.8366 159.57 50.5339 158.024 49.6241L74.9585 0.857856C73.7348 0.144568 72.2357 0.136027 71.0079 0.83223L22.5924 28.313Z" fill="#E6E6E6"/>
<path d="M113.201 154.257V87.7308L111.191 83.4063L21.9625 28.3037L70.8478 0.555954C72.1675 -0.191504 73.8033 -0.18296 75.1187 0.583717L158.186 49.35C159.743 50.2661 161.046 51.5988 161.958 53.2004C162.865 54.8064 163.346 56.6323 163.346 58.486V123.918L163.192 124.012L113.201 154.257ZM23.2203 28.3272L111.691 82.9621L113.841 87.5899V153.121L162.705 123.558V58.486C162.705 56.7434 162.255 55.0242 161.4 53.5165C160.544 52.0109 159.32 50.7616 157.862 49.901L74.7963 1.1347C73.6794 0.483348 72.2871 0.474809 71.1659 1.11122L23.2203 28.3251V28.3272Z" fill="black"/>
<path d="M22.5924 28.3124L111.443 83.1801L113.523 81.9457L161.682 53.3565C160.817 51.836 159.572 50.5333 158.026 49.6214L74.9606 0.855112C73.7349 0.14396 72.2379 0.133283 71.0079 0.829486L22.5924 28.3124Z" fill="#CCCCCC"/>
<path d="M111.439 83.5573L111.274 83.4548L21.9646 28.3031L70.8498 0.55321C72.1696 -0.194248 73.8053 -0.183569 75.1208 0.580973L158.189 49.3472C159.747 50.2655 161.05 51.5981 161.96 53.1998L162.116 53.4732L111.441 83.5552L111.439 83.5573ZM23.2202 28.3266L111.445 82.8077L161.242 53.2468C160.399 51.863 159.235 50.7097 157.862 49.9003L74.7962 1.1341C73.6623 0.474199 72.3041 0.46566 71.1637 1.11061L23.2181 28.3266H23.2202Z" fill="black"/>
<path d="M19.5173 31.4033L19.5451 39.5058L19.5494 40.8597L19.5899 53.479L19.5942 54.8543L19.6348 67.4564L19.6391 68.851L19.6796 81.5129L19.6839 82.9224L19.7373 98.7599L32.4583 106.012C33.2271 101.111 35.1938 95.8043 40.2058 98.5144C45.2477 101.246 47.1141 108.908 47.7974 114.783L54.742 119.061L85.6636 137.51C86.4324 132.609 88.397 127.302 93.4068 130.012C98.453 132.744 100.321 140.406 101.005 146.281L113.514 153.687V88.0627C113.514 84.4237 111.625 81.0601 108.547 79.2214L24.0446 28.7424C22.0308 27.54 19.5003 29.0264 19.5088 31.4055L19.5173 31.4033Z" fill="white"/>
<path d="M113.841 154.251L100.71 146.477L100.691 146.319C100.012 140.476 98.169 132.952 93.2574 130.294C91.8416 129.527 90.603 129.397 89.5801 129.903C87.8803 130.744 86.6374 133.392 85.984 137.561L85.9114 138.029L54.5819 119.336L47.5006 114.975L47.4835 114.821C46.8045 108.978 44.9637 101.455 40.0564 98.7958C38.6384 98.0291 37.3998 97.8967 36.3748 98.405C34.675 99.2464 33.43 101.895 32.7765 106.061L32.7039 106.52L19.4191 98.9453L19.197 31.4029C19.1928 30.1536 19.8291 29.0431 20.9011 28.4302C21.9454 27.8343 23.184 27.8471 24.2175 28.4643L108.72 78.9433C111.881 80.8312 113.843 84.325 113.843 88.0602V154.246L113.841 154.251ZM101.31 146.086L113.201 153.125V88.0623C113.201 84.5514 111.358 81.269 108.389 79.4943L23.8866 29.0153C23.0559 28.5199 22.0565 28.5092 21.2172 28.9875C20.3481 29.483 19.8334 30.3842 19.8355 31.4008L20.0576 98.5715L32.217 105.504C32.9324 101.329 34.2329 98.7488 36.0886 97.8284C37.3101 97.224 38.7473 97.3585 40.3596 98.2299C45.4655 100.995 47.3874 108.617 48.0985 114.588L54.9128 118.783L85.4287 136.989C86.1441 132.818 87.4446 130.24 89.2982 129.324C90.5197 128.72 91.9548 128.854 93.5649 129.726C98.6729 132.491 100.599 140.111 101.31 146.082V146.086Z" fill="black"/>
<path d="M51.6945 64.5047V65.9356L32.1144 54.382V52.9512L51.6945 64.5047Z" fill="white"/>
<path d="M51.6945 70.7977V72.2307L32.1144 60.6771V59.2441L51.6945 70.7977Z" fill="white"/>
<path d="M51.6945 77.0848V78.5199L32.1144 66.9664V65.5312L51.6945 77.0848Z" fill="white"/>
<path d="M137.62 175.017L156.158 161.939L143.157 151.754L131.233 154.146L137.62 175.017Z" fill="#1A1A1A"/>
<path d="M149 156.899L149.63 156.515C149.85 156.408 150.076 156.318 150.315 156.258C153.704 155.436 158.061 160.075 159.59 166.631C161.003 172.698 159.66 178.253 157.313 179.703L150.46 184.07L142.452 161.403L149 156.899Z" fill="black"/>
<path d="M140.242 174.102C141.771 180.659 145.756 185.308 149.145 184.488C152.534 183.666 154.042 177.684 152.515 171.128C150.986 164.571 147.001 159.922 143.612 160.742C140.223 161.564 138.715 167.546 140.242 174.102Z" fill="#333333"/>
<path d="M143.089 173.41C143.909 176.926 146.044 179.418 147.861 178.978C149.679 178.538 150.488 175.33 149.668 171.815C148.848 168.3 146.713 165.808 144.895 166.248C143.078 166.688 142.271 169.895 143.089 173.41Z" fill="#C3CED8"/>
<path d="M144.895 166.248C145.265 166.158 145.647 166.218 146.029 166.354C144.483 167.123 143.83 170.09 144.59 173.348C145.243 176.148 146.732 178.273 148.229 178.809C148.107 178.869 147.994 178.946 147.862 178.978C146.044 179.418 143.909 176.926 143.089 173.41C142.269 169.895 143.078 166.69 144.895 166.248Z" fill="black"/>
<path d="M210.751 112.302C210.751 112.302 212.889 112.108 213.269 110.355C213.651 108.601 213.44 107.433 213.44 107.433C213.44 107.433 212.22 106.154 211.095 106.85C209.583 107.783 208.528 108.321 208.528 108.321L210.751 112.302Z" fill="white"/>
<path d="M210.751 112.515C210.674 112.515 210.602 112.474 210.565 112.406L208.342 108.425C208.315 108.374 208.308 108.314 208.325 108.259C208.342 108.203 208.381 108.156 208.432 108.131C208.443 108.124 209.498 107.584 210.984 106.668C212.242 105.89 213.54 107.229 213.596 107.285C213.623 107.315 213.645 107.353 213.651 107.394C213.66 107.443 213.867 108.624 213.48 110.399C213.07 112.282 210.866 112.504 210.772 112.513C210.766 112.513 210.76 112.513 210.753 112.513L210.751 112.515ZM208.821 108.408L210.864 112.069C211.317 111.992 212.769 111.642 213.06 110.309C213.378 108.846 213.273 107.8 213.237 107.535C213.017 107.328 212.056 106.503 211.204 107.029C210.078 107.725 209.194 108.208 208.819 108.406L208.821 108.408Z" fill="#243149"/>
<path d="M123.936 96.8501C128.888 93.3926 168.505 69.0362 172.676 69.3886C176.846 69.7409 180.82 72.278 180.82 72.278L201.981 84.6239C201.981 84.6239 205.084 86.3345 205.865 89.3371C206.647 92.3398 212.487 116.243 212.487 116.243L217.211 146.981C217.211 146.981 219.575 153.027 214.401 156.217C209.229 159.408 167.504 182.75 167.504 182.75C167.504 182.75 163.284 184.337 159.312 181.945C155.34 179.551 155.34 179.542 155.34 179.542C155.34 179.542 154.953 161.24 145.604 157.072C136.255 152.903 137.359 167.572 137.359 167.572L120.794 157.589L119.774 126.569V104.235C119.774 104.235 118.979 100.306 123.929 96.848L123.936 96.8501Z" fill="#FBBC05"/>
<path d="M210.328 116.859L204.242 91.6716C204.163 91.3406 203.794 91.1804 203.506 91.3491L157.356 117.341C157.172 117.448 157.074 117.662 157.11 117.873L161.702 144.705C161.761 145.057 162.15 145.241 162.453 145.057L210.098 117.42C210.288 117.305 210.382 117.077 210.328 116.857V116.859Z" fill="#BAEDFE"/>
<path d="M162.197 145.329C162.099 145.329 162 145.308 161.909 145.268C161.697 145.171 161.546 144.975 161.507 144.742L156.916 117.911C156.867 117.618 157.003 117.323 157.255 117.174L203.407 91.1794C203.595 91.0705 203.822 91.0555 204.024 91.141C204.232 91.2285 204.379 91.4058 204.432 91.6257L210.518 116.813C210.591 117.118 210.463 117.43 210.198 117.59L162.551 145.229C162.445 145.295 162.321 145.327 162.197 145.327V145.329ZM203.753 91.4805C203.702 91.4805 203.651 91.4933 203.604 91.5211L157.452 117.516C157.343 117.58 157.281 117.712 157.305 117.842L161.896 144.674C161.913 144.778 161.979 144.864 162.073 144.907C162.165 144.947 162.265 144.943 162.351 144.89L209.997 117.251C210.111 117.182 210.168 117.039 210.136 116.905L204.05 91.7176C204.027 91.6193 203.96 91.5403 203.871 91.5019C203.832 91.4869 203.794 91.4784 203.753 91.4784V91.4805Z" fill="#00133D"/>
<g opacity="0.7">
<path d="M175.343 107.211L165.968 143.019L162.451 145.058C162.15 145.242 161.759 145.06 161.702 144.708L160.916 140.11L168.522 111.051L175.343 107.209V107.211Z" fill="white"/>
</g>
<g opacity="0.7">
<path d="M177.568 105.961L180.086 104.545L170.734 140.254L168.206 141.723L177.568 105.961Z" fill="white"/>
</g>
<g opacity="0.7">
<path d="M206.903 102.687L201.78 122.247L194.923 126.223L204.044 91.3789C204.14 91.443 204.21 91.5455 204.24 91.6715L206.903 102.685V102.687Z" fill="white"/>
</g>
<g opacity="0.7">
<path d="M208.842 110.711V110.713L206.546 119.482L204.016 120.947L207.813 106.455L208.842 110.711Z" fill="white"/>
</g>
<path d="M157.048 117.523L161.825 145.439C161.825 145.439 166.323 169.606 167.299 174.789C167.835 177.638 165.825 181.584 164.138 183.16C162.616 183.227 160.668 182.994 158.774 181.853C154.802 179.459 154.802 179.451 154.802 179.451C154.802 179.451 154.368 161.89 146.375 157.461C137.411 152.493 137.359 167.575 137.359 167.575L120.794 157.591L119.774 126.477V104.143C119.774 104.143 119.107 99.6416 124.739 96.293C124.739 96.293 143.67 107.78 149.581 110.576C157.945 114.531 157.044 117.523 157.044 117.523H157.048Z" fill="#FBBC05"/>
<path d="M141.199 143.022L136.2 139.861V145.715L140.915 148.56C141.25 148.762 141.673 148.515 141.673 148.12V143.893C141.673 143.539 141.493 143.21 141.197 143.022H141.199Z" fill="#EAB83D"/>
<path d="M135.145 144.065C135.145 144.065 134.94 144.99 135.871 145.631C136.808 146.271 137.045 145.069 137.045 145.069V141.573C137.045 140.334 136.234 139.835 135.963 139.704C135.914 139.679 135.871 139.662 135.871 139.662C135.747 139.593 135.61 139.664 135.489 139.781C135.247 140.016 135.126 140.349 135.128 140.685L135.145 144.061V144.065Z" fill="#243149"/>
<path d="M215.238 134.125L165.052 162.748L162.91 151.257L213.361 121.918L215.238 134.125Z" fill="#FBBC05"/>
<path d="M164.973 162.916L164.945 162.769L162.791 151.204L162.855 151.166L213.44 121.748L215.351 134.181L215.287 134.218L164.971 162.916H164.973ZM163.03 151.313L165.129 162.581L215.12 134.068L213.28 122.09L163.03 151.311V151.313Z" fill="black"/>
<path d="M172.665 179.516C176.391 177.342 174.339 170.963 174.339 170.963L173.459 168.456L211.221 146.801C211.221 146.801 214.104 156.219 208.93 159.409C205.517 161.513 179.618 175.683 170.318 181.111L172.665 179.516Z" fill="#FFEEA9"/>
<path d="M170.318 181.325C170.248 181.325 170.177 181.289 170.137 181.225C170.075 181.127 170.102 180.999 170.196 180.935L172.543 179.339C172.543 179.339 172.552 179.333 172.556 179.331C176.088 177.27 174.153 171.089 174.134 171.028L173.257 168.527C173.222 168.429 173.263 168.322 173.353 168.271L211.114 146.616C211.17 146.584 211.238 146.579 211.3 146.603C211.36 146.626 211.407 146.678 211.426 146.739C211.546 147.13 214.296 156.354 209.043 159.594C207.426 160.591 200.86 164.241 193.257 168.469C184.854 173.142 175.332 178.436 170.429 181.298C170.395 181.317 170.359 181.328 170.322 181.328L170.318 181.325ZM173.718 168.552L174.538 170.891C174.617 171.134 176.199 176.187 173.807 178.857C179.02 175.89 186.383 171.796 193.044 168.093C200.642 163.869 207.206 160.219 208.814 159.228C213.316 156.452 211.492 148.647 211.086 147.122L173.716 168.552H173.718Z" fill="#243149"/>
<path d="M210.773 134.596C212.057 134.539 213.017 132.653 212.917 130.384C212.816 128.115 211.694 126.321 210.41 126.378C209.125 126.434 208.166 128.32 208.266 130.59C208.366 132.859 209.489 134.653 210.773 134.596Z" fill="#EAB83D"/>
<path d="M210.647 133.72C211.155 133.75 211.65 133.408 212.007 132.71C212.665 131.403 212.575 129.344 211.795 128.109C211.268 127.27 210.565 127.022 209.957 127.362C210.395 127.377 210.841 127.674 211.197 128.248C211.977 129.487 212.067 131.548 211.409 132.853C211.197 133.273 210.933 133.564 210.647 133.718V133.72Z" fill="#FFEEA9"/>
<path d="M209.402 132.833C209.763 133.407 210.211 133.704 210.647 133.719C210.933 133.565 211.2 133.272 211.409 132.854C212.067 131.547 211.977 129.488 211.198 128.25C210.841 127.675 210.395 127.378 209.957 127.363C209.671 127.521 209.404 127.814 209.194 128.228C208.532 129.535 208.622 131.594 209.399 132.833H209.402Z" fill="#F8B027"/>
<path d="M209.402 132.833C209.763 133.407 210.211 133.704 210.647 133.719C210.933 133.565 211.2 133.272 211.409 132.854C212.067 131.547 211.977 129.488 211.198 128.25C210.841 127.675 210.395 127.378 209.957 127.363C209.671 127.521 209.404 127.814 209.194 128.228C208.532 129.535 208.622 131.594 209.399 132.833H209.402Z" fill="white"/>
<path d="M168.957 158.504C170.241 158.447 171.201 156.562 171.1 154.292C171 152.023 169.878 150.229 168.593 150.286C167.309 150.343 166.349 152.228 166.45 154.498C166.55 156.767 167.672 158.561 168.957 158.504Z" fill="#EAB83D"/>
<path d="M168.834 157.63C169.342 157.66 169.838 157.318 170.194 156.62C170.852 155.313 170.762 153.254 169.983 152.02C169.455 151.18 168.753 150.933 168.144 151.272C168.582 151.287 169.028 151.584 169.385 152.158C170.164 153.397 170.254 155.458 169.596 156.763C169.385 157.183 169.12 157.474 168.834 157.628V157.63Z" fill="#FFEEA9"/>
<path d="M167.587 156.743C167.948 157.317 168.396 157.614 168.832 157.629C169.118 157.475 169.385 157.183 169.594 156.764C170.252 155.457 170.162 153.398 169.383 152.16C169.026 151.585 168.58 151.288 168.142 151.273C167.856 151.431 167.589 151.724 167.38 152.138C166.718 153.445 166.807 155.504 167.585 156.743H167.587Z" fill="#F8B027"/>
<path d="M167.587 156.743C167.948 157.317 168.396 157.614 168.832 157.629C169.118 157.475 169.385 157.183 169.594 156.764C170.252 155.457 170.162 153.398 169.383 152.16C169.026 151.585 168.58 151.288 168.142 151.273C167.856 151.431 167.589 151.724 167.38 152.138C166.718 153.445 166.807 155.504 167.585 156.743H167.587Z" fill="white"/>
<path d="M134.635 105.914V131.539C134.635 131.917 134.837 132.263 135.164 132.443L157.994 144.938C158.364 145.141 158.8 144.821 158.727 144.4L153.999 116.695C153.948 116.394 153.766 116.131 153.506 115.979L135.386 105.468C135.051 105.274 134.637 105.521 134.637 105.914H134.635Z" fill="#BAEDFE"/>
<path d="M158.232 145.199C158.118 145.199 158.003 145.171 157.898 145.114L135.068 132.618C134.677 132.405 134.436 131.993 134.436 131.542V105.917C134.436 105.659 134.568 105.428 134.79 105.3C135.008 105.176 135.267 105.176 135.482 105.3L153.602 115.811C153.914 115.993 154.129 116.303 154.191 116.663L158.919 144.368C158.966 144.642 158.855 144.911 158.633 145.071C158.511 145.156 158.372 145.201 158.232 145.201V145.199ZM135.136 105.601C135.085 105.601 135.036 105.614 134.987 105.642C134.889 105.697 134.831 105.802 134.831 105.917V131.542C134.831 131.847 134.995 132.127 135.258 132.272L158.088 144.768C158.191 144.823 158.308 144.817 158.404 144.749C158.505 144.676 158.554 144.559 158.533 144.435L153.805 116.73C153.762 116.484 153.619 116.275 153.407 116.153L135.288 105.642C135.241 105.614 135.19 105.601 135.138 105.601H135.136Z" fill="#00133D"/>
<path d="M153.567 142.54C153.567 142.54 152.703 145.372 149.348 145.114C145.991 144.853 145.717 143.837 145.717 143.837C145.717 143.837 145.777 141.218 148.131 140.093C150.482 138.967 153.57 138.16 153.57 138.16L154.261 139.288L152.66 140.044L153.57 142.542L153.567 142.54Z" fill="white"/>
<path d="M149.773 145.345C149.63 145.345 149.484 145.339 149.331 145.328C145.922 145.065 145.542 144.013 145.51 143.893C145.506 143.874 145.502 143.852 145.504 143.833C145.506 143.72 145.596 141.07 148.037 139.902C150.379 138.78 153.482 137.965 153.514 137.956C153.606 137.933 153.7 137.971 153.751 138.05L154.443 139.178C154.475 139.229 154.484 139.293 154.466 139.351C154.449 139.408 154.409 139.457 154.353 139.483L152.929 140.156L153.772 142.471C153.787 142.513 153.79 142.563 153.777 142.605C153.768 142.633 152.903 145.345 149.777 145.345H149.773ZM145.933 143.801C146.006 143.929 146.542 144.685 149.365 144.903C152.265 145.127 153.192 142.964 153.343 142.545L152.459 140.117C152.421 140.013 152.468 139.897 152.568 139.85L153.954 139.197L153.471 138.409C152.822 138.586 150.234 139.323 148.222 140.286C146.179 141.264 145.957 143.468 145.933 143.801Z" fill="#243149"/>
<path d="M200.183 162.346L198.869 156.915C198.852 156.844 198.773 156.808 198.711 156.844L188.76 162.45C188.719 162.474 188.7 162.519 188.707 162.566L189.697 168.351C189.71 168.428 189.793 168.466 189.86 168.428L200.133 162.467C200.174 162.442 200.195 162.393 200.183 162.346Z" fill="white"/>
<path d="M189.804 168.657C189.759 168.657 189.714 168.648 189.672 168.629C189.574 168.584 189.505 168.494 189.488 168.39L188.497 162.602C188.474 162.468 188.538 162.333 188.653 162.267L198.609 156.661C198.694 156.612 198.799 156.606 198.893 156.644C198.987 156.685 199.055 156.766 199.081 156.866L200.394 162.297C200.426 162.436 200.368 162.579 200.247 162.651L189.969 168.614C189.919 168.644 189.864 168.659 189.806 168.659L189.804 168.657ZM188.929 162.6L189.881 168.168L199.956 162.323L198.694 157.099L188.926 162.6H188.929Z" fill="#243149"/>
<path d="M172.507 165.866C172.428 165.866 172.351 165.825 172.311 165.753C172.249 165.644 172.285 165.505 172.394 165.443L210.155 143.788C210.264 143.726 210.403 143.762 210.465 143.871C210.527 143.98 210.491 144.119 210.382 144.181L172.62 165.836C172.584 165.857 172.545 165.866 172.507 165.866Z" fill="#EAB83D"/>
<path d="M171.499 163.889C171.42 163.889 171.343 163.849 171.303 163.776C171.241 163.667 171.277 163.528 171.386 163.466L209.147 141.811C209.256 141.749 209.395 141.786 209.457 141.895C209.519 142.004 209.483 142.142 209.374 142.204L171.612 163.859C171.576 163.881 171.538 163.889 171.499 163.889Z" fill="#EAB83D"/>
<path d="M162.197 145.328C162.099 145.328 162 145.306 161.909 145.266C161.697 145.169 161.545 144.973 161.507 144.74L156.916 117.909C156.867 117.616 157.003 117.321 157.255 117.172L203.407 91.1775C203.595 91.0685 203.821 91.0536 204.024 91.139C204.231 91.2266 204.379 91.4038 204.432 91.6238L210.518 116.811C210.591 117.116 210.463 117.428 210.198 117.588L162.551 145.227C162.445 145.293 162.321 145.325 162.197 145.325V145.328ZM203.753 91.4786C203.702 91.4786 203.651 91.4914 203.604 91.5191L157.452 117.514C157.343 117.578 157.281 117.71 157.304 117.84L161.896 144.672C161.913 144.777 161.979 144.862 162.073 144.905C162.165 144.945 162.265 144.941 162.351 144.888L209.997 117.249C210.11 117.18 210.168 117.037 210.136 116.903L204.05 91.7156C204.026 91.6174 203.96 91.5384 203.871 91.4999C203.832 91.485 203.794 91.4764 203.753 91.4764V91.4786Z" fill="#00133D"/>
<path d="M85.6913 137.367C85.1147 140.931 85.1788 144.326 85.1788 144.326L78.7809 140.549L78.5161 133.145L85.6913 137.367Z" fill="#333333"/>
<path d="M100.998 146.193L137.363 167.575L137.62 175.017L101.387 153.681C101.387 153.681 101.494 150.379 101.001 146.193H100.998Z" fill="#333333"/>
<path d="M87.3143 184.848L6.00618 137.901C5.34632 137.519 4.90426 136.648 5.02171 135.951L16.1967 69.2227L99.8965 117.549L88.7216 184.278C88.6042 184.974 87.9763 185.228 87.3143 184.846V184.848Z" fill="white"/>
<path d="M87.9165 185.24C87.6881 185.24 87.4446 185.172 87.2076 185.035L5.89942 138.088C5.15627 137.659 4.67792 136.706 4.81032 135.918L15.9853 69.1897C15.9959 69.1214 16.0408 69.0616 16.1048 69.0317C16.1689 69.0018 16.2415 69.0061 16.3035 69.0403L100.003 117.367C100.08 117.411 100.123 117.499 100.108 117.587L88.933 184.315C88.8668 184.704 88.6618 184.999 88.3522 185.144C88.2176 185.208 88.0703 185.238 87.9165 185.238V185.24ZM87.4211 184.665C87.6923 184.821 87.9657 184.856 88.1685 184.759C88.3479 184.676 88.4675 184.493 88.5102 184.247L99.6595 117.663L16.3547 69.5635L5.23101 135.989C5.13065 136.593 5.53425 137.383 6.11297 137.719L87.4211 184.665Z" fill="#243149"/>
<path d="M99.8965 117.554L16.1967 69.2272L17.2516 62.9315C17.369 62.2353 17.9968 61.9812 18.6588 62.3634L99.967 109.31C100.627 109.692 101.069 110.564 100.951 111.26L99.8965 117.556V117.554Z" fill="#FBBC05"/>
<path d="M100.136 118.061L15.8422 69.3913L16.9334 62.8778C17.0039 62.4528 17.2324 62.1303 17.574 61.9701C17.9392 61.7971 18.3919 61.8398 18.8169 62.0854L100.125 109.032C100.904 109.481 101.404 110.482 101.265 111.311L100.136 118.061ZM16.549 69.0603L99.6573 117.045L100.635 111.204C100.729 110.64 100.351 109.899 99.8068 109.585L18.4987 62.6386C18.2595 62.4998 18.0225 62.4677 17.8495 62.5489C17.6616 62.6364 17.5932 62.8329 17.5676 62.9824L16.5511 69.0582L16.549 69.0603Z" fill="black"/>
<path d="M21.61 68.2117C21.4925 68.9079 20.8647 69.162 20.2027 68.7797C19.5429 68.3975 19.1008 67.5261 19.2182 66.8299C19.3357 66.1337 19.9635 65.8796 20.6255 66.2619C21.2875 66.6441 21.7274 67.5155 21.61 68.2117Z" fill="white"/>
<path d="M20.8071 69.1705C20.5786 69.1705 20.3352 69.1022 20.0981 68.9655C19.355 68.5362 18.8767 67.5838 19.009 66.7957C19.0752 66.407 19.2802 66.1123 19.5899 65.9671C19.923 65.8112 20.3395 65.8497 20.7345 66.0782C21.4777 66.5074 21.956 67.4599 21.8236 68.2479C21.7574 68.6366 21.5524 68.9313 21.2428 69.0765C21.1082 69.1406 20.9609 69.1705 20.8071 69.1705ZM20.0255 66.3003C19.9337 66.3003 19.8483 66.3174 19.7714 66.3537C19.592 66.437 19.4724 66.6206 19.4297 66.8662C19.3294 67.4684 19.733 68.2607 20.3117 68.596C20.5829 68.7519 20.8541 68.7861 21.0591 68.69C21.2385 68.6067 21.3581 68.423 21.4008 68.1775C21.5012 67.5731 21.0976 66.7829 20.5188 66.4476C20.3501 66.3494 20.1793 66.3003 20.0255 66.3003Z" fill="#243149"/>
<path d="M25.1979 70.2781C25.0804 70.9743 24.4526 71.2284 23.7906 70.8461C23.1307 70.4639 22.6887 69.5925 22.8061 68.8963C22.9236 68.2001 23.5514 67.946 24.2134 68.3283C24.8754 68.7105 25.3153 69.5819 25.1979 70.2781Z" fill="white"/>
<path d="M24.3928 71.2378C24.1643 71.2378 23.9209 71.1695 23.6838 71.0328C22.9407 70.6036 22.4623 69.6511 22.5947 68.8631C22.6609 68.4744 22.8659 68.1797 23.1756 68.0344C23.5087 67.8764 23.9251 67.917 24.3202 68.1455C25.0633 68.5748 25.5417 69.5272 25.4093 70.3153C25.3431 70.7039 25.1381 70.9987 24.8284 71.1439C24.6939 71.2058 24.5466 71.2378 24.3928 71.2378ZM23.6112 68.3676C23.5194 68.3676 23.434 68.3847 23.3571 68.421C23.1777 68.5043 23.0581 68.6879 23.0154 68.9335C22.9151 69.5379 23.3187 70.3281 23.8974 70.6634C24.1686 70.8193 24.4419 70.8534 24.6448 70.7573C24.8242 70.674 24.9438 70.4904 24.9865 70.2448C25.0868 69.6404 24.6832 68.8502 24.1045 68.515C23.9358 68.4167 23.765 68.3676 23.6112 68.3676Z" fill="#243149"/>
<path d="M28.7851 72.3503C28.6677 73.0465 28.0399 73.3007 27.3779 72.9184C26.718 72.5361 26.276 71.6648 26.3934 70.9686C26.5109 70.2724 27.1387 70.0183 27.8007 70.4005C28.4627 70.7828 28.9026 71.6541 28.7851 72.3503Z" fill="white"/>
<path d="M27.9801 73.3101C27.7516 73.3101 27.5081 73.2418 27.2711 73.1051C26.528 72.6758 26.0496 71.7234 26.182 70.9353C26.2482 70.5466 26.4532 70.2519 26.7629 70.1067C27.096 69.9487 27.5124 69.9893 27.9075 70.2178C28.6506 70.647 29.129 71.5995 28.9966 72.3875C28.9304 72.7762 28.7254 73.0709 28.4157 73.2161C28.2812 73.2802 28.1338 73.3101 27.9801 73.3101ZM27.1985 70.4377C27.1067 70.4377 27.0213 70.4548 26.9444 70.4911C26.765 70.5744 26.6454 70.7581 26.6027 71.0037C26.5023 71.608 26.9059 72.3982 27.4847 72.7335C27.7559 72.8894 28.0271 72.9236 28.2321 72.8275C28.4115 72.7442 28.531 72.5605 28.5737 72.3149C28.6741 71.7127 28.2705 70.9204 27.6918 70.5851C27.5231 70.4868 27.3522 70.4377 27.1985 70.4377Z" fill="#243149"/>
<mask id="mask0_21986_196744" style="mask-type:alpha" maskUnits="userSpaceOnUse" x="0" y="73" width="105" height="121">
<path d="M101.176 147.016L69.1585 151.725L74.7321 132.635L104.49 119.847L100.932 112.986L71.0271 125.838L56.8325 121.663L52.9353 83.9138L46.9069 82.436L50.7742 119.879L34.8158 115.187L15.0072 73.4473L9.91407 75.2113L29.3234 116.108L0.4646 135.456L4.6181 141.993L32.4946 123.303L52.3288 170.563L57.627 169.258L38.2176 123.006L67.9584 131.753L60.8195 156.208L92.512 193.782L96.0569 189.611L70.301 159.072L103.76 154.149L101.176 147.016Z" fill="white"/>
<path d="M92.5121 193.998C92.4502 193.998 92.3904 193.97 92.3498 193.921L60.6551 156.345C60.6081 156.29 60.5932 156.217 60.6124 156.149L67.6915 131.899L38.585 123.34L57.8213 169.178C57.8448 169.236 57.8427 169.302 57.8149 169.358C57.7871 169.413 57.7359 169.454 57.6761 169.469L52.378 170.774C52.2755 170.799 52.1708 170.746 52.1303 170.65L32.3985 123.628L4.73559 142.174C4.68861 142.206 4.62881 142.216 4.57329 142.206C4.51777 142.193 4.46865 142.161 4.43662 142.112L0.283132 135.575C0.221203 135.476 0.248959 135.348 0.345056 135.282L29.0501 116.036L9.71978 75.3061C9.69415 75.2506 9.69202 75.1887 9.71551 75.131C9.739 75.0755 9.78598 75.0328 9.84364 75.0114L14.9367 73.2474C15.0393 73.2132 15.1524 73.2602 15.1994 73.3585L34.9675 115.011L50.5287 119.588L46.6955 82.4604C46.6891 82.392 46.7147 82.3237 46.7681 82.2767C46.8215 82.2319 46.892 82.2148 46.9603 82.2297L52.9866 83.7075C53.0742 83.7289 53.1382 83.8036 53.1489 83.8933L57.0312 121.499L71.0143 125.612L100.849 112.792C100.951 112.749 101.071 112.792 101.122 112.89L104.68 119.752C104.708 119.805 104.712 119.867 104.691 119.923C104.669 119.978 104.629 120.023 104.573 120.047L74.9072 132.794L69.4554 151.47L101.144 146.808C101.242 146.795 101.34 146.851 101.376 146.947L103.96 154.082C103.982 154.142 103.975 154.21 103.943 154.263C103.911 154.317 103.854 154.355 103.792 154.366L70.711 159.233L96.2214 189.477C96.2876 189.556 96.2876 189.674 96.2214 189.753L92.6765 193.925C92.6359 193.972 92.5762 194 92.5142 194L92.5121 193.998ZM61.0544 156.16L92.5121 193.456L95.7772 189.614L70.1366 159.214C70.0875 159.154 70.0725 159.073 70.1003 159C70.128 158.927 70.1921 158.876 70.269 158.865L103.469 153.981L101.033 147.256L69.1884 151.94C69.1158 151.95 69.0432 151.923 68.9963 151.869C68.9493 151.816 68.9322 151.739 68.9514 151.668L74.525 132.578C74.5421 132.516 74.5869 132.467 74.6467 132.442L104.193 119.744L100.834 113.262L71.1104 126.035C71.0655 126.054 71.0143 126.058 70.9652 126.044L56.7707 121.868C56.6874 121.845 56.6276 121.772 56.619 121.685L52.7368 84.0855L47.1504 82.7166L50.9857 119.859C50.9921 119.929 50.9643 120 50.9088 120.045C50.8533 120.09 50.7807 120.107 50.7123 120.085L34.7539 115.391C34.6963 115.374 34.6472 115.334 34.6215 115.278L14.894 73.713L10.2067 75.336L29.5135 116.017C29.5583 116.113 29.5263 116.226 29.4388 116.286L0.752925 135.517L4.67793 141.693L32.3729 123.124C32.4263 123.088 32.4925 123.079 32.5523 123.096C32.6142 123.116 32.6633 123.16 32.6868 123.218L52.4485 170.31L57.328 169.108L38.0148 123.086C37.9828 123.009 37.9977 122.921 38.0532 122.861C38.1088 122.8 38.1942 122.776 38.2732 122.8L68.0139 131.547C68.1271 131.581 68.1912 131.699 68.1591 131.812L61.0523 156.155L61.0544 156.16Z" fill="#243149"/>
<path d="M10.937 94.9004L20.9011 111.571L7.86194 118.986L0.466797 100.897L10.937 94.9004Z" fill="#E7EEF2"/>
<path d="M21.2686 78.7836L28.4224 93.406L41.2971 87.1039L34.6943 74.1152L21.2686 78.7836Z" fill="#E7EEF2"/>
<path d="M17.8708 144.063L26.5302 155.85L38.2945 149.601L31.8283 134.934L17.8708 144.063Z" fill="#E7EEF2"/>
<path d="M31.3842 97.6267L35.7277 108.621L46.0912 106.043L42.7619 93.9492L31.3842 97.6267Z" fill="#E7EEF2"/>
<path d="M80.8951 161.274L85.0914 172.804L97.0842 172.762L93.7528 160.67L80.8951 161.274Z" fill="#E7EEF2"/>
<path d="M44.7479 129.236L51.3145 144.16L59.5297 145.157L62.1243 133.738L44.7479 129.236Z" fill="#E7EEF2"/>
<path d="M63.4611 164.868L58.257 155.488L59.44 148.661L52.6215 147.832L58.0071 163.01L63.4611 164.868Z" fill="#E7EEF2"/>
<path d="M57.5885 85.9375L59.8734 118.334L70.3971 120.921L69.2567 90.072L57.5885 85.9375Z" fill="#E7EEF2"/>
<path d="M71.7424 97.7715L73.8373 115.822L89.4049 113.671L84.2627 98.3331L71.7424 97.7715Z" fill="#E7EEF2"/>
<path d="M74.4802 139.65L76.3765 145.82L84.0343 144.127L81.8455 137.434L74.4802 139.65Z" fill="#E7EEF2"/>
<path d="M83.5217 137L85.9241 144.043L92.07 141.577L89.2213 134.896L83.5217 137Z" fill="#E7EEF2"/>
<path d="M91.408 133.885L93.8104 140.928L99.9563 138.462L97.1075 131.779L91.408 133.885Z" fill="#E7EEF2"/>
</mask>
<g mask="url(#mask0_21986_196744)">
<path d="M7.50159 135.982L18.1567 73.0996L97.1097 118.69L86.4545 181.573L7.50159 135.982Z" fill="#D9D9D9" stroke="black"/>
</g>
<path d="M86.5412 181.854C86.5049 181.854 86.4665 181.845 86.4345 181.826L7.51593 136.261C7.43906 136.216 7.39634 136.129 7.41128 136.041L17.9541 73.0901C17.9648 73.0218 18.0096 72.962 18.0737 72.9321C18.1378 72.9022 18.2104 72.9065 18.2723 72.9406L97.1908 118.506C97.2677 118.55 97.3104 118.638 97.2955 118.726L86.7526 181.676C86.742 181.745 86.6971 181.805 86.6331 181.834C86.6032 181.847 86.5733 181.856 86.5412 181.856V181.854ZM7.85974 135.964L86.3832 181.301L96.8492 118.798L18.3257 73.4596L7.85974 135.962V135.964Z" fill="#243149"/>
<path d="M55.3569 109.44C50.4047 106.58 45.681 108.489 44.8076 113.705C43.9342 118.918 48.6899 136.658 50.614 137.768C52.5359 138.879 61.8701 129.275 62.7435 124.06C63.6169 118.843 60.309 112.299 55.3569 109.438V109.44ZM58.2611 121.472C57.8234 124.077 55.4615 125.034 52.9844 123.603C50.5072 122.174 48.8565 118.9 49.2921 116.293C49.7278 113.683 52.0896 112.731 54.5667 114.159C57.0439 115.588 58.6968 118.862 58.2611 121.47V121.472Z" fill="#CA3300"/>
<path d="M58.2612 121.474C57.8235 124.08 55.4616 125.036 52.9845 123.606C50.5073 122.177 48.8566 118.903 49.2923 116.295C49.7279 113.686 52.0897 112.733 54.5669 114.162C57.044 115.591 58.6969 118.865 58.2612 121.472V121.474Z" fill="white"/>
<path d="M86.5412 181.854C86.5049 181.854 86.4665 181.845 86.4345 181.826L7.51593 136.261C7.43906 136.216 7.39634 136.129 7.41128 136.041L17.9541 73.0901C17.9648 73.0218 18.0096 72.962 18.0737 72.9321C18.1378 72.9022 18.2104 72.9065 18.2723 72.9406L97.1908 118.506C97.2677 118.55 97.3104 118.638 97.2955 118.726L86.7526 181.676C86.742 181.745 86.6971 181.805 86.6331 181.834C86.6032 181.847 86.5733 181.856 86.5412 181.856V181.854ZM7.85974 135.964L86.3832 181.301L96.8492 118.798L18.3257 73.4596L7.85974 135.962V135.964Z" fill="#243149"/>
<path d="M18.0823 164.048C18.0823 164.048 17.952 165.846 17.952 166.066C17.952 166.286 18.3684 166.532 19.103 166.532C19.8377 166.532 20.4014 165.306 20.4014 165.306C20.4014 165.306 21.6272 165.428 22.68 164.988C23.7349 164.546 24.2495 164.008 24.1748 163.713C24.1022 163.418 22.68 163.369 21.798 163.369H20.632L18.0801 164.048H18.0823Z" fill="#243149"/>
<path d="M19.1031 166.748C18.298 166.748 17.7385 166.468 17.7385 166.069C17.7385 165.842 17.8645 164.108 17.8688 164.036C17.8752 163.944 17.9393 163.869 18.0268 163.846L20.5787 163.167C20.5958 163.162 20.615 163.16 20.6342 163.16H21.8002C24.2581 163.16 24.3414 163.489 24.3841 163.664C24.4994 164.13 23.8652 164.728 22.7633 165.187C21.8792 165.556 20.8969 165.55 20.5296 165.531C20.3459 165.883 19.8185 166.748 19.1031 166.748ZM18.2831 164.217C18.2425 164.792 18.1635 165.909 18.1635 166.069C18.1806 166.118 18.4539 166.321 19.101 166.321C19.59 166.321 20.0747 165.505 20.205 165.219C20.2434 165.136 20.331 165.089 20.4207 165.095C20.4335 165.095 21.608 165.206 22.5967 164.792C23.5684 164.386 23.9506 163.94 23.9677 163.79C23.8353 163.707 23.2545 163.583 21.7959 163.583H20.6577L18.2809 164.215L18.2831 164.217Z" fill="#243149"/>
<path d="M22.2252 166.824C22.2252 166.824 22.095 168.622 22.095 168.842C22.095 169.062 22.5114 169.307 23.246 169.307C23.9806 169.307 24.5444 168.082 24.5444 168.082C24.5444 168.082 25.7701 168.203 26.8229 167.763C27.8778 167.321 28.3925 166.783 28.3177 166.488C28.2451 166.194 26.8229 166.145 25.941 166.145H24.775L22.2231 166.824H22.2252Z" fill="#243149"/>
<path d="M23.246 169.521C22.4409 169.521 21.8793 169.241 21.8793 168.842C21.8793 168.616 22.0053 166.882 22.0095 166.809C22.0159 166.717 22.08 166.642 22.1676 166.619L24.7194 165.942C24.7365 165.938 24.7557 165.936 24.775 165.936H25.9409C28.3989 165.936 28.4822 166.264 28.5249 166.44C28.6402 166.905 28.0059 167.503 26.904 167.962C26.0199 168.332 25.0376 168.325 24.6703 168.306C24.4867 168.658 23.9592 169.523 23.2438 169.523L23.246 169.521ZM22.4259 166.991C22.3854 167.565 22.3064 168.682 22.3064 168.842C22.3235 168.891 22.5968 169.094 23.246 169.094C23.735 169.094 24.2091 168.3 24.3521 167.992C24.3906 167.909 24.4781 167.862 24.5678 167.868C24.5806 167.868 25.7551 167.979 26.7439 167.565C27.7155 167.157 28.0978 166.713 28.1148 166.563C27.9824 166.48 27.4016 166.356 25.9431 166.356H24.8049L22.4281 166.988L22.4259 166.991Z" fill="#243149"/>
<path d="M24.8987 117.369C24.8987 117.369 25.2169 118.815 25.2169 119.968C25.2169 121.121 24.7257 123.645 24.2858 123.645C23.8459 123.645 22.9383 123.376 22.9383 123.376L22.6265 125.411L20.2412 124.798L20.6085 121.392C20.6085 121.392 20.7068 117.177 22.2507 117.078C23.7946 116.98 24.8987 117.373 24.8987 117.373V117.369Z" fill="#FFCCD1"/>
<path d="M22.6266 125.623C22.6095 125.623 22.5903 125.62 22.5732 125.616L20.1879 125.003C20.0854 124.978 20.017 124.879 20.0277 124.773L20.395 121.364C20.4035 120.931 20.5445 116.967 22.2358 116.86C23.8054 116.76 24.9222 117.151 24.9671 117.166C25.0375 117.191 25.0888 117.249 25.1037 117.322C25.1165 117.381 25.4283 118.804 25.4283 119.965C25.4283 120.709 25.0461 123.856 24.2837 123.856C23.957 123.856 23.4189 123.726 23.1092 123.643L22.8337 125.439C22.8252 125.499 22.791 125.552 22.7397 125.584C22.7034 125.608 22.6629 125.62 22.6223 125.62L22.6266 125.623ZM20.474 124.636L22.4515 125.144L22.7269 123.342C22.7355 123.28 22.7718 123.226 22.823 123.194C22.8743 123.16 22.9384 123.154 22.9982 123.171C23.2373 123.241 23.9164 123.423 24.2602 123.431C24.5293 123.214 25.0034 121.187 25.0034 119.97C25.0034 119.043 24.7898 117.905 24.7151 117.537C24.4033 117.445 23.468 117.215 22.2657 117.289C21.1659 117.36 20.8477 120.352 20.8242 121.396L20.4762 124.638L20.474 124.636Z" fill="#243149"/>
<path d="M21.3689 122.468C20.2904 122.468 19.5388 120.473 19.5067 119.004C19.4747 117.533 19.7672 115.703 21.86 115.572C23.9528 115.442 25.7487 116.651 25.7487 116.978C25.7487 117.304 25.3558 118.088 24.6703 118.024C23.9848 117.958 24.066 119.25 24.066 119.871C24.066 120.493 23.1669 119.903 23.0196 120.117C22.8722 120.33 22.6929 122.47 21.3689 122.47V122.468Z" fill="#243149"/>
<path d="M21.3689 122.682C20.0854 122.682 19.3252 120.511 19.2932 119.009C19.2419 116.696 20.1004 115.468 21.8472 115.36C23.5235 115.255 25.1209 116 25.721 116.564C25.8875 116.72 25.9644 116.852 25.9644 116.978C25.9644 117.235 25.7957 117.662 25.4818 117.946C25.2405 118.166 24.9522 118.266 24.6511 118.236C24.5657 118.228 24.5251 118.255 24.4952 118.281C24.2646 118.492 24.2731 119.268 24.2774 119.684V119.868C24.2774 120.047 24.2218 120.184 24.1108 120.274C23.9101 120.434 23.6303 120.372 23.3847 120.318C23.3228 120.306 23.2374 120.286 23.1797 120.28C23.1626 120.338 23.1392 120.436 23.1178 120.517C22.9427 121.22 22.5797 122.68 21.3667 122.68L21.3689 122.682ZM22.1718 115.776C22.0736 115.776 21.9732 115.778 21.8728 115.785C20.3566 115.878 19.6733 116.901 19.7203 118.999C19.7523 120.474 20.4954 122.255 21.3689 122.255C22.2423 122.255 22.5455 121.059 22.7035 120.417C22.7633 120.177 22.7911 120.069 22.8423 119.994C22.9811 119.795 23.2438 119.853 23.4744 119.904C23.5769 119.928 23.7883 119.975 23.8417 119.943C23.8417 119.943 23.8503 119.923 23.8503 119.87V119.691C23.8417 119.107 23.8332 118.309 24.2048 117.967C24.335 117.848 24.5016 117.792 24.6895 117.811C24.871 117.828 25.0397 117.766 25.1914 117.63C25.4028 117.437 25.5224 117.143 25.533 116.998C25.3921 116.716 23.9207 115.778 22.1697 115.778L22.1718 115.776Z" fill="#243149"/>
<path d="M22.9897 125.409L23.1371 124.211C23.1371 124.211 21.8174 123.43 20.7902 123.259C19.763 123.088 19.8378 123.43 19.8378 123.43V124.448L22.9897 125.409Z" fill="#FBBC05"/>
<path d="M23.0815 125.548L19.731 124.527V123.438C19.7246 123.387 19.7395 123.31 19.8015 123.246C19.9467 123.094 20.2755 123.064 20.8094 123.154C21.843 123.327 23.1371 124.087 23.1926 124.121L23.2524 124.158L23.0815 125.55V125.548ZM19.9445 124.369L22.9 125.27L23.0217 124.269C22.7548 124.117 21.6444 123.508 20.7731 123.363C20.1645 123.263 20 123.355 19.9637 123.387C19.9445 123.404 19.9445 123.414 19.9445 123.417V124.369Z" fill="white"/>
<path d="M18.236 143.315C18.1058 143.364 17.8303 142.933 17.7449 142.243C17.6979 141.859 18.0887 141.509 18.0161 141.19C17.9435 140.872 17.8324 140.524 17.8324 140.524L18.8724 140.127C18.8724 140.127 18.9792 140.71 19.1287 141.116C19.2782 141.524 19.6262 141.265 19.891 142.374C20.1024 143.256 19.5729 143.871 19.2056 143.984C18.8511 144.093 18.6866 143.559 18.5457 142.984C18.4048 142.41 18.2126 142.307 18.2126 142.307C18.2126 142.307 18.4838 143.221 18.236 143.315Z" fill="#FBBC05"/>
<path d="M19.1158 144.106C19.0518 144.106 18.992 144.089 18.9343 144.057C18.6845 143.914 18.5563 143.472 18.4474 143.028C18.4474 143.212 18.4026 143.365 18.2745 143.414C18.2382 143.429 18.1784 143.436 18.1079 143.393C17.9328 143.288 17.715 142.864 17.6381 142.257C17.6103 142.033 17.7086 141.826 17.794 141.642C17.8687 141.484 17.9392 141.334 17.9114 141.213C17.8409 140.903 17.732 140.559 17.7299 140.555L17.6979 140.459L18.9514 139.98L18.9749 140.106C18.9749 140.106 19.0817 140.685 19.2269 141.078C19.2696 141.196 19.3294 141.24 19.4191 141.309C19.5963 141.441 19.8163 141.606 19.9935 142.349C20.2092 143.252 19.6839 143.948 19.2354 144.085C19.1948 144.098 19.1543 144.104 19.1137 144.104L19.1158 144.106ZM18.0374 142.095L18.2616 142.214C18.3001 142.236 18.5051 142.368 18.6503 142.962C18.7186 143.242 18.8468 143.763 19.0411 143.874C19.0817 143.897 19.1244 143.899 19.1756 143.884C19.4789 143.79 19.9892 143.244 19.7864 142.402C19.6262 141.734 19.4404 141.595 19.2909 141.482C19.1927 141.409 19.0924 141.332 19.0262 141.155C18.9151 140.856 18.8297 140.47 18.7891 140.275L17.9606 140.591C17.999 140.717 18.0673 140.95 18.1164 141.17C18.1613 141.364 18.0716 141.554 17.984 141.738C17.9072 141.902 17.826 142.071 17.8474 142.234C17.92 142.817 18.1228 143.152 18.2061 143.209C18.2552 143.145 18.2382 142.785 18.1079 142.34L18.0353 142.097L18.0374 142.095Z" fill="white"/>
<path d="M17.6487 141.252C17.6487 141.252 18.0801 141.376 18.6096 141.245C19.1286 141.115 19.4532 140.848 19.4532 140.848L19.3379 140.316L17.5312 140.709L17.6487 141.252Z" fill="#FBBC05"/>
<path d="M18.1079 141.413C17.8239 141.413 17.6296 141.36 17.6189 141.356L17.557 141.338L17.4032 140.629L19.4191 140.189L19.5707 140.89L19.5195 140.931C19.5045 140.941 19.1714 141.215 18.6354 141.349C18.4432 141.398 18.2617 141.413 18.1079 141.413ZM17.7385 141.163C17.8709 141.189 18.2019 141.236 18.5841 141.142C18.9578 141.05 19.2269 140.879 19.3337 140.805L19.2547 140.444L17.6573 140.792L17.7385 141.163Z" fill="white"/>
<path d="M18.8064 136.926C18.6206 135.839 18.4754 133.94 18.4177 133.11C18.9153 130.912 20.1774 126.664 18.4903 124.292C17.8155 123.429 16.7499 126.656 16.4467 128.759C16.1434 130.863 15.9107 132.574 15.8189 133.11C15.7954 134.658 16.878 139.363 17.2283 140.657C17.2283 140.657 17.3436 141.016 18.5053 140.751C19.1117 140.612 19.4791 140.266 19.4791 140.266C19.4 139.472 18.9345 137.665 18.8085 136.926H18.8064Z" fill="#FBBC05"/>
<path d="M17.7771 140.954C17.2539 140.954 17.145 140.747 17.1258 140.694C16.7756 139.395 15.6865 134.665 15.7121 133.108C15.7698 132.76 15.8808 131.985 16.0324 130.911C16.1221 130.272 16.2268 129.535 16.3399 128.745C16.5663 127.175 17.365 124.265 18.1508 124.055C18.2597 124.028 18.422 124.032 18.5737 124.226C20.1261 126.409 19.2613 130.029 18.689 132.425C18.6292 132.672 18.5736 132.905 18.5267 133.119C18.5822 133.909 18.7295 135.822 18.9132 136.907C18.9623 137.191 19.0627 137.642 19.1694 138.118C19.3403 138.889 19.5368 139.76 19.5859 140.256L19.5901 140.309L19.5517 140.346C19.5367 140.361 19.1545 140.713 18.5288 140.856C18.2127 140.929 17.9693 140.954 17.7792 140.954H17.7771ZM18.2448 124.256C18.2277 124.256 18.2149 124.26 18.2042 124.263C17.6426 124.412 16.8247 126.87 16.5492 128.777C16.436 129.569 16.3314 130.304 16.2417 130.943C16.0901 132.017 15.979 132.794 15.9235 133.129C15.9022 134.648 16.9827 139.348 17.3308 140.632C17.3628 140.694 17.6426 140.839 18.4797 140.649C18.9388 140.544 19.2591 140.311 19.3659 140.224C19.3082 139.733 19.1246 138.902 18.9602 138.167C18.8534 137.687 18.7509 137.234 18.7018 136.946C18.5139 135.844 18.3665 133.903 18.311 133.119V133.087C18.3622 132.869 18.4199 132.63 18.4797 132.376C19.0434 130.018 19.8955 126.451 18.4007 124.354C18.3366 124.273 18.2811 124.256 18.2448 124.256Z" fill="white"/>
<path d="M17.2858 140.252C17.2858 140.252 17.9072 150.783 18.0097 153.811C18.0951 156.337 18.0823 164.049 18.0823 164.049C18.0823 164.049 19.7821 164.506 20.5979 163.754C20.5979 163.754 21.4094 156.529 21.5973 154.114C21.8215 151.233 22.2016 141.661 22.2016 141.661L17.2858 140.252Z" fill="white"/>
<path d="M19.1864 164.402C18.58 164.402 18.0653 164.267 18.0269 164.257C17.9329 164.231 17.8688 164.148 17.8688 164.049C17.8688 163.973 17.8795 156.312 17.7962 153.818C17.6959 150.828 17.0787 140.37 17.0723 140.263C17.068 140.195 17.0979 140.127 17.1513 140.084C17.2047 140.041 17.2773 140.026 17.3435 140.045L22.2593 141.455C22.3533 141.483 22.4174 141.57 22.4131 141.668C22.4089 141.765 22.0309 151.279 21.8088 154.13C21.623 156.521 20.8158 163.706 20.8072 163.776C20.8008 163.827 20.7773 163.874 20.7389 163.908C20.3203 164.293 19.716 164.398 19.1822 164.398L19.1864 164.402ZM18.2959 163.881C18.7038 163.964 19.795 164.126 20.3951 163.65C20.4869 162.836 21.2108 156.344 21.3859 154.1C21.591 151.467 21.9305 143.114 21.9839 141.822L17.5186 140.541C17.6211 142.286 18.1336 151.095 18.2255 153.805C18.3023 156.096 18.2981 162.73 18.2981 163.881H18.2959Z" fill="#243149"/>
<path d="M20.9802 141.145C20.9802 141.145 21.0443 142.243 21.1425 143.112C21.4394 145.737 22.0458 151.266 22.1355 153.391C22.2807 156.746 22.2231 166.821 22.2231 166.821C22.2231 166.821 23.3805 167.221 24.2432 166.939C24.4269 166.881 24.5977 166.789 24.7408 166.657C24.7408 166.657 25.6292 156.816 25.6569 153.525C25.6847 150.153 25.5971 141.002 25.5971 141.002L24.7686 141.028L20.9802 141.145Z" fill="white"/>
<path d="M23.5321 167.255C22.8317 167.255 22.191 167.038 22.1547 167.025C22.0693 166.995 22.0095 166.914 22.0116 166.822C22.0116 166.722 22.0672 156.712 21.9241 153.402C21.8365 151.343 21.2642 146.087 20.9311 143.138C20.8329 142.273 20.7688 141.169 20.7667 141.159C20.7624 141.101 20.7837 141.045 20.8222 141.003C20.8606 140.96 20.9162 140.934 20.9738 140.932L25.5907 140.789C25.6484 140.789 25.7039 140.808 25.7445 140.849C25.785 140.889 25.8106 140.943 25.8106 141C25.8106 141.092 25.8982 150.194 25.8704 153.528C25.8427 156.789 24.9629 166.578 24.9543 166.677C24.9501 166.73 24.9244 166.779 24.886 166.813C24.728 166.961 24.5336 167.07 24.3094 167.142C24.0596 167.223 23.7926 167.253 23.5321 167.253V167.255ZM22.4387 166.666C22.7633 166.756 23.5641 166.939 24.1792 166.739C24.318 166.694 24.4375 166.634 24.5379 166.555C24.6255 165.575 25.4199 156.607 25.4455 153.528C25.4711 150.487 25.4006 142.638 25.3878 141.227L21.2087 141.355C21.2322 141.718 21.2856 142.47 21.356 143.091C21.6892 146.047 22.2615 151.313 22.3512 153.385C22.4836 156.475 22.4473 165.365 22.4409 166.668L22.4387 166.666Z" fill="#243149"/>
<path d="M36.4968 131.791L36.9943 131.556C36.9943 131.556 36.8854 131.227 36.5907 130.716C36.3452 130.296 36.1594 130.012 36.1594 130.012L35.6383 130.234L36.4989 131.791H36.4968Z" fill="#FBBC05"/>
<path d="M36.2172 130.983C36.0079 130.637 35.6769 130.133 35.6769 130.133C33.5137 130.726 31.7284 131.621 29.5417 132.332C28.6875 131.002 27.009 128.606 25.4202 126.581C25.0401 126.073 24.3995 125.789 23.7844 125.558C23.1545 125.103 22.4968 124.802 21.4974 124.49C20.026 124.031 18.8857 123.897 18.0358 124.191C15.7722 126.474 16.5004 136.428 17.1538 140.099C16.9958 142.047 23.3766 143.239 24.7924 141.928C25.3348 141.582 25.5975 141.148 25.5975 140.821C25.5868 138.041 25.8772 135.218 25.747 132.035C27.498 134.113 27.2503 135.207 29.3666 135.516C31.1177 135.288 35.2968 132.486 36.6635 131.83C36.6635 131.83 36.4884 131.435 36.2172 130.983Z" fill="#FBBC05"/>
<path d="M22.5779 142.586C21.1983 142.586 19.5562 142.25 18.4308 141.701C17.4848 141.24 17.0064 140.689 17.0448 140.104C16.3764 136.33 15.691 126.404 17.9588 124.117L17.9759 124.1L17.9994 124.091C18.8301 123.803 19.9512 123.899 21.5293 124.39C22.5437 124.706 23.2142 125.018 23.8356 125.464C24.4741 125.704 25.1148 125.998 25.5056 126.519C27.0282 128.454 28.696 130.825 29.5886 132.207C30.5005 131.908 31.3525 131.572 32.1768 131.248C33.3278 130.795 34.4169 130.368 35.6491 130.03L35.7238 130.009L35.7665 130.073C35.7665 130.073 36.1018 130.584 36.3089 130.927C36.5801 131.38 36.7531 131.771 36.7617 131.786L36.8044 131.88L36.7104 131.925C36.3025 132.119 35.6363 132.512 34.8632 132.967C33.0737 134.018 30.6265 135.457 29.3793 135.621H29.3494C27.876 135.406 27.5022 134.808 26.883 133.819C26.6288 133.411 26.3192 132.916 25.8643 132.348C25.922 134.116 25.8558 135.773 25.7917 137.379C25.7448 138.566 25.6999 139.688 25.7042 140.819C25.7042 141.223 25.3774 141.682 24.85 142.017C24.425 142.413 23.5708 142.586 22.58 142.586H22.5779ZM18.0934 124.284C15.9002 126.552 16.5943 136.358 17.2563 140.078V140.106C17.2178 140.595 17.6663 141.093 18.5226 141.509C20.3612 142.404 23.7609 142.735 24.7176 141.849C25.2899 141.481 25.4885 141.067 25.4885 140.819C25.4842 139.683 25.5291 138.56 25.5761 137.368C25.6444 135.67 25.7149 133.917 25.638 132.038L25.6252 131.726L25.8259 131.965C26.4025 132.649 26.7677 133.236 27.0624 133.706C27.6667 134.671 27.9998 135.205 29.3622 135.408C30.5688 135.241 32.984 133.821 34.7501 132.783C35.4697 132.36 36.0997 131.991 36.5182 131.779C36.452 131.636 36.3089 131.35 36.121 131.036C35.9609 130.767 35.7217 130.402 35.6256 130.255C34.434 130.586 33.3727 131.004 32.2494 131.444C31.3974 131.779 30.5176 132.123 29.5694 132.431L29.4904 132.456L29.4455 132.386C28.57 131.019 26.8744 128.61 25.3284 126.643C24.9653 126.161 24.3503 125.883 23.7395 125.655L23.7139 125.642C23.101 125.2 22.4668 124.905 21.4567 124.591C19.9406 124.119 18.8685 124.021 18.0848 124.281L18.0934 124.284Z" fill="white"/>
<path d="M36.0033 55.4966C51.2422 55.4966 63.5958 43.1423 63.5958 27.9026C63.5958 12.6628 51.2422 0.308594 36.0033 0.308594C20.7645 0.308594 8.41089 12.6628 8.41089 27.9026C8.41089 43.1423 20.7645 55.4966 36.0033 55.4966Z" fill="#CA3300"/>
<path d="M31.7859 46.2084C31.7859 43.9319 33.6608 41.9223 36.0056 41.9223C38.3503 41.9223 40.2253 43.9319 40.2253 46.2084C40.2253 48.485 38.3503 50.4284 36.0056 50.4284C33.6608 50.4284 31.7859 48.485 31.7859 46.2084ZM39.6893 7.75922C39.6893 10.2386 38.9525 16.6006 38.0813 25.978L37.21 35.2891H34.799L33.9277 25.978C33.0565 16.6006 32.3198 10.2365 32.3198 7.75922C32.3198 4.8783 33.727 3.67383 36.0034 3.67383C38.2799 3.67383 39.6871 4.88044 39.6871 7.75922H39.6893Z" fill="white"/>
<path d="M53.8216 128.105C58.4979 128.105 62.2888 124.314 62.2888 119.638C62.2888 114.961 58.4979 111.17 53.8216 111.17C49.1454 111.17 45.3545 114.961 45.3545 119.638C45.3545 124.314 49.1454 128.105 53.8216 128.105Z" fill="#CA3300"/>
<path d="M51.9745 125.098C52.045 124.402 52.6792 123.847 53.3946 123.919C54.11 123.992 54.6204 124.662 54.552 125.356C54.4816 126.053 53.8494 126.587 53.1341 126.516C52.4187 126.446 51.9062 125.794 51.9745 125.098ZM55.5642 113.602C55.4874 114.358 55.0688 116.28 54.5157 119.116L53.9648 121.933L53.228 121.858L53.2473 118.988C53.2686 116.099 53.2387 114.134 53.3134 113.376C53.401 112.496 53.8687 112.171 54.5627 112.242C55.2567 112.312 55.6497 112.722 55.5621 113.602H55.5642Z" fill="white"/>
</svg>
