<svg width="263" height="263" viewBox="0 0 263 263" fill="none" xmlns="http://www.w3.org/2000/svg">
<path d="M53.9159 160.76C40.004 161.496 -0.000108479 138.355 -0.000108479 138.355C-0.000108479 138.355 37.3383 111.121 51.2502 110.385C65.1622 109.649 83.5914 119.981 84.3275 133.893C85.0637 147.805 67.8278 160.024 53.9159 160.76Z" fill="#ED572F"/>
<path d="M57.8976 154.761C47.1766 155.328 16.3508 137.496 16.3508 137.496C16.3508 137.496 45.1226 116.511 55.8435 115.944C66.5644 115.376 80.7707 123.336 81.338 134.057C81.9053 144.778 68.6185 154.193 57.8976 154.761Z" fill="#EA902F"/>
<path d="M62.7677 150.199C54.4205 150.641 30.4029 136.747 30.4029 136.747C30.4029 136.747 52.82 120.395 61.1671 119.953C69.5143 119.511 80.5838 125.716 81.0306 134.068C81.4729 142.424 71.1246 149.757 62.7677 150.199Z" fill="#F4BD31"/>
<path d="M66.8746 144.729C61.4168 145.017 45.7268 135.936 45.7268 135.936C45.7268 135.936 60.3758 125.253 65.8285 124.96C71.2862 124.671 78.5153 128.728 78.8041 134.185C79.0929 139.643 72.3323 144.44 66.8746 144.729Z" fill="#FFE269"/>
<path d="M137.347 95.1815C94.3505 56.5065 85.4151 73.4863 41.4425 100.256L73.3041 112.497L137.347 95.1815Z" fill="#FB971F"/>
<path d="M141.134 166.803C102.459 209.799 91.7819 193.857 45.2297 171.878L75.6215 156.343L141.134 166.803Z" fill="#FB971F"/>
<path d="M45.2246 171.874C59.8079 178.756 70.8677 185.053 80.3708 189.126C78.8079 179.594 82.1609 165.71 112.837 162.282L75.6112 156.335L45.2246 171.874Z" fill="#F1511B"/>
<path d="M41.4417 100.256L73.3033 112.497L136.336 95.4495C100.127 101.156 70.2503 106.517 66.4257 84.2956C59.3317 88.7831 51.2614 94.2735 41.4417 100.256Z" fill="#F1511B"/>
<path d="M187.785 168.077C230.348 164.361 262.729 124.468 262.729 124.468C262.729 124.468 226.314 88.2105 183.601 89.0122C140.893 89.8088 73.3005 112.502 73.3005 112.502L75.6218 156.369C75.6264 156.363 145.231 171.792 187.785 168.077Z" fill="white"/>
<path d="M238.971 106.311C224.543 97.3915 204.855 88.6141 183.603 89.0118C140.895 89.8084 73.3024 112.502 73.3024 112.502L75.6237 156.368C75.6237 156.368 79.6511 157.257 86.3495 158.566C75.7908 115.648 120.781 86.2631 238.971 106.311Z" fill="#DAD5E2"/>
<path d="M228.655 153.611C249.424 140.863 262.736 124.467 262.736 124.467C262.736 124.467 247.768 109.566 225.77 99.082L228.655 153.611Z" fill="#FB971F"/>
<path d="M225.768 99.0818L228.654 153.611C229.197 153.275 229.735 152.934 230.269 152.598C227.185 131.572 227.368 100.27 262.725 124.467C262.725 124.467 247.762 109.571 225.768 99.0818Z" fill="#F1511B"/>
<path d="M185.105 150.569C197.905 149.892 207.732 138.967 207.054 126.167C206.377 113.368 195.452 103.541 182.652 104.218C169.853 104.895 160.026 115.82 160.703 128.62C161.38 141.42 172.305 151.247 185.105 150.569Z" fill="#E0DEDC"/>
<path d="M169.422 143.47C178.302 151.456 191.974 150.733 199.961 141.854C207.947 132.975 207.224 119.302 198.345 111.316C189.466 103.329 175.793 104.052 167.807 112.932C159.82 121.811 160.543 135.483 169.422 143.47Z" fill="#F1511B"/>
<path d="M184.952 147.63C196.13 147.039 204.711 137.498 204.12 126.321C203.528 115.144 193.988 106.562 182.811 107.154C171.633 107.745 163.052 117.286 163.643 128.463C164.235 139.64 173.775 148.222 184.952 147.63Z" fill="#FB971F"/>
<path d="M184.786 144.493C194.231 143.993 201.483 135.932 200.983 126.487C200.483 117.042 192.421 109.791 182.976 110.29C173.532 110.79 166.28 118.852 166.78 128.297C167.28 137.742 175.341 144.993 184.786 144.493Z" fill="#384460"/>
<path d="M184.73 143.427C193.586 142.958 200.386 135.399 199.917 126.543C199.448 117.687 191.889 110.888 183.033 111.357C174.177 111.825 167.378 119.384 167.847 128.24C168.315 137.096 175.874 143.896 184.73 143.427Z" fill="#89BBE8"/>
<path d="M171.951 116.658C168.44 120.561 167.215 125.704 168.151 130.484L199.866 128.805C200.292 123.954 198.531 118.969 194.628 115.458C194.485 115.329 194.328 115.216 194.18 115.092L172.368 116.246C172.224 116.385 172.08 116.515 171.951 116.658Z" fill="#BBE2FF"/>
<path d="M198.994 132.803L169.419 134.368C170.022 135.624 170.807 136.811 171.752 137.903L197.037 136.565C197.872 135.379 198.527 134.115 198.994 132.803Z" fill="#BBE2FF"/>
<path d="M222.579 101.837C222.958 102.178 223.541 102.147 223.882 101.768C224.223 101.389 224.192 100.805 223.813 100.464C223.434 100.123 222.851 100.154 222.51 100.533C222.169 100.912 222.2 101.496 222.579 101.837Z" fill="#B3B0B5"/>
<path d="M223.61 109.065C223.104 109.092 222.668 108.7 222.642 108.194C222.615 107.688 223.006 107.253 223.512 107.226C224.018 107.199 224.453 107.591 224.48 108.097C224.512 108.607 224.125 109.038 223.61 109.065Z" fill="#B3B0B5"/>
<path d="M223.317 115.827C223.696 116.168 224.28 116.137 224.621 115.758C224.961 115.379 224.931 114.795 224.552 114.454C224.173 114.113 223.589 114.144 223.248 114.523C222.907 114.902 222.938 115.486 223.317 115.827Z" fill="#B3B0B5"/>
<path d="M224.352 123.049C223.846 123.076 223.411 122.684 223.384 122.178C223.357 121.673 223.749 121.237 224.254 121.21C224.76 121.184 225.196 121.575 225.222 122.081C225.249 122.587 224.858 123.022 224.352 123.049Z" fill="#B3B0B5"/>
<path d="M224.723 130.044C224.217 130.071 223.782 129.679 223.755 129.174C223.728 128.668 224.12 128.232 224.626 128.206C225.131 128.179 225.567 128.57 225.594 129.076C225.62 129.582 225.229 130.018 224.723 130.044Z" fill="#B3B0B5"/>
<path d="M224.432 136.801C224.811 137.142 225.395 137.112 225.736 136.732C226.077 136.353 226.046 135.77 225.667 135.429C225.288 135.088 224.704 135.119 224.363 135.498C224.022 135.877 224.053 136.461 224.432 136.801Z" fill="#B3B0B5"/>
<path d="M225.463 144.03C224.957 144.056 224.522 143.665 224.495 143.159C224.468 142.653 224.86 142.218 225.366 142.191C225.872 142.164 226.307 142.556 226.334 143.062C226.366 143.572 225.979 144.002 225.463 144.03Z" fill="#B3B0B5"/>
<path d="M225.17 150.792C225.549 151.133 226.133 151.102 226.474 150.723C226.815 150.344 226.784 149.76 226.405 149.419C226.026 149.078 225.442 149.109 225.101 149.488C224.76 149.867 224.791 150.451 225.17 150.792Z" fill="#B3B0B5"/>
<path d="M76.2062 116.041C75.6419 116.071 75.1656 115.643 75.1357 115.079C75.1059 114.514 75.5343 114.038 76.0986 114.008C76.6628 113.978 77.1391 114.407 77.169 114.971C77.1989 115.535 76.7704 116.012 76.2062 116.041Z" fill="#B3B0B5"/>
<path d="M76.6144 123.766C76.0501 123.796 75.5738 123.367 75.5439 122.803C75.5141 122.239 75.9425 121.763 76.5068 121.733C77.071 121.703 77.5473 122.131 77.5772 122.696C77.6071 123.26 77.1786 123.736 76.6144 123.766Z" fill="#B3B0B5"/>
<path d="M77.0304 131.485C76.4661 131.515 75.9898 131.086 75.96 130.522C75.9301 129.958 76.3585 129.481 76.9228 129.452C77.487 129.422 77.9634 129.85 77.9932 130.414C78.018 130.974 77.5849 131.455 77.0304 131.485Z" fill="#B3B0B5"/>
<path d="M77.4327 139.205C76.8685 139.235 76.3921 138.807 76.3623 138.243C76.3324 137.678 76.7609 137.202 77.3251 137.172C77.8894 137.142 78.3657 137.571 78.3956 138.135C78.4254 138.699 77.997 139.176 77.4327 139.205Z" fill="#B3B0B5"/>
<path d="M77.8409 146.93C77.2767 146.96 76.8003 146.532 76.7705 145.967C76.7406 145.403 77.1691 144.927 77.7333 144.897C78.2976 144.867 78.7739 145.295 78.8038 145.86C78.8336 146.424 78.4052 146.9 77.8409 146.93Z" fill="#B3B0B5"/>
<path d="M78.257 154.649C77.6927 154.679 77.2164 154.25 77.1865 153.686C77.1566 153.122 77.5851 152.645 78.1493 152.616C78.7136 152.586 79.1899 153.014 79.2198 153.578C79.2445 154.138 78.8115 154.62 78.257 154.649Z" fill="#B3B0B5"/>
<path d="M141.806 130.861L43.3329 136.072C43.3329 136.072 70.9756 129.609 105.658 127.774C140.341 125.939 141.806 130.861 141.806 130.861Z" fill="#FB971F"/>
<path d="M141.805 130.862L43.3318 136.072C43.3318 136.072 71.5022 139.582 106.185 137.746C140.867 135.911 141.805 130.862 141.805 130.862Z" fill="#F1511B"/>
<path d="M259.363 125.373C259.363 125.373 251.151 135.831 231.578 149.794C231.578 149.794 242.911 139.038 259.363 125.373Z" fill="white"/>
</svg>
