<svg width="44" height="44" viewBox="0 0 44 44" fill="none" xmlns="http://www.w3.org/2000/svg">
<rect width="44" height="44" rx="22" fill="#FFD1AC"/>
<path d="M32 22V19C32 14 30 12 25 12H19C14 12 12 14 12 19V25C12 30 14 32 19 32H22" stroke="#FF7200" stroke-width="1.5" stroke-linecap="round" stroke-linejoin="round"/>
<path d="M30.96 27.8405L29.33 28.3905C28.88 28.5405 28.52 28.8905 28.37 29.3505L27.82 30.9805C27.35 32.3905 25.37 32.3605 24.93 30.9505L23.08 25.0005C22.72 23.8205 23.81 22.7205 24.98 23.0905L30.94 24.9405C32.34 25.3805 32.36 27.3705 30.96 27.8405Z" stroke="#FF7200" stroke-width="1.5" stroke-linecap="round" stroke-linejoin="round"/>
</svg>
