<svg width="329" height="213" viewBox="0 0 329 213" fill="none" xmlns="http://www.w3.org/2000/svg">
<path d="M0 20C0 8.9543 8.95431 0 20 0H309C320.046 0 329 8.95431 329 20V213H0V20Z" fill="#9EC8FF"/>
<path d="M40.3151 116.778C40.7124 116.533 41.2078 116.545 41.6099 116.788C41.7178 116.854 41.8282 116.916 41.941 116.977C42.0538 117.038 42.1691 117.095 42.2843 117.151C42.7061 117.35 42.9906 117.754 43.0053 118.22L43.0543 119.812L48.236 119.65L48.187 118.061C48.1723 117.595 48.4273 117.166 48.8368 116.943C49.0624 116.82 49.2807 116.685 49.4941 116.535C49.8766 116.271 50.372 116.234 50.7815 116.452L52.1793 117.202L54.6316 112.631L53.2338 111.881C52.8243 111.66 52.5815 111.229 52.5913 110.763C52.5962 110.505 52.5888 110.248 52.5667 109.99C52.5275 109.524 52.7409 109.076 53.1382 108.83L54.4894 107.992L51.7575 103.585L50.3989 104.426C50.0041 104.671 49.5088 104.657 49.1115 104.416C49.0036 104.35 48.8932 104.289 48.7804 104.227C48.6676 104.166 48.5548 104.11 48.4396 104.056C48.0178 103.857 47.7309 103.45 47.7161 102.984L47.6671 101.393L42.4854 101.554L42.5369 103.141C42.5516 103.607 42.2966 104.036 41.8871 104.259C41.6614 104.382 41.4407 104.519 41.2274 104.669C40.8448 104.934 40.3495 104.973 39.9399 104.752L38.5421 104.002L36.0898 108.573L37.4876 109.323C37.8972 109.544 38.1399 109.976 38.1301 110.442C38.1252 110.701 38.1326 110.959 38.1547 111.216C38.1939 111.682 37.9805 112.131 37.5833 112.376L36.2345 113.213L38.9664 117.619L40.3176 116.781L40.3151 116.778ZM41.6149 108.595C42.7233 106.528 45.3006 105.75 47.3679 106.859C49.4352 107.967 50.2101 110.542 49.1017 112.609C47.9932 114.677 45.4208 115.452 43.3535 114.343C41.2862 113.235 40.5064 110.662 41.6149 108.595Z" fill="#ECECEC"/>
<path d="M237.923 44.0842C238.087 43.7997 238.399 43.6452 238.725 43.6624C238.813 43.6673 238.904 43.6697 238.992 43.6697C239.081 43.6697 239.174 43.6697 239.262 43.6624C239.588 43.6452 239.897 43.8022 240.061 44.0842L240.618 45.0504L243.764 43.2357L243.208 42.2695C243.043 41.985 243.061 41.6368 243.24 41.3646C243.338 41.215 243.428 41.0581 243.512 40.8962C243.659 40.6068 243.953 40.4205 244.279 40.4205H245.39V36.7862H244.279C243.953 36.7862 243.661 36.5998 243.512 36.3104C243.431 36.1486 243.34 35.9941 243.24 35.842C243.061 35.5674 243.043 35.2192 243.208 34.9372L243.764 33.9709L240.618 32.1562L240.059 33.1249C239.897 33.4069 239.586 33.5614 239.262 33.5443C239.174 33.5393 239.083 33.5369 238.995 33.5369C238.906 33.5369 238.816 33.5369 238.727 33.5443C238.401 33.5614 238.09 33.4045 237.925 33.1225L237.369 32.1562L234.223 33.9709L234.779 34.9347C234.944 35.2167 234.926 35.5649 234.747 35.8396C234.649 35.9916 234.559 36.1486 234.475 36.3104C234.328 36.6022 234.034 36.7886 233.708 36.7886H232.597V40.4229H233.708C234.034 40.4229 234.328 40.6093 234.475 40.9011C234.559 41.063 234.649 41.2199 234.747 41.372C234.926 41.6466 234.941 41.9948 234.779 42.2768L234.223 43.2406L237.369 45.0553L237.925 44.0915L237.923 44.0842ZM236.015 38.6033C236.015 36.9603 237.349 35.6262 238.992 35.6262C240.635 35.6262 241.967 36.9603 241.967 38.6033C241.967 40.2463 240.635 41.5779 238.992 41.5779C237.349 41.5779 236.015 40.2463 236.015 38.6033Z" fill="#ECECEC"/>
<path d="M54.8964 131.871C55.1809 132.036 55.3354 132.347 55.3182 132.673C55.3133 132.761 55.3108 132.852 55.3108 132.94C55.3108 133.029 55.3108 133.122 55.3182 133.21C55.3354 133.536 55.1784 133.845 54.8964 134.01L53.9302 134.566L55.7449 137.713L56.7111 137.156C56.9956 136.992 57.3438 137.009 57.616 137.188C57.7656 137.286 57.9225 137.377 58.0844 137.46C58.3737 137.607 58.5601 137.901 58.5601 138.228V139.338H62.1944V138.228C62.1944 137.901 62.3808 137.61 62.6702 137.46C62.832 137.377 62.9865 137.288 63.1385 137.188C63.4132 137.009 63.7614 136.992 64.0434 137.156L65.0096 137.713L66.8243 134.566L65.8557 134.007C65.5737 133.845 65.4192 133.534 65.4363 133.21C65.4412 133.122 65.4437 133.031 65.4437 132.943C65.4437 132.855 65.4437 132.764 65.4363 132.676C65.4192 132.349 65.5761 132.038 65.8581 131.874L66.8243 131.317L65.0096 128.171L64.0459 128.727C63.7639 128.892 63.4156 128.875 63.141 128.696C62.9889 128.597 62.832 128.507 62.6702 128.423C62.3783 128.276 62.1919 127.982 62.1919 127.656V126.545H58.5577V127.656C58.5577 127.982 58.3713 128.276 58.0795 128.423C57.9176 128.507 57.7607 128.597 57.6086 128.696C57.334 128.875 56.9857 128.889 56.7037 128.727L55.74 128.171L53.9253 131.317L54.8891 131.874L54.8964 131.871ZM60.3797 129.963C62.0227 129.963 63.3568 131.297 63.3568 132.94C63.3568 134.584 62.0227 135.915 60.3797 135.915C58.7367 135.915 57.4051 134.584 57.4051 132.94C57.4051 131.297 58.7367 129.963 60.3797 129.963Z" fill="#ECECEC"/>
<path d="M204.274 174.463C209.018 171.874 210.764 165.929 208.174 161.186C205.585 156.443 199.641 154.697 194.898 157.286C190.155 159.876 188.409 165.82 190.998 170.563C193.587 175.306 199.531 177.052 204.274 174.463Z" fill="#ECECEC"/>
<path d="M138.389 55.7157C143.793 55.7157 148.174 51.335 148.174 45.9311C148.174 40.5272 143.793 36.1465 138.389 36.1465C132.985 36.1465 128.604 40.5272 128.604 45.9311C128.604 51.335 132.985 55.7157 138.389 55.7157Z" fill="#ECECEC"/>
<path d="M103.866 105.964C104.225 103.689 102.67 101.553 100.395 101.195C98.1188 100.837 95.9834 102.391 95.625 104.667C95.2666 106.942 96.8209 109.078 99.0966 109.436C101.372 109.794 103.508 108.24 103.866 105.964Z" fill="#ECECEC"/>
<path d="M264.355 110.077C266.659 110.077 268.527 108.209 268.527 105.906C268.527 103.602 266.659 101.734 264.355 101.734C262.052 101.734 260.184 103.602 260.184 105.906C260.184 108.209 262.052 110.077 264.355 110.077Z" fill="#ECECEC"/>
<path d="M102.082 105.523L102.063 106.322L148.186 107.393L148.204 106.594L102.082 105.523Z" fill="#ECECEC"/>
<path d="M164.845 106.749L164.158 107.158L199.245 166.064L199.932 165.655L164.845 106.749Z" fill="#ECECEC"/>
<path d="M141.006 48.3699L140.284 48.7129L162.622 95.7341L163.344 95.391L141.006 48.3699Z" fill="#ECECEC"/>
<path d="M264.356 105.508H175.473V106.307H264.356V105.508Z" fill="#ECECEC"/>
<path d="M106.718 31.9417C108.255 31.9417 109.501 30.6956 109.501 29.1584C109.501 27.6212 108.255 26.375 106.718 26.375C105.181 26.375 103.935 27.6212 103.935 29.1584C103.935 30.6956 105.181 31.9417 106.718 31.9417Z" fill="#ECECEC"/>
<path d="M99.4495 35.3322C99.4495 36.8698 98.2038 38.1155 96.6662 38.1155C95.1286 38.1155 93.8828 36.8698 93.8828 35.3322C93.8828 33.7946 95.1286 32.5488 96.6662 32.5488C98.2038 32.5488 99.4495 33.7946 99.4495 35.3322Z" fill="#ECECEC"/>
<path d="M109.501 41.506C109.501 43.0436 108.255 44.2894 106.718 44.2894C105.18 44.2894 103.935 43.0436 103.935 41.506C103.935 39.9684 105.18 38.7227 106.718 38.7227C108.255 38.7227 109.501 39.9684 109.501 41.506Z" fill="#ECECEC"/>
<path d="M106.503 42.1559L95.9185 35.3238L106.51 28.8203L106.927 29.4996L97.4168 35.3409L106.937 41.4839L106.503 42.1559Z" fill="#ECECEC"/>
<path d="M165.298 130.906H163.702V162.948H165.298V130.906Z" fill="#FFC800"/>
<path d="M164.501 186.025C171.985 186.025 178.052 179.957 178.052 172.473C178.052 164.989 171.985 158.922 164.501 158.922C157.017 158.922 150.95 164.989 150.95 172.473C150.95 179.957 157.017 186.025 164.501 186.025Z" fill="#FFC800"/>
<g opacity="0.1">
<path d="M164.501 186.025C171.985 186.025 178.052 179.957 178.052 172.473C178.052 164.989 171.985 158.922 164.501 158.922C157.016 158.922 150.949 164.989 150.949 172.473C150.949 179.957 157.016 186.025 164.501 186.025Z" fill="black"/>
</g>
<path d="M95.9449 76.2382L95.3726 77.7285L140.862 95.1995L141.435 93.7092L95.9449 76.2382Z" fill="#FFC800"/>
<path d="M143.777 117.054L119.045 131.92L119.867 133.288L144.599 118.422L143.777 117.054Z" fill="#FFC800"/>
<path d="M185.738 121.022L185.048 122.465L212.89 135.78L213.58 134.338L185.738 121.022Z" fill="#FFC800"/>
<path d="M233.922 72.7205L188.453 89.6934L189.011 91.189L234.48 74.2161L233.922 72.7205Z" fill="#FFC800"/>
<path d="M190.904 54.7474L175.817 78.7598L177.169 79.6091L192.255 55.5967L190.904 54.7474Z" fill="#FFC800"/>
<path d="M164.501 135.114C181.27 135.114 194.863 121.521 194.863 104.752C194.863 87.9841 181.27 74.3906 164.501 74.3906C147.733 74.3906 134.14 87.9841 134.14 104.752C134.14 121.521 147.733 135.114 164.501 135.114Z" fill="#F7931E"/>
<path d="M85.7408 84.5796C96.7388 73.5816 96.7388 55.7504 85.7408 44.7524C74.7428 33.7544 56.9116 33.7544 45.9136 44.7524C34.9156 55.7504 34.9156 73.5816 45.9136 84.5796C56.9116 95.5776 74.7428 95.5776 85.7408 84.5796Z" fill="#FFC800"/>
<path d="M65.8283 97.2757C47.8457 97.2757 33.2178 82.6478 33.2178 64.6652C33.2178 46.6826 47.8457 32.0547 65.8283 32.0547C83.8109 32.0547 98.4388 46.6826 98.4388 64.6652C98.4388 82.6478 83.8109 97.2757 65.8283 97.2757ZM65.8283 33.6536C48.7285 33.6536 34.8142 47.5654 34.8142 64.6677C34.8142 81.7699 48.7261 95.6817 65.8283 95.6817C82.9306 95.6817 96.8424 81.7699 96.8424 64.6677C96.8424 47.5654 82.9306 33.6536 65.8283 33.6536Z" fill="#FFC800"/>
<path d="M263.174 93.4378C245.194 93.4378 230.563 78.8099 230.563 60.8273C230.563 42.8447 245.191 28.2168 263.174 28.2168C281.157 28.2168 295.784 42.8447 295.784 60.8273C295.784 78.8099 281.157 93.4378 263.174 93.4378ZM263.174 29.8157C246.074 29.8157 232.16 43.7275 232.16 60.8298C232.16 77.932 246.072 91.8439 263.174 91.8439C280.276 91.8439 294.188 77.932 294.188 60.8298C294.188 43.7275 280.276 29.8157 263.174 29.8157Z" fill="#FFC800"/>
<path d="M240.265 184.276C222.282 184.276 207.654 169.648 207.654 151.665C207.654 133.683 222.282 119.055 240.265 119.055C258.247 119.055 272.875 133.683 272.875 151.665C272.875 169.648 258.247 184.276 240.265 184.276ZM240.265 120.651C223.165 120.651 209.251 134.563 209.251 151.665C209.251 168.767 223.163 182.679 240.265 182.679C257.367 182.679 271.279 168.767 271.279 151.665C271.279 134.563 257.367 120.651 240.265 120.651Z" fill="#FFC800"/>
<path d="M92.1906 181.594C74.2105 181.594 59.5801 166.966 59.5801 148.984C59.5801 131.001 74.208 116.373 92.1906 116.373C110.173 116.373 124.801 131.001 124.801 148.984C124.801 166.966 110.173 181.594 92.1906 181.594ZM92.1906 117.969C75.0908 117.969 61.1765 131.881 61.1765 148.984C61.1765 166.086 75.0884 179.998 92.1906 179.998C109.293 179.998 123.205 166.086 123.205 148.984C123.205 131.881 109.293 117.969 92.1906 117.969Z" fill="#FFC800"/>
<path d="M260.177 171.58C271.175 160.582 271.175 142.75 260.177 131.752C249.179 120.754 231.348 120.754 220.35 131.752C209.352 142.75 209.352 160.582 220.35 171.58C231.348 182.578 249.179 182.578 260.177 171.58Z" fill="#FFC800"/>
<path d="M283.086 80.7417C294.084 69.7437 294.084 51.9125 283.086 40.9145C272.089 29.9165 254.257 29.9165 243.259 40.9145C232.261 51.9125 232.261 69.7437 243.259 80.7417C254.257 91.7397 272.089 91.7397 283.086 80.7417Z" fill="#FFC800"/>
<g opacity="0.5">
<path d="M283.086 80.7417C294.084 69.7437 294.084 51.9125 283.086 40.9145C272.089 29.9165 254.257 29.9165 243.259 40.9145C232.261 51.9125 232.261 69.7437 243.259 80.7417C254.257 91.7397 272.089 91.7397 283.086 80.7417Z" fill="white"/>
</g>
<path d="M112.105 168.898C123.103 157.9 123.103 140.069 112.105 129.071C101.107 118.073 83.2758 118.073 72.2779 129.071C61.2799 140.069 61.2799 157.9 72.2778 168.898C83.2758 179.896 101.107 179.896 112.105 168.898Z" fill="#FFC800"/>
<g opacity="0.5">
<path d="M112.105 168.898C123.103 157.9 123.103 140.069 112.105 129.071C101.107 118.073 83.2758 118.073 72.2779 129.071C61.2799 140.069 61.2799 157.9 72.2778 168.898C83.2758 179.896 101.107 179.896 112.105 168.898Z" fill="white"/>
</g>
<path d="M210.574 49.5386C212.27 42.2489 207.734 34.9654 200.444 33.2703C193.155 31.5753 185.871 36.1107 184.176 43.4004C182.481 50.6901 187.016 57.9737 194.306 59.6687C201.596 61.3638 208.879 56.8284 210.574 49.5386Z" fill="#FFC800"/>
<g opacity="0.1">
<path d="M210.574 49.5386C212.27 42.2489 207.734 34.9654 200.444 33.2703C193.155 31.5753 185.871 36.1107 184.176 43.4004C182.481 50.6901 187.016 57.9737 194.306 59.6687C201.596 61.3638 208.879 56.8284 210.574 49.5386Z" fill="black"/>
</g>
<path d="M164.067 103.518L146.038 114.251L163.881 124.602L182.783 114.114L164.067 103.518Z" fill="#F2F2F9"/>
<path d="M182.094 95.1245L164.067 85.6758V103.519L182.094 114.265V95.1245Z" fill="white"/>
<path d="M146.038 95.1245L164.067 85.6758V103.519L146.038 114.265V95.1245Z" fill="#CCCCCC"/>
<path d="M146.038 95.123V114.251L164.067 124.71V105.459L146.038 95.123Z" fill="#EDA428"/>
<path d="M182.104 95.123L182.783 114.114L164.021 124.71L164.067 105.459L182.104 95.123Z" fill="#FFB73D"/>
<path d="M155.935 89.957L173.646 99.9722L164.067 105.463L146.048 95.2074L155.935 89.957Z" fill="#F2AD39"/>
<path d="M164.067 106.197C163.942 106.197 163.817 106.165 163.704 106.101L145.687 95.8457C145.454 95.7133 145.312 95.4631 145.314 95.1958C145.319 94.9285 145.469 94.6833 145.704 94.5558L155.592 89.303C155.813 89.1853 156.08 89.1877 156.298 89.3128L174.009 99.3304C174.239 99.4604 174.381 99.7031 174.381 99.968C174.381 100.233 174.242 100.478 174.011 100.608L164.433 106.099C164.32 106.162 164.192 106.197 164.067 106.197ZM147.575 95.2277L164.067 104.613L172.16 99.9729L155.926 90.7915L147.575 95.2277Z" fill="black"/>
<path d="M164.14 85.6738L182.094 95.1029L173.643 100.003L155.935 89.9555L164.14 85.6738Z" fill="#F2AD39"/>
<path d="M173.643 100.74C173.518 100.74 173.393 100.708 173.28 100.645L155.572 90.5952C155.337 90.4628 155.194 90.2127 155.199 89.9429C155.204 89.6732 155.356 89.428 155.594 89.3029L163.8 85.0212C164.013 84.9084 164.268 84.9108 164.481 85.0212L182.434 94.4527C182.672 94.5778 182.822 94.8205 182.827 95.0878C182.832 95.3551 182.692 95.6053 182.461 95.7401L174.011 100.64C173.898 100.706 173.768 100.74 173.643 100.74ZM157.473 89.9822L173.638 99.1562L180.571 95.1369L164.138 86.5048L157.473 89.9822Z" fill="black"/>
<path d="M164.021 125.447C163.893 125.447 163.765 125.413 163.65 125.347L145.67 114.888C145.444 114.755 145.305 114.513 145.305 114.253L145.315 95.2058C145.315 94.7987 145.643 94.4701 146.05 94.4701C146.457 94.4701 146.786 94.7987 146.786 95.2058L146.776 113.828L164.028 123.863L182.035 113.694L181.39 95.1763C181.375 94.7693 181.694 94.4309 182.099 94.4161C182.508 94.4088 182.844 94.7202 182.859 95.1249L183.521 114.088C183.531 114.363 183.386 114.621 183.148 114.755L164.386 125.352C164.273 125.416 164.148 125.447 164.023 125.447H164.021Z" fill="black"/>
<path d="M181.875 123.717C187.496 123.717 192.052 119.161 192.052 113.54C192.052 107.92 187.496 103.363 181.875 103.363C176.255 103.363 171.698 107.92 171.698 113.54C171.698 119.161 176.255 123.717 181.875 123.717Z" fill="#74CE89"/>
<path d="M181.876 124.33C175.926 124.33 171.085 119.489 171.085 113.54C171.085 107.591 175.926 102.75 181.876 102.75C187.825 102.75 192.666 107.591 192.666 113.54C192.666 119.489 187.825 124.33 181.876 124.33ZM181.876 103.976C176.603 103.976 172.312 108.268 172.312 113.54C172.312 118.812 176.603 123.104 181.876 123.104C187.148 123.104 191.439 118.812 191.439 113.54C191.439 108.268 187.148 103.976 181.876 103.976Z" fill="white"/>
<path d="M178.994 117.879C178.913 117.879 178.83 117.872 178.749 117.855C178.408 117.786 178.112 117.573 177.937 117.274L175.301 112.766C174.96 112.183 175.157 111.43 175.74 111.089C176.324 110.748 177.077 110.944 177.418 111.528L179.365 114.856L186.665 109.446C187.21 109.044 187.977 109.156 188.379 109.701C188.781 110.245 188.669 111.013 188.124 111.415L179.725 117.639C179.512 117.796 179.257 117.879 178.994 117.879Z" fill="white"/>
<mask id="mask0_27447_278009" style="mask-type:alpha" maskUnits="userSpaceOnUse" x="211" y="122" width="59" height="59">
<circle cx="240.283" cy="151.494" r="28.8458" fill="#D9D9D9"/>
</mask>
<g mask="url(#mask0_27447_278009)">
<path d="M251.413 178.269C248.266 173.615 239.566 172.303 238.092 172.112C236.49 171.739 226.985 169.716 222.498 172.97C219.052 175.469 217.313 181.899 217.313 181.899L235.33 185.199L236.407 185.396L253.347 188.5C253.347 188.5 253.831 181.842 251.413 178.269Z" fill="#44BED4"/>
<path d="M253.345 189.419C253.291 189.419 253.235 189.414 253.178 189.404L217.144 182.802C216.892 182.756 216.669 182.606 216.531 182.388C216.394 182.17 216.355 181.905 216.421 181.657C216.495 181.382 218.287 174.884 221.953 172.226C226.694 168.788 236.258 170.747 238.251 171.205C240.1 171.451 248.855 172.851 252.168 177.753C254.733 181.547 254.277 188.281 254.257 188.568C254.238 188.828 254.11 189.068 253.902 189.23C253.74 189.355 253.541 189.421 253.34 189.421L253.345 189.419ZM218.498 181.179L252.462 187.403C252.482 185.463 252.318 181.25 250.65 178.783C247.688 174.401 238.96 173.15 237.974 173.023C237.945 173.018 237.915 173.013 237.886 173.005C236.809 172.755 227.255 170.654 223.04 173.714C220.651 175.445 219.114 179.364 218.501 181.179H218.498Z" fill="#1D1F2B"/>
<path d="M237.896 174.003L236.604 173.765C235.027 173.476 233.975 171.914 234.252 170.275L234.983 165.967L241.984 167.249L241.254 171.558C240.976 173.196 239.473 174.29 237.896 174V174.003Z" fill="#FFCAAD"/>
<path d="M238.406 174.969C238.181 174.969 237.955 174.95 237.732 174.908L236.439 174.67C234.372 174.292 232.987 172.252 233.347 170.123L234.078 165.815C234.12 165.572 234.254 165.356 234.458 165.214C234.662 165.072 234.909 165.018 235.152 165.062L242.153 166.344C242.649 166.435 242.977 166.906 242.894 167.404L242.163 171.712C241.984 172.769 241.41 173.684 240.549 174.287C239.909 174.736 239.169 174.969 238.411 174.969H238.406ZM238.063 173.098C238.563 173.189 239.068 173.078 239.493 172.782C239.949 172.463 240.253 171.975 240.348 171.406L240.927 167.992L235.736 167.041L235.159 170.43C234.966 171.573 235.687 172.662 236.77 172.86L238.063 173.098Z" fill="#1D1F2B"/>
<path d="M231.123 151.625C231.255 153.827 229.914 155.708 228.128 155.823C226.343 155.938 224.788 154.246 224.658 152.042C224.526 149.84 225.867 147.959 227.653 147.843C229.438 147.728 230.993 149.42 231.123 151.625Z" fill="#FFCAAD"/>
<path d="M227.959 156.747C227.052 156.747 226.164 156.399 225.434 155.754C224.443 154.881 223.827 153.547 223.739 152.095C223.577 149.393 225.306 147.073 227.592 146.926C228.575 146.86 229.553 147.213 230.345 147.912C231.336 148.785 231.952 150.119 232.04 151.57C232.202 154.275 230.473 156.593 228.187 156.74C228.111 156.745 228.035 156.747 227.959 156.747ZM227.825 148.758C227.788 148.758 227.748 148.758 227.712 148.76C226.434 148.844 225.475 150.29 225.576 151.985C225.635 152.951 226.025 153.822 226.65 154.373C226.949 154.638 227.437 154.94 228.07 154.903C229.347 154.82 230.306 153.373 230.206 151.678C230.147 150.712 229.757 149.842 229.132 149.29C228.852 149.042 228.403 148.758 227.827 148.758H227.825Z" fill="#1D1F2B"/>
<path d="M250.331 155.144C249.483 157.167 250.123 159.411 251.764 160.154C253.404 160.897 255.42 159.859 256.271 157.836C257.119 155.813 256.479 153.569 254.839 152.826C253.198 152.083 251.182 153.121 250.334 155.144H250.331Z" fill="#FFCAAD"/>
<path d="M252.882 161.313C252.364 161.313 251.857 161.206 251.384 160.992C249.297 160.048 248.446 157.265 249.483 154.79C250.04 153.461 251.057 152.426 252.271 151.948C253.257 151.561 254.304 151.575 255.216 151.99C257.303 152.936 258.154 155.717 257.117 158.192C256.56 159.521 255.543 160.556 254.329 161.034C253.853 161.22 253.363 161.313 252.882 161.313ZM253.723 153.505C253.421 153.505 253.154 153.579 252.946 153.66C252.19 153.957 251.548 154.626 251.182 155.502C250.525 157.066 250.957 158.778 252.146 159.317C252.73 159.582 253.291 159.467 253.659 159.322C254.415 159.026 255.057 158.356 255.422 157.481C256.08 155.916 255.648 154.204 254.459 153.665C254.204 153.55 253.953 153.505 253.723 153.505Z" fill="#1D1F2B"/>
<path d="M238.234 168.083C231.596 166.867 227.162 160.287 228.334 153.389L231.353 135.598L255.393 140.002L252.374 157.793C251.204 164.692 244.873 169.297 238.234 168.081V168.083Z" fill="#FFCAAD"/>
<path d="M240.375 169.199C239.61 169.199 238.837 169.13 238.07 168.988C230.948 167.683 226.176 160.618 227.429 153.237L230.448 135.446C230.49 135.203 230.625 134.987 230.828 134.845C231.029 134.703 231.279 134.649 231.522 134.693L255.562 139.097C256.057 139.188 256.386 139.659 256.303 140.156L253.284 157.948C252.661 161.614 250.679 164.782 247.702 166.864C245.512 168.397 242.974 169.196 240.377 169.196L240.375 169.199ZM232.103 136.672L229.242 153.546C228.158 159.941 232.265 166.057 238.401 167.181C241.285 167.708 244.213 167.063 246.645 165.361C249.215 163.561 250.93 160.819 251.469 157.644L254.336 140.745L232.106 136.672H232.103Z" fill="#1D1F2B"/>
<path d="M255.712 140.604C254.974 135.179 250.969 130.62 245.496 129.617L244.071 129.358C239.33 128.489 234.747 130.52 231.993 134.22C231.743 133.583 231.711 132.918 231.883 132.467C229.615 132.891 225.37 137.43 228.518 142.691C228.648 142.909 228.815 143.108 228.994 143.299L228.947 143.578L228.266 147.603C228.266 147.603 228.729 149.29 229.114 152.154C231.993 151.038 232.717 145.648 232.717 145.648L232.795 145.185C239.188 146.739 249.785 145.04 249.785 145.04L250.918 148.292H250.92L250.807 148.964C250.807 148.964 249.711 154.285 252.05 156.357C253.355 153.802 254.346 152.382 254.346 152.382L254.915 149.025C256.504 145.589 256.913 142.867 255.714 140.606L255.712 140.604Z" fill="#F0A226"/>
<path d="M252.048 157.275C251.825 157.275 251.609 157.195 251.437 157.045C248.801 154.708 249.763 149.467 249.9 148.793L249.971 148.376L249.164 146.061C246.727 146.402 239.076 147.322 233.543 146.287C233.268 147.81 232.273 151.917 229.445 153.013C229.183 153.116 228.889 153.092 228.646 152.947C228.403 152.805 228.239 152.557 228.202 152.278C227.832 149.521 227.383 147.864 227.378 147.849C227.344 147.719 227.336 147.584 227.358 147.452L228.016 143.577C227.905 143.44 227.812 143.305 227.731 143.167C226.292 140.762 226.091 138.123 227.167 135.735C228.239 133.356 230.267 131.835 231.716 131.566C232.045 131.504 232.378 131.625 232.592 131.88C232.631 131.926 232.665 131.978 232.695 132.029C235.758 129.035 240.015 127.681 244.24 128.454L245.665 128.714C251.357 129.756 255.734 134.41 256.604 140.323C257.779 142.672 257.524 145.534 255.803 149.298L255.253 152.538C255.231 152.673 255.177 152.798 255.101 152.91C255.091 152.923 254.125 154.318 252.872 156.778C252.742 157.03 252.504 157.209 252.225 157.263C252.168 157.273 252.109 157.28 252.053 157.28L252.048 157.275ZM251.766 147.935C251.832 148.089 251.857 148.266 251.825 148.445L251.712 149.117C251.712 149.117 251.707 149.139 251.707 149.149C251.489 150.223 251.212 152.876 251.935 154.605C252.671 153.264 253.235 152.386 253.47 152.032L254.007 148.871C254.022 148.791 254.044 148.715 254.079 148.639C255.641 145.257 255.896 142.912 254.9 141.036C254.849 140.941 254.817 140.838 254.802 140.73C254.096 135.533 250.287 131.431 245.331 130.523L243.907 130.264C239.662 129.484 235.382 131.213 232.734 134.771C232.535 135.038 232.204 135.178 231.876 135.134C231.545 135.09 231.263 134.869 231.142 134.557C231.059 134.344 230.993 134.126 230.946 133.908C230.21 134.427 229.382 135.301 228.847 136.49C228.266 137.78 227.876 139.82 229.313 142.221C229.394 142.356 229.507 142.5 229.669 142.672C229.867 142.883 229.955 143.172 229.906 143.457L229.21 147.567C229.315 147.984 229.558 149.019 229.811 150.561C231.052 149.198 231.66 146.615 231.809 145.529C231.809 145.519 231.812 145.507 231.814 145.497L231.893 145.034C231.934 144.781 232.082 144.56 232.295 144.421C232.508 144.281 232.771 144.234 233.018 144.296C239.154 145.786 249.539 144.151 249.645 144.136C250.086 144.067 250.513 144.32 250.658 144.742L251.773 147.942L251.766 147.935Z" fill="#1D1F2B"/>
</g>
<mask id="mask1_27447_278009" style="mask-type:alpha" maskUnits="userSpaceOnUse" x="36" y="36" width="59" height="58">
<circle cx="65.8351" cy="64.9571" r="28.8458" fill="#D9D9D9"/>
</mask>
<g mask="url(#mask1_27447_278009)">
<path d="M84.8338 87.0377C80.4957 84.0116 72.1751 85.7404 70.7773 86.0592C69.2054 86.2628 59.9259 87.6385 56.8851 91.9668C54.5505 95.2897 55.0164 101.484 55.0164 101.484L72.4301 98.4139L73.4699 98.23L89.8438 95.3436C89.8438 95.3436 88.164 89.3649 84.8314 87.0402L84.8338 87.0377Z" fill="#6B6EDB"/>
<path d="M54.1757 102.563L54.0997 101.55C54.0801 101.283 53.6387 94.9876 56.1326 91.4343C59.3476 86.8583 68.6589 85.409 70.6158 85.1515C72.3717 84.7542 80.7757 83.0842 85.3614 86.282C88.9222 88.7662 90.6608 94.8356 90.732 95.0906L91.0066 96.0691L54.1757 102.563ZM77.6024 86.2011C74.4341 86.2011 71.5158 86.8338 70.9837 86.9539L70.8979 86.9687C69.8409 87.106 60.4953 88.4278 57.6408 92.4912C56.0615 94.74 55.8874 98.568 55.9021 100.39L88.6451 94.6173C88.0369 92.9007 86.5631 89.3621 84.3094 87.7902C82.5536 86.564 80.0057 86.2011 77.6024 86.2011Z" fill="#1D1F2B"/>
<path d="M65.9971 81.7285L72.764 80.5353L73.4321 84.3245C73.7221 85.9691 72.6217 87.5377 70.9795 87.8273L70.1704 87.9699C68.5258 88.2599 66.9572 87.1595 66.6676 85.5173L65.9995 81.7281L65.9971 81.7285Z" fill="#FFCAAD"/>
<path d="M69.6378 88.9295C68.8359 88.9295 68.0536 88.6843 67.3842 88.2159C66.521 87.6127 65.9447 86.7078 65.7632 85.6705L65.0962 81.8817C65.0079 81.3814 65.3414 80.9057 65.8417 80.8174L72.6076 79.6231C72.8479 79.5814 73.0955 79.6354 73.2942 79.7751C73.4928 79.9149 73.6301 80.1283 73.6718 80.3686L74.3389 84.1574C74.5228 85.1947 74.2898 86.2418 73.6865 87.105C73.0833 87.9682 72.1784 88.5445 71.1411 88.726L70.3318 88.8682C70.1013 88.9099 69.8683 88.9295 69.6378 88.9295ZM67.0654 82.4678L67.573 85.3492C67.6711 85.9034 67.9776 86.3865 68.4387 86.7078C68.8997 87.029 69.4588 87.1541 70.0106 87.056L70.8198 86.9138C71.374 86.8157 71.8572 86.5091 72.1784 86.0481C72.4997 85.5871 72.6247 85.0279 72.5266 84.4762L72.019 81.5947L67.0629 82.4678H67.0654Z" fill="#1D1F2B"/>
<path d="M56.5515 75.0931C58.1368 74.4018 58.7567 72.3157 57.936 70.4336C57.1153 68.5516 55.1649 67.5863 53.5795 68.2776C51.9942 68.9689 51.3743 71.055 52.195 72.9371C53.0157 74.8191 54.9661 75.7844 56.5515 75.0931Z" fill="#FFCAAD"/>
<path d="M55.4759 76.2556C53.8108 76.2556 52.1383 75.1398 51.3487 73.3251C50.8656 72.2166 50.7773 71.0077 51.101 69.9188C51.4419 68.7736 52.1898 67.9006 53.2099 67.4543C54.2301 67.0104 55.3802 67.057 56.4494 67.5867C57.4671 68.0894 58.2911 68.9772 58.7767 70.0856C59.7993 72.43 58.9655 75.0613 56.9178 75.9564C56.4543 76.1575 55.9663 76.2531 55.4808 76.2531L55.4759 76.2556ZM54.6568 68.9943C54.4091 68.9943 54.1688 69.0434 53.9432 69.1415C53.4282 69.3646 53.0457 69.8281 52.8642 70.4436C52.6656 71.1156 52.7244 71.8782 53.0358 72.5894C53.6514 74.0044 55.0639 74.7572 56.1797 74.2717C57.2979 73.7837 57.705 72.2363 57.087 70.8237C56.7756 70.1126 56.2606 69.5486 55.6304 69.2371C55.3067 69.0777 54.9756 68.9968 54.6543 68.9968L54.6568 68.9943Z" fill="#1D1F2B"/>
<path d="M76.4965 67.182C76.3689 69.2321 77.6637 70.9806 79.3901 71.086C81.1166 71.1939 82.6174 69.6195 82.7449 67.5694C82.8724 65.5193 81.5776 63.7708 79.8512 63.6654C78.1248 63.5575 76.624 65.1319 76.4965 67.182Z" fill="#FFCAAD"/>
<path d="M79.5569 72.0113C79.4833 72.0113 79.4098 72.0113 79.3362 72.004C77.1071 71.8642 75.4223 69.6767 75.5817 67.1239C75.7411 64.5711 77.6907 62.6142 79.9125 62.7466C81.0234 62.8152 82.0264 63.3817 82.7351 64.3406C83.4094 65.2528 83.7405 66.4177 83.6669 67.6266C83.5125 70.0936 81.6929 72.0113 79.5594 72.0113H79.5569ZM77.4161 67.2392C77.3204 68.7792 78.2327 70.0936 79.449 70.1697C80.6678 70.2481 81.7345 69.0539 81.8302 67.5138C81.8792 66.7389 81.6757 66.0008 81.2563 65.4367C80.8738 64.9218 80.3563 64.6177 79.7972 64.5833C78.5833 64.5049 77.5117 65.6991 77.4161 67.2392Z" fill="#1D1F2B"/>
<path d="M69.6258 82.4939C63.2082 83.6244 57.0897 79.3403 55.9592 72.9251L53.041 56.3771L76.2789 52.2793L79.1971 68.8273C80.3276 75.245 76.0435 81.3634 69.6283 82.4939H69.6258Z" fill="#FFCAAD"/>
<path d="M67.5509 83.5974C64.9662 83.5974 62.4452 82.8078 60.2848 81.2947C57.5014 79.3452 55.645 76.4318 55.054 73.0869L52.1358 56.5389C52.0941 56.2986 52.1481 56.0509 52.2878 55.8522C52.4276 55.6536 52.641 55.5163 52.8813 55.4746L76.1192 51.3768C76.6219 51.291 77.0976 51.622 77.1835 52.1223L80.1017 68.6704C81.318 75.576 76.6906 82.1849 69.7849 83.4037C69.0394 83.5361 68.2915 83.5999 67.5485 83.5999L67.5509 83.5974ZM54.1075 57.1225L56.8663 72.7657C57.3714 75.6275 58.9605 78.1215 61.3392 79.7866C63.7204 81.4541 66.6068 82.0917 69.4686 81.589C75.3761 80.5468 79.3341 74.8943 78.2919 68.9867L75.5331 53.3436L54.1075 57.1225Z" fill="#1D1F2B"/>
<path d="M76.7566 52.6968C74.3607 48.1993 69.2722 45.5386 63.9827 46.4705L62.6069 46.7132C58.0236 47.52 54.5095 50.811 53.1852 54.9554C52.7561 54.4821 52.5158 53.9107 52.528 53.4595C50.603 54.5802 48.1924 59.9507 52.7242 63.509C52.913 63.6561 53.1264 63.7763 53.3496 63.8842L53.3961 64.1441L54.0558 67.8863C54.0558 67.8863 55.0146 69.2056 56.2751 71.5843C58.5361 69.6568 57.4767 64.7057 57.4767 64.7057L57.4007 64.2741C63.7007 63.5188 72.7864 58.5308 72.7864 58.5308L74.8512 60.9978H74.8536L74.964 61.6207C74.964 61.6207 75.6604 66.6332 78.4438 67.673C78.8141 65.0098 79.2629 63.4403 79.2629 63.4403L78.7111 60.3161C79.0618 56.7897 78.5664 54.2736 76.7591 52.6944L76.7566 52.6968Z" fill="#1D1F2B"/>
<path d="M56.2727 72.5039C56.2163 72.5039 56.1574 72.499 56.101 72.4867C55.8264 72.4352 55.591 72.2611 55.461 72.0134C54.252 69.7328 53.3201 68.438 53.3103 68.4257C53.2294 68.3129 53.173 68.1829 53.1485 68.0456L52.5207 64.4824C52.3883 64.4015 52.2681 64.3206 52.1553 64.2323C50.1052 62.6236 49.0654 60.4067 49.2346 57.9912C49.4087 55.4752 50.7894 53.4055 52.0646 52.6649C52.3539 52.4981 52.7095 52.4981 52.9964 52.6673C53.0332 52.6894 53.0676 52.7139 53.1019 52.7409C54.9362 49.1139 58.3669 46.5268 62.4476 45.8058L63.8233 45.563C69.3336 44.5919 74.8022 47.2232 77.4899 52.1156C79.3168 53.8003 80.001 56.4021 79.6381 60.2792L80.1678 63.2784C80.1923 63.4157 80.185 63.5579 80.1457 63.6903C80.1408 63.7051 79.7092 65.2402 79.3512 67.7979C79.3119 68.075 79.1501 68.3178 78.9122 68.46C78.6719 68.6023 78.3801 68.6293 78.1201 68.5312C74.9469 67.3467 74.145 62.4078 74.0518 61.7628L73.988 61.3999L72.5583 59.6907C70.4445 60.7991 63.8135 64.1146 58.4724 65.0416C58.7078 66.5129 59.0806 70.3949 56.8711 72.2783C56.7043 72.4205 56.4909 72.499 56.2751 72.499L56.2727 72.5039ZM54.9239 67.5257C55.1569 67.8617 55.6866 68.6611 56.3781 69.8701C57.0427 68.2835 56.7803 65.8778 56.5719 64.8969C56.5719 64.8871 56.567 64.8748 56.5645 64.865L56.4885 64.4334C56.4443 64.1857 56.5057 63.9282 56.6553 63.7271C56.8048 63.5236 57.0329 63.3936 57.283 63.3617C63.3304 62.6383 72.2444 57.773 72.3352 57.7239C72.7202 57.513 73.2008 57.6038 73.4828 57.9397L75.5158 60.3699C75.636 60.4975 75.7169 60.6593 75.7488 60.8359L75.8591 61.4588C75.8591 61.4588 75.864 61.4808 75.864 61.4931C76.0038 62.4838 76.5801 64.8356 77.7474 66.0985C77.9828 64.7252 78.2084 63.7933 78.3114 63.3985L77.7964 60.4754C77.7817 60.392 77.7793 60.3086 77.7866 60.2253C78.1275 56.7847 77.6199 54.6757 76.1436 53.3858C76.0602 53.3123 75.9891 53.224 75.9376 53.1259C73.6545 48.8417 68.9118 46.5317 64.1347 47.3728L62.759 47.6156C58.6588 48.339 55.3237 51.2572 54.0534 55.2324C53.9528 55.5463 53.6929 55.7817 53.3716 55.8504C53.0504 55.919 52.7169 55.8136 52.4962 55.5684C52.3613 55.4188 52.2387 55.2618 52.1308 55.0975C51.6207 55.8111 51.1474 56.873 51.0616 58.1138C50.9733 59.3792 51.2872 61.2135 53.2834 62.7805C53.3962 62.8688 53.5408 62.9547 53.7395 63.0503C54.0068 63.1778 54.1956 63.428 54.2471 63.7198L54.9166 67.5208L54.9239 67.5257Z" fill="#1D1F2B"/>
</g>
<mask id="mask2_27447_278009" style="mask-type:alpha" maskUnits="userSpaceOnUse" x="234" y="32" width="58" height="58">
<circle cx="263.291" cy="61.1782" r="28.5024" fill="#D9D9D9"/>
</mask>
<g mask="url(#mask2_27447_278009)">
<g style="mix-blend-mode:multiply" opacity="0.07">
<path d="M320.906 61.3501C320.825 61.1221 320.72 60.9038 320.609 60.6929C320.604 60.6856 320.602 60.6782 320.597 60.6709L329.222 41.57L329.177 41.4253C329.008 40.8711 328.55 40.6087 327.942 40.724L327.75 40.7608L319.91 55.9968C319.292 55.9355 318.498 56.3573 317.752 57.1813L317.588 57.3578C316.776 58.2308 316.082 59.094 315.499 59.9474C315.084 60.151 314.697 60.4256 314.361 60.7665C313.603 61.5341 313.095 62.6008 312.887 63.8466C312.803 64.3444 312.774 64.879 312.781 65.4602C312.598 65.3842 312.409 65.3131 312.212 65.2542C312.011 65.1929 311.798 65.2983 311.724 65.4921C309.424 71.4462 307.09 75.1835 301.366 77.8712C296.56 80.1273 289.438 79.0728 284.134 77.7192C284.644 76.9688 285.044 76.1203 285.291 75.2105C285.963 72.7288 285.554 69.8498 284.198 67.5127C283.626 66.5245 282.893 65.6147 282.184 64.7343C280.755 62.9539 279.403 61.2717 279.332 59.0646C279.315 58.5349 279.376 58.0077 279.44 57.451C279.492 57.0096 279.546 56.5535 279.555 56.0949C279.595 54.4936 279.136 52.8088 278.155 50.9426C276.13 47.0876 272.895 44.4784 269.499 43.9634C266.222 43.4656 262.961 45.0424 260.987 48.0784C260.239 49.2309 260.023 49.2236 259.224 49.226C258.895 49.226 258.488 49.2236 257.956 49.2898C256.376 49.4909 254.851 50.4767 253.878 51.9285C252.539 53.9197 252.078 56.7497 252.617 59.69C252.686 60.0725 252.772 60.4551 252.857 60.8376C253.098 61.9215 253.326 62.9441 253.225 63.9888C253.019 66.1738 251.516 67.7776 249.924 69.4746C248.392 71.1078 246.81 72.795 246.408 75.0805C246.04 77.1723 246.938 79.3794 248.473 80.6006C243.423 84.9142 241.53 91.4176 240.826 95.4247C239.654 102.107 241.165 108.616 244.865 112.833C245.243 113.265 245.655 113.653 246.079 114.023L243.377 117.375C243.058 117.77 243.112 118.339 243.497 118.667L249.228 123.56C249.15 124.867 249.034 126.277 248.885 127.78C248.87 127.918 248.931 128.055 249.042 128.138C256.259 133.582 263.14 137.852 267.64 140.473C267.701 140.51 267.772 140.527 267.841 140.527C267.909 140.527 267.981 140.51 268.042 140.473C272.853 137.67 280.183 133.107 287.768 127.28C287.883 127.192 287.942 127.047 287.92 126.902C287.324 123.123 286.802 119.45 286.419 116.767L286.258 115.629C284.84 105.71 285.321 95.8048 287.295 93.7498C312.107 92.2735 316.097 73.7906 316.644 70.095C316.651 70.0509 316.649 70.0043 316.641 69.9601C316.582 69.6512 316.467 69.2956 316.3 68.9204C316.624 68.8198 316.892 68.631 317.11 68.4691C317.872 67.9051 318.66 67.3215 319.334 66.6226C319.68 66.2645 319.972 65.8893 320.219 65.5043C320.952 65.1365 321.502 64.5308 321.715 63.8392C321.946 63.0888 321.683 62.1472 321.063 61.4997C321.011 61.4458 320.96 61.3992 320.906 61.3526V61.3501Z" fill="#1D1F2B"/>
</g>
<path d="M266.779 40.6305C270.345 41.1725 273.344 43.9804 275.142 47.4013C275.934 48.907 276.537 50.5991 276.495 52.3574C276.471 53.3579 276.238 54.3511 276.272 55.3492C276.387 58.8437 279.499 61.0704 281.191 63.9861C282.44 66.1368 282.918 68.8907 282.246 71.3798C281.574 73.8689 279.676 75.9974 277.38 76.5247C276.527 76.7209 275.598 76.7209 274.869 77.2604C274.058 77.8636 273.709 78.977 273.094 79.8156C271.858 81.4979 269.732 81.9001 267.804 82.1846C264.143 82.7216 260.016 83.1238 257.21 80.5464C256.252 79.6661 255.508 78.4718 254.39 77.8587C252.289 76.7012 249.657 77.9617 247.387 77.2726C245.189 76.6056 243.696 73.9179 244.135 71.419C244.92 66.9534 250.533 64.8126 250.96 60.2954C251.099 58.802 250.614 57.3502 250.346 55.8862C249.883 53.353 250.131 50.5231 251.546 48.419C252.438 47.0923 253.865 46.1433 255.344 45.9545C257.228 45.7141 257.473 46.391 258.662 44.564C260.519 41.7095 263.643 40.1499 266.779 40.6256V40.6305Z" fill="#358FF0"/>
<path d="M263.439 83.4998C260.935 83.4998 258.5 82.9848 256.59 81.2265C256.215 80.8807 255.881 80.5055 255.558 80.1402C255.03 79.5467 254.53 78.9851 253.951 78.6663C253.029 78.1587 251.869 78.2445 250.641 78.3377C249.491 78.4236 248.301 78.5118 247.122 78.1538C244.498 77.3568 242.717 74.2007 243.232 71.2629C243.662 68.8229 245.297 67.0768 246.881 65.3897C248.412 63.7589 249.856 62.2189 250.045 60.2129C250.136 59.2491 249.917 58.2633 249.684 57.2211C249.601 56.8434 249.513 56.4511 249.442 56.0562C248.88 52.9835 249.368 50.0138 250.783 47.9122C251.842 46.3378 253.503 45.2686 255.229 45.0479C255.795 44.9744 256.225 44.9768 256.565 44.9793C257.255 44.9842 257.296 44.9842 257.89 44.0695C259.977 40.8594 263.437 39.1943 266.917 39.724C270.475 40.266 273.854 42.9757 275.956 46.9754C276.978 48.9201 277.457 50.6906 277.415 52.3827C277.403 52.8658 277.349 53.3342 277.297 53.7854C277.236 54.3249 277.174 54.8326 277.192 55.323C277.258 57.3584 278.555 58.9745 279.931 60.6837C280.652 61.5788 281.395 62.5058 281.988 63.5284C283.413 65.9856 283.84 69.0117 283.134 71.6234C282.354 74.5097 280.125 76.8394 277.586 77.423C277.331 77.4819 277.079 77.5236 276.836 77.5628C276.265 77.656 275.774 77.7369 275.419 78.0018C275.058 78.2691 274.784 78.7644 274.494 79.2892C274.295 79.6473 274.092 80.0151 273.834 80.3658C272.417 82.2982 270.144 82.7764 267.939 83.1001C266.48 83.3134 264.947 83.4998 263.439 83.4998ZM252.041 76.4274C252.985 76.4274 253.929 76.5574 254.837 77.0552C255.695 77.5285 256.323 78.2347 256.931 78.9189C257.237 79.2647 257.527 79.5909 257.836 79.8729C260.3 82.1412 264.047 81.8102 267.672 81.278C269.568 80.9985 271.353 80.638 272.353 79.2745C272.54 79.0195 272.709 78.7154 272.885 78.3966C273.241 77.7565 273.643 77.0282 274.322 76.5255C275.036 75.9958 275.833 75.8634 276.539 75.7481C276.765 75.7113 276.976 75.677 277.177 75.6304C279.07 75.1964 280.752 73.3915 281.358 71.1427C281.939 68.9921 281.579 66.4907 280.397 64.4504C279.874 63.5504 279.205 62.7167 278.496 61.8363C276.993 59.9652 275.441 58.0328 275.352 55.3819C275.333 54.7541 275.402 54.1533 275.47 53.5721C275.519 53.1429 275.568 52.7358 275.576 52.3361C275.607 50.9653 275.2 49.4915 274.327 47.8288C272.496 44.3441 269.624 41.9924 266.642 41.5387C263.883 41.1194 261.122 42.4706 259.435 45.0675C258.419 46.6297 257.787 46.8136 256.617 46.8136C256.548 46.8136 256.48 46.8136 256.406 46.8136C256.139 46.8136 255.837 46.8209 255.462 46.8675C254.273 47.0196 253.066 47.8092 252.311 48.9324C251.161 50.6416 250.776 53.1135 251.251 55.7203C251.318 56.0808 251.396 56.4388 251.482 56.8165C251.734 57.9519 251.994 59.1265 251.877 60.3796C251.629 63.0158 249.898 64.86 248.223 66.6428C246.759 68.2024 245.376 69.6762 245.042 71.5743C244.684 73.6073 245.905 75.8585 247.654 76.3882C248.505 76.6456 249.476 76.5745 250.501 76.4985C251.009 76.4593 251.524 76.4225 252.039 76.4225L252.041 76.4274Z" fill="#1D1F2B"/>
<g style="mix-blend-mode:multiply" opacity="0.4">
<path d="M244.137 71.4224C244.922 66.9567 250.535 64.8159 250.962 60.2988C251.102 58.8053 250.616 57.3536 250.349 55.8896C249.991 53.9351 250.06 51.8041 250.761 49.9648C250.771 51.4215 250.928 54.0553 251.806 56.0441C253.086 58.9451 252.872 62.2312 251.806 65.7846C249.93 72.0428 260.168 75.6526 267.62 74.4166C274.732 73.2371 280.777 71.5719 279.597 61.7358C280.176 62.4617 280.738 63.1998 281.194 63.9895C282.442 66.1401 282.92 68.8941 282.248 71.3831C281.576 73.8722 279.678 76.0008 277.383 76.528C276.529 76.7242 275.6 76.7242 274.872 77.2637C274.06 77.867 273.712 78.9803 273.096 79.819C271.86 81.5013 269.734 81.9034 267.807 82.1879C264.145 82.725 260.018 83.1271 257.213 80.5498C256.254 79.6694 255.511 78.4751 254.393 77.8621C252.291 76.7046 249.66 77.9651 247.389 77.276C245.192 76.6089 243.698 73.9212 244.137 71.4224Z" fill="#277EDB"/>
</g>
<path d="M284.867 123.239C277.165 129.154 269.798 133.715 265.183 136.405C260.793 133.848 253.912 129.595 246.622 124.095C247.083 119.462 247.286 114.815 246.884 112.199C246.08 106.975 245.498 102.875 245.224 97.5953C244.802 89.4856 246.771 81.6138 250.533 74.4163C262.667 69.3058 273.751 71.9787 276.164 72.8174C282.621 75.0564 292.688 77.4155 298.875 74.5095C304.807 71.7237 307.134 67.8663 309.434 61.9121C311.97 62.687 313.331 64.9677 313.589 66.3066C312.277 75.1397 305.018 88.4655 284.463 89.6303C282.077 91.7589 281.861 102.573 283.2 111.956C283.585 114.658 284.178 118.884 284.863 123.234L284.867 123.239Z" fill="#F74C4C"/>
<path d="M265.183 137.323C265.023 137.323 264.864 137.281 264.719 137.198C260.204 134.569 253.306 130.29 246.067 124.828C245.812 124.635 245.675 124.323 245.707 124.004C246.222 118.828 246.32 114.575 245.976 112.339C245.201 107.307 244.586 103.03 244.306 97.6447C243.889 89.6159 245.711 81.6582 249.719 73.9924C249.817 73.8035 249.978 73.654 250.177 73.5706C261.234 68.9112 272.208 70.4734 276.468 71.9496C280.912 73.4897 291.957 76.7438 298.487 73.6785C304.083 71.0521 306.278 67.5429 308.581 61.5838C308.755 61.135 309.248 60.8947 309.706 61.037C312.674 61.9443 314.196 64.5854 314.496 66.1377C314.515 66.2407 314.518 66.3437 314.503 66.4467C314.022 69.6935 312.392 75.964 306.901 81.4964C301.535 86.9012 294.129 89.9396 284.884 90.5306C283.143 92.7303 282.77 102.417 284.117 111.831L284.281 112.981C284.664 115.659 285.186 119.328 285.779 123.097C285.831 123.43 285.698 123.764 285.431 123.97C277.824 129.814 270.475 134.39 265.649 137.2C265.506 137.283 265.344 137.325 265.185 137.325L265.183 137.323ZM247.587 123.668C254.361 128.745 260.8 132.766 265.183 135.336C269.867 132.59 276.738 128.281 283.874 122.84C283.312 119.249 282.822 115.794 282.457 113.239L282.292 112.089C281.226 104.631 280.708 91.7519 283.852 88.9464C284.006 88.8091 284.205 88.7257 284.413 88.7135C307.982 87.3794 312.041 70.2159 312.656 66.3388C312.406 65.3407 311.467 63.884 309.954 63.1116C307.632 68.8867 305.108 72.6019 299.267 75.3436C292.126 78.6959 280.522 75.3019 275.865 73.6883C275.75 73.6491 264.248 69.7769 251.197 75.1401C247.45 82.4209 245.751 89.9592 246.146 97.5515C246.42 102.863 247.004 106.917 247.796 112.062C248.272 115.152 247.896 120.461 247.59 123.673L247.587 123.668Z" fill="#1D1F2B"/>
<g style="mix-blend-mode:multiply" opacity="0.33">
<path d="M284.867 123.24C277.164 129.155 269.798 133.716 265.183 136.406C260.793 133.849 253.912 129.596 246.621 124.096C247.082 119.464 247.286 114.816 246.884 112.2C246.121 107.251 245.559 103.308 245.27 98.418C246.511 95.5268 247.982 93.3638 249.723 92.4835C249.01 99.0997 261.131 102.933 266.056 102.933C270.98 102.933 278.481 101.282 279.845 92.4835C281.174 83.9127 288.207 87.3459 299.23 82.0171C307.72 77.9144 311.18 68.1347 312.325 63.8555C313.039 64.7015 313.458 65.6285 313.588 66.3102C312.276 75.1434 305.018 88.4691 284.462 89.6339C282.076 91.7625 281.861 102.577 283.2 111.96C283.585 114.662 284.178 118.887 284.862 123.238L284.867 123.24Z" fill="#DE3A3A"/>
</g>
<path d="M266.149 66.3449L266.872 73.074C266.941 73.7165 266.551 74.3246 265.935 74.5233C263.826 75.205 261.764 74.8568 260.467 73.611C260.158 73.3143 260.006 72.8876 260.057 72.4609L261.033 64.2188L266.151 66.3449H266.149Z" fill="#FFCAAD"/>
<path d="M263.829 75.7894C262.279 75.7894 260.872 75.2695 259.832 74.2738C259.317 73.7809 259.059 73.0624 259.145 72.3513L260.121 64.1091C260.156 63.8222 260.322 63.5696 260.57 63.4249C260.82 63.2802 261.122 63.2582 261.387 63.3685L266.504 65.4947C266.813 65.6246 267.029 65.9115 267.066 66.2451L267.789 72.9741C267.905 74.0482 267.245 75.0659 266.222 75.397C265.411 75.6594 264.604 75.7894 263.831 75.7894H263.829ZM261.803 65.5339L260.97 72.567C260.953 72.7068 261.004 72.8491 261.105 72.9472C262.164 73.9649 263.866 74.2248 265.654 73.6485C265.852 73.5848 265.982 73.3837 265.958 73.1703L265.293 66.9832L261.803 65.5314V65.5339Z" fill="#1D1F2B"/>
<path d="M249.14 92.7935C247.313 97.0506 248.539 101.681 251.685 105.016C254.647 108.155 265.18 114.241 265.18 114.241L262.811 117.682C262.811 117.682 255.214 116.331 251.558 114.526C248.325 112.929 244.88 111.551 242.504 108.841C238.519 104.3 237.513 97.7152 238.558 91.7635C239.164 88.3107 241.381 78.271 250.535 74.416C253.144 76.6378 253.953 80.4217 253.458 83.8132C252.963 87.2047 250.493 89.6423 249.142 92.791L249.14 92.7935Z" fill="#F74C4C"/>
<g style="mix-blend-mode:multiply" opacity="0.6">
<path d="M260.899 65.3594L265.926 66.2545L266.151 66.3476L266.74 71.8187C265.666 72.0713 263.868 72.1056 261.803 70.568C261.254 70.1585 260.808 69.7318 260.433 69.3027L260.899 65.3594Z" fill="#FFCAAD"/>
</g>
<path d="M263.233 118.693L262.649 118.59C262.333 118.534 254.88 117.195 251.15 115.353C250.677 115.12 250.199 114.892 249.721 114.662C246.888 113.306 243.963 111.903 241.81 109.45C238.006 105.112 236.449 98.4422 237.648 91.6077C239.205 82.723 243.654 76.3176 250.172 73.5711C250.64 73.3724 251.18 73.5931 251.376 74.0615C251.572 74.5299 251.354 75.0694 250.886 75.2656C242.894 78.6326 240.297 87.1469 239.458 91.924C238.354 98.2166 239.75 104.315 243.19 108.237C245.093 110.404 247.725 111.667 250.513 113.001C250.998 113.234 251.482 113.465 251.962 113.703C254.888 115.147 260.565 116.317 262.389 116.67L263.858 114.537C261.254 112.997 253.561 108.347 251.013 105.647C247.455 101.875 246.41 96.8114 248.291 92.4316C248.828 91.1785 249.525 90.0504 250.197 88.9567C250.685 88.1671 251.143 87.4191 251.538 86.6418C251.768 86.1881 252.323 86.0091 252.774 86.2396C253.228 86.4701 253.407 87.0243 253.176 87.4756C252.747 88.3191 252.247 89.1333 251.761 89.9205C251.123 90.9578 250.464 92.0294 249.978 93.1575C248.392 96.8531 249.301 101.157 252.35 104.387C255.187 107.393 265.533 113.389 265.636 113.448L266.497 113.946L263.226 118.693H263.233Z" fill="#1D1F2B"/>
<path d="M258.643 50.8787C260.411 48.6373 263.513 47.5387 266.299 48.164C268.4 48.6373 270.639 49.9909 271.691 51.862C272.937 54.074 271.382 57.0167 271.89 59.4862C272.035 60.1827 272.182 60.911 272.147 61.6221C272.086 62.9807 271.505 64.0597 270.637 65.1093C269.484 66.5046 268.295 68.6308 266.586 69.2316C264.8 69.8594 262.716 68.746 261.115 67.7357C259.513 66.7254 258.297 65.2074 257.274 63.6158C256.762 63.8782 256.345 63.8316 255.832 63.5717C255.32 63.3118 254.913 62.8777 254.577 62.4093C254.111 61.757 253.758 61.0066 253.687 60.2072C253.616 59.4077 253.851 58.5641 254.422 58.0001C254.991 57.4361 256.11 57.6102 256.83 57.9609C256.107 54.7239 257.836 51.8988 258.643 50.8787Z" fill="#FFCAAD"/>
<path d="M265.482 70.3294C263.768 70.3294 262.029 69.3975 260.624 68.5098C259.278 67.6588 258.079 66.4376 256.884 64.6891C256.279 64.7651 255.778 64.5714 255.418 64.3899C254.834 64.0957 254.314 63.6224 253.829 62.9406C253.206 62.0701 252.85 61.1774 252.772 60.2873C252.671 59.1641 253.047 58.0655 253.775 57.3445C254.292 56.832 255.016 56.6677 255.744 56.7216C255.609 53.4307 257.493 50.8459 257.922 50.3064C259.915 47.783 263.361 46.5593 266.5 47.2631C269.045 47.8345 271.397 49.4604 272.493 51.4051C273.361 52.9476 273.126 54.647 272.9 56.29C272.751 57.3739 272.609 58.399 272.792 59.2941C272.94 60.0101 273.106 60.8218 273.07 61.6581C273.006 63.0829 272.474 64.3262 271.35 65.6896C271.098 65.9962 270.836 66.3493 270.561 66.7196C269.58 68.0414 268.471 69.5397 266.897 70.094C266.434 70.2583 265.96 70.3294 265.487 70.3294H265.482ZM257.274 62.693C257.578 62.693 257.875 62.845 258.049 63.1147C259.221 64.9417 260.352 66.1629 261.608 66.955C263.052 67.8673 264.891 68.8506 266.282 68.3602C267.324 67.9923 268.258 66.7343 269.08 65.6259C269.369 65.2335 269.644 64.8657 269.928 64.5199C270.794 63.4703 271.181 62.5899 271.228 61.5771C271.255 60.9714 271.12 60.3093 270.988 59.6693C270.74 58.4628 270.909 57.2317 271.073 56.0423C271.267 54.6372 271.451 53.3129 270.887 52.31C270.048 50.8214 268.121 49.5143 266.095 49.0582C263.67 48.5138 260.904 49.4947 259.364 51.4443C258.966 51.947 257.024 54.6127 257.728 57.7565C257.804 58.1023 257.679 58.4603 257.402 58.6786C257.125 58.8968 256.747 58.9385 256.428 58.784C255.874 58.5143 255.232 58.4897 255.07 58.6516C254.731 58.9851 254.552 59.5491 254.606 60.1229C254.655 60.6821 254.901 61.2706 255.33 61.8714C255.639 62.303 255.94 62.5899 256.249 62.7469C256.59 62.9186 256.686 62.8818 256.857 62.7935C256.992 62.7248 257.135 62.6905 257.277 62.6905L257.274 62.693Z" fill="#1D1F2B"/>
<g style="mix-blend-mode:multiply" opacity="0.33">
<path d="M262.811 117.682C262.811 117.682 255.214 116.331 251.558 114.526C248.325 112.929 244.88 111.551 242.504 108.842C238.519 104.3 237.513 97.7155 238.558 91.7638C238.869 89.9859 239.612 86.4619 241.506 82.9355C240.294 90.5548 239.311 105.467 248.988 110.183C256.261 113.726 261.131 115.399 263.758 116.309L262.813 117.68L262.811 117.682Z" fill="#DE3A3A"/>
</g>
<g style="mix-blend-mode:multiply" opacity="0.6">
<path d="M254.02 58.9021C253.679 62.3157 258.23 62.5437 258.23 62.5437C258.23 62.5437 261.416 66.5262 264.999 67.208C267.01 67.5905 269.467 65.8789 271.237 64.302C271.058 64.5767 270.857 64.844 270.639 65.1088C269.486 66.5042 268.297 68.6303 266.588 69.2311C264.803 69.8589 262.718 68.7456 261.117 67.7352C259.515 66.7249 258.299 65.2069 257.277 63.6154C256.764 63.8778 256.347 63.8312 255.835 63.5712C255.32 63.3113 254.915 62.8772 254.579 62.4089C254.113 61.7565 253.76 61.0062 253.689 60.2067C253.637 59.628 253.75 59.0223 254.032 58.5195C254.037 58.6274 254.037 58.75 254.022 58.9021H254.02Z" fill="#FFCAAD"/>
</g>
</g>
<mask id="mask3_27447_278009" style="mask-type:alpha" maskUnits="userSpaceOnUse" x="63" y="120" width="58" height="58">
<circle cx="92.0895" cy="149.133" r="28.3239" fill="#D9D9D9"/>
</mask>
<g mask="url(#mask3_27447_278009)">
<g style="mix-blend-mode:multiply" opacity="0.07">
<path d="M149.982 149.389C149.901 149.161 149.795 148.943 149.685 148.732C149.68 148.725 149.677 148.717 149.673 148.71L158.297 129.609L158.253 129.464C158.084 128.91 157.625 128.648 157.017 128.763L156.826 128.8L148.986 144.036C148.368 143.975 147.573 144.396 146.828 145.22L146.664 145.397C145.852 146.27 145.158 147.133 144.574 147.986C144.16 148.19 143.772 148.465 143.436 148.806C142.679 149.573 142.171 150.64 141.963 151.886C141.879 152.383 141.85 152.918 141.857 153.499C141.673 153.423 141.484 153.352 141.288 153.293C141.087 153.232 140.874 153.337 140.8 153.531C138.5 159.485 136.165 163.223 130.442 165.91C125.635 168.166 118.514 167.112 113.21 165.758C113.72 165.008 114.119 164.159 114.367 163.25C115.039 160.768 114.629 157.889 113.273 155.552C112.702 154.564 111.969 153.654 111.26 152.773C109.83 150.993 108.479 149.311 108.408 147.104C108.391 146.574 108.452 146.047 108.516 145.49C108.567 145.049 108.621 144.593 108.631 144.134C108.67 142.533 108.212 140.848 107.231 138.982C105.205 135.127 101.971 132.517 98.5742 132.002C95.298 131.505 92.0365 133.081 90.0624 136.117C89.3144 137.27 89.0986 137.263 88.2992 137.265C87.9706 137.265 87.5635 137.263 87.0313 137.329C85.4521 137.53 83.9267 138.516 82.9532 139.968C81.6142 141.959 81.1532 144.789 81.6927 147.729C81.7614 148.112 81.8472 148.494 81.933 148.877C82.1734 149.961 82.4014 150.983 82.3009 152.028C82.0949 154.213 80.5916 155.817 79.0001 157.514C77.4674 159.147 75.8857 160.834 75.4835 163.12C75.1157 165.211 76.0132 167.418 77.5483 168.64C72.4991 172.953 70.6059 179.457 69.9021 183.464C68.7299 190.146 70.2405 196.655 73.941 200.873C74.3187 201.304 74.7307 201.692 75.1549 202.062L72.4525 205.414C72.1337 205.809 72.1877 206.378 72.5727 206.707L78.3037 211.599C78.2252 212.906 78.1099 214.316 77.9603 215.819C77.9456 215.957 78.0069 216.094 78.1173 216.177C85.3344 221.621 92.2155 225.891 96.7154 228.512C96.7767 228.549 96.8478 228.566 96.9165 228.566C96.9852 228.566 97.0563 228.549 97.1176 228.512C101.929 225.709 109.259 221.146 116.844 215.319C116.959 215.231 117.018 215.086 116.996 214.941C116.4 211.162 115.878 207.489 115.495 204.806L115.333 203.668C113.916 193.749 114.396 183.844 116.371 181.789C141.183 180.313 145.173 161.83 145.719 158.134C145.727 158.09 145.724 158.043 145.717 157.999C145.658 157.69 145.543 157.335 145.376 156.959C145.7 156.859 145.967 156.67 146.185 156.508C146.948 155.944 147.735 155.361 148.41 154.662C148.755 154.304 149.047 153.928 149.295 153.543C150.028 153.176 150.577 152.57 150.791 151.878C151.021 151.128 150.759 150.186 150.139 149.539C150.087 149.485 150.036 149.438 149.982 149.392V149.389Z" fill="#1D1F2B"/>
</g>
<path d="M95.8544 128.668C99.42 129.21 102.419 132.017 104.217 135.438C105.009 136.944 105.612 138.636 105.57 140.394C105.546 141.395 105.313 142.388 105.347 143.386C105.462 146.881 108.574 149.107 110.267 152.023C111.515 154.174 111.993 156.928 111.321 159.417C110.649 161.906 108.751 164.035 106.456 164.562C105.602 164.758 104.673 164.758 103.944 165.297C103.133 165.901 102.785 167.014 102.169 167.853C100.933 169.535 98.807 169.937 96.8795 170.222C93.2182 170.759 89.091 171.161 86.2856 168.584C85.3267 167.703 84.5837 166.509 83.4654 165.896C81.3638 164.738 78.7325 165.999 76.4617 165.31C74.2645 164.643 72.771 161.955 73.21 159.456C73.9947 154.99 79.608 152.85 80.0347 148.333C80.1745 146.839 79.6889 145.387 79.4216 143.923C78.9581 141.39 79.2058 138.56 80.6208 136.456C81.5134 135.129 82.9407 134.18 84.4194 133.992C86.3027 133.751 86.548 134.428 87.7373 132.601C89.5937 129.747 92.7179 128.187 95.8544 128.663V128.668Z" fill="#2B2B2B"/>
<path d="M92.5144 171.537C90.0106 171.537 87.5755 171.022 85.6652 169.264C85.29 168.918 84.9565 168.543 84.6328 168.177C84.1055 167.584 83.6053 167.022 83.0265 166.703C82.1045 166.196 80.9445 166.282 79.716 166.375C78.5658 166.461 77.3764 166.549 76.1969 166.191C73.5729 165.394 71.7926 162.238 72.3076 159.3C72.7367 156.86 74.3724 155.114 75.9566 153.427C77.4868 151.796 78.9312 150.256 79.12 148.25C79.2108 147.286 78.9925 146.3 78.7596 145.258C78.6762 144.881 78.5879 144.488 78.5168 144.093C77.9552 141.021 78.4432 138.051 79.8582 135.949C80.9176 134.375 82.5778 133.306 84.3042 133.085C84.8707 133.011 85.2998 133.014 85.6407 133.016C86.3322 133.019 86.3714 133.021 86.9649 132.107C89.0518 128.897 92.512 127.231 95.9918 127.761C99.5501 128.303 102.929 131.013 105.031 135.013C106.054 136.957 106.532 138.728 106.49 140.42C106.478 140.903 106.424 141.371 106.372 141.823C106.311 142.362 106.25 142.87 106.267 143.36C106.333 145.396 107.63 147.012 109.006 148.721C109.727 149.616 110.47 150.543 111.064 151.565C112.488 154.023 112.915 157.049 112.209 159.66C111.429 162.547 109.2 164.876 106.662 165.46C106.407 165.519 106.154 165.561 105.911 165.6C105.34 165.693 104.849 165.774 104.494 166.039C104.133 166.306 103.859 166.802 103.569 167.326C103.371 167.684 103.167 168.052 102.91 168.403C101.492 170.335 99.219 170.813 97.0144 171.137C95.5553 171.351 94.0226 171.537 92.5144 171.537ZM81.1162 164.465C82.0603 164.465 83.0045 164.594 83.9118 165.092C84.7701 165.566 85.3979 166.272 86.006 166.956C86.3126 167.302 86.602 167.628 86.911 167.91C89.3755 170.178 93.1226 169.847 96.7471 169.315C98.6427 169.036 100.428 168.675 101.428 167.312C101.615 167.057 101.784 166.753 101.961 166.434C102.316 165.794 102.718 165.065 103.398 164.563C104.111 164.033 104.908 163.9 105.615 163.785C105.84 163.748 106.051 163.714 106.252 163.668C108.145 163.233 109.828 161.429 110.433 159.18C111.014 157.029 110.654 154.528 109.472 152.488C108.95 151.588 108.28 150.754 107.571 149.873C106.068 148.002 104.516 146.07 104.428 143.419C104.408 142.791 104.477 142.19 104.545 141.609C104.594 141.18 104.643 140.773 104.651 140.373C104.683 139.002 104.276 137.529 103.403 135.866C101.571 132.381 98.6991 130.029 95.7171 129.576C92.9583 129.156 90.197 130.508 88.5099 133.105C87.4774 134.694 86.8472 134.865 85.6333 134.851C85.3292 134.851 84.9859 134.848 84.5371 134.905C83.3478 135.057 82.1412 135.846 81.3859 136.969C80.2358 138.679 79.8508 141.151 80.3266 143.757C80.3928 144.118 80.4712 144.476 80.5571 144.854C80.8097 145.989 81.0696 147.164 80.9519 148.417C80.7042 151.053 78.9729 152.897 77.298 154.68C75.834 156.24 74.4509 157.713 74.1174 159.611C73.7593 161.644 74.9806 163.896 76.7291 164.425C77.58 164.683 78.5511 164.612 79.5762 164.536C80.0838 164.496 80.5988 164.46 81.1137 164.46L81.1162 164.465Z" fill="#1D1F2B"/>
<g style="mix-blend-mode:multiply" opacity="0.4">
<path d="M73.2124 159.461C73.9972 154.996 79.6104 152.855 80.0371 148.338C80.1769 146.844 79.6914 145.393 79.4241 143.929C79.066 141.974 79.1347 139.843 79.8361 138.004C79.8459 139.461 80.0028 142.094 80.8807 144.083C82.1608 146.984 81.9475 150.27 80.8807 153.824C79.0047 160.082 89.243 163.692 96.6955 162.456C103.807 161.276 109.852 159.611 108.673 149.775C109.251 150.501 109.813 151.239 110.269 152.029C111.517 154.179 111.995 156.933 111.323 159.422C110.651 161.911 108.753 164.04 106.458 164.567C105.605 164.763 104.675 164.763 103.947 165.303C103.135 165.906 102.787 167.019 102.171 167.858C100.936 169.54 98.8094 169.943 96.8819 170.227C93.2206 170.764 89.0934 171.166 86.288 168.589C85.3292 167.708 84.5861 166.514 83.4679 165.901C81.3663 164.744 78.735 166.004 76.4642 165.315C74.2669 164.648 72.7735 161.96 73.2124 159.461Z" fill="#277EDB"/>
</g>
<path d="M113.943 211.278C106.24 217.193 98.8738 221.754 94.2586 224.444C89.869 221.887 82.9879 217.634 75.6972 212.134C76.1582 207.501 76.3618 202.854 75.9596 200.238C75.1552 195.014 74.574 190.914 74.2994 185.634C73.8776 177.525 75.8468 169.653 79.6086 162.455C91.7425 157.345 102.827 160.018 105.24 160.857C111.697 163.095 121.763 165.455 127.951 162.549C133.883 159.763 136.21 155.905 138.51 149.951C141.046 150.726 142.407 153.007 142.664 154.346C141.352 163.179 134.094 176.505 113.538 177.669C111.152 179.798 110.937 190.613 112.276 199.995C112.661 202.697 113.254 206.923 113.938 211.273L113.943 211.278Z" fill="#358FF0"/>
<path d="M94.2583 225.505L93.7948 225.236C89.2802 222.607 82.3819 218.327 75.1427 212.866L74.7308 212.555L74.7823 212.04C75.2972 206.863 75.3953 202.611 75.052 200.374C74.2771 195.342 73.6616 191.065 73.382 185.68C72.9651 177.651 74.7872 169.694 78.7942 162.028L78.9462 161.734L79.2503 161.606C90.3077 156.949 101.282 158.509 105.541 159.985C109.985 161.525 121.03 164.779 127.56 161.714C133.157 159.088 135.351 155.578 137.654 149.619L137.963 148.822L138.782 149.072C141.749 149.98 143.272 152.621 143.571 154.173L143.601 154.328L143.579 154.482C143.098 157.729 141.467 163.999 135.977 169.532C130.611 174.937 123.205 177.975 113.96 178.566C112.219 180.766 111.846 190.452 113.192 199.867L113.357 201.017C113.739 203.695 114.262 207.363 114.855 211.132L114.941 211.672L114.507 212.005C106.9 217.849 99.5504 222.425 94.7243 225.236L94.2608 225.505H94.2583ZM76.6632 211.706C83.4364 216.783 89.8761 220.804 94.2583 223.374C98.9422 220.628 105.813 216.319 112.95 210.877C112.388 207.287 111.898 203.832 111.532 201.277L111.368 200.127C110.301 192.669 109.784 179.79 112.928 176.984L113.168 176.771L113.489 176.754C137.058 175.42 141.117 158.256 141.732 154.379C141.482 153.381 140.543 151.924 139.03 151.152C136.707 156.927 134.184 160.642 128.343 163.384C121.202 166.736 109.597 163.342 104.94 161.729C104.825 161.689 93.324 157.817 80.2729 163.18C76.5258 170.461 74.8264 178 75.2212 185.592C75.4959 190.904 76.0795 194.957 76.8716 200.102C77.3473 203.192 76.9721 208.501 76.6656 211.714L76.6632 211.706Z" fill="#1D1F2B"/>
<g style="mix-blend-mode:multiply" opacity="0.33">
<path d="M113.943 211.277C106.24 217.192 98.8735 221.753 94.2583 224.443C89.8687 221.886 82.9876 217.634 75.6969 212.133C76.1579 207.501 76.3615 202.854 75.9593 200.237C75.1966 195.288 74.6351 191.345 74.3457 186.455C75.5866 183.564 77.0579 181.401 78.7991 180.521C78.0855 187.137 90.2071 190.97 95.1313 190.97C100.055 190.97 107.557 189.319 108.921 180.521C110.25 171.95 117.283 175.383 128.306 170.054C136.796 165.952 140.256 156.172 141.401 151.893C142.115 152.739 142.534 153.666 142.664 154.347C141.352 163.18 134.093 176.506 113.538 177.671C111.152 179.8 110.936 190.614 112.275 199.997C112.66 202.699 113.254 206.924 113.938 211.275L113.943 211.277Z" fill="#DE3A3A"/>
</g>
<path d="M95.2244 154.386L95.9478 161.115C96.0165 161.757 95.6266 162.366 95.0111 162.564C92.9021 163.246 90.8397 162.898 89.5425 161.652C89.2335 161.355 89.0814 160.929 89.1329 160.502L90.109 152.26L95.2269 154.386H95.2244Z" fill="#FFCAAD"/>
<path d="M92.9042 163.83C91.3544 163.83 89.9468 163.31 88.907 162.315C88.392 161.822 88.1345 161.103 88.2204 160.392L89.1964 152.15C89.2307 151.863 89.3975 151.611 89.6452 151.466C89.8953 151.321 90.1969 151.299 90.4618 151.41L95.5797 153.536C95.8887 153.666 96.1045 153.953 96.1413 154.286L96.8647 161.015C96.9799 162.089 96.3203 163.107 95.2977 163.438C94.486 163.7 93.6792 163.83 92.9067 163.83H92.9042ZM90.8786 153.575L90.0449 160.608C90.0277 160.748 90.0792 160.89 90.1797 160.988C91.2391 162.006 92.941 162.266 94.7287 161.69C94.9274 161.626 95.0574 161.425 95.0328 161.211L94.3683 155.024L90.8786 153.572V153.575Z" fill="#1D1F2B"/>
<path d="M78.2152 180.833C76.3883 185.09 77.6144 189.72 80.7607 193.055C83.7231 196.194 94.2556 202.28 94.2556 202.28L91.8867 205.721C91.8867 205.721 84.2896 204.37 80.6332 202.565C77.4011 200.968 73.9556 199.59 71.5793 196.88C67.5944 192.339 66.5889 185.754 67.6336 179.803C68.2393 176.35 70.4562 166.31 79.6106 162.455C82.2198 164.677 83.0291 168.461 82.5337 171.852C82.0384 175.244 79.5689 177.681 78.2177 180.83L78.2152 180.833Z" fill="#358FF0"/>
<g style="mix-blend-mode:multiply" opacity="0.6">
<path d="M89.9738 153.396L95.0009 154.292L95.2266 154.385L95.8151 159.856C94.741 160.108 92.9435 160.143 90.8786 158.605C90.3293 158.196 89.883 157.769 89.5078 157.34L89.9738 153.396Z" fill="#FFCAAD"/>
</g>
<path d="M92.3086 206.731L91.7249 206.628C91.4086 206.572 83.9561 205.233 80.2261 203.391C79.7529 203.158 79.2747 202.93 78.7965 202.7C75.9641 201.344 73.0385 199.941 70.8854 197.489C67.0819 193.15 65.5247 186.48 66.7238 179.646C68.281 170.761 72.7295 164.356 79.2477 161.609C79.7161 161.413 80.2556 161.631 80.4518 162.1C80.648 162.568 80.4297 163.107 79.9613 163.304C71.9693 166.671 69.3723 175.185 68.5336 179.962C67.4301 186.255 68.8255 192.353 72.266 196.275C74.169 198.442 76.8003 199.705 79.5886 201.039C80.0741 201.272 80.5572 201.503 81.0378 201.741C83.9634 203.185 89.6405 204.355 91.465 204.708L92.9339 202.575C90.3296 201.035 82.6367 196.385 80.0888 193.685C76.5305 189.913 75.4859 184.849 77.3668 180.47C77.9038 179.217 78.6003 178.088 79.2722 176.995C79.7602 176.205 80.2188 175.457 80.6136 174.68C80.8441 174.226 81.3983 174.047 81.8496 174.278C82.3032 174.508 82.4823 175.062 82.2517 175.514C81.8226 176.357 81.3223 177.171 80.8368 177.959C80.1992 178.996 79.5395 180.067 79.0539 181.196C77.4673 184.891 78.3771 189.195 81.4253 192.425C84.2626 195.431 94.6088 201.427 94.7118 201.486L95.5726 201.984L92.3012 206.731H92.3086Z" fill="#1D1F2B"/>
<path d="M87.7179 138.92C89.486 136.678 92.5882 135.58 95.374 136.205C97.4756 136.678 99.7145 138.032 100.767 139.903C102.012 142.115 100.458 145.058 100.965 147.527C101.11 148.224 101.257 148.952 101.223 149.663C101.161 151.022 100.58 152.101 99.712 153.15C98.5595 154.546 97.3701 156.672 95.6609 157.273C93.8756 157.9 91.7912 156.787 90.1898 155.777C88.5885 154.766 87.3721 153.248 86.3495 151.657C85.837 151.919 85.4201 151.873 84.9076 151.613C84.3951 151.353 83.988 150.919 83.652 150.45C83.1861 149.798 82.833 149.048 82.7618 148.248C82.6907 147.449 82.9261 146.605 83.4975 146.041C84.0665 145.477 85.1847 145.651 85.9057 146.002C85.1823 142.765 86.9111 139.94 87.7179 138.92Z" fill="#FFCAAD"/>
<path d="M94.5573 158.37C92.8432 158.37 91.1045 157.439 89.6994 156.551C88.3531 155.7 87.1539 154.479 85.9596 152.73C85.3539 152.806 84.8537 152.612 84.4932 152.431C83.9095 152.137 83.3896 151.663 82.9041 150.982C82.2812 150.111 81.9256 149.218 81.8471 148.328C81.7466 147.205 82.1218 146.106 82.8501 145.386C83.3675 144.873 84.091 144.709 84.8193 144.763C84.6844 141.472 86.5678 138.887 86.9969 138.347C88.9907 135.824 92.4361 134.6 95.575 135.304C98.1205 135.876 100.472 137.501 101.568 139.446C102.437 140.989 102.201 142.688 101.976 144.331C101.826 145.415 101.684 146.44 101.868 147.335C102.015 148.051 102.182 148.863 102.145 149.699C102.081 151.124 101.549 152.367 100.426 153.731C100.173 154.037 99.9107 154.39 99.636 154.761C98.6551 156.082 97.5467 157.581 95.9723 158.135C95.5088 158.299 95.0355 158.37 94.5622 158.37H94.5573ZM86.3495 150.734C86.6536 150.734 86.9504 150.886 87.1245 151.156C88.2967 152.983 89.4272 154.204 90.6827 154.996C92.1271 155.908 93.9663 156.892 95.3568 156.401C96.399 156.033 97.3333 154.775 98.1549 153.667C98.4442 153.275 98.7189 152.907 99.0033 152.561C99.869 151.511 100.256 150.631 100.303 149.618C100.33 149.012 100.195 148.35 100.063 147.71C99.8151 146.504 99.9843 145.273 100.149 144.083C100.342 142.678 100.526 141.354 99.9622 140.351C99.1235 138.862 97.196 137.555 95.1704 137.099C92.7451 136.555 89.9789 137.536 88.4389 139.485C88.0416 139.988 86.0994 142.654 86.8032 145.798C86.8792 146.143 86.7542 146.501 86.4771 146.72C86.2 146.938 85.8223 146.979 85.5035 146.825C84.9493 146.555 84.3068 146.531 84.1449 146.693C83.8065 147.026 83.6275 147.59 83.6814 148.164C83.7305 148.723 83.9757 149.312 84.4049 149.912C84.7139 150.344 85.0155 150.631 85.3245 150.788C85.6654 150.96 85.761 150.923 85.9327 150.835C86.0675 150.766 86.2098 150.732 86.352 150.732L86.3495 150.734Z" fill="#1D1F2B"/>
<g style="mix-blend-mode:multiply" opacity="0.33">
<path d="M91.8867 205.719C91.8867 205.719 84.2895 204.368 80.6332 202.563C77.4011 200.967 73.9556 199.588 71.5793 196.879C67.5944 192.337 66.5889 185.753 67.6336 179.801C67.9451 178.023 68.6881 174.499 70.5813 170.973C69.3698 178.592 68.3865 193.504 78.0632 198.22C85.3367 201.764 90.2069 203.436 92.8333 204.346L91.8892 205.717L91.8867 205.719Z" fill="#DE3A3A"/>
</g>
<g style="mix-blend-mode:multiply" opacity="0.6">
<path d="M83.0951 146.941C82.7542 150.355 87.3057 150.583 87.3057 150.583C87.3057 150.583 90.4912 154.565 94.074 155.247C96.0849 155.63 98.5421 153.918 100.313 152.341C100.134 152.616 99.9325 152.883 99.7142 153.148C98.5617 154.543 97.3723 156.669 95.6631 157.27C93.8778 157.898 91.7934 156.785 90.192 155.774C88.5907 154.764 87.3743 153.246 86.3517 151.654C85.8392 151.917 85.4223 151.87 84.9098 151.61C84.3948 151.35 83.9902 150.916 83.6542 150.448C83.1883 149.796 82.8352 149.045 82.764 148.246C82.7125 147.667 82.8254 147.061 83.1074 146.559C83.1123 146.666 83.1123 146.789 83.0975 146.941H83.0951Z" fill="#FFCAAD"/>
</g>
</g>
</svg>
