<svg width="19" height="19" viewBox="0 0 19 19" fill="none" xmlns="http://www.w3.org/2000/svg">
<path d="M9.61877 13.0625V14.725" stroke="#FFDA6D" stroke-width="1.5" stroke-linecap="round" stroke-linejoin="round"/>
<path d="M5.6604 17.416H13.5771V16.6243C13.5771 15.7535 12.8646 15.041 11.9937 15.041H7.24373C6.3729 15.041 5.6604 15.7535 5.6604 16.6243V17.416V17.416Z" stroke="#FFDA6D" stroke-width="1.5" stroke-miterlimit="10"/>
<path d="M4.86877 17.416H14.3688" stroke="#FFDA6D" stroke-width="1.5" stroke-linecap="round" stroke-linejoin="round"/>
<path d="M9.49998 12.6673C6.43623 12.6673 3.95831 10.1894 3.95831 7.12565V4.75065C3.95831 3.00107 5.3754 1.58398 7.12498 1.58398H11.875C13.6246 1.58398 15.0416 3.00107 15.0416 4.75065V7.12565C15.0416 10.1894 12.5637 12.6673 9.49998 12.6673Z" stroke="#FFDA6D" stroke-width="1.5" stroke-linecap="round" stroke-linejoin="round"/>
<path d="M4.33041 9.22253C3.73666 9.03253 3.21416 8.68419 2.80249 8.27253C2.08999 7.48086 1.61499 6.53086 1.61499 5.42253C1.61499 4.31419 2.48582 3.44336 3.59416 3.44336H4.10874C3.95041 3.80753 3.87124 4.21128 3.87124 4.63086V7.00586C3.87124 7.79753 4.03749 8.54169 4.33041 9.22253Z" stroke="#FFDA6D" stroke-width="1.5" stroke-linecap="round" stroke-linejoin="round"/>
<path d="M14.6696 9.22253C15.2633 9.03253 15.7858 8.68419 16.1975 8.27253C16.91 7.48086 17.385 6.53086 17.385 5.42253C17.385 4.31419 16.5141 3.44336 15.4058 3.44336H14.8912C15.0496 3.80753 15.1287 4.21128 15.1287 4.63086V7.00586C15.1287 7.79753 14.9625 8.54169 14.6696 9.22253Z" stroke="#FFDA6D" stroke-width="1.5" stroke-linecap="round" stroke-linejoin="round"/>
<path d="M9.5 3.5L10.2858 5.91844H12.8287L10.7714 7.41312L11.5572 9.83156L9.5 8.33688L7.44275 9.83156L8.22855 7.41312L6.1713 5.91844H8.7142L9.5 3.5Z" fill="#FFDA6D"/>
</svg>
