<svg width="82" height="82" viewBox="0 0 82 82" fill="none" xmlns="http://www.w3.org/2000/svg">
<g filter="url(#filter0_d_25269_248934)">
<path d="M41 63.6667C55.6666 63.6667 67.6666 51.6667 67.6666 37C67.6666 22.3333 55.6666 10.3333 41 10.3333C26.3333 10.3333 14.3333 22.3333 14.3333 37C14.3333 51.6667 26.3333 63.6667 41 63.6667Z" fill="white"/>
<path d="M41 63.6667C55.6666 63.6667 67.6666 51.6667 67.6666 37C67.6666 22.3333 55.6666 10.3333 41 10.3333C26.3333 10.3333 14.3333 22.3333 14.3333 37C14.3333 51.6667 26.3333 63.6667 41 63.6667Z" stroke="#F95031" stroke-width="4" stroke-linecap="round" stroke-linejoin="round"/>
</g>
<path d="M30.3333 37H51.6666" stroke="#F95031" stroke-width="4" stroke-linecap="round" stroke-linejoin="round"/>
<path d="M41 47.6667V26.3333" stroke="#F95031" stroke-width="4" stroke-linecap="round" stroke-linejoin="round"/>
<defs>
<filter id="filter0_d_25269_248934" x="0.333313" y="0.333344" width="81.3333" height="81.3333" filterUnits="userSpaceOnUse" color-interpolation-filters="sRGB">
<feFlood flood-opacity="0" result="BackgroundImageFix"/>
<feColorMatrix in="SourceAlpha" type="matrix" values="0 0 0 0 0 0 0 0 0 0 0 0 0 0 0 0 0 0 127 0" result="hardAlpha"/>
<feOffset dy="4"/>
<feGaussianBlur stdDeviation="6"/>
<feColorMatrix type="matrix" values="0 0 0 0 0 0 0 0 0 0 0 0 0 0 0 0 0 0 0.12 0"/>
<feBlend mode="normal" in2="BackgroundImageFix" result="effect1_dropShadow_25269_248934"/>
<feBlend mode="normal" in="SourceGraphic" in2="effect1_dropShadow_25269_248934" result="shape"/>
</filter>
</defs>
</svg>
