<svg width="25" height="24" viewBox="0 0 25 24" fill="none" xmlns="http://www.w3.org/2000/svg">
<path d="M11.0034 2H9.00342C4.00342 2 2.00342 4 2.00342 9V15C2.00342 20 4.00342 22 9.00342 22H15.0034C20.0034 22 22.0034 20 22.0034 15V13" stroke="#222222" stroke-width="1.5" stroke-linecap="round" stroke-linejoin="round"/>
<path d="M16.0434 3.02001L8.16342 10.9C7.86342 11.2 7.56342 11.79 7.50342 12.22L7.07342 15.23C6.91342 16.32 7.68342 17.08 8.77342 16.93L11.7834 16.5C12.2034 16.44 12.7934 16.14 13.1034 15.84L20.9834 7.96001C22.3434 6.60001 22.9834 5.02001 20.9834 3.02001C18.9834 1.02001 17.4034 1.66001 16.0434 3.02001Z" stroke="#222222" stroke-width="1.5" stroke-miterlimit="10" stroke-linecap="round" stroke-linejoin="round"/>
<path d="M14.9135 4.15002C15.5835 6.54002 17.4535 8.41002 19.8535 9.09002" stroke="#222222" stroke-width="1.5" stroke-miterlimit="10" stroke-linecap="round" stroke-linejoin="round"/>
</svg>
