<svg width="152" height="144" viewBox="0 0 152 144" fill="none" xmlns="http://www.w3.org/2000/svg">
<ellipse cx="42.4955" cy="100.658" rx="42.4955" ry="43.1392" fill="#E31A1A"/>
<path d="M151.266 71.8987C151.266 111.254 119.168 143.165 79.5661 143.165C39.9638 143.165 7.86631 111.254 7.86631 71.8987C7.86631 32.5433 39.9638 0.632911 79.5661 0.632911C119.168 0.632911 151.266 32.5433 151.266 71.8987Z" fill="url(#paint0_linear)" stroke="url(#paint1_linear)" stroke-width="1.26582"/>
<ellipse cx="133.438" cy="26.962" rx="17.7064" ry="17.9747" fill="#E31A1A"/>
<path fill-rule="evenodd" clip-rule="evenodd" d="M79.7458 107.842C99.5535 107.842 115.611 91.785 115.611 71.9773C115.611 52.1696 99.5535 36.1123 79.7458 36.1123C59.9382 36.1123 43.8809 52.1696 43.8809 71.9773C43.8809 91.785 59.9382 107.842 79.7458 107.842ZM91.5271 83.4288C92.7465 82.2203 92.7465 80.2595 91.5271 79.0474L85.1432 72.7018L91.5271 66.3526C92.7465 65.144 92.7465 63.1476 91.5271 61.9355C90.3077 60.7199 88.3352 60.7199 87.0799 61.9355L80.7318 68.2776L74.3478 61.9355C73.0925 60.7199 71.12 60.7199 69.9006 61.9355C68.6812 63.1476 68.6812 65.144 69.9006 66.3526L76.2845 72.7018L69.9006 79.0118C68.6812 80.2595 68.6812 82.2203 69.9006 83.4288C70.5103 84.0348 71.3352 84.3593 72.1242 84.3593C72.9491 84.3593 73.7381 84.0348 74.3478 83.4288L80.7318 77.1224L87.1157 83.4288C87.7255 84.0741 88.5145 84.3593 89.3035 84.3593C90.1284 84.3593 90.9174 84.0348 91.5271 83.4288Z" fill="white"/>
<defs>
<linearGradient id="paint0_linear" x1="37.9748" y1="119.532" x2="133.25" y2="25.49" gradientUnits="userSpaceOnUse">
<stop stop-color="#FF4127"/>
<stop offset="1" stop-color="#F7A69B"/>
</linearGradient>
<linearGradient id="paint1_linear" x1="32.5499" y1="120.43" x2="133.257" y2="27.2568" gradientUnits="userSpaceOnUse">
<stop stop-color="white" stop-opacity="0.25"/>
<stop offset="1" stop-color="white" stop-opacity="0.05"/>
</linearGradient>
</defs>
</svg>
