<svg width="45" height="44" viewBox="0 0 45 44" fill="none" xmlns="http://www.w3.org/2000/svg">
<rect x="0.5" width="44" height="44" rx="22" fill="#BEE6FC"/>
<path d="M19.7138 26.2089C19.7138 27.7787 18.4381 29.0544 16.8683 29.0544C15.2986 29.0544 14.0229 27.7787 14.0229 26.2089" stroke="#08A0F7" stroke-miterlimit="10"/>
<path d="M29.1987 29.0544C30.7702 29.0544 32.0441 27.7804 32.0441 26.2089C32.0441 24.6374 30.7702 23.3635 29.1987 23.3635C27.6272 23.3635 26.3532 24.6374 26.3532 26.2089C26.3532 27.7804 27.6272 29.0544 29.1987 29.0544Z" stroke="#08A0F7" stroke-miterlimit="10"/>
<path d="M29.5543 23.482C29.6776 22.875 29.2366 15.2634 25.7604 16.3684C25.1961 16.5486 25.7604 18.2654 25.7604 18.2654C26 20 26.1108 25 24 25C23.4262 25.1423 21.4173 24.9173 21 24.5C20.3313 23.8313 20.7809 21.5 20.7809 21.5C20.7809 21.5 16.0384 21.329 14.8528 22.0593C13.7336 22.747 12.9559 26.3275 12.9559 26.3275H20.7809" stroke="#08A0F7" stroke-miterlimit="10"/>
<path d="M20.0695 21.5851H16.2756C15.7539 21.5851 15.3271 21.1583 15.3271 20.6366C15.3271 20.1149 15.7539 19.6881 16.2756 19.6881H20.0695C20.5912 19.6881 21.018 20.1149 21.018 20.6366C21.018 21.1583 20.5912 21.5851 20.0695 21.5851Z" stroke="#08A0F7" stroke-miterlimit="10"/>
<path d="M29.1987 27.8688C30.1154 27.8688 30.8585 27.1256 30.8585 26.2089C30.8585 25.2922 30.1154 24.5491 29.1987 24.5491C28.282 24.5491 27.5388 25.2922 27.5388 26.2089C27.5388 27.1256 28.282 27.8688 29.1987 27.8688Z" stroke="#08A0F7" stroke-miterlimit="10"/>
<path d="M18.5282 26.2089C18.5282 27.1242 17.7836 27.8688 16.8683 27.8688C15.9531 27.8688 15.2085 27.1242 15.2085 26.2089" stroke="#08A0F7" stroke-miterlimit="10"/>
<path d="M20.3493 26.3275H26.4718" stroke="#08A0F7" stroke-miterlimit="10"/>
<path d="M18.1725 19.6881H14.3786C14.1178 19.6881 13.9044 19.4747 13.9044 19.2139V15.8942C13.9044 15.6333 14.1178 15.4199 14.3786 15.4199H18.1725C18.4334 15.4199 18.6468 15.6333 18.6468 15.8942V19.2139C18.6468 19.4747 18.4334 19.6881 18.1725 19.6881Z" stroke="#08A0F7" stroke-miterlimit="10"/>
<path d="M27.3064 18.9672C28.417 18.9672 29.3172 18.067 29.3172 16.9565C29.3172 15.8459 28.417 14.9457 27.3064 14.9457C26.1959 14.9457 25.2957 15.8459 25.2957 16.9565C25.2957 18.067 26.1959 18.9672 27.3064 18.9672Z" fill="#BEE6FC" stroke="#08A0F7" stroke-miterlimit="10"/>
<path d="M28.715 18.1658C27.9372 18.1658 27.3065 17.5351 27.3065 16.7573C27.3065 15.9796 27.9372 15.3488 28.715 15.3488" stroke="#08A0F7" stroke-miterlimit="10"/>
<path d="M23.3608 17.4213L24.9874 17.0608C25.1155 17.0324 25.2388 17.0561 25.2625 17.1177L25.272 17.1462C25.2957 17.2031 25.2103 17.2742 25.0823 17.3027L23.4556 17.6631C23.3276 17.6916 23.2043 17.6679 23.1806 17.6062L23.1711 17.5778C23.1474 17.5209 23.2327 17.4497 23.3608 17.4213Z" fill="#08A0F7" stroke="#08A0F7" stroke-miterlimit="10"/>
</svg>
