<svg width="112" height="112" viewBox="0 0 112 112" fill="none" xmlns="http://www.w3.org/2000/svg">
<rect x="67.2002" y="67.2002" width="44.8" height="44.8" rx="11.2" fill="#FBA63C"/>
<rect x="7.93346" y="7.93346" width="96.1333" height="96.1333" rx="21.9333" fill="url(#paint0_linear_25569_5057)" stroke="white" stroke-width="0.933333"/>
<rect width="28" height="28" rx="7.46667" fill="#FBA63C"/>
<path d="M55.9995 29.8662C41.6001 29.8662 29.8662 41.6001 29.8662 55.9995C29.8662 70.399 41.6001 82.1329 55.9995 82.1329C70.399 82.1329 82.1329 70.399 82.1329 55.9995C82.1329 41.6001 70.399 29.8662 55.9995 29.8662ZM54.0395 45.5462C54.0395 44.4747 54.9281 43.5862 55.9995 43.5862C57.071 43.5862 57.9595 44.4747 57.9595 45.5462V58.6129C57.9595 59.6843 57.071 60.5729 55.9995 60.5729C54.9281 60.5729 54.0395 59.6843 54.0395 58.6129V45.5462ZM58.4038 67.4459C58.2731 67.7857 58.0902 68.047 57.855 68.3083C57.5937 68.5435 57.3062 68.7265 56.9926 68.8571C56.679 68.9878 56.3393 69.0662 55.9995 69.0662C55.6598 69.0662 55.3201 68.9878 55.0065 68.8571C54.6929 68.7265 54.4054 68.5435 54.1441 68.3083C53.9089 68.047 53.7259 67.7857 53.5953 67.4459C53.4646 67.1323 53.3862 66.7926 53.3862 66.4529C53.3862 66.1131 53.4646 65.7734 53.5953 65.4598C53.7259 65.1462 53.9089 64.8587 54.1441 64.5974C54.4054 64.3622 54.6929 64.1793 55.0065 64.0486C55.6337 63.7873 56.3654 63.7873 56.9926 64.0486C57.3062 64.1793 57.5937 64.3622 57.855 64.5974C58.0902 64.8587 58.2731 65.1462 58.4038 65.4598C58.5345 65.7734 58.6129 66.1131 58.6129 66.4529C58.6129 66.7926 58.5345 67.1323 58.4038 67.4459Z" fill="white"/>
<defs>
<linearGradient id="paint0_linear_25569_5057" x1="7.4668" y1="7.4668" x2="104.533" y2="104.533" gradientUnits="userSpaceOnUse">
<stop stop-color="#FFD39B"/>
<stop offset="1" stop-color="#FF9C20"/>
</linearGradient>
</defs>
</svg>
