<svg width="22" height="22" viewBox="0 0 22 22" fill="none" xmlns="http://www.w3.org/2000/svg">
<path d="M21.2647 1.42772C20.98 1.19085 20.6364 1.03561 20.2704 0.978523C19.9045 0.921433 19.5299 0.964627 19.1866 1.10351L1.26566 8.33886C0.88241 8.49654 0.556176 8.76705 0.33026 9.11448C0.104343 9.4619 -0.0105725 9.86982 0.000764965 10.2841C0.0121025 10.6984 0.149157 11.0994 0.393738 11.4339C0.638319 11.7685 0.978859 12.0207 1.37016 12.1572L4.99516 13.418L7.01566 20.0996C7.04312 20.1889 7.08297 20.2738 7.13404 20.352C7.14179 20.364 7.15272 20.3729 7.16096 20.3846C7.21996 20.4669 7.29127 20.5397 7.37239 20.6003C7.39546 20.6179 7.41755 20.6344 7.44221 20.65C7.53714 20.713 7.64228 20.7591 7.75294 20.7861L7.76478 20.7871L7.77149 20.79C7.83802 20.8035 7.90574 20.8104 7.97364 20.8105C7.98017 20.8105 7.98597 20.8074 7.99244 20.8073C8.0949 20.8055 8.19647 20.7878 8.29353 20.755C8.31611 20.7473 8.33546 20.7344 8.35737 20.7251C8.42975 20.6951 8.49832 20.6567 8.56166 20.6106C8.61238 20.5678 8.66312 20.5251 8.71388 20.4824L11.416 17.499L15.4463 20.6211C15.8011 20.8973 16.2379 21.0474 16.6875 21.0478C17.1587 21.0472 17.6154 20.8846 17.9809 20.5874C18.3465 20.2901 18.5987 19.8762 18.6954 19.415L21.958 3.39843C22.032 3.03795 22.0065 2.66415 21.8844 2.31702C21.7623 1.96989 21.5481 1.66249 21.2647 1.42772ZM8.37016 13.7363C8.2315 13.8744 8.13672 14.0504 8.0977 14.2422L7.78819 15.7462L7.00413 13.1531L11.0694 11.0362L8.37016 13.7363ZM16.6719 19.04L11.9092 15.3505C11.71 15.1966 11.46 15.1233 11.2092 15.1454C10.9583 15.1675 10.725 15.2833 10.5557 15.4697L9.69029 16.4249L9.99613 14.9384L17.0791 7.85543C17.2482 7.68659 17.3512 7.46278 17.3695 7.22455C17.3878 6.98632 17.3201 6.74941 17.1788 6.55675C17.0375 6.36408 16.8319 6.22839 16.5992 6.17426C16.3664 6.12014 16.122 6.15115 15.9102 6.26168L5.74491 11.5543L2.02055 10.1914L19.999 2.99899L16.6719 19.04Z" fill="#3D5A80"/>
</svg>
