<svg width="128" height="152" viewBox="0 0 128 152" fill="none" xmlns="http://www.w3.org/2000/svg">
<path d="M0.794945 57.2557C0.766878 58.0396 0.742702 58.7771 0.742702 59.531C0.742702 73.4164 5.667 86.9108 14.6078 97.5307C31.2312 125.4 57.4873 149.286 59.7878 151.353C62.25 149.147 87.277 126.406 103.654 99.0589C113.454 88.167 118.837 74.1432 118.837 59.531C118.837 26.9724 92.3484 0.483918 59.7898 0.483918C44.4555 0.483918 29.9265 6.33639 18.8778 16.9621C7.86202 27.556 1.44437 41.783 0.805601 57.0234L0.794945 57.2557ZM59.7878 152L59.6272 151.859C59.3484 151.612 31.5389 126.862 14.2148 97.8104C5.22276 87.1353 0.258789 73.5296 0.258789 59.531C0.258789 58.6919 0.28975 57.8412 0.321688 57.0427L0.331376 56.7998C1.0224 41.5111 7.48554 27.2463 18.543 16.6128C29.6817 5.89991 44.3297 4.73755e-06 59.7898 4.73755e-06C92.6155 4.73755e-06 119.321 26.7052 119.321 59.531C119.321 74.2623 113.894 88.4022 104.041 99.3454C87.1599 127.544 61.0508 150.878 59.9485 151.858L59.7878 152" fill="white"/>
<path d="M112.996 61.2159C112.996 31.8308 89.1744 8.01062 59.7902 8.01062C31.1619 8.01062 7.82668 30.622 6.64109 58.957H6.63819L6.64109 58.9919C6.61012 59.7303 6.58398 60.4707 6.58398 61.2159C6.58398 74.2612 11.2867 86.2042 19.0767 95.4576C34.7874 121.8 59.7883 143.909 59.7883 143.909C61.2565 142.605 84.2956 121.924 99.3395 96.8C107.827 87.3733 112.996 74.899 112.996 61.2159" fill="#FF9B1E"/>
<path d="M97.4586 61.2159C97.4586 82.0203 80.5942 98.8857 59.7889 98.8857C38.9854 98.8857 22.1191 82.0203 22.1191 61.2159C22.1191 40.4125 38.9854 23.5472 59.7889 23.5472C80.5942 23.5472 97.4586 40.4125 97.4586 61.2159Z" fill="white"/>
<path d="M96.29 118.75C110.728 118.75 122.54 106.938 122.54 92.5C122.54 78.0625 110.728 66.25 96.29 66.25C81.8525 66.25 70.04 78.0625 70.04 92.5C70.04 106.938 81.8525 118.75 96.29 118.75Z" fill="#F05322" stroke="white" stroke-width="3.9375" stroke-linecap="round" stroke-linejoin="round"/>
<path d="M85.79 92.5H106.79" stroke="white" stroke-width="3.9375" stroke-linecap="round" stroke-linejoin="round"/>
</svg>
