<svg width="129" height="165" viewBox="0 0 129 165" fill="none" xmlns="http://www.w3.org/2000/svg">
<path d="M121.903 66.1925C121.903 34.4185 96.1445 8.66183 64.3715 8.66183C33.4159 8.66183 8.18357 33.1114 6.9016 63.75H6.89845L6.9016 63.7876C6.86811 64.5861 6.83984 65.3867 6.83984 66.1925C6.83984 80.2984 11.9248 93.2122 20.3482 103.218C37.3361 131.702 64.3694 155.608 64.3694 155.608C65.957 154.198 90.8691 131.836 107.136 104.669C116.314 94.4764 121.903 80.988 121.903 66.1925Z" fill="#FF9B1E"/>
<path d="M105.102 66.1925C105.102 88.6882 86.8666 106.925 64.3698 106.925C41.8752 106.925 23.6377 88.6882 23.6377 66.1925C23.6377 43.6979 41.8752 25.4615 64.3698 25.4615C86.8666 25.4615 105.102 43.6979 105.102 66.1925Z" fill="white"/>
<path d="M91.5003 130.583C106.396 130.583 118.584 118.396 118.584 103.5C118.584 88.6042 106.396 76.4167 91.5003 76.4167C76.6045 76.4167 64.417 88.6042 64.417 103.5C64.417 118.396 76.6045 130.583 91.5003 130.583Z" fill="#F05322" stroke="white" stroke-width="2.82609" stroke-linecap="round" stroke-linejoin="round"/>
<path d="M83.835 111.165L99.1641 95.8354" stroke="white" stroke-width="4.0625" stroke-linecap="round" stroke-linejoin="round"/>
<path d="M99.1641 111.165L83.835 95.8354" stroke="white" stroke-width="4.0625" stroke-linecap="round" stroke-linejoin="round"/>
</svg>
