<svg width="49" height="49" viewBox="0 0 49 49" fill="none" xmlns="http://www.w3.org/2000/svg">
<rect width="49" height="49" rx="8" fill="#C4C4C4"/>
<path d="M20.9997 36.1673H27.9997C33.833 36.1673 36.1663 33.834 36.1663 28.0007V21.0007C36.1663 15.1673 33.833 12.834 27.9997 12.834H20.9997C15.1663 12.834 12.833 15.1673 12.833 21.0007V28.0007C12.833 33.834 15.1663 36.1673 20.9997 36.1673Z" stroke="white" stroke-width="1.5" stroke-linecap="round" stroke-linejoin="round"/>
<path d="M21.0003 22.1667C22.289 22.1667 23.3337 21.122 23.3337 19.8333C23.3337 18.5447 22.289 17.5 21.0003 17.5C19.7117 17.5 18.667 18.5447 18.667 19.8333C18.667 21.122 19.7117 22.1667 21.0003 22.1667Z" stroke="white" stroke-width="1.5" stroke-linecap="round" stroke-linejoin="round"/>
<path d="M13.6152 32.6093L19.3669 28.7476C20.2886 28.1293 21.6186 28.1993 22.4469 28.911L22.8319 29.2493C23.7419 30.031 25.2119 30.031 26.1219 29.2493L30.9752 25.0843C31.8852 24.3026 33.3552 24.3026 34.2652 25.0843L36.1669 26.7176" stroke="white" stroke-width="1.5" stroke-linecap="round" stroke-linejoin="round"/>
</svg>
