<svg width="44" height="44" viewBox="0 0 44 44" fill="none" xmlns="http://www.w3.org/2000/svg">
<rect width="44" height="44" rx="22" fill="#FCEBBE"/>
<path d="M22 24H23C24.1 24 25 23.1 25 22V12H16C14.5 12 13.19 12.83 12.51 14.05" stroke="#FBA63C" stroke-width="1.5" stroke-linecap="round" stroke-linejoin="round"/>
<path d="M12 27C12 28.66 13.34 30 15 30H16C16 28.9 16.9 28 18 28C19.1 28 20 28.9 20 30H24C24 28.9 24.9 28 26 28C27.1 28 28 28.9 28 30H29C30.66 30 32 28.66 32 27V24H29C28.45 24 28 23.55 28 23V20C28 19.45 28.45 19 29 19H30.29L28.58 16.01C28.22 15.39 27.56 15 26.84 15H25V22C25 23.1 24.1 24 23 24H22" stroke="#FBA63C" stroke-width="1.5" stroke-linecap="round" stroke-linejoin="round"/>
<path d="M18 32C19.1046 32 20 31.1046 20 30C20 28.8954 19.1046 28 18 28C16.8954 28 16 28.8954 16 30C16 31.1046 16.8954 32 18 32Z" stroke="#FBA63C" stroke-width="1.5" stroke-linecap="round" stroke-linejoin="round"/>
<path d="M26 32C27.1046 32 28 31.1046 28 30C28 28.8954 27.1046 28 26 28C24.8954 28 24 28.8954 24 30C24 31.1046 24.8954 32 26 32Z" stroke="#FBA63C" stroke-width="1.5" stroke-linecap="round" stroke-linejoin="round"/>
<path d="M32 22V24H29C28.45 24 28 23.55 28 23V20C28 19.45 28.45 19 29 19H30.29L32 22Z" stroke="#FBA63C" stroke-width="1.5" stroke-linecap="round" stroke-linejoin="round"/>
<path d="M12 18H18" stroke="#FBA63C" stroke-width="1.5" stroke-linecap="round" stroke-linejoin="round"/>
<path d="M12 21H16" stroke="#FBA63C" stroke-width="1.5" stroke-linecap="round" stroke-linejoin="round"/>
<path d="M12 24H14" stroke="#FBA63C" stroke-width="1.5" stroke-linecap="round" stroke-linejoin="round"/>
</svg>
