<svg width="44" height="44" viewBox="0 0 44 44" fill="none" xmlns="http://www.w3.org/2000/svg">
<rect width="44" height="44" rx="22" fill="#FCBEBE"/>
<path d="M13.17 17.44L22 22.55L30.77 17.47" stroke="#E31A1A" stroke-width="1.5" stroke-linecap="round" stroke-linejoin="round"/>
<path d="M22 31.61V22.54" stroke="#E31A1A" stroke-width="1.5" stroke-linecap="round" stroke-linejoin="round"/>
<path d="M31.61 19.17V24.83C31.61 24.88 31.61 24.92 31.6 24.97C30.9 24.36 30 24 29 24C28.06 24 27.19 24.33 26.5 24.88C25.58 25.61 25 26.74 25 28C25 28.75 25.21 29.46 25.58 30.06C25.67 30.22 25.78 30.37 25.9 30.51L24.07 31.52C22.93 32.16 21.07 32.16 19.93 31.52L14.59 28.56C13.38 27.89 12.39 26.21 12.39 24.83V19.17C12.39 17.79 13.38 16.11 14.59 15.44L19.93 12.48C21.07 11.84 22.93 11.84 24.07 12.48L29.41 15.44C30.62 16.11 31.61 17.79 31.61 19.17Z" stroke="#E31A1A" stroke-width="1.5" stroke-linecap="round" stroke-linejoin="round"/>
<path d="M33 28C33 28.75 32.79 29.46 32.42 30.06C32.21 30.42 31.94 30.74 31.63 31C30.93 31.63 30.01 32 29 32C27.54 32 26.27 31.22 25.58 30.06C25.21 29.46 25 28.75 25 28C25 26.74 25.58 25.61 26.5 24.88C27.19 24.33 28.06 24 29 24C31.21 24 33 25.79 33 28Z" stroke="#E31A1A" stroke-width="1.5" stroke-miterlimit="10" stroke-linecap="round" stroke-linejoin="round"/>
<path d="M30.07 29.04L27.95 26.93" stroke="#E31A1A" stroke-width="1.5" stroke-miterlimit="10" stroke-linecap="round" stroke-linejoin="round"/>
<path d="M30.05 26.96L27.93 29.07" stroke="#E31A1A" stroke-width="1.5" stroke-miterlimit="10" stroke-linecap="round" stroke-linejoin="round"/>
</svg>
