<svg width="112" height="112" viewBox="0 0 112 112" fill="none" xmlns="http://www.w3.org/2000/svg">
<g clip-path="url(#clip0_5140_305413)">
<rect x="67.2" y="67.2" width="44.8" height="44.8" rx="11.2" fill="#34A770"/>
<rect x="7.93322" y="7.93334" width="96.1333" height="96.1333" rx="21.9333" fill="url(#paint0_linear_5140_305413)" stroke="white" stroke-width="0.933333"/>
<rect width="28" height="28" rx="7.46667" fill="#34A770"/>
<path d="M56 29.8667C41.6006 29.8667 29.8667 41.6006 29.8667 56C29.8667 70.3995 41.6006 82.1334 56 82.1334C70.3995 82.1334 82.1334 70.3995 82.1334 56C82.1334 41.6006 70.3995 29.8667 56 29.8667ZM68.4918 49.9894L53.6742 64.807C53.3083 65.1728 52.8118 65.3819 52.2891 65.3819C51.7664 65.3819 51.2699 65.1728 50.904 64.807L43.5083 57.4112C42.7504 56.6534 42.7504 55.399 43.5083 54.6411C44.2662 53.8832 45.5206 53.8832 46.2784 54.6411L52.2891 60.6518L65.7216 47.2192C66.4795 46.4614 67.7339 46.4614 68.4918 47.2192C69.2496 47.9771 69.2496 49.2054 68.4918 49.9894Z" fill="white"/>
</g>
<defs>
<linearGradient id="paint0_linear_5140_305413" x1="7.46655" y1="7.46667" x2="104.533" y2="104.533" gradientUnits="userSpaceOnUse">
<stop stop-color="#7CD6AB"/>
<stop offset="1" stop-color="#23B26E"/>
</linearGradient>
<clipPath id="clip0_5140_305413">
<rect width="112" height="112" fill="white"/>
</clipPath>
</defs>
</svg>
