<svg width="44" height="45" viewBox="0 0 44 45" fill="none" xmlns="http://www.w3.org/2000/svg">
<rect x="0.5" y="0.5" width="43" height="44" rx="11.5" fill="#34A770"/>
<path d="M26.6 23.9996C26.4 23.8996 25.1 23.2996 24.9 23.1996C24.7 23.0996 24.5 23.0996 24.3 23.2996C24.1 23.4996 23.7 24.0996 23.5 24.2996C23.4 24.4996 23.2 24.4996 23 24.3996C22.3 24.0996 21.6 23.6996 21 23.1996C20.5 22.6996 20 22.0996 19.6 21.4996C19.5 21.2996 19.6 21.0996 19.7 20.9996C19.8 20.8996 19.9 20.6996 20.1 20.5996C20.2 20.4996 20.3 20.2996 20.3 20.1996C20.4 20.0996 20.4 19.8996 20.3 19.7996C20.2 19.6996 19.7 18.4996 19.5 17.9996C19.4 17.2996 19.2 17.2996 19 17.2996C18.9 17.2996 18.7 17.2996 18.5 17.2996C18.3 17.2996 18 17.4996 17.9 17.5996C17.3 18.1996 17 18.8996 17 19.6996C17.1 20.5996 17.4 21.4996 18 22.2996C19.1 23.8996 20.5 25.1996 22.2 25.9996C22.7 26.1996 23.1 26.3996 23.6 26.4996C24.1 26.6996 24.6 26.6996 25.2 26.5996C25.9 26.4996 26.5 25.9996 26.9 25.3996C27.1 24.9996 27.1 24.5996 27 24.1996C27 24.1996 26.8 24.0996 26.6 23.9996ZM29.1 14.8996C25.2 10.9996 18.9 10.9996 15 14.8996C11.8 18.0996 11.2 22.9996 13.4 26.8996L12 31.9996L17.3 30.5996C18.8 31.3996 20.4 31.7996 22 31.7996C27.5 31.7996 31.9 27.3996 31.9 21.8996C32 19.2996 30.9 16.7996 29.1 14.8996ZM26.4 28.8996C25.1 29.6996 23.6 30.1996 22 30.1996C20.5 30.1996 19.1 29.7996 17.8 29.0996L17.5 28.8996L14.4 29.6996L15.2 26.6996L15 26.3996C12.6 22.3996 13.8 17.3996 17.7 14.8996C21.6 12.3996 26.6 13.6996 29 17.4996C31.4 21.3996 30.3 26.4996 26.4 28.8996Z" fill="white"/>
<rect x="0.5" y="0.5" width="43" height="44" rx="11.5" stroke="#E2E2E2"/>
</svg>
