<svg width="32" height="32" viewBox="0 0 32 32" fill="none" xmlns="http://www.w3.org/2000/svg">
<path d="M23.2833 19.1667C22.9666 19.0083 20.9083 18.0583 20.5916 17.9C20.275 17.7417 19.9583 17.7417 19.6416 18.0583C19.325 18.375 18.6916 19.325 18.375 19.6417C18.2166 19.9583 17.9 19.9583 17.5833 19.8C16.475 19.325 15.3666 18.6917 14.4166 17.9C13.625 17.1083 12.8333 16.1583 12.2 15.2083C12.0416 14.8917 12.2 14.575 12.3583 14.4167C12.5166 14.2583 12.675 13.9417 12.9916 13.7833C13.15 13.625 13.3083 13.3083 13.3083 13.15C13.4666 12.9917 13.4666 12.675 13.3083 12.5167C13.15 12.3583 12.3583 10.4583 12.0416 9.66666C11.8833 8.55833 11.5666 8.55833 11.25 8.55833C11.0916 8.55833 10.775 8.55833 10.4583 8.55833C10.1416 8.55833 9.66663 8.87499 9.50829 9.03333C8.55829 9.98333 8.08329 11.0917 8.08329 12.3583C8.24163 13.7833 8.71663 15.2083 9.66663 16.475C11.4083 19.0083 13.625 21.0667 16.3166 22.3333C17.1083 22.65 17.7416 22.9667 18.5333 23.125C19.325 23.4417 20.1166 23.4417 21.0666 23.2833C22.175 23.125 23.125 22.3333 23.7583 21.3833C24.075 20.75 24.075 20.1167 23.9166 19.4833C23.9166 19.4833 23.6 19.325 23.2833 19.1667ZM27.2416 4.75833C21.0666 -1.41667 11.0916 -1.41667 4.91663 4.75833C-0.150041 9.82499 -1.10004 17.5833 2.38329 23.7583L0.166626 31.8333L8.55829 29.6167C10.9333 30.8833 13.4666 31.5167 16 31.5167C24.7083 31.5167 31.675 24.55 31.675 15.8417C31.8333 11.725 30.0916 7.76666 27.2416 4.75833ZM22.9666 26.925C20.9083 28.1917 18.5333 28.9833 16 28.9833C13.625 28.9833 11.4083 28.35 9.34996 27.2417L8.87496 26.925L3.96663 28.1917L5.23329 23.4417L4.91663 22.9667C1.11663 16.6333 3.01663 8.71666 9.19163 4.75833C15.3666 0.799992 23.2833 2.85833 27.0833 8.87499C30.8833 15.05 29.1416 23.125 22.9666 26.925Z" fill="#F95031"/>
</svg>
