<svg width="82" height="43" viewBox="0 0 82 43" fill="none" xmlns="http://www.w3.org/2000/svg">
<path d="M1.05701 24L2.74401 17.837C1.70301 16.033 1.15601 13.988 1.15701 11.891C1.16001 5.335 6.49501 0 13.05 0C16.231 0.001 19.217 1.24 21.463 3.488C23.708 5.736 24.944 8.724 24.943 11.902C24.94 18.459 19.605 23.794 13.05 23.794C11.06 23.793 9.09901 23.294 7.36201 22.346L1.05701 24V24ZM7.65401 20.193C9.33001 21.188 10.93 21.784 13.046 21.785C18.494 21.785 22.932 17.351 22.935 11.9C22.937 6.438 18.52 2.01 13.054 2.008C7.60201 2.008 3.16701 6.442 3.16501 11.892C3.16401 14.117 3.81601 15.783 4.91101 17.526L3.91201 21.174L7.65401 20.193V20.193ZM19.041 14.729C18.967 14.605 18.769 14.531 18.471 14.382C18.174 14.233 16.713 13.514 16.44 13.415C16.168 13.316 15.97 13.266 15.771 13.564C15.573 13.861 15.003 14.531 14.83 14.729C14.657 14.927 14.483 14.952 14.186 14.803C13.889 14.654 12.931 14.341 11.796 13.328C10.913 12.54 10.316 11.567 10.143 11.269C9.97001 10.972 10.125 10.811 10.273 10.663C10.407 10.53 10.57 10.316 10.719 10.142C10.87 9.97 10.919 9.846 11.019 9.647C11.118 9.449 11.069 9.275 10.994 9.126C10.919 8.978 10.325 7.515 10.078 6.92C9.83601 6.341 9.59101 6.419 9.40901 6.41L8.83901 6.4C8.64101 6.4 8.31901 6.474 8.04701 6.772C7.77501 7.07 7.00701 7.788 7.00701 9.251C7.00701 10.714 8.07201 12.127 8.22001 12.325C8.36901 12.523 10.315 15.525 13.296 16.812C14.005 17.118 14.559 17.301 14.99 17.438C15.702 17.664 16.35 17.632 16.862 17.556C17.433 17.471 18.62 16.837 18.868 16.143C19.116 15.448 19.116 14.853 19.041 14.729V14.729Z" fill="#34A770"/>
<path d="M38.436 7.636L36.012 16H34.788L32.844 9.268L30.828 16L29.616 16.012L27.276 7.636H28.44L30.264 14.728L32.28 7.636H33.504L35.424 14.704L37.26 7.636H38.436ZM45.075 14.14H41.427L40.755 16H39.603L42.627 7.684H43.887L46.899 16H45.747L45.075 14.14ZM44.763 13.252L43.251 9.028L41.739 13.252H44.763ZM55.6202 9.304C56.4202 9.304 57.0682 9.548 57.5642 10.036C58.0602 10.516 58.3082 11.212 58.3082 12.124V16H57.2282V12.28C57.2282 11.624 57.0642 11.124 56.7362 10.78C56.4082 10.428 55.9602 10.252 55.3922 10.252C54.8162 10.252 54.3562 10.432 54.0122 10.792C53.6762 11.152 53.5082 11.676 53.5082 12.364V16H52.4162V9.424H53.5082V10.36C53.7242 10.024 54.0162 9.764 54.3842 9.58C54.7602 9.396 55.1722 9.304 55.6202 9.304ZM63.46 16.108C62.844 16.108 62.284 15.968 61.78 15.688C61.284 15.408 60.892 15.012 60.604 14.5C60.324 13.98 60.184 13.38 60.184 12.7C60.184 12.028 60.328 11.436 60.616 10.924C60.912 10.404 61.312 10.008 61.816 9.736C62.32 9.456 62.884 9.316 63.508 9.316C64.132 9.316 64.696 9.456 65.2 9.736C65.704 10.008 66.1 10.4 66.388 10.912C66.684 11.424 66.832 12.02 66.832 12.7C66.832 13.38 66.68 13.98 66.376 14.5C66.08 15.012 65.676 15.408 65.164 15.688C64.652 15.968 64.084 16.108 63.46 16.108ZM63.46 15.148C63.852 15.148 64.22 15.056 64.564 14.872C64.908 14.688 65.184 14.412 65.392 14.044C65.608 13.676 65.716 13.228 65.716 12.7C65.716 12.172 65.612 11.724 65.404 11.356C65.196 10.988 64.924 10.716 64.588 10.54C64.252 10.356 63.888 10.264 63.496 10.264C63.096 10.264 62.728 10.356 62.392 10.54C62.064 10.716 61.8 10.988 61.6 11.356C61.4 11.724 61.3 12.172 61.3 12.7C61.3 13.236 61.396 13.688 61.588 14.056C61.788 14.424 62.052 14.7 62.38 14.884C62.708 15.06 63.068 15.148 63.46 15.148ZM70.0998 10.324V14.2C70.0998 14.52 70.1678 14.748 70.3038 14.884C70.4398 15.012 70.6758 15.076 71.0117 15.076H71.8158V16H70.8318C70.2238 16 69.7678 15.86 69.4638 15.58C69.1598 15.3 69.0078 14.84 69.0078 14.2V10.324H68.1558V9.424H69.0078V7.768H70.0998V9.424H71.8158V10.324H70.0998ZM74.2028 8.356C73.9948 8.356 73.8188 8.284 73.6748 8.14C73.5308 7.996 73.4588 7.82 73.4588 7.612C73.4588 7.404 73.5308 7.228 73.6748 7.084C73.8188 6.94 73.9948 6.868 74.2028 6.868C74.4028 6.868 74.5708 6.94 74.7068 7.084C74.8508 7.228 74.9228 7.404 74.9228 7.612C74.9228 7.82 74.8508 7.996 74.7068 8.14C74.5708 8.284 74.4028 8.356 74.2028 8.356ZM74.7308 9.424V16H73.6388V9.424H74.7308ZM79.768 10.324H78.388V16H77.296V10.324H76.444V9.424H77.296V8.956C77.296 8.22 77.484 7.684 77.86 7.348C78.244 7.004 78.856 6.832 79.696 6.832V7.744C79.216 7.744 78.876 7.84 78.676 8.032C78.484 8.216 78.388 8.524 78.388 8.956V9.424H79.768V10.324Z" fill="#34A770"/>
<path d="M2.016 32.648C2.24 32.256 2.568 31.936 3 31.688C3.432 31.44 3.924 31.316 4.476 31.316C5.068 31.316 5.6 31.456 6.072 31.736C6.544 32.016 6.916 32.412 7.188 32.924C7.46 33.428 7.596 34.016 7.596 34.688C7.596 35.352 7.46 35.944 7.188 36.464C6.916 36.984 6.54 37.388 6.06 37.676C5.588 37.964 5.06 38.108 4.476 38.108C3.908 38.108 3.408 37.984 2.976 37.736C2.552 37.488 2.232 37.172 2.016 36.788V38H0.924V29.12H2.016V32.648ZM6.48 34.688C6.48 34.192 6.38 33.76 6.18 33.392C5.98 33.024 5.708 32.744 5.364 32.552C5.028 32.36 4.656 32.264 4.248 32.264C3.848 32.264 3.476 32.364 3.132 32.564C2.796 32.756 2.524 33.04 2.316 33.416C2.116 33.784 2.016 34.212 2.016 34.7C2.016 35.196 2.116 35.632 2.316 36.008C2.524 36.376 2.796 36.66 3.132 36.86C3.476 37.052 3.848 37.148 4.248 37.148C4.656 37.148 5.028 37.052 5.364 36.86C5.708 36.66 5.98 36.376 6.18 36.008C6.38 35.632 6.48 35.192 6.48 34.688ZM15.8974 31.424L11.9374 41.096H10.8094L12.1054 37.928L9.45337 31.424H10.6654L12.7294 36.752L14.7694 31.424H15.8974ZM27.1303 38L23.6863 34.184V38H22.5943V29.636H23.6863V33.512L27.1423 29.636H28.5223L24.7303 33.824L28.5583 38H27.1303ZM33.8459 38.108C33.2299 38.108 32.6699 37.968 32.1659 37.688C31.6699 37.408 31.2779 37.012 30.9899 36.5C30.7099 35.98 30.5699 35.38 30.5699 34.7C30.5699 34.028 30.7139 33.436 31.0019 32.924C31.2979 32.404 31.6979 32.008 32.2019 31.736C32.7059 31.456 33.2699 31.316 33.8939 31.316C34.5179 31.316 35.0819 31.456 35.5859 31.736C36.0899 32.008 36.4859 32.4 36.7739 32.912C37.0699 33.424 37.2179 34.02 37.2179 34.7C37.2179 35.38 37.0659 35.98 36.7619 36.5C36.4659 37.012 36.0619 37.408 35.5499 37.688C35.0379 37.968 34.4699 38.108 33.8459 38.108ZM33.8459 37.148C34.2379 37.148 34.6059 37.056 34.9499 36.872C35.2939 36.688 35.5699 36.412 35.7779 36.044C35.9939 35.676 36.1019 35.228 36.1019 34.7C36.1019 34.172 35.9979 33.724 35.7899 33.356C35.5819 32.988 35.3099 32.716 34.9739 32.54C34.6379 32.356 34.2739 32.264 33.8819 32.264C33.4819 32.264 33.1139 32.356 32.7779 32.54C32.4499 32.716 32.1859 32.988 31.9859 33.356C31.7859 33.724 31.6859 34.172 31.6859 34.7C31.6859 35.236 31.7819 35.688 31.9739 36.056C32.1739 36.424 32.4379 36.7 32.7659 36.884C33.0939 37.06 33.4539 37.148 33.8459 37.148ZM47.7617 31.304C48.2737 31.304 48.7297 31.412 49.1297 31.628C49.5297 31.836 49.8457 32.152 50.0777 32.576C50.3097 33 50.4257 33.516 50.4257 34.124V38H49.3457V34.28C49.3457 33.624 49.1817 33.124 48.8537 32.78C48.5337 32.428 48.0977 32.252 47.5457 32.252C46.9777 32.252 46.5257 32.436 46.1897 32.804C45.8537 33.164 45.6857 33.688 45.6857 34.376V38H44.6057V34.28C44.6057 33.624 44.4417 33.124 44.1137 32.78C43.7937 32.428 43.3577 32.252 42.8057 32.252C42.2377 32.252 41.7857 32.436 41.4497 32.804C41.1137 33.164 40.9457 33.688 40.9457 34.376V38H39.8537V31.424H40.9457V32.372C41.1617 32.028 41.4497 31.764 41.8097 31.58C42.1777 31.396 42.5817 31.304 43.0217 31.304C43.5737 31.304 44.0617 31.428 44.4857 31.676C44.9097 31.924 45.2257 32.288 45.4337 32.768C45.6177 32.304 45.9217 31.944 46.3457 31.688C46.7697 31.432 47.2417 31.304 47.7617 31.304ZM55.745 38.108C55.241 38.108 54.789 38.024 54.389 37.856C53.989 37.68 53.673 37.44 53.441 37.136C53.209 36.824 53.081 36.468 53.057 36.068H54.185C54.217 36.396 54.369 36.664 54.641 36.872C54.921 37.08 55.285 37.184 55.733 37.184C56.149 37.184 56.477 37.092 56.717 36.908C56.957 36.724 57.077 36.492 57.077 36.212C57.077 35.924 56.949 35.712 56.693 35.576C56.437 35.432 56.041 35.292 55.505 35.156C55.017 35.028 54.617 34.9 54.305 34.772C54.001 34.636 53.737 34.44 53.513 34.184C53.297 33.92 53.189 33.576 53.189 33.152C53.189 32.816 53.289 32.508 53.489 32.228C53.689 31.948 53.973 31.728 54.341 31.568C54.709 31.4 55.129 31.316 55.601 31.316C56.329 31.316 56.917 31.5 57.365 31.868C57.813 32.236 58.053 32.74 58.085 33.38H56.993C56.969 33.036 56.829 32.76 56.573 32.552C56.325 32.344 55.989 32.24 55.565 32.24C55.173 32.24 54.861 32.324 54.629 32.492C54.397 32.66 54.281 32.88 54.281 33.152C54.281 33.368 54.349 33.548 54.485 33.692C54.629 33.828 54.805 33.94 55.013 34.028C55.229 34.108 55.525 34.2 55.901 34.304C56.373 34.432 56.757 34.56 57.053 34.688C57.349 34.808 57.601 34.992 57.809 35.24C58.025 35.488 58.137 35.812 58.145 36.212C58.145 36.572 58.045 36.896 57.845 37.184C57.645 37.472 57.361 37.7 56.993 37.868C56.633 38.028 56.217 38.108 55.745 38.108ZM64.1505 31.304C64.6465 31.304 65.0945 31.412 65.4945 31.628C65.8945 31.836 66.2065 32.152 66.4305 32.576C66.6625 33 66.7785 33.516 66.7785 34.124V38H65.6985V34.28C65.6985 33.624 65.5345 33.124 65.2065 32.78C64.8785 32.428 64.4305 32.252 63.8625 32.252C63.2865 32.252 62.8265 32.432 62.4825 32.792C62.1465 33.152 61.9785 33.676 61.9785 34.364V38H60.8865V29.12H61.9785V32.36C62.1945 32.024 62.4905 31.764 62.8665 31.58C63.2505 31.396 63.6785 31.304 64.1505 31.304ZM70.3263 30.356C70.1183 30.356 69.9423 30.284 69.7983 30.14C69.6543 29.996 69.5823 29.82 69.5823 29.612C69.5823 29.404 69.6543 29.228 69.7983 29.084C69.9423 28.94 70.1183 28.868 70.3263 28.868C70.5263 28.868 70.6943 28.94 70.8303 29.084C70.9743 29.228 71.0463 29.404 71.0463 29.612C71.0463 29.82 70.9743 29.996 70.8303 30.14C70.6943 30.284 70.5263 30.356 70.3263 30.356ZM70.8543 31.424V38H69.7623V31.424H70.8543ZM75.0074 32.636C75.2234 32.26 75.5434 31.948 75.9674 31.7C76.3994 31.444 76.8994 31.316 77.4674 31.316C78.0514 31.316 78.5794 31.456 79.0514 31.736C79.5314 32.016 79.9074 32.412 80.1794 32.924C80.4514 33.428 80.5874 34.016 80.5874 34.688C80.5874 35.352 80.4514 35.944 80.1794 36.464C79.9074 36.984 79.5314 37.388 79.0514 37.676C78.5794 37.964 78.0514 38.108 77.4674 38.108C76.9074 38.108 76.4114 37.984 75.9794 37.736C75.5554 37.48 75.2314 37.164 75.0074 36.788V41.12H73.9154V31.424H75.0074V32.636ZM79.4714 34.688C79.4714 34.192 79.3714 33.76 79.1714 33.392C78.9714 33.024 78.6994 32.744 78.3554 32.552C78.0194 32.36 77.6474 32.264 77.2394 32.264C76.8394 32.264 76.4674 32.364 76.1234 32.564C75.7874 32.756 75.5154 33.04 75.3074 33.416C75.1074 33.784 75.0074 34.212 75.0074 34.7C75.0074 35.196 75.1074 35.632 75.3074 36.008C75.5154 36.376 75.7874 36.66 76.1234 36.86C76.4674 37.052 76.8394 37.148 77.2394 37.148C77.6474 37.148 78.0194 37.052 78.3554 36.86C78.6994 36.66 78.9714 36.376 79.1714 36.008C79.3714 35.632 79.4714 35.192 79.4714 34.688Z" fill="#34A770"/>
</svg>
