<svg width="24" height="24" viewBox="0 0 24 24" fill="none" xmlns="http://www.w3.org/2000/svg">
<circle cx="12" cy="12" r="10.25" fill="#F95031" stroke="white"/>
<path d="M14.6575 15.4075C14.4675 15.4075 14.2775 15.3375 14.1275 15.1875L8.4675 9.5275C8.1775 9.2375 8.1775 8.7575 8.4675 8.4675C8.7575 8.1775 9.2375 8.1775 9.5275 8.4675L15.1875 14.1275C15.4775 14.4175 15.4775 14.8975 15.1875 15.1875C15.0375 15.3375 14.8475 15.4075 14.6575 15.4075Z" fill="white"/>
<path d="M8.99777 15.4075C9.18777 15.4075 9.37777 15.3375 9.52777 15.1875L15.1878 9.5275C15.4778 9.2375 15.4778 8.7575 15.1878 8.4675C14.8978 8.1775 14.4178 8.1775 14.1278 8.4675L8.46777 14.1275C8.17777 14.4175 8.17777 14.8975 8.46777 15.1875C8.61777 15.3375 8.80777 15.4075 8.99777 15.4075Z" fill="white"/>
</svg>
