<svg width="24" height="24" viewBox="0 0 24 24" fill="none" xmlns="http://www.w3.org/2000/svg">
<path d="M12.0002 23.6352C18.4261 23.6352 23.6352 18.4261 23.6352 12.0002C23.6352 5.5744 18.4261 0.365234 12.0002 0.365234C5.5744 0.365234 0.365234 5.5744 0.365234 12.0002C0.365234 18.4261 5.5744 23.6352 12.0002 23.6352Z" fill="#FBBC05"/>
<path d="M11.9999 22.1423C17.6014 22.1423 22.1423 17.6014 22.1423 11.9999C22.1423 6.39835 17.6014 1.85742 11.9999 1.85742C6.39836 1.85742 1.85742 6.39835 1.85742 11.9999C1.85742 17.6014 6.39836 22.1423 11.9999 22.1423Z" fill="#D69D0D"/>
<path fill-rule="evenodd" clip-rule="evenodd" d="M7.17188 9.65744C7.17188 9.16535 7.57062 8.7666 8.06272 8.7666C8.55482 8.7666 8.95356 9.16535 8.95356 9.65744V17.285C8.95356 17.7771 8.55482 18.1758 8.06272 18.1758C7.57062 18.1758 7.17188 17.7771 7.17188 17.285V9.65744Z" fill="#FBBC05"/>
<path fill-rule="evenodd" clip-rule="evenodd" d="M16.3333 10.2925C16.3582 9.80264 16.7759 9.42544 17.2657 9.45039C17.7555 9.47533 18.1327 9.89297 18.1078 10.3828C18.0371 11.7446 17.4645 13.0236 16.5767 13.9526C15.6953 14.8741 14.5025 15.4599 13.1694 15.4618L8.06323 15.4686C7.57339 15.4686 7.17578 15.0713 7.17578 14.5811C7.17578 14.0909 7.57302 13.6937 8.06323 13.6937L13.1694 13.6869C13.9854 13.6858 14.7289 13.3135 15.2894 12.7276C15.8949 12.0946 16.2853 11.2219 16.3337 10.2925H16.3333Z" fill="#FBBC05"/>
<path fill-rule="evenodd" clip-rule="evenodd" d="M8.9499 9.72422C8.97484 10.214 8.59802 10.6317 8.10781 10.6566C7.61798 10.6816 7.20033 10.3048 7.17539 9.81455C7.15044 9.33492 7.03403 8.8844 6.84468 8.47847C6.64776 8.05705 6.36921 7.6791 6.02943 7.3635C5.66999 7.02901 5.64996 6.46661 5.98408 6.10756C6.31857 5.74812 6.88096 5.72809 7.24002 6.0622C7.74119 6.52746 8.15505 7.09175 8.45213 7.7271C8.73786 8.33901 8.91286 9.0129 8.9499 9.72422Z" fill="#FBBC05"/>
<path fill-rule="evenodd" clip-rule="evenodd" d="M17.3269 6.93555C17.8364 6.93555 18.2495 7.34865 18.2495 7.85814C18.2495 8.36762 17.8364 8.78073 17.3269 8.78073C16.8174 8.78073 16.4043 8.36762 16.4043 7.85814C16.4043 7.34865 16.8174 6.93555 17.3269 6.93555Z" fill="#FBBC05"/>
<path fill-rule="evenodd" clip-rule="evenodd" d="M11.1902 6.93555C11.6997 6.93555 12.1128 7.34865 12.1128 7.85814C12.1128 8.36762 11.6997 8.78073 11.1902 8.78073C10.6807 8.78073 10.2676 8.36762 10.2676 7.85814C10.2676 7.34865 10.6807 6.93555 11.1902 6.93555Z" fill="#FBBC05"/>
<path fill-rule="evenodd" clip-rule="evenodd" d="M10.9885 11.228C10.4964 11.228 10.0977 10.8292 10.0977 10.3371C10.0977 9.84503 10.4964 9.44629 10.9885 9.44629H17.2202C17.7123 9.44629 18.1111 9.84503 18.1111 10.3371C18.1111 10.8292 17.7123 11.228 17.2202 11.228H10.9885Z" fill="#FBBC05"/>
<path fill-rule="evenodd" clip-rule="evenodd" d="M17.3397 16.9296C17.5359 17.3794 17.3303 17.9029 16.8805 18.0987C16.4308 18.2948 15.9073 18.0892 15.7115 17.6394C15.4288 16.9905 14.9597 16.4394 14.3705 16.0532C13.8024 15.6809 13.1217 15.4643 12.3889 15.4643C11.8968 15.4643 11.498 15.0656 11.498 14.5735C11.498 14.0814 11.8968 13.6826 12.3889 13.6826C13.4789 13.6826 14.4945 14.0065 15.3445 14.5636C16.2183 15.1362 16.9168 15.9583 17.3394 16.9293L17.3397 16.9296Z" fill="#FBBC05"/>
</svg>
