<svg width="87" height="47" viewBox="0 0 87 47" fill="none" xmlns="http://www.w3.org/2000/svg">
<path d="M19.5 0H73L87 23.5L73 47H19.5L32.5 23.5L19.5 0Z" fill="#C2C2C2"/>
<path d="M0 0L12.5 0L26 23.5L12.5 47H0L12.5 23.5L0 0Z" fill="#C2C2C2"/>
<circle cx="53" cy="23" r="15.5" fill="white" stroke="#C2C2C2"/>
<path d="M56.602 19.488H52.066V21.882C52.262 21.6393 52.542 21.4433 52.906 21.294C53.27 21.1353 53.6573 21.056 54.068 21.056C54.8147 21.056 55.426 21.2193 55.902 21.546C56.378 21.8727 56.7233 22.2927 56.938 22.806C57.1527 23.31 57.26 23.8513 57.26 24.43C57.26 25.5033 56.952 26.3667 56.336 27.02C55.7293 27.6733 54.8613 28 53.732 28C52.668 28 51.8187 27.734 51.184 27.202C50.5493 26.67 50.19 25.9747 50.106 25.116H52.01C52.094 25.4893 52.2807 25.788 52.57 26.012C52.8687 26.236 53.2467 26.348 53.704 26.348C54.2547 26.348 54.67 26.1753 54.95 25.83C55.23 25.4847 55.37 25.0273 55.37 24.458C55.37 23.8793 55.2253 23.4407 54.936 23.142C54.656 22.834 54.2407 22.68 53.69 22.68C53.298 22.68 52.9713 22.778 52.71 22.974C52.4487 23.17 52.262 23.4313 52.15 23.758H50.274V17.766H56.602V19.488Z" fill="#C2C2C2"/>
</svg>
