<svg width="87" height="47" viewBox="0 0 87 47" fill="none" xmlns="http://www.w3.org/2000/svg">
<path d="M19.5 0H73L87 23.5L73 47H19.5L32.5 23.5L19.5 0Z" fill="#C2C2C2"/>
<path d="M0 0L12.5 0L26 23.5L12.5 47H0L12.5 23.5L0 0Z" fill="#C2C2C2"/>
<circle cx="53" cy="23" r="15.5" fill="white" stroke="#C2C2C2"/>
<path d="M55.034 20.342C54.9407 19.95 54.7773 19.656 54.544 19.46C54.32 19.264 53.9933 19.166 53.564 19.166C52.92 19.166 52.444 19.4273 52.136 19.95C51.8373 20.4633 51.6833 21.3033 51.674 22.47C51.898 22.0967 52.2247 21.8073 52.654 21.602C53.0833 21.3873 53.55 21.28 54.054 21.28C54.6607 21.28 55.1973 21.4107 55.664 21.672C56.1307 21.9333 56.4947 22.316 56.756 22.82C57.0173 23.3147 57.148 23.912 57.148 24.612C57.148 25.2747 57.0127 25.8673 56.742 26.39C56.4807 26.9033 56.0933 27.3047 55.58 27.594C55.0667 27.8833 54.4553 28.028 53.746 28.028C52.7753 28.028 52.01 27.8133 51.45 27.384C50.8993 26.9547 50.512 26.3573 50.288 25.592C50.0733 24.8173 49.966 23.8653 49.966 22.736C49.966 21.028 50.26 19.74 50.848 18.872C51.436 17.9947 52.3647 17.556 53.634 17.556C54.614 17.556 55.3747 17.822 55.916 18.354C56.4573 18.886 56.77 19.5487 56.854 20.342H55.034ZM53.606 22.89C53.1113 22.89 52.696 23.0347 52.36 23.324C52.024 23.6133 51.856 24.0333 51.856 24.584C51.856 25.1347 52.01 25.5687 52.318 25.886C52.6353 26.2033 53.0787 26.362 53.648 26.362C54.152 26.362 54.5487 26.208 54.838 25.9C55.1367 25.592 55.286 25.1767 55.286 24.654C55.286 24.1127 55.1413 23.6833 54.852 23.366C54.572 23.0487 54.1567 22.89 53.606 22.89Z" fill="#C2C2C2"/>
</svg>
