<svg width="87" height="47" viewBox="0 0 87 47" fill="none" xmlns="http://www.w3.org/2000/svg">
<path d="M19.5 0H73L87 23.5L73 47H19.5L32.5 23.5L19.5 0Z" fill="#C2C2C2"/>
<path d="M0 0L12.5 0L26 23.5L12.5 47H0L12.5 23.5L0 0Z" fill="#C2C2C2"/>
<circle cx="53" cy="23" r="15.5" fill="white" stroke="#C2C2C2"/>
<path d="M49.77 20.482C49.8167 19.5487 50.1433 18.83 50.75 18.326C51.366 17.8127 52.1733 17.556 53.172 17.556C53.8533 17.556 54.4367 17.6773 54.922 17.92C55.4073 18.1533 55.7713 18.4753 56.014 18.886C56.266 19.2873 56.392 19.7447 56.392 20.258C56.392 20.846 56.238 21.3453 55.93 21.756C55.6313 22.1573 55.272 22.428 54.852 22.568V22.624C55.3933 22.792 55.8133 23.0907 56.112 23.52C56.42 23.9493 56.574 24.5 56.574 25.172C56.574 25.732 56.4433 26.2313 56.182 26.67C55.93 27.1087 55.552 27.454 55.048 27.706C54.5533 27.9487 53.956 28.07 53.256 28.07C52.2013 28.07 51.3427 27.804 50.68 27.272C50.0173 26.74 49.6673 25.956 49.63 24.92H51.534C51.5527 25.3773 51.7067 25.746 51.996 26.026C52.2947 26.2967 52.7007 26.432 53.214 26.432C53.69 26.432 54.054 26.3013 54.306 26.04C54.5673 25.7693 54.698 25.424 54.698 25.004C54.698 24.444 54.5207 24.0427 54.166 23.8C53.8113 23.5573 53.2607 23.436 52.514 23.436H52.108V21.826H52.514C53.8393 21.826 54.502 21.3827 54.502 20.496C54.502 20.0947 54.3807 19.782 54.138 19.558C53.9047 19.334 53.564 19.222 53.116 19.222C52.6773 19.222 52.3367 19.3433 52.094 19.586C51.8607 19.8193 51.7253 20.118 51.688 20.482H49.77Z" fill="#C2C2C2"/>
</svg>
