<svg width="87" height="47" viewBox="0 0 87 47" fill="none" xmlns="http://www.w3.org/2000/svg">
<path d="M19.5 0H73L87 23.5L73 47H19.5L32.5 23.5L19.5 0Z" fill="#C2C2C2"/>
<path d="M0 0L12.5 0L26 23.5L12.5 47H0L12.5 23.5L0 0Z" fill="#C2C2C2"/>
<circle cx="53" cy="23" r="15.5" fill="white" stroke="#C2C2C2"/>
<path d="M50.358 25.788C51.254 25.0413 51.968 24.4207 52.5 23.926C53.032 23.422 53.4753 22.8993 53.83 22.358C54.1847 21.8167 54.362 21.2847 54.362 20.762C54.362 20.286 54.25 19.9127 54.026 19.642C53.802 19.3713 53.4567 19.236 52.99 19.236C52.5233 19.236 52.164 19.3947 51.912 19.712C51.66 20.02 51.5293 20.4447 51.52 20.986H49.616C49.6533 19.866 49.9847 19.0167 50.61 18.438C51.2447 17.8593 52.0473 17.57 53.018 17.57C54.082 17.57 54.8987 17.8547 55.468 18.424C56.0373 18.984 56.322 19.726 56.322 20.65C56.322 21.378 56.126 22.0733 55.734 22.736C55.342 23.3987 54.894 23.9773 54.39 24.472C53.886 24.9573 53.228 25.5453 52.416 26.236H56.546V27.86H49.63V26.404L50.358 25.788Z" fill="#C2C2C2"/>
</svg>
