<svg width="41" height="47" viewBox="0 0 41 47" fill="none" xmlns="http://www.w3.org/2000/svg">
<path d="M16.8281 33.8135C18.0146 31.6554 18.775 28.3342 18.775 24.6092C18.775 24.265 18.7683 23.9246 18.7559 23.5881H22.1901C22.1777 23.9246 22.171 24.265 22.171 24.6092C22.171 28.3342 22.9313 31.6554 24.1179 33.8135H16.8281Z" fill="#F8B805"/>
<path d="M18.7072 26.5586L18.707 26.5585C18.7329 26.2057 18.7519 25.8477 18.7638 25.4852L18.764 25.4853C18.7523 25.8479 18.7333 26.2056 18.7075 26.5585C18.7073 26.5585 18.7072 26.5586 18.7072 26.5586Z" fill="url(#paint0_radial_23661_218344)"/>
<path d="M18.7051 26.5586C18.7309 26.2058 18.7498 25.8481 18.7616 25.4854C18.8813 25.5104 19.0011 25.5327 19.1219 25.5525C19.1142 25.8301 19.1033 26.105 19.0891 26.3769C18.8509 26.4707 18.7122 26.5543 18.7051 26.5586ZM19.599 26.2162C19.605 26.0183 19.6098 25.8189 19.6136 25.618C19.8957 25.6471 20.1804 25.6619 20.4672 25.6619C20.7583 25.6619 21.0478 25.6466 21.3342 25.6166C21.3379 25.8171 21.3427 26.0157 21.3487 26.2131C21.0457 26.1389 20.7564 26.1094 20.4876 26.1094C20.1554 26.1094 19.8548 26.1545 19.599 26.2162Z" fill="#F49E02"/>
<path d="M22.2404 26.5586C22.2403 26.5585 22.2403 26.5585 22.2402 26.5585C22.217 26.2415 22.1993 25.9207 22.1875 25.5957C22.1995 25.9206 22.2172 26.2417 22.2404 26.5586Z" fill="url(#paint1_radial_23661_218344)"/>
<path d="M18.6491 33.8135H17.6016C18.3863 32.0034 18.9346 29.3753 19.091 26.3768C19.2295 26.3222 19.4017 26.2641 19.601 26.2161C19.5088 29.2813 19.1566 31.9712 18.6491 33.8135Z" fill="#FCD208"/>
<path d="M19.0898 26.377C19.104 26.1051 19.115 25.8302 19.1226 25.5525C19.2856 25.5792 19.4496 25.6011 19.6144 25.6181C19.6106 25.819 19.6057 26.0184 19.5998 26.2163C19.4005 26.2643 19.2283 26.3224 19.0898 26.377Z" fill="#FAC105"/>
<path d="M24.1187 33.8135H22.3001H24.1185C23.1434 32.04 22.4562 29.4813 22.2422 26.5583L22.2424 26.5585C22.4565 29.4812 23.1437 32.0401 24.1187 33.8135Z" fill="url(#paint2_radial_23661_218344)"/>
<path d="M24.1176 33.8135H22.2992C21.7915 31.9706 21.4396 29.2794 21.3477 26.213C21.6354 26.2835 21.9352 26.3943 22.2413 26.5583C22.4553 29.4813 23.1425 32.04 24.1176 33.8135Z" fill="#F49E02"/>
<path d="M22.1895 25.5957C22.1881 25.558 22.1867 25.5202 22.1855 25.4825C22.1868 25.5202 22.1881 25.558 22.1895 25.5957Z" fill="url(#paint3_radial_23661_218344)"/>
<path d="M22.2423 26.5586L22.2421 26.5584C22.2162 26.205 22.1972 25.8461 22.1855 25.4828L22.1857 25.4827C22.1869 25.5204 22.1883 25.5582 22.1896 25.5958C22.2015 25.9208 22.2191 26.2416 22.2423 26.5586Z" fill="url(#paint4_radial_23661_218344)"/>
<path d="M22.2441 26.5586C21.938 26.3945 21.6382 26.2838 21.3504 26.2133C21.3445 26.0158 21.3397 25.8172 21.3359 25.6168C21.6227 25.5867 21.9062 25.542 22.1875 25.4829C22.1992 25.8462 22.2182 26.2052 22.2441 26.5586Z" fill="#F08801"/>
<path d="M2.20577 5.46694C2.33558 11.0442 3.44525 14.6258 5.6688 16.689C7.50674 18.3943 10.2292 19.2018 14.6587 19.3279V5.56037C10.0435 5.70958 4.55421 5.55084 2.20577 5.46694ZM15.7551 21.5381H15.7509C13.07 21.5278 11.0082 21.3232 9.26245 20.8941C7.17028 20.3799 5.50691 19.5302 4.17728 18.2964C1.32734 15.6521 0 11.213 0 4.32618C0 4.02728 0.122323 3.74078 0.338605 3.53389C0.554839 3.327 0.846344 3.21831 1.14529 3.23118C1.22947 3.235 9.63781 3.60349 15.7049 3.32557C16.0041 3.31222 16.2959 3.42091 16.5125 3.6278C16.7291 3.83469 16.8516 4.12119 16.8516 4.42056V20.4417C16.8516 20.7332 16.7354 21.0127 16.5289 21.2185C16.3234 21.4232 16.0451 21.5381 15.7551 21.5381Z" fill="#F8B805"/>
<path d="M7.59782 5.60059C5.37094 5.56912 3.41706 5.50954 2.23078 5.46711L2.20608 5.45614C2.18106 4.90746 2.62663 4.45459 3.17194 4.45459C3.18228 4.45459 3.19272 4.45506 3.20311 4.45554C4.36318 4.49177 5.90423 4.53277 7.60779 4.55612C7.60068 4.83261 7.59711 5.11006 7.59711 5.38893C7.59711 5.45901 7.59735 5.53003 7.59782 5.60059ZM2.22677 5.46711C2.22062 5.46711 2.21419 5.46663 2.20809 5.46663C2.21423 5.46663 2.22058 5.46711 2.22677 5.46711Z" fill="#F49E02"/>
<path d="M11.2282 19.5059C0.728246 18.3578 2.20384 5.45637 2.20384 5.45637L2.20432 5.46686C2.33408 11.0441 3.4438 14.6258 5.6673 16.6889C6.92095 17.8521 8.58594 18.5975 10.9235 18.994C11.0234 19.1677 11.1246 19.3377 11.2282 19.5059ZM2.20584 5.46686C2.2057 5.46686 2.20556 5.46686 2.20537 5.46686C2.20508 5.46686 2.20461 5.46686 2.20432 5.46686C2.20489 5.46686 2.20527 5.46686 2.20584 5.46686Z" fill="#FCD208"/>
<path d="M2.2298 5.46777C2.22837 5.46777 2.22723 5.46777 2.22579 5.46777C2.21959 5.46777 2.21324 5.4673 2.20708 5.4673C2.20651 5.4673 2.20613 5.4673 2.20556 5.4673L2.20508 5.4568L2.2298 5.46777Z" fill="#FAC105"/>
<path d="M0.242188 3.63672C0.242807 3.63624 0.24338 3.63529 0.244 3.63481C0.24338 3.63529 0.242807 3.63624 0.242188 3.63672ZM0.24419 3.63434C0.272602 3.59954 0.303301 3.56617 0.336194 3.53471C0.540891 3.33926 0.813044 3.23104 1.09502 3.23104H1.09506C0.813044 3.23104 0.540939 3.33926 0.336242 3.53471C0.303349 3.56617 0.272602 3.59954 0.24419 3.63434Z" fill="url(#paint5_radial_23661_218344)"/>
<path d="M0.00585938 4.22656C0.0256427 4.01014 0.10921 3.80468 0.245643 3.63592C0.246263 3.63544 0.246835 3.63449 0.247455 3.63402C0.247503 3.63402 0.24755 3.63354 0.247646 3.63354C0.276058 3.59874 0.306804 3.56537 0.339697 3.53391C0.544395 3.33846 0.816499 3.23025 1.09852 3.23025C1.11444 3.23025 1.13036 3.23025 1.14633 3.2312C1.19538 3.23311 4.06902 3.35943 7.65809 3.40901C7.65456 3.46622 7.65118 3.52342 7.64799 3.58063C4.04947 3.53105 1.16616 3.40472 1.11701 3.40234C1.10104 3.40138 1.08507 3.40139 1.06915 3.40139C0.787134 3.40139 0.51503 3.50959 0.310332 3.70504C0.160742 3.84853 0.0561519 4.02921 0.00585938 4.22656Z" fill="#FCD208"/>
<path d="M12.5821 21.4111C11.3382 21.3066 10.2503 21.1357 9.26332 20.8931C7.1712 20.379 5.50778 19.5292 4.17815 18.2955C3.98642 18.1176 3.80169 17.9317 3.62369 17.7373C3.80169 17.9317 3.98651 18.1177 4.1782 18.2955C5.50782 19.5292 7.1712 20.379 9.26336 20.8931C10.2504 21.1357 11.3382 21.3066 12.5821 21.4111ZM3.62236 17.7359C3.62059 17.7339 3.61869 17.7319 3.61692 17.7299C3.61869 17.7319 3.62059 17.7339 3.62236 17.7359ZM3.61401 17.7268C3.61263 17.7252 3.6112 17.7237 3.60987 17.7222C3.6113 17.7238 3.61254 17.7251 3.61401 17.7268ZM3.60553 17.7175C3.60453 17.7164 3.60367 17.7154 3.60262 17.7143C3.60362 17.7153 3.60458 17.7164 3.60553 17.7175ZM3.597 17.708C3.59647 17.7075 3.59585 17.7068 3.59533 17.7062C3.59599 17.7069 3.59633 17.7074 3.597 17.708ZM3.58827 17.6984C3.58808 17.6983 3.58808 17.6983 3.58789 17.6981C3.58808 17.6983 3.58813 17.6983 3.58827 17.6984Z" fill="url(#paint6_radial_23661_218344)"/>
<path d="M12.581 21.4121C11.3371 21.3076 10.2493 21.1367 9.26228 20.8941C7.17011 20.3799 5.50674 19.5302 4.17711 18.2965C3.98543 18.1186 3.80061 17.9326 3.62261 17.7383C3.62218 17.7378 3.6217 17.7373 3.62127 17.7368C3.61951 17.7349 3.6176 17.7328 3.61584 17.7309C3.61479 17.7298 3.61393 17.7288 3.61293 17.7277C3.61145 17.7261 3.61021 17.7248 3.60878 17.7232C3.60735 17.7216 3.60588 17.72 3.60445 17.7184C3.60349 17.7174 3.60254 17.7163 3.60154 17.7153C3.59968 17.7132 3.59777 17.7111 3.59591 17.709C3.59525 17.7083 3.59491 17.7079 3.59424 17.7072C3.59186 17.7046 3.58952 17.702 3.58719 17.6994C3.58705 17.6992 3.587 17.6992 3.58681 17.699C2.39418 16.3826 1.51132 14.6877 0.919922 12.5544C2.05525 15.995 4.94299 20.4294 12.2897 21.0452C12.3857 21.1697 12.4827 21.2919 12.581 21.4121Z" fill="#F49E02"/>
<path d="M26.2886 5.56037V19.3279C30.718 19.2018 33.4405 18.3943 35.2784 16.689C37.502 14.6258 38.6117 11.0442 38.7414 5.46694C36.393 5.55084 30.9037 5.70958 26.2886 5.56037ZM24.4183 21.2185C24.2118 21.0127 24.0957 20.7332 24.0957 20.4417V4.42056C24.0957 4.12119 24.2182 3.83469 24.4348 3.6278C24.6514 3.42091 24.9431 3.31222 25.2423 3.32557C31.3094 3.60349 39.7177 3.235 39.8021 3.23118C40.101 3.21831 40.3922 3.327 40.6087 3.53389C40.8251 3.74078 40.9471 4.02728 40.9471 4.32618C40.9471 11.213 39.62 15.6521 36.77 18.2964C35.4403 19.5302 33.7769 20.3799 31.6848 20.8941C29.939 21.3232 27.8772 21.5278 25.1963 21.5381H25.1921C24.9021 21.5381 24.6238 21.4232 24.4183 21.2185Z" fill="#F8B805"/>
<path d="M33.3361 5.60059C33.3366 5.53051 33.3368 5.45901 33.3368 5.38893C33.3368 5.11006 33.3332 4.83261 33.3262 4.5566C35.0346 4.53276 36.5809 4.49177 37.744 4.45554C37.754 4.45506 37.7645 4.45459 37.775 4.45459C38.3203 4.45459 38.7656 4.90746 38.7408 5.45614L38.716 5.46711C37.5271 5.50954 35.5688 5.5696 33.3361 5.60059ZM38.7193 5.46711C38.7265 5.46711 38.7336 5.46663 38.7403 5.46663C38.7336 5.46663 38.7265 5.46711 38.7193 5.46711Z" fill="#F49E02"/>
<path d="M29.7051 19.5068C29.8084 19.3391 29.9097 19.1691 30.0093 18.9959C32.3545 18.6 34.0237 17.8539 35.2799 16.6884C37.5034 14.6252 38.6132 11.0436 38.7429 5.46631L38.7433 5.45582C38.7433 5.45582 40.2206 18.3687 29.7051 19.5068Z" fill="#FCD208"/>
<path d="M38.7168 5.46777L38.7416 5.4568L38.7411 5.4673C38.7345 5.4673 38.7273 5.46777 38.7201 5.46777C38.7192 5.46777 38.7182 5.46777 38.7168 5.46777Z" fill="#FAC105"/>
<path d="M40.6264 3.5498C40.6264 3.5498 40.6264 3.54933 40.626 3.54933C40.6264 3.54933 40.6264 3.5498 40.6264 3.5498ZM40.6245 3.5479C40.6245 3.54742 40.6241 3.54742 40.6236 3.54695C40.6241 3.54742 40.6245 3.54742 40.6245 3.5479ZM40.6226 3.54551C40.6221 3.54551 40.6217 3.54504 40.6212 3.54456C40.6217 3.54504 40.6221 3.54551 40.6226 3.54551ZM40.6202 3.54313C40.6198 3.54313 40.6193 3.54266 40.6188 3.54218C40.6193 3.54266 40.6198 3.54313 40.6202 3.54313ZM40.6179 3.54122C40.6174 3.54075 40.6169 3.54027 40.6164 3.5398C40.6169 3.54027 40.6174 3.54075 40.6179 3.54122ZM40.6155 3.53884C40.615 3.53836 40.6145 3.53789 40.614 3.53741C40.6145 3.53789 40.615 3.53836 40.6155 3.53884ZM40.6131 3.53646C40.6121 3.53598 40.6117 3.53503 40.6107 3.53407C40.6117 3.53503 40.6121 3.53598 40.6131 3.53646ZM40.6021 3.52597C40.6016 3.52549 40.6007 3.52502 40.6002 3.52454C40.6007 3.52502 40.6016 3.52549 40.6021 3.52597ZM33.2793 3.40965C36.8156 3.36055 39.6602 3.23756 39.7994 3.23137C39.6602 3.23756 36.8161 3.36055 33.2793 3.40965ZM39.8041 3.23137C39.8199 3.23041 39.8361 3.23041 39.8518 3.23041C39.8361 3.23041 39.8199 3.23041 39.8041 3.23137ZM39.8527 3.23041C39.8523 3.23041 39.8523 3.23041 39.8518 3.23041C39.8523 3.23041 39.8523 3.23041 39.8527 3.23041Z" fill="url(#paint7_radial_23661_218344)"/>
<path d="M40.9424 4.22656C40.8924 4.02921 40.7875 3.84853 40.6378 3.70504C40.4333 3.50959 40.1611 3.40139 39.8794 3.40139C39.8632 3.40139 39.8475 3.40138 39.8312 3.40234C39.7821 3.40472 36.8923 3.53105 33.2875 3.58063C33.2843 3.52342 33.2809 3.46621 33.2773 3.40949C36.8142 3.36039 39.6582 3.2374 39.7974 3.2312C39.7998 3.2312 39.8012 3.2312 39.8022 3.2312C39.8179 3.23025 39.8341 3.23025 39.8498 3.23025C39.8503 3.23025 39.8503 3.23025 39.8508 3.23025C40.1278 3.23025 40.3952 3.33512 40.5983 3.52438C40.5987 3.52485 40.5997 3.52533 40.6002 3.5258C40.603 3.52866 40.6059 3.53153 40.6088 3.53391C40.6097 3.53486 40.6102 3.53582 40.6111 3.53629C40.6116 3.53677 40.6116 3.53677 40.6121 3.53725C40.6126 3.53772 40.613 3.5382 40.6135 3.53868C40.614 3.53915 40.614 3.53915 40.6145 3.53963C40.6149 3.54011 40.6154 3.54058 40.6159 3.54106C40.6164 3.54106 40.6164 3.54154 40.6169 3.54201C40.6173 3.54249 40.6178 3.54296 40.6183 3.54296C40.6188 3.54344 40.6188 3.54392 40.6192 3.5444C40.6197 3.54487 40.6202 3.54535 40.6207 3.54535C40.6207 3.54582 40.6211 3.5463 40.6216 3.54678C40.6221 3.54726 40.6226 3.54725 40.6226 3.54773C40.6231 3.54821 40.6235 3.54869 40.624 3.54916C40.6245 3.54916 40.6245 3.54964 40.6245 3.54964C40.8075 3.73174 40.9191 3.97152 40.9424 4.22656Z" fill="#FCD208"/>
<path d="M36.7812 18.2881C36.7816 18.2878 36.7822 18.2872 36.7826 18.2869C36.7822 18.2872 36.7816 18.2878 36.7812 18.2881ZM36.7898 18.2801C36.7906 18.2794 36.7912 18.2788 36.7919 18.2782C36.7913 18.2788 36.7905 18.2795 36.7898 18.2801ZM36.7985 18.272C36.7991 18.2715 36.7999 18.2707 36.8004 18.2702C36.7998 18.2708 36.7992 18.2714 36.7985 18.272ZM36.8072 18.2639C36.8079 18.2633 36.8085 18.2627 36.8091 18.2621C36.8084 18.2627 36.8079 18.2632 36.8072 18.2639ZM36.8159 18.2557C36.8164 18.2552 36.817 18.2546 36.8176 18.2541C36.817 18.2547 36.8164 18.2552 36.8159 18.2557ZM36.8246 18.2476C36.8251 18.247 36.8256 18.2466 36.8261 18.2461C36.8256 18.2466 36.8251 18.247 36.8246 18.2476ZM36.8333 18.2394C36.8337 18.239 36.8343 18.2384 36.8346 18.2381C36.8342 18.2385 36.8338 18.2389 36.8333 18.2394ZM36.842 18.2311C36.8425 18.2306 36.8427 18.2305 36.8432 18.2299C36.8427 18.2304 36.8424 18.2307 36.842 18.2311ZM36.8508 18.2227C36.8512 18.2224 36.8512 18.2224 36.8516 18.222C36.8514 18.2222 36.851 18.2225 36.8508 18.2227ZM36.8597 18.2143L36.8601 18.214C36.8599 18.2141 36.8599 18.2141 36.8597 18.2143Z" fill="url(#paint8_radial_23661_218344)"/>
<path d="M28.3516 21.4131C28.4499 21.2929 28.547 21.1706 28.6429 21.0461C35.9991 20.4344 38.8905 15.9968 40.0265 12.5542C39.3548 14.9771 38.307 16.8344 36.8567 18.2142L36.8563 18.2146C36.8536 18.2172 36.851 18.2197 36.8483 18.2223C36.8479 18.2226 36.8479 18.2226 36.8475 18.223C36.845 18.2254 36.8424 18.2278 36.8399 18.2302C36.8394 18.2307 36.8392 18.2308 36.8387 18.2313C36.8362 18.2336 36.8338 18.236 36.8313 18.2383C36.831 18.2386 36.8304 18.2392 36.83 18.2396C36.8276 18.2418 36.8252 18.2441 36.8228 18.2463C36.8223 18.2468 36.8218 18.2472 36.8213 18.2478C36.8189 18.2499 36.8166 18.2521 36.8143 18.2543C36.8138 18.2548 36.8131 18.2554 36.8126 18.2559C36.8104 18.258 36.808 18.2602 36.8059 18.2622C36.8052 18.2629 36.8046 18.2634 36.8039 18.2641C36.8017 18.2661 36.7993 18.2684 36.7971 18.2704C36.7966 18.2709 36.7958 18.2716 36.7953 18.2721C36.793 18.2743 36.7909 18.2762 36.7886 18.2784C36.7879 18.279 36.7873 18.2796 36.7866 18.2802C36.7842 18.2825 36.7818 18.2847 36.7793 18.287C36.779 18.2873 36.7784 18.2879 36.778 18.2882C36.7751 18.2909 36.7723 18.2936 36.7694 18.2963C35.4397 19.53 33.7763 20.3797 31.6842 20.8939C30.6935 21.1374 29.6011 21.3086 28.3516 21.4131Z" fill="#F49E02"/>
<path d="M8.05549 0.00115395C7.75593 1.71682 7.5957 3.52354 7.5957 5.38937C7.5957 16.5856 13.3583 25.6621 20.4668 25.6621C27.5753 25.6621 33.3378 16.5856 33.3378 5.38937C33.3378 3.52354 33.1776 1.71682 32.8781 0.00115395H8.05549Z" fill="#F8B805"/>
<path d="M8.05549 0.00115395C7.75593 1.71682 7.5957 3.52354 7.5957 5.38937C7.5957 16.5856 13.3583 25.6621 20.4668 25.6621C27.5753 25.6621 33.3378 16.5856 33.3378 5.38937C33.3378 3.52354 33.1776 1.71682 32.8781 0.00115395H8.05549Z" fill="#F8B805"/>
<path d="M20.4688 25.6621C24.92 25.6621 28.5285 16.5856 28.5285 5.38937C28.5285 3.63271 28.4396 1.92895 28.2727 0.303862C30.8757 0.230927 32.5234 0.122236 32.5234 0.00115395H28.2406H32.88C33.1796 1.71682 33.3398 3.52354 33.3398 5.38937C33.3398 15.6678 28.4832 24.1599 22.1873 25.483C21.906 25.5421 21.6224 25.5868 21.3357 25.6169C21.0494 25.6468 20.7599 25.6621 20.4688 25.6621Z" fill="#F49E02"/>
<path d="M24.0213 17.0264L20.6478 15.2528L17.2744 17.0264L17.9186 13.27L15.1895 10.6096L18.9611 10.0616L20.6478 6.64399L22.3346 10.0616L26.1063 10.6096L23.377 13.27L24.0213 17.0264Z" fill="#F49602"/>
<path d="M20.4685 25.6621C14.1994 25.6621 9.11719 16.5856 9.11719 5.38937C9.11719 3.59171 9.24833 1.84887 9.49421 0.189453C10.283 0.2376 11.3652 0.280029 12.6635 0.313875C12.4973 1.93563 12.4087 3.63652 12.4087 5.38937C12.4087 16.5856 16.0172 25.6621 20.4685 25.6621Z" fill="#FCD208"/>
<path d="M13.8064 3.50566C12.312 3.50566 11.1005 2.29434 11.1005 0.799868C11.1005 2.29434 9.88896 3.50566 8.39453 3.50566C9.88896 3.50566 11.1005 4.71744 11.1005 6.21191C11.1005 4.71744 12.312 3.50566 13.8064 3.50566Z" fill="white"/>
<path d="M14.8776 6.21266C14.2852 6.21266 13.805 5.73214 13.805 5.14007C13.805 5.73214 13.3248 6.21266 12.7324 6.21266C13.3248 6.21266 13.805 6.69271 13.805 7.28516C13.805 6.69271 14.2852 6.21266 14.8776 6.21266Z" fill="white"/>
<path d="M20.2887 0.399414C17.4047 0.399414 14.7534 0.366997 12.6621 0.312653C12.6728 0.207777 12.6838 0.103852 12.6952 -6.9499e-05H28.2389C28.2499 0.100516 28.2607 0.201577 28.271 0.302639C26.1286 0.363181 23.3389 0.399414 20.2887 0.399414Z" fill="#FCD208"/>
<path d="M28.2724 0.303711C28.262 0.202649 28.2512 0.101587 28.2402 0.00100243H32.523C32.523 0.122086 30.8753 0.230775 28.2724 0.303711Z" fill="#FAC105"/>
<path d="M9.49362 0.189453C8.57658 0.133202 8.05664 0.0693232 8.05664 0.00115417H9.52208C9.5124 0.0636027 9.50297 0.126528 9.49362 0.189453Z" fill="#FCD208"/>
<path d="M12.6635 0.313477C11.3652 0.27963 10.2829 0.237201 9.49414 0.189053C9.50348 0.126128 9.51292 0.0632029 9.5226 0.000754446H12.6966C12.6852 0.104676 12.6742 0.208601 12.6635 0.313477Z" fill="#FEE20B"/>
<path d="M25.6736 33.8137H15.2752C13.9021 33.8137 12.7891 34.9268 12.7891 36.2998H28.1597C28.1597 34.9268 27.0466 33.8137 25.6736 33.8137Z" fill="#F8B805"/>
<path d="M28.1597 36.2959C28.1596 36.2552 28.1585 36.2148 28.1565 36.1745C28.0914 34.8597 27.0045 33.8135 25.6735 33.8135H23.7924C24.0063 33.8135 24.2103 33.8798 24.3965 34H17.3987C17.6905 33.8798 18.0101 33.8135 18.3452 33.8135H16.2927C15.9575 33.8135 15.6379 33.8798 15.3462 34H15.2752C14.1214 34 13.1517 34.7861 12.8715 35.8519H12.83C12.8038 35.996 12.7893 36.1443 12.7891 36.2959C12.7911 34.9246 13.9034 33.8135 15.2752 33.8135H25.6736C27.0454 33.8135 28.1576 34.9246 28.1597 36.2959Z" fill="#FCD208"/>
<path d="M28.0753 35.8525H25.3513C25.2538 35.0116 24.8863 34.3182 24.3945 34.0006H25.6717C26.8254 34.0006 27.795 34.7867 28.0753 35.8525Z" fill="#F49E02"/>
<path d="M28.157 36.1748C28.1514 36.0653 28.1384 35.9576 28.1192 35.8522H28.0778C27.7975 34.7863 26.8279 34.0003 25.6741 34.0003H24.397C24.2108 33.88 24.0068 33.8137 23.793 33.8137H25.6741C27.0051 33.8137 28.0919 34.86 28.157 36.1748Z" fill="#F8B504"/>
<path d="M15.8982 35.8525H13.8457C13.9986 35.0116 14.5746 34.3181 15.3451 34.0006H17.3976C16.6271 34.3181 16.0511 35.0116 15.8982 35.8525Z" fill="#FCD208"/>
<path d="M17.3983 34H15.3457C15.6374 33.8798 15.9571 33.8135 16.2922 33.8135H18.3448C18.0096 33.8135 17.69 33.8798 17.3983 34Z" fill="#FEE20B"/>
<path d="M32.1747 36.2988H8.77312C8.64599 36.2988 8.54297 36.4019 8.54297 36.529V45.6194C8.54297 45.7466 8.64599 45.8496 8.77312 45.8496H32.1747C32.3018 45.8496 32.4049 45.7466 32.4049 45.6194V36.529C32.4049 36.4019 32.3018 36.2988 32.1747 36.2988Z" fill="#44352A"/>
<path d="M17.0264 44.6182H8.54297V43.9775C8.54297 44.1048 8.64599 44.2077 8.77312 44.2077H18.0005C17.6832 44.3536 17.3587 44.4904 17.0264 44.6182Z" fill="#35281F"/>
<path d="M32.1761 44.209H18.002C18.4889 43.9859 18.958 43.7418 19.4063 43.4791H30.2484V37.7086H24.6094C24.7487 37.3457 24.8644 36.9753 24.9553 36.5984H32.1761C32.3032 36.5984 32.4063 36.7014 32.4063 36.8286V43.9787C32.4063 44.106 32.3032 44.209 32.1761 44.209Z" fill="#35281F"/>
<path d="M32.4058 44.6182H17.0273C17.3596 44.4904 17.6842 44.3536 18.0014 44.2077H32.1756C32.3027 44.2077 32.4058 44.1048 32.4058 43.9775V44.6182Z" fill="#291E17"/>
<path d="M8.54297 36.8291V36.5307C8.54297 36.4035 8.64599 36.3005 8.77312 36.3005H12.7886H25.0203C24.9999 36.4005 24.9777 36.4998 24.9539 36.5989H8.77312C8.64599 36.5989 8.54297 36.702 8.54297 36.8291Z" fill="#534235"/>
<path d="M32.4041 36.8291C32.4041 36.702 32.3011 36.5989 32.1739 36.5989H24.9531C24.977 36.4998 24.9991 36.4005 25.0195 36.3005H28.1585H32.1739C32.3011 36.3005 32.4041 36.4035 32.4041 36.5307V36.8291Z" fill="#45362A"/>
<path d="M33.952 44.6192H6.99882C6.83879 44.6192 6.70898 44.7489 6.70898 44.9091V46.344C6.70898 46.5041 6.83879 46.6338 6.99882 46.6338H33.952C34.1121 46.6338 34.2419 46.5041 34.2419 46.344V44.9091C34.2419 44.7489 34.1121 44.6192 33.952 44.6192Z" fill="#44352A"/>
<path d="M26.2667 46.6338H13.4279C13.2778 46.6338 13.1542 46.5199 13.1395 46.3735H26.5551C26.5403 46.5199 26.4169 46.6338 26.2667 46.6338ZM9.24697 46.6338H6.99882C6.83879 46.6338 6.70898 46.5041 6.70898 46.344V46.0837C6.70898 46.2438 6.83879 46.3735 6.99882 46.3735H8.95856C8.97329 46.5199 9.09681 46.6338 9.24697 46.6338Z" fill="#35281F"/>
<path d="M6.70898 45.1777V44.9093C6.70898 44.7492 6.83879 44.6195 6.99882 44.6195H33.952C34.1121 44.6195 34.2419 44.7492 34.2419 44.9093C34.2419 44.7492 34.1121 44.6195 33.952 44.6195H26.2667C26.4195 44.6195 26.5447 44.7377 26.5557 44.8879H13.1388C13.1499 44.7377 13.2751 44.6195 13.4279 44.6195H9.24697C9.09414 44.6195 8.96895 44.7377 8.95789 44.8879H6.99882C6.83879 44.8879 6.70898 45.0176 6.70898 45.1777Z" fill="#534235"/>
<path d="M33.9497 46.373H26.5527C26.5537 46.3635 26.5542 46.3535 26.5542 46.3435V44.9086C26.5542 44.9015 26.5539 44.8943 26.5534 44.8872H33.9497C34.1098 44.8872 34.2395 45.0168 34.2395 45.177V46.0832C34.2395 46.2434 34.1098 46.373 33.9497 46.373Z" fill="#35281F"/>
<path d="M33.9509 46.6338H26.2656C26.4158 46.6338 26.5393 46.5199 26.554 46.3735H33.9509C34.111 46.3735 34.2408 46.2438 34.2408 46.0837V46.344C34.2408 46.5041 34.111 46.6338 33.9509 46.6338Z" fill="#291E17"/>
<path d="M34.2408 45.1777C34.2408 45.0176 34.111 44.8879 33.9509 44.8879H26.5547C26.5436 44.7377 26.4184 44.6195 26.2656 44.6195H33.9509C34.111 44.6195 34.2408 44.7492 34.2408 44.9093V45.1777Z" fill="#413228"/>
<path d="M13.1375 46.373H8.95651C8.95556 46.3635 8.95508 46.3535 8.95508 46.3435V44.9086C8.95508 44.9015 8.95532 44.8943 8.95584 44.8872H13.1368C13.1363 44.8943 13.136 44.9015 13.136 44.9086V46.3435C13.136 46.3535 13.1365 46.3635 13.1375 46.373Z" fill="#534235"/>
<path d="M13.4264 46.6338H9.24544C9.09528 46.6338 8.97176 46.5199 8.95703 46.3735H13.138C13.1527 46.5199 13.2762 46.6338 13.4264 46.6338Z" fill="#45362A"/>
<path d="M13.136 44.8877H8.95508C8.96614 44.7375 9.09132 44.6193 9.24415 44.6193H13.4251C13.2723 44.6193 13.1471 44.7375 13.136 44.8877Z" fill="#614E3F"/>
<path d="M10.6602 43.4795H30.2466V37.7089H10.6602V43.4795Z" fill="#EFCA6F"/>
<path d="M19.4034 43.4795H10.6602V43.356H19.61C19.5416 43.3975 19.4728 43.439 19.4034 43.4795Z" fill="#E7B54F"/>
<path d="M24.5588 37.832H10.6602V37.7089H30.2466H24.6071C24.5913 37.75 24.5752 37.7911 24.5588 37.832Z" fill="#F7DF8F"/>
<path d="M28.1597 36.2998C28.1597 36.2986 28.1597 36.2974 28.1597 36.2961C28.1597 36.2974 28.1597 36.2986 28.1597 36.2998ZM12.7891 36.2998C12.7891 36.2986 12.7891 36.2974 12.7891 36.2961C12.7891 36.2974 12.7891 36.2986 12.7891 36.2998Z" fill="url(#paint9_radial_23661_218344)"/>
<path d="M28.1522 36.2998H15.8592C15.8592 36.147 15.873 35.9973 15.8994 35.8521H25.3534C25.3702 35.9973 25.3791 36.1469 25.3791 36.2997H28.1521C28.1522 36.2998 28.1522 36.2998 28.1522 36.2998ZM13.8067 36.2998H12.7969C12.8083 36.1463 12.8336 35.9966 12.8716 35.8521H13.8469C13.8205 35.9973 13.8067 36.147 13.8067 36.2998Z" fill="#F49E02"/>
<path d="M28.1597 36.2998H28.152C28.152 36.2998 28.152 36.2998 28.152 36.2997H28.1595C28.1595 36.2578 28.1585 36.2162 28.1565 36.1748C28.1585 36.215 28.1596 36.2554 28.1597 36.2961C28.1597 36.2974 28.1597 36.2986 28.1597 36.2998ZM12.7967 36.2998H12.7891C12.7891 36.2986 12.7891 36.2974 12.7891 36.2961C12.7893 36.1445 12.8038 35.9962 12.83 35.8521H12.8715C12.8335 35.9966 12.8081 36.1463 12.7967 36.2998Z" fill="#F8B504"/>
<path d="M28.1503 36.2998H25.3772C25.3772 36.147 25.3684 35.9974 25.3516 35.8522H28.0756C28.1135 35.9966 28.1389 36.1464 28.1503 36.2998Z" fill="#F08801"/>
<path d="M28.1586 36.2998H28.151C28.1396 36.1462 28.1142 35.9962 28.0762 35.8516H28.1177C28.1369 35.9572 28.1498 36.065 28.1555 36.1747C28.1575 36.2162 28.1586 36.2578 28.1586 36.2998Z" fill="#F49C02"/>
<path d="M15.8592 36.2998H13.8066C13.8066 36.147 13.8204 35.9973 13.8469 35.8521H15.8994C15.873 35.9973 15.8592 36.147 15.8592 36.2998Z" fill="#F8B504"/>
<path d="M30.246 43.3555H19.6094C21.9276 41.9482 23.6771 40.0319 24.5582 37.8315H30.246V43.3555ZM29.4998 42.4216C29.3144 42.4216 29.164 42.5722 29.164 42.7577C29.164 42.9431 29.3144 43.0933 29.4998 43.0933C29.6852 43.0933 29.8356 42.9431 29.8356 42.7577C29.8356 42.5722 29.6852 42.4216 29.4998 42.4216ZM29.4998 38.0907C29.3144 38.0907 29.164 38.241 29.164 38.4264C29.164 38.6119 29.3144 38.7622 29.4998 38.7622C29.6852 38.7622 29.8356 38.6119 29.8356 38.4264C29.8356 38.241 29.6852 38.0907 29.4998 38.0907Z" fill="#EABD5C"/>
<path d="M30.2475 43.4795H19.4043C19.4737 43.439 19.5425 43.3975 19.6109 43.356H30.2475V43.4795Z" fill="#E3AA41"/>
<path d="M30.2484 37.832H24.5605C24.5769 37.7911 24.5931 37.75 24.6088 37.7089H30.2484V37.832Z" fill="#F2D177"/>
<path d="M11.4319 38.7607C11.2463 38.7607 11.0957 38.6102 11.0957 38.4246C11.0957 38.2389 11.2463 38.0883 11.4319 38.0883C11.6176 38.0883 11.7681 38.2389 11.7681 38.4246C11.7681 38.6102 11.6176 38.7607 11.4319 38.7607Z" fill="#F7DF8F"/>
<path d="M29.5022 38.7627C29.3166 38.7627 29.166 38.6121 29.166 38.4265C29.166 38.2408 29.3166 38.0903 29.5022 38.0903C29.6879 38.0903 29.8384 38.2408 29.8384 38.4265C29.8384 38.6121 29.6879 38.7627 29.5022 38.7627Z" fill="#F4D780"/>
<path d="M29.5022 43.0928C29.3166 43.0928 29.166 42.9424 29.166 42.7567C29.166 42.5711 29.3166 42.4202 29.5022 42.4202C29.6879 42.4202 29.8384 42.5711 29.8384 42.7567C29.8384 42.9424 29.6879 43.0928 29.5022 43.0928Z" fill="#F4D780"/>
<path d="M11.7427 38.3884C11.7427 38.2027 11.5922 38.0522 11.4065 38.0522C11.2208 38.0522 11.0703 38.2027 11.0703 38.3884C11.0703 38.5741 11.2208 38.7246 11.4065 38.7246C11.5922 38.7246 11.7427 38.5741 11.7427 38.3884Z" fill="#44352A"/>
<path d="M11.4319 43.0898C11.2463 43.0898 11.0957 42.9395 11.0957 42.7538C11.0957 42.5681 11.2463 42.4178 11.4319 42.4178C11.6176 42.4178 11.7681 42.5681 11.7681 42.7538C11.7681 42.9395 11.6176 43.0898 11.4319 43.0898Z" fill="#F7DF8F"/>
<path d="M11.7427 42.7157C11.7427 42.53 11.5922 42.3792 11.4065 42.3792C11.2208 42.3792 11.0703 42.53 11.0703 42.7157C11.0703 42.9014 11.2208 43.0518 11.4065 43.0518C11.5922 43.0518 11.7427 42.9014 11.7427 42.7157Z" fill="#44352A"/>
<path d="M29.8384 38.3884C29.8384 38.2027 29.6878 38.0522 29.5021 38.0522C29.3165 38.0522 29.166 38.2027 29.166 38.3884C29.166 38.5741 29.3165 38.7246 29.5021 38.7246C29.6878 38.7246 29.8384 38.5741 29.8384 38.3884Z" fill="#44352A"/>
<path d="M29.8384 42.7157C29.8384 42.53 29.6878 42.3792 29.5021 42.3792C29.3165 42.3792 29.166 42.53 29.166 42.7157C29.166 42.9014 29.3165 43.0518 29.5021 43.0518C29.6878 43.0518 29.8384 42.9014 29.8384 42.7157Z" fill="#44352A"/>
<defs>
<radialGradient id="paint0_radial_23661_218344" cx="0" cy="0" r="1" gradientUnits="userSpaceOnUse" gradientTransform="translate(20.4762 23.3172) scale(31.0925 31.092)">
<stop stop-color="#FBDB82"/>
<stop offset="1" stop-color="#FBDB82"/>
</radialGradient>
<radialGradient id="paint1_radial_23661_218344" cx="0" cy="0" r="1" gradientUnits="userSpaceOnUse" gradientTransform="translate(20.4713 23.3173) scale(31.0923 31.0921)">
<stop stop-color="#FBDB82"/>
<stop offset="1" stop-color="#FBDB82"/>
</radialGradient>
<radialGradient id="paint2_radial_23661_218344" cx="0" cy="0" r="1" gradientUnits="userSpaceOnUse" gradientTransform="translate(20.4736 23.3173) scale(31.092 31.092)">
<stop stop-color="#FBDB82"/>
<stop offset="1" stop-color="#FBDB82"/>
</radialGradient>
<radialGradient id="paint3_radial_23661_218344" cx="0" cy="0" r="1" gradientUnits="userSpaceOnUse" gradientTransform="translate(20.4715 23.3144) scale(31.1256 31.1319)">
<stop stop-color="#FBDB82"/>
<stop offset="1" stop-color="#FBDB82"/>
</radialGradient>
<radialGradient id="paint4_radial_23661_218344" cx="0" cy="0" r="1" gradientUnits="userSpaceOnUse" gradientTransform="translate(20.4735 23.3174) scale(31.0924 31.092)">
<stop stop-color="#F7BC42"/>
<stop offset="1" stop-color="#F7BC42"/>
</radialGradient>
<radialGradient id="paint5_radial_23661_218344" cx="0" cy="0" r="1" gradientUnits="userSpaceOnUse" gradientTransform="translate(20.4715 23.3182) scale(31.092 31.0919)">
<stop stop-color="white"/>
<stop offset="1" stop-color="white"/>
</radialGradient>
<radialGradient id="paint6_radial_23661_218344" cx="0" cy="0" r="1" gradientUnits="userSpaceOnUse" gradientTransform="translate(20.4748 23.3166) scale(31.092)">
<stop stop-color="#FBDB82"/>
<stop offset="1" stop-color="#FBDB82"/>
</radialGradient>
<radialGradient id="paint7_radial_23661_218344" cx="0" cy="0" r="1" gradientUnits="userSpaceOnUse" gradientTransform="translate(20.4754 23.3177) scale(31.092 31.092)">
<stop stop-color="white"/>
<stop offset="1" stop-color="white"/>
</radialGradient>
<radialGradient id="paint8_radial_23661_218344" cx="0" cy="0" r="1" gradientUnits="userSpaceOnUse" gradientTransform="translate(20.4551 23.3238) scale(31.1318 31.1328)">
<stop stop-color="#FBDB82"/>
<stop offset="1" stop-color="#FBDB82"/>
</radialGradient>
<radialGradient id="paint9_radial_23661_218344" cx="0" cy="0" r="1" gradientUnits="userSpaceOnUse" gradientTransform="translate(20.4744 23.3171) scale(31.092 31.0928)">
<stop stop-color="#FBDB82"/>
<stop offset="1" stop-color="#FBDB82"/>
</radialGradient>
</defs>
</svg>
