<svg width="113" height="112" viewBox="0 0 113 112" fill="none" xmlns="http://www.w3.org/2000/svg">
<rect x="67.7002" y="67.2" width="44.8" height="44.8" rx="11.2" fill="#34A770"/>
<rect x="8.43346" y="7.93322" width="96.1333" height="96.1333" rx="21.9333" fill="url(#paint0_linear_13261_1522)" stroke="white" stroke-width="0.933333"/>
<rect x="0.5" width="28" height="28" rx="7.46667" fill="#34A770"/>
<path d="M56.4995 29.8667C42.1001 29.8667 30.3662 41.6006 30.3662 56C30.3662 70.3995 42.1001 82.1334 56.4995 82.1334C70.899 82.1334 82.6329 70.3995 82.6329 56C82.6329 41.6006 70.899 29.8667 56.4995 29.8667ZM68.9913 49.9894L54.1737 64.807C53.8078 65.1728 53.3113 65.3819 52.7886 65.3819C52.2659 65.3819 51.7694 65.1728 51.4035 64.807L44.0078 57.4112C43.2499 56.6534 43.2499 55.399 44.0078 54.6411C44.7657 53.8832 46.0201 53.8832 46.7779 54.6411L52.7886 60.6518L66.2211 47.2192C66.979 46.4614 68.2334 46.4614 68.9913 47.2192C69.7491 47.9771 69.7491 49.2054 68.9913 49.9894Z" fill="white"/>
<defs>
<linearGradient id="paint0_linear_13261_1522" x1="7.9668" y1="7.46655" x2="105.033" y2="104.533" gradientUnits="userSpaceOnUse">
<stop stop-color="#7CD6AB"/>
<stop offset="1" stop-color="#23B26E"/>
</linearGradient>
</defs>
</svg>
